<?xml version="1.0" encoding="UTF-8" standalone="no"?>
<!-- Generator: Adobe Illustrator 19.1.0, SVG Export Plug-In . SVG Version: 6.00 Build 0)  -->

<svg
   xmlns:dc="http://purl.org/dc/elements/1.1/"
   xmlns:cc="http://creativecommons.org/ns#"
   xmlns:rdf="http://www.w3.org/1999/02/22-rdf-syntax-ns#"
   xmlns:svg="http://www.w3.org/2000/svg"
   xmlns="http://www.w3.org/2000/svg"
   xmlns:sodipodi="http://sodipodi.sourceforge.net/DTD/sodipodi-0.dtd"
   xmlns:inkscape="http://www.inkscape.org/namespaces/inkscape"
   version="1.1"
   x="0px"
   y="0px"
   width="24px"
   height="24px"
   viewBox="0 0 24 24"
   enable-background="new 0 0 24 24"
   xml:space="preserve"
   id="svg839"
   sodipodi:docname="aperture.svg"
   inkscape:version="0.92.2 (5c3e80d, 2017-08-06)"><metadata
     id="metadata845"><rdf:RDF><cc:Work
         rdf:about=""><dc:format>image/svg+xml</dc:format><dc:type
           rdf:resource="http://purl.org/dc/dcmitype/StillImage" /></cc:Work></rdf:RDF></metadata><defs
     id="defs843" /><sodipodi:namedview
     pagecolor="#ffffff"
     bordercolor="#666666"
     borderopacity="1"
     objecttolerance="10"
     gridtolerance="10"
     guidetolerance="10"
     inkscape:pageopacity="0"
     inkscape:pageshadow="2"
     inkscape:window-width="1920"
     inkscape:window-height="1007"
     id="namedview841"
     showgrid="false"
     inkscape:zoom="34.375"
     inkscape:cx="12"
     inkscape:cy="12"
     inkscape:window-x="-9"
     inkscape:window-y="-9"
     inkscape:window-maximized="1"
     inkscape:current-layer="svg839" /><g
     id="Bounding_Boxes"><g
       id="ui_x5F_spec_x5F_header_copy_3" /><path
       fill="none"
       d="M0,0h24v24H0V0z"
       id="path832" /></g><g
     id="Outline_1_"
     style="fill:#212124;fill-opacity:1"><g
       id="ui_x5F_spec_x5F_header_copy_4"
       style="fill:#212124;fill-opacity:1" /><path
       d="M14.25,2.26l-0.08-0.04l-0.01,0.02C13.46,2.09,12.74,2,12,2C6.48,2,2,6.48,2,12c0,5.52,4.48,10,10,10s10-4.48,10-10   C22,7.25,18.69,3.28,14.25,2.26z M19.41,9h-5.68h-2.31l2.71-4.7C16.53,4.96,18.48,6.72,19.41,9z M13.1,4.08L10.27,9l-1.15,2   L6.4,6.3C7.84,4.88,9.82,4,12,4C12.37,4,12.74,4.03,13.1,4.08z M5.7,7.09L8.54,12l0,0l1.15,2H4.26C4.1,13.36,4,12.69,4,12   C4,10.15,4.64,8.45,5.7,7.09z M4.59,15h5.68h2.3l-2.71,4.7C7.46,19.03,5.52,17.28,4.59,15z M10.9,19.91L14.89,13l2.72,4.7   C16.16,19.12,14.18,20,12,20C11.62,20,11.26,19.96,10.9,19.91z M18.3,16.91l-4-6.91h5.43C19.9,10.64,20,11.31,20,12   C20,13.85,19.36,15.55,18.3,16.91z"
       id="path836"
       style="fill:#212124;fill-opacity:1" /></g></svg>