<?xml version="1.0" encoding="UTF-8" standalone="no"?>
<svg
   xmlns:dc="http://purl.org/dc/elements/1.1/"
   xmlns:cc="http://creativecommons.org/ns#"
   xmlns:rdf="http://www.w3.org/1999/02/22-rdf-syntax-ns#"
   xmlns:svg="http://www.w3.org/2000/svg"
   xmlns="http://www.w3.org/2000/svg"
   xmlns:sodipodi="http://sodipodi.sourceforge.net/DTD/sodipodi-0.dtd"
   xmlns:inkscape="http://www.inkscape.org/namespaces/inkscape"
   width="620"
   height="330"
   version="1.1"
   id="svg93"
   sodipodi:docname="FA.svg"
   inkscape:version="0.92.1 r15371">
  <metadata
     id="metadata99">
    <rdf:RDF>
      <cc:Work
         rdf:about="">
        <dc:format>image/svg+xml</dc:format>
        <dc:type
           rdf:resource="http://purl.org/dc/dcmitype/StillImage" />
        <dc:title></dc:title>
      </cc:Work>
    </rdf:RDF>
  </metadata>
  <defs
     id="defs97" />
  <sodipodi:namedview
     pagecolor="#ffffff"
     bordercolor="#666666"
     borderopacity="1"
     objecttolerance="10"
     gridtolerance="10"
     guidetolerance="10"
     inkscape:pageopacity="0"
     inkscape:pageshadow="2"
     inkscape:window-width="640"
     inkscape:window-height="480"
     id="namedview95"
     showgrid="false"
     inkscape:zoom="0.78225806"
     inkscape:cx="310"
     inkscape:cy="165"
     inkscape:window-x="0"
     inkscape:window-y="0"
     inkscape:window-maximized="1"
     inkscape:current-layer="svg93" />
  <mask
     id="_1">
    <g
       id="g80">
      <path
         d="M 0,0 620,0 620,330 0,330 0,0 Z"
         style="stroke:none; fill:white"
         id="path76" />
      <path
         d="M 325.999985,222.666664 C 325.999985,235.999991 328.333316,238.333329 334.999976,244.999983 C 341.666636,251.666656 353.333329,252.666655 369.333314,255.666652 C 385.333298,258.666649 391.333330,259.666649 401.999986,258.666649 C 412.666643,257.666650 424.999964,248.333319 436.666657,224.999982 C 448.333312,201.666664 447.333313,165.000000 447.333313,165.000000 C 447.333313,165.000000 448.333312,128.333316 436.666657,104.999998 C 424.999964,81.666661 412.666643,72.333330 401.999986,71.333331 C 391.333330,70.333332 385.333298,71.333331 369.333314,74.333328 C 353.333329,77.333325 341.666636,78.333324 334.999976,84.999998 C 328.333316,91.666651 325.999985,93.999989 325.999985,107.333316 C 325.999985,120.666663 325.999985,165.000000 325.999985,165.000000 C 325.999985,165.000000 325.999985,209.333317 325.999985,222.666664 Z"
         style="stroke:none; fill:black"
         fill-rule="nonzero"
         id="path78" />
    </g>
  </mask>
  <path
     d="M 21.499979,218.499988 C 23.499978,244.999983 29.499972,266.499982 34.999967,272.499996 C 40.499998,278.499990 53.999985,289.999999 82.499995,293.999995 C 110.999968,297.999991 140.499977,298.499991 159.499996,297.499992 C 178.499978,296.499993 211.499983,290.499998 227.499968,290.499998 C 243.499990,290.499998 333.499978,290.499998 333.499978,290.499998 C 333.499978,290.499998 327.499983,309.500000 327.499983,309.500000 C 327.499983,309.500000 328.499982,312.999997 332.999978,313.999996 C 337.499974,314.999995 344.999967,315.999994 350.999998,313.999996 C 356.999992,311.999997 363.499986,291.999997 363.499986,291.999997 C 363.499986,291.999997 405.999982,291.999997 405.999982,291.999997 C 405.999982,291.999997 438.499988,297.499992 468.999996,297.499992 C 499.499967,297.499992 523.499981,297.499992 561.999981,265.499983 C 600.499982,233.499994 596.999985,165.000000 596.999985,165.000000 C 596.999985,165.000000 600.499982,96.499987 561.999981,64.499997 C 523.499981,32.499989 499.499967,32.499989 468.999996,32.499989 C 438.499988,32.499989 405.999982,37.999983 405.999982,37.999983 C 405.999982,37.999983 363.499986,37.999983 363.499986,37.999983 C 363.499986,37.999983 356.999992,17.999983 350.999998,15.999985 C 344.999967,13.999987 337.499974,14.999986 332.999978,15.999985 C 328.499982,16.999984 327.499983,20.499980 327.499983,20.499980 C 327.499983,20.499980 333.499978,39.499982 333.499978,39.499982 C 333.499978,39.499982 243.499990,39.499982 227.499968,39.499982 C 211.499983,39.499982 178.499978,33.499988 159.499996,32.499989 C 140.499977,31.499990 110.999968,31.999989 82.499995,35.999985 C 53.999985,39.999982 40.499998,51.499990 34.999967,57.499985 C 29.499972,63.499998 23.499978,84.999998 21.499979,111.499992 C 19.499981,137.999986 20.499980,165.000000 20.499980,165.000000 C 20.499980,165.000000 19.499981,191.999994 21.499979,218.499988 Z"
     fill-rule="nonzero"
     mask="url(#_1)"
     style="stroke: none; fill: rgb(55, 55, 55)"
     inkscape:label="Shape 1"
     id="Shape 1" />
  <path
     d="M 418.999970,34.999986 C 418.999970,34.999986 508.999995,34.999986 508.999995,34.999986 C 511.761411,34.999986 513.999990,37.238576 513.999990,39.999982 C 513.999990,39.999982 513.999990,76.999986 513.999990,76.999986 C 513.999990,79.761411 511.761411,81.999981 508.999995,81.999981 C 508.999995,81.999981 418.999970,81.999981 418.999970,81.999981 C 416.238554,81.999981 413.999975,79.761411 413.999975,76.999986 C 413.999975,76.999986 413.999975,39.999982 413.999975,39.999982 C 413.999975,37.238576 416.238554,34.999986 418.999970,34.999986 Z M 508.999995,294.999994 C 508.999995,294.999994 418.999970,294.999994 418.999970,294.999994 C 416.238554,294.999994 413.999975,292.761405 413.999975,289.999999 C 413.999975,289.999999 413.999975,252.999995 413.999975,252.999995 C 413.999975,250.238569 416.238554,248.000000 418.999970,248.000000 C 418.999970,248.000000 508.999995,248.000000 508.999995,248.000000 C 511.761411,248.000000 513.999990,250.238569 513.999990,252.999995 C 513.999990,252.999995 513.999990,289.999999 513.999990,289.999999 C 513.999990,292.761405 511.761411,294.999994 508.999995,294.999994 Z"
     fill-rule="nonzero"
     style="stroke: none; fill: rgb(209, 209, 209)"
     inkscape:label="FWD"
     id="FWD" />
  <path
     d="M 75.999964,34.999986 C 75.999964,34.999986 165.999990,34.999986 165.999990,34.999986 C 168.761406,34.999986 170.999985,37.238576 170.999985,39.999982 C 170.999985,39.999982 170.999985,76.999986 170.999985,76.999986 C 170.999985,79.761411 168.761406,81.999981 165.999990,81.999981 C 165.999990,81.999981 75.999964,81.999981 75.999964,81.999981 C 73.238548,81.999981 70.999969,79.761411 70.999969,76.999986 C 70.999969,76.999986 70.999969,39.999982 70.999969,39.999982 C 70.999969,37.238576 73.238548,34.999986 75.999964,34.999986 Z M 165.999990,294.999994 C 165.999990,294.999994 75.999964,294.999994 75.999964,294.999994 C 73.238548,294.999994 70.999969,292.761405 70.999969,289.999999 C 70.999969,289.999999 70.999969,252.999995 70.999969,252.999995 C 70.999969,250.238569 73.238548,248.000000 75.999964,248.000000 C 75.999964,248.000000 165.999990,248.000000 165.999990,248.000000 C 168.761406,248.000000 170.999985,250.238569 170.999985,252.999995 C 170.999985,252.999995 170.999985,289.999999 170.999985,289.999999 C 170.999985,292.761405 168.761406,294.999994 165.999990,294.999994 Z"
     fill-rule="nonzero"
     style="stroke: none; fill: rgb(209, 209, 209)"
     inkscape:label="RWD"
     id="RWD" />
  <path
     d="M 448.999978,138.499986 C 448.999978,138.499986 478.999987,138.499986 478.999987,138.499986 C 478.999987,138.499986 478.999987,191.499994 478.999987,191.499994 C 478.999987,191.499994 448.999978,191.499994 448.999978,191.499994 C 448.999978,191.499994 448.999978,138.499986 448.999978,138.499986 Z M 456.499971,62.499999 C 456.499971,62.499999 471.499994,62.499999 471.499994,62.499999 C 471.499994,62.499999 471.499994,267.499981 471.499994,267.499981 C 471.499994,267.499981 456.499971,267.499981 456.499971,267.499981 C 456.499971,267.499981 456.499971,62.499999 456.499971,62.499999 Z"
     fill-rule="nonzero"
     style="stroke: none; fill: rgb(209, 209, 209)"
     inkscape:label="font axle"
     id="font axle" />
  <path
     d="M 105.999973,138.499986 C 105.999973,138.499986 135.999981,138.499986 135.999981,138.499986 C 135.999981,138.499986 135.999981,191.499994 135.999981,191.499994 C 135.999981,191.499994 105.999973,191.499994 105.999973,191.499994 C 105.999973,191.499994 105.999973,138.499986 105.999973,138.499986 Z M 113.499966,62.499999 C 113.499966,62.499999 128.499988,62.499999 128.499988,62.499999 C 128.499988,62.499999 128.499988,267.499981 128.499988,267.499981 C 128.499988,267.499981 113.499966,267.499981 113.499966,267.499981 C 113.499966,267.499981 113.499966,62.499999 113.499966,62.499999 Z"
     fill-rule="nonzero"
     style="stroke: none; fill: rgb(209, 209, 209)"
     inkscape:label="rear axle"
     id="rear axle" />
  <path
     d="M 463.999964,157.499987 C 463.999964,157.499987 463.999964,172.499993 463.999964,172.499993 C 463.999964,172.499993 121.499995,172.499993 121.499995,172.499993 C 121.499995,172.499993 121.499995,157.499987 121.499995,157.499987 C 121.499995,157.499987 463.999964,157.499987 463.999964,157.499987 Z"
     fill-rule="nonzero"
     style="stroke: none; fill: rgb(209, 209, 209)"
     inkscape:label="driveline"
     id="driveline" />
  <path
     d="M 186.499970,157.499987 C 186.499970,157.499987 186.499970,172.499993 186.499970,172.499993 C 186.499970,172.499993 121.499995,172.499993 121.499995,172.499993 C 121.499995,172.499993 121.499995,157.499987 121.499995,157.499987 C 121.499995,157.499987 186.499970,157.499987 186.499970,157.499987 Z"
     fill-rule="nonzero"
     style="stroke: none; fill: rgb(209, 209, 209)"
     inkscape:label="driveline copy"
     id="driveline copy"
     display="none" />
  <path
     d="M 428.499998,116.499987 C 428.499998,116.499987 499.499967,116.499987 499.499967,116.499987 C 505.022837,116.499987 509.499995,120.977147 509.499995,126.499997 C 509.499995,126.499997 509.499995,203.499983 509.499995,203.499983 C 509.499995,209.022834 505.022837,213.499993 499.499967,213.499993 C 499.499967,213.499993 428.499998,213.499993 428.499998,213.499993 C 422.977128,213.499993 418.499970,209.022834 418.499970,203.499983 C 418.499970,203.499983 418.499970,126.499997 418.499970,126.499997 C 418.499970,120.977147 422.977128,116.499987 428.499998,116.499987 Z"
     fill-rule="nonzero"
     style="stroke: none; fill: rgb(227, 161, 0)"
     inkscape:label="FE"
     id="FE" />
  <path
     d="M 150.499967,116.499987 C 150.499967,116.499987 221.499974,116.499987 221.499974,116.499987 C 227.022843,116.499987 231.499964,120.977147 231.499964,126.499997 C 231.499964,126.499997 231.499964,203.499983 231.499964,203.499983 C 231.499964,209.022834 227.022843,213.499993 221.499974,213.499993 C 221.499974,213.499993 150.499967,213.499993 150.499967,213.499993 C 144.977134,213.499993 140.499977,209.022834 140.499977,203.499983 C 140.499977,203.499983 140.499977,126.499997 140.499977,126.499997 C 140.499977,120.977147 144.977134,116.499987 150.499967,116.499987 Z"
     fill-rule="nonzero"
     style="stroke: none; fill: rgb(227, 161, 0)"
     inkscape:label="ME"
     id="ME"
     display="none" />
  <path
     d="M 85.499992,116.499987 C 85.499992,116.499987 156.499999,116.499987 156.499999,116.499987 C 162.022831,116.499987 166.499989,120.977147 166.499989,126.499997 C 166.499989,126.499997 166.499989,203.499983 166.499989,203.499983 C 166.499989,209.022834 162.022831,213.499993 156.499999,213.499993 C 156.499999,213.499993 85.499992,213.499993 85.499992,213.499993 C 79.977123,213.499993 75.499965,209.022834 75.499965,203.499983 C 75.499965,203.499983 75.499965,126.499997 75.499965,126.499997 C 75.499965,120.977147 79.977123,116.499987 85.499992,116.499987 Z"
     fill-rule="nonzero"
     style="stroke: none; fill: rgb(228, 160, 0)"
     inkscape:label="RE"
     id="RE"
     display="none" />
</svg>
