<?xml version="1.0" encoding="UTF-8" standalone="no"?>
<!-- Created with Inkscape (http://www.inkscape.org/) -->

<svg
   xmlns:dc="http://purl.org/dc/elements/1.1/"
   xmlns:cc="http://creativecommons.org/ns#"
   xmlns:rdf="http://www.w3.org/1999/02/22-rdf-syntax-ns#"
   xmlns:svg="http://www.w3.org/2000/svg"
   xmlns="http://www.w3.org/2000/svg"
   xmlns:sodipodi="http://sodipodi.sourceforge.net/DTD/sodipodi-0.dtd"
   xmlns:inkscape="http://www.inkscape.org/namespaces/inkscape"
   width="39mm"
   height="39mm"
   viewBox="0 0 39 39"
   version="1.1"
   id="svg8"
   inkscape:version="0.92.2 (5c3e80d, 2017-08-06)"
   sodipodi:docname="GitHub-Mark_b.svg">
  <defs
     id="defs2" />
  <sodipodi:namedview
     id="base"
     pagecolor="#ffffff"
     bordercolor="#666666"
     borderopacity="1.0"
     inkscape:pageopacity="0.0"
     inkscape:pageshadow="2"
     inkscape:zoom="0.98994949"
     inkscape:cx="-15.194949"
     inkscape:cy="130.69104"
     inkscape:document-units="mm"
     inkscape:current-layer="layer1"
     showgrid="false"
     fit-margin-top="0"
     fit-margin-left="0"
     fit-margin-right="0"
     fit-margin-bottom="0"
     inkscape:window-width="1920"
     inkscape:window-height="1027"
     inkscape:window-x="-8"
     inkscape:window-y="-8"
     inkscape:window-maximized="1" />
  <metadata
     id="metadata5">
    <rdf:RDF>
      <cc:Work
         rdf:about="">
        <dc:format>image/svg+xml</dc:format>
        <dc:type
           rdf:resource="http://purl.org/dc/dcmitype/StillImage" />
        <dc:title></dc:title>
      </cc:Work>
    </rdf:RDF>
  </metadata>
  <g
     inkscape:label="Layer 1"
     inkscape:groupmode="layer"
     id="layer1"
     transform="translate(-85.744456,-128.24157)">
    <path
       d="m 105.24302,129.23333 c -10.477665,0 -18.974894,8.49603 -18.974894,18.97721 0,8.38422 5.436869,15.49632 12.977649,18.00563 0.949465,0.17469 1.295435,-0.41123 1.295435,-0.91449 0,-0.45086 -0.0165,-1.64376 -0.0264,-3.22696 -5.27842,1.14634 -6.39213,-2.54426 -6.39213,-2.54426 -0.86323,-2.19246 -2.10741,-2.7761 -2.10741,-2.7761 -1.72298,-1.17662 0.13047,-1.15331 0.13047,-1.15331 1.90471,0.13407 2.90658,1.95596 2.90658,1.95596 1.69269,2.8996 4.442,2.06199 5.52309,1.57619 0.17237,-1.22553 0.66286,-2.06199 1.20456,-2.53613 -4.21367,-0.47879 -8.64401,-2.10739 -8.64401,-9.37908 0,-2.07131 0.73975,-3.76632 1.95364,-5.09204 -0.19573,-0.47998 -0.84693,-2.41032 0.18638,-5.02217 0,0 1.5925,-0.51023 5.21786,1.94549 1.51329,-0.42169 3.13724,-0.63139 4.75072,-0.63954 1.61229,0.007 3.23508,0.21794 4.75068,0.63954 3.62304,-2.45572 5.21324,-1.94549 5.21324,-1.94549 1.03562,2.61185 0.38441,4.54219 0.18988,5.02217 1.21622,1.32572 1.95014,3.02073 1.95014,5.09204 0,7.29031 -4.43733,8.89448 -8.66382,9.36396 0.68033,0.58595 1.28728,1.74395 1.28728,3.51353 0,2.53729 -0.0231,4.58412 -0.0231,5.2062 0,0.50792 0.34247,1.09856 1.30475,0.91333 7.53495,-2.51516 12.96718,-9.62259 12.96718,-18.00447 0,-10.48118 -8.49725,-18.97721 -18.9784,-18.97721"
       style="fill:#180000;fill-opacity:1;fill-rule:evenodd;stroke:none;stroke-width:0.11649611"
       id="path106"
       inkscape:connector-curvature="0" />
  </g>
</svg>
