<?xml version="1.0" encoding="UTF-8" standalone="no"?>
<!-- Generator: Adobe Illustrator 21.0.2, SVG Export Plug-In . SVG Version: 6.00 Build 0)  -->

<svg
   xmlns:dc="http://purl.org/dc/elements/1.1/"
   xmlns:cc="http://creativecommons.org/ns#"
   xmlns:rdf="http://www.w3.org/1999/02/22-rdf-syntax-ns#"
   xmlns:svg="http://www.w3.org/2000/svg"
   xmlns="http://www.w3.org/2000/svg"
   xmlns:sodipodi="http://sodipodi.sourceforge.net/DTD/sodipodi-0.dtd"
   xmlns:inkscape="http://www.inkscape.org/namespaces/inkscape"
   version="1.1"
   id="Layer_1"
   x="0px"
   y="0px"
   viewBox="0 0 390 389.99999"
   xml:space="preserve"
   sodipodi:docname="gitverse-w.svg"
   width="390"
   height="390"
   inkscape:version="0.92.2 (5c3e80d, 2017-08-06)"><metadata
     id="metadata325"><rdf:RDF><cc:Work
         rdf:about=""><dc:format>image/svg+xml</dc:format><dc:type
           rdf:resource="http://purl.org/dc/dcmitype/StillImage" /><dc:title></dc:title></cc:Work></rdf:RDF></metadata><defs
     id="defs323" /><sodipodi:namedview
     pagecolor="#ffffff"
     bordercolor="#666666"
     borderopacity="1"
     objecttolerance="10"
     gridtolerance="10"
     guidetolerance="10"
     inkscape:pageopacity="0"
     inkscape:pageshadow="2"
     inkscape:window-width="1920"
     inkscape:window-height="1027"
     id="namedview321"
     showgrid="false"
     fit-margin-top="0"
     fit-margin-left="0"
     fit-margin-right="0"
     fit-margin-bottom="0"
     inkscape:zoom="0.49737303"
     inkscape:cx="228.4"
     inkscape:cy="119.95001"
     inkscape:window-x="-8"
     inkscape:window-y="-8"
     inkscape:window-maximized="1"
     inkscape:current-layer="Layer_1" /><style
     type="text/css"
     id="style2">
	.st0{fill:url(#SVGID_1_);}
	.st1{fill:#F69332;}
	.st2{fill:#F26F54;}
	.st3{fill:#EE4D7A;}
	.st4{fill:#A066A9;}
	.st5{fill:#4F72B7;}
	.st6{fill:#0B97AC;}
	.st7{fill:#00B199;}
	.st8{fill:#6DB981;}
	.st9{fill:#C54033;}
	.st10{fill:#00718F;}
	.st11{fill:url(#SVGID_2_);}
	.st12{fill:#007D81;}
	.st13{fill:url(#SVGID_3_);}
	.st14{fill:url(#SVGID_4_);}
	.st15{fill:url(#SVGID_5_);}
	.st16{fill:url(#SVGID_6_);}
	.st17{fill:url(#SVGID_7_);}
	.st18{fill:url(#SVGID_8_);}
	.st19{fill:url(#SVGID_9_);}
	.st20{fill:url(#SVGID_10_);}
	.st21{fill:url(#SVGID_11_);}
	.st22{fill:url(#SVGID_12_);}
	.st23{fill:url(#SVGID_13_);}
	.st24{fill:url(#SVGID_14_);}
	.st25{fill:url(#SVGID_15_);}
	.st26{fill:#C12C4F;}
	.st27{fill:url(#SVGID_16_);}
	.st28{fill:url(#SVGID_17_);}
	.st29{fill:url(#SVGID_18_);}
	.st30{fill:#2C9570;}
	.st31{fill:url(#SVGID_19_);}
	.st32{fill:#483A86;}
	.st33{fill:url(#SVGID_20_);}
	.st34{fill:url(#SVGID_21_);}
	.st35{fill:url(#SVGID_22_);}
</style><linearGradient
     id="SVGID_1_"
     gradientUnits="userSpaceOnUse"
     x1="208.13519"
     y1="-89.3414"
     x2="214.9389"
     y2="-89.3414"
     gradientTransform="translate(-83.94042,250.69013)"><stop
       offset="0"
       style="stop-color:#72B08F"
       id="stop4" /><stop
       offset="1"
       style="stop-color:#6DB981"
       id="stop6" /></linearGradient><linearGradient
     id="SVGID_2_"
     gradientUnits="userSpaceOnUse"
     x1="338.52469"
     y1="-52.25"
     x2="342.0264"
     y2="-52.25"
     gradientTransform="translate(-83.94042,250.69013)"><stop
       offset="0"
       style="stop-color:#0B97AC"
       id="stop39" /><stop
       offset="1"
       style="stop-color:#68AB96"
       id="stop41" /></linearGradient><linearGradient
     id="SVGID_3_"
     gradientUnits="userSpaceOnUse"
     x1="190.5706"
     y1="25.299999"
     x2="216.0363"
     y2="25.299999"
     gradientTransform="translate(-83.94042,250.69013)"><stop
       offset="0"
       style="stop-color:#F27354"
       id="stop48" /><stop
       offset="1"
       style="stop-color:#F68D39"
       id="stop50" /></linearGradient><linearGradient
     id="SVGID_4_"
     gradientUnits="userSpaceOnUse"
     x1="218.37109"
     y1="16.281099"
     x2="225.5464"
     y2="16.281099"
     gradientTransform="translate(-83.94042,250.69013)"><stop
       offset="0"
       style="stop-color:#F27354"
       id="stop55" /><stop
       offset="1"
       style="stop-color:#F68D39"
       id="stop57" /></linearGradient><linearGradient
     id="SVGID_5_"
     gradientUnits="userSpaceOnUse"
     x1="288.5"
     y1="62.099998"
     x2="288.5"
     y2="62.099998"
     gradientTransform="translate(-83.94042,250.69013)"><stop
       offset="1.129295e-03"
       style="stop-color:#4F72B7"
       id="stop64" /><stop
       offset="7.714172e-02"
       style="stop-color:#6A6EB2"
       id="stop66" /><stop
       offset="0.1646"
       style="stop-color:#826AAE"
       id="stop68" /><stop
       offset="0.2577"
       style="stop-color:#9368AB"
       id="stop70" /><stop
       offset="0.3595"
       style="stop-color:#9D66AA"
       id="stop72" /><stop
       offset="0.4862"
       style="stop-color:#A066A9"
       id="stop74" /><stop
       offset="1"
       style="stop-color:#4F72B7"
       id="stop76" /></linearGradient><linearGradient
     id="SVGID_6_"
     gradientUnits="userSpaceOnUse"
     x1="293.56339"
     y1="64"
     x2="293.672"
     y2="64"
     gradientTransform="translate(-83.94042,250.69013)"><stop
       offset="1.129295e-03"
       style="stop-color:#4F72B7"
       id="stop81" /><stop
       offset="7.714172e-02"
       style="stop-color:#6A6EB2"
       id="stop83" /><stop
       offset="0.1646"
       style="stop-color:#826AAE"
       id="stop85" /><stop
       offset="0.2577"
       style="stop-color:#9368AB"
       id="stop87" /><stop
       offset="0.3595"
       style="stop-color:#9D66AA"
       id="stop89" /><stop
       offset="0.4862"
       style="stop-color:#A066A9"
       id="stop91" /><stop
       offset="1"
       style="stop-color:#4F72B7"
       id="stop93" /></linearGradient><linearGradient
     id="SVGID_7_"
     gradientUnits="userSpaceOnUse"
     x1="347"
     y1="-36.400002"
     x2="347"
     y2="-36.400002"
     gradientTransform="translate(-83.94042,250.69013)"><stop
       offset="1.129295e-03"
       style="stop-color:#4F72B7"
       id="stop98" /><stop
       offset="7.714172e-02"
       style="stop-color:#6A6EB2"
       id="stop100" /><stop
       offset="0.1646"
       style="stop-color:#826AAE"
       id="stop102" /><stop
       offset="0.2577"
       style="stop-color:#9368AB"
       id="stop104" /><stop
       offset="0.3595"
       style="stop-color:#9D66AA"
       id="stop106" /><stop
       offset="0.4862"
       style="stop-color:#A066A9"
       id="stop108" /><stop
       offset="1"
       style="stop-color:#4F72B7"
       id="stop110" /></linearGradient><linearGradient
     id="SVGID_8_"
     gradientUnits="userSpaceOnUse"
     x1="220.5"
     y1="-102.1"
     x2="220.5"
     y2="-102.1"
     gradientTransform="translate(-83.94042,250.69013)"><stop
       offset="1.129295e-03"
       style="stop-color:#4F72B7"
       id="stop115" /><stop
       offset="7.714172e-02"
       style="stop-color:#6A6EB2"
       id="stop117" /><stop
       offset="0.1646"
       style="stop-color:#826AAE"
       id="stop119" /><stop
       offset="0.2577"
       style="stop-color:#9368AB"
       id="stop121" /><stop
       offset="0.3595"
       style="stop-color:#9D66AA"
       id="stop123" /><stop
       offset="0.4862"
       style="stop-color:#A066A9"
       id="stop125" /><stop
       offset="1"
       style="stop-color:#4F72B7"
       id="stop127" /></linearGradient><linearGradient
     id="SVGID_9_"
     gradientUnits="userSpaceOnUse"
     x1="263.60001"
     y1="35.799999"
     x2="263.60001"
     y2="35.799999"
     gradientTransform="translate(-83.94042,250.69013)"><stop
       offset="1.129295e-03"
       style="stop-color:#4F72B7"
       id="stop132" /><stop
       offset="7.714172e-02"
       style="stop-color:#6A6EB2"
       id="stop134" /><stop
       offset="0.1646"
       style="stop-color:#826AAE"
       id="stop136" /><stop
       offset="0.2577"
       style="stop-color:#9368AB"
       id="stop138" /><stop
       offset="0.3595"
       style="stop-color:#9D66AA"
       id="stop140" /><stop
       offset="0.4862"
       style="stop-color:#A066A9"
       id="stop142" /><stop
       offset="1"
       style="stop-color:#4F72B7"
       id="stop144" /></linearGradient><linearGradient
     id="SVGID_10_"
     gradientUnits="userSpaceOnUse"
     x1="293.5556"
     y1="64"
     x2="293.6723"
     y2="64"
     gradientTransform="translate(-83.94042,250.69013)"><stop
       offset="1.129295e-03"
       style="stop-color:#4F72B7"
       id="stop149" /><stop
       offset="7.714172e-02"
       style="stop-color:#6A6EB2"
       id="stop151" /><stop
       offset="0.1646"
       style="stop-color:#826AAE"
       id="stop153" /><stop
       offset="0.2577"
       style="stop-color:#9368AB"
       id="stop155" /><stop
       offset="0.3595"
       style="stop-color:#9D66AA"
       id="stop157" /><stop
       offset="0.4862"
       style="stop-color:#A066A9"
       id="stop159" /><stop
       offset="1"
       style="stop-color:#4F72B7"
       id="stop161" /></linearGradient><linearGradient
     id="SVGID_11_"
     gradientUnits="userSpaceOnUse"
     x1="293.5491"
     y1="64.362503"
     x2="293.56339"
     y2="64.362503"
     gradientTransform="translate(-83.94042,250.69013)"><stop
       offset="1.129295e-03"
       style="stop-color:#4F72B7"
       id="stop166" /><stop
       offset="7.714172e-02"
       style="stop-color:#6A6EB2"
       id="stop168" /><stop
       offset="0.1646"
       style="stop-color:#826AAE"
       id="stop170" /><stop
       offset="0.2577"
       style="stop-color:#9368AB"
       id="stop172" /><stop
       offset="0.3595"
       style="stop-color:#9D66AA"
       id="stop174" /><stop
       offset="0.4862"
       style="stop-color:#A066A9"
       id="stop176" /><stop
       offset="1"
       style="stop-color:#4F72B7"
       id="stop178" /></linearGradient><linearGradient
     id="SVGID_12_"
     gradientUnits="userSpaceOnUse"
     x1="293.70001"
     y1="63.637501"
     x2="293.70001"
     y2="63.637501"
     gradientTransform="translate(-83.94042,250.69013)"><stop
       offset="1.129295e-03"
       style="stop-color:#4F72B7"
       id="stop183" /><stop
       offset="7.714172e-02"
       style="stop-color:#6A6EB2"
       id="stop185" /><stop
       offset="0.1646"
       style="stop-color:#826AAE"
       id="stop187" /><stop
       offset="0.2577"
       style="stop-color:#9368AB"
       id="stop189" /><stop
       offset="0.3595"
       style="stop-color:#9D66AA"
       id="stop191" /><stop
       offset="0.4862"
       style="stop-color:#A066A9"
       id="stop193" /><stop
       offset="1"
       style="stop-color:#4F72B7"
       id="stop195" /></linearGradient><linearGradient
     id="SVGID_16_"
     gradientUnits="userSpaceOnUse"
     x1="371.98792"
     y1="-33.465199"
     x2="391.85159"
     y2="-33.465199"
     gradientTransform="translate(-83.94042,250.69013)"><stop
       offset="1.203347e-03"
       style="stop-color:#EE4D7A"
       id="stop231" /><stop
       offset="1"
       style="stop-color:#EE5C6C"
       id="stop233" /></linearGradient><linearGradient
     id="SVGID_17_"
     gradientUnits="userSpaceOnUse"
     x1="304.06189"
     y1="37.824799"
     x2="371.39999"
     y2="37.824799"
     gradientTransform="translate(-83.94042,250.69013)"><stop
       offset="1.203347e-03"
       style="stop-color:#EE4D7A"
       id="stop240" /><stop
       offset="1"
       style="stop-color:#EE5C6C"
       id="stop242" /></linearGradient><linearGradient
     id="SVGID_18_"
     gradientUnits="userSpaceOnUse"
     x1="88.180801"
     y1="-76.349998"
     x2="200.9202"
     y2="-76.349998"
     gradientTransform="translate(-83.94042,250.69013)"><stop
       offset="0"
       style="stop-color:#72B08F"
       id="stop249" /><stop
       offset="1"
       style="stop-color:#6DB981"
       id="stop251" /></linearGradient><linearGradient
     id="SVGID_19_"
     gradientUnits="userSpaceOnUse"
     x1="280.9848"
     y1="34.549999"
     x2="348.8999"
     y2="34.549999"
     gradientTransform="translate(-83.94042,250.69013)"><stop
       offset="1.129295e-03"
       style="stop-color:#4F72B7"
       id="stop258" /><stop
       offset="7.714172e-02"
       style="stop-color:#6A6EB2"
       id="stop260" /><stop
       offset="0.1646"
       style="stop-color:#826AAE"
       id="stop262" /><stop
       offset="0.2577"
       style="stop-color:#9368AB"
       id="stop264" /><stop
       offset="0.3595"
       style="stop-color:#9D66AA"
       id="stop266" /><stop
       offset="0.4862"
       style="stop-color:#A066A9"
       id="stop268" /><stop
       offset="1"
       style="stop-color:#4F72B7"
       id="stop270" /></linearGradient><linearGradient
     id="SVGID_20_"
     gradientUnits="userSpaceOnUse"
     x1="194.2029"
     y1="-63.400002"
     x2="360.2663"
     y2="-63.400002"
     gradientTransform="translate(-83.94042,250.69013)"><stop
       offset="1.129295e-03"
       style="stop-color:#4F72B7"
       id="stop277" /><stop
       offset="7.714172e-02"
       style="stop-color:#6A6EB2"
       id="stop279" /><stop
       offset="0.1646"
       style="stop-color:#826AAE"
       id="stop281" /><stop
       offset="0.2577"
       style="stop-color:#9368AB"
       id="stop283" /><stop
       offset="0.3595"
       style="stop-color:#9D66AA"
       id="stop285" /><stop
       offset="0.4862"
       style="stop-color:#A066A9"
       id="stop287" /><stop
       offset="1"
       style="stop-color:#4F72B7"
       id="stop289" /></linearGradient><linearGradient
     id="SVGID_21_"
     gradientUnits="userSpaceOnUse"
     x1="200.3"
     y1="27.200001"
     x2="293.76208"
     y2="27.200001"
     gradientTransform="translate(-83.94042,250.69013)"><stop
       offset="1.129295e-03"
       style="stop-color:#4F72B7"
       id="stop294" /><stop
       offset="7.714172e-02"
       style="stop-color:#6A6EB2"
       id="stop296" /><stop
       offset="0.1646"
       style="stop-color:#826AAE"
       id="stop298" /><stop
       offset="0.2577"
       style="stop-color:#9368AB"
       id="stop300" /><stop
       offset="0.3595"
       style="stop-color:#9D66AA"
       id="stop302" /><stop
       offset="0.4862"
       style="stop-color:#A066A9"
       id="stop304" /><stop
       offset="1"
       style="stop-color:#4F72B7"
       id="stop306" /></linearGradient><linearGradient
     id="SVGID_22_"
     gradientUnits="userSpaceOnUse"
     x1="130.6917"
     y1="-10.6795"
     x2="469.70001"
     y2="-10.6795"
     gradientTransform="translate(-83.94042,250.69013)"><stop
       offset="0"
       style="stop-color:#F27354"
       id="stop313" /><stop
       offset="1"
       style="stop-color:#F68D39"
       id="stop315" /></linearGradient><g
     id="g36"
     transform="translate(-83.94042,84.39014)"
     style="fill:#ffffff;fill-opacity:1"><path
       inkscape:connector-curvature="0"
       class="st0"
       d="m 248.1,293.6 c 0,0 0,0 0,0 l 0.1,-0.2 z"
       id="path22"
       style="fill:#ffffff;fill-opacity:1" /><path
       inkscape:connector-curvature="0"
       class="st0"
       d="m 454.7,159.3 c 0.6,-0.4 1.3,-0.8 1.9,-1.2 0.3,-0.2 0.7,-0.5 1,-0.7 0.2,-0.1 0.4,-0.3 0.6,-0.4 1.6,-1.2 3.2,-2.5 4.6,-3.9 2.6,-2.7 4.9,-6.1 6,-10 0.5,-2.1 0.9,-4.3 0.9,-6.6 -0.1,-4.7 -1.9,-9.3 -4.8,-12.9 -2.9,-3.6 -6.5,-6.2 -10.4,-8.2 -3.9,-2 -8,-3.4 -12.2,-4.4 -4.2,-0.9 -8.5,-1.4 -12.8,-1.3 -2.2,0 -4.5,0.2 -6.7,0.6 -1.4,-3.1 -4.3,-5.5 -8,-6.2 -2.8,-0.5 -5.7,0.2 -8,1.8 -2.3,1.7 -3.9,4.1 -4.4,6.9 -0.5,2.8 0.2,5.7 1.8,8 1.7,2.3 4.1,3.9 6.9,4.4 0.6,0.1 1.2,0.2 1.8,0.2 2.2,0 4.3,-0.7 6.2,-2 2.3,-1.7 3.9,-4.1 4.4,-6.9 0.1,-0.4 0.1,-0.7 0.1,-1.1 1.9,-0.3 3.9,-0.5 5.9,-0.5 7.7,-0.1 15.6,1.6 22.4,5.1 3.4,1.8 6.4,4.1 8.7,6.9 2.3,2.8 3.6,6.2 3.7,9.7 0,1.7 -0.2,3.4 -0.7,5.1 -0.2,0.5 -0.3,0.7 -0.3,0.7 -0.9,2.8 -2.7,5.3 -4.9,7.5 -0.5,0.5 -1.1,1 -1.7,1.5 -0.1,0.1 -0.2,0.2 -0.3,0.2 -0.4,0.4 -0.9,0.7 -1.3,1 -1.2,0.9 -2.4,1.6 -3.7,2.4 -0.2,0.1 -0.5,0.3 -0.7,0.4 -0.7,0.4 -1.4,0.8 -2.1,1.2 0,0 0,0 -0.1,0 -0.8,0.4 -1.6,0.8 -2.3,1.1 -0.3,0.2 -0.7,0.3 -1,0.5 -0.2,0.1 -0.4,0.2 -0.7,0.3 -0.2,0.1 -0.4,0.2 -0.6,0.3 -0.6,0.3 -1.3,0.5 -1.9,0.7 -0.6,0.2 -1.2,0.5 -1.8,0.7 -0.2,0.1 -0.4,0.2 -0.7,0.2 -0.2,0.1 -0.3,0.1 -0.5,0.2 -0.5,0.2 -1,0.3 -1.5,0.5 -1.1,0.4 -2.3,0.7 -3.4,1 -0.6,0.2 -1.2,0.3 -1.8,0.5 -0.5,0.1 -0.9,0.2 -1.4,0.3 -1.2,0.3 -2.3,0.6 -3.5,0.8 -0.7,0.2 -1.4,0.3 -2.2,0.4 -0.9,0.2 -1.8,0.4 -2.8,0.5 -1,0.2 -1.9,0.3 -2.9,0.5 -0.7,0.1 -1.4,0.2 -2.1,0.3 -1.2,0.2 -2.4,0.3 -3.6,0.4 -0.5,0.1 -1,0.1 -1.5,0.2 -1.4,0.2 -2.8,0.3 -4.2,0.4 -0.3,0 -0.6,0.1 -0.8,0.1 -1.6,0.1 -3.2,0.2 -4.8,0.3 -0.1,0 -0.2,0 -0.3,0 -1.7,0.1 -3.4,0.1 -5.1,0.2 -1.6,0 -3.3,0 -4.9,0 -0.1,0 -0.1,0 -0.2,0 -0.6,0 -1.2,0 -1.7,0 -0.5,0 -0.9,0 -1.4,0 -0.6,0 -1.2,-0.1 -1.8,-0.1 -0.4,0 -0.9,0 -1.3,-0.1 -0.6,0 -1.3,-0.1 -1.9,-0.1 -0.4,0 -0.8,0 -1.2,-0.1 -0.7,0 -1.4,-0.1 -2,-0.2 -0.2,0 -0.3,0 -0.5,0 0.1,-0.3 0.3,-0.6 0.4,-0.9 0.2,-0.4 0.3,-0.7 0.5,-1.1 0.5,-1 1,-2.1 1.4,-3.1 0.2,-0.4 0.3,-0.8 0.5,-1.1 0.4,-1.1 0.9,-2.1 1.3,-3.2 0.1,-0.4 0.3,-0.8 0.4,-1.2 0.4,-1 0.8,-2 1.1,-3.1 0,-0.1 0,-0.1 0.1,-0.2 0,0 0,0 0,-0.1 0.1,-0.4 0.2,-0.7 0.3,-1.1 0.4,-1.1 0.7,-2.2 1,-3.3 0.1,-0.4 0.2,-0.8 0.3,-1.1 0.3,-1.1 0.6,-2.2 0.9,-3.4 0.1,-0.4 0.2,-0.7 0.2,-1.1 0.3,-1.2 0.5,-2.3 0.8,-3.5 0.1,-0.3 0.1,-0.7 0.2,-1 0.2,-1.2 0.5,-2.4 0.7,-3.6 0,-0.3 0.1,-0.6 0.1,-0.9 0.2,-1.2 0.4,-2.5 0.5,-3.7 0,-0.3 0,-0.5 0.1,-0.8 0.1,-1.3 0.3,-2.6 0.4,-3.9 0,-0.2 0,-0.4 0,-0.6 0.1,-1.4 0.2,-2.7 0.2,-4.1 0.1,-1.6 0.1,-3.1 0.1,-4.7 0,-0.8 0,-1.6 0,-2.3 0,-0.2 0,-0.3 0,-0.5 0,-1.4 -0.1,-2.8 -0.2,-4.2 -0.1,-2 -0.3,-4 -0.5,-6 -0.2,-2.2 -0.6,-4.4 -0.9,-6.7 0,-0.1 0,-0.3 -0.1,-0.4 0,-0.1 0,-0.1 0,-0.2 0,0 0,-0.1 0,-0.2 -0.4,-1.3 -1.6,-2.1 -3,-1.9 -1.3,0.2 -2.3,1.5 -2.2,2.8 0,0.1 0,0.2 0,0.2 0,0.2 0.1,0.4 0.1,0.6 1.1,6.2 1.6,12.5 1.6,18.8 0,1.2 0,2.3 -0.1,3.5 -0.1,1.6 -0.1,3.3 -0.3,4.9 0,0.2 0,0.3 0,0.5 -0.1,1.3 -0.2,2.6 -0.4,3.9 0,0.2 0,0.4 -0.1,0.6 -0.1,1.2 -0.3,2.5 -0.5,3.7 0,0.2 -0.1,0.5 -0.1,0.7 -0.2,1.2 -0.4,2.3 -0.6,3.5 -0.1,0.3 -0.1,0.6 -0.2,0.9 -0.2,1.1 -0.5,2.2 -0.8,3.4 -0.1,0.3 -0.1,0.7 -0.2,1 -0.3,1.1 -0.6,2.2 -0.9,3.3 -0.1,0.3 -0.2,0.7 -0.3,1 -0.3,1.1 -0.7,2.2 -1,3.2 -0.1,0.3 -0.2,0.7 -0.3,1 -0.4,1.1 -0.7,2.1 -1.1,3.1 -0.1,0.4 -0.2,0.7 -0.4,1.1 -0.4,1 -0.8,2.1 -1.2,3.1 -0.1,0.3 -0.3,0.7 -0.4,1 -0.4,1 -0.9,2 -1.4,3.1 -0.2,0.3 -0.3,0.7 -0.5,1 -0.4,0.9 -0.9,1.7 -1.3,2.6 -0.2,0 -0.4,0 -0.6,-0.1 -0.2,0 -0.5,0 -0.7,-0.1 -0.9,-0.1 -1.8,-0.2 -2.7,-0.3 -0.1,0 -0.3,0 -0.4,-0.1 -0.3,0 -0.7,-0.1 -1,-0.1 -0.7,-0.1 -1.4,-0.2 -2.1,-0.3 -1,-0.2 -2.1,-0.3 -3.1,-0.5 -0.3,-0.1 -0.6,-0.1 -1,-0.2 -1.7,-0.3 -3.5,-0.7 -5.2,-1 -0.5,-0.1 -1.1,-0.2 -1.6,-0.4 0.6,-1.2 1.2,-2.5 1.7,-3.8 0.1,-0.2 0.1,-0.4 0.2,-0.7 0.8,-2.6 1,-5.3 0.9,-7.8 0,-0.6 -0.1,-1.2 -0.1,-1.7 0.2,-0.2 0.5,-0.3 0.7,-0.6 l 0.8,-2.6 c -0.5,-1.7 -1.1,-3.4 -1.9,-5.1 -0.4,-0.8 -1,-1.6 -1.5,-2.4 -0.2,-0.2 -0.3,-0.4 -0.5,-0.6 -0.1,-0.1 -0.2,-0.2 -0.2,-0.3 v -0.1 c 0,-0.1 0,-0.3 0.1,-0.4 0,-0.3 0,-0.6 0,-0.9 0,-1.1 -0.3,-2.1 -0.7,-3 -0.5,-1 -1.2,-1.9 -2.2,-2.5 -1,-0.7 -2.2,-1.1 -3.4,-1.2 -0.9,-0.1 -1.9,0 -2.7,0.3 h -0.1 c -0.1,-0.1 -0.1,-0.2 -0.2,-0.3 -0.1,-0.2 -0.3,-0.4 -0.4,-0.7 -0.8,-1.5 -1.6,-3.5 -2.2,-5.4 -0.7,-1.9 -1.2,-4 -1.7,-6 -0.1,-0.4 -0.2,-0.9 -0.3,-1.3 1.1,-0.3 2.3,-0.6 3.4,-1 6,-1.9 11.7,-4.9 16.6,-9 3.1,-2.6 5.9,-5.7 8.1,-9.1 2.2,-3.4 4,-7.1 5.2,-11 1.1,-3.6 1.7,-7.3 1.8,-11 0.1,-6 -1,-11.9 -3,-17.4 -2,-5.5 -4.8,-10.7 -8.2,-15.4 C 359.5,32.2 350.7,24.4 341.1,18.1 331.5,11.8 320.9,7.2 309.9,4.1 304.2,3.1 298.6,2 293,1.2 287.3,0.4 281.6,0.1 275.9,0 c -15.2,0 -30.4,3 -44.4,8.8 -14,5.8 -26.9,14.4 -37.6,25.2 -8,8 -14.9,17.3 -20.2,27.3 -12.6,-3 -25.5,-5 -38.6,-5 -7.9,0.1 -15.8,0.7 -23.6,3 -3.9,1.1 -7.7,2.7 -11.2,4.9 -3.5,2.2 -6.7,5.3 -8.9,9.1 -1,1.9 -1.9,3.9 -2.4,6.1 -0.5,2.2 -0.8,4.4 -0.7,6.6 0.1,2.6 0.7,5.1 1.7,7.4 1,2.3 2.3,4.5 3.8,6.4 3.1,3.9 7,6.8 11.1,9.1 8,4.4 16.9,6.6 25.9,6.7 0.1,0.2 0.2,0.5 0.3,0.7 0.1,0.3 0.2,0.5 0.4,0.8 1.3,2.5 3.6,4.4 6.3,5.3 1.1,0.3 2.1,0.5 3.2,0.5 4.6,0 8.8,-2.9 10.2,-7.5 0.9,-2.7 0.6,-5.6 -0.7,-8.2 -1.3,-2.5 -3.6,-4.4 -6.3,-5.3 -2.7,-0.9 -5.6,-0.6 -8.2,0.7 -2.5,1.3 -4.4,3.6 -5.3,6.3 -0.1,0.3 -0.1,0.5 -0.2,0.8 0,0.2 -0.1,0.4 -0.1,0.6 -8,-0.2 -16,-2.2 -22.9,-6 -3.7,-2.1 -7,-4.6 -9.5,-7.8 -2.5,-3.2 -4.2,-6.9 -4.3,-10.8 -0.1,-1.7 0.2,-3.4 0.6,-5.1 0.4,-1.7 1.2,-3.3 2,-4.9 1.6,-2.9 4.1,-5.3 7.1,-7.2 3,-1.9 6.4,-3.3 9.9,-4.3 7.1,-2.1 14.6,-2.8 22.1,-2.8 12.1,0 24.2,1.8 36.1,4.6 0,0.1 -0.1,0.1 -0.1,0.2 -0.8,1.8 -1.6,3.6 -2.4,5.4 -0.5,1.2 -1,2.5 -1.5,3.8 -4.9,13 -7.3,26.8 -7.3,40.6 0,1.4 0.1,2.8 0.1,4.2 0,0.7 0,1.4 0.1,2.1 0.1,0.7 0.1,1.4 0.2,2.1 0.1,1.4 0.2,2.8 0.3,4.2 0.2,1.4 0.4,2.8 0.5,4.2 0.1,1.4 0.4,2.8 0.7,4.2 0.3,1.4 0.5,2.8 0.8,4.2 0.3,1.4 0.6,2.8 1,4.1 0.4,1.4 0.8,2.7 1.2,4.1 0,0.2 0.1,0.3 0.2,0.5 -0.3,0.1 -0.5,0.2 -0.8,0.3 -0.6,0.2 -1.2,0.5 -1.8,0.7 -0.4,0.1 -0.7,0.3 -1.1,0.5 -0.6,0.3 -1.3,0.5 -1.9,0.8 -0.3,0.2 -0.7,0.3 -1,0.5 -0.6,0.3 -1.3,0.6 -1.9,0.9 -0.3,0.2 -0.7,0.3 -1,0.5 -0.5,0.3 -1,0.5 -1.5,0.8 -0.1,0.1 -0.2,0.1 -0.3,0.2 -0.1,0.1 -0.2,0.1 -0.3,0.1 -0.7,0.4 -1.3,0.8 -2,1.2 -0.1,0.1 -0.2,0.1 -0.4,0.2 -0.8,0.5 -1.6,1 -2.4,1.5 -0.1,0.1 -0.3,0.2 -0.4,0.3 -0.8,0.5 -1.5,1.1 -2.3,1.6 -0.1,0.1 -0.2,0.2 -0.4,0.3 -0.8,0.6 -1.5,1.2 -2.3,1.8 l -0.1,0.1 c -0.1,0.1 -0.2,0.2 -0.3,0.3 -0.1,0.1 -0.2,0.2 -0.3,0.2 -0.1,0 -0.1,0.1 -0.2,0.1 -0.3,0.3 -0.6,0.5 -0.9,0.8 -0.2,0.1 -0.3,0.3 -0.4,0.4 -0.2,0.2 -0.4,0.4 -0.6,0.6 -0.3,0.3 -0.5,0.5 -0.8,0.8 -0.1,0.1 -0.2,0.2 -0.3,0.3 -0.3,0.3 -0.5,0.6 -0.8,0.9 -0.1,0.1 -0.1,0.1 -0.2,0.2 -0.1,0.1 -0.2,0.2 -0.3,0.4 -0.1,0.2 -0.3,0.3 -0.4,0.5 -0.3,0.4 -0.6,0.7 -0.8,1.1 l -0.1,0.1 c -0.3,0.4 -0.5,0.8 -0.8,1.1 -0.1,0.1 -0.2,0.3 -0.3,0.4 -0.2,0.3 -0.3,0.5 -0.5,0.8 -0.2,0.4 -0.4,0.7 -0.6,1.1 0,0 -0.1,0.3 -0.4,0.8 -2,4 -3.6,8.4 -3.7,13.3 -0.1,3.2 0.7,6.6 2.5,9.5 1.7,2.9 4.3,5.2 7.1,6.7 2.8,1.6 5.8,2.6 8.7,3.2 3,0.6 6,0.8 9,0.9 4.3,0 8.6,-0.5 12.8,-1.2 4.2,-0.8 8.3,-1.8 12.4,-3.1 1.4,-0.4 2.7,-0.9 4.1,-1.4 2.5,-0.9 5,-1.9 7.5,-2.9 h 0.1 c 2.4,2.4 4.9,4.7 7.5,6.8 4.4,3.6 8.9,6.9 13.7,10 4.8,3 9.8,5.7 15.2,7.8 0,0 0.3,0.1 0.9,0.3 1.4,0.5 2.9,-0.2 3.4,-1.5 0.5,-1.4 -0.1,-2.9 -1.5,-3.4 H 234 c -0.5,-0.2 -0.8,-0.3 -0.8,-0.3 -4.9,-1.9 -9.7,-4.5 -14.3,-7.4 -4.6,-2.9 -9,-6.1 -13.2,-9.5 -2,-1.6 -3.9,-3.3 -5.7,-5.1 2.2,-1 4.4,-2.1 6.5,-3.2 3.2,-1.7 6.5,-3.3 9.8,-4.8 2.2,-1 4.5,-2 6.8,-3 0,0 0.1,0 0.1,-0.1 2.8,2.2 5.8,4.2 8.8,6 5.3,3.1 11,5.6 16.8,7.4 1.5,0.4 2.9,0.9 4.4,1.3 1.5,0.4 3,0.7 4.5,1.1 1.5,0.3 3,0.6 4.5,0.8 0.5,0.1 1.1,0.2 1.6,0.2 -0.1,0.1 -0.2,0.2 -0.4,0.3 -0.3,0.2 -0.6,0.5 -0.9,0.7 -1.1,1 -2.2,2 -3.3,3.1 -2.1,2.1 -4.1,4.4 -6,6.7 -3.7,4.6 -7.1,9.5 -10,14.7 -0.3,0.6 -0.5,1.3 -0.5,2.1 0,1.1 0.5,2 1.2,2.7 0.7,0.7 1.8,1.1 2.8,1.2 0,0 0.1,0 0,0 14.3,0 28.7,0 43,0 0,0 0.1,0 0.4,0 0.2,0 0.6,-0.1 1.1,-0.3 0.5,-0.2 1,-0.5 1.5,-1 0.4,-0.4 0.7,-1 0.9,-1.7 0,0 0,0 0,-0.1 0,0 0,-0.1 0,-0.2 0,-0.2 0,-0.3 0.1,-0.4 0,0 0,0 0,-0.1 0,-0.1 0,-0.2 0,-0.2 0,-0.4 0,-0.9 0.1,-1.3 0,-0.3 0,-0.5 0,-0.8 0,-0.5 0,-1.1 0,-1.6 -0.2,-4.5 -0.9,-8.8 -2.2,-13 -0.6,-2.1 -1.4,-4.2 -2.3,-6.2 -0.2,-0.5 -0.5,-1 -0.7,-1.5 -0.3,-0.5 -0.5,-1 -0.8,-1.5 -0.2,-0.4 -0.4,-0.8 -0.7,-1.2 0.6,-0.1 1.2,-0.1 1.8,-0.2 1.3,-0.2 2.5,-0.3 3.8,-0.5 2.5,-0.4 5,-0.9 7.5,-1.5 4.9,-1.2 9.8,-2.8 14.5,-4.8 5.7,-2.5 11.3,-5.3 16.6,-8.6 0.1,0.1 0.1,0.2 0.1,0.2 0.5,0.7 0.9,1.4 1.3,2.2 0.4,0.9 0.6,1.7 0.6,2.7 v 0.1 c 0,0.2 0,0.4 0,0.7 l -0.2,1.6 c -0.5,2.2 -1.5,4.5 -2.9,6.6 -1.9,3 -4.4,5.7 -7.1,8.3 -2.7,2.6 -5.5,5 -8.5,7.3 -3,2.3 -6.1,4.5 -9.2,6.4 0,0 0,0 -0.1,0 -1,0.6 -1.5,1.8 -1.1,3 0.4,1.4 1.9,2.2 3.3,1.7 0.6,-0.2 0.9,-0.3 0.9,-0.3 1.5,-0.4 2.9,-0.9 4.4,-1.4 0.1,0 0.2,-0.1 0.3,-0.1 1.4,-0.5 2.8,-1 4.1,-1.5 0.1,0 0.2,-0.1 0.3,-0.1 1.3,-0.5 2.7,-1.1 4,-1.6 0.1,0 0.2,-0.1 0.3,-0.1 1.3,-0.6 2.6,-1.2 4,-1.8 0.1,0 0.2,-0.1 0.2,-0.1 1.3,-0.6 2.6,-1.3 3.9,-2 0.1,0 0.1,-0.1 0.2,-0.1 1.3,-0.7 2.6,-1.4 3.9,-2.2 0,0 0.1,0 0.1,-0.1 1.3,-0.8 2.6,-1.5 3.9,-2.3 0.1,0 0.1,-0.1 0.2,-0.1 1.1,-0.7 2.1,-1.4 3.2,-2.1 0.2,-0.1 0.3,-0.2 0.5,-0.4 0.1,0 0.1,-0.1 0.2,-0.2 1.2,-0.8 2.4,-1.7 3.5,-2.6 0.1,-0.1 0.2,-0.2 0.3,-0.2 1.1,-0.9 2.2,-1.7 3.3,-2.6 0.1,-0.1 0.2,-0.2 0.4,-0.3 1.1,-0.9 2.1,-1.8 3.2,-2.7 0.1,-0.1 0.3,-0.3 0.4,-0.4 1,-0.9 2,-1.8 3,-2.8 0.2,-0.2 0.3,-0.3 0.5,-0.5 1,-0.9 1.9,-1.9 2.8,-2.8 0.2,-0.2 0.3,-0.4 0.5,-0.5 0.9,-1 1.8,-1.9 2.7,-2.9 0.2,-0.2 0.3,-0.4 0.5,-0.6 0.8,-1 1.7,-1.9 2.5,-2.9 0.2,-0.2 0.4,-0.5 0.6,-0.7 0.7,-0.9 1.4,-1.8 2.1,-2.7 0.1,-0.1 0.1,-0.2 0.2,-0.3 0,0 0,0 0.1,-0.1 0.2,-0.2 0.3,-0.5 0.5,-0.7 0.7,-1 1.5,-2 2.2,-3 0,0 0,0 -0.1,0 2.2,-3.4 4.9,-7.8 6.3,-10.2 0.5,0 1,0.1 1.5,0.1 0.2,0 0.4,0 0.6,0 0.9,0.1 1.7,0.1 2.6,0.2 0.3,0 0.6,0 0.9,0.1 0.8,0 1.6,0.1 2.3,0.1 0.4,0 0.7,0 1.1,0 0.7,0 1.4,0.1 2.1,0.1 0.4,0 0.9,0 1.3,0 0.6,0 1.3,0 1.9,0 h 0.1 c 7,0.1 14,-0.2 21,-1 0.1,0 0.2,0 0.3,0 0.8,-0.1 1.5,-0.2 2.3,-0.3 0.2,0 0.4,-0.1 0.6,-0.1 0.7,-0.1 1.3,-0.2 2,-0.3 0.3,0 0.6,-0.1 0.9,-0.1 0.6,-0.1 1.1,-0.2 1.7,-0.3 0.4,-0.1 0.8,-0.1 1.3,-0.2 0.4,-0.1 0.9,-0.1 1.3,-0.2 0.5,-0.1 1.1,-0.2 1.6,-0.3 0.3,-0.1 0.6,-0.1 0.9,-0.2 0.7,-0.1 1.3,-0.3 2,-0.4 0.2,0 0.4,-0.1 0.6,-0.1 0.8,-0.2 1.5,-0.3 2.3,-0.5 0.1,0 0.2,0 0.2,-0.1 1,-0.2 2,-0.5 3,-0.7 0.5,-0.1 1,-0.3 1.5,-0.4 0.4,-0.1 0.7,-0.2 1.1,-0.3 0.7,-0.2 1.4,-0.4 2.1,-0.6 0.1,-0.1 0.3,-0.1 0.4,-0.1 0.4,-0.1 0.8,-0.3 1.2,-0.4 0.3,-0.1 0.6,-0.2 0.9,-0.3 0.2,-0.1 0.5,-0.2 0.7,-0.2 0.6,-0.2 1.2,-0.4 1.7,-0.6 0.1,0 0.2,-0.1 0.2,-0.1 0.1,0 0.2,-0.1 0.3,-0.1 0.6,-0.2 1.2,-0.4 1.7,-0.7 0.2,-0.1 0.4,-0.2 0.6,-0.3 0.3,-0.2 0.7,-0.3 1,-0.5 0.3,-0.1 0.5,-0.2 0.8,-0.4 0.2,-0.1 0.5,-0.2 0.7,-0.3 0.6,-0.3 1.2,-0.6 1.8,-0.9 h 0.1 c 0.8,-0.4 1.6,-0.8 2.3,-1.3 0.2,-0.1 0.4,-0.2 0.6,-0.3 0.5,0.5 0.8,0.4 1,0.2 z m -36.3,-43.7 c -0.2,1.4 -1,2.7 -2.2,3.5 -1.2,0.8 -2.6,1.2 -4.1,0.9 -1.4,-0.2 -2.7,-1 -3.5,-2.2 -0.8,-1.2 -1.2,-2.7 -0.9,-4.1 0.2,-1.4 1,-2.7 2.2,-3.5 0.9,-0.7 2,-1 3.2,-1 0.3,0 0.6,0 0.9,0.1 2.9,0.4 4.9,3.3 4.4,6.3 z m -282.8,-4.9 c 0.7,-2.3 2.9,-3.8 5.2,-3.8 0.5,0 1.1,0.1 1.6,0.3 1.4,0.4 2.5,1.4 3.2,2.7 0.7,1.3 0.8,2.8 0.4,4.2 -0.9,2.9 -4,4.5 -6.9,3.6 -1.4,-0.4 -2.5,-1.4 -3.2,-2.7 -0.3,-0.5 -0.4,-1 -0.5,-1.6 v -0.1 c 0,-0.2 0,-0.5 -0.1,-0.7 0,-0.7 0.1,-1.3 0.3,-1.9 z m 209.2,24.2 c 1.3,-0.1 2.6,-0.2 3.9,-0.4 -0.1,0 0.3,-0.2 0.7,-0.1 0.3,0 0.7,0.1 0.9,0.3 0.1,0.1 0.3,0.3 0.4,0.5 0.1,0.2 0.2,0.5 0.2,0.8 0,0.1 0,0.3 0,0.4 v 0.1 c 0.1,1.1 0.3,2.3 0.4,3.4 1,0.9 1.8,1.9 2.4,3.1 0.4,0.7 0.7,1.5 1,2.3 l -1.3,2.9 v 0.1 c 0,0.2 0.1,0.3 0.1,0.5 0,0.2 0.1,0.4 0.1,0.7 0,0.4 0.1,0.9 0.1,1.3 0.1,2.3 -0.1,4.5 -0.8,6.5 0,0 0,0 0,0.1 0,0.1 0,0.2 -0.1,0.3 -0.5,1.3 -1.1,2.6 -1.8,3.9 -2.8,-0.7 -5.5,-1.5 -8.2,-2.4 -2,-0.7 -4.1,-1.3 -6.1,-2 -0.3,-0.1 -0.5,-0.2 -0.8,-0.3 -1.3,-0.4 -2.7,-0.8 -4,-1.2 -1,-0.3 -2,-0.6 -3,-0.9 -0.8,-0.2 -1.7,-0.5 -2.6,-0.7 -1.5,-0.4 -3,-0.9 -4.5,-1.3 -1.3,-0.4 -2.6,-0.7 -3.9,-1 -1.1,-0.3 -2.1,-0.6 -3.2,-0.8 -1.8,-0.5 -3.7,-0.9 -5.5,-1.3 -0.5,-0.1 -1,-0.3 -1.6,-0.4 -1.2,-0.3 -2.4,-0.5 -3.6,-0.8 -1.2,-0.3 -2.4,-0.5 -3.6,-0.8 -0.5,-0.1 -1.1,-0.2 -1.6,-0.3 -1.9,-0.4 -3.7,-0.7 -5.6,-1.1 -0.7,-0.1 -1.3,-0.2 -2,-0.3 -1.7,-0.3 -3.5,-0.6 -5.2,-0.9 -2.4,-0.4 -4.8,-0.8 -7.2,-1.1 -0.3,0 -0.6,-0.1 -0.9,-0.1 -2.1,-0.3 -4.2,-0.6 -6.3,-0.9 -0.9,-0.1 -1.8,-0.2 -2.7,-0.3 -1.5,-0.2 -3.1,-0.4 -4.6,-0.5 -1.8,-0.2 -3.7,-0.4 -5.5,-0.5 -0.6,-0.1 -1.2,-0.1 -1.7,-0.2 -0.9,-0.1 -1.9,-0.1 -2.8,-0.2 -3.9,-0.3 -7.9,-0.5 -11.8,-0.7 -0.1,0 -0.3,0 -0.4,0 -4.7,-0.2 -9.5,-0.3 -14.3,-0.2 -1.1,0 -2.1,0 -3.2,0 -1,0 -2.1,0 -3.1,0.1 -0.2,0 -0.4,0 -0.5,0 -0.9,0 -1.7,0.1 -2.6,0.1 -0.4,0 -0.8,0 -1.2,0.1 -0.6,0 -1.3,0.1 -1.9,0.1 -0.6,0 -1.2,0.1 -1.8,0.1 -0.4,0 -0.9,0.1 -1.3,0.1 -0.7,0 -1.5,0.1 -2.2,0.2 -0.3,0 -0.6,0 -0.9,0.1 -0.8,0.1 -1.7,0.1 -2.5,0.2 -0.2,0 -0.4,0 -0.6,0.1 -0.9,0.1 -1.8,0.2 -2.7,0.3 -0.1,0 -0.3,0 -0.4,0 -0.3,0 -0.7,0.1 -1,0.1 -1.4,-5.6 -2.1,-11.3 -2.2,-17.1 0,-5.4 0.5,-10.8 1.5,-16.1 1.1,-5.3 2.7,-10.5 4.9,-15.4 2.2,-4.9 4.9,-9.7 8,-14 3.2,-4.4 6.8,-8.4 10.8,-12 l 0.9,-1.7 c 0.5,-4.8 2.8,-9.5 6,-13.4 3.2,-3.9 7.3,-7.1 11.9,-9.3 0.1,-0.1 0.3,-0.1 0.4,-0.1 0.2,0 0.5,0.1 0.6,0.3 1.9,2 3.7,4.5 5.1,6.9 l 3.1,1.2 c 1.5,-0.4 3,-0.9 4.6,-1.3 5.9,-1.4 11.9,-2.2 17.9,-2.3 6.3,0 12.5,0.7 18.6,2.2 6.1,1.5 12,3.8 17.5,6.7 5,2.7 9.8,5.9 13.7,9.8 2,2 3.7,4.1 5,6.4 0.7,1.2 1.2,2.4 1.7,3.6 0.3,0.6 0.4,1.3 0.6,1.9 0.1,0.3 0.2,0.6 0.2,1 0.1,0.3 0.1,0.5 0.2,0.8 0,1 0,2 0,3 0,1.1 0,2.2 0.1,3.3 0,2.2 0.2,4.4 0.3,6.5 0.3,4.3 0.8,8.7 1.5,13 0.7,4.3 1.5,8.6 2.6,12.8 0.6,2.1 1.1,4.2 1.8,6.3 0.3,1.1 0.7,2.1 1.1,3.2 0.2,0.5 0.5,1.1 0.7,1.6 0.2,0.5 0.6,1.1 0.9,1.7 0.7,1.1 1.7,2.4 2.9,3.4 z M 197.6,37.7 c 10.3,-10.3 22.5,-18.5 35.9,-24 13.4,-5.6 27.9,-8.4 42.4,-8.4 5.5,0.1 10.9,0.4 16.4,1.1 5.4,0.8 10.8,1.9 16,3.3 10.5,3 20.6,7.4 29.7,13.4 9.1,5.9 17.4,13.3 23.6,22.1 3.1,4.4 5.7,9.1 7.5,14.1 1.8,5 2.8,10.2 2.7,15.5 -0.1,3.2 -0.6,6.5 -1.6,9.6 -2.1,6.9 -6.1,13 -11.6,17.6 -4.1,3.5 -9,6 -14.2,7.8 -1.2,0.4 -2.4,0.8 -3.6,1.1 -0.4,-2 -0.7,-3.9 -1,-5.9 -0.6,-4.2 -1.1,-8.3 -1.4,-12.5 -0.3,-4.2 -0.4,-8.4 -0.3,-12.6 0,0 0,0 0,-0.1 0,-0.2 0,-0.3 0,-0.5 -0.6,-3.2 -1.8,-6.3 -3.4,-9.1 -1.6,-2.8 -3.6,-5.3 -5.8,-7.5 -4.5,-4.5 -9.6,-7.9 -15,-10.7 -5.9,-3.1 -12.2,-5.5 -18.7,-7.1 -6.5,-1.6 -13.2,-2.4 -19.9,-2.4 -6.5,0.1 -12.9,0.9 -19.2,2.4 -0.8,0.2 -1.7,0.4 -2.5,0.7 -0.2,0 -0.3,0.1 -0.5,0.1 -0.1,-0.1 -0.1,-0.2 -0.2,-0.3 -0.4,-0.7 -0.9,-1.4 -1.4,-2 -1,-1.3 -2,-2.6 -3.2,-3.9 -1.1,-1.1 -2.7,-1.8 -4.2,-1.8 -0.9,0 -1.9,0.2 -2.8,0.6 -5.3,2.5 -10,6.2 -13.8,10.7 -1.9,2.3 -3.5,4.8 -4.7,7.5 -0.6,1.4 -1.1,2.8 -1.6,4.2 -0.2,0.7 -0.4,1.5 -0.5,2.2 -0.1,0.4 -0.1,0.8 -0.2,1.1 v 0.1 l -0.1,0.1 c -0.3,0.2 -0.5,0.5 -0.8,0.7 -0.5,0.5 -1.1,1 -1.6,1.5 -1,1 -2,2.1 -3,3.1 -1.3,1.4 -2.5,2.8 -3.6,4.3 0,0 -0.1,0 -0.1,-0.1 -3.4,-1.4 -6.9,-2.8 -10.4,-4.1 -7.2,-2.7 -14.6,-5 -22,-7 5,-9.1 11.3,-17.5 18.7,-24.9 z m -32.4,82.4 c 0,-1.4 -0.1,-2.7 -0.1,-4.1 0.1,-13.6 2.6,-27.1 7.4,-39.7 0.3,-0.9 0.7,-1.8 1.1,-2.7 0.9,-2.1 1.8,-4.1 2.7,-6.1 0,-0.1 0.1,-0.1 0.1,-0.1 7.3,1.9 14.6,4.2 21.7,6.8 3.4,1.2 6.7,2.5 10,3.9 0,0 0.1,0 0.1,0.1 -2.8,4.1 -5.2,8.5 -7.2,13 -2.3,5.3 -4,10.8 -5.2,16.5 -1.1,5.7 -1.7,11.4 -1.6,17.2 0.1,6 0.8,11.9 2.2,17.7 -0.9,0.1 -1.9,0.3 -2.8,0.4 -0.1,0 -0.2,0 -0.3,0 -0.9,0.1 -1.8,0.3 -2.7,0.4 -0.1,0 -0.3,0 -0.4,0.1 -0.9,0.2 -1.7,0.3 -2.6,0.5 -0.2,0 -0.3,0.1 -0.5,0.1 -0.8,0.2 -1.6,0.3 -2.5,0.5 -0.2,0 -0.4,0.1 -0.7,0.1 -0.8,0.2 -1.5,0.3 -2.3,0.5 -0.3,0.1 -0.6,0.1 -0.8,0.2 -0.7,0.2 -1.4,0.3 -2.1,0.5 -0.3,0.1 -0.6,0.1 -0.9,0.2 h -0.1 c -0.1,0 -0.2,0 -0.3,0.1 -0.6,0.2 -1.3,0.3 -1.9,0.5 -0.3,0.1 -0.6,0.1 -0.9,0.2 -0.7,0.2 -1.3,0.4 -2,0.6 -0.4,0.1 -0.8,0.2 -1.1,0.3 -0.6,0.2 -1.1,0.4 -1.7,0.5 0,-0.1 -0.1,-0.2 -0.1,-0.3 -0.4,-1.3 -0.7,-2.6 -1.1,-3.9 -0.3,-1.3 -0.6,-2.6 -0.9,-4 -0.3,-1.3 -0.5,-2.7 -0.8,-4 -0.2,-1.3 -0.5,-2.7 -0.6,-4 -0.2,-1.3 -0.3,-2.7 -0.5,-4 -0.1,-1.3 -0.2,-2.7 -0.3,-4 -0.1,-0.7 -0.1,-1.4 -0.2,-2 0,-0.7 0,-1.4 -0.1,-2 z m 18,76.9 c -0.6,0.2 -1.2,0.4 -1.8,0.6 -3.8,1.2 -7.8,2.2 -11.7,2.9 -3.9,0.7 -7.9,1.1 -11.9,1.1 -2.7,-0.1 -5.4,-0.3 -8,-0.8 -2.6,-0.5 -5,-1.4 -7.2,-2.6 -2.2,-1.2 -4,-2.9 -5.2,-4.9 -1.2,-2 -1.8,-4.3 -1.7,-6.8 0.1,-3.7 1.3,-7.4 3.1,-10.9 l 0.1,-0.2 c 0.2,-0.3 0.3,-0.5 0.3,-0.5 0.2,-0.3 0.4,-0.6 0.6,-1 0.1,-0.2 0.3,-0.4 0.4,-0.7 0.1,-0.1 0.1,-0.2 0.2,-0.3 0.2,-0.3 0.5,-0.7 0.7,-1 0.2,-0.3 0.5,-0.7 0.8,-1 0.1,-0.1 0.2,-0.3 0.3,-0.4 0.1,-0.2 0.3,-0.3 0.4,-0.5 0.2,-0.3 0.5,-0.5 0.7,-0.8 0.1,-0.1 0.1,-0.2 0.2,-0.2 0.2,-0.2 0.4,-0.5 0.7,-0.7 0.2,-0.2 0.3,-0.4 0.5,-0.5 0.1,-0.1 0.2,-0.2 0.4,-0.4 0.3,-0.3 0.5,-0.5 0.8,-0.7 0.1,-0.1 0.1,-0.1 0.2,-0.2 0.4,-0.4 0.9,-0.7 1.3,-1.1 0.4,-0.3 0.8,-0.6 1.2,-0.9 0.4,-0.3 0.9,-0.6 1.3,-0.9 0.4,-0.3 0.7,-0.5 1.1,-0.8 0.4,-0.3 0.9,-0.6 1.4,-0.9 0.4,-0.2 0.8,-0.5 1.2,-0.7 0.4,-0.3 0.9,-0.5 1.3,-0.8 0.4,-0.2 0.8,-0.5 1.3,-0.7 0.6,-0.3 1.1,-0.6 1.7,-0.9 0.3,-0.2 0.6,-0.3 0.9,-0.5 0.6,-0.3 1.2,-0.6 1.8,-0.9 0.3,-0.1 0.6,-0.3 0.9,-0.4 0.6,-0.3 1.2,-0.5 1.8,-0.8 0.3,-0.1 0.7,-0.3 1,-0.4 0.6,-0.2 1.1,-0.4 1.7,-0.7 0.2,-0.1 0.3,-0.1 0.5,-0.2 0,0.1 0,0.1 0.1,0.2 1.1,3.1 2.3,6.1 3.7,9 0.2,0.4 0.4,0.8 0.5,1.2 2.5,5.1 5.3,10 8.5,14.7 3.4,5.1 7.2,9.9 11.3,14.3 -2.4,1 -4.9,1.9 -7.4,2.7 z m 28.3,-12.7 c -2.6,1.2 -5.2,2.5 -7.7,3.8 -2.6,1.4 -5.3,2.7 -8.1,3.9 -4.4,-4.6 -8.5,-9.6 -12.1,-14.9 -3,-4.5 -5.8,-9.2 -8.1,-14 -0.1,-0.3 -0.3,-0.6 -0.4,-0.9 -1.3,-2.9 -2.5,-5.8 -3.6,-8.8 0,-0.1 0,-0.1 -0.1,-0.2 0.5,-0.2 1,-0.3 1.5,-0.5 0.4,-0.1 0.7,-0.2 1.1,-0.3 0.6,-0.2 1.3,-0.4 1.9,-0.6 0.3,-0.1 0.6,-0.1 0.8,-0.2 0.7,-0.2 1.4,-0.4 2.1,-0.6 0.3,-0.1 0.6,-0.1 0.9,-0.2 0.7,-0.2 1.4,-0.3 2.1,-0.5 0.3,-0.1 0.5,-0.1 0.8,-0.2 0.7,-0.2 1.5,-0.3 2.2,-0.5 0.2,0 0.4,-0.1 0.6,-0.1 0.8,-0.2 1.6,-0.3 2.4,-0.5 0.2,0 0.3,-0.1 0.5,-0.1 0.9,-0.2 1.7,-0.3 2.6,-0.5 0.1,0 0.2,0 0.4,-0.1 0.9,-0.2 1.8,-0.3 2.7,-0.4 0.1,0 0.2,0 0.3,0 0.9,-0.1 1.8,-0.3 2.7,-0.4 0.1,0 0.2,0 0.3,0 0.1,0 0.3,0 0.4,-0.1 0,0.1 0,0.2 0.1,0.3 0.7,2.2 1.5,4.5 2.4,6.6 1.5,3.7 3.3,7.4 5.4,10.8 3.5,6.1 7.8,11.4 12.8,16.1 -2.3,1 -4.6,2 -6.9,3.1 z m 101.1,6.2 c -8.8,3.8 -18.3,6 -27.9,6.7 -1,0.1 -2,0.6 -2.7,1.4 -0.7,0.8 -1.1,1.8 -1,2.9 0,0.7 0.3,1.5 0.7,2 2.1,3.1 3.7,6.8 4.8,10.6 1.2,3.8 1.8,7.7 2,11.6 0,0.5 0,0.9 0,1.4 0,0.2 0,0.5 0,0.7 0,0.1 0,0.1 0,0.2 -13.2,0 -26.5,0 -39.7,0 0.4,-0.6 0.7,-1.2 1.1,-1.8 0.7,-1.2 1.5,-2.4 2.3,-3.6 1.6,-2.3 3.3,-4.6 5,-6.8 3.5,-4.4 7.5,-8.5 11.8,-11.7 0.5,-0.3 0.9,-0.8 1.2,-1.4 0.3,-0.6 0.4,-1.2 0.4,-1.8 0,-1 -0.3,-1.9 -1,-2.7 -0.6,-0.8 -1.6,-1.2 -2.5,-1.3 -11.5,-1.3 -22.8,-4.8 -32.7,-10.6 -10,-5.8 -18.5,-13.9 -24.3,-23.8 -1.8,-3 -3.3,-6 -4.6,-9.2 -0.9,-2 -1.6,-4.1 -2.3,-6.2 0,-0.1 -0.1,-0.2 -0.1,-0.3 h 0.1 c 0.1,0 0.3,0 0.4,0 0.9,-0.1 1.8,-0.2 2.7,-0.3 0.2,0 0.4,0 0.6,0 0.8,-0.1 1.7,-0.1 2.5,-0.2 0.3,0 0.6,0 0.9,-0.1 0.7,-0.1 1.5,-0.1 2.2,-0.2 0.4,0 0.8,0 1.2,-0.1 0.6,0 1.2,-0.1 1.9,-0.1 0.6,0 1.1,-0.1 1.7,-0.1 0.5,0 0.9,0 1.4,-0.1 0.7,0 1.5,-0.1 2.2,-0.1 0.3,0 0.6,0 0.9,0 0.9,0 1.8,-0.1 2.7,-0.1 0.1,0 0.2,0 0.4,0 1,0 2.1,0 3.1,0 1.6,0 3.2,0 4.8,0 0.8,0 1.6,0 2.4,0 2.1,0 4.2,0.1 6.3,0.2 0.3,0 0.6,0 0.9,0 1.6,0.1 3.3,0.2 4.9,0.2 0.8,0 1.5,0.1 2.3,0.1 1,0.1 2,0.1 2.9,0.2 1.4,0.1 2.8,0.2 4.3,0.3 0.5,0 1,0.1 1.6,0.1 1.9,0.2 3.7,0.3 5.6,0.5 1.2,0.1 2.5,0.3 3.7,0.4 1.2,0.1 2.3,0.3 3.5,0.4 1,0.1 1.9,0.3 2.9,0.4 1.4,0.2 2.9,0.4 4.3,0.6 h 0.1 c 2.3,0.3 4.7,0.7 7,1.1 4.2,0.7 8.5,1.5 12.7,2.3 0.5,0.1 1,0.2 1.5,0.3 1.7,0.4 3.5,0.7 5.2,1.1 0.6,0.1 1.2,0.3 1.9,0.4 1.9,0.4 3.7,0.9 5.6,1.3 0.5,0.1 1,0.2 1.4,0.3 1.2,0.3 2.4,0.6 3.6,0.9 1.1,0.3 2.2,0.6 3.3,0.9 0.6,0.2 1.3,0.4 1.9,0.5 1.7,0.5 3.3,0.9 5,1.4 0.4,0.1 0.9,0.3 1.3,0.4 4.2,1.2 8.3,2.5 12.4,3.9 2.1,0.7 4.1,1.3 6.2,1.9 0.1,0 0.1,0 0.2,0.1 0.1,0 0.2,0.1 0.3,0.1 0,0.1 -0.1,0.1 -0.1,0.2 -0.5,0.6 -1,1.3 -1.6,1.9 -1,1.2 -2.2,2.3 -3.3,3.3 -2.1,2 -4.3,3.8 -6.7,5.6 -7.4,5.8 -15.4,10.2 -23.7,13.8 z m 53.3,-10.1 c -0.4,0.5 -0.7,0.9 -1,1.4 -0.2,0.2 -0.3,0.5 -0.5,0.7 -0.7,1 -1.5,1.9 -2.2,2.9 -0.2,0.2 -0.3,0.4 -0.5,0.6 -0.8,1 -1.6,1.9 -2.4,2.8 -0.2,0.2 -0.3,0.4 -0.5,0.5 -0.8,1 -1.7,1.9 -2.6,2.8 -0.1,0.2 -0.3,0.3 -0.4,0.5 -0.9,0.9 -1.8,1.9 -2.8,2.8 -0.1,0.1 -0.3,0.3 -0.4,0.4 -1,0.9 -1.9,1.8 -2.9,2.7 -0.1,0.1 -0.2,0.2 -0.3,0.3 -1,0.9 -2,1.8 -3.1,2.6 -0.1,0.1 -0.2,0.2 -0.3,0.2 -1.1,0.9 -2.2,1.7 -3.3,2.6 -0.1,0.1 -0.2,0.1 -0.2,0.2 -1.1,0.9 -2.3,1.7 -3.4,2.5 -0.1,0 -0.1,0.1 -0.2,0.1 -1.2,0.8 -2.4,1.6 -3.6,2.4 0,0 -0.1,0 -0.1,0.1 -1.2,0.8 -2.5,1.6 -3.8,2.3 -1.3,0.7 -2.5,1.4 -3.8,2.1 0,0 0,0 -0.1,0 -1.3,0.7 -2.6,1.3 -3.9,1.9 0,0 -0.1,0 -0.1,0.1 -0.1,0 -0.1,0 -0.2,0.1 1.2,-1 2.3,-2.1 3.5,-3.2 2.8,-2.8 5.5,-5.8 7.8,-9.2 1.1,-1.8 2.2,-3.6 2.9,-5.7 0.3,-0.8 0.5,-1.7 0.7,-2.6 0.1,-0.3 0.1,-0.8 0.1,-0.8 0.1,-0.4 0.1,-1 0.2,-1.3 0,-0.1 0,-0.2 0,-0.4 v -0.1 c 0.1,-0.9 0.1,-2.2 0,-3.3 0,-0.1 0,-0.1 0,-0.2 -0.4,-1.9 -1.2,-3.7 -2.3,-5.4 0,0 0,-0.1 -0.1,-0.1 0,0 0,0 -0.1,-0.1 1.1,-0.8 2.2,-1.6 3.3,-2.4 3.4,-2.5 6.6,-5.3 9.5,-8.4 0.4,-0.4 0.8,-0.8 1.2,-1.2 1.1,-1.3 2.2,-2.6 3.2,-4 l 0.1,-0.1 c 0.1,0 0.2,0 0.2,0.1 0.7,0.2 1.5,0.3 2.3,0.5 0.3,0.1 0.6,0.1 0.9,0.2 0.8,0.2 1.7,0.4 2.5,0.5 0.2,0 0.4,0.1 0.6,0.1 2.1,0.4 4.2,0.8 6.4,1.2 0.9,0.1 1.8,0.3 2.8,0.4 0.1,0 0.3,0 0.4,0.1 0.4,0.1 0.9,0.1 1.3,0.2 0.4,0 0.8,0.1 1.1,0.1 -0.4,1 -3.8,6.5 -5.9,9.5 z"
       id="path34"
       style="fill:#ffffff;fill-opacity:1" /></g></svg>