<?xml version="1.0" encoding="UTF-8" standalone="no"?>
<svg
   xmlns:dc="http://purl.org/dc/elements/1.1/"
   xmlns:cc="http://creativecommons.org/ns#"
   xmlns:rdf="http://www.w3.org/1999/02/22-rdf-syntax-ns#"
   xmlns:svg="http://www.w3.org/2000/svg"
   xmlns="http://www.w3.org/2000/svg"
   id="svg11"
   version="1.1"
   height="500"
   width="500">
  <metadata
     id="metadata17">
    <rdf:RDF>
      <cc:Work
         rdf:about="">
        <dc:format>image/svg+xml</dc:format>
        <dc:type
           rdf:resource="http://purl.org/dc/dcmitype/StillImage" />
        <dc:title></dc:title>
      </cc:Work>
    </rdf:RDF>
  </metadata>
  <defs
     id="defs15" />
  <path
     id="Shape 1"
     style="stroke: none; fill: rgb(0, 0, 0)"
     fill-rule="nonzero"
     d="M 55.899292,359.936446 C 55.899292,359.936446 55.899292,174.312472 55.899292,174.312472 C 55.899292,174.312472 437.843740,122.229159 437.843740,122.229159 C 437.843740,122.229159 437.843740,434.045076 437.843740,434.045076 C 437.843740,434.045076 407.982618,428.251117 407.982618,428.251117 C 407.982618,428.251117 407.982618,275.701374 407.982618,265.979141 C 407.982618,256.256938 415.608793,179.615527 340.621501,183.340251 C 273.946673,186.652124 278.815955,250.701368 278.815955,256.951362 C 278.815955,263.201386 278.815955,403.188944 278.815955,403.188944 C 278.815955,403.188944 251.038194,397.799224 251.038194,397.799224 C 251.038194,397.799224 251.038194,261.118054 251.038194,252.090275 C 251.038194,243.062496 254.510403,188.895822 205.204844,194.451362 C 165.773690,198.894322 160.065949,231.256932 160.065949,248.618037 C 160.065949,265.979141 160.065949,380.147904 160.065949,380.147904 C 160.065949,380.147904 142.704844,376.779318 142.704844,376.779318 C 142.704844,376.779318 142.704844,267.368048 142.704844,258.340269 C 142.704844,249.312490 140.621513,202.784717 102.427065,204.868048 C 68.386167,206.724823 68.399280,239.590257 68.399280,249.312490 C 68.399280,259.034693 68.399280,362.361819 68.399280,362.361819 C 68.399280,362.361819 55.899292,359.936446 55.899292,359.936446 Z M 42.010397,161.118031 C 42.010397,161.118031 41.315943,145.840257 41.315943,145.840257 C 41.315943,145.840257 457.288176,65.979153 457.288176,65.979153 C 457.288176,65.979153 458.677083,99.312484 458.677083,99.312484 C 458.677083,99.312484 42.010397,161.118031 42.010397,161.118031 Z" />
</svg>
