<?xml version="1.0" encoding="UTF-8" standalone="no"?>
<svg
   xmlns:dc="http://purl.org/dc/elements/1.1/"
   xmlns:cc="http://creativecommons.org/ns#"
   xmlns:rdf="http://www.w3.org/1999/02/22-rdf-syntax-ns#"
   xmlns:svg="http://www.w3.org/2000/svg"
   xmlns="http://www.w3.org/2000/svg"
   xmlns:sodipodi="http://sodipodi.sourceforge.net/DTD/sodipodi-0.dtd"
   xmlns:inkscape="http://www.inkscape.org/namespaces/inkscape"
   width="1500"
   height="1500"
   version="1.1"
   id="svg50"
   sodipodi:docname="H-engine.svg"
   inkscape:version="0.92.2 (5c3e80d, 2017-08-06)">
  <metadata
     id="metadata56">
    <rdf:RDF>
      <cc:Work
         rdf:about="">
        <dc:format>image/svg+xml</dc:format>
        <dc:type
           rdf:resource="http://purl.org/dc/dcmitype/StillImage" />
        <dc:title></dc:title>
      </cc:Work>
    </rdf:RDF>
  </metadata>
  <defs
     id="defs54" />
  <sodipodi:namedview
     pagecolor="#ffffff"
     bordercolor="#666666"
     borderopacity="1"
     objecttolerance="10"
     gridtolerance="10"
     guidetolerance="10"
     inkscape:pageopacity="0"
     inkscape:pageshadow="2"
     inkscape:window-width="1920"
     inkscape:window-height="1027"
     id="namedview52"
     showgrid="false"
     inkscape:zoom="0.1915"
     inkscape:cx="-176.89485"
     inkscape:cy="-68.504292"
     inkscape:window-x="-8"
     inkscape:window-y="-8"
     inkscape:window-maximized="1"
     inkscape:current-layer="svg50" />
  <mask
     id="_1">
    <g
       id="g38">
      <path
         d="M 0,0 H 1500 V 420 H 0 Z"
         style="fill:#ffffff;stroke:none"
         id="path34"
         inkscape:connector-curvature="0" />
      <path
         d="m 750,103.99999 c 57.98981,0 104.99999,47.01011 104.99999,105 0,57.98987 -47.01018,105 -104.99999,105 -57.9899,0 -105.00008,-47.01013 -105.00008,-105 0,-57.98989 47.01018,-105 105.00008,-105 z M 163.99991,177 c 17.67317,0 32.00001,14.32688 32.00001,31.99999 0,17.6731 -14.32684,32 -32.00001,32 -17.67307,0 -31.99991,-14.3269 -31.99991,-32 C 132,191.32688 146.32684,177 163.99991,177 Z"
         style="fill:#000000;fill-rule:nonzero;stroke:none"
         id="path36"
         inkscape:connector-curvature="0" />
    </g>
  </mask>
  <mask
     id="_2">
    <g
       id="g46">
      <path
         d="M 0,0 H 1500 V 420 H 0 Z"
         style="fill:#ffffff;stroke:none"
         id="path42"
         inkscape:connector-curvature="0" />
      <path
         d="m 749.95825,313.99999 c -57.98981,0 -104.99999,-47.01013 -104.99999,-105 0,-57.98989 47.01018,-105 104.99999,-105 57.98989,0 105.00008,47.01011 105.00008,105 0,57.98987 -47.01019,105 -105.00008,105 z m 586.00005,-73 c -17.6731,0 -32,-14.3269 -32,-32 0,-17.67311 14.3269,-31.99999 32,-31.99999 17.6731,0 31.9999,14.32688 31.9999,31.99999 0,17.6731 -14.3268,32 -31.9999,32 z"
         style="fill:#000000;fill-rule:nonzero;stroke:none"
         id="path44"
         inkscape:connector-curvature="0" />
    </g>
  </mask>
  <g
     id="g3729"
     transform="matrix(0.9,0,0,0.9,75.018771,-410.09999)">
    <path
       transform="translate(0,1080)"
       inkscape:connector-curvature="0"
       id="Piston copy 2"
       inkscape:label="Piston copy 2"
       style="fill:#373737;fill-rule:nonzero;stroke:none"
       mask="url(#_1)"
       d="m 250.99996,238 c 0,0 266.99996,4.99998 266.99996,4.99998 0,0 32,-2.99999 77.00005,29 44.99996,32 51.99998,60 51.99998,60 0,0 0,34.00001 0,34.00001 0,0 219.99997,0 219.99997,0 0,0 0,-52 0,-52 0,0 -9.99999,0 -9.99999,0 0,0 -1.99994,-4 6.00002,-17 8.00004,-13.00001 20.99999,-26.99999 28.00002,-52 6.99994,-25 3.99998,-36 3.99998,-36 0,0 2.99996,-11.00001 -3.99998,-35.99999 -7.00003,-25.00001 -19.99998,-39.00002 -28.00002,-52 -7.99996,-13.00001 -6.00002,-17.00001 -6.00002,-17.00001 0,0 9.99999,0 9.99999,0 0,0 0,-51.999993 0,-51.999993 0,0 -219.99997,0 -219.99997,0 0,0 0,33.999985 0,33.999985 0,0 -7.00002,27.999998 -51.99998,59.999998 -45.00005,32 -77.00005,29 -77.00005,29 0,0 -266.99996,5.00001 -266.99996,5.00001 0,0 -2.00004,13.00001 -2.00004,29 0,16 2.00004,29.00001 2.00004,29.00001 z M 61.999977,373.99999 c 0,0 -32.000006,0 -32.000006,0 0,0 -14.999985,-46.00001 -14.999985,-165 0,-119.000008 14.999985,-164.999993 14.999985,-164.999993 0,0 32.000006,0 32.000006,0 0,0 -14.999986,45.999985 -14.999986,164.999993 0,118.99999 14.999986,165 14.999986,165 z m 29.999971,0 c 0,0 -14.999986,0 -14.999986,0 0,0 -14.999985,-46.00001 -14.999985,-165 0,-119.000008 14.999985,-164.999993 14.999985,-164.999993 0,0 14.999986,0 14.999986,0 0,0 -14.999986,45.999985 -14.999986,164.999993 0,118.99999 14.999986,165 14.999986,165 z m 149.000022,-65 c 3.99997,22.99999 8.99997,41 24.99997,45 16.00001,4 21,5.99999 21,5.99999 0,0 0,14.00001 0,14.00001 0,0 -180.00001,0 -180.00001,0 0,0 -14.999982,-46.00001 -14.999982,-165 0,-119.000008 14.999982,-164.999993 14.999982,-164.999993 0,0 180.00001,0 180.00001,0 0,0 0,13.999987 0,13.999987 0,0 -4.99999,2.000012 -21,6.000012 -16,4 -21,21.999986 -24.99997,45.000004 -3.99998,22.99999 -8.00005,53.99998 -8.00005,99.99999 0,45.99999 4.00007,77.00001 8.00005,100 z" />
    <path
       transform="translate(0,1080)"
       inkscape:connector-curvature="0"
       id="Piston copy"
       inkscape:label="Piston copy"
       style="fill:#373737;fill-rule:nonzero;stroke:none"
       mask="url(#_2)"
       d="m 1248.9583,179.99999 c 0,0 -266.99997,-5.00001 -266.99997,-5.00001 0,0 -32.00001,3 -77.00005,-29 -44.99996,-32 -51.99999,-59.999998 -51.99999,-59.999998 0,0 0,-33.999985 0,-33.999985 0,0 -219.99997,0 -219.99997,0 0,0 0,51.999993 0,51.999993 0,0 9.99999,0 9.99999,0 0,0 1.99995,4 -6.00001,17.00001 -8.00005,12.99998 -21,26.99999 -28.00003,52 -7.00002,24.99998 -3.99997,35.99999 -3.99997,35.99999 0,0 -3.00005,11 3.99997,36 7.00003,25.00001 19.99998,38.99999 28.00003,52 7.99996,13 6.00001,17 6.00001,17 0,0 -9.99999,0 -9.99999,0 0,0 0,52 0,52 0,0 219.99997,0 219.99997,0 0,0 0,-34.00001 0,-34.00001 0,0 7.00003,-28 51.99999,-60 45.00004,-31.99999 77.00005,-29 77.00005,-29 0,0 266.99997,-4.99998 266.99997,-4.99998 0,0 2,-13.00001 2,-29.00001 0,-15.99999 -2,-29 -2,-29 z m 189,-135.999993 c 0,0 32,0 32,0 0,0 15,45.999985 15,164.999993 0,118.99999 -15,165 -15,165 0,0 -32,0 -32,0 0,0 15,-46.00001 15,-165 0,-119.000008 -15,-164.999993 -15,-164.999993 z m -30,0 c 0,0 15,0 15,0 0,0 15,45.999985 15,164.999993 0,118.99999 -15,165 -15,165 0,0 -15,0 -15,0 0,0 15,-46.00001 15,-165 0,-119.000008 -15,-164.999993 -15,-164.999993 z M 1258.9583,109 c -4,-23.000018 -9,-41.000004 -25,-45.000004 -16,-4 -21,-6.000012 -21,-6.000012 0,0 0,-13.999987 0,-13.999987 0,0 180,0 180,0 0,0 15,45.999985 15,164.999993 0,118.99999 -15,165 -15,165 0,0 -180,0 -180,0 0,0 0,-14.00001 0,-14.00001 0,0 5,-1.99999 21,-5.99999 16,-4 21,-22.00001 25,-45 4,-22.99999 8,-54.00001 8,-100 0,-46.00001 -4,-77 -8,-99.99999 z" />
  </g>
</svg>
