<?xml version="1.0" encoding="UTF-8" standalone="no"?>
<svg
   xmlns:dc="http://purl.org/dc/elements/1.1/"
   xmlns:cc="http://creativecommons.org/ns#"
   xmlns:rdf="http://www.w3.org/1999/02/22-rdf-syntax-ns#"
   xmlns:svg="http://www.w3.org/2000/svg"
   xmlns="http://www.w3.org/2000/svg"
   xmlns:sodipodi="http://sodipodi.sourceforge.net/DTD/sodipodi-0.dtd"
   xmlns:inkscape="http://www.inkscape.org/namespaces/inkscape"
   width="1500"
   height="420"
   version="1.1"
   id="svg50"
   sodipodi:docname="H-engine.svg"
   inkscape:version="0.92.1 r15371">
  <metadata
     id="metadata56">
    <rdf:RDF>
      <cc:Work
         rdf:about="">
        <dc:format>image/svg+xml</dc:format>
        <dc:type
           rdf:resource="http://purl.org/dc/dcmitype/StillImage" />
        <dc:title></dc:title>
      </cc:Work>
    </rdf:RDF>
  </metadata>
  <defs
     id="defs54" />
  <sodipodi:namedview
     pagecolor="#ffffff"
     bordercolor="#666666"
     borderopacity="1"
     objecttolerance="10"
     gridtolerance="10"
     guidetolerance="10"
     inkscape:pageopacity="0"
     inkscape:pageshadow="2"
     inkscape:window-width="640"
     inkscape:window-height="480"
     id="namedview52"
     showgrid="false"
     inkscape:zoom="0.1915"
     inkscape:cx="713.44458"
     inkscape:cy="-68.504292"
     inkscape:window-x="350"
     inkscape:window-y="165"
     inkscape:window-maximized="0"
     inkscape:current-layer="svg50" />
  <mask
     id="_1">
    <g
       id="g38">
      <path
         d="M 0,0 1500,0 1500,420 0,420 0,0 Z"
         style="stroke:none; fill:white"
         id="path34" />
      <path
         d="M 750.000000,103.999994 C 807.989806,103.999994 854.999989,151.010098 854.999989,208.999994 C 854.999989,266.989864 807.989806,313.999994 750.000000,313.999994 C 692.010105,313.999994 644.999921,266.989864 644.999921,208.999994 C 644.999921,151.010098 692.010105,103.999994 750.000000,103.999994 Z M 163.999915,176.999996 C 181.673080,176.999996 195.999920,191.326876 195.999920,208.999994 C 195.999920,226.673087 181.673080,240.999992 163.999915,240.999992 C 146.326840,240.999992 131.999999,226.673087 131.999999,208.999994 C 131.999999,191.326876 146.326840,176.999996 163.999915,176.999996 Z"
         style="stroke:none; fill:black"
         fill-rule="nonzero"
         id="path36" />
    </g>
  </mask>
  <path
     d="M 250.999957,237.999998 C 250.999957,237.999998 517.999917,242.999979 517.999917,242.999979 C 517.999917,242.999979 549.999923,239.999986 594.999969,271.999984 C 639.999926,303.999982 646.999955,331.999980 646.999955,331.999980 C 646.999955,331.999980 646.999955,365.999991 646.999955,365.999991 C 646.999955,365.999991 866.999924,365.999991 866.999924,365.999991 C 866.999924,365.999991 866.999924,313.999994 866.999924,313.999994 C 866.999924,313.999994 856.999934,313.999994 856.999934,313.999994 C 856.999934,313.999994 854.999989,309.999994 862.999946,296.999989 C 870.999992,283.999983 883.999944,269.999996 890.999973,244.999992 C 897.999913,219.999987 894.999951,208.999994 894.999951,208.999994 C 894.999951,208.999994 897.999913,197.999976 890.999973,172.999996 C 883.999944,147.999991 870.999992,133.999979 862.999946,120.999999 C 854.999989,107.999994 856.999934,103.999994 856.999934,103.999994 C 856.999934,103.999994 866.999924,103.999994 866.999924,103.999994 C 866.999924,103.999994 866.999924,51.999997 866.999924,51.999997 C 866.999924,51.999997 646.999955,51.999997 646.999955,51.999997 C 646.999955,51.999997 646.999955,85.999982 646.999955,85.999982 C 646.999955,85.999982 639.999926,113.999981 594.999969,145.999979 C 549.999923,177.999977 517.999917,174.999983 517.999917,174.999983 C 517.999917,174.999983 250.999957,179.999989 250.999957,179.999989 C 250.999957,179.999989 248.999923,192.999995 248.999923,208.999994 C 248.999923,224.999993 250.999957,237.999998 250.999957,237.999998 Z M 61.999977,373.999990 C 61.999977,373.999990 29.999971,373.999990 29.999971,373.999990 C 29.999971,373.999990 14.999986,327.999980 14.999986,208.999994 C 14.999986,89.999982 29.999971,43.999997 29.999971,43.999997 C 29.999971,43.999997 61.999977,43.999997 61.999977,43.999997 C 61.999977,43.999997 46.999991,89.999982 46.999991,208.999994 C 46.999991,327.999980 61.999977,373.999990 61.999977,373.999990 Z M 91.999948,373.999990 C 91.999948,373.999990 76.999962,373.999990 76.999962,373.999990 C 76.999962,373.999990 61.999977,327.999980 61.999977,208.999994 C 61.999977,89.999982 76.999962,43.999997 76.999962,43.999997 C 76.999962,43.999997 91.999948,43.999997 91.999948,43.999997 C 91.999948,43.999997 76.999962,89.999982 76.999962,208.999994 C 76.999962,327.999980 91.999948,373.999990 91.999948,373.999990 Z M 240.999967,308.999988 C 244.999945,331.999980 249.999940,349.999992 265.999943,353.999991 C 281.999946,357.999991 286.999941,359.999979 286.999941,359.999979 C 286.999941,359.999979 286.999941,373.999990 286.999941,373.999990 C 286.999941,373.999990 106.999934,373.999990 106.999934,373.999990 C 106.999934,373.999990 91.999948,327.999980 91.999948,208.999994 C 91.999948,89.999982 106.999934,43.999997 106.999934,43.999997 C 106.999934,43.999997 286.999941,43.999997 286.999941,43.999997 C 286.999941,43.999997 286.999941,57.999984 286.999941,57.999984 C 286.999941,57.999984 281.999946,59.999996 265.999943,63.999996 C 249.999940,67.999996 244.999945,85.999982 240.999967,109.000000 C 236.999989,131.999992 232.999921,162.999984 232.999921,208.999994 C 232.999921,254.999979 236.999989,285.999995 240.999967,308.999988 Z"
     fill-rule="nonzero"
     mask="url(#_1)"
     style="stroke: none; fill: rgb(55, 55, 55)"
     inkscape:label="Piston copy 2"
     id="Piston copy 2" />
  <mask
     id="_2">
    <g
       id="g46">
      <path
         d="M 0,0 1500,0 1500,420 0,420 0,0 Z"
         style="stroke:none; fill:white"
         id="path42" />
      <path
         d="M 749.958247,313.999994 C 691.968441,313.999994 644.958258,266.989864 644.958258,208.999994 C 644.958258,151.010098 691.968441,103.999994 749.958247,103.999994 C 807.948142,103.999994 854.958326,151.010098 854.958326,208.999994 C 854.958326,266.989864 807.948142,313.999994 749.958247,313.999994 Z M 1335.958332,240.999992 C 1318.285167,240.999992 1303.958327,226.673087 1303.958327,208.999994 C 1303.958327,191.326876 1318.285167,176.999996 1335.958332,176.999996 C 1353.631407,176.999996 1367.958248,191.326876 1367.958248,208.999994 C 1367.958248,226.673087 1353.631407,240.999992 1335.958332,240.999992 Z"
         style="stroke:none; fill:black"
         fill-rule="nonzero"
         id="path44" />
    </g>
  </mask>
  <path
     d="M 1248.958290,179.999989 C 1248.958290,179.999989 981.958330,174.999983 981.958330,174.999983 C 981.958330,174.999983 949.958324,177.999977 904.958278,145.999979 C 859.958321,113.999981 852.958292,85.999982 852.958292,85.999982 C 852.958292,85.999982 852.958292,51.999997 852.958292,51.999997 C 852.958292,51.999997 632.958323,51.999997 632.958323,51.999997 C 632.958323,51.999997 632.958323,103.999994 632.958323,103.999994 C 632.958323,103.999994 642.958313,103.999994 642.958313,103.999994 C 642.958313,103.999994 644.958258,107.999994 636.958301,120.999999 C 628.958255,133.999979 615.958303,147.999991 608.958274,172.999996 C 601.958245,197.999976 604.958296,208.999994 604.958296,208.999994 C 604.958296,208.999994 601.958245,219.999987 608.958274,244.999992 C 615.958303,269.999996 628.958255,283.999983 636.958301,296.999989 C 644.958258,309.999994 642.958313,313.999994 642.958313,313.999994 C 642.958313,313.999994 632.958323,313.999994 632.958323,313.999994 C 632.958323,313.999994 632.958323,365.999991 632.958323,365.999991 C 632.958323,365.999991 852.958292,365.999991 852.958292,365.999991 C 852.958292,365.999991 852.958292,331.999980 852.958292,331.999980 C 852.958292,331.999980 859.958321,303.999982 904.958278,271.999984 C 949.958324,239.999986 981.958330,242.999979 981.958330,242.999979 C 981.958330,242.999979 1248.958290,237.999998 1248.958290,237.999998 C 1248.958290,237.999998 1250.958323,224.999993 1250.958323,208.999994 C 1250.958323,192.999995 1248.958290,179.999989 1248.958290,179.999989 Z M 1437.958270,43.999997 C 1437.958270,43.999997 1469.958276,43.999997 1469.958276,43.999997 C 1469.958276,43.999997 1484.958261,89.999982 1484.958261,208.999994 C 1484.958261,327.999980 1469.958276,373.999990 1469.958276,373.999990 C 1469.958276,373.999990 1437.958270,373.999990 1437.958270,373.999990 C 1437.958270,373.999990 1452.958256,327.999980 1452.958256,208.999994 C 1452.958256,89.999982 1437.958270,43.999997 1437.958270,43.999997 Z M 1407.958299,43.999997 C 1407.958299,43.999997 1422.958285,43.999997 1422.958285,43.999997 C 1422.958285,43.999997 1437.958270,89.999982 1437.958270,208.999994 C 1437.958270,327.999980 1422.958285,373.999990 1422.958285,373.999990 C 1422.958285,373.999990 1407.958299,373.999990 1407.958299,373.999990 C 1407.958299,373.999990 1422.958285,327.999980 1422.958285,208.999994 C 1422.958285,89.999982 1407.958299,43.999997 1407.958299,43.999997 Z M 1258.958280,109.000000 C 1254.958302,85.999982 1249.958307,67.999996 1233.958304,63.999996 C 1217.958301,59.999996 1212.958306,57.999984 1212.958306,57.999984 C 1212.958306,57.999984 1212.958306,43.999997 1212.958306,43.999997 C 1212.958306,43.999997 1392.958313,43.999997 1392.958313,43.999997 C 1392.958313,43.999997 1407.958299,89.999982 1407.958299,208.999994 C 1407.958299,327.999980 1392.958313,373.999990 1392.958313,373.999990 C 1392.958313,373.999990 1212.958306,373.999990 1212.958306,373.999990 C 1212.958306,373.999990 1212.958306,359.999979 1212.958306,359.999979 C 1212.958306,359.999979 1217.958301,357.999991 1233.958304,353.999991 C 1249.958307,349.999992 1254.958302,331.999980 1258.958280,308.999988 C 1262.958258,285.999995 1266.958326,254.999979 1266.958326,208.999994 C 1266.958326,162.999984 1262.958258,131.999992 1258.958280,109.000000 Z"
     fill-rule="nonzero"
     mask="url(#_2)"
     style="stroke: none; fill: rgb(55, 55, 55)"
     inkscape:label="Piston copy"
     id="Piston copy" />
</svg>
