<?xml version="1.0" encoding="UTF-8" standalone="no"?>
<svg
   xmlns:dc="http://purl.org/dc/elements/1.1/"
   xmlns:cc="http://creativecommons.org/ns#"
   xmlns:rdf="http://www.w3.org/1999/02/22-rdf-syntax-ns#"
   xmlns:svg="http://www.w3.org/2000/svg"
   xmlns="http://www.w3.org/2000/svg"
   xmlns:sodipodi="http://sodipodi.sourceforge.net/DTD/sodipodi-0.dtd"
   xmlns:inkscape="http://www.inkscape.org/namespaces/inkscape"
   width="450"
   height="1000"
   version="1.1"
   id="svg18"
   sodipodi:docname="I-engine.svg"
   inkscape:version="0.92.1 r15371">
  <metadata
     id="metadata24">
    <rdf:RDF>
      <cc:Work
         rdf:about="">
        <dc:format>image/svg+xml</dc:format>
        <dc:type
           rdf:resource="http://purl.org/dc/dcmitype/StillImage" />
        <dc:title></dc:title>
      </cc:Work>
    </rdf:RDF>
  </metadata>
  <defs
     id="defs22" />
  <sodipodi:namedview
     pagecolor="#ffffff"
     bordercolor="#666666"
     borderopacity="1"
     objecttolerance="10"
     gridtolerance="10"
     guidetolerance="10"
     inkscape:pageopacity="0"
     inkscape:pageshadow="2"
     inkscape:window-width="640"
     inkscape:window-height="480"
     id="namedview20"
     showgrid="false"
     inkscape:zoom="0.236"
     inkscape:cx="225"
     inkscape:cy="500"
     inkscape:window-x="294"
     inkscape:window-y="98"
     inkscape:window-maximized="0"
     inkscape:current-layer="svg18" />
  <mask
     id="_1">
    <g
       id="g14">
      <path
         d="M 0,0 450,0 450,1000 0,1000 0,0 Z"
         style="stroke:none; fill:white"
         id="path10" />
      <path
         d="M 329.979166,789.020777 C 329.979166,847.010672 282.969028,894.020796 224.979159,894.020796 C 166.989264,894.020796 119.979152,847.010672 119.979152,789.020777 C 119.979152,731.030941 166.989264,684.020817 224.979159,684.020817 C 282.969028,684.020817 329.979166,731.030941 329.979166,789.020777 Z M 256.979147,203.020811 C 256.979147,220.693886 242.652261,235.020816 224.979159,235.020816 C 207.306057,235.020816 192.979145,220.693886 192.979145,203.020811 C 192.979145,185.347676 207.306057,171.020806 224.979159,171.020806 C 242.652261,171.020806 256.979147,185.347676 256.979147,203.020811 Z"
         style="stroke:none; fill:black"
         fill-rule="nonzero"
         id="path12" />
    </g>
  </mask>
  <path
     d="M 195.979142,290.020823 C 195.979142,290.020823 190.979156,557.020783 190.979156,557.020783 C 190.979156,557.020783 193.979153,589.020789 161.979166,634.020805 C 129.979151,679.020822 101.979142,686.020792 101.979142,686.020792 C 101.979142,686.020792 67.979166,686.020792 67.979166,686.020792 C 67.979166,686.020792 67.979166,906.020820 67.979166,906.020820 C 67.979166,906.020820 119.979152,906.020820 119.979152,906.020820 C 119.979152,906.020820 119.979152,896.020830 119.979152,896.020830 C 119.979152,896.020830 123.979157,894.020796 136.979154,902.020812 C 149.979150,910.020828 163.979155,923.020780 188.979140,930.020809 C 213.979152,937.020779 224.979159,934.020817 224.979159,934.020817 C 224.979159,934.020817 235.979167,937.020779 260.979152,930.020809 C 285.979164,923.020780 299.979141,910.020828 312.979165,902.020812 C 325.979161,894.020796 329.979166,896.020830 329.979166,896.020830 C 329.979166,896.020830 329.979166,906.020820 329.979166,906.020820 C 329.979166,906.020820 381.979153,906.020820 381.979153,906.020820 C 381.979153,906.020820 381.979153,686.020792 381.979153,686.020792 C 381.979153,686.020792 347.979149,686.020792 347.979149,686.020792 C 347.979149,686.020792 319.979140,679.020822 287.979153,634.020805 C 255.979165,589.020789 258.979163,557.020783 258.979163,557.020783 C 258.979163,557.020783 253.979149,290.020823 253.979149,290.020823 C 253.979149,290.020823 240.979153,288.020790 224.979159,288.020790 C 208.979166,288.020790 195.979142,290.020823 195.979142,290.020823 Z M 59.979156,101.020813 C 59.979156,101.020813 59.979156,69.020808 59.979156,69.020808 C 59.979156,69.020808 105.979148,54.020822 224.979159,54.020822 C 343.979144,54.020822 389.979163,69.020808 389.979163,69.020808 C 389.979163,69.020808 389.979163,101.020813 389.979163,101.020813 C 389.979163,101.020813 343.979144,86.020827 224.979159,86.020827 C 105.979148,86.020827 59.979156,101.020813 59.979156,101.020813 Z M 59.979156,131.020784 C 59.979156,131.020784 59.979156,116.020799 59.979156,116.020799 C 59.979156,116.020799 105.979148,101.020813 224.979159,101.020813 C 343.979144,101.020813 389.979163,116.020799 389.979163,116.020799 C 389.979163,116.020799 389.979163,131.020784 389.979163,131.020784 C 389.979163,131.020784 343.979144,116.020799 224.979159,116.020799 C 105.979148,116.020799 59.979156,131.020784 59.979156,131.020784 Z M 124.979165,280.020833 C 101.979142,284.020782 83.979160,289.020777 79.979154,305.020809 C 75.979149,321.020782 73.979160,326.020777 73.979160,326.020777 C 73.979160,326.020777 59.979156,326.020777 59.979156,326.020777 C 59.979156,326.020777 59.979156,146.020830 59.979156,146.020830 C 59.979156,146.020830 105.979148,131.020784 224.979159,131.020784 C 343.979144,131.020784 389.979163,146.020830 389.979163,146.020830 C 389.979163,146.020830 389.979163,326.020777 389.979163,326.020777 C 389.979163,326.020777 375.979158,326.020777 375.979158,326.020777 C 375.979158,326.020777 373.979142,321.020782 369.979164,305.020809 C 365.979159,289.020777 347.979149,284.020782 324.979153,280.020833 C 301.979157,276.020825 270.979151,272.020817 224.979159,272.020817 C 178.979141,272.020817 147.979161,276.020825 124.979165,280.020833 Z"
     fill-rule="nonzero"
     mask="url(#_1)"
     style="stroke: none; fill: rgb(55, 55, 55)"
     inkscape:label="Piston copy 7"
     id="Piston copy 7" />
</svg>
