<?xml version="1.0" encoding="UTF-8" standalone="no"?>
<svg
   xmlns:dc="http://purl.org/dc/elements/1.1/"
   xmlns:cc="http://creativecommons.org/ns#"
   xmlns:rdf="http://www.w3.org/1999/02/22-rdf-syntax-ns#"
   xmlns:svg="http://www.w3.org/2000/svg"
   xmlns="http://www.w3.org/2000/svg"
   xmlns:sodipodi="http://sodipodi.sourceforge.net/DTD/sodipodi-0.dtd"
   xmlns:inkscape="http://www.inkscape.org/namespaces/inkscape"
   width="1000"
   height="1000"
   version="1.1"
   id="svg18"
   sodipodi:docname="I-engine.svg"
   inkscape:version="0.92.2 (5c3e80d, 2017-08-06)">
  <metadata
     id="metadata24">
    <rdf:RDF>
      <cc:Work
         rdf:about="">
        <dc:format>image/svg+xml</dc:format>
        <dc:type
           rdf:resource="http://purl.org/dc/dcmitype/StillImage" />
        <dc:title></dc:title>
      </cc:Work>
    </rdf:RDF>
  </metadata>
  <defs
     id="defs22" />
  <sodipodi:namedview
     pagecolor="#ffffff"
     bordercolor="#666666"
     borderopacity="1"
     objecttolerance="10"
     gridtolerance="10"
     guidetolerance="10"
     inkscape:pageopacity="0"
     inkscape:pageshadow="2"
     inkscape:window-width="1920"
     inkscape:window-height="1027"
     id="namedview20"
     showgrid="false"
     inkscape:zoom="0.236"
     inkscape:cx="225"
     inkscape:cy="500"
     inkscape:window-x="-8"
     inkscape:window-y="-8"
     inkscape:window-maximized="1"
     inkscape:current-layer="svg18" />
  <mask
     id="_1">
    <g
       id="g14">
      <path
         d="M 0,0 H 450 V 1000 H 0 Z"
         style="fill:#ffffff;stroke:none"
         id="path10"
         inkscape:connector-curvature="0" />
      <path
         d="m 329.97917,789.02078 c 0,57.98989 -47.01014,105.00002 -105.00001,105.00002 -57.9899,0 -105.00001,-47.01013 -105.00001,-105.00002 0,-57.98984 47.01011,-104.99996 105.00001,-104.99996 57.98987,0 105.00001,47.01012 105.00001,104.99996 z M 256.97915,203.02081 c 0,17.67308 -14.32689,32.00001 -31.99999,32.00001 -17.6731,0 -32.00002,-14.32693 -32.00002,-32.00001 0,-17.67313 14.32692,-32 32.00002,-32 17.6731,0 31.99999,14.32687 31.99999,32 z"
         style="fill:#000000;fill-rule:nonzero;stroke:none"
         id="path12"
         inkscape:connector-curvature="0" />
    </g>
  </mask>
  <g
     id="g5839">
    <path
       transform="matrix(0.81,0,0,0.81,317.76688,99.584324)"
       inkscape:connector-curvature="0"
       id="Piston copy 7"
       inkscape:label="Piston copy 7"
       style="fill:#b6bbbe;fill-rule:nonzero;stroke:none;fill-opacity:1"
       mask="url(#_1)"
       d="m 195.97914,290.02082 c 0,0 -4.99998,266.99996 -4.99998,266.99996 0,0 2.99999,32.00001 -28.99999,77.00002 -32.00002,45.00002 -60.00003,51.99999 -60.00003,51.99999 0,0 -33.999974,0 -33.999974,0 0,0 0,220.00003 0,220.00003 0,0 51.999984,0 51.999984,0 0,0 0,-9.99999 0,-9.99999 0,0 4.00001,-2.00003 17,5.99998 13,8.00002 27,20.99997 51.99999,28 25.00001,6.99997 36.00002,4.00001 36.00002,4.00001 0,0 11.00001,2.99996 35.99999,-4.00001 25.00001,-7.00003 38.99999,-19.99998 52.00002,-28 12.99999,-8.00001 17,-5.99998 17,-5.99998 0,0 0,9.99999 0,9.99999 0,0 51.99998,0 51.99998,0 0,0 0,-220.00003 0,-220.00003 0,0 -34,0 -34,0 0,0 -28.00001,-6.99997 -60,-51.99999 -31.99999,-45.00001 -28.99999,-77.00002 -28.99999,-77.00002 0,0 -5.00001,-266.99996 -5.00001,-266.99996 0,0 -13,-2.00003 -28.99999,-2.00003 -15.99999,0 -29.00002,2.00003 -29.00002,2.00003 z M 59.979156,101.02081 c 0,0 0,-32.000002 0,-32.000002 0,0 45.999994,-14.999986 165.000004,-14.999986 118.99998,0 165,14.999986 165,14.999986 0,0 0,32.000002 0,32.000002 0,0 -46.00002,-14.999983 -165,-14.999983 -119.00001,0 -165.000004,14.999983 -165.000004,14.999983 z m 0,29.99997 c 0,0 0,-14.99998 0,-14.99998 0,0 45.999994,-14.99999 165.000004,-14.99999 118.99998,0 165,14.99999 165,14.99999 0,0 0,14.99998 0,14.99998 0,0 -46.00002,-14.99998 -165,-14.99998 -119.00001,0 -165.000004,14.99998 -165.000004,14.99998 z m 65.000004,149.00005 c -23.00002,3.99995 -41,8.99995 -45.000006,24.99998 -4.000005,15.99997 -5.999994,20.99997 -5.999994,20.99997 0,0 -14.000004,0 -14.000004,0 0,0 0,-179.99995 0,-179.99995 0,0 45.999994,-15.00005 165.000004,-15.00005 118.99998,0 165,15.00005 165,15.00005 0,0 0,179.99995 0,179.99995 0,0 -14,0 -14,0 0,0 -2.00002,-5 -6,-20.99997 -4,-16.00003 -22.00001,-21.00003 -45.00001,-24.99998 -22.99999,-4.00001 -54,-8.00001 -99.99999,-8.00001 -46.00002,0 -77,4 -100,8.00001 z" />
  </g>
</svg>
