<?xml version="1.0" encoding="UTF-8" standalone="no"?>
<svg
   xmlns:dc="http://purl.org/dc/elements/1.1/"
   xmlns:cc="http://creativecommons.org/ns#"
   xmlns:rdf="http://www.w3.org/1999/02/22-rdf-syntax-ns#"
   xmlns:svg="http://www.w3.org/2000/svg"
   xmlns="http://www.w3.org/2000/svg"
   xmlns:sodipodi="http://sodipodi.sourceforge.net/DTD/sodipodi-0.dtd"
   xmlns:inkscape="http://www.inkscape.org/namespaces/inkscape"
   width="100%"
   height="100%"
   viewBox="0 0 100 100"
   preserveAspectRatio="xMidYMid"
   class="lds-rolling"
   version="1.1"
   id="svg4286"
   sodipodi:docname="img_load.svg"
   inkscape:version="0.92.2 (5c3e80d, 2017-08-06)">
  <metadata
     id="metadata4292">
    <rdf:RDF>
      <cc:Work
         rdf:about="">
        <dc:format>image/svg+xml</dc:format>
        <dc:type
           rdf:resource="http://purl.org/dc/dcmitype/StillImage" />
        <dc:title></dc:title>
      </cc:Work>
    </rdf:RDF>
  </metadata>
  <defs
     id="defs4290">
    <mask
       id="_1">
      <g
         id="g883">
        <path
           inkscape:connector-curvature="0"
           d="M 0,0 H 1000 V 1000 H 0 Z"
           style="fill:#ffffff;stroke:none"
           id="path879" />
        <path
           inkscape:connector-curvature="0"
           d="M 500,914.99996 C 270.80184,914.99996 84.999979,729.1981 84.999979,500 84.999979,270.80184 270.80184,84.999979 500,84.999979 729.1981,84.999979 914.99996,270.80184 914.99996,500 914.99996,729.1981 729.1981,914.99996 500,914.99996 Z"
           style="fill:#000000;fill-rule:nonzero;stroke:none"
           id="path881" />
      </g>
    </mask>
    <mask
       id="_2">
      <g
         id="g892">
        <path
           inkscape:connector-curvature="0"
           d="M 0,0 H 1000 V 1000 H 0 Z"
           style="fill:#ffffff;stroke:none"
           id="path888" />
        <path
           inkscape:connector-curvature="0"
           d="m 304.29053,654.06245 c 8.04264,0 15.59514,-6.51985 16.86895,-14.56249 1.27387,-8.04263 -4.21333,-14.56249 -12.25602,-14.56249 0,0 -59.90625,0 -59.90625,0 0,0 -4.61292,29.12498 -4.61292,29.12498 0,0 59.90624,0 59.90624,0 z"
           style="fill:#000000;fill-rule:nonzero;stroke:none"
           id="path890" />
      </g>
    </mask>
    <mask
       id="_3">
      <g
         id="g900">
        <path
           inkscape:connector-curvature="0"
           d="M 0,0 H 1000 V 1000 H 0 Z"
           style="fill:#ffffff;stroke:none"
           id="path896" />
        <path
           inkscape:connector-curvature="0"
           d="m 301.45943,671.93747 c 8.04264,0 13.52984,6.51985 12.25603,14.56248 -1.27387,8.04264 -8.82638,14.56249 -16.86901,14.56249 0,0 -59.90625,0 -59.90625,0 0,0 4.61299,-29.12497 4.61299,-29.12497 0,0 59.90624,0 59.90624,0 z"
           style="fill:#000000;fill-rule:nonzero;stroke:none"
           id="path898" />
      </g>
    </mask>
  </defs>
  <sodipodi:namedview
     pagecolor="#ffffff"
     bordercolor="#666666"
     borderopacity="1"
     objecttolerance="10"
     gridtolerance="10"
     guidetolerance="10"
     inkscape:pageopacity="0"
     inkscape:pageshadow="2"
     inkscape:window-width="1920"
     inkscape:window-height="1027"
     id="namedview4288"
     showgrid="false"
     units="px"
     inkscape:zoom="3.337544"
     inkscape:cx="97.150959"
     inkscape:cy="37.708059"
     inkscape:window-x="-8"
     inkscape:window-y="-8"
     inkscape:window-maximized="1"
     inkscape:current-layer="svg4286" />
  <path
     inkscape:connector-curvature="0"
     d="m 48.195125,32.170052 c 0,-0.996798 0.808073,-1.80487 1.804872,-1.80487 0.996805,0 10.762216,0 11.759015,0 0.996805,0 1.804871,0.808072 1.804871,1.80487 0,0.996806 -0.808066,1.804872 -1.804871,1.804872 -0.996799,0 -9.954137,0 -9.954137,0 0,0 0,32.858219 0,33.855024 0,0.996798 -0.808073,1.804871 -1.804878,1.804871 -0.996799,0 -10.76221,0 -11.759009,0 -0.996804,0 -1.804871,-0.808073 -1.804871,-1.804871 0,-0.996805 0.808067,-1.804872 1.804871,-1.804872 0.996799,0 9.954137,0 9.954137,0 0,0 0,-32.858218 0,-33.855024 z"
     style="fill:#6b6b6b;fill-rule:nonzero;stroke:none;stroke-width:0.10938617"
     inkscape:label="Shape 4 copy 8"
     id="Shape 4 copy 8" />
  <path
     inkscape:connector-curvature="0"
     d="m 66.198155,38.251244 c 0,0 1.926331,-12.162377 1.926331,-12.162377 0,0 2.79277,0 2.79277,0 0,0 -0.808328,5.103549 -0.808328,5.103549 0,0 8.145857,0 8.145857,0 0,0 0.80832,-5.103549 0.80832,-5.103549 0,0 2.803019,0 2.803019,0 0,0 -1.926331,12.162377 -1.926331,12.162377 0,0 -2.803019,0 -2.803019,0 0,0 0.808321,-5.103548 0.808321,-5.103548 0,0 -8.14585,0 -8.14585,0 0,0 -0.80832,5.103548 -0.80832,5.103548 0,0 -2.79277,0 -2.79277,0 z"
     style="fill:#6b6b6b;fill-rule:nonzero;stroke:none;stroke-width:0.10938617"
     inkscape:label="Shape 8"
     id="Shape 8" />
  <g
     id="g915"
     transform="matrix(0.10938617,0,0,0.10938617,-4.6930815,-4.6930815)">
    <path
       inkscape:connector-curvature="0"
       id="Shape 7"
       inkscape:label="Shape 7"
       style="fill:#ff0000;fill-rule:nonzero;stroke:none"
       mask="url(#_2)"
       d="m 309.38131,671.93747 c 17.81976,0 34.55358,-14.44585 37.37598,-32.26561 2.8224,-17.81982 -9.33546,-32.26566 -27.15528,-32.26566 0,0 -93.35935,0 -93.35935,0 0,0 -10.22077,64.53127 -10.22077,64.53127 0,0 93.35942,0 93.35942,0 z" />
    <path
       inkscape:connector-curvature="0"
       id="Shape 7 copy"
       inkscape:label="Shape 7 copy"
       style="fill:#ff0000;fill-rule:nonzero;stroke:none"
       mask="url(#_3)"
       d="m 312.21241,654.06245 c 17.81982,0 29.97762,14.44584 27.15528,32.26566 -2.8224,17.81976 -19.55623,32.26561 -37.37605,32.26561 0,0 -93.35935,0 -93.35935,0 0,0 10.22077,-64.53127 10.22077,-64.53127 0,0 93.35935,0 93.35935,0 z" />
  </g>
  <circle
     cx="50"
     cy="50"
     ng-attr-stroke="{{config.color}}"
     ng-attr-stroke-width="{{config.width}}"
     ng-attr-r="{{config.radius}}"
     ng-attr-stroke-dasharray="{{config.dasharray}}"
     r="47"
     transform="rotate(114 50 50)"
     id="circle4284"
     stroke-dashoffset="850"
     stroke-dasharray="300"
     stroke-width="4"
     stroke="#ff6700"
     fill="none">
    <animateTransform
       attributeName="transform"
       type="rotate"
       calcMode="linear"
       values="0 50 50;360 50 50"
       keyTimes="0;1"
       dur="1s"
       begin="0s"
       repeatCount="indefinite" />
  </circle>
</svg>
