<?xml version="1.0" encoding="UTF-8" standalone="no"?>
<!-- Created with Inkscape (http://www.inkscape.org/) -->

<svg
   xmlns:dc="http://purl.org/dc/elements/1.1/"
   xmlns:cc="http://creativecommons.org/ns#"
   xmlns:rdf="http://www.w3.org/1999/02/22-rdf-syntax-ns#"
   xmlns:svg="http://www.w3.org/2000/svg"
   xmlns="http://www.w3.org/2000/svg"
   xmlns:sodipodi="http://sodipodi.sourceforge.net/DTD/sodipodi-0.dtd"
   xmlns:inkscape="http://www.inkscape.org/namespaces/inkscape"
   width="52mm"
   height="52mm"
   viewBox="0 0 52 52"
   version="1.1"
   id="svg8"
   inkscape:version="0.92.2 (5c3e80d, 2017-08-06)"
   sodipodi:docname="linkedin_c.svg">
  <defs
     id="defs2" />
  <sodipodi:namedview
     id="base"
     pagecolor="#ffffff"
     bordercolor="#666666"
     borderopacity="1.0"
     inkscape:pageopacity="0.0"
     inkscape:pageshadow="2"
     inkscape:zoom="0.98994949"
     inkscape:cx="9.4614305"
     inkscape:cy="157.11662"
     inkscape:document-units="mm"
     inkscape:current-layer="layer1"
     showgrid="false"
     fit-margin-top="0"
     fit-margin-left="0"
     fit-margin-right="0"
     fit-margin-bottom="0"
     inkscape:window-width="1920"
     inkscape:window-height="1027"
     inkscape:window-x="-8"
     inkscape:window-y="-8"
     inkscape:window-maximized="1" />
  <metadata
     id="metadata5">
    <rdf:RDF>
      <cc:Work
         rdf:about="">
        <dc:format>image/svg+xml</dc:format>
        <dc:type
           rdf:resource="http://purl.org/dc/dcmitype/StillImage" />
        <dc:title></dc:title>
      </cc:Work>
    </rdf:RDF>
  </metadata>
  <g
     inkscape:label="Layer 1"
     inkscape:groupmode="layer"
     id="layer1"
     transform="translate(-79.22079,-122.23333)">
    <g
       id="g10"
       transform="matrix(0.35277777,0,0,-0.35277777,79.820438,173.63333)"
       style="fill:#0077b5;fill-opacity:1">
      <g
         id="g12"
         transform="scale(0.1)"
         style="fill:#0077b5;fill-opacity:1">
        <path
           d="m 1227.06,212.93 h -213.44 v 334.187 c 0,79.731 -1.46,182.235 -110.983,182.235 -111.145,0 -128.164,-86.825 -128.164,-176.461 V 212.93 H 561.047 V 900.137 H 765.93 v -93.891 h 2.84 c 28.496,54.027 98.171,110.996 202.082,110.996 216.278,0 256.208,-142.336 256.208,-327.359 z M 320.344,994.082 c -68.457,0 -123.867,55.508 -123.867,123.868 0,68.3 55.41,123.8 123.867,123.8 68.277,0 123.765,-55.5 123.765,-123.8 0,-68.36 -55.488,-123.868 -123.765,-123.868 z M 427.09,212.93 H 213.496 V 900.137 H 427.09 Z M 1333.43,1440 H 106.289 C 47.6484,1440 0,1393.52 0,1336.21 V 103.91 C 0,46.5508 47.6484,0 106.289,0 H 1333.43 c 58.74,0 106.59,46.5508 106.59,103.91 v 1232.3 c 0,57.31 -47.85,103.79 -106.59,103.79"
           style="fill:#0077b5;fill-opacity:1;fill-rule:nonzero;stroke:none"
           id="path14"
           inkscape:connector-curvature="0" />
      </g>
    </g>
  </g>
</svg>
