<?xml version="1.0" encoding="UTF-8" standalone="no"?>
<svg
   xmlns:dc="http://purl.org/dc/elements/1.1/"
   xmlns:cc="http://creativecommons.org/ns#"
   xmlns:rdf="http://www.w3.org/1999/02/22-rdf-syntax-ns#"
   xmlns:svg="http://www.w3.org/2000/svg"
   xmlns="http://www.w3.org/2000/svg"
   xmlns:sodipodi="http://sodipodi.sourceforge.net/DTD/sodipodi-0.dtd"
   xmlns:inkscape="http://www.inkscape.org/namespaces/inkscape"
   width="1000"
   height="1000"
   version="1.1"
   id="svg905"
   sodipodi:docname="logo_w_no_ring.svg"
   inkscape:version="0.92.2 (5c3e80d, 2017-08-06)">
  <metadata
     id="metadata911">
    <rdf:RDF>
      <cc:Work
         rdf:about="">
        <dc:format>image/svg+xml</dc:format>
        <dc:type
           rdf:resource="http://purl.org/dc/dcmitype/StillImage" />
        <dc:title></dc:title>
      </cc:Work>
    </rdf:RDF>
  </metadata>
  <defs
     id="defs909" />
  <sodipodi:namedview
     pagecolor="#ffffff"
     bordercolor="#666666"
     borderopacity="1"
     objecttolerance="10"
     gridtolerance="10"
     guidetolerance="10"
     inkscape:pageopacity="0"
     inkscape:pageshadow="2"
     inkscape:window-width="1920"
     inkscape:window-height="1027"
     id="namedview907"
     showgrid="false"
     inkscape:zoom="0.858"
     inkscape:cx="310.60606"
     inkscape:cy="500"
     inkscape:window-x="-8"
     inkscape:window-y="-8"
     inkscape:window-maximized="1"
     inkscape:current-layer="Group 1 copy 2" />
  <g
     inkscape:groupmode="layer"
     inkscape:label="Group 1 copy 2"
     id="Group 1 copy 2">
    <mask
       id="_1">
      <g
         id="g883">
        <path
           d="M 0,0 1000,0 1000,1000 0,1000 0,0 Z"
           style="stroke:none; fill:white"
           id="path879" />
        <path
           d="M 500.000000,914.999962 C 270.801842,914.999962 84.999979,729.198098 84.999979,500.000000 C 84.999979,270.801842 270.801842,84.999979 500.000000,84.999979 C 729.198098,84.999979 914.999962,270.801842 914.999962,500.000000 C 914.999962,729.198098 729.198098,914.999962 500.000000,914.999962 Z"
           style="stroke:none; fill:black"
           fill-rule="nonzero"
           id="path881" />
      </g>
    </mask>
    <mask
       id="_2">
      <g
         id="g892">
        <path
           d="M 0,0 1000,0 1000,1000 0,1000 0,0 Z"
           style="stroke:none; fill:white"
           id="path888" />
        <path
           d="M 304.290533,654.062450 C 312.333167,654.062450 319.885671,647.542596 321.159482,639.499962 C 322.433352,631.457329 316.946149,624.937475 308.903456,624.937475 C 308.903456,624.937475 248.997211,624.937475 248.997211,624.937475 C 248.997211,624.937475 244.384289,654.062450 244.384289,654.062450 C 244.384289,654.062450 304.290533,654.062450 304.290533,654.062450 Z"
           style="stroke:none; fill:black"
           fill-rule="nonzero"
           id="path890" />
      </g>
    </mask>
    <mask
       id="_3">
      <g
         id="g900">
        <path
           d="M 0,0 1000,0 1000,1000 0,1000 0,0 Z"
           style="stroke:none; fill:white"
           id="path896" />
        <path
           d="M 301.459432,671.937466 C 309.502065,671.937466 314.989269,678.457320 313.715458,686.499953 C 312.441587,694.542587 304.889083,701.062441 296.846449,701.062441 C 296.846449,701.062441 236.940205,701.062441 236.940205,701.062441 C 236.940205,701.062441 241.553187,671.937466 241.553187,671.937466 C 241.553187,671.937466 301.459432,671.937466 301.459432,671.937466 Z"
           style="stroke:none; fill:black"
           fill-rule="nonzero"
           id="path898" />
      </g>
    </mask>
    <g
       id="g5489">
      <path
         id="Shape 4 copy 8"
         inkscape:label="Shape 4 copy 8"
         style="fill:#ffffff;fill-rule:nonzero;stroke:none;stroke-width:1.61732411;fill-opacity:1"
         d="m 473.3295,236.37609 c 0,-14.73811 11.94772,-26.68583 26.68584,-26.68583 14.73822,0 159.12425,0 173.86238,0 14.7382,0 26.68583,11.94772 26.68583,26.68583 0,14.73822 -11.94763,26.68585 -26.68583,26.68585 -14.73813,0 -147.17643,0 -147.17643,0 0,0 0,485.82365 0,500.56187 0,14.73811 -11.94773,26.68583 -26.68595,26.68583 -14.73812,0 -159.12415,0 -173.86227,0 -14.73821,0 -26.68583,-11.94772 -26.68583,-26.68583 0,-14.73822 11.94762,-26.68585 26.68583,-26.68585 14.73812,0 147.17643,0 147.17643,0 0,0 0,-485.82365 0,-500.56187 z"
         inkscape:connector-curvature="0" />
      <path
         id="Shape 8"
         inkscape:label="Shape 8"
         style="fill:#ffffff;fill-rule:nonzero;stroke:none;stroke-width:1.61732411;fill-opacity:1"
         d="m 739.51245,326.28927 c 0,0 28.48167,-179.82626 28.48167,-179.82626 0,0 41.29237,0 41.29237,0 0,0 -11.95149,75.45828 -11.95149,75.45828 0,0 120.44019,0 120.44019,0 0,0 11.95138,-75.45828 11.95138,-75.45828 0,0 41.44391,0 41.44391,0 0,0 -28.48168,179.82626 -28.48168,179.82626 0,0 -41.44391,0 -41.44391,0 0,0 11.95139,-75.45828 11.95139,-75.45828 0,0 -120.44008,0 -120.44008,0 0,0 -11.95138,75.45828 -11.95138,75.45828 0,0 -41.29237,0 -41.29237,0 z"
         inkscape:connector-curvature="0" />
      <path
         transform="matrix(1.6173241,0,0,1.6173241,-308.64661,-308.66205)"
         inkscape:connector-curvature="0"
         id="Shape 7"
         inkscape:label="Shape 7"
         style="fill:#ffffff;fill-rule:nonzero;stroke:none;fill-opacity:1"
         mask="url(#_2)"
         d="m 309.38131,671.93747 c 17.81976,0 34.55358,-14.44585 37.37598,-32.26561 2.8224,-17.81982 -9.33546,-32.26566 -27.15528,-32.26566 0,0 -93.35935,0 -93.35935,0 0,0 -10.22077,64.53127 -10.22077,64.53127 0,0 93.35942,0 93.35942,0 z" />
      <path
         transform="matrix(1.6173241,0,0,1.6173241,-308.64661,-308.66205)"
         inkscape:connector-curvature="0"
         id="Shape 7 copy"
         inkscape:label="Shape 7 copy"
         style="fill:#ffffff;fill-rule:nonzero;stroke:none;fill-opacity:1"
         mask="url(#_3)"
         d="m 312.21241,654.06245 c 17.81982,0 29.97762,14.44584 27.15528,32.26566 -2.8224,17.81976 -19.55623,32.26561 -37.37605,32.26561 0,0 -93.35935,0 -93.35935,0 0,0 10.22077,-64.53127 10.22077,-64.53127 0,0 93.35935,0 93.35935,0 z" />
    </g>
  </g>
</svg>
