<?xml version="1.0" encoding="UTF-8" standalone="no"?>
<svg
   xmlns:dc="http://purl.org/dc/elements/1.1/"
   xmlns:cc="http://creativecommons.org/ns#"
   xmlns:rdf="http://www.w3.org/1999/02/22-rdf-syntax-ns#"
   xmlns:svg="http://www.w3.org/2000/svg"
   xmlns="http://www.w3.org/2000/svg"
   xmlns:sodipodi="http://sodipodi.sourceforge.net/DTD/sodipodi-0.dtd"
   xmlns:inkscape="http://www.inkscape.org/namespaces/inkscape"
   width="1600"
   height="1600"
   version="1.1"
   id="svg28"
   sodipodi:docname="logo_g.svg"
   inkscape:version="0.92.2 (5c3e80d, 2017-08-06)">
  <metadata
     id="metadata34">
    <rdf:RDF>
      <cc:Work
         rdf:about="">
        <dc:format>image/svg+xml</dc:format>
        <dc:type
           rdf:resource="http://purl.org/dc/dcmitype/StillImage" />
        <dc:title></dc:title>
      </cc:Work>
    </rdf:RDF>
  </metadata>
  <defs
     id="defs32" />
  <sodipodi:namedview
     pagecolor="#ffffff"
     bordercolor="#666666"
     borderopacity="1"
     objecttolerance="10"
     gridtolerance="10"
     guidetolerance="10"
     inkscape:pageopacity="0"
     inkscape:pageshadow="2"
     inkscape:window-width="1920"
     inkscape:window-height="1027"
     id="namedview30"
     showgrid="false"
     inkscape:zoom="0.351875"
     inkscape:cx="689.16519"
     inkscape:cy="800"
     inkscape:window-x="-8"
     inkscape:window-y="-8"
     inkscape:window-maximized="1"
     inkscape:current-layer="svg28" />
  <mask
     id="_1">
    <g
       id="g14">
      <path
         d="M 0,0 1600,0 1600,1600 0,1600 0,0 Z"
         style="stroke:none; fill:white"
         id="path10" />
      <path
         d="M 358.499908,1037.999916 C 358.499908,1037.999916 380.749893,1037.999916 391.249752,1037.999916 C 401.749802,1037.999916 421.749878,1036.249828 430.249977,1028.749847 C 438.749790,1021.249962 444.999886,1009.999847 443.499947,992.499924 C 441.999817,974.999905 434.499931,963.749886 420.249939,959.499836 C 405.999947,955.249882 391.999912,955.999947 388.249779,955.999947 C 384.499836,955.999947 358.499908,955.999947 358.499908,955.999947 C 358.499908,955.999947 358.499908,1037.999916 358.499908,1037.999916 Z M 358.499908,1143.249989 C 358.499908,1143.249989 390.249825,1143.499851 400.249863,1143.499851 C 410.249901,1143.499851 425.999832,1141.749954 435.999870,1135.749912 C 445.999908,1129.749966 453.499794,1118.999863 453.499794,1105.999851 C 453.499794,1092.999840 451.499844,1078.999901 440.499783,1071.249962 C 429.499817,1063.499928 414.499760,1061.249828 405.499935,1061.249828 C 396.499920,1061.249828 358.499908,1061.249828 358.499908,1061.249828 C 358.499908,1061.249828 358.499908,1143.249989 358.499908,1143.249989 Z"
         style="stroke:none; fill:black"
         fill-rule="nonzero"
         id="path12" />
    </g>
  </mask>
  <path
     d="M 331.813145,935.062504 C 331.813145,935.062504 374.749851,935.062504 391.749763,935.062504 C 408.749866,935.062504 437.249851,932.999802 453.999805,952.249813 C 470.749950,971.499825 470.173836,999.647808 467.749786,1014.999962 C 464.749813,1033.999920 446.499920,1046.499920 446.499920,1046.499920 C 446.499920,1046.499920 458.249950,1050.499916 466.499805,1061.249828 C 474.749851,1071.999931 479.888153,1083.749962 479.888153,1101.999855 C 479.888153,1120.249844 476.249790,1130.499840 466.749763,1142.749977 C 457.249928,1154.999924 448.749828,1157.749844 439.249802,1160.999966 C 429.749775,1164.249897 411.749840,1165.937424 397.999859,1165.937424 C 384.249878,1165.937424 331.813145,1165.937424 331.813145,1165.937424 C 331.813145,1165.937424 331.813145,935.062504 331.813145,935.062504 Z"
     fill-rule="nonzero"
     mask="url(#_1)"
     style="stroke:none;fill:#6a747c;fill-opacity:1"
     inkscape:label="B"
     id="B" />
  <path
     d="M 1121.500492,433.781147 C 1121.500492,433.781147 1148.187447,433.781147 1148.187447,433.781147 C 1148.187447,433.781147 1148.187447,664.718723 1148.187447,664.718723 C 1148.187447,664.718723 1121.500492,664.718723 1121.500492,664.718723 C 1121.500492,664.718723 1121.500492,433.781147 1121.500492,433.781147 Z M 1242.500591,433.781147 C 1242.500591,433.781147 1269.187355,433.781147 1269.187355,433.781147 C 1269.187355,433.781147 1269.187355,664.718723 1269.187355,664.718723 C 1269.187355,664.718723 1242.500591,664.718723 1242.500591,664.718723 C 1242.500591,664.718723 1242.500591,433.781147 1242.500591,433.781147 Z M 1137.020683,536.781120 C 1137.020683,536.781120 1249.020767,536.781120 1249.020767,536.781120 C 1249.020767,536.781120 1249.020767,560.031128 1249.020767,560.031128 C 1249.020767,560.031128 1137.020683,560.031128 1137.020683,560.031128 C 1137.020683,560.031128 1137.020683,536.781120 1137.020683,536.781120 Z"
     fill-rule="nonzero"
     style="stroke:none;fill:#6a747c;fill-opacity:1"
     inkscape:label="H"
     id="H" />
  <path
     d="M 727.999878,977.499962 C 727.999878,977.499962 539.499855,977.499962 539.499855,977.499962 C 539.499855,977.499962 539.499855,1122.999954 539.499855,1122.999954 C 539.499855,1122.999954 819.999886,1122.999954 819.999886,1122.999954 C 819.999886,1122.999954 873.499775,1122.999954 873.499775,1122.999954 C 873.499775,1122.999954 873.499775,621.999836 873.499775,621.999836 C 873.499775,621.999836 1061.499882,621.999836 1061.499882,621.999836 C 1061.499882,621.999836 1061.499882,476.499844 1061.499882,476.499844 C 1061.499882,476.499844 727.999878,476.499844 727.999878,476.499844 C 727.999878,476.499844 727.999878,977.499962 727.999878,977.499962 Z"
     fill-rule="nonzero"
     style="stroke:none;fill:#6a747c;fill-opacity:1"
     inkscape:label="Tranny Gate"
     id="Tranny Gate" />
  <mask
     id="_2">
    <g
       id="g24">
      <path
         d="M 0,0 1600,0 1600,1600 0,1600 0,0 Z"
         style="stroke:none; fill:white"
         id="path20" />
      <path
         d="M 800.499916,84.999943 C 1195.245266,84.999943 1515.249920,405.004501 1515.249920,799.749851 C 1515.249920,1194.495296 1195.245266,1514.499855 800.499916,1514.499855 C 405.754375,1514.499855 85.749722,1194.495296 85.749722,799.749851 C 85.749722,405.004501 405.754375,84.999943 800.499916,84.999943 Z"
         style="stroke:none; fill:black"
         fill-rule="nonzero"
         id="path22" />
    </g>
  </mask>
  <path
     d="M 800.499916,44.999886 C 1217.336559,44.999886 1555.249882,382.913113 1555.249882,799.749851 C 1555.249882,1216.586685 1217.336559,1554.499912 800.499916,1554.499912 C 383.663082,1554.499912 45.749760,1216.586685 45.749760,799.749851 C 45.749760,382.913113 383.663082,44.999886 800.499916,44.999886 Z"
     fill-rule="nonzero"
     mask="url(#_2)"
     style="stroke:none;fill:#6a747c;fill-opacity:1"
     inkscape:label="Ring"
     id="Ring" />
</svg>
