<?xml version="1.0" encoding="UTF-8" standalone="no"?>
<svg
   xmlns:dc="http://purl.org/dc/elements/1.1/"
   xmlns:cc="http://creativecommons.org/ns#"
   xmlns:rdf="http://www.w3.org/1999/02/22-rdf-syntax-ns#"
   xmlns:svg="http://www.w3.org/2000/svg"
   xmlns="http://www.w3.org/2000/svg"
   xmlns:sodipodi="http://sodipodi.sourceforge.net/DTD/sodipodi-0.dtd"
   xmlns:inkscape="http://www.inkscape.org/namespaces/inkscape"
   width="1000"
   height="1000"
   version="1.1"
   id="svg905"
   sodipodi:docname="logo_g.svg"
   inkscape:version="0.92.2 (5c3e80d, 2017-08-06)">
  <metadata
     id="metadata911">
    <rdf:RDF>
      <cc:Work
         rdf:about="">
        <dc:format>image/svg+xml</dc:format>
        <dc:type
           rdf:resource="http://purl.org/dc/dcmitype/StillImage" />
        <dc:title></dc:title>
      </cc:Work>
    </rdf:RDF>
  </metadata>
  <defs
     id="defs909" />
  <sodipodi:namedview
     pagecolor="#ffffff"
     bordercolor="#666666"
     borderopacity="1"
     objecttolerance="10"
     gridtolerance="10"
     guidetolerance="10"
     inkscape:pageopacity="0"
     inkscape:pageshadow="2"
     inkscape:window-width="1920"
     inkscape:window-height="1027"
     id="namedview907"
     showgrid="false"
     inkscape:zoom="0.858"
     inkscape:cx="500"
     inkscape:cy="500"
     inkscape:window-x="-8"
     inkscape:window-y="-8"
     inkscape:window-maximized="1"
     inkscape:current-layer="Group 1 copy 2" />
  <g
     inkscape:groupmode="layer"
     inkscape:label="Group 1 copy 2"
     id="Group 1 copy 2">
    <path
       d="M 500.000000,947.999954 C 252.576470,947.999954 51.999986,747.423470 51.999986,500.000000 C 51.999986,252.576470 252.576470,51.999986 500.000000,51.999986 C 747.423470,51.999986 947.999954,252.576470 947.999954,500.000000 C 947.999954,747.423470 747.423470,947.999954 500.000000,947.999954 Z"
       mask="url(#_1)"
       style="stroke:none;fill:#6a747c;fill-opacity:1"
       inkscape:label="Shape 1 copy 3"
       id="Shape 1 copy 3"
       fill-rule="nonzero" />
    <path
       d="M 483.499944,336.999953 C 483.499944,327.887297 490.887284,320.499957 499.999940,320.499957 C 509.112656,320.499957 598.387301,320.499957 607.499957,320.499957 C 616.612673,320.499957 623.999953,327.887297 623.999953,336.999953 C 623.999953,346.112669 616.612673,353.499949 607.499957,353.499949 C 598.387301,353.499949 516.499996,353.499949 516.499996,353.499949 C 516.499996,353.499949 516.499996,653.887272 516.499996,662.999988 C 516.499996,672.112644 509.112656,679.499984 499.999940,679.499984 C 490.887284,679.499984 401.612639,679.499984 392.499983,679.499984 C 383.387268,679.499984 375.999987,672.112644 375.999987,662.999988 C 375.999987,653.887272 383.387268,646.499991 392.499983,646.499991 C 401.612639,646.499991 483.499944,646.499991 483.499944,646.499991 C 483.499944,646.499991 483.499944,346.112669 483.499944,336.999953 Z"
       fill-rule="nonzero"
       style="stroke:none;fill:#6a747c;fill-opacity:1"
       inkscape:label="Shape 4 copy 8"
       id="Shape 4 copy 8" />
    <mask
       id="_1">
      <g
         id="g883">
        <path
           d="M 0,0 1000,0 1000,1000 0,1000 0,0 Z"
           style="stroke:none; fill:white"
           id="path879" />
        <path
           d="M 500.000000,914.999962 C 270.801842,914.999962 84.999979,729.198098 84.999979,500.000000 C 84.999979,270.801842 270.801842,84.999979 500.000000,84.999979 C 729.198098,84.999979 914.999962,270.801842 914.999962,500.000000 C 914.999962,729.198098 729.198098,914.999962 500.000000,914.999962 Z"
           style="stroke:none; fill:black"
           fill-rule="nonzero"
           id="path881" />
      </g>
    </mask>
    <path
       d="M 648.082256,392.593741 C 648.082256,392.593741 665.692627,281.406224 665.692627,281.406224 C 665.692627,281.406224 691.223919,281.406224 691.223919,281.406224 C 691.223919,281.406224 683.834255,328.062475 683.834255,328.062475 C 683.834255,328.062475 758.303046,328.062475 758.303046,328.062475 C 758.303046,328.062475 765.692651,281.406224 765.692651,281.406224 C 765.692651,281.406224 791.317642,281.406224 791.317642,281.406224 C 791.317642,281.406224 773.707271,392.593741 773.707271,392.593741 C 773.707271,392.593741 748.082280,392.593741 748.082280,392.593741 C 748.082280,392.593741 755.471885,345.937490 755.471885,345.937490 C 755.471885,345.937490 681.003153,345.937490 681.003153,345.937490 C 681.003153,345.937490 673.613548,392.593741 673.613548,392.593741 C 673.613548,392.593741 648.082256,392.593741 648.082256,392.593741 Z"
       fill-rule="nonzero"
       style="stroke:none;fill:#6a747c;fill-opacity:1"
       inkscape:label="Shape 8"
       id="Shape 8" />
    <mask
       id="_2">
      <g
         id="g892">
        <path
           d="M 0,0 1000,0 1000,1000 0,1000 0,0 Z"
           style="stroke:none; fill:white"
           id="path888" />
        <path
           d="M 304.290533,654.062450 C 312.333167,654.062450 319.885671,647.542596 321.159482,639.499962 C 322.433352,631.457329 316.946149,624.937475 308.903456,624.937475 C 308.903456,624.937475 248.997211,624.937475 248.997211,624.937475 C 248.997211,624.937475 244.384289,654.062450 244.384289,654.062450 C 244.384289,654.062450 304.290533,654.062450 304.290533,654.062450 Z"
           style="stroke:none; fill:black"
           fill-rule="nonzero"
           id="path890" />
      </g>
    </mask>
    <mask
       id="_3">
      <g
         id="g900">
        <path
           d="M 0,0 1000,0 1000,1000 0,1000 0,0 Z"
           style="stroke:none; fill:white"
           id="path896" />
        <path
           d="M 301.459432,671.937466 C 309.502065,671.937466 314.989269,678.457320 313.715458,686.499953 C 312.441587,694.542587 304.889083,701.062441 296.846449,701.062441 C 296.846449,701.062441 236.940205,701.062441 236.940205,701.062441 C 236.940205,701.062441 241.553187,671.937466 241.553187,671.937466 C 241.553187,671.937466 301.459432,671.937466 301.459432,671.937466 Z"
           style="stroke:none; fill:black"
           fill-rule="nonzero"
           id="path898" />
      </g>
    </mask>
    <g
       id="g921">
      <path
         id="Shape 7"
         inkscape:label="Shape 7"
         style="fill:#6a747c;fill-rule:nonzero;stroke:none;fill-opacity:1"
         mask="url(#_2)"
         d="m 309.38131,671.93747 c 17.81976,0 34.55358,-14.44585 37.37598,-32.26561 2.8224,-17.81982 -9.33546,-32.26566 -27.15528,-32.26566 0,0 -93.35935,0 -93.35935,0 0,0 -10.22077,64.53127 -10.22077,64.53127 0,0 93.35942,0 93.35942,0 z"
         inkscape:connector-curvature="0" />
      <path
         id="Shape 7 copy"
         inkscape:label="Shape 7 copy"
         style="fill:#6a747c;fill-rule:nonzero;stroke:none;fill-opacity:1"
         mask="url(#_3)"
         d="m 312.21241,654.06245 c 17.81982,0 29.97762,14.44584 27.15528,32.26566 -2.8224,17.81976 -19.55623,32.26561 -37.37605,32.26561 0,0 -93.35935,0 -93.35935,0 0,0 10.22077,-64.53127 10.22077,-64.53127 0,0 93.35935,0 93.35935,0 z"
         inkscape:connector-curvature="0" />
    </g>
  </g>
</svg>
