<?xml version="1.0" encoding="UTF-8" standalone="no"?>
<svg
   xmlns:dc="http://purl.org/dc/elements/1.1/"
   xmlns:cc="http://creativecommons.org/ns#"
   xmlns:rdf="http://www.w3.org/1999/02/22-rdf-syntax-ns#"
   xmlns:svg="http://www.w3.org/2000/svg"
   xmlns="http://www.w3.org/2000/svg"
   xmlns:sodipodi="http://sodipodi.sourceforge.net/DTD/sodipodi-0.dtd"
   xmlns:inkscape="http://www.inkscape.org/namespaces/inkscape"
   width="1600"
   height="1600"
   version="1.1"
   id="svg3750"
   sodipodi:docname="logo_w_no_ring.svg"
   inkscape:version="0.92.1 r15371">
  <metadata
     id="metadata3756">
    <rdf:RDF>
      <cc:Work
         rdf:about="">
        <dc:format>image/svg+xml</dc:format>
        <dc:type
           rdf:resource="http://purl.org/dc/dcmitype/StillImage" />
        <dc:title></dc:title>
      </cc:Work>
    </rdf:RDF>
  </metadata>
  <defs
     id="defs3754" />
  <sodipodi:namedview
     pagecolor="#ffffff"
     bordercolor="#666666"
     borderopacity="1"
     objecttolerance="10"
     gridtolerance="10"
     guidetolerance="10"
     inkscape:pageopacity="0"
     inkscape:pageshadow="2"
     inkscape:window-width="640"
     inkscape:window-height="480"
     id="namedview3752"
     showgrid="false"
     inkscape:zoom="0.361875"
     inkscape:cx="800"
     inkscape:cy="800"
     inkscape:window-x="0"
     inkscape:window-y="0"
     inkscape:window-maximized="1"
     inkscape:current-layer="svg3750" />
  <mask
     id="_1">
    <g
       id="g3744">
      <path
         d="M 0,0 1600,0 1600,1600 0,1600 0,0 Z"
         style="stroke:none; fill:white"
         id="path3740" />
      <path
         d="M 173.659420,1137.588215 C 173.659420,1137.588215 205.214214,1137.588215 220.104980,1137.588215 C 234.996033,1137.588215 263.360023,1135.106277 275.414658,1124.469852 C 287.469101,1113.833523 296.332932,1097.878838 294.205761,1073.060513 C 292.078209,1048.242092 281.441879,1032.287407 261.232758,1026.260090 C 241.023540,1020.232868 221.168900,1021.296597 215.850449,1021.296597 C 210.532379,1021.296597 173.659420,1021.296597 173.659420,1021.296597 C 173.659420,1021.296597 173.659420,1137.588215 173.659420,1137.588215 Z M 173.659420,1286.852837 C 173.659420,1286.852837 218.686867,1287.207317 232.868767,1287.207317 C 247.050762,1287.207317 269.387245,1284.725571 283.569145,1276.216316 C 297.751141,1267.707253 308.387375,1252.461624 308.387375,1234.025097 C 308.387375,1215.588665 305.551052,1195.733929 289.950943,1184.743118 C 274.350834,1173.752117 253.077984,1170.561028 240.314484,1170.561028 C 227.550697,1170.561028 173.659420,1170.561028 173.659420,1170.561028 C 173.659420,1170.561028 173.659420,1286.852837 173.659420,1286.852837 Z"
         style="stroke:none; fill:black"
         fill-rule="nonzero"
         id="path3742" />
    </g>
  </mask>
  <path
     d="M 135.812473,991.603184 C 135.812473,991.603184 196.704960,991.603184 220.814037,991.603184 C 244.923496,991.603184 285.341930,988.677979 309.096527,1015.978241 C 332.851410,1043.278408 332.034397,1083.197594 328.596592,1104.969788 C 324.342060,1131.915379 298.460197,1149.642754 298.460197,1149.642754 C 298.460197,1149.642754 315.124035,1155.315590 326.823902,1170.561028 C 338.524055,1185.806656 345.811081,1202.470493 345.811081,1228.352356 C 345.811081,1254.234314 340.651321,1268.770790 327.178478,1286.143780 C 313.705826,1303.516483 301.651096,1307.416439 288.178253,1312.025738 C 274.705315,1316.634846 249.178028,1319.027996 229.677868,1319.027996 C 210.177803,1319.027996 135.812473,1319.027996 135.812473,1319.027996 C 135.812473,1319.027996 135.812473,991.603184 135.812473,991.603184 Z"
     fill-rule="nonzero"
     mask="url(#_1)"
     style="stroke: none; fill: rgb(255, 255, 255)"
     inkscape:label="B"
     id="B" />
  <path
     d="M 1255.740070,280.690575 C 1255.740070,280.690575 1293.587208,280.690575 1293.587208,280.690575 C 1293.587208,280.690575 1293.587208,608.204079 1293.587208,608.204079 C 1293.587208,608.204079 1255.740070,608.204079 1255.740070,608.204079 C 1255.740070,608.204079 1255.740070,280.690575 1255.740070,280.690575 Z M 1427.341366,280.690575 C 1427.341366,280.690575 1465.188217,280.690575 1465.188217,280.690575 C 1465.188217,280.690575 1465.188217,608.204079 1465.188217,608.204079 C 1465.188217,608.204079 1427.341366,608.204079 1427.341366,608.204079 C 1427.341366,608.204079 1427.341366,280.690575 1427.341366,280.690575 Z M 1277.750683,426.764107 C 1277.750683,426.764107 1436.588097,426.764107 1436.588097,426.764107 C 1436.588097,426.764107 1436.588097,459.737110 1436.588097,459.737110 C 1436.588097,459.737110 1277.750683,459.737110 1277.750683,459.737110 C 1277.750683,459.737110 1277.750683,426.764107 1277.750683,426.764107 Z"
     fill-rule="nonzero"
     style="stroke: none; fill: rgb(255, 255, 255)"
     inkscape:label="H"
     id="H" />
  <path
     d="M 697.681046,1051.787663 C 697.681046,1051.787663 430.351925,1051.787663 430.351925,1051.787663 C 430.351925,1051.787663 430.351925,1258.134460 430.351925,1258.134460 C 430.351925,1258.134460 828.154564,1258.134460 828.154564,1258.134460 C 828.154564,1258.134460 904.027653,1258.134460 904.027653,1258.134460 C 904.027653,1258.134460 904.027653,547.620678 904.027653,547.620678 C 904.027653,547.620678 1170.647717,547.620678 1170.647717,547.620678 C 1170.647717,547.620678 1170.647717,341.273785 1170.647717,341.273785 C 1170.647717,341.273785 697.681046,341.273785 697.681046,341.273785 C 697.681046,341.273785 697.681046,1051.787663 697.681046,1051.787663 Z"
     fill-rule="nonzero"
     style="stroke: none; fill: rgb(255, 255, 255)"
     inkscape:label="Tranny Gate"
     id="Tranny Gate" />
</svg>
