<?xml version="1.0" encoding="UTF-8" standalone="no"?>
<!-- Created with Inkscape (http://www.inkscape.org/) -->

<svg
   xmlns:dc="http://purl.org/dc/elements/1.1/"
   xmlns:cc="http://creativecommons.org/ns#"
   xmlns:rdf="http://www.w3.org/1999/02/22-rdf-syntax-ns#"
   xmlns:svg="http://www.w3.org/2000/svg"
   xmlns="http://www.w3.org/2000/svg"
   xmlns:sodipodi="http://sodipodi.sourceforge.net/DTD/sodipodi-0.dtd"
   xmlns:inkscape="http://www.inkscape.org/namespaces/inkscape"
   width="450mm"
   height="450mm"
   viewBox="0 0 450 450"
   version="1.1"
   id="svg8"
   inkscape:version="0.92.1 r15371"
   sodipodi:docname="msa.svg">
  <defs
     id="defs2" />
  <sodipodi:namedview
     id="base"
     pagecolor="#ffffff"
     bordercolor="#666666"
     borderopacity="1.0"
     inkscape:pageopacity="0.0"
     inkscape:pageshadow="2"
     inkscape:zoom="0.12374369"
     inkscape:cx="-731.93208"
     inkscape:cy="979.15167"
     inkscape:document-units="mm"
     inkscape:current-layer="layer1"
     showgrid="false"
     showguides="true"
     inkscape:guide-bbox="true"
     inkscape:window-width="1115"
     inkscape:window-height="730"
     inkscape:window-x="173"
     inkscape:window-y="0"
     inkscape:window-maximized="0" />
  <metadata
     id="metadata5">
    <rdf:RDF>
      <cc:Work
         rdf:about="">
        <dc:format>image/svg+xml</dc:format>
        <dc:type
           rdf:resource="http://purl.org/dc/dcmitype/StillImage" />
        <dc:title />
      </cc:Work>
    </rdf:RDF>
  </metadata>
  <g
     inkscape:label="Layer 1"
     inkscape:groupmode="layer"
     id="layer1"
     transform="translate(0,153)">
    <path
       style="fill:#ffffff;fill-opacity:1;stroke:none;stroke-width:1.07893038;stroke-linecap:round;stroke-linejoin:miter;stroke-miterlimit:4;stroke-dasharray:none;stroke-dashoffset:0;stroke-opacity:1"
       clip-path="none"
       d="m 356.52694,90.873523 c 0.52351,-2.480432 0.58458,-2.708888 1.14231,-5.364519 2.26897,-10.803796 4.56597,-21.84296 4.81615,-23.236999 0.18267,-1.017736 0.33087,-2.004771 0.4433,-2.94512 0.1124,-0.94035 0.18919,-1.834018 0.22978,-2.664257 0.0406,-0.830237 0.045,-1.597204 0.0122,-2.284605 -0.0328,-0.687401 -0.10268,-1.295165 -0.21054,-1.807005 -0.10193,-0.483586 -0.23413,-0.959176 -0.39472,-1.425262 -0.16061,-0.466089 -0.34985,-0.922708 -0.56634,-1.367917 -0.21653,-0.445208 -0.46033,-0.879161 -0.73001,-1.300107 -0.26968,-0.420946 -0.56519,-0.82895 -0.88529,-1.222249 -0.32009,-0.393303 -0.66446,-0.771661 -1.03222,-1.133933 -0.36775,-0.362271 -0.75894,-0.70854 -1.17159,-1.036402 -0.41269,-0.327859 -0.84697,-0.637505 -1.3018,-0.92757 -0.45482,-0.290066 -0.93018,-0.560225 -1.42442,-0.809113 -0.71305,-0.359094 -1.54116,-0.703545 -2.45957,-1.026776 -0.91841,-0.32323 -1.92707,-0.62516 -3.00164,-0.899945 -1.07457,-0.274783 -2.21485,-0.522528 -3.39633,-0.736281 -1.18152,-0.213751 -2.40413,-0.393553 -3.64332,-0.533688 -0.7469,-0.08447 -1.91706,-0.155812 -3.30594,-0.211382 -1.38888,-0.05557 -2.99653,-0.09548 -4.61861,-0.116784 -1.62207,-0.0213 -3.25873,-0.02418 -4.70525,-0.0058 -1.44653,0.01832 -2.70283,0.05764 -3.56503,0.120969 -1.51371,0.111177 -2.9592,0.256472 -4.34108,0.437416 -1.3819,0.180942 -2.70043,0.397861 -3.96059,0.652565 -1.26018,0.254703 -2.46168,0.546972 -3.61027,0.879433 -1.14856,0.332462 -2.24421,0.705064 -3.29128,1.119281 -1.04707,0.414217 -2.04555,0.870042 -3.00121,1.37001 -0.95566,0.499965 -1.86816,1.044 -2.74254,1.633712 -0.87435,0.589716 -1.71081,1.225267 -2.51397,1.908721 -0.80315,0.683458 -1.5731,1.414671 -2.31516,2.195868 -0.62614,0.659173 -1.21833,1.359341 -1.77143,2.091639 -0.55308,0.732298 -1.06694,1.496977 -1.5366,2.285022 -0.46966,0.788046 -0.89533,1.599664 -1.27121,2.426086 -0.37591,0.826421 -0.70229,1.6674 -0.97405,2.514822 -0.27283,0.850733 -0.49602,1.571025 -0.49602,1.600648 0,0.02962 5.93381,0.05399 13.18608,0.05399 h 13.18567 l 0.2156,-0.800373 c 0.16005,-0.594358 0.38343,-1.165836 0.65801,-1.699431 0.27456,-0.533595 0.60019,-1.029446 0.96481,-1.47256 0.36465,-0.443115 0.76857,-0.833621 1.19883,-1.156535 0.21512,-0.161457 0.43691,-0.305719 0.66385,-0.431556 0.22695,-0.125835 0.45871,-0.233293 0.69444,-0.319795 0.49285,-0.180864 1.09891,-0.308691 1.74797,-0.386347 0.6491,-0.07765 1.34154,-0.104821 2.00667,-0.08372 0.66515,0.02111 1.3032,0.09052 1.84428,0.205941 0.27052,0.05771 0.51674,0.126743 0.72998,0.207197 0.21324,0.08046 0.39358,0.172364 0.532,0.275006 0.21827,0.161821 0.40961,0.33478 0.57474,0.525736 0.16512,0.190955 0.30376,0.399862 0.41606,0.632891 0.1123,0.233028 0.19854,0.490098 0.25827,0.778139 0.0597,0.28804 0.093,0.606741 0.10045,0.962732 0.007,0.35599 -0.0112,0.749374 -0.0556,1.186252 -0.0446,0.43688 -0.11544,0.917579 -0.21181,1.448285 -0.19276,1.061411 -0.48881,2.323179 -0.88697,3.837534 l -0.18459,0.702374 -6.35362,0.106318 c -1.51858,0.02546 -2.97325,0.07202 -4.36996,0.141063 -1.39672,0.06906 -2.73534,0.160467 -4.02213,0.275424 -1.2868,0.11496 -2.52145,0.253724 -3.71028,0.416906 -1.18884,0.163181 -2.33164,0.350946 -3.43445,0.564663 -1.10281,0.213718 -2.16586,0.453385 -3.19461,0.719957 -1.02872,0.26657 -2.02332,0.560206 -2.98989,0.881945 -0.9666,0.321738 -1.90484,0.671413 -2.82124,1.050634 -0.91639,0.379223 -1.81079,0.787835 -2.68895,1.226854 -0.69733,0.348628 -1.37657,0.72313 -2.03471,1.120955 -0.65813,0.397826 -1.29513,0.819119 -1.90914,1.26118 -0.614,0.44206 -1.20477,0.905007 -1.76974,1.386334 -0.56498,0.481327 -1.10431,0.980794 -1.6153,1.49642 -0.511,0.515625 -0.99366,1.047317 -1.44577,1.592274 -0.45212,0.544959 -0.87373,1.103317 -1.26202,1.672643 -0.38829,0.569324 -0.74322,1.149635 -1.06278,1.738357 -0.31955,0.588725 -0.6038,1.185852 -0.8497,1.789009 -0.30471,0.747404 -0.55981,1.436616 -0.77271,2.104199 -0.21288,0.667562 -0.38336,1.313328 -0.51945,1.974011 -0.13609,0.660683 -0.23754,1.336024 -0.31185,2.062758 -0.0743,0.726712 -0.12147,1.504709 -0.149,2.370404 -0.0346,1.088343 -0.0341,2.050305 0.009,2.923371 0.0428,0.873048 0.12816,1.657323 0.26245,2.391345 0.13429,0.733991 0.31746,1.417496 0.55713,2.088698 0.23967,0.671211 0.53551,1.329987 0.89451,2.014607 0.28809,0.54941 0.62383,1.08035 1.0029,1.58977 0.37908,0.50943 0.80158,0.99767 1.26329,1.4621 0.46171,0.46445 0.96252,0.90493 1.49851,1.31936 0.53597,0.41446 1.10717,0.80291 1.70906,1.1624 0.60189,0.35947 1.23463,0.69001 1.89407,0.98951 0.65944,0.29952 1.34576,0.56788 2.05438,0.80243 0.70863,0.23454 1.43971,0.43523 2.18916,0.59982 0.74944,0.16459 1.51692,0.29294 2.29885,0.38258 0.73056,0.0838 1.47043,0.14122 2.2147,0.17287 0.74424,0.0317 1.49294,0.0377 2.24149,0.0189 0.74855,-0.0189 1.49678,-0.0629 2.24023,-0.13101 0.74345,-0.068 1.48199,-0.16015 2.21094,-0.27584 0.72894,-0.11569 1.44853,-0.2551 2.15358,-0.4169 0.70507,-0.16183 1.3956,-0.34608 2.06736,-0.55254 0.67177,-0.20645 1.32487,-0.43518 1.95394,-0.68479 0.62906,-0.24961 1.2342,-0.52038 1.81119,-0.81163 0.44913,-0.22671 0.98809,-0.53747 1.5684,-0.89869 0.58032,-0.36121 1.20224,-0.7727 1.81622,-1.20047 0.614,-0.42778 1.22043,-0.87164 1.7706,-1.29803 0.55019,-0.4264 1.04392,-0.83542 1.4328,-1.19252 l 1.42986,-1.31309 -0.14524,1.05566 c -0.0798,0.58057 -0.29372,2.16889 -0.47551,3.52946 l -0.33069,2.4738 h 14.02116 c 3.25786,0 3.98966,-0.018 5.91535,-0.0248 z M 329.07233,78.01058 c 0.31382,0.01803 0.57421,0.04558 0.76182,0.08372 0.18761,0.03812 0.30274,0.08677 0.32565,0.146502 0.0358,0.09331 0.0316,0.318518 -0.006,0.645867 -0.0383,0.327351 -0.11074,0.756924 -0.2114,1.259507 -0.20128,1.005163 -0.51578,2.301833 -0.89575,3.655033 -0.1764,0.628156 -0.35989,1.2155 -0.55253,1.763883 -0.19263,0.548404 -0.3944,1.057975 -0.6065,1.530749 -0.21213,0.472794 -0.43449,0.908856 -0.66932,1.310156 -0.23482,0.401301 -0.48177,0.767732 -0.74256,1.101695 -0.26079,0.333985 -0.53548,0.635458 -0.82544,0.906221 -0.28997,0.270784 -0.59558,0.511177 -0.91795,0.722897 -0.32237,0.21172 -0.66164,0.394892 -1.01965,0.551683 -0.35801,0.156792 -0.73454,0.287029 -1.13142,0.393049 v 0 c -0.29983,0.08 -0.72189,0.140075 -1.20468,0.180002 -0.48278,0.03992 -1.02629,0.05956 -1.56966,0.05943 -0.54337,-1.29e-4 -1.08642,-0.02014 -1.568,-0.06026 -0.4816,-0.04019 -0.90181,-0.100213 -1.19923,-0.180408 -0.31187,-0.0841 -0.60219,-0.190096 -0.87064,-0.316454 -0.26845,-0.126359 -0.51502,-0.273227 -0.73921,-0.440348 -0.22421,-0.167099 -0.42616,-0.35413 -0.60528,-0.56047 -0.1791,-0.206341 -0.33518,-0.431969 -0.46838,-0.676007 -0.13321,-0.244037 -0.24337,-0.50672 -0.32985,-0.786934 -0.0864,-0.280213 -0.14947,-0.577957 -0.18835,-0.892826 -0.0389,-0.314867 -0.0535,-0.646559 -0.044,-0.994537 0.009,-0.348002 0.0434,-0.712483 0.10214,-1.092073 0.0734,-0.473673 0.18082,-0.930823 0.3223,-1.37085 0.14146,-0.440027 0.31675,-0.862908 0.52448,-1.267459 0.20774,-0.404541 0.44825,-0.790597 0.72037,-1.157789 0.27211,-0.367192 0.57581,-0.715527 0.9104,-1.043517 0.33461,-0.327991 0.69984,-0.635615 1.09501,-0.92255 0.39519,-0.286934 0.82028,-0.55295 1.27415,-0.796974 0.45389,-0.244025 0.93676,-0.46628 1.44745,-0.665541 0.51068,-0.199262 1.04927,-0.375602 1.61488,-0.528246 0.52563,-0.141855 1.29904,-0.263277 2.16657,-0.357885 0.86751,-0.09461 1.82927,-0.162264 2.73082,-0.197571 0.90153,-0.03531 1.74277,-0.03815 2.37039,-0.0021 z"
       id="path4556"
       inkscape:connector-curvature="0" />
    <path
       inkscape:connector-curvature="0"
       style="fill:#e51b24;fill-opacity:1;stroke:none;stroke-width:1.07893038;stroke-linecap:round;stroke-linejoin:miter;stroke-miterlimit:4;stroke-dasharray:none;stroke-dashoffset:0;stroke-opacity:1"
       d="M 195.63918,-93.32181 101.6146,41.332577 c 1.93808,-0.0093 4.09559,-0.01507 6.48254,-0.01507 14.33444,0 15.31622,0.02159 15.31622,0.332771 0,0.182888 -0.26737,2.284166 -0.59396,4.669667 -0.32659,2.385496 -0.56456,4.424268 -0.52908,4.530702 0.0355,0.106432 0.52844,-0.378205 1.09541,-1.077004 2.57604,-3.175018 6.57001,-6.365814 9.97893,-7.971839 6.68772,-3.150745 18.10021,-3.288836 24.00593,-0.290495 3.57985,1.817505 6.1623,5.161616 7.68889,9.956739 l 0.1737,0.546247 1.01129,-1.246109 c 1.49092,-1.837582 4.78148,-4.936365 6.61021,-6.22511 3.20516,-2.258723 6.68419,-3.773196 10.60804,-4.617763 2.59531,-0.558603 8.23717,-0.695729 11.12876,-0.270403 7.45585,1.096676 11.80444,4.559323 13.43262,10.69595 0.51284,1.932868 0.7159,6.603152 0.39179,9.012011 -0.12194,0.906463 -2.47092,12.12518 -5.21968,24.930571 l -4.99742,23.282618 -15.87,0.0494 c -15.05718,0.0471 -15.86426,0.0323 -15.7662,-0.2909 0.16438,-0.54185 8.00285,-37.1692 8.46032,-39.533126 0.87439,-4.518271 0.3928,-7.063783 -1.51986,-8.032954 -1.04857,-0.531332 -2.13414,-0.65155 -3.58973,-0.398068 -2.93989,0.511959 -5.13628,2.845133 -6.20167,6.588018 -0.25818,0.90705 -2.38051,10.663555 -4.71655,21.681139 l -4.24733,20.031951 -16.06841,8.1e-4 c -15.21379,6.4e-4 -16.06266,-0.0175 -15.96377,-0.33905 0.0574,-0.18675 2.0755,-9.681611 4.48466,-21.099745 4.56851,-21.652523 4.74261,-22.672945 4.17449,-24.450462 -0.63512,-1.987095 -2.7238,-2.913833 -5.45283,-2.418966 -3.03251,0.549893 -4.79809,2.447291 -6.04554,6.497183 -0.26295,0.853694 -2.39051,10.610208 -4.72785,21.681142 l -4.24942,20.129048 -16.152544,8.1e-4 c -8.88374,4.3e-4 -16.152131,-0.0292 -16.152131,-0.0653 0,-0.17527 5.982313,-28.31874 10.152216,-47.846101 L 59.745808,101.29324 254.3608,237.1866 344.80067,107.66694 c -1.69485,0.004 -3.39381,0.005 -5.90238,0.005 h -14.02113 l 0.33068,-2.4738 c 0.18178,-1.36058 0.39605,-2.94847 0.47593,-3.52904 l 0.1448,-1.05566 -1.42984,1.31308 c -1.55548,1.42843 -4.79148,3.68282 -6.58803,4.58973 -4.61584,2.33008 -11.04853,3.35104 -16.89301,2.68099 -6.25531,-0.71714 -11.60601,-3.91268 -13.91064,-8.30795 -1.43596,-2.738579 -1.86137,-5.064669 -1.72286,-9.418035 0.11016,-3.462803 0.53455,-5.521772 1.75342,-8.511387 1.96724,-4.82526 6.37003,-9.268157 11.94875,-12.057171 7.02519,-3.512155 15.08327,-5.07379 27.23192,-5.277446 l 6.35362,-0.106736 0.18459,-0.701956 c 1.5927,-6.057411 1.55048,-8.077422 -0.19548,-9.371987 -1.10744,-0.821151 -4.88909,-0.941121 -6.86051,-0.217662 -1.88567,0.691994 -3.54015,2.702439 -4.18036,5.079877 l -0.21555,0.800322 h -13.18567 c -7.25226,0 -13.18608,-0.02437 -13.18608,-0.05399 0,-0.02963 0.22318,-0.749913 0.49602,-1.600647 1.0871,-3.389686 3.04871,-6.680872 5.55329,-9.31757 5.9365,-6.249572 13.66653,-9.307591 25.77609,-10.197005 3.44887,-0.253307 13.20722,-0.125213 16.19482,0.212638 4.95684,0.560542 9.64863,1.760323 12.50088,3.196689 3.95382,1.991108 6.69107,5.354294 7.50638,9.222972 0.43149,2.047357 0.25635,5.630045 -0.47426,9.700987 -0.29536,1.645775 -3.35741,16.30619 -5.94423,28.580165 l 33.71236,-48.27977 z M 253.0946,39.029973 c 4.10372,0.0032 8.82669,0.12953 10.49714,0.334862 2.94216,0.361645 6.83489,1.201351 9.18822,1.981971 4.00627,1.328918 6.40785,2.724345 8.76924,5.095364 3.56234,3.576841 4.85231,8.626425 3.65964,14.326289 l -0.11176,0.533269 h -13.77336 c -13.02707,0 -13.76754,-0.01834 -13.67037,-0.339467 0.54827,-1.812187 0.46847,-4.237335 -0.17162,-5.21424 -1.01049,-1.542163 -3.40352,-2.218927 -6.48169,-1.832959 -3.79556,0.475924 -5.98344,2.502298 -6.18158,5.724907 -0.0739,1.200462 -0.0274,1.453889 0.3717,2.039318 0.25074,0.367724 0.73198,0.830094 1.06948,1.027193 0.94854,0.553985 3.87143,1.206927 10.63817,2.376274 3.41477,0.590092 7.30015,1.342189 8.63403,1.671386 8.90593,2.197914 14.14936,6.103045 16.07637,11.973035 0.63126,1.922828 0.87329,4.850908 0.61532,7.442338 -0.63959,6.425479 -2.5224,10.787851 -6.31176,14.622637 -5.0428,5.10325 -12.40522,7.83197 -24.34958,9.02499 -2.04397,0.20415 -13.21855,0.39858 -15.03663,0.26161 -9.0508,-0.6819 -14.68379,-2.04989 -19.39484,-4.70986 -1.46597,-0.82772 -2.38568,-1.53673 -3.8074,-2.93464 -1.63012,-1.60281 -1.99155,-2.08363 -2.77183,-3.686439 -1.38415,-2.843213 -1.57975,-3.804715 -1.55921,-7.663761 0.01,-1.814102 0.10075,-3.647605 0.20259,-4.074449 l 0.18501,-0.776044 14.61092,-0.04982 14.61051,-0.04981 -0.1486,1.213878 c -0.47357,3.873435 0.23368,6.098672 2.27079,7.14347 1.77206,0.908872 5.35462,0.859016 7.47749,-0.103806 1.20864,-0.548162 2.67748,-1.858638 3.17367,-2.831269 0.48117,-0.943152 0.8565,-3.052291 0.69568,-3.90953 -0.50652,-2.700022 -3.95381,-4.172305 -11.95545,-5.105826 -11.17961,-1.304284 -18.60888,-4.321742 -22.11228,-8.981033 -1.9121,-2.542959 -2.75082,-5.397989 -2.74797,-9.353987 0.0109,-15.106416 10.52292,-23.353821 31.91497,-25.038983 1.22351,-0.09638 3.46278,-0.138759 5.92499,-0.136875 z m 74.89553,38.954644 c -2.00768,0.0029 -4.8713,0.228862 -6.18534,0.583499 -4.52484,1.221164 -7.32251,3.963515 -7.90904,7.752922 -0.47006,3.036768 0.64859,5.08645 3.14351,5.759229 1.18971,0.320824 4.34231,0.321661 5.54156,0.0017 v -4.29e-4 c 3.17514,-0.848151 5.05473,-3.255097 6.46581,-8.28033 0.75993,-2.706398 1.25665,-5.187181 1.11342,-5.560407 -0.0688,-0.179209 -0.96531,-0.257868 -2.16992,-0.256169 z"
       id="rect4689-9-3" />
    <g
       aria-label="R"
       transform="matrix(0.24930229,0,0,0.20462302,-50.127662,-84.925719)"
       style="font-style:normal;font-weight:normal;font-size:40px;line-height:1.25;font-family:sans-serif;letter-spacing:0px;word-spacing:0px;fill:#e51b24;fill-opacity:1;stroke:none"
       id="flowRoot4706">
      <path
         inkscape:connector-curvature="0"
         d="m 1348.7129,1548.1426 q 0,0.401 -0.1458,0.6927 -0.1459,0.2552 -0.6928,0.4375 -0.5468,0.1823 -1.6041,0.2552 -1.0573,0.073 -2.8802,0.073 -1.5313,0 -2.4427,-0.073 -0.9115,-0.073 -1.4584,-0.2552 -0.5104,-0.2188 -0.7291,-0.5104 -0.2188,-0.3282 -0.3646,-0.7657 l -4.2292,-10.5364 q -0.7656,-1.7865 -1.4948,-3.1719 -0.7291,-1.3854 -1.6406,-2.2969 -0.875,-0.9479 -2.0417,-1.4218 -1.1666,-0.474 -2.6979,-0.474 h -2.9896 v 17.974 q 0,0.3645 -0.2552,0.6562 -0.2187,0.2917 -0.7656,0.474 -0.5469,0.1823 -1.4583,0.2916 -0.9115,0.1094 -2.3334,0.1094 -1.3854,0 -2.3333,-0.1094 -0.9115,-0.1093 -1.4583,-0.2916 -0.5469,-0.1823 -0.7657,-0.474 -0.2187,-0.2917 -0.2187,-0.6562 v -42.8386 q 0,-1.6041 0.8021,-2.2969 0.8385,-0.7291 2.0416,-0.7291 h 12.2136 q 1.8594,0 3.0625,0.073 1.2031,0.073 2.1875,0.1823 2.8437,0.401 5.1041,1.3854 2.2969,0.9844 3.8646,2.5885 1.6042,1.5678 2.4427,3.7553 0.8386,2.151 0.8386,4.9583 0,2.3698 -0.6198,4.3385 -0.5833,1.9323 -1.75,3.4636 -1.1667,1.5312 -2.8802,2.6614 -1.7136,1.1302 -3.9011,1.8229 1.0573,0.5105 1.9688,1.2396 0.9479,0.7292 1.75,1.7865 0.8385,1.0208 1.5677,2.3698 0.7292,1.3125 1.4219,2.9896 l 3.9739,9.2968 q 0.5469,1.3855 0.7292,2.0417 0.1823,0.6198 0.1823,0.9844 z m -12.3594,-32.0104 q 0,-2.3334 -1.0573,-3.9375 -1.0573,-1.6042 -3.4635,-2.2605 -0.7292,-0.1822 -1.6771,-0.2916 -0.9115,-0.1094 -2.5521,-0.1094 h -4.3021 v 13.3802 h 4.8854 q 2.0417,0 3.573,-0.4739 1.5312,-0.5105 2.552,-1.3855 1.0209,-0.9114 1.5313,-2.151 0.5104,-1.2396 0.5104,-2.7708 z"
         style="font-style:normal;font-variant:normal;font-weight:bold;font-stretch:normal;font-size:74.66666412px;font-family:Calibri;-inkscape-font-specification:'Calibri Bold';fill:#e51b24;fill-opacity:1"
         id="path4517" />
    </g>
    <circle
       style="fill:none;fill-opacity:1;stroke:#e51b24;stroke-width:2.07743263;stroke-linecap:round;stroke-linejoin:miter;stroke-miterlimit:4;stroke-dasharray:none;stroke-dashoffset:0;stroke-opacity:1"
       id="path4714"
       cx="281.18066"
       cy="227.30914"
       r="8.9739456" />
    <path
       style="fill:#ffffff;fill-opacity:1;stroke:none;stroke-width:1.07893038;stroke-linecap:round;stroke-linejoin:miter;stroke-miterlimit:4;stroke-dasharray:none;stroke-dashoffset:0;stroke-opacity:1"
       clip-path="none"
       d="m 88.797051,59.688955 c -4.077959,19.066354 -10.202867,47.726795 -10.202867,47.918515 0,0.0361 7.268391,0.0652 16.152131,0.0649 h 16.152135 l 4.24983,-20.129042 c 1.16867,-5.535467 2.28494,-10.742332 3.14185,-14.672036 0.85692,-3.929704 1.45453,-6.582259 1.586,-7.009107 0.15593,-0.506237 0.31992,-0.97844 0.49351,-1.418983 0.17358,-0.440545 0.35668,-0.849277 0.55084,-1.227275 0.19417,-0.377995 0.39932,-0.725343 0.61699,-1.043935 0.21766,-0.318593 0.44782,-0.608311 0.69191,-0.870645 0.2441,-0.262333 0.50218,-0.497342 0.77563,-0.706561 0.27344,-0.209217 0.56241,-0.392858 0.86814,-0.552107 0.30572,-0.159247 0.62807,-0.29402 0.96901,-0.40644 0.34093,-0.11242 0.70044,-0.202501 1.0795,-0.271237 0.34114,-0.06186 0.67209,-0.101572 0.99162,-0.119715 0.31953,-0.01815 0.62779,-0.01454 0.92255,0.0096 0.29476,0.02417 0.57621,0.0689 0.84302,0.133945 0.2668,0.06505 0.5186,0.150374 0.75428,0.254916 0.23567,0.104539 0.45537,0.228663 0.65675,0.371279 0.20137,0.142616 0.38445,0.303759 0.54833,0.483039 0.16389,0.179282 0.30833,0.376496 0.43156,0.591035 0.12323,0.21454 0.22534,0.446454 0.30472,0.69484 0.071,0.222191 0.13052,0.432345 0.1712,0.672659 0.0407,0.24031 0.0625,0.510659 0.0587,0.852643 -0.004,0.341986 -0.0335,0.755739 -0.0963,1.282946 -0.0627,0.527207 -0.15877,1.167995 -0.29468,1.963973 -0.27181,1.591958 -0.7042,3.804764 -1.3541,6.973109 -0.64991,3.168347 -1.51711,7.292001 -2.65923,12.705141 -2.40916,11.418142 -4.42723,20.912978 -4.48466,21.099728 -0.0124,0.0401 -0.01,0.0759 0.0335,0.10716 0.0435,0.0312 0.12791,0.0581 0.27961,0.0816 0.3034,0.0469 0.87551,0.0794 1.92631,0.10172 2.1016,0.0446 6.11748,0.0489 13.72436,0.0485 h 16.06842 l 4.24729,-20.031939 c 2.33604,-11.017584 4.45837,-20.77409 4.71655,-21.68114 0.13317,-0.467861 0.2843,-0.913519 0.45207,-1.336523 0.16776,-0.423006 0.35211,-0.823106 0.55293,-1.199648 0.20085,-0.37654 0.41809,-0.729698 0.65048,-1.058168 0.23239,-0.32847 0.48011,-0.632456 0.74255,-0.911246 0.26244,-0.278791 0.5395,-0.532218 0.83047,-0.759721 0.29098,-0.227504 0.59577,-0.428983 0.91376,-0.603591 0.31799,-0.17461 0.64937,-0.322334 0.99286,-0.442438 0.3435,-0.120107 0.69906,-0.212687 1.06654,-0.276682 0.3639,-0.06337 0.7048,-0.103239 1.02762,-0.119294 0.32282,-0.01606 0.62745,-0.0081 0.91962,0.02427 0.29215,0.03242 0.57191,0.08915 0.84384,0.171199 0.27195,0.08204 0.5361,0.189053 0.79824,0.321886 0.23909,0.121147 0.45596,0.267069 0.65048,0.438254 0.1945,0.171182 0.36671,0.367846 0.51694,0.590616 0.15023,0.222767 0.27843,0.47168 0.38468,0.747581 0.10623,0.2759 0.19069,0.578573 0.25323,0.909152 0.0625,0.330582 0.10309,0.68894 0.12223,1.07575 0.0191,0.386809 0.0168,0.80236 -0.007,1.246945 -0.048,0.889175 -0.18158,1.895504 -0.40017,3.025074 -0.45747,2.363928 -8.29594,38.990883 -8.46032,39.532723 -0.0122,0.0404 -0.0107,0.0759 0.0314,0.10716 0.0421,0.0312 0.12433,0.0581 0.27291,0.0812 0.29716,0.0461 0.85948,0.0772 1.89533,0.0963 2.0717,0.0383 6.03798,0.0298 13.56657,0.006 l 15.86959,-0.0494 4.99783,-23.282633 c 2.74876,-12.805386 5.09774,-24.024103 5.21968,-24.930565 0.081,-0.602216 0.12882,-1.345988 0.14734,-2.152754 0.0185,-0.806765 0.008,-1.676449 -0.0293,-2.531567 -0.0372,-0.855115 -0.1006,-1.695561 -0.18669,-2.442825 -0.0861,-0.747268 -0.19493,-1.401648 -0.32314,-1.884864 -0.20352,-0.767078 -0.4495,-1.492074 -0.7388,-2.176192 -0.28928,-0.684119 -0.62216,-1.327287 -0.99873,-1.92965 -0.37656,-0.602362 -0.79706,-1.164227 -1.26243,-1.686037 -0.46537,-0.521808 -0.9755,-1.003313 -1.53117,-1.445772 -0.55567,-0.442458 -1.15659,-0.845801 -1.80406,-1.210111 -0.64749,-0.364312 -1.34163,-0.6896 -2.08243,-0.976965 -0.7408,-0.287366 -1.52851,-0.536795 -2.36414,-0.748419 -0.83564,-0.211624 -1.71888,-0.385721 -2.65087,-0.522805 -0.72289,-0.106331 -1.61783,-0.177333 -2.59393,-0.215569 -0.97608,-0.03823 -2.03344,-0.04346 -3.08158,-0.01801 -1.04814,0.02546 -2.08727,0.08142 -3.02632,0.166175 -0.93906,0.08475 -1.7781,0.198143 -2.42692,0.337795 -0.98098,0.21114 -1.93419,0.464089 -2.86225,0.760137 -0.92807,0.296052 -1.83107,0.635128 -2.71155,1.018405 -0.88048,0.383276 -1.73856,0.810961 -2.57677,1.283781 -0.83824,0.472821 -1.65662,0.990758 -2.4579,1.555439 -0.45719,0.322187 -1.00544,0.757794 -1.59437,1.258251 -0.58893,0.500456 -1.21837,1.066035 -1.83714,1.648782 -0.61878,0.582746 -1.22723,1.182693 -1.77394,1.751755 -0.54671,0.569059 -1.03161,1.106926 -1.40433,1.566322 l -1.01129,1.24653 -0.17372,-0.546668 c -0.19081,-0.599388 -0.3983,-1.17609 -0.622,-1.729985 -0.2237,-0.553895 -0.4636,-1.085007 -0.71996,-1.593112 -0.25636,-0.508106 -0.52913,-0.992961 -0.8179,-1.454982 -0.28878,-0.462021 -0.59363,-0.901208 -0.9146,-1.316849 -0.32097,-0.415642 -0.65793,-0.807657 -1.01087,-1.176626 -0.35293,-0.36897 -0.72204,-0.714818 -1.10671,-1.03682 -0.38469,-0.322005 -0.78514,-0.620179 -1.20133,-0.894921 -0.4162,-0.274745 -0.84803,-0.525838 -1.2955,-0.753026 -0.36911,-0.187395 -0.75988,-0.362811 -1.16951,-0.525735 -0.40964,-0.162922 -0.83821,-0.313556 -1.28337,-0.452066 -0.89031,-0.27702 -1.84639,-0.505064 -2.84885,-0.684795 -1.00245,-0.179731 -2.05131,-0.310957 -3.12594,-0.393883 -1.07464,-0.08293 -2.17525,-0.117621 -3.28209,-0.104226 -1.10682,0.0134 -2.21984,0.07494 -3.31891,0.184176 -1.09907,0.109231 -2.18428,0.265895 -3.23561,0.470482 -1.05134,0.204587 -2.06856,0.456916 -3.03219,0.756372 -0.96363,0.299457 -1.8735,0.646326 -2.70946,1.040169 -0.85224,0.401506 -1.74129,0.901743 -2.63537,1.476329 -0.89409,0.574586 -1.79344,1.223205 -2.66677,1.920859 -0.87334,0.697655 -1.72026,1.44441 -2.51022,2.21512 -0.78997,0.770711 -1.52298,1.565776 -2.16699,2.359532 -0.28349,0.349403 -0.5482,0.644873 -0.74674,0.840087 -0.19854,0.195216 -0.33052,0.290132 -0.34827,0.236916 -0.0355,-0.106431 0.2025,-2.145623 0.52909,-4.531118 0.3266,-2.385502 0.59397,-4.486781 0.59397,-4.669668 0,-0.0389 -0.0155,-0.07302 -0.0703,-0.103389 -0.0548,-0.03037 -0.14923,-0.05707 -0.30723,-0.07995 -0.31602,-0.04576 -0.88676,-0.07751 -1.90538,-0.09962 -2.03725,-0.04424 -5.86607,-0.04939 -13.0333,-0.04939 -2.65675,0 -4.40019,0.01746 -6.49216,0.02888 z"
       id="path4550"
       inkscape:connector-curvature="0" />
    <path
       style="fill:#ffffff;fill-opacity:1;stroke:none;stroke-width:1.07893038;stroke-linecap:round;stroke-linejoin:miter;stroke-miterlimit:4;stroke-dasharray:none;stroke-dashoffset:0;stroke-opacity:1"
       clip-path="none"
       d="m 250.73568,39.043379 c -1.48369,0.01915 -2.75062,0.05964 -3.5663,0.123898 -1.33701,0.105324 -2.63149,0.235967 -3.88358,0.392627 -1.25209,0.15666 -2.46213,0.33936 -3.6295,0.547503 -1.16737,0.208142 -2.29216,0.441766 -3.375,0.701538 -1.08283,0.25977 -2.1237,0.545704 -3.12218,0.857251 -0.99849,0.311544 -1.95463,0.648659 -2.86895,1.012123 -0.91431,0.363463 -1.78662,0.753145 -2.61695,1.168673 -0.83034,0.415526 -1.61885,0.857066 -2.36538,1.324803 -0.74655,0.467735 -1.45134,0.96168 -2.11426,1.481769 -0.66291,0.520092 -1.28401,1.066567 -1.8635,1.639156 -0.57949,0.572589 -1.11738,1.171309 -1.61363,1.796542 -0.49625,0.625235 -0.95053,1.27674 -1.36373,1.954763 -0.41319,0.678025 -0.78519,1.382449 -1.11551,2.113407 -0.33033,0.730959 -0.61924,1.488428 -0.86688,2.272466 -0.24763,0.784039 -0.45395,1.594681 -0.61908,2.431943 -0.16512,0.837266 -0.28888,1.701208 -0.37169,2.591845 -0.0828,0.890633 -0.12447,1.808004 -0.12517,2.752156 -6.3e-4,0.989001 0.0509,1.909356 0.15906,2.773085 0.10813,0.863731 0.27268,1.670941 0.49686,2.43404 0.1121,0.381549 0.23886,0.75199 0.38133,1.113001 0.14247,0.36101 0.30051,0.712525 0.47425,1.056075 0.34748,0.6871 0.75846,1.342466 1.23648,1.978205 0.43793,0.582411 0.93699,1.139165 1.49726,1.670131 0.56027,0.530965 1.18158,1.036014 1.86351,1.515255 0.68193,0.479241 1.42479,0.932727 2.22768,1.359962 0.80289,0.427239 1.66573,0.828045 2.58891,1.202999 0.92318,0.374953 1.90653,0.724055 2.94931,1.046447 1.04277,0.322394 2.14509,0.618254 3.30678,0.887807 1.16168,0.269552 2.38265,0.51273 3.66257,0.729164 1.2799,0.216434 2.61881,0.406232 4.01625,0.569268 1.00021,0.116691 1.92923,0.241851 2.79026,0.37672 0.86103,0.134872 1.65397,0.279164 2.38213,0.434904 0.72816,0.155742 1.39168,0.322571 1.99327,0.501884 0.6016,0.179295 1.1415,0.371232 1.62284,0.576801 0.48132,0.205547 0.90385,0.424746 1.27122,0.659247 0.36737,0.234522 0.67958,0.484367 0.93929,0.750521 0.25972,0.266155 0.46699,0.548812 0.62536,0.8493 0.15836,0.300466 0.26778,0.618956 0.33109,0.956455 0.0401,0.214312 0.0469,0.506656 0.0268,0.839655 -0.0201,0.333021 -0.067,0.706717 -0.13395,1.082878 -0.0669,0.376161 -0.15374,0.754594 -0.25407,1.098352 -0.10034,0.343758 -0.21416,0.652432 -0.33445,0.888218 -0.12405,0.243159 -0.30897,0.507427 -0.53536,0.77564 -0.2264,0.26819 -0.49423,0.540603 -0.78442,0.799471 -0.29019,0.258868 -0.6025,0.504407 -0.91794,0.719533 -0.31545,0.215147 -0.63421,0.400014 -0.93636,0.537046 -0.26536,0.120358 -0.55352,0.226398 -0.8581,0.318127 -0.30456,0.09172 -0.62541,0.168958 -0.95644,0.231887 -0.66205,0.125842 -1.36402,0.193866 -2.05523,0.203424 -0.69121,0.0096 -1.37172,-0.0392 -1.98992,-0.147339 -0.3091,-0.05403 -0.60272,-0.123039 -0.87442,-0.206769 -0.27169,-0.08375 -0.52146,-0.182339 -0.74297,-0.295946 -0.25464,-0.130602 -0.48859,-0.279484 -0.70196,-0.447871 -0.21337,-0.168406 -0.40621,-0.35623 -0.5789,-0.564241 -0.17269,-0.208034 -0.32491,-0.436598 -0.4575,-0.686058 -0.13259,-0.249481 -0.24557,-0.520137 -0.33864,-0.812887 -0.0931,-0.292751 -0.16646,-0.607276 -0.22058,-0.945139 -0.0541,-0.337864 -0.0888,-0.698895 -0.10465,-1.083715 -0.0315,-0.769617 0.0131,-1.634775 0.13144,-2.603146 l 0.14859,-1.213866 -14.61092,0.04981 -14.6105,0.0494 -0.18501,0.776047 c -0.0509,0.213413 -0.0993,0.778855 -0.13605,1.517333 -0.0368,0.738499 -0.0617,1.650056 -0.0666,2.557112 -0.005,0.964749 0.004,1.748405 0.0401,2.425654 0.0371,0.67727 0.10296,1.248265 0.21265,1.787352 0.10968,0.53908 0.26326,1.046593 0.47592,1.596883 0.21267,0.550269 0.48443,1.143486 0.83046,1.854297 0.19508,0.400698 0.36377,0.731259 0.53285,1.026765 0.1691,0.29552 0.33827,0.55578 0.53411,0.81623 0.39168,0.52091 0.88981,1.0416 1.70487,1.843 0.71087,0.69896 1.29605,1.226 1.88696,1.68144 0.59091,0.45543 1.18746,0.83937 1.92044,1.25323 0.58889,0.33248 1.19198,0.64473 1.81453,0.93802 0.62258,0.29331 1.26449,0.56773 1.93049,0.82418 0.666,0.2565 1.35614,0.49503 2.07532,0.71703 0.71918,0.22203 1.46774,0.42749 2.24987,0.61742 0.78211,0.18992 1.59807,0.36469 2.45287,0.52489 0.8548,0.1602 1.74836,0.30583 2.68561,0.43868 1.87446,0.26568 3.92347,0.47916 6.18617,0.64963 0.90904,0.0685 4.15714,0.054 7.43354,-0.004 3.27641,-0.0571 6.58109,-0.15663 7.60308,-0.2587 1.49304,-0.14912 2.91439,-0.32237 4.26866,-0.52113 1.35428,-0.19874 2.64166,-0.42307 3.866,-0.67474 1.22435,-0.25166 2.3856,-0.53056 3.48887,-0.83841 1.10324,-0.30785 2.14832,-0.64439 3.13935,-1.01171 0.991,-0.36732 1.92819,-0.76541 2.81577,-1.19548 0.88759,-0.43003 1.72559,-0.89235 2.51859,-1.38842 0.793,-0.49604 1.54093,-1.02567 2.24817,-1.59101 0.70727,-0.56535 1.37382,-1.16617 2.00418,-1.80408 0.47367,-0.47935 0.91736,-0.967033 1.33275,-1.465849 0.4154,-0.498843 0.8027,-1.008963 1.1624,-1.533258 0.35969,-0.524313 0.69213,-1.062883 0.99872,-1.618664 0.3066,-0.555774 0.58734,-1.12876 0.84345,-1.722024 0.25608,-0.59326 0.4875,-1.206686 0.69566,-1.843431 0.20818,-0.636722 0.39305,-1.29659 0.55588,-1.982797 0.16283,-0.686228 0.30351,-1.398925 0.42362,-2.140618 0.12007,-0.741713 0.21932,-1.512403 0.29926,-2.315582 0.0644,-0.647867 0.098,-1.316757 0.10173,-1.985734 0.005,-0.668991 -0.0222,-1.337991 -0.0758,-1.986162 -0.0535,-0.648174 -0.13491,-1.275592 -0.24234,-1.861005 -0.10743,-0.585411 -0.2411,-1.129148 -0.39892,-1.609855 -0.24086,-0.733748 -0.53338,-1.436785 -0.8786,-2.109639 -0.34519,-0.67285 -0.74291,-1.31543 -1.19378,-1.928392 -0.45088,-0.612964 -0.95485,-1.196001 -1.51274,-1.750079 -0.55788,-0.554078 -1.16963,-1.079333 -1.83589,-1.575531 -0.66626,-0.496201 -1.38723,-0.963333 -2.16322,-1.402659 -0.77598,-0.439326 -1.60727,-0.850514 -2.49431,-1.233971 -0.88704,-0.383458 -1.82972,-0.739199 -2.82919,-1.067797 -0.99946,-0.328595 -2.0554,-0.630229 -3.16863,-0.904967 -1.33389,-0.329196 -5.21925,-1.081294 -8.63403,-1.671386 -3.38339,-0.584674 -5.80577,-1.040342 -7.50094,-1.418982 -0.84758,-0.189322 -1.5136,-0.359144 -2.02676,-0.516528 -0.51315,-0.157384 -0.87336,-0.302269 -1.11049,-0.440763 -0.16874,-0.09855 -0.37374,-0.263423 -0.56759,-0.449555 -0.19385,-0.186133 -0.37691,-0.393358 -0.5023,-0.577221 -0.0998,-0.146356 -0.17717,-0.271947 -0.23649,-0.396812 -0.0593,-0.124865 -0.10029,-0.249302 -0.12641,-0.392627 -0.0523,-0.286654 -0.0453,-0.650066 -0.008,-1.250297 0.0247,-0.402827 0.0805,-0.786763 0.16659,-1.15151 0.0862,-0.364749 0.20295,-0.710277 0.34909,-1.035565 0.14615,-0.325288 0.32156,-0.630569 0.52616,-0.915013 0.2046,-0.284447 0.43832,-0.548059 0.69987,-0.790277 0.26155,-0.242221 0.55111,-0.463164 0.86813,-0.661776 0.31702,-0.19861 0.66123,-0.375044 1.03222,-0.528664 0.37098,-0.153621 0.76865,-0.284125 1.19211,-0.391371 0.42346,-0.107248 0.87296,-0.19124 1.34741,-0.25073 0.76954,-0.09649 1.49605,-0.126189 2.16907,-0.09293 0.67302,0.03326 1.2925,0.12987 1.84719,0.286728 0.27734,0.07843 0.53865,0.171858 0.78232,0.280029 0.24369,0.10817 0.46957,0.23079 0.67685,0.367931 0.20728,0.13714 0.39567,0.288817 0.56382,0.454158 0.16818,0.16534 0.31614,0.344267 0.44246,0.537038 0.16,0.244225 0.28486,0.579303 0.37378,0.972359 0.0889,0.393053 0.14209,0.844404 0.1578,1.321873 0.0157,0.477467 -0.005,0.980955 -0.0652,1.47842 -0.0596,0.497466 -0.15763,0.988958 -0.29468,1.442006 -0.0122,0.04014 -0.0113,0.0755 0.0251,0.106738 0.0365,0.03123 0.10852,0.05819 0.23819,0.08162 0.25929,0.04688 0.74976,0.07934 1.65044,0.101715 1.80138,0.04475 5.24311,0.04939 11.75665,0.04939 h 13.77333 l 0.11135,-0.533688 c 0.14908,-0.712484 0.2596,-1.414902 0.33152,-2.105452 0.0719,-0.690552 0.10529,-1.369305 0.10088,-2.034713 -0.005,-0.665408 -0.0469,-1.317294 -0.12683,-1.954346 -0.0799,-0.637053 -0.19737,-1.259285 -0.35203,-1.86477 -0.15468,-0.605486 -0.34659,-1.194441 -0.57513,-1.765148 -0.22857,-0.570708 -0.4937,-1.12318 -0.7953,-1.655898 -0.30162,-0.532719 -0.63953,-1.045507 -1.01339,-1.537024 -0.37387,-0.491517 -0.78366,-0.961831 -1.22893,-1.408937 -0.59037,-0.592754 -1.18344,-1.124429 -1.80325,-1.609436 -0.61981,-0.485008 -1.26665,-0.923318 -1.96481,-1.328988 -0.69818,-0.405672 -1.44747,-0.778769 -2.27288,-1.133514 -0.82543,-0.354743 -1.72673,-0.691196 -2.7283,-1.023426 -0.58834,-0.195155 -1.27276,-0.393953 -2.01462,-0.588104 -0.74187,-0.194149 -1.5411,-0.38328 -2.35871,-0.559639 -0.81758,-0.176359 -1.65372,-0.340005 -2.46918,-0.481784 -0.81548,-0.141778 -1.6106,-0.262033 -2.34614,-0.352443 -0.66818,-0.08213 -1.82441,-0.151495 -3.23436,-0.205524 -1.40994,-0.05403 -3.07326,-0.09275 -4.75507,-0.113015 -1.68179,-0.02025 -3.38229,-0.0221 -4.86598,-0.0029 z"
       id="path4553"
       inkscape:connector-curvature="0" />
  </g>
</svg>
