<?xml version="1.0" encoding="UTF-8" standalone="no"?>
<!-- Created with Inkscape (http://www.inkscape.org/) -->

<svg
   xmlns:dc="http://purl.org/dc/elements/1.1/"
   xmlns:cc="http://creativecommons.org/ns#"
   xmlns:rdf="http://www.w3.org/1999/02/22-rdf-syntax-ns#"
   xmlns:svg="http://www.w3.org/2000/svg"
   xmlns="http://www.w3.org/2000/svg"
   xmlns:sodipodi="http://sodipodi.sourceforge.net/DTD/sodipodi-0.dtd"
   xmlns:inkscape="http://www.inkscape.org/namespaces/inkscape"
   width="450mm"
   height="450mm"
   viewBox="0 0 450 450"
   version="1.1"
   id="svg8"
   inkscape:version="0.92.2 (5c3e80d, 2017-08-06)"
   sodipodi:docname="msa.svg">
  <defs
     id="defs2" />
  <sodipodi:namedview
     id="base"
     pagecolor="#ffffff"
     bordercolor="#666666"
     borderopacity="1.0"
     inkscape:pageopacity="0.0"
     inkscape:pageshadow="2"
     inkscape:zoom="0.12374369"
     inkscape:cx="645.91595"
     inkscape:cy="979.15167"
     inkscape:document-units="mm"
     inkscape:current-layer="layer1"
     showgrid="false"
     showguides="true"
     inkscape:guide-bbox="true"
     inkscape:window-width="1920"
     inkscape:window-height="1027"
     inkscape:window-x="-8"
     inkscape:window-y="-8"
     inkscape:window-maximized="1" />
  <metadata
     id="metadata5">
    <rdf:RDF>
      <cc:Work
         rdf:about="">
        <dc:format>image/svg+xml</dc:format>
        <dc:type
           rdf:resource="http://purl.org/dc/dcmitype/StillImage" />
        <dc:title></dc:title>
      </cc:Work>
    </rdf:RDF>
  </metadata>
  <g
     inkscape:label="Layer 1"
     inkscape:groupmode="layer"
     id="layer1"
     transform="translate(0,153)">
    <path
       style="fill:#ffffff;fill-opacity:1;stroke:none;stroke-width:1.33201277;stroke-linecap:round;stroke-linejoin:miter;stroke-miterlimit:4;stroke-dasharray:none;stroke-dashoffset:0;stroke-opacity:1"
       clip-path="none"
       d="m 387.37894,95.300646 c 0.6463,-3.062261 0.72171,-3.344306 1.41026,-6.622864 2.80119,-13.338019 5.637,-26.966616 5.94587,-28.687652 0.22551,-1.256464 0.40847,-2.475026 0.54727,-3.635951 0.13877,-1.160926 0.23357,-2.26422 0.28368,-3.289205 0.0501,-1.024985 0.0555,-1.971858 0.0151,-2.820501 -0.0406,-0.848643 -0.12676,-1.598969 -0.25992,-2.230871 -0.12584,-0.597019 -0.28906,-1.184167 -0.48731,-1.759582 -0.19828,-0.575419 -0.43191,-1.139145 -0.69919,-1.688786 -0.26731,-0.54964 -0.5683,-1.085384 -0.90125,-1.605071 -0.33293,-0.519686 -0.69776,-1.023395 -1.09294,-1.50895 -0.39518,-0.485558 -0.82032,-0.952667 -1.27434,-1.399916 -0.45403,-0.447249 -0.93697,-0.874741 -1.44642,-1.279509 -0.50949,-0.404765 -1.04564,-0.787043 -1.60716,-1.145148 -0.5615,-0.358106 -1.14837,-0.691637 -1.75853,-0.998905 -0.88032,-0.443326 -1.90267,-0.868575 -3.03652,-1.267625 -1.13384,-0.399049 -2.3791,-0.771802 -3.70572,-1.111043 -1.32663,-0.339238 -2.73439,-0.645097 -4.19301,-0.908989 -1.45865,-0.26389 -2.96805,-0.485868 -4.49792,-0.658874 -0.9221,-0.104275 -2.36675,-0.19236 -4.08141,-0.260966 -1.71466,-0.0686 -3.69941,-0.117872 -5.70198,-0.144177 -2.00256,-0.0263 -4.02313,-0.02986 -5.80896,-0.0072 -1.78583,0.02262 -3.33682,0.07116 -4.40126,0.149344 -1.86878,0.137255 -3.65334,0.316632 -5.35937,0.54002 -1.70604,0.223385 -3.33386,0.491186 -4.88961,0.805635 -1.55578,0.314449 -3.03911,0.675275 -4.45712,1.08572 -1.41798,0.410448 -2.77064,0.87045 -4.06331,1.381829 -1.29268,0.511379 -2.52537,1.074126 -3.7052,1.69137 -1.17983,0.617241 -2.30637,1.288889 -3.38585,2.016929 -1.07944,0.728044 -2.11211,1.512674 -3.10366,2.356446 -0.99156,0.843775 -1.9421,1.746506 -2.85824,2.710947 -0.77301,0.813795 -1.50411,1.678199 -2.18694,2.58227 -0.68281,0.904073 -1.31721,1.84812 -1.89704,2.821016 -0.57983,0.972897 -1.10535,1.974893 -1.5694,2.995168 -0.46408,1.020273 -0.86702,2.058519 -1.20253,3.104719 -0.33682,1.050287 -0.61236,1.939536 -0.61236,1.976107 0,0.03657 7.32568,0.06666 16.2791,0.06666 h 16.2786 l 0.26614,-0.988053 c 0.19759,-0.733776 0.47337,-1.439304 0.81235,-2.098063 0.33896,-0.65876 0.74097,-1.270921 1.19113,-1.817976 0.45019,-0.547055 0.94885,-1.029161 1.48003,-1.427821 0.26558,-0.19933 0.5394,-0.377431 0.81957,-0.532784 0.28019,-0.155353 0.56631,-0.288017 0.85733,-0.394809 0.60846,-0.223289 1.35668,-0.3811 2.15799,-0.476972 0.80135,-0.09587 1.65622,-0.129408 2.47738,-0.103354 0.82116,0.02606 1.60887,0.111755 2.27687,0.254249 0.33398,0.07125 0.63796,0.156472 0.90122,0.255799 0.26326,0.09933 0.48591,0.212794 0.6568,0.339513 0.26946,0.199779 0.50568,0.413308 0.70954,0.649057 0.20386,0.235747 0.37502,0.493657 0.51366,0.781347 0.13864,0.287689 0.24511,0.605059 0.31885,0.960665 0.0737,0.355605 0.11485,0.749064 0.12401,1.188558 0.009,0.439494 -0.0138,0.925153 -0.0687,1.464509 -0.0551,0.539358 -0.14251,1.132813 -0.26149,1.788006 -0.23797,1.310384 -0.60346,2.868123 -1.09503,4.737696 l -0.22789,0.867129 -7.84397,0.131257 c -1.87478,0.03143 -3.67067,0.08891 -5.39501,0.174152 -1.72434,0.08525 -3.37696,0.198106 -4.9656,0.340029 -1.58863,0.141925 -3.1129,0.31324 -4.58059,0.514699 -1.4677,0.201457 -2.87856,0.433266 -4.24006,0.697114 -1.36149,0.26385 -2.6739,0.559734 -3.94396,0.888836 -1.27002,0.329099 -2.49793,0.691613 -3.69122,1.088821 -1.19333,0.397208 -2.35165,0.828905 -3.48301,1.29708 -1.13135,0.468175 -2.23554,0.972635 -3.3197,1.514634 -0.8609,0.430405 -1.69947,0.892752 -2.51198,1.383895 -0.81251,0.491143 -1.59893,1.011259 -2.35696,1.557012 -0.75803,0.545753 -1.48738,1.117293 -2.18487,1.711523 -0.6975,0.594231 -1.36335,1.210858 -1.9942,1.847432 -0.63087,0.636575 -1.22674,1.292985 -1.7849,1.965772 -0.55817,0.672788 -1.07868,1.36212 -1.55805,2.064991 -0.47938,0.702869 -0.91755,1.419302 -1.31207,2.14612 -0.39452,0.726821 -0.74544,1.464014 -1.04902,2.208652 -0.37619,0.922721 -0.69112,1.7736 -0.95396,2.597777 -0.26281,0.824151 -0.47328,1.621393 -0.64129,2.437051 -0.16801,0.815657 -0.29327,1.649412 -0.385,2.546614 -0.0917,0.897176 -0.14997,1.857666 -0.18396,2.926424 -0.0428,1.343634 -0.0421,2.531242 0.0108,3.609102 0.0529,1.077836 0.15822,2.046076 0.32401,2.952276 0.16579,0.90617 0.39193,1.75 0.68781,2.57865 0.29589,0.82865 0.66114,1.64195 1.10435,2.48716 0.35565,0.67829 0.77015,1.33377 1.23814,1.96268 0.468,0.62892 0.9896,1.23169 1.55961,1.80507 0.57002,0.57338 1.1883,1.11718 1.85002,1.62883 0.6617,0.51168 1.36687,0.99126 2.10995,1.43507 0.74308,0.44379 1.52424,0.85185 2.33836,1.22161 0.81412,0.36978 1.66143,0.70109 2.53627,0.99065 0.87485,0.28956 1.77742,0.53732 2.70267,0.74052 0.92524,0.2032 1.87274,0.36166 2.83808,0.47233 0.90193,0.1034 1.81536,0.17434 2.7342,0.21342 0.91882,0.0391 1.84314,0.0466 2.76728,0.0233 0.92413,-0.0233 1.84787,-0.0777 2.76571,-0.16174 0.91784,-0.084 1.82962,-0.19772 2.72955,-0.34055 0.89993,-0.14282 1.78832,-0.31493 2.65875,-0.51469 0.87045,-0.19979 1.72296,-0.42725 2.5523,-0.68215 0.82934,-0.25487 1.63563,-0.53726 2.41226,-0.84542 0.77663,-0.30816 1.52371,-0.64244 2.23604,-1.00201 0.55449,-0.2799 1.21987,-0.66354 1.9363,-1.1095 0.71644,-0.44593 1.48424,-0.95395 2.24224,-1.48206 0.75803,-0.52811 1.5067,-1.07609 2.18594,-1.6025 0.67924,-0.52642 1.28878,-1.03138 1.76887,-1.47225 l 1.76527,-1.6211 -0.17931,1.30328 c -0.0986,0.71676 -0.36261,2.67764 -0.58705,4.35737 l -0.40826,3.05406 h 17.31008 c 4.02204,0 4.92551,-0.0222 7.3029,-0.0305 z M 353.48436,79.420469 c 0.38743,0.02225 0.7089,0.05628 0.94052,0.103354 0.23161,0.04707 0.37375,0.107119 0.40203,0.180866 0.0442,0.115195 0.039,0.393232 -0.008,0.797367 -0.0473,0.404138 -0.13671,0.934474 -0.26099,1.554946 -0.24849,1.240943 -0.63677,2.84177 -1.10585,4.512387 -0.21778,0.775501 -0.44431,1.500618 -0.68215,2.177634 -0.23781,0.677042 -0.48691,1.306142 -0.74877,1.889813 -0.26188,0.583697 -0.53639,1.122045 -0.82632,1.617477 -0.2899,0.495433 -0.59478,0.947817 -0.91673,1.360117 -0.32197,0.412327 -0.66109,0.784516 -1.01907,1.118791 -0.35798,0.334301 -0.73527,0.631084 -1.13326,0.892466 -0.39799,0.261382 -0.81685,0.487521 -1.25883,0.68109 -0.44199,0.19357 -0.90684,0.354357 -1.39682,0.485246 v 0 c -0.37015,0.09877 -0.89122,0.172932 -1.48725,0.222224 -0.59603,0.04929 -1.26703,0.07353 -1.93786,0.07337 -0.67082,-1.59e-4 -1.34125,-0.02487 -1.9358,-0.0744 -0.59457,-0.04961 -1.11334,-0.123719 -1.48053,-0.222726 -0.38502,-0.103823 -0.74345,-0.234686 -1.07487,-0.390684 -0.33141,-0.155998 -0.63582,-0.337317 -0.9126,-0.543639 -0.2768,-0.206296 -0.52612,-0.437198 -0.74726,-0.691939 -0.22111,-0.254741 -0.41381,-0.533294 -0.57825,-0.834575 -0.16446,-0.301281 -0.30046,-0.625581 -0.40722,-0.971524 -0.10673,-0.345942 -0.18452,-0.713528 -0.23254,-1.102254 -0.048,-0.388726 -0.066,-0.798221 -0.0543,-1.227825 0.0116,-0.429631 0.0535,-0.879607 0.1261,-1.348237 0.0905,-0.584782 0.22325,-1.149165 0.3979,-1.692408 0.17465,-0.543242 0.39106,-1.065318 0.64752,-1.564764 0.25646,-0.499433 0.5534,-0.976045 0.88934,-1.429369 0.33594,-0.453324 0.71088,-0.883367 1.12395,-1.288293 0.4131,-0.404927 0.864,-0.78471 1.35186,-1.13895 0.4879,-0.35424 1.0127,-0.682654 1.57303,-0.983919 0.56036,-0.301265 1.15649,-0.575654 1.78697,-0.821655 0.63048,-0.246002 1.2954,-0.463707 1.99369,-0.652156 0.64892,-0.17513 1.60374,-0.325033 2.67478,-0.441833 1.071,-0.116803 2.25835,-0.200327 3.37137,-0.243914 1.113,-0.04359 2.15157,-0.0471 2.92642,-0.0026 z"
       id="path4556"
       inkscape:connector-curvature="0" />
    <path
       inkscape:connector-curvature="0"
       style="fill:#e51b24;fill-opacity:1;stroke:none;stroke-width:1.33201277;stroke-linecap:round;stroke-linejoin:miter;stroke-miterlimit:4;stroke-dasharray:none;stroke-dashoffset:0;stroke-opacity:1"
       d="M 188.75208,-132.101 72.672346,34.138983 c 2.392686,-0.01148 5.056283,-0.0186 8.00313,-0.0186 17.696849,0 18.908924,0.02665 18.908924,0.410829 0,0.225788 -0.330089,2.819958 -0.73329,5.765022 -0.403199,2.945056 -0.696989,5.462058 -0.65319,5.593458 0.0438,0.131398 0.652401,-0.466918 1.352373,-1.329634 3.180287,-3.919776 8.111117,-7.85903 12.319657,-9.841777 8.25645,-3.889809 22.34594,-4.060291 29.63695,-0.358635 4.41957,2.243833 7.60778,6.372365 9.49245,12.292271 l 0.21445,0.674378 1.24851,-1.538406 c 1.84064,-2.26862 5.90306,-6.094278 8.16074,-7.685321 3.95699,-2.788547 8.25209,-4.658267 13.09636,-5.700942 3.20408,-0.689634 10.16934,-0.858925 13.73921,-0.33383 9.20475,1.35392 14.57338,5.628793 16.58348,13.204877 0.63313,2.386256 0.88382,8.152038 0.48369,11.125938 -0.15055,1.11909 -3.05051,14.969358 -6.44405,30.778482 l -6.16965,28.743977 -19.5926,0.061 c -18.5891,0.0581 -19.5855,0.0399 -19.46444,-0.35915 0.20294,-0.66894 9.88006,-45.88789 10.44484,-48.806318 1.07949,-5.578112 0.48493,-8.720719 -1.87637,-9.917226 -1.29453,-0.655966 -2.63474,-0.804384 -4.43177,-0.491442 -3.6295,0.632047 -6.34108,3.51251 -7.65638,8.133355 -0.31874,1.119814 -2.9389,13.164883 -5.8229,26.766839 l -5.24361,24.730792 -19.83755,0.001 c -18.78245,7.9e-4 -19.830448,-0.0217 -19.708356,-0.41858 0.0709,-0.23055 2.562346,-11.95259 5.536616,-26.049056 5.64013,-26.73151 5.85507,-27.991292 5.15368,-30.185757 -0.78409,-2.453203 -3.36271,-3.597325 -6.73188,-2.986378 -3.743842,0.678881 -5.923569,3.021348 -7.463629,8.021214 -0.324631,1.053944 -2.951242,13.099023 -5.836854,26.766842 l -5.24619,24.850675 -19.941418,0.001 c -10.96758,5.3e-4 -19.940902,-0.036 -19.940902,-0.0806 0,-0.21639 7.385571,-34.961405 12.5336,-59.069259 L 20.982479,108.16449 261.2479,275.93408 372.90207,116.03326 c -2.09241,0.004 -4.18989,0.007 -7.28689,0.007 h -17.31005 l 0.40825,-3.05407 c 0.22442,-1.67973 0.48895,-3.64009 0.58757,-4.35685 l 0.17877,-1.30328 -1.76524,1.62109 c -1.92035,1.7635 -5.9154,4.54669 -8.13337,5.66633 -5.69857,2.87664 -13.64015,4.13709 -20.85557,3.30987 -7.72261,-0.88536 -14.32841,-4.83047 -17.17363,-10.25674 -1.77279,-3.38095 -2.29799,-6.25267 -2.12699,-11.627196 0.136,-4.275066 0.65995,-6.817003 2.16472,-10.507885 2.42869,-5.957112 7.86424,-11.44217 14.75155,-14.885397 8.67307,-4.335994 18.62132,-6.263939 33.61965,-6.515365 l 7.84397,-0.131773 0.22789,-0.866613 c 1.9663,-7.478284 1.91418,-9.972125 -0.24133,-11.570354 -1.36721,-1.013767 -6.03591,-1.161878 -8.46976,-0.268718 -2.32799,0.854313 -4.37057,3.336345 -5.16094,6.271453 l -0.26611,0.988052 h -16.2786 c -8.95342,0 -16.27912,-0.03009 -16.27912,-0.06666 0,-0.03658 0.27553,-0.925819 0.61237,-1.976107 1.3421,-4.184798 3.76383,-8.247991 6.85591,-11.503173 7.32901,-7.715522 16.87227,-11.490854 31.82234,-12.588896 4.25786,-0.312724 16.30521,-0.154583 19.99361,0.262517 6.11955,0.692026 11.91189,2.173237 15.43317,3.946528 4.88127,2.458159 8.26058,6.610241 9.26714,11.386386 0.53271,2.527601 0.31649,6.950673 -0.5855,11.976528 -0.36465,2.03182 -4.14496,20.131098 -7.33856,35.284153 l 41.6202,-59.605147 z m 70.93261,163.397263 c 5.06632,0.0039 10.89716,0.159914 12.95943,0.413411 3.6323,0.446474 8.43814,1.483148 11.34348,2.446877 4.94601,1.640639 7.91093,3.363389 10.82622,6.290572 4.39796,4.415854 5.99051,10.649908 4.51808,17.686777 l -0.13798,0.658357 h -17.00414 c -16.0828,0 -16.99697,-0.02265 -16.877,-0.419095 0.67688,-2.237269 0.57835,-5.231278 -0.21188,-6.437333 -1.24751,-1.903905 -4.20188,-2.739417 -8.00209,-2.262913 -4.68587,0.587561 -7.38695,3.089257 -7.63158,7.067786 -0.0912,1.482053 -0.0339,1.794925 0.45889,2.517677 0.30956,0.45398 0.90368,1.024808 1.32035,1.26814 1.17104,0.683932 4.77954,1.490033 13.13354,2.933671 4.21577,0.728509 9.01253,1.657024 10.6593,2.06344 10.99497,2.713474 17.46835,7.534624 19.84737,14.781525 0.77933,2.373862 1.07813,5.988775 0.75965,9.188071 -0.78962,7.93269 -3.11407,13.318334 -7.7923,18.052644 -6.22567,6.30031 -15.31509,9.6691 -30.06121,11.14195 -2.52341,0.25205 -16.31919,0.49208 -18.56373,0.32298 -11.17383,-0.84184 -18.12814,-2.53072 -23.94426,-5.81463 -1.80983,-1.02188 -2.94527,-1.8972 -4.70049,-3.62303 -2.01248,-1.97877 -2.4587,-2.57237 -3.42201,-4.55115 -1.70882,-3.51014 -1.95031,-4.69718 -1.92495,-9.461434 0.0119,-2.239632 0.12439,-4.503216 0.25011,-5.030184 l 0.22841,-0.95808 18.03818,-0.0615 18.03766,-0.06149 -0.18346,1.498616 c -0.58465,4.782018 0.2885,7.529224 2.80345,8.819099 2.18773,1.122063 6.61064,1.060513 9.23147,-0.128156 1.49214,-0.676743 3.30552,-2.294615 3.91811,-3.495394 0.59404,-1.164384 1.0574,-3.76826 0.85886,-4.82658 -0.62534,-3.333361 -4.88125,-5.150993 -14.75981,-6.303489 -13.80199,-1.610227 -22.97393,-5.335484 -27.29911,-11.087695 -2.36062,-3.139456 -3.39608,-6.664184 -3.39256,-11.548133 0.0135,-18.649895 12.99125,-28.831876 39.4012,-30.912324 1.51051,-0.118991 4.27503,-0.171307 7.3148,-0.168981 z m 92.46362,48.092153 c -2.47862,0.0035 -6.01395,0.282546 -7.63622,0.72037 -5.58622,1.507609 -9.04015,4.893228 -9.76426,9.571509 -0.58031,3.749095 0.80074,6.279567 3.88088,7.110158 1.46878,0.396079 5.36088,0.397113 6.84144,0.0021 v -5.3e-4 c 3.91993,-1.047099 6.24041,-4.018637 7.98248,-10.222629 0.93818,-3.341232 1.55141,-6.403927 1.37459,-6.864699 -0.0849,-0.221247 -1.19174,-0.318357 -2.67891,-0.316259 z"
       id="rect4689-9-3" />
    <g
       aria-label="R"
       transform="matrix(0.30778061,0,0,0.25262101,-114.66378,-121.73546)"
       style="font-style:normal;font-weight:normal;font-size:40px;line-height:1.25;font-family:sans-serif;letter-spacing:0px;word-spacing:0px;fill:#e51b24;fill-opacity:1;stroke:none"
       id="flowRoot4706">
      <path
         inkscape:connector-curvature="0"
         d="m 1348.7129,1548.1426 q 0,0.401 -0.1458,0.6927 -0.1459,0.2552 -0.6928,0.4375 -0.5468,0.1823 -1.6041,0.2552 -1.0573,0.073 -2.8802,0.073 -1.5313,0 -2.4427,-0.073 -0.9115,-0.073 -1.4584,-0.2552 -0.5104,-0.2188 -0.7291,-0.5104 -0.2188,-0.3282 -0.3646,-0.7657 l -4.2292,-10.5364 q -0.7656,-1.7865 -1.4948,-3.1719 -0.7291,-1.3854 -1.6406,-2.2969 -0.875,-0.9479 -2.0417,-1.4218 -1.1666,-0.474 -2.6979,-0.474 h -2.9896 v 17.974 q 0,0.3645 -0.2552,0.6562 -0.2187,0.2917 -0.7656,0.474 -0.5469,0.1823 -1.4583,0.2916 -0.9115,0.1094 -2.3334,0.1094 -1.3854,0 -2.3333,-0.1094 -0.9115,-0.1093 -1.4583,-0.2916 -0.5469,-0.1823 -0.7657,-0.474 -0.2187,-0.2917 -0.2187,-0.6562 v -42.8386 q 0,-1.6041 0.8021,-2.2969 0.8385,-0.7291 2.0416,-0.7291 h 12.2136 q 1.8594,0 3.0625,0.073 1.2031,0.073 2.1875,0.1823 2.8437,0.401 5.1041,1.3854 2.2969,0.9844 3.8646,2.5885 1.6042,1.5678 2.4427,3.7553 0.8386,2.151 0.8386,4.9583 0,2.3698 -0.6198,4.3385 -0.5833,1.9323 -1.75,3.4636 -1.1667,1.5312 -2.8802,2.6614 -1.7136,1.1302 -3.9011,1.8229 1.0573,0.5105 1.9688,1.2396 0.9479,0.7292 1.75,1.7865 0.8385,1.0208 1.5677,2.3698 0.7292,1.3125 1.4219,2.9896 l 3.9739,9.2968 q 0.5469,1.3855 0.7292,2.0417 0.1823,0.6198 0.1823,0.9844 z m -12.3594,-32.0104 q 0,-2.3334 -1.0573,-3.9375 -1.0573,-1.6042 -3.4635,-2.2605 -0.7292,-0.1822 -1.6771,-0.2916 -0.9115,-0.1094 -2.5521,-0.1094 h -4.3021 v 13.3802 h 4.8854 q 2.0417,0 3.573,-0.4739 1.5312,-0.5105 2.552,-1.3855 1.0209,-0.9114 1.5313,-2.151 0.5104,-1.2396 0.5104,-2.7708 z"
         style="font-style:normal;font-variant:normal;font-weight:bold;font-stretch:normal;font-size:74.66666412px;font-family:Calibri;-inkscape-font-specification:'Calibri Bold';fill:#e51b24;fill-opacity:1"
         id="path4517" />
    </g>
    <circle
       style="fill:none;fill-opacity:1;stroke:#e51b24;stroke-width:2.56473184;stroke-linecap:round;stroke-linejoin:miter;stroke-miterlimit:4;stroke-dasharray:none;stroke-dashoffset:0;stroke-opacity:1"
       id="path4714"
       cx="294.35883"
       cy="263.73969"
       r="11.078944" />
    <path
       style="fill:#ffffff;fill-opacity:1;stroke:none;stroke-width:1.33201277;stroke-linecap:round;stroke-linejoin:miter;stroke-miterlimit:4;stroke-dasharray:none;stroke-dashoffset:0;stroke-opacity:1"
       clip-path="none"
       d="m 56.848211,56.801179 c -5.034518,23.538709 -12.596132,58.921971 -12.596132,59.158661 0,0.0446 8.973322,0.0806 19.940902,0.0801 h 19.940902 l 5.246709,-24.85067 c 1.442804,-6.83391 2.82091,-13.262137 3.878831,-18.113624 1.057921,-4.851487 1.795706,-8.126246 1.95802,-8.653219 0.192508,-0.624983 0.394965,-1.20795 0.609266,-1.75183 0.2143,-0.543883 0.440357,-1.048491 0.680062,-1.515155 0.239704,-0.466661 0.492987,-0.895485 0.761711,-1.288809 0.268722,-0.393324 0.55286,-0.751001 0.85421,-1.07487 0.30135,-0.323868 0.619974,-0.614003 0.957564,-0.872297 0.33759,-0.258294 0.694328,-0.48501 1.071774,-0.681614 0.37744,-0.196601 0.7754,-0.362987 1.19631,-0.501777 0.4209,-0.13879 0.86475,-0.250002 1.33273,-0.334862 0.42115,-0.07637 0.82973,-0.125397 1.22422,-0.147796 0.39448,-0.02241 0.77504,-0.01794 1.13894,0.01188 0.3639,0.02983 0.71137,0.08505 1.04077,0.165364 0.32939,0.08031 0.64024,0.185648 0.93121,0.314711 0.29096,0.129062 0.56219,0.2823 0.8108,0.45837 0.24861,0.176069 0.47463,0.37501 0.67696,0.596344 0.20233,0.221337 0.38065,0.46481 0.53278,0.729673 0.15214,0.264864 0.2782,0.551178 0.37621,0.857827 0.0877,0.27431 0.16113,0.53376 0.21135,0.830443 0.0502,0.29668 0.0772,0.630443 0.0724,1.052647 -0.005,0.422204 -0.0413,0.933011 -0.11885,1.583883 -0.0775,0.650873 -0.19602,1.441969 -0.36381,2.424658 -0.33556,1.96538 -0.86937,4.69724 -1.67173,8.608777 -0.80235,3.911539 -1.87297,9.002471 -3.283,15.685359 -2.97426,14.096467 -5.465714,25.818487 -5.536614,26.049047 -0.01527,0.0496 -0.01233,0.0937 0.04134,0.13229 0.05366,0.0386 0.157914,0.0718 0.345199,0.10078 0.374568,0.0579 1.080865,0.098 2.378155,0.12558 2.59457,0.0551 7.55244,0.0603 16.94366,0.0599 h 19.83755 l 5.24361,-24.730786 c 2.884,-13.601956 5.50416,-25.647025 5.8229,-26.76684 0.16441,-0.577606 0.35099,-1.127802 0.55811,-1.650029 0.20711,-0.522229 0.4347,-1.01618 0.68264,-1.481047 0.24795,-0.464865 0.51615,-0.900861 0.80305,-1.30638 0.28691,-0.405519 0.59274,-0.78081 0.91674,-1.124995 0.324,-0.344186 0.66604,-0.657059 1.02526,-0.937927 0.35923,-0.280869 0.73552,-0.529609 1.1281,-0.745175 0.39258,-0.215567 0.8017,-0.397942 1.22576,-0.546219 0.42407,-0.148281 0.86303,-0.262576 1.31672,-0.341583 0.44926,-0.07823 0.87012,-0.127455 1.26866,-0.147277 0.39854,-0.01982 0.77463,-0.01005 1.13533,0.02997 0.36069,0.04002 0.70607,0.110066 1.04179,0.211357 0.33573,0.101293 0.66184,0.233399 0.98547,0.397391 0.29517,0.149563 0.56292,0.329715 0.80306,0.541054 0.24013,0.211336 0.45273,0.454131 0.6382,0.729155 0.18547,0.275021 0.34374,0.582321 0.47491,0.92294 0.13116,0.340617 0.23542,0.714288 0.31264,1.12241 0.0772,0.408126 0.12726,0.850543 0.15089,1.328087 0.0236,0.477541 0.0208,0.990568 -0.009,1.539438 -0.0592,1.097746 -0.22416,2.340129 -0.49403,3.734658 -0.56478,2.918431 -10.2419,48.136878 -10.44484,48.805828 -0.0151,0.0499 -0.0132,0.0937 0.0388,0.13229 0.052,0.0386 0.1535,0.0718 0.33693,0.10025 0.36686,0.0569 1.06108,0.0953 2.33991,0.11885 2.55766,0.0472 7.4543,0.0368 16.74885,0.008 l 19.59208,-0.061 6.17017,-28.743986 c 3.39354,-15.809119 6.2935,-29.659387 6.44405,-30.778476 0.10003,-0.743477 0.15903,-1.661713 0.1819,-2.657721 0.0229,-0.996006 0.01,-2.06969 -0.0362,-3.125391 -0.0459,-1.055698 -0.1242,-2.093285 -0.23048,-3.015834 -0.10628,-0.922552 -0.24066,-1.730428 -0.39894,-2.326992 -0.25126,-0.94701 -0.55494,-1.842066 -0.91209,-2.686656 -0.35715,-0.844592 -0.7681,-1.638626 -1.233,-2.382285 -0.46491,-0.743656 -0.98404,-1.437317 -1.55856,-2.081527 -0.57453,-0.644207 -1.20432,-1.238657 -1.89033,-1.784903 -0.68601,-0.546245 -1.42789,-1.044199 -2.22725,-1.493964 -0.79936,-0.449768 -1.65633,-0.851358 -2.5709,-1.20613 -0.91457,-0.354772 -1.88704,-0.66271 -2.91869,-0.923975 -1.03165,-0.261263 -2.12207,-0.476197 -3.27267,-0.645438 -0.89246,-0.131273 -1.99733,-0.21893 -3.20238,-0.266134 -1.20505,-0.0472 -2.51042,-0.05366 -3.80442,-0.02223 -1.29401,0.03143 -2.57688,0.100518 -3.73621,0.205155 -1.15933,0.104638 -2.19518,0.244621 -2.9962,0.417029 -1.21107,0.260667 -2.38788,0.57295 -3.53363,0.938442 -1.14576,0.365496 -2.26059,0.784109 -3.3476,1.25729 -1.08701,0.473181 -2.14636,1.001186 -3.1812,1.584915 -1.03485,0.583729 -2.0452,1.223158 -3.03444,1.920295 -0.56442,0.397762 -1.24128,0.935548 -1.96836,1.553396 -0.72708,0.617847 -1.50415,1.316093 -2.26808,2.035534 -0.76392,0.719439 -1.51509,1.460114 -2.19004,2.16266 -0.67496,0.702542 -1.27359,1.366575 -1.73375,1.933731 l -1.2485,1.538925 -0.21446,-0.674897 c -0.23558,-0.739986 -0.49174,-1.451964 -0.76791,-2.135785 -0.27617,-0.683821 -0.57235,-1.339514 -0.88884,-1.966804 -0.31648,-0.627293 -0.65324,-1.225878 -1.00975,-1.796275 -0.35651,-0.570397 -0.73288,-1.112602 -1.12913,-1.62574 -0.39626,-0.513138 -0.81226,-0.997106 -1.24799,-1.452624 -0.43572,-0.455519 -0.89141,-0.882491 -1.36632,-1.280025 -0.47492,-0.397536 -0.9693,-0.765653 -1.48312,-1.104841 -0.51382,-0.339191 -1.04694,-0.649182 -1.59938,-0.929661 -0.45569,-0.231352 -0.93812,-0.447916 -1.44384,-0.649055 -0.50572,-0.201139 -1.03482,-0.387107 -1.5844,-0.558107 -1.09916,-0.342 -2.2795,-0.623536 -3.5171,-0.845426 -1.2376,-0.22189 -2.53249,-0.383897 -3.85919,-0.486275 -1.32671,-0.102378 -2.6855,-0.145211 -4.05196,-0.128675 -1.36645,0.01654 -2.74055,0.09252 -4.09742,0.227378 -1.35687,0.134853 -2.69664,0.328266 -3.99459,0.580842 -1.29794,0.252577 -2.55377,0.564095 -3.74344,0.933794 -1.18967,0.3697 -2.31296,0.797933 -3.34501,1.284158 -1.05214,0.495687 -2.14975,1.113264 -3.25355,1.822628 -1.10381,0.709366 -2.21412,1.51013 -3.29231,2.371431 -1.07818,0.861303 -2.12376,1.783223 -3.09903,2.734717 -0.97527,0.951495 -1.88022,1.933057 -2.675292,2.913002 -0.349986,0.431361 -0.676799,0.796139 -0.921909,1.037145 -0.245107,0.241007 -0.408046,0.358188 -0.429948,0.292489 -0.0438,-0.131397 0.249992,-2.648918 0.653193,-5.593974 0.403198,-2.945064 0.733287,-5.539235 0.733287,-5.765022 0,-0.04802 -0.0191,-0.09015 -0.08682,-0.12764 -0.06771,-0.03749 -0.184232,-0.07046 -0.379304,-0.0987 -0.390144,-0.05649 -1.094751,-0.09569 -2.35231,-0.122989 -2.515121,-0.05461 -7.242067,-0.06098 -16.090493,-0.06098 -3.279936,0 -5.432332,0.02156 -8.015015,0.03566 z"
       id="path4550"
       inkscape:connector-curvature="0" />
    <path
       style="fill:#ffffff;fill-opacity:1;stroke:none;stroke-width:1.33201277;stroke-linecap:round;stroke-linejoin:miter;stroke-miterlimit:4;stroke-dasharray:none;stroke-dashoffset:0;stroke-opacity:1"
       clip-path="none"
       d="m 256.77244,31.312814 c -1.83172,0.02365 -3.39583,0.07363 -4.40283,0.152961 -1.65063,0.130029 -3.24875,0.291316 -4.79454,0.484724 -1.5458,0.193408 -3.03967,0.418963 -4.48087,0.675929 -1.4412,0.256966 -2.82983,0.545391 -4.16667,0.866097 -1.33683,0.320704 -2.62185,0.673709 -3.85454,1.058334 -1.2327,0.384622 -2.41312,0.800814 -3.54191,1.249534 -1.12878,0.44872 -2.20571,0.929809 -3.2308,1.442807 -1.02511,0.512996 -1.99859,1.058106 -2.92024,1.635559 -0.92165,0.577451 -1.79176,1.18726 -2.61018,1.829345 -0.81842,0.642088 -1.58521,1.316749 -2.30063,2.02365 -0.71542,0.7069 -1.37947,1.446059 -1.99213,2.217952 -0.61265,0.771895 -1.1735,1.576223 -1.68362,2.413288 -0.51011,0.837068 -0.96937,1.706727 -1.37717,2.609144 -0.40781,0.902419 -0.7645,1.837565 -1.07022,2.805514 -0.30572,0.967949 -0.56043,1.968741 -0.7643,3.002399 -0.20386,1.033661 -0.35664,2.100257 -0.45888,3.199808 -0.10225,1.099547 -0.15367,2.232104 -0.15452,3.397723 -7.9e-4,1.220989 0.0629,2.357231 0.19637,3.423563 0.13348,1.066334 0.33664,2.06289 0.6134,3.004987 0.13839,0.471048 0.2949,0.928383 0.47078,1.374076 0.17588,0.445691 0.37099,0.87966 0.58549,1.303795 0.42899,0.848273 0.93637,1.657366 1.52652,2.442229 0.54065,0.719026 1.15678,1.406377 1.84847,2.06189 0.69169,0.655513 1.45875,1.27903 2.30063,1.870686 0.84189,0.591656 1.75899,1.151514 2.75022,1.678966 0.99123,0.527455 2.05646,1.022276 3.19619,1.485183 1.13973,0.462905 2.35374,0.893895 3.64112,1.29191 1.28738,0.398016 2.64826,0.763276 4.08244,1.096058 1.43418,0.33278 2.94155,0.633 4.52169,0.900202 1.58014,0.267203 3.2331,0.501521 4.95835,0.7028 1.23482,0.144063 2.38175,0.298582 3.44475,0.465087 1.063,0.166508 2.04194,0.344646 2.94091,0.536919 0.89896,0.192273 1.71812,0.398235 2.46083,0.619609 0.74271,0.221351 1.40925,0.458312 2.00349,0.7121 0.59424,0.253762 1.11587,0.524378 1.56942,0.813885 0.45354,0.289533 0.83898,0.597984 1.15962,0.92657 0.32064,0.328587 0.57653,0.677545 0.77204,1.048518 0.19551,0.370946 0.33059,0.764143 0.40876,1.180809 0.0496,0.264583 0.0579,0.625501 0.0331,1.036611 -0.0248,0.411136 -0.0827,0.87249 -0.16537,1.336886 -0.0826,0.464397 -0.18981,0.931598 -0.31367,1.35599 -0.12387,0.424392 -0.26439,0.805471 -0.4129,1.096566 -0.15315,0.300196 -0.38144,0.626453 -0.66094,0.95758 -0.2795,0.331099 -0.61016,0.667411 -0.96842,0.987001 -0.35826,0.31959 -0.74382,0.622724 -1.13326,0.888312 -0.38944,0.265615 -0.78297,0.493845 -1.156,0.66302 -0.32761,0.14859 -0.68335,0.279505 -1.05937,0.39275 -0.37602,0.11324 -0.77213,0.20859 -1.18081,0.28628 -0.81734,0.15536 -1.68396,0.23934 -2.53731,0.25114 -0.85335,0.0119 -1.69349,-0.0484 -2.4567,-0.1819 -0.3816,-0.0667 -0.7441,-0.1519 -1.07952,-0.25527 -0.33542,-0.1034 -0.64379,-0.22511 -0.91725,-0.365365 -0.31437,-0.161237 -0.60319,-0.345043 -0.86662,-0.552927 -0.26342,-0.207909 -0.50149,-0.43979 -0.71468,-0.696595 -0.2132,-0.256831 -0.40114,-0.539009 -0.56483,-0.846984 -0.16369,-0.308001 -0.30316,-0.642144 -0.41806,-1.003564 -0.1149,-0.361421 -0.20551,-0.749724 -0.27233,-1.166839 -0.0668,-0.417116 -0.10972,-0.862833 -0.12919,-1.337919 -0.0389,-0.950145 0.0161,-2.018241 0.16226,-3.213761 l 0.18345,-1.4986 -18.03817,0.06149 -18.03766,0.06099 -0.22841,0.958083 c -0.0629,0.263472 -0.12259,0.961549 -0.16795,1.87325 -0.0454,0.911728 -0.0762,2.037107 -0.0822,3.156929 -0.006,1.191048 0.004,2.158524 0.0496,2.994634 0.0458,0.836136 0.12711,1.541068 0.26252,2.206608 0.13541,0.66553 0.32501,1.29209 0.58756,1.97146 0.26255,0.67934 0.59806,1.41171 1.02526,2.28925 0.24083,0.49469 0.44909,0.90279 0.65784,1.26762 0.20876,0.36484 0.41762,0.68615 0.65939,1.00769 0.48356,0.6431 1.09854,1.28593 2.10478,2.27531 0.87761,0.86292 1.60006,1.51358 2.32958,2.07585 0.72952,0.56226 1.466,1.03626 2.37091,1.5472 0.72702,0.41047 1.47158,0.79597 2.24017,1.15805 0.76861,0.36211 1.5611,0.70089 2.38332,1.01751 0.82222,0.31666 1.67424,0.61114 2.56212,0.88522 0.88788,0.27411 1.81203,0.52776 2.77761,0.76224 0.96557,0.23447 1.97293,0.45024 3.02824,0.64801 1.05531,0.19778 2.15848,0.37757 3.31556,0.54158 2.31416,0.328 4.8438,0.59156 7.63726,0.80201 1.12226,0.0846 5.13227,0.0667 9.17721,-0.004 4.04494,-0.0704 8.1248,-0.19336 9.38651,-0.31938 1.84327,-0.18409 3.59801,-0.39798 5.26996,-0.64336 1.67194,-0.24537 3.2613,-0.52231 4.77283,-0.83301 1.51154,-0.3107 2.94519,-0.65503 4.30724,-1.03508 1.36204,-0.38007 2.65226,-0.79555 3.87575,-1.24902 1.22345,-0.45349 2.38048,-0.94496 3.47625,-1.4759 1.0958,-0.53091 2.13037,-1.10167 3.10938,-1.7141 0.97901,-0.6124 1.90238,-1.26627 2.77553,-1.96421 0.87316,-0.69797 1.69606,-1.43973 2.47428,-2.22727 0.58478,-0.59179 1.13255,-1.19387 1.64537,-1.80969 0.51284,-0.61585 0.99099,-1.24563 1.43507,-1.89291 0.44405,-0.6473 0.85447,-1.3122 1.23299,-1.99835 0.37851,-0.68614 0.72511,-1.39353 1.04129,-2.125955 0.31615,-0.732419 0.60185,-1.489736 0.85884,-2.27584 0.25701,-0.786077 0.48524,-1.600729 0.68627,-2.447898 0.20103,-0.847196 0.37471,-1.727068 0.52298,-2.642738 0.14824,-0.915696 0.27077,-1.867164 0.36946,-2.858743 0.0796,-0.799836 0.121,-1.625627 0.1256,-2.451524 0.005,-0.825915 -0.0274,-1.651841 -0.0936,-2.452052 -0.0661,-0.800214 -0.16655,-1.574805 -0.29919,-2.297536 -0.13263,-0.72273 -0.29765,-1.39401 -0.49249,-1.987476 -0.29737,-0.905862 -0.6585,-1.773809 -1.08469,-2.604492 -0.42616,-0.83068 -0.91718,-1.623988 -1.47381,-2.380731 -0.55663,-0.756746 -1.17882,-1.476545 -1.86758,-2.160593 -0.68874,-0.684046 -1.44399,-1.332508 -2.26653,-1.9451 -0.82254,-0.612593 -1.71262,-1.1893 -2.67063,-1.731677 -0.958,-0.542377 -1.98429,-1.050017 -3.0794,-1.52342 -1.09511,-0.473406 -2.25891,-0.912593 -3.49282,-1.318268 -1.23391,-0.405673 -2.53754,-0.778061 -3.91189,-1.117243 -1.64679,-0.406416 -6.44353,-1.334932 -10.6593,-2.063441 -4.17702,-0.72182 -7.16763,-1.284372 -9.26042,-1.75183 -1.0464,-0.23373 -1.86865,-0.443386 -2.50217,-0.637688 -0.63352,-0.194302 -1.07822,-0.373171 -1.37098,-0.544152 -0.20832,-0.121666 -0.46141,-0.325213 -0.70073,-0.555006 -0.23932,-0.229794 -0.46533,-0.485627 -0.62012,-0.712618 -0.1232,-0.180687 -0.21873,-0.335738 -0.29197,-0.489892 -0.0732,-0.154155 -0.12381,-0.30778 -0.15606,-0.484725 -0.0645,-0.353893 -0.0559,-0.80255 -0.0104,-1.543576 0.0306,-0.497317 0.0993,-0.971312 0.20567,-1.421617 0.10643,-0.450308 0.25056,-0.876885 0.43098,-1.278475 0.18043,-0.40159 0.39699,-0.778481 0.64958,-1.129646 0.25258,-0.351169 0.54113,-0.676617 0.86403,-0.975651 0.3229,-0.299038 0.68039,-0.571807 1.07177,-0.817007 0.39137,-0.245198 0.81633,-0.463018 1.27434,-0.652672 0.458,-0.189656 0.94895,-0.350771 1.47174,-0.483174 0.52279,-0.132405 1.07773,-0.236098 1.66347,-0.309544 0.95005,-0.119126 1.84698,-0.155789 2.67787,-0.114721 0.83089,0.04107 1.59567,0.160333 2.28048,0.353984 0.3424,0.09683 0.665,0.212172 0.96583,0.345715 0.30084,0.133543 0.57971,0.284927 0.83561,0.454237 0.2559,0.169309 0.48848,0.356563 0.69608,0.560689 0.20762,0.204123 0.39029,0.425021 0.54624,0.663009 0.19754,0.301513 0.35168,0.715189 0.46146,1.200443 0.1098,0.485251 0.17542,1.042474 0.19481,1.631942 0.0193,0.589465 -0.007,1.211056 -0.0806,1.82521 -0.0736,0.614156 -0.1946,1.220935 -0.3638,1.780254 -0.0151,0.04956 -0.014,0.09321 0.031,0.131776 0.045,0.03856 0.13398,0.07183 0.29406,0.100769 0.32012,0.05788 0.92564,0.09795 2.03758,0.125574 2.22393,0.05524 6.47298,0.06098 14.51438,0.06098 h 17.00411 l 0.13748,-0.658874 c 0.18404,-0.87961 0.32049,-1.746792 0.40928,-2.599324 0.0888,-0.852533 0.12999,-1.6905 0.12454,-2.511992 -0.006,-0.821491 -0.0579,-1.626287 -0.15658,-2.412772 -0.0987,-0.786485 -0.24366,-1.554673 -0.43461,-2.302185 -0.19095,-0.747514 -0.42788,-1.474618 -0.71003,-2.179195 -0.28218,-0.704578 -0.6095,-1.386642 -0.98184,-2.044319 -0.37238,-0.657678 -0.78955,-1.290749 -1.25111,-1.89756 -0.46157,-0.606811 -0.96748,-1.187447 -1.5172,-1.739429 -0.72885,-0.731795 -1.46103,-1.388184 -2.22623,-1.986957 -0.7652,-0.598776 -1.56377,-1.139899 -2.4257,-1.640727 -0.86194,-0.500829 -1.787,-0.961442 -2.80602,-1.399399 -1.01904,-0.437955 -2.13177,-0.853329 -3.36827,-1.263489 -0.72634,-0.240932 -1.57131,-0.486362 -2.48719,-0.726054 -0.91588,-0.239691 -1.90259,-0.473186 -2.91198,-0.690914 -1.00936,-0.217726 -2.04163,-0.419759 -3.04837,-0.594794 -1.00677,-0.175035 -1.9884,-0.323498 -2.89647,-0.435115 -0.82492,-0.101399 -2.25237,-0.187031 -3.99304,-0.253733 -1.74067,-0.0667 -3.79415,-0.114512 -5.87046,-0.139525 -2.07628,-0.025 -4.17566,-0.02728 -6.00738,-0.0036 z"
       id="path4553"
       inkscape:connector-curvature="0" />
  </g>
</svg>
