<?xml version="1.0" encoding="UTF-8" standalone="no"?>
<svg
   xmlns:dc="http://purl.org/dc/elements/1.1/"
   xmlns:cc="http://creativecommons.org/ns#"
   xmlns:rdf="http://www.w3.org/1999/02/22-rdf-syntax-ns#"
   xmlns:svg="http://www.w3.org/2000/svg"
   xmlns="http://www.w3.org/2000/svg"
   xmlns:sodipodi="http://sodipodi.sourceforge.net/DTD/sodipodi-0.dtd"
   xmlns:inkscape="http://www.inkscape.org/namespaces/inkscape"
   width="1000"
   height="1000"
   version="1.1"
   id="svg9491"
   sodipodi:docname="msa_old.svg"
   inkscape:version="0.92.2 (5c3e80d, 2017-08-06)">
  <metadata
     id="metadata9497">
    <rdf:RDF>
      <cc:Work
         rdf:about="">
        <dc:format>image/svg+xml</dc:format>
        <dc:type
           rdf:resource="http://purl.org/dc/dcmitype/StillImage" />
        <dc:title></dc:title>
      </cc:Work>
    </rdf:RDF>
  </metadata>
  <defs
     id="defs9495" />
  <sodipodi:namedview
     pagecolor="#ffffff"
     bordercolor="#666666"
     borderopacity="1"
     objecttolerance="10"
     gridtolerance="10"
     guidetolerance="10"
     inkscape:pageopacity="0"
     inkscape:pageshadow="2"
     inkscape:window-width="1920"
     inkscape:window-height="1027"
     id="namedview9493"
     showgrid="false"
     inkscape:zoom="0.858"
     inkscape:cx="454.54545"
     inkscape:cy="500"
     inkscape:window-x="-8"
     inkscape:window-y="-8"
     inkscape:window-maximized="1"
     inkscape:current-layer="svg9491" />
  <mask
     id="_1">
    <g
       id="g9487">
      <path
         d="M 0,0 1000,0 1000,1000 0,1000 0,0 Z"
         style="stroke:none; fill:white"
         id="path9483" />
      <path
         d="M 415.999949,536.999941 C 415.999949,536.999941 578.999996,536.999941 578.999996,536.999941 C 578.999996,536.999941 582.999945,498.999953 611.999989,498.999953 C 640.999973,498.999953 647.999942,524.999976 647.999942,536.999941 C 647.999942,548.999965 647.999942,561.999977 647.999942,561.999977 C 647.999942,561.999977 596.876860,558.321416 561.999977,564.999998 C 514.999986,573.999941 492.999971,598.999977 492.999971,598.999977 C 492.999971,598.999977 473.999977,576.999962 435.999990,567.999959 C 397.999942,558.999956 356.999993,558.999956 356.999993,536.999941 C 356.999993,514.999986 372.999966,509.999990 385.999978,509.999990 C 410.999954,509.999990 415.999949,536.999941 415.999949,536.999941 Z M 415.999949,536.999941 C 415.999949,536.999941 578.999996,536.999941 578.999996,536.999941 C 578.999996,536.999941 582.999945,498.999953 611.999989,498.999953 C 640.999973,498.999953 647.999942,524.999976 647.999942,536.999941 C 647.999942,548.999965 647.999942,561.999977 647.999942,561.999977 C 647.999942,561.999977 596.876860,558.321416 561.999977,564.999998 C 514.999986,573.999941 492.999971,598.999977 492.999971,598.999977 C 492.999971,598.999977 473.999977,576.999962 435.999990,567.999959 C 397.999942,558.999956 356.999993,558.999956 356.999993,536.999941 C 356.999993,514.999986 372.999966,509.999990 385.999978,509.999990 C 410.999954,509.999990 415.999949,536.999941 415.999949,536.999941 Z M 546.999991,456.999958 C 546.999991,456.999958 546.999991,392.999947 546.999991,375.999987 C 546.999991,358.999968 557.999969,322.999954 584.999979,322.999954 C 611.999989,322.999954 631.999969,336.999953 631.999969,378.999949 C 631.999969,420.999944 631.999969,448.999941 631.999969,448.999941 C 631.999969,448.999941 606.999993,444.999993 592.999995,444.999993 C 563.999951,444.999993 546.999991,456.999958 546.999991,456.999958 Z M 366.999984,449.999988 C 366.999984,449.999988 366.999984,396.999955 366.999984,377.999961 C 366.999984,358.999968 375.000000,320.999980 406.999946,320.999980 C 438.999951,320.999980 455.999970,347.999990 455.999970,379.999995 C 455.999970,411.999941 455.999970,456.999958 455.999970,456.999958 C 455.999970,456.999958 436.999977,438.999951 408.999979,438.999951 C 380.999982,438.999951 366.999984,449.999988 366.999984,449.999988 Z M 647.999942,595.999956 C 647.999942,595.999956 625.999987,596.999943 603.999972,601.999998 C 581.999958,606.999993 561.999977,623.999953 567.999959,647.999942 C 573.999941,671.999991 596.566439,680.378854 614.999950,671.999991 C 647.999942,656.999946 647.999942,595.999956 647.999942,595.999956 Z"
         style="stroke:none; fill:black"
         fill-rule="nonzero"
         id="path9485" />
    </g>
  </mask>
  <path
     inkscape:connector-curvature="0"
     d="m 501.29506,133.19603 c 0,0 365.50892,368.09903 365.50892,368.09903 0,0 -368.09904,365.50891 -368.09904,365.50891 0,0 -365.50891,-368.09903 -365.50891,-368.09903 0,0 368.09903,-365.50891 368.09903,-365.50891 z"
     style="fill:#e51b23;fill-rule:nonzero;stroke:none"
     inkscape:label="Shape 1"
     id="Shape 1" />
  <path
     inkscape:connector-curvature="0"
     d="m 366.99998,275.99996 c 0,0 -97,0 -97,0 0,0 5,7.00003 5,18.00001 0,10.99998 0,239.00002 0,250.99999 0,12.00002 9.99999,45.00001 34.99996,53.00003 25.00004,7.99996 83.00001,27.00001 96.00002,30.99996 13.00001,4.00001 28.99998,26.00002 8.00001,40.00002 -21.00002,14 -37.88471,4.46916 -46.99999,-0.99999 -14.99998,-9 -14,-26.00002 -14,-26.00002 0,0 -80.00004,0 -80.00004,0 0,0 -6.44308,40.17603 22.00002,60 32.99999,23 60.99999,26.00003 101.99999,26.00003 77.00003,0 96.00002,-37.99999 96.00002,-37.99999 0,0 19.99998,37.99999 73.00002,37.99999 59.00001,0 81.99995,-47 81.99995,-47 0,0 0,34.99997 0,34.99997 0,0 87.00001,0 87.00001,0 0,0 -5.99998,-10.99998 -5.99998,-23 0,-11.99997 0,-301 0,-320.99998 0,-19.99998 -1.99997,-53.00003 -28,-77.00002 -26.00002,-23.99999 -54.00002,-28 -77.00002,-28 -67.99996,0 -84.99998,51 -84.99998,51 0,0 -16.00003,-51 -78,-51 -71.99997,0 -93.99999,50.00001 -93.99999,50.00001 0,0 0,-41.00001 0,-41.00001 z"
     mask="url(#_1)"
     style="fill:#ffffff;fill-rule:nonzero;stroke:#e51b24;stroke-width:10;stroke-miterlimit:4;stroke-dasharray:none;stroke-opacity:1;paint-order:stroke fill markers"
     inkscape:label="Shape 2"
     id="Shape 2"
     transform="translate(2.110988,-0.19601)" />
</svg>
