<?xml version="1.0" encoding="UTF-8" standalone="no"?>
<svg
   xmlns:dc="http://purl.org/dc/elements/1.1/"
   xmlns:cc="http://creativecommons.org/ns#"
   xmlns:rdf="http://www.w3.org/1999/02/22-rdf-syntax-ns#"
   xmlns:svg="http://www.w3.org/2000/svg"
   xmlns="http://www.w3.org/2000/svg"
   xmlns:sodipodi="http://sodipodi.sourceforge.net/DTD/sodipodi-0.dtd"
   xmlns:inkscape="http://www.inkscape.org/namespaces/inkscape"
   width="550"
   height="325"
   version="1.1"
   id="svg126"
   sodipodi:docname="NA.svg"
   inkscape:version="0.92.1 r15371">
  <metadata
     id="metadata132">
    <rdf:RDF>
      <cc:Work
         rdf:about="">
        <dc:format>image/svg+xml</dc:format>
        <dc:type
           rdf:resource="http://purl.org/dc/dcmitype/StillImage" />
        <dc:title></dc:title>
      </cc:Work>
    </rdf:RDF>
  </metadata>
  <defs
     id="defs130">
    <mask
       id="_1-0">
      <g
         id="g221">
        <path
           inkscape:connector-curvature="0"
           d="M 0,0 H 550 V 325 H 0 Z"
           style="fill:#ffffff;stroke:none"
           id="path217" />
        <path
           inkscape:connector-curvature="0"
           d="m 277.96794,191.05467 c 15.82181,0 28.64801,12.47649 28.64801,28.29844 0,15.82178 -12.8262,28.64804 -28.64801,28.64804 -14.18485,0 -26.27863,-10.25948 -28.24696,-23.84367 -0.3471,-2.39546 -0.47099,-4.80594 -0.47099,-4.80594 0,0 -14.91668,0 -14.91668,0 0,0 0.16666,-28.29687 0.16666,-28.29687 0,0 27.64596,0 43.46797,0 z"
           style="fill:#000000;fill-rule:nonzero;stroke:none"
           id="path219" />
      </g>
    </mask>
    <mask
       id="_1-9">
      <g
         id="g264">
        <path
           inkscape:connector-curvature="0"
           d="M 0,0 H 550 V 325 H 0 Z"
           style="fill:#ffffff;stroke:none"
           id="path260" />
        <path
           inkscape:connector-curvature="0"
           d="m 191.96792,227.30467 c 15.82181,0 28.64802,12.47648 28.64802,28.29843 0,15.82177 -12.82621,28.64804 -28.64802,28.64804 -14.18482,0 -26.2786,-10.25946 -28.24696,-23.84366 -0.3471,-2.39546 -0.47099,-4.80593 -0.47099,-4.80593 0,0 -14.91665,0 -14.91665,0 0,0 0.16667,-28.29688 0.16667,-28.29688 0,0 27.64592,0 43.46793,0 z"
           style="fill:#000000;fill-rule:nonzero;stroke:none"
           id="path262" />
      </g>
    </mask>
    <mask
       id="_1-2">
      <g
         id="g307">
        <path
           inkscape:connector-curvature="0"
           d="M 0,0 H 550 V 325 H 0 Z"
           style="fill:#ffffff;stroke:none"
           id="path303" />
        <path
           inkscape:connector-curvature="0"
           d="m 277.96794,140.69529 c 15.82181,0 28.64801,-12.47647 28.64801,-28.29842 0,-15.821778 -12.8262,-28.648042 -28.64801,-28.648042 -14.18485,0 -26.27863,10.259481 -28.24696,23.843672 -0.3471,2.39546 -0.47099,4.80592 -0.47099,4.80592 0,0 -14.91668,0 -14.91668,0 0,0 0.16666,28.29687 0.16666,28.29687 0,0 27.64596,0 43.46797,0 z"
           style="fill:#000000;fill-rule:nonzero;stroke:none"
           id="path305" />
      </g>
    </mask>
    <mask
       id="_1-3">
      <g
         id="g350">
        <path
           inkscape:connector-curvature="0"
           d="M 0,0 H 550 V 325 H 0 Z"
           style="fill:#ffffff;stroke:none"
           id="path346" />
        <path
           inkscape:connector-curvature="0"
           d="m 191.96792,104.44531 c 15.82181,0 28.64802,-12.476473 28.64802,-28.298424 0,-15.821778 -12.82621,-28.648041 -28.64802,-28.648041 -14.18482,0 -26.2786,10.259461 -28.24696,23.843655 -0.3471,2.395461 -0.47099,4.805935 -0.47099,4.805935 0,0 -14.91665,0 -14.91665,0 0,0 0.16667,28.296875 0.16667,28.296875 0,0 27.64592,0 43.46793,0 z"
           style="fill:#000000;fill-rule:nonzero;stroke:none"
           id="path348" />
      </g>
    </mask>
  </defs>
  <sodipodi:namedview
     pagecolor="#ffffff"
     bordercolor="#666666"
     borderopacity="1"
     objecttolerance="10"
     gridtolerance="10"
     guidetolerance="10"
     inkscape:pageopacity="0"
     inkscape:pageshadow="2"
     inkscape:window-width="640"
     inkscape:window-height="480"
     id="namedview128"
     showgrid="false"
     inkscape:zoom="0.88181818"
     inkscape:cx="275"
     inkscape:cy="162.5"
     inkscape:window-x="626"
     inkscape:window-y="178"
     inkscape:window-maximized="0"
     inkscape:current-layer="svg126" />
  <mask
     id="_1">
    <g
       id="g122">
      <path
         d="M 0,0 550,0 550,325 0,325 0,0 Z"
         style="stroke:none; fill:white"
         id="path118" />
      <path
         d="M 354.874760,279.513119 C 354.874760,279.513119 354.874760,53.273976 354.874760,53.273976 C 354.874760,53.273976 499.137506,53.273976 499.137506,53.273976 C 499.137506,53.273976 499.137506,279.513119 499.137506,279.513119 C 499.137506,279.513119 354.874760,279.513119 354.874760,279.513119 Z"
         style="stroke:none; fill:black"
         fill-rule="nonzero"
         id="path120" />
    </g>
  </mask>
  <path
     d="M 344.828677,281.522410 C 344.828677,281.522410 344.828677,51.264685 344.828677,51.264685 C 344.828677,46.825936 348.426792,43.227737 352.865484,43.227737 C 352.865484,43.227737 501.146781,43.227737 501.146781,43.227737 C 505.585277,43.227737 509.183589,46.825936 509.183589,51.264685 C 509.183589,51.264685 509.183589,281.522410 509.183589,281.522410 C 509.183589,285.961159 505.585277,289.559358 501.146781,289.559358 C 501.146781,289.559358 352.865484,289.559358 352.865484,289.559358 C 348.426792,289.559358 344.828677,285.961159 344.828677,281.522410 Z"
     fill-rule="nonzero"
     mask="url(#_1)"
     style="stroke: none; fill: rgb(55, 55, 55)"
     inkscape:label="Natty Air copy"
     id="Natty Air copy" />
  <path
     inkscape:connector-curvature="0"
     d="m 364.519,269.869 c 0,0 0,-14.06463 0,-14.06463 0,0 124.97408,0 124.97408,0 0,0 0,14.06463 0,14.06463 0,0 -124.97408,0 -124.97408,0 z m 0,-19.28862 c 0,0 0,-14.06461 0,-14.06461 0,0 124.97408,0 124.97408,0 0,0 0,14.06461 0,14.06461 0,0 -124.97408,0 -124.97408,0 z m 0,-19.2886 c 0,0 0,-14.06463 0,-14.06463 0,0 124.97408,0 124.97408,0 0,0 0,14.06463 0,14.06463 0,0 -124.97408,0 -124.97408,0 z m 0,-19.28862 c 0,0 0,-14.06462 0,-14.06462 0,0 124.97408,0 124.97408,0 0,0 0,14.06462 0,14.06462 0,0 -124.97408,0 -124.97408,0 z m 0,-19.28862 c 0,0 0,-14.0646 0,-14.0646 0,0 124.97408,0 124.97408,0 0,0 0,14.0646 0,14.0646 0,0 -124.97408,0 -124.97408,0 z m 0,-19.2886 c 0,0 0,-14.06443 0,-14.06443 0,0 124.97408,0 124.97408,0 0,0 0,14.06443 0,14.06443 0,0 -124.97408,0 -124.97408,0 z m 0,-19.28842 c 0,0 0,-14.06461 0,-14.06461 0,0 124.97408,0 124.97408,0 0,0 0,14.06461 0,14.06461 0,0 -124.97408,0 -124.97408,0 z m 0,-19.2886 c 0,0 0,-14.06463 0,-14.06463 0,0 124.97408,0 124.97408,0 0,0 0,14.06463 0,14.06463 0,0 -124.97408,0 -124.97408,0 z m 0,-19.28862 c 0,0 0,-14.06461 0,-14.06461 0,0 124.97408,0 124.97408,0 0,0 0,14.06461 0,14.06461 0,0 -124.97408,0 -124.97408,0 z m 0,-19.288595 c 0,0 0,-14.064627 0,-14.064627 0,0 124.97408,0 124.97408,0 0,0 0,14.064627 0,14.064627 0,0 -124.97408,0 -124.97408,0 z m 0,-19.288619 c 0,0 0,-14.064626 0,-14.064626 0,0 124.97408,0 124.97408,0 0,0 0,14.064626 0,14.064626 0,0 -124.97408,0 -124.97408,0 z"
     style="fill:#373737;fill-rule:nonzero;stroke:none"
     inkscape:label="Natty Air copy 2"
     id="Natty Air copy 2" />
  <path
     transform="translate(-4.04e-4,-1.7e-4)"
     inkscape:connector-curvature="0"
     d="m 277.96794,262.32517 c 23.7327,0 42.97196,-19.2394 42.97196,-42.97206 0,-23.73285 -19.23926,-42.97205 -42.97196,-42.97205 -23.73294,0 -42.97216,19.2392 -42.97216,42.97205 0,23.73266 19.23922,42.97206 42.97216,42.97206 z M 27.472404,191.05448 c 0,0 250.495536,0 250.495536,0 0,0 0,-14.67342 0,-14.67342 0,0 -250.495536,0 -250.495536,0 0,0 0,14.67342 0,14.67342 z"
     mask="url(#_1-0)"
     style="fill:#373737;fill-rule:nonzero;stroke:none"
     inkscape:label="Natty Air copy 3"
     id="Natty Air copy 3" />
  <path
     transform="translate(-4.02e-4,-1.5e-4)"
     inkscape:connector-curvature="0"
     d="m 191.96792,298.57515 c 23.7327,0 42.97196,-19.2394 42.97196,-42.97205 0,-23.73285 -19.23926,-42.97206 -42.97196,-42.97206 -23.73293,0 -42.97216,19.23921 -42.97216,42.97206 0,23.73265 19.23923,42.97205 42.97216,42.97205 z M 63.222402,227.30446 c 0,0 128.745518,0 128.745518,0 0,0 0,-14.67342 0,-14.67342 0,0 -128.745518,0 -128.745518,0 0,0 0,14.67342 0,14.67342 z"
     mask="url(#_1-9)"
     style="fill:#373737;fill-rule:nonzero;stroke:none"
     inkscape:label="Natty Air copy 3"
     id="Natty Air copy 3-0" />
  <path
     transform="translate(-4.04e-4,8e-5)"
     inkscape:connector-curvature="0"
     d="m 277.96794,69.424817 c 23.7327,0 42.97196,19.239396 42.97196,42.972053 0,23.73285 -19.23926,42.97205 -42.97196,42.97205 -23.73294,0 -42.97216,-19.2392 -42.97216,-42.97205 0,-23.732657 19.23922,-42.972053 42.97216,-42.972053 z M 27.472404,140.69551 c 0,0 250.495536,0 250.495536,0 0,0 0,14.67341 0,14.67341 0,0 -250.495536,0 -250.495536,0 0,0 0,-14.67341 0,-14.67341 z"
     mask="url(#_1-2)"
     style="fill:#373737;fill-rule:nonzero;stroke:none"
     inkscape:label="Natty Air copy 3"
     id="Natty Air copy 3-5" />
  <path
     transform="translate(-4.02e-4,6e-5)"
     inkscape:connector-curvature="0"
     d="m 191.96792,33.174834 c 23.7327,0 42.97196,19.239396 42.97196,42.972052 0,23.73285 -19.23926,42.972054 -42.97196,42.972054 -23.73293,0 -42.97216,-19.239204 -42.97216,-42.972054 0,-23.732656 19.23923,-42.972052 42.97216,-42.972052 z M 63.222402,104.44552 c 0,0 128.745518,0 128.745518,0 0,0 0,14.67342 0,14.67342 0,0 -128.745518,0 -128.745518,0 0,0 0,-14.67342 0,-14.67342 z"
     mask="url(#_1-3)"
     style="fill:#373737;fill-rule:nonzero;stroke:none"
     inkscape:label="Natty Air copy 3"
     id="Natty Air copy 3-9" />
</svg>
