<?xml version="1.0" encoding="UTF-8" standalone="no"?>
<svg
   xmlns:dc="http://purl.org/dc/elements/1.1/"
   xmlns:cc="http://creativecommons.org/ns#"
   xmlns:rdf="http://www.w3.org/1999/02/22-rdf-syntax-ns#"
   xmlns:svg="http://www.w3.org/2000/svg"
   xmlns="http://www.w3.org/2000/svg"
   xmlns:sodipodi="http://sodipodi.sourceforge.net/DTD/sodipodi-0.dtd"
   xmlns:inkscape="http://www.inkscape.org/namespaces/inkscape"
   xml:space="preserve"
   height="160"
   viewBox="0 0 160.00077 160.00008"
   width="160"
   version="1.1"
   id="svg4590"
   sodipodi:docname="pitt_seal.svg"
   inkscape:version="0.92.1 r15371"><metadata
     id="metadata4596"><rdf:RDF><cc:Work
         rdf:about=""><dc:format>image/svg+xml</dc:format><dc:type
           rdf:resource="http://purl.org/dc/dcmitype/StillImage" /><dc:title></dc:title></cc:Work></rdf:RDF></metadata><defs
     id="defs4594" /><sodipodi:namedview
     pagecolor="#ffffff"
     bordercolor="#666666"
     borderopacity="1"
     objecttolerance="10"
     gridtolerance="10"
     guidetolerance="10"
     inkscape:pageopacity="0"
     inkscape:pageshadow="2"
     inkscape:window-width="638"
     inkscape:window-height="730"
     id="namedview4592"
     showgrid="false"
     inkscape:zoom="1.0404917"
     inkscape:cx="92.777369"
     inkscape:cy="70.022044"
     inkscape:window-x="652"
     inkscape:window-y="0"
     inkscape:window-maximized="0"
     inkscape:current-layer="svg4590" /><g
     transform="matrix(1.25,0,0,-1.25,-64.173265,526.59244)"
     id="g4588"><g
       transform="translate(0.86592,0.86592)"
       id="g4586"><ellipse
         rx="57.650002"
         ry="58.278"
         transform="scale(1,-1)"
         cy="-356.38"
         cx="114.36"
         id="ellipse4568"
         style="fill:#ffffff" /><ellipse
         rx="55.062"
         ry="55.576"
         transform="scale(1,-1)"
         cy="-356.45999"
         cx="114.34"
         id="ellipse4570"
         style="fill:#cdb87d" /><path
         d="m 77.721,21.529 -10.018,0.22461 -0.11133,3.1465 -10.908,0.11133 v 4.0449 l 1.6699,2.1348 -0.55664,3.4824 -1.1133,1.125 -0.66797,7.3027 -16.807,0.44922 c 0,32.021 -2.5622,51.344 33.168,70.557 38.293,-18.541 33.393,-45.956 33.393,-70.672 l -16.362,-0.45 -0.668,-7.189 -1.336,-1.237 -0.334,-3.82 1.557,-1.91 0.225,-3.82 -11.02,0.113 -0.111,-3.596 z m -39.736,57.188 -2.8945,6.6289 -6.2344,-5.2812 5.4551,15.279 c 0,0 -2.4483,1.6864 -3.4844,2.3555 7.3076,16.735 28.641,23.486 33.127,24.42 0,0 0.74434,1.4257 0.85547,2.0996 1.3366,1.7979 15.249,0.44916 15.736,0.0703 0.49064,-0.37952 0.29242,-0.51982 0.4043,-1.9805 19.143,-4.4942 27.829,-14.717 33.617,-24.492 0,0 -2.0048,-1.5739 -3.5645,-2.6973 1.2248,-2.1345 4.0088,-9.9991 5.1211,-14.605 l -5.6758,4.6055 c 0,0 -1.6694,-4.1556 -3.1172,-6.4023 -2.451,11.909 -7.2375,17.302 -7.5703,17.863 -0.33484,0.56168 1.669,2.0232 2.3359,2.4727 -9.5725,10.224 -18.141,12.583 -20.479,13.369 -2.3377,0.78607 -3.5625,1.0117 -3.5625,1.0117 0,0 0.44497,1.3479 -0.22266,1.5723 -0.66831,0.22512 -10.348,0.10547 -10.348,0.10547 l 0.10742,-0.66797 c 0,0 -0.22318,-1.0108 -1.002,-1.4609 -6.5679,-0.67387 -16.474,-7.3019 -18.365,-8.6504 -1.8924,-1.3478 -4.7871,-5.5059 -4.7871,-5.5059 0,0 1.7819,-1.5723 2.2656,-2.4727 -3.3018,-2.9227 -6.0493,-12.019 -7.7188,-17.637 z"
         transform="matrix(0.8,0,0,-0.8,56.285,415.14)"
         id="path4572"
         inkscape:connector-curvature="0"
         style="fill:#ffffff" /><g
         id="g4580"
         style="fill:#cdb87d"><path
           d="m 110.09,394.95 1.7813,-2.0672 -0.80143,-2.6966 h -2.4938 l -0.0889,0.62942 1.1577,1.2583 0.44518,2.8761 z"
           id="path4574"
           inkscape:connector-curvature="0" /><path
           d="m 117.22,393.25 1.7807,1.5281 0.0889,-2.7864 1.5139,-1.8877 -3.0279,0.0898 -0.3557,3.0562 z"
           id="path4576"
           inkscape:connector-curvature="0" /><path
           d="m 91.7,349.68 c -1.6748,5.0182 -2.0085,8.7088 -2.0865,13.474 l 50.027,-0.009 c 0.005,-3.8197 -0.4062,-8.4223 -2.1068,-13.474 l -45.834,0.008 z"
           id="path4578"
           inkscape:connector-curvature="0"
           style="fill-rule:evenodd" /></g><path
         d="M 72.736,0 C 32.628,0 0,32.935 0,73.418 c 0,40.483 32.628,73.412 72.736,73.412 40.108,0 72.734,-32.929 72.734,-73.412 C 145.47,32.935 112.84,0 72.736,0 Z m 0,1.2852 c 39.405,0 71.461,32.359 71.461,72.133 0,39.774 -32.056,72.129 -71.461,72.129 -39.404,0 -71.465,-32.355 -71.465,-72.129 0,-39.774 32.061,-72.133 71.465,-72.133 z m 0,2.1602 c -38.224,0 -69.324,31.39 -69.324,69.973 0,38.582 31.101,69.969 69.324,69.969 38.224,0 69.324,-31.387 69.324,-69.969 0,-38.583 -31.1,-69.973 -69.324,-69.973 z m 0,14.766 c 30.207,0 54.691,24.718 54.691,55.207 0,30.489 -24.485,55.207 -54.691,55.207 -30.207,0 -54.693,-24.718 -54.693,-55.207 0,-30.489 24.487,-55.207 54.693,-55.207 z m -5.6035,2.9805 v 3.2812 h -11.029 v 4.875 c 0,0 1.2454,1.241 1.6914,1.6836 -0.0995,0.68635 -0.41059,2.8364 -0.47852,3.3066 -0.2923,0.29504 -1.1855,1.1992 -1.1855,1.1992 l -0.48828,6.916 h -17.061 v 22.777 c 0,28.787 20.245,42.805 29.094,47.559 -12.428,-2.9248 -19.598,-8.8517 -23.531,-13.604 0.91464,-0.72028 1.741,-1.4403 2.3242,-1.9688 0,0 0.19727,-0.12759 0.19727,-0.41016 0,-0.28258 -0.17774,-0.43164 -0.17774,-0.43164 -5.5791,-5.5981 -7.9272,-18.282 -7.9512,-18.408 l -0.35938,-1.9746 -0.73633,1.8633 c 0,0 -2.1026,5.3029 -2.5918,6.5371 -0.98944,-0.90244 -6.8379,-6.2441 -6.8379,-6.2441 l 0.42188,1.8105 c 0.11252,0.47788 2.0711,8.6884 5.3379,15.252 -1.0505,0.65795 -2.1756,1.3286 -3.3105,1.9395 -0.26829,0.14338 -0.37879,0.47298 -0.25391,0.75 3.8452,8.5388 16.64,21.323 33.799,24.9 0.02813,0.45226 0.04492,0.85488 0.04492,1.1797 0,1.079 1.4542,1.7461 8.6855,1.7461 7.2321,0 8.6816,-0.66705 8.6816,-1.7461 0,-0.32481 0.0187,-0.72743 0.04883,-1.1797 17.158,-3.5779 29.953,-16.362 33.797,-24.9 0.12425,-0.27702 0.0142,-0.60662 -0.25195,-0.75 -1.1356,-0.61085 -2.2635,-1.2815 -3.3106,-1.9395 3.2634,-6.5636 5.222,-14.774 5.3359,-15.252 l 0.42187,-1.8105 c 0,0 -5.8459,5.3417 -6.834,6.2441 -0.4906,-1.2342 -3.332,-8.3984 -3.332,-8.3984 l -0.35742,1.9727 c -0.0226,0.12605 -2.372,12.81 -7.9512,18.408 0,0 -0.40455,0.43732 0.01953,0.8418 0.42061,0.40378 1.4075,1.2485 2.3242,1.9688 -3.9385,4.7518 -11.104,10.679 -23.531,13.604 8.8494,-4.7532 29.092,-18.772 29.092,-47.559 v -22.777 h -17.055 l -0.51367,-6.916 c 0,0 -0.89578,-0.90487 -1.1895,-1.1992 -0.06587,-0.47026 -0.375,-2.6203 -0.47656,-3.3066 0.44464,-0.44255 1.6914,-1.6816 1.6914,-1.6816 v -4.877 h -11.01 V 21.192 h -11.203 z m 1.0508,1.0605 h 1.7715 v 1.3223 h -1.7715 z m 3.623,0 h 1.8496 v 1.3223 h -1.8496 z m 3.7031,0 h 1.7773 v 0.22461 l -0.02148,1.0977 h -1.7559 v -1.3223 z m -7.3262,1.5586 h 0.96289 v 1.3359 H 68.1832 Z m 1.1934,0 h 3.2773 v 1.3359 h -3.2773 z m 3.5059,0 h 3.2754 v 1.3359 h -3.2754 z m 3.5059,0 h 0.86914 l -0.02344,1.3359 h -0.8457 z m -8.2051,1.5742 h 2.7168 v 1.3359 h -1.6035 c -0.496,-0.506 -1.074,-1.101 -1.112,-1.192 v -0.14453 z m 2.9453,0 h 3.2207 v 1.3379 h -3.2207 z m 3.4512,0 h 2.6465 l -0.0059,0.30469 c 0,0 -0.57876,0.57415 -1.0625,1.0312 h -1.5781 v -1.3359 z m -17.428,0.14844 h 1.7695 v 1.1875 h -1.7695 z m 3.625,0 h 1.8477 v 1.1875 h -1.8477 z m 3.7012,0 h 1.7793 v 0.22461 l -0.01953,0.96289 h -1.7598 v -1.1875 z m 14.713,0 h 1.7676 v 1.1875 H 79.191 Z m 3.625,0 h 1.8496 v 1.1875 H 82.816 Z m 3.6992,0 h 1.7793 v 0.22461 l -0.01758,0.96289 h -1.7617 v -1.1875 z m -19.209,0.70898 c 0.35818,0.3546 1.1731,1.1657 1.5176,1.5078 -0.083,0.57208 -0.31118,2.1508 -0.42578,2.9355 h -2.4316 c 0.54824,-0.54368 1.3398,-1.3359 1.3398,-1.3359 v -3.1074 z m 10.836,0.02148 v 3.084 c 0,0 0.79689,0.79422 1.3438,1.3379 H 77.07 c -0.11462,-0.7847 -0.34149,-2.3635 -0.42383,-2.9355 0.33622,-0.33382 1.1263,-1.12 1.4961,-1.4863 z m -20.99,0.69141 h 0.91992 v 1.4512 H 57.1522 Z m 1.1504,0 h 3.2754 v 1.4512 h -3.2754 z m 3.5059,0 h 3.2754 v 1.4512 h -3.2754 z m 3.5059,0 h 0.91797 l -0.0293,1.4512 H 65.3144 Z m 4.2109,0 h 3.1289 v 1.4512 h -2.8184 c 0.0625,-0.34005 0.12459,-0.66489 0.18359,-0.95508 0,0 -0.21556,-0.21559 -0.49414,-0.49609 z m 3.3574,0 h 3.0254 c -0.21202,0.19116 -0.372,0.32969 -0.39258,0.31445 0.0037,0.01388 0.07351,0.50232 0.16406,1.1367 h -2.7969 v -1.4512 z m 6.3086,0 h 0.91992 v 1.4512 H 79.1913 Z m 1.1484,0 h 3.2793 v 1.4512 h -3.2793 z m 3.5078,0 h 3.2754 v 1.4512 h -3.2754 z m 3.5039,0 h 0.91797 l -0.02734,1.4512 H 87.3514 Z m -30.199,1.6855 h 2.6719 v 1.4512 h -1.4707 c -0.51462,-0.52151 -1.1627,-1.1857 -1.2012,-1.2812 v -0.16992 z m 2.9043,0 h 3.2734 v 1.4512 h -3.2734 z m 3.5039,0 h 2.6387 l -0.0059,0.33008 c 0,0 -0.65937,0.65429 -1.1582,1.1211 h -1.4746 v -1.4512 z m 6.2363,0 h 1.1035 v 1.4512 h -1.3555 c 0.07887,-0.45919 0.1607,-0.9546 0.25195,-1.4512 z m 1.332,0 h 3.2207 v 1.4512 h -3.2207 z m 3.4512,0 h 1.1348 c 0.06512,0.46888 0.13853,0.9823 0.20508,1.4512 h -1.3398 v -1.4512 z m 4.6113,0 h 2.6738 v 1.4512 h -1.4727 c -0.51461,-0.52151 -1.1621,-1.1857 -1.2012,-1.2812 v -0.16992 z m 2.9023,0 h 3.2754 v 1.4512 h -3.2754 z m 3.5059,0 h 2.6348 l -0.0059,0.33008 c 0,0 -0.65751,0.65429 -1.1543,1.1211 h -1.4746 v -1.4512 z m -27.016,1.6855 h 2.9941 v 1.4512 h -2.7871 c 0.06587,-0.37052 0.13403,-0.73188 0.19922,-1.0449 0,0 -0.17296,-0.17285 -0.40625,-0.40625 z m 3.2246,0 h 2.9727 c -0.16331,0.14682 -0.27708,0.23902 -0.29492,0.22656 0,0.0038 0.0085,0.05664 0.01953,0.13281 0.0185,0.13366 0.0493,0.35862 0.0918,0.64258 0.01987,0.1399 0.04241,0.28993 0.06641,0.44922 h -2.8555 v -1.4512 z m 7.6953,0 h 3.1504 v 0.35938 h -3.207 c 0.01713,-0.11562 0.03665,-0.23194 0.05664,-0.35938 z m 3.3789,0 h 3.0703 c 0.01788,0.12881 0.03641,0.2444 0.05078,0.35938 h -3.1211 v -0.35938 z m 7.7383,0 h 2.998 v 1.4512 h -2.7891 c 0.02813,-0.15929 0.05648,-0.29616 0.08398,-0.44922 0.03775,-0.20292 0.07611,-0.41772 0.11524,-0.5957 0,0 -0.03508,-0.03312 -0.04883,-0.04687 -0.05213,-0.05262 -0.17411,-0.17308 -0.35938,-0.35938 z m 3.2266,0 H 86.82 c -0.16399,0.14682 -0.27835,0.23902 -0.29687,0.22656 0.005,0.01312 0.08234,0.54866 0.17773,1.2246 h -2.8535 v -1.4512 z m -18.725,1.6445 h 1.4102 v 1.4473 h 1.7227 v -1.4473 h 1.8359 v 1.4473 h 1.7266 v -1.4473 h 1.832 v 1.4473 h 1.7266 v -1.4473 h 1.8359 v 1.4473 h 1.7246 v -1.4473 h 1.4141 c -0.08438,0.57138 -0.40408,2.7293 -0.4082,2.7598 -0.04525,-0.02913 -1.0723,1.0059 -1.0723,1.0059 l -0.08398,0.08594 c 0,0 -0.36141,5.1073 -0.46875,6.6309 h -1.2754 v -4.3574 c 0,-2.3977 -1.9305,-4.3477 -4.3066,-4.3477 -2.3755,0 -4.3105,1.95 -4.3105,4.3477 v 4.3574 h -1.2734 c -0.10684,-1.5235 -0.46875,-6.6309 -0.46875,-6.6309 0,0 -1.2247,-1.2349 -1.2363,-1.248 0.0037,0 0.0059,-0.01258 0.0059,-0.0332 0,-0.25418 -0.22578,-1.8542 -0.33008,-2.5703 z m -6.373,0.03906 h 1.0762 v 1.4531 h -1.3262 c 0.0755,-0.45156 0.16149,-0.95585 0.25,-1.4531 z m 1.3066,0 h 3.2734 v 1.4531 h -3.2734 z m 3.5059,0 h 1.1328 c 0.07,0.4765 0.14242,0.99186 0.20898,1.4531 h -1.3418 v -1.4531 z m 17.227,0 h 1.0762 v 1.4531 h -1.3262 c 0.07612,-0.45156 0.15874,-0.95585 0.25,-1.4531 z m 1.3047,0 h 3.2754 v 1.4531 h -3.2754 z m 3.5059,0 h 1.1328 c 0.06925,0.4765 0.14243,0.99186 0.20898,1.4531 h -1.3418 v -1.4531 z m -27.139,1.6855 h 3.1172 v 1.4531 h -3.5684 c 0.12488,-0.12125 0.22096,-0.21541 0.22852,-0.2168 0.0295,-0.09212 0.11497,-0.58945 0.22266,-1.2363 z m 3.3477,0 h 3.1289 c 0.07887,0.57139 0.14062,1.0147 0.14062,1.041 0,0.0012 0.16894,0.18287 0.37891,0.41211 h -3.6484 v -1.4531 z m 18.691,0 h 3.1191 v 1.4531 h -3.5703 c 0.12488,-0.12125 0.21901,-0.21541 0.22656,-0.2168 0.03088,-0.09213 0.11756,-0.58945 0.22461,-1.2363 z m 3.3477,0 h 3.125 c 0.081,0.57139 0.14258,1.0147 0.14258,1.041 0,0.0012 0.1662,0.18287 0.37891,0.41211 h -3.6465 v -1.4531 z m -11.271,0.55078 v 1.6309 c -0.37534,0.02562 -0.72939,0.13886 -1.043,0.32031 l -0.78711,-1.3887 c 0.54001,-0.33244 1.1618,-0.5341 1.8301,-0.5625 z m 0.31836,0 c 0.67244,0.02838 1.2993,0.23051 1.8379,0.56641 l -0.78906,1.3867 c -0.31358,-0.18422 -0.66869,-0.29664 -1.0488,-0.32227 v -1.6309 z m -2.416,0.74023 0.78516,1.3867 c -0.28406,0.22025 -0.5186,0.50273 -0.68945,0.82617 l -1.2852,-0.75781 c 0.27515,-0.58038 0.68239,-1.0783 1.1895,-1.4551 z m 4.523,0.009 c 0.49678,0.3726 0.90407,0.86486 1.1758,1.4355 l -1.2871,0.76367 C 74.72244,36.87616 74.49345,36.59846 74.21213,36.3803 l 0.789,-1.386 z m -17.227,0.38672 h 2.0508 v 1.4512 h -2.7051 c 0.04525,-0.51112 0.07547,-0.85499 0.08984,-0.88476 0,0 0.29205,-0.29353 0.56445,-0.56641 z m 2.2832,0 h 3.2734 v 1.4512 h -3.2734 z m 3.5059,0 h 2.1055 c 0.28132,0.31305 0.56678,0.63835 0.59766,0.70898 l 0.05273,0.74219 h -2.7559 v -1.4512 z m 16.248,0 h 2.0547 v 1.4512 h -2.709 l 0.0918,-0.88476 c 0,0 0.29148,-0.29353 0.5625,-0.56641 z m 2.2832,0 h 3.2754 v 1.4512 h -3.2754 z m 3.5059,0 h 2.1074 c 0.28132,0.31305 0.56677,0.63835 0.59766,0.70898 l 0.05273,0.74219 h -2.7578 v -1.4512 z m -9.2949,1.3457 c 0.15987,0.42731 0.26172,0.88503 0.26172,1.3691 v 0.15039 h -1.3906 c -0.01125,-0.26595 -0.06325,-0.51958 -0.15039,-0.75781 l 1.2793,-0.76172 z m -7.1406,0.01172 1.2793,0.75586 c -0.08713,0.23686 -0.13962,0.48808 -0.14648,0.75195 h -1.3906 v -0.15039 c 0,-0.47995 0.09725,-0.93356 0.25781,-1.3574 z m -12.064,0.32812 h 0.002 0.9707 v 1.4512 h -1.0859 c 0.03837,-0.53605 0.07904,-1.0349 0.11328,-1.4512 z m 1.2031,0 h 3.2754 v 1.4512 h -3.2754 z m 3.5059,0 h 3.2754 v 1.4512 h -3.2754 z m 3.5078,0 h 1.0195 l 0.10156,1.4512 h -1.1211 v -1.4512 z m 13.822,0 h 0.97266 v 1.4512 h -1.0859 c 0.03775,-0.53605 0.07829,-1.0349 0.11328,-1.4512 z m 1.2012,0 h 3.2793 v 1.4512 h -3.2793 z m 3.5078,0 h 3.2754 v 1.4512 h -3.2754 z m 3.5039,0 h 1.0215 l 0.10352,1.4512 h -1.125 v -1.4512 z m -65.441,0.55274 c -0.04322,3.402 -0.81437,5.6081 -4.2891,7.6914 -0.01715,-0.24379 -0.02486,-0.46582 -0.03516,-0.69922 -0.0055,-0.088 -0.01088,-0.17848 -0.01367,-0.26367 -0.0027,-0.10388 -0.01758,-0.21932 -0.01758,-0.31836 0,-3.1928 1.2355,-4.8865 4.3555,-6.4102 z m 102.14,0 c 3.1192,1.5237 4.3555,3.2174 4.3555,6.4102 0,0.08662 -0.009,0.18799 -0.0137,0.27734 -0.002,0.12125 -0.0111,0.25022 -0.0176,0.37695 -0.0144,0.20985 -0.0173,0.40684 -0.0332,0.625 -3.4754,-2.084 -4.2457,-4.2882 -4.291,-7.6895 z m -55.141,0.94726 h 1.3809 v 1.2656 h -1.3809 z m 6.2754,0.002 h 1.3848 v 1.2637 h -1.3848 z m -18.213,0.18359 h 2.8555 v 1.4492 h -2.9648 c 0.03637,-0.48065 0.071,-0.97342 0.10938,-1.4492 z m 3.0879,0 h 3.2734 v 1.4492 h -3.2734 z m 3.5059,0 h 2.8926 l 0.10156,1.4492 h -2.9941 v -1.4492 z m 15.445,0 h 2.8574 v 1.4492 h -2.9688 c 0.03838,-0.48065 0.07357,-0.97342 0.11133,-1.4492 z m 3.0859,0 h 3.2754 v 1.4492 h -3.2754 z m 3.5059,0 h 2.8945 l 0.09961,1.4492 h -2.9941 v -1.4492 z m -16.693,1.4004 h 1.3809 v 1.2656 h -1.3809 z m 6.2754,0 h 1.3848 v 1.2656 h -1.3848 z m 54.924,0.18359 c 0.16056,0.2978 0.37109,0.67969 0.37109,0.67969 0.81722,1.4551 1.6524,2.9395 1.6524,4.8379 0,1.2072 -0.38064,2.6015 -1.2754,4.2422 -0.1489,-0.20915 -0.27835,-0.39484 -0.39844,-0.57422 -0.56333,-1.6102 -0.90199,-2.1288 -1.4434,-2.8477 -0.0281,-0.0935 -0.0578,-0.18543 -0.0859,-0.28516 l -0.21094,-0.69141 c -0.013,-0.14059 -0.0168,-0.28071 -0.0195,-0.41992 0.0157,-0.2424 0.0275,-0.47458 0.0371,-0.70312 0.10838,-1.257 0.59426,-2.5733 1.373,-4.2383 z m -114.25,0.002 c 0.80417,1.7169 1.2951,3.0634 1.3809,4.373 0.0069,0.16899 0.01499,0.33832 0.02734,0.51562 -0.0055,0.16691 -0.0095,0.33492 -0.02734,0.50391 -0.0034,0.0012 -0.20117,0.65625 -0.20117,0.65625 -0.0295,0.10112 -0.05977,0.19361 -0.08789,0.28711 -0.54206,0.71751 -0.88071,1.2373 -1.4434,2.8496 -0.12214,0.17868 -0.25092,0.3638 -0.39844,0.57226 -0.89269,-1.64 -1.2734,-3.035 -1.2734,-4.2422 0,-1.8984 0.83376,-3.3847 1.6523,-4.8398 0,0 0.20779,-0.37798 0.37109,-0.67578 z m 40.988,0.10352 h 1.2305 v 1.4473 h -1.3359 c 0.03088,-0.42594 0.06571,-0.9202 0.10547,-1.4473 z m 1.4609,0 h 3.2734 v 1.4473 h -3.2734 z m 3.5059,0 h 3.2754 v 1.4473 h -3.2754 z m 3.5059,0 h 1.2578 l 0.10547,1.4473 h -1.3633 v -1.4473 z m 13.564,0 h 1.2305 v 1.4473 h -1.334 c 0.03087,-0.42594 0.06439,-0.9202 0.10352,-1.4473 z m 1.4609,0 h 3.2773 v 1.4473 h -3.2773 z m 3.5078,0 h 3.2754 v 1.4473 h -3.2754 z m 3.5039,0 h 1.2598 l 0.10352,1.4473 h -1.3633 v -1.4473 z m -18.445,1.2969 h 1.3809 v 0.71484 h -1.3809 z m 6.2754,0 h 1.3848 v 0.71484 h -1.3848 z m -18.463,0.38477 h 3.1055 v 0.33008 h -3.1289 c 0.01049,-0.1511 0.0096,-0.13134 0.02344,-0.33008 z m 3.3379,0 h 3.2734 v 0.33008 h -3.2734 z m 3.5059,0 h 2.9551 c 0.01475,0.19538 0.01328,0.17089 0.02539,0.33008 h -2.9805 v -0.33008 z m 15.193,0 h 3.1074 v 0.33008 h -3.1309 c 0.01076,-0.15109 0.0094,-0.13136 0.02344,-0.33008 z m 3.3379,0 h 3.2754 v 0.33008 h -3.2754 z m 3.5039,0 h 3.1309 l 0.02344,0.33008 h -3.1543 v -0.33008 z m -45.422,1.9375 h 65.121 v 21.17 c 0,35.547 -31.796,47.871 -32.119,47.992 l -0.44141,0.16406 -0.44531,-0.16406 c -0.31975,-0.1213 -32.115,-12.445 -32.115,-47.992 v -21.17 z m -17.262,0.03906 c -1.2852,2.6249 -2.9449,5.7632 -7.3047,6.2266 0.07959,-0.23479 0.15082,-0.43864 0.21875,-0.63672 0.55647,-1.5978 0.8815,-2.1085 1.4414,-2.8496 0.03225,-0.045 0.06325,-0.0852 0.09961,-0.13086 l 0.45117,-0.59961 c 1.2021,-1.0894 2.7821,-1.5658 5.0938,-2.0098 z m 100.13,0 c 2.3089,0.44395 3.8916,0.92149 5.1191,2.0352 0,0.0063 0.42382,0.57422 0.42382,0.57422 0.0342,0.04575 0.0655,0.08653 0.0977,0.13086 0.5606,0.74106 0.88552,1.2513 1.4434,2.8477 0.0659,0.19808 0.14063,0.40388 0.2168,0.63867 -4.355,-0.46334 -6.0184,-3.6017 -7.3008,-6.2266 z m -81.92,0.92188 v 20.209 c 0,34.885 31.182,46.972 31.498,47.09 l 0.11133,0.043 0.11133,-0.043 c 0.31697,-0.11809 31.496,-12.205 31.496,-47.09 v -20.209 h -0.32031 -62.896 z m 0.64062,0.64844 h 61.932 v 19.561 c 0,2.0795 -0.1137,4.0766 -0.32422,5.9941 h -4.0547 v 4.3867 h 3.3633 c -5.188,25.947 -28.768,35.587 -29.954,36.057 -1.185,-0.47 -24.769,-10.11 -29.951,-36.059 h 3.3613 v -4.3867 h -4.0527 c -0.21055,-1.9176 -0.32617,-3.9146 -0.32617,-5.9941 v -19.561 z m 91.441,0.79883 c 0.13174,0.31235 0.29493,0.70703 0.29493,0.70703 0.5853,1.3512 1.1816,2.7264 1.1816,4.3242 0,1.3692 -0.49101,2.922 -1.748,4.7441 -0.12213,-0.22024 -0.22979,-0.41696 -0.33203,-0.60742 -0.39523,-1.6622 -0.67737,-2.2141 -1.1426,-2.9863 -0.0185,-0.09488 -0.0354,-0.18977 -0.0566,-0.29297 l -0.13477,-0.70898 c 0.002,-1.6345 0.71272,-3.1407 1.9375,-5.1797 z m -120.46,0.002 c 1.2255,2.039 1.9355,3.5445 1.9355,5.2129 -0.0034,0.0025 -0.13281,0.67578 -0.13281,0.67578 -0.01921,0.1025 -0.03685,0.19614 -0.05469,0.29102 -0.46521,0.77222 -0.74746,1.3241 -1.1406,2.9863 -0.10224,0.18976 -0.20842,0.38718 -0.33398,0.60742 -1.2529,-1.8236 -1.7461,-3.3769 -1.7461,-4.7461 0,-1.5978 0.59508,-2.9698 1.1797,-4.3203 0,0 0.16191,-0.39399 0.29297,-0.70703 z m 30.201,0.16016 v 18.361 h 0.31641 v -18.361 z m 1.6465,0 v 18.361 h 0.31641 v -18.361 z m 1.6445,0 v 18.361 h 0.32031 v -18.361 z m 1.6465,0 v 18.363 h 0.31836 v -18.363 z m 1.6465,0 v 18.363 h 0.31836 v -18.363 z m 1.6465,0 v 7.2715 c 0.09949,-0.20224 0.19828,-0.40411 0.31836,-0.5918 v -6.6797 z m 1.6445,0 v 5.2559 c 0.10704,-0.08237 0.20572,-0.1745 0.32031,-0.25 v -5.0059 z m 1.6484,0 v 4.375 c 0.10566,-0.03462 0.20937,-0.06911 0.31641,-0.09961 v -4.2754 h -0.31641 z m 1.6465,0 v 4.0684 c 0.05075,-7e-4 0.10326,-0.01563 0.1582,-0.01563 0.0535,0 0.10602,0.01488 0.1582,0.01563 v -4.0684 h -0.31641 z m 1.6445,0 v 4.2754 c 0.10838,0.0305 0.21211,0.06361 0.31641,0.09961 v -4.375 h -0.31641 z m 1.6445,0 v 5.0059 c 0.11462,0.0755 0.2119,0.16758 0.32031,0.25 v -5.2559 z m 1.6465,0 v 6.6816 c 0.12212,0.18699 0.21808,0.38761 0.32031,0.58984 v -7.2715 h -0.32031 z m 1.6484,0 v 18.363 h 0.31641 v -18.363 z m 1.6445,0 v 18.363 h 0.31836 v -18.363 z m 1.6465,0 v 18.363 h 0.32031 v -18.363 z m 1.6445,0 v 18.363 h 0.32031 v -18.363 z m 1.6484,0 v 18.367 h 0.31641 v -18.367 z m 1.6465,0 v 18.367 h 0.31445 v -18.367 z m 1.6445,0 v 18.367 h 0.31836 v -18.367 z m 1.6445,0 v 18.367 h 0.32031 v -18.367 z m 1.6465,0 v 18.367 h 0.32031 v -18.367 z m 1.6484,0 v 18.367 l 0.31641,0.002 v -18.369 z m 1.6445,0 v 18.367 h 0.31641 v -18.367 z m 1.6465,0 v 18.367 h 0.31836 v -18.367 z m 1.6445,0 v 18.367 h 0.32031 v -18.367 z m 1.6504,0 v 7.2734 c 0.0975,-0.20085 0.19437,-0.40411 0.31445,-0.5918 v -6.6816 z m 1.6426,0 v 5.2559 c 0.10775,-0.08237 0.20593,-0.17255 0.31641,-0.24805 v -5.0078 h -0.31641 z m 1.6465,0 v 4.375 c 0.10425,-0.03462 0.21063,-0.06911 0.31836,-0.09961 v -4.2754 h -0.31836 z m 1.6445,0 v 4.0684 c 0.05487,-7e-4 0.10391,-0.01563 0.16016,-0.01563 0.05487,0 0.10522,0.01488 0.16016,0.01563 v -4.0684 h -0.32031 z m 1.6484,0 v 4.2754 c 0.107,0.0305 0.21143,0.06498 0.31641,0.09961 v -4.375 h -0.31641 z m 1.6465,0 v 5.0078 c 0.10975,0.0755 0.21212,0.16562 0.31641,0.24805 v -5.2559 h -0.31641 z m 1.6445,0 v 6.6816 c 0.12212,0.18769 0.22014,0.39095 0.32031,0.5918 v -7.2734 z m 1.6445,0 v 18.369 h 0.32031 v -18.369 z m 1.6484,0 v 18.371 h 0.31836 v -18.371 z m 1.6465,0 v 18.371 h 0.31641 v -18.371 z m 1.6465,0 v 18.371 h 0.32031 v -18.371 z m 1.6445,0 v 18.371 h 0.31836 v -18.371 z m -82.045,2.832 c -1.0052,2.744 -2.3323,6.0419 -6.6152,6.9609 0.05146,-0.24171 0.1004,-0.45125 0.14844,-0.65625 0.3863,-1.647 0.65836,-2.1893 1.1387,-2.9844 0.02814,-0.0485 0.05509,-0.09203 0.08399,-0.14258 l 0.38476,-0.64258 c 1.0855,-1.2106 2.6074,-1.8509 4.8594,-2.5352 z m 105.64,0 h 0.002 c 2.2506,0.68565 3.7736,1.3268 4.877,2.5645 0.002,0.0063 0.36524,0.61523 0.36524,0.61523 0.0309,0.04912 0.0539,0.09278 0.082,0.14062 0.47962,0.79646 0.75284,1.338 1.1426,2.9863 0.0466,0.20361 0.0949,0.41258 0.14844,0.6543 -4.2857,-0.91905 -5.612,-4.2162 -6.6172,-6.9609 z m -69.505,2.192 c -2.617,0 -4.748,2.1482 -4.748,4.7891 0,2.6415 2.131,4.7891 4.748,4.7891 2.617,0 4.7461,-2.1476 4.7461,-4.7891 0,-2.6408 -2.1291,-4.7891 -4.7461,-4.7891 z m 32.92,0 c -0.05481,0 -0.10578,0.01375 -0.16016,0.01563 -0.02589,8.89e-4 -0.05041,0.0065 -0.07617,0.0078 -0.43152,0.02192 -0.84445,0.1052 -1.2383,0.23633 l -0.01172,0.0039 c -0.10544,0.03542 -0.21633,0.05901 -0.31836,0.10156 -0.22961,0.09576 -0.44244,0.21822 -0.65234,0.34766 -0.01663,0.01058 -0.03624,0.01656 -0.05273,0.02734 -0.21598,0.13695 -0.41467,0.29564 -0.60547,0.46484 -0.0063,0.0055 -0.01325,0.01008 -0.01953,0.01563 v 0.002 c -0.10876,0.09752 -0.21692,0.1937 -0.31641,0.30078 -0.0012,0.0013 -0.0027,0.0026 -0.0039,0.0039 -0.19771,0.21329 -0.37637,0.44253 -0.5332,0.68945 -0.15693,0.24708 -0.29385,0.50609 -0.4043,0.78125 -0.01871,0.04589 -0.02761,0.09599 -0.04492,0.14258 -0.08501,0.23242 -0.16618,0.46719 -0.21484,0.71484 -0.06031,0.30151 -0.0918,0.61394 -0.0918,0.93359 0,0.31983 0.03149,0.632 0.0918,0.93359 0.04866,0.2477 0.12984,0.48241 0.21484,0.71484 0.01732,0.04659 0.02621,0.09669 0.04492,0.14258 0.11045,0.27517 0.24737,0.53417 0.4043,0.78125 0.15683,0.24692 0.33549,0.47618 0.5332,0.68945 0.0012,0.0013 0.0027,0.0026 0.0039,0.0039 0.09949,0.10707 0.20765,0.20328 0.31641,0.30078 v 0.0039 c 0.0154,0.01358 0.03331,0.02368 0.04883,0.03711 0.18028,0.15736 0.36596,0.30666 0.56836,0.43555 0.05638,0.03707 0.11974,0.06303 0.17774,0.09766 0.174,0.10061 0.34438,0.20511 0.53125,0.2832 0.0013,5.5e-4 0.0026,0.0014 0.0039,0.002 0.10185,0.04245 0.21311,0.06426 0.31836,0.09961 l 0.01172,0.0039 c 0.35157,0.11703 0.7193,0.19003 1.1016,0.2207 0.0715,0.0061 0.14043,0.02289 0.21289,0.02539 v -0.002 c 0.05437,0.0019 0.10535,0.01563 0.16016,0.01563 0.0548,0 0.1058,-0.01376 0.16016,-0.01563 v 0.002 c 0.07062,-0.0024 0.13742,-0.01757 0.20703,-0.02344 0.38092,-0.03008 0.74707,-0.10481 1.0977,-0.2207 0.0076,-0.0025 0.01583,-0.0033 0.02344,-0.0059 v -0.002 c 0.10445,-0.03514 0.21531,-0.05551 0.31641,-0.09766 0.0013,-5.49e-4 0.0026,-0.0014 0.0039,-0.002 0.17085,-0.0714 0.32617,-0.16752 0.48633,-0.25781 0.07596,-0.04397 0.15724,-0.07885 0.23047,-0.12695 0.19892,-0.12719 0.38108,-0.27494 0.55859,-0.42969 0.01606,-0.01404 0.03489,-0.02484 0.05078,-0.03906 v -0.0039 c 0.10877,-0.09751 0.2169,-0.19371 0.31641,-0.30078 0.0012,-0.0013 0.0027,-0.0026 0.0039,-0.0039 0.19774,-0.21327 0.37634,-0.44254 0.5332,-0.68945 0.15696,-0.24708 0.29382,-0.50608 0.4043,-0.78125 8.32e-4,-0.0021 0.0031,-0.0038 0.0039,-0.0059 0.01776,-0.04375 0.02451,-0.09234 0.04102,-0.13672 0.08503,-0.23244 0.16617,-0.46715 0.21484,-0.71484 0.06031,-0.3016 0.0918,-0.61377 0.0918,-0.93359 0,-0.31965 -0.03149,-0.63208 -0.0918,-0.93359 -0.04867,-0.24766 -0.12981,-0.48243 -0.21484,-0.71484 -0.01627,-0.04447 -0.02348,-0.09287 -0.04102,-0.13672 -8.83e-4,-0.0022 -0.003,-0.0037 -0.0039,-0.0059 -0.11047,-0.27516 -0.24734,-0.53417 -0.4043,-0.78125 -0.15686,-0.24692 -0.33547,-0.47616 -0.5332,-0.68945 -0.0012,-0.0013 -0.0027,-0.0026 -0.0039,-0.0039 -0.0995,-0.10708 -0.20764,-0.20326 -0.31641,-0.30078 v -0.002 c -0.0062,-0.0056 -0.0133,-0.01009 -0.01953,-0.01563 -0.18907,-0.16766 -0.38582,-0.32493 -0.59961,-0.46094 -0.03533,-0.02306 -0.07537,-0.03843 -0.11133,-0.06055 -0.193,-0.116 -0.387,-0.231 -0.598,-0.319 -0.10127,-0.04224 -0.21177,-0.0644 -0.31641,-0.09961 v -0.002 c -0.0076,-0.0025 -0.01579,-0.0034 -0.02344,-0.0059 C 90.29418,51.78389 89.88402,51.7006 89.4553,51.679 89.43019,51.6777 89.40629,51.6721 89.38108,51.6712 89.32672,51.6693 89.27573,51.65557 89.22092,51.65557 Z m -78.9,1.2344 c 1.4299,1.8977 2.2926,3.3229 2.4648,4.9844 -0.002,0.0025 -0.06055,0.68164 -0.06055,0.68164 -0.0096,0.10525 -0.01762,0.20313 -0.0293,0.30078 -0.3815,0.81794 -0.60328,1.3944 -0.82422,3.0898 -0.08303,0.20361 -0.17257,0.41743 -0.27344,0.6543 -1.6955,-1.9766 -2.2559,-3.6827 -2.2559,-5.2383 0,-1.3187 0.37984,-2.5355 0.75586,-3.7344 0,0 0.1266,-0.41207 0.22266,-0.73828 z m 125.37,0 c 0.0981,0.32482 0.22461,0.73633 0.22461,0.73633 0.37463,1.1996 0.75588,2.4175 0.75585,3.7383 0,1.5548 -0.55979,3.2578 -2.2539,5.2344 -0.10425,-0.23825 -0.18904,-0.45068 -0.27344,-0.6543 -0.21889,-1.694 -0.44457,-2.2726 -0.82812,-3.0898 -0.006,-0.09763 -0.0166,-0.19357 -0.0234,-0.29883 l -0.0625,-0.7168 c 0.17222,-1.6276 1.0324,-3.0522 2.4609,-4.9492 z m -117.68,2.196 c -0.71497,2.8368 -1.6924,6.2573 -5.8594,7.623 0.02745,-0.24379 0.05264,-0.45698 0.08008,-0.66406 0.21477,-1.6816 0.4283,-2.2508 0.82422,-3.0957 0.0247,-0.0485 0.04239,-0.09397 0.06641,-0.14453 L 13.43895,58.122 c 0.94964,-1.3159 2.3986,-2.1147 4.5703,-3.0352 z m 110,0 c 2.1696,0.91975 3.617,1.7188 4.5879,3.0645 0,0.0087 0.29688,0.65234 0.29688,0.65234 0.0254,0.052 0.0456,0.09979 0.0703,0.15039 0.39249,0.84286 0.60554,1.4096 0.82031,3.0898 0.0281,0.20639 0.0567,0.42028 0.082,0.66406 -4.1636,-1.3658 -5.1418,-4.7857 -5.8574,-7.6211 z m -76.805,3.9023 v 6.0059 h 0.31836 v -5.4141 c -0.12008,-0.18769 -0.21887,-0.38956 -0.31836,-0.5918 z m 10.195,0 c -0.10225,0.20224 -0.19818,0.40481 -0.32031,0.5918 v 5.416 h 0.32031 z m 22.729,0 v 6.0117 h 0.31445 v -5.4219 c -0.117,-0.188 -0.214,-0.389 -0.311,-0.59 z m 10.193,0 c -0.10012,0.20085 -0.19818,0.40214 -0.32031,0.58984 v 5.4219 h 0.32031 v -6.0117 z m -85.769,0.549 c 1.62,1.7363 2.6211,3.0622 2.9648,4.6953 l 0.01172,0.6875 c 0.0014,0.10875 0.002,0.20243 0.002,0.30078 -0.29642,0.85671 -0.45814,1.4522 -0.5,3.1719 -0.06106,0.2057 -0.12913,0.42651 -0.20117,0.66406 -2.2005,-2.0805 -2.8281,-3.9551 -2.8281,-5.7246 0,-1.0409 0.20383,-2.0479 0.40625,-3.041 0,0 0.080038,-0.42009 0.14453,-0.75391 z m 128.91,0.002 c 0.0631,0.3334 0.14258,0.75195 0.14258,0.75195 0.20241,0.99315 0.41016,2.0001 0.41016,3.041 0,1.7696 -0.62842,3.6441 -2.8262,5.7246 -0.0761,-0.23894 -0.14216,-0.46033 -0.20118,-0.66602 -0.0453,-1.7169 -0.20543,-2.3154 -0.5039,-3.168 0.002,-0.10038 0.002,-0.19665 0.006,-0.30469 l 0.0117,-0.72266 c 0.34018,-1.5999 1.3449,-2.9224 2.9609,-4.6562 z m -121.04,1.369 c -0.4165,2.897 -1.0355,6.402 -5.0371,8.1992 0.0014,-0.24586 0.0043,-0.45893 0.0098,-0.66602 0.04049,-1.6989 0.19202,-2.2844 0.49805,-3.166 0.0199,-0.05125 0.03685,-0.09704 0.05469,-0.15039 l 0.24609,-0.7168 c 0.81035,-1.4094 2.1659,-2.3545 4.2285,-3.5 z m 113.18,0 c 2.0626,1.1455 3.4201,2.0932 4.2441,3.5352 0,0.0087 0.22852,0.67774 0.22852,0.67774 0.0185,0.05475 0.0362,0.10298 0.0547,0.1543 0.30535,0.88166 0.45815,1.4679 0.5,3.1641 0.004,0.20846 0.006,0.42211 0.01,0.66797 -4.0044,-1.7972 -4.6199,-5.3001 -5.0371,-8.1992 z m -69.844,0.0957 c -0.10837,0.0845 -0.20572,0.1759 -0.32031,0.25 v 3.7422 h 0.32031 z m 26.018,0 v 3.9961 h 0.31641 v -3.7461 c -0.1105,-0.07413 -0.20867,-0.16551 -0.31641,-0.25 z m 6.9023,0 c -0.10425,0.0845 -0.20662,0.1759 -0.31641,0.25 v 3.748 h 0.31641 z m -39.824,0.002 v 3.9883 h 0.32031 v -3.7402 C 53.0603,61.18085 52.96162,61.09003 52.85458,61.00693 Z m 1.6484,0.87891 v 3.1094 h 0.31641 v -3.0078 c -0.107,-0.02975 -0.21074,-0.06631 -0.31641,-0.10156 z m 3.6074,0 c -0.10425,0.03538 -0.20799,0.07181 -0.31641,0.10156 v 3.0098 h 0.31641 v -3.1113 z m 29.312,0 v 3.1152 h 0.31836 v -3.0137 c -0.10775,-0.02975 -0.21406,-0.06631 -0.31836,-0.10156 z m 3.6094,0 c -0.105,0.03538 -0.20937,0.07181 -0.31641,0.10156 v 3.0156 h 0.31641 v -3.1172 z m -34.883,0.30859 v 2.8008 h 0.31641 v -2.8008 c -0.05212,0.0012 -0.10464,0.01367 -0.1582,0.01367 -0.05487,0 -0.10739,-0.0123 -0.1582,-0.01367 z m 32.918,0 v 2.8086 h 0.32031 v -2.8086 c -0.05487,0.0012 -0.10521,0.01367 -0.16016,0.01367 -0.05625,0 -0.10528,-0.0123 -0.16016,-0.01367 z m 49.564,4.1387 c 0.0281,0.33866 0.0664,0.76562 0.0664,0.76562 0.0659,0.69742 0.13671,1.4021 0.13671,2.1113 0,1.71 -0.44657,3.4543 -2.2031,5.2363 -0.37945,-0.27565 -0.83535,-0.44243 -1.3301,-0.46875 0.0391,-1.0562 -0.0574,-1.6005 -0.2207,-2.3027 0.013,-0.09975 0.0214,-0.18954 0.0351,-0.29688 l 0.0879,-0.72266 c 0.50362,-1.5521 1.6369,-2.7633 3.4277,-4.3223 z m -131.24,0.002 c 1.7895,1.5569 2.9244,2.7688 3.4355,4.3555 0,0.02487 0.08008,0.68359 0.08008,0.68359 0.0151,0.10875 0.02407,0.20036 0.03711,0.30078 -0.16605,0.69881 -0.25638,1.2549 -0.2207,2.3027 -0.4957,0.02493 -0.95165,0.19113 -1.3301,0.4668 -1.7557,-1.7796 -2.2012,-3.5249 -2.2012,-5.2324 0,-0.71128 0.065459,-1.4159 0.13477,-2.1133 0,0 0.035641,-0.42501 0.064453,-0.76367 z m 39.244,0.05469 v 4.3848 h 4.3457 v -4.3848 z m 9.5879,0 v 4.3848 h 4.3438 v -4.3848 z m 9.5859,0 v 4.3848 h 4.3418 v -4.3848 z m 9.584,0 v 4.3848 h 4.3438 v -4.3848 z m 9.5859,0 v 4.3848 h 4.3438 v -4.3848 z m 9.582,0 v 4.3848 h 4.3438 v -4.3848 z m -79.207,0.48047 c -0.0988,2.5404 -0.30888,5.5512 -2.8477,7.748 -0.38574,-0.35032 -0.87782,-0.5757 -1.4219,-0.62891 -0.0081,-0.15657 -0.02148,-0.32864 -0.02148,-0.45312 0,-0.76945 0.09593,-1.2264 0.24414,-1.8477 0.01025,-0.05263 0.02006,-0.10217 0.03516,-0.1582 l 0.16992,-0.73438 c 0.66145,-1.4884 1.9116,-2.5704 3.8418,-3.9258 z m 115.31,0 c 1.9302,1.354 3.1844,2.4374 3.8555,3.959 0.002,0.0145 0.16016,0.70117 0.16016,0.70117 0.013,0.0575 0.0227,0.10542 0.0371,0.16016 0.14615,0.61916 0.24023,1.0763 0.24023,1.8457 0,0.12814 -0.0117,0.30006 -0.0176,0.45312 -0.0673,0.005 -0.1316,0.0089 -0.19336,0.01953 -0.47002,0.08238 -0.89072,0.2998 -1.2324,0.60938 -2.5388,-2.1969 -2.7488,-5.2077 -2.8496,-7.748 z m -79.238,4.3555 v 4.3867 h 4.3438 v -4.3867 z m 9.5859,0 v 4.3867 h 4.3438 v -4.3867 z m 9.582,0 v 4.3867 h 4.3457 v -4.3867 z m 9.5879,0 v 4.3867 h 4.3438 v -4.3867 z m 9.5859,0 v 4.3867 h 4.3398 v -4.3867 z m -78.922,3.096 c 0.0041,0 0.01084,0.0039 0.01563,0.0039 v 0.0098 h 0.04492 c 0.06588,0.01125 0.12807,0.03006 0.19531,0.03906 -0.0015,-0.0092 -0.0013,-0.01711 -0.002,-0.02539 0.42252,0.05119 0.80496,0.22306 1.1152,0.48633 -0.0051,0.0039 -0.0106,0.0078 -0.01563,0.01172 0.10979,0.09287 0.2024,0.19501 0.29297,0.30859 0.21746,0.27527 0.38397,0.59516 0.45508,0.95117 0.02154,0.12279 0.03906,0.248 0.03906,0.37695 0,0.1112 -0.01704,0.21749 -0.0332,0.32422 -0.05281,0.28071 -0.16675,0.53801 -0.31055,0.77539 -0.07341,0.12125 -0.14037,0.24572 -0.23438,0.34961 -0.26623,0.29366 -0.61222,0.48364 -1.002,0.59375 v 0.002 c -0.07136,0.02013 -0.14396,0.03047 -0.21875,0.04297 -0.11528,0.01937 -0.21966,0.07031 -0.3418,0.07031 -0.36572,0 -0.69429,-0.11656 -0.99414,-0.2793 -0.11665,-0.06375 -0.22071,-0.14023 -0.32227,-0.22266 -0.00549,0.0066 -0.010257,0.01293 -0.015625,0.01953 -0.48803,-0.39608 -0.80664,-0.99624 -0.80664,-1.6758 0,-0.59894 0.24224,-1.1415 0.63281,-1.5332 0.00168,-0.0017 0.00416,-0.0023 0.00586,-0.0039 0.09327,-0.08982 0.21189,-0.14394 0.31836,-0.21875 -0.00959,-0.009 -0.016197,-0.01833 -0.025391,-0.02734 0.31709,-0.21991 0.6971,-0.34934 1.1055,-0.36914 2.42e-4,0.0039 -2.43e-4,0.0078 0,0.01172 0.03567,-0.0025 0.06382,-0.02148 0.10156,-0.02148 z m 124.34,0 c 0.0378,0 0.0683,0.02131 0.10742,0.02344 0.40209,0.02075 0.75811,0.16741 1.0703,0.38281 0.10838,0.07412 0.23296,0.12998 0.32422,0.2207 0.39249,0.39339 0.63672,0.93274 0.63672,1.5332 0,0.67941 -0.33578,1.2633 -0.82227,1.6602 -0.10012,0.08237 -0.20891,0.15502 -0.32422,0.21875 -0.30188,0.16275 -0.62715,0.28125 -0.99218,0.28125 -0.0734,0 -0.13313,-0.03552 -0.20313,-0.04102 -0.0521,-0.005 -0.0984,-0.02242 -0.14648,-0.0293 -0.0741,-0.01387 -0.14486,-0.0248 -0.21485,-0.04492 -0.0453,-0.01387 -0.0934,-0.01342 -0.13867,-0.0293 -0.33347,-0.11912 -0.62609,-0.30612 -0.85937,-0.56445 -0.0967,-0.10388 -0.16026,-0.22841 -0.23438,-0.34961 -0.1983,-0.32621 -0.34375,-0.69086 -0.34375,-1.1016 5.3e-4,-0.50823 0.20222,-0.95752 0.49414,-1.3262 0.0899,-0.11362 0.18123,-0.21578 0.29102,-0.30859 0.27584,-0.23409 0.60936,-0.3787 0.97851,-0.44726 0.0411,-0.0087 0.0824,-0.02172 0.125,-0.02734 0.0789,-0.01 0.1494,-0.04687 0.23243,-0.04687 0.009,0 0.0135,-0.0039 0.0195,-0.0039 z m -88.547,1.7422 v 4.3848 h 4.3457 v -4.3848 z m 9.5879,0 v 4.3848 h 4.3438 v -4.3848 z m 9.5859,0 v 4.3848 h 4.3418 v -4.3848 z m 9.584,0 v 4.3848 h 4.3438 v -4.3848 z m 9.5859,0 v 4.3848 h 4.3438 v -4.3848 z m 9.582,0 v 4.3848 h 4.3438 v -4.3848 z m -81.828,2.0508 c 2.8009,1.915 3.3186,4.9106 3.6836,7.4434 -2.0633,-1.1442 -3.4201,-2.0919 -4.2441,-3.5332 0,-0.0087 -0.23047,-0.68359 -0.23047,-0.68359 -0.0199,-0.05475 -0.03754,-0.10372 -0.05469,-0.1543 -0.11459,-0.33382 -0.20646,-0.62876 -0.28125,-0.95703 -0.0028,-0.01738 -0.0082,-0.03337 -0.01172,-0.05273 -0.0295,-0.14199 -0.05682,-0.29818 -0.07813,-0.46094 -0.0075,-0.04087 -0.01464,-0.07494 -0.02148,-0.11719 -0.02059,-0.15791 -0.03501,-0.34161 -0.05078,-0.5293 -0.0055,-0.05125 -0.0076,-0.09933 -0.01172,-0.14648 0.01274,-0.0032 0.02445,-0.0084 0.03711,-0.01172 0.24336,-0.06374 0.47088,-0.16276 0.67969,-0.29297 0.10725,-0.06688 0.20702,-0.14262 0.30274,-0.22461 0.0025,-0.0021 0.0054,-0.0037 0.0078,-0.0059 0.0014,-0.0012 0.0025,-0.0027 0.0039,-0.0039 0.09288,-0.08055 0.17947,-0.16644 0.25976,-0.25977 0.003,-0.0035 0.0068,-0.0062 0.0098,-0.0098 z m 120.56,0 c 0.28819,0.34005 0.66432,0.5987 1.0918,0.74414 0.07,0.02487 0.13877,0.04903 0.21289,0.06641 -0.07,1.041 -0.21656,1.5575 -0.46289,2.2598 -0.0179,0.05263 -0.0337,0.10343 -0.0508,0.16016 l -0.24609,0.71289 c -0.80897,1.4101 -2.1685,2.3558 -4.2324,3.5 0.36502,-2.5328 0.88662,-5.5284 3.6875,-7.4434 z m -123.69,0.541 h 0.00195 c 0.16877,0.09803 0.34845,0.17606 0.53906,0.23242 0.02619,0.0081 0.05159,0.0162 0.07813,0.02344 0.2,0.052 0.404,0.088 0.619,0.088 0.07547,0 0.1469,-0.01482 0.2207,-0.02148 0.07347,1.0644 0.2277,1.5778 0.46289,2.2637 -0.002,0.072 -0.0025,0.13797 -0.0039,0.21484 l -0.01367,0.72266 c -0.34,1.599 -1.342,2.925 -2.9604,4.662 -0.0652,-0.334 -0.1465,-0.756 -0.1465,-0.756 -0.201,-0.993 -0.4043,-2.001 -0.4043,-3.041 0,-1.3817 0.39361,-2.8304 1.6074,-4.3887 z m 126.81,0 c 1.2172,1.5569 1.6113,3.0049 1.6113,4.3887 0,1.0389 -0.20579,2.0479 -0.40821,3.041 0,0 -0.0794,0.42203 -0.14257,0.75586 -1.62,-1.7384 -2.6204,-3.0662 -2.9648,-4.6973 v -0.02148 c 0,-0.11562 -0.01,-0.66211 -0.01,-0.66211 -0.004,-0.07962 -0.002,-0.14466 -0.002,-0.21875 0.23467,-0.68081 0.38578,-1.2103 0.45508,-2.2637 0.0782,0.0075 0.1504,0.02148 0.22656,0.02148 0.45218,0 0.87003,-0.13182 1.2344,-0.34375 z m -125.13,0.29883 0.002,0.0098 -0.11719,0.002 c 0.03807,-0.0051 0.07772,-0.0049 0.11523,-0.01172 z m 26.551,1.0898 c 0.7952,3.4747 2.9055,11.064 6.7949,15.869 -0.55605,-0.52493 -1.179,-1.3234 -1.6875,-1.9961 -1.087,-1.441 -2.031,-2.686 -3.033,-2.684 -0.25255,0 -0.60856,0.09544 -0.93164,0.45898 -0.05302,0.04056 -1.8139,1.3529 -4.2031,2.9004 -2.2993,-4.6714 -3.9496,-10.24 -4.7051,-13.031 1.6735,1.5271 5.2656,4.8047 5.2656,4.8047 l 0.30664,-0.77148 c 0,0 1.3937,-3.5229 2.1992,-5.5508 z m 69.857,0 c 0.8028,2.0279 2.5078,6.3223 2.5078,6.3223 0,0 3.5894,-3.2795 5.2637,-4.8066 -0.75614,2.7911 -2.4084,8.3612 -4.707,13.031 -2.3624,-1.5292 -4.1135,-2.8319 -4.1992,-2.8984 -0.3225,-0.3636 -0.68041,-0.45703 -0.9336,-0.45703 -1.0052,-0.0025 -1.9467,1.2423 -3.0391,2.6836 -0.53315,0.70574 -1.2018,1.5763 -1.7754,2.0957 3.944,-4.7996 6.0786,-12.47 6.8828,-15.971 z m -61.426,1.7891 v 2.0078 c 0.1043,0.25488 0.21327,0.5071 0.32031,0.75781 v -2.7656 h -0.32031 z m 1.6465,0 v 5.6289 c 0.10361,0.20224 0.21406,0.39108 0.31836,0.58984 v -6.2188 h -0.31836 z m 1.6465,0.002 v 8.5508 c 0.1043,0.17591 0.20995,0.35351 0.31836,0.52734 v -9.0781 h -0.31836 z m 1.6465,0 v 11.096 c 0.10498,0.1489 0.21201,0.29194 0.31836,0.43945 v -11.535 h -0.31836 z m 1.6445,0 v 13.301 c 0.10566,0.13574 0.2119,0.26476 0.32031,0.39844 v -13.699 h -0.32031 z m 1.6484,0 v 15.283 c 0.10566,0.12125 0.20937,0.24611 0.31641,0.36523 v -15.648 h -0.31641 z m 1.6465,0 v 17.082 c 0.10287,0.11012 0.21211,0.22134 0.31641,0.33008 v -17.412 h -0.31641 z m 1.6445,0 v 18.717 c 0.10425,0.10188 0.21211,0.1945 0.31641,0.29493 v -19.012 h -0.31641 z m 1.6445,0.002 v 20.211 l 0.32031,0.27344 v -20.484 h -0.32031 z m 1.6465,0 v 21.592 c 0.10775,0.0859 0.21258,0.17206 0.32031,0.25586 v -21.848 h -0.32031 z m 1.6484,0 v 22.871 c 0.10425,0.079 0.21211,0.16071 0.31641,0.23829 v -23.109 h -0.31641 z m 1.6445,0 v 24.053 c 0.10775,0.0741 0.21338,0.14478 0.31836,0.2168 v -24.27 h -0.31836 z m 1.6465,0 v 25.146 c 0.10775,0.0685 0.21602,0.13859 0.32031,0.20507 v -25.352 h -0.32031 z m 1.6445,0 v 8.3223 c 0.10025,-0.20015 0.19886,-0.40354 0.32031,-0.58984 v -7.7324 h -0.32031 z m 1.6484,0.002 v 6.3066 c 0.10425,-0.0845 0.20457,-0.17451 0.31641,-0.25 v -6.0566 z m 1.6465,0 v 5.4238 c 0.10425,-0.03538 0.20742,-0.06986 0.31445,-0.09961 v -5.3242 h -0.31445 z m 1.6445,0 v 5.1172 c 0.05563,-0.0025 0.10528,-0.01563 0.16016,-0.01563 0.05625,0 0.10327,0.0135 0.1582,0.01563 v -5.1172 z m 1.6445,0 v 5.3242 c 0.10775,0.02975 0.21259,0.06631 0.32031,0.10156 v -5.4258 h -0.32031 z m 1.6465,0 v 6.0566 c 0.11525,0.07337 0.21259,0.16367 0.32031,0.24609 v -6.3027 h -0.32031 z m 1.6484,0.002 v 7.7266 c 0.118,0.18769 0.21897,0.38957 0.31641,0.5918 v -8.3184 z m 1.6445,0 v 25.35 c 0.10425,-0.0651 0.21211,-0.13859 0.31641,-0.20508 v -25.145 h -0.31641 z m 1.6465,0 v 24.268 c 0.10775,-0.072 0.21063,-0.14339 0.31836,-0.2168 v -24.051 h -0.31836 z m 1.6445,0 v 23.105 c 0.10838,-0.0776 0.21258,-0.15932 0.32031,-0.23829 v -22.867 h -0.32031 z m 1.6504,0 v 21.844 c 0.10425,-0.0824 0.21015,-0.17136 0.31445,-0.25586 v -21.588 h -0.31445 z m 1.6426,0 v 20.48 c 0.10362,-0.0894 0.21211,-0.18063 0.31641,-0.27344 v -20.207 h -0.31641 z m 1.6465,0 v 19.008 c 0.107,-0.10038 0.21063,-0.19242 0.31836,-0.29492 v -18.711 l -0.31836,-0.002 z m 1.6445,0.002 v 17.406 c 0.107,-0.10875 0.21328,-0.22329 0.32031,-0.33203 v -17.074 h -0.32031 z m 1.6484,0 v 15.643 c 0.12,-0.124 0.227,-0.247 0.332,-0.368 v -15.275 h -0.31641 z m 1.6465,0 v 13.693 c 0.10288,-0.13229 0.21212,-0.26478 0.31641,-0.39844 v -13.295 h -0.31641 z m 1.6445,0 v 11.529 c 0.10912,-0.14752 0.21601,-0.29249 0.32031,-0.44141 v -11.088 h -0.32031 z m 1.6445,0 v 9.0723 c 0.10838,-0.17245 0.2119,-0.35017 0.32031,-0.52539 v -8.5469 h -0.32031 z m 1.6484,0.002 v 6.209 c 0.105,-0.19808 0.21681,-0.38773 0.31836,-0.58789 v -5.6211 h -0.31836 z m 1.6465,0 v 2.7598 c 0.10838,-0.25071 0.21142,-0.5035 0.31641,-0.75977 v -2 h -0.31641 z m -86.803,1.9121 c 4.167,1.3672 5.1443,4.7862 5.8613,7.623 -2.171,-0.91768 -3.6197,-1.7186 -4.5879,-3.0664 0,-0.0075 -0.29883,-0.64648 -0.29883,-0.64648 -0.0247,-0.05263 -0.0463,-0.09987 -0.07031,-0.15039 -0.39317,-0.84425 -0.60945,-1.4101 -0.82422,-3.0938 -0.0247,-0.20708 -0.05195,-0.42223 -0.08008,-0.66602 z m 121.73,0 c -0.0281,0.24586 -0.0547,0.46341 -0.0801,0.67188 -0.21476,1.6781 -0.42899,2.2452 -0.82421,3.0859 -0.0261,0.05125 -0.0444,0.09974 -0.0684,0.15234 l -0.31641,0.67969 c -0.95032,1.3159 -2.3966,2.1155 -4.5703,3.0332 0.71565,-2.8347 1.6917,-6.2559 5.8594,-7.623 z m -122.26,0.109 c 0.10224,0.23686 0.19168,0.44872 0.27539,0.65234 0.21957,1.6961 0.44192,2.2759 0.82617,3.0918 0.0089,0.09838 0.01715,0.19551 0.02539,0.30078 l 0.0625,0.7168 c -0.1736,1.6262 -1.0316,3.0482 -2.4629,4.9473 -0.09744,-0.32481 -0.2207,-0.73242 -0.2207,-0.73242 -0.37807,-1.2009 -0.75977,-2.4195 -0.75977,-3.7402 0,-1.5548 0.55979,-3.2597 2.2539,-5.2363 z m 122.83,0 c 1.6948,1.9766 2.2559,3.6788 2.2559,5.2344 0,1.32 -0.38444,2.5394 -0.75977,3.7383 0,0 -0.1259,0.41013 -0.22265,0.73633 -1.43,-1.8977 -2.29,-3.3197 -2.4629,-4.9805 0,-0.0025 0.0586,-0.6875 0.0586,-0.6875 0.01,-0.10325 0.0191,-0.19866 0.0293,-0.29492 0.38355,-0.81655 0.60466,-1.3965 0.82422,-3.0898 0.0844,-0.20362 0.17235,-0.418 0.27734,-0.65625 z m -61.658,4.0469 c -2.6197,0 -4.748,2.1488 -4.748,4.791 0,2.6415 2.1283,4.7891 4.748,4.7891 2.6156,0 4.7441,-2.1476 4.7441,-4.7891 0,-2.6422 -2.1285,-4.791 -4.7441,-4.791 z m -59.199,2.1289 c 4.285,0.91975 5.61,4.2176 6.6152,6.9609 -2.2506,-0.68428 -3.7729,-1.3254 -4.877,-2.5645 -0.0014,-0.0075 -0.36524,-0.61523 -0.36524,-0.61523 -0.0295,-0.04988 -0.05643,-0.09352 -0.08594,-0.14062 -0.47962,-0.79715 -0.74904,-1.3401 -1.1367,-2.9863 -0.04871,-0.20362 -0.09825,-0.41397 -0.15039,-0.6543 z m 118.88,0 c -0.0507,0.24032 -0.10042,0.45125 -0.14844,0.65625 -0.38631,1.6449 -0.65904,2.1893 -1.1387,2.9844 -0.0267,0.04712 -0.0539,0.09077 -0.082,0.14062 l -0.38672,0.64453 c -1.0855,1.2106 -2.6059,1.8508 -4.8613,2.5371 1.0066,-2.7454 2.3356,-6.0431 6.6172,-6.9629 z m -119.41,0.18164 c 0.12351,0.21955 0.23048,0.41569 0.33203,0.60547 0.39248,1.6601 0.67472,2.2135 1.1406,2.9844 0.01921,0.09625 0.0388,0.18908 0.05664,0.29297 l 0.13476,0.70898 c 0.01,1.634 -0.696,3.141 -1.922,5.183 -0.13,-0.314 -0.297,-0.709 -0.297,-0.709 -0.582,-1.35 -1.175,-2.724 -1.175,-4.322 0,-1.3692 0.48985,-2.922 1.7441,-4.7441 z m 119.93,0 c 1.2536,1.8222 1.748,3.377 1.748,4.7441 0,1.5978 -0.5944,2.9724 -1.1797,4.3223 0,0 -0.16249,0.39468 -0.29492,0.70703 -1.2248,-2.0383 -1.9336,-3.545 -1.9336,-5.2148 0.004,0 0.13086,-0.67578 0.13086,-0.67578 0.0212,-0.10388 0.0381,-0.19671 0.0566,-0.29297 0.46522,-0.77085 0.74678,-1.3223 1.1406,-2.9824 0.10425,-0.18978 0.20647,-0.3858 0.33203,-0.60742 z m -94.201,1.8008 c -0.0069,0.03325 -0.0098,0.07534 -0.0098,0.12109 h -0.002 c 0,-0.04087 0.0035,-0.08234 0.01172,-0.12109 z m 66.771,0.39258 c -0.27446,0.72166 -1.2625,3 -3.4473,5.8438 -0.37258,-0.28741 -0.75217,-0.59681 -1.1426,-0.92578 0.85494,-0.49311 1.6824,-1.575 2.5449,-2.7129 0.63675,-0.84079 1.5701,-2.0735 2.0449,-2.2051 z m -65.547,0.002 c 0.47413,0.14431 1.4031,1.3659 2.0371,2.2031 0.85742,1.132 1.679,2.2107 2.5293,2.707 -0.37862,0.31679 -0.76522,0.65174 -1.127,0.93359 -2.3018,-2.9948 -3.2296,-5.261 -3.4395,-5.8438 z m 66.52,0.66992 c 0.75066,0.5409 2.0972,1.4923 3.7207,2.5332 0.3122,0.20362 0.63459,0.40871 0.96875,0.61719 0.89131,0.55336 1.8265,1.1146 2.7871,1.6465 -3.9495,8.2438 -16.11,20.139 -32.398,23.658 0.28544,-3.1138 0.88414,-7.34 0.92188,-7.6191 l 0.0039,-0.0234 v -0.002 -0.006 c 0.0062,-0.0264 0.0059,-0.0552 0.0059,-0.0801 0,-0.01 -0.01758,-0.009 -0.01758,-0.0195 0,-0.004 0.01367,-0.041 0.01367,-0.041 -0.0037,0.01 -0.02122,0.0131 -0.02734,0.0234 -0.01788,-0.22993 -0.13902,-0.44221 -0.36133,-0.51562 -0.26416,-0.088 -0.60888,-0.15061 -0.97461,-0.20117 10.453,-3.1159 17.193,-8.5897 21.105,-13.184 0.26757,-0.31096 0.51639,-0.61796 0.75585,-0.91992 1.9686,-2.4857 3.0926,-4.633 3.4961,-5.8672 z m -67.502,0.002 c 0.40003,1.2342 1.5275,3.3815 3.4961,5.8672 0.24084,0.30196 0.48778,0.60701 0.75195,0.91797 3.9152,4.5939 10.659,10.072 21.113,13.186 -0.33072,0.0491 -0.64203,0.10417 -0.89453,0.17969 -0.0087,0.001 -0.01502,-0.008 -0.02539,-0.006 -0.01125,0.001 -0.01767,0.0148 -0.0293,0.0176 -0.0063,0.004 -0.02047,0.004 -0.02734,0.008 -0.02812,0.009 -0.04223,0.0408 -0.06836,0.0547 -0.07475,0.0387 -0.13926,0.088 -0.19141,0.15234 -0.04937,0.0796 -0.08133,0.17005 -0.0957,0.26563 -0.0012,0.0145 -0.01367,0.0232 -0.01367,0.0371 -0.0037,-0.01 -0.02069,-0.009 -0.02344,-0.0176 0,0 0.01,0.0285 0.01172,0.0312 -0.0012,0.009 -0.01563,0.0103 -0.01563,0.0195 0,0.0298 0.0034,0.0593 0.0059,0.0898 l 0.002,0.008 0.0039,0.0234 c 0.03912,0.2791 0.6386,4.5067 0.91992,7.6191 -16.286,-3.5176 -28.45,-15.414 -32.396,-23.658 0.95787,-0.53051 1.898,-1.0931 2.7852,-1.6465 0.33347,-0.20848 0.65634,-0.413 0.97266,-0.61523 1.6173,-1.0423 2.9708,-1.9923 3.7188,-2.5332 z m 28.652,2.1562 v 12.754 c 0.11112,0.0651 0.21259,0.1232 0.32031,0.18555 v -12.35 c -0.1215,-0.1863 -0.22012,-0.38969 -0.32031,-0.58984 z m 10.195,0 c -0.0975,0.20154 -0.19839,0.40342 -0.31641,0.5918 v 12.348 c 0.10362,-0.0624 0.20799,-0.11849 0.31641,-0.18359 v -12.756 z m -40.043,0.54297 -0.10352,0.07813 c 0.29505,0.44464 0.1454,0.65224 -0.08789,1.0664 l -2.1035,3.834 0.07617,0.10156 4.1016,-1.127 c 0.37876,-0.10392 0.75679,-0.19705 1.0566,0.125 l 0.09961,-0.08008 -0.88477,-1.1641 -0.10156,0.08008 c 0.10979,0.17938 0.22666,0.45929 0.02148,0.61719 -0.10704,0.0845 -0.46148,0.18591 -0.60352,0.22266 l -2.7656,0.76758 1.4238,-2.5801 c 0.0844,-0.1586 0.21058,-0.42095 0.35742,-0.5332 0.23672,-0.18422 0.42812,0.05681 0.58594,0.2168 l 0.10352,-0.08008 -1.1758,-1.5449 z m -22.182,0.34961 c 4.355,0.46334 6.0156,3.6024 7.3008,6.2266 -2.3117,-0.44394 -3.8936,-0.91872 -5.1211,-2.0352 0,-0.005 -0.42773,-0.57421 -0.42773,-0.57421 -0.03499,-0.04575 -0.06139,-0.08527 -0.0957,-0.12891 -0.56059,-0.74106 -0.88562,-1.2524 -1.4414,-2.8516 -0.06999,-0.19878 -0.13799,-0.40332 -0.21484,-0.63672 z m 114.75,0 c -0.0803,0.23548 -0.14945,0.43991 -0.21875,0.63867 -0.55648,1.5985 -0.87954,2.1099 -1.4395,2.8496 -0.0323,0.04363 -0.0627,0.08314 -0.0977,0.12891 l -0.44922,0.5996 c -1.2063,1.0915 -2.7861,1.5672 -5.0957,2.0098 1.2838,-2.6242 2.9423,-5.7632 7.3008,-6.2266 z m -115.24,0.229 c 0.14615,0.20916 0.27504,0.39346 0.39648,0.57422 0.56333,1.6116 0.90061,2.1301 1.4434,2.8477 0.03225,0.09562 0.05839,0.18657 0.08789,0.28906 l 0.20898,0.68945 c 0.02059,0.20363 0.03125,0.40714 0.03125,0.60938 0,1.4129 -0.5341,2.8613 -1.4199,4.75 -0.1633,-0.29643 -0.37109,-0.67769 -0.37109,-0.67774 -0.81927,-1.4558 -1.6523,-2.9401 -1.6523,-4.8398 0,-1.2058 0.38133,-2.6008 1.2754,-4.2422 z m 115.76,0 c 0.89268,1.6414 1.2754,3.0384 1.2754,4.2441 0,1.8997 -0.83514,3.3847 -1.6524,4.8398 0,0 -0.20976,0.37935 -0.37304,0.67578 -0.88105,-1.8817 -1.4141,-3.3257 -1.4141,-4.7559 0,-0.21124 0.0139,-0.42466 0.0352,-0.63867 0.002,0 0.20117,-0.65821 0.20117,-0.65821 0.0295,-0.10034 0.0578,-0.18958 0.0859,-0.28515 0.54275,-0.71751 0.88071,-1.236 1.4434,-2.8477 0.12212,-0.18076 0.2516,-0.36506 0.39844,-0.57422 z m -24.221,0.52344 -0.0742,0.10742 c 0.10088,0.10458 0.18419,0.21349 0.0859,0.35547 -0.0508,0.07756 -0.18488,0.14947 -0.33789,0.26172 -0.1585,0.1018 -0.3311,0.24511 -0.47656,0.45703 -0.41856,0.61848 -0.34373,1.4681 0.2539,1.8809 1.1685,0.80201 2.6881,-1.2134 3.5801,-0.59766 0.42886,0.29711 0.37307,0.82374 0.10547,1.2227 -0.23604,0.35045 -0.8901,0.96068 -1.8926,0.40039 l -0.0723,0.10742 1.334,0.91993 0.0742,-0.10743 c -0.1125,-0.0928 -0.19108,-0.19168 -0.0957,-0.32812 0.0974,-0.14268 0.22752,-0.22499 0.38672,-0.34961 0.16467,-0.1122 0.35251,-0.27066 0.53711,-0.54492 0.50843,-0.75422 0.3262,-1.5945 -0.28516,-2.0156 -1.1548,-0.79369 -2.7478,1.2591 -3.5664,0.69531 -0.35611,-0.24379 -0.37351,-0.76288 -0.14843,-1.1016 0.44531,-0.6531 1.2176,-0.71251 1.8633,-0.32812 l 0.0723,-0.10547 -1.3438,-0.92969 z m -37.354,0.36914 v 11.672 c 0.10425,0.0581 0.21623,0.11774 0.31641,0.17383 V 97.5095 C 69.54582,97.434 69.44558,97.34595 69.34128,97.26145 Z m 6.9023,0.002 c -0.10775,0.08237 -0.20504,0.17198 -0.32031,0.24609 v 11.598 c 0.105,-0.054 0.21259,-0.11562 0.32031,-0.17383 v -11.67 z m -5.2559,0.87891 v 11.646 c 0.107,0.054 0.21359,0.10635 0.31445,0.15625 v -11.703 c -0.107,-0.02975 -0.21015,-0.06436 -0.31445,-0.09961 z m 3.6094,0 c -0.10775,0.03538 -0.21259,0.06986 -0.32031,0.09961 v 11.703 c 0.10088,-0.0491 0.20915,-0.1036 0.32031,-0.15625 v -11.646 z m -1.9648,0.30664 v 12.107 c 0.05288,0.0208 0.11491,0.049 0.16016,0.0684 0.04525,-0.0194 0.10739,-0.0476 0.1582,-0.0684 v -12.107 c -0.05487,0.0025 -0.10189,0.01563 -0.1582,0.01563 -0.05487,0 -0.10453,-0.01363 -0.16016,-0.01563 z m -31.451,1.659 -0.0957,0.0859 c 0.45286,0.49728 0.32332,0.61872 -0.11719,1.0274 l -2.1387,1.9902 c -0.43777,0.40931 -0.57126,0.53047 -1.0234,0.0332 l -0.09375,0.0879 2.4746,2.7109 1.1406,-0.51172 -0.0918,-0.0996 c -0.71703,0.15722 -1.0857,0.18807 -1.5098,-0.27734 l -0.6582,-0.71875 c -0.20379,-0.22094 -0.21477,-0.33053 0,-0.5293 l 1.2695,-1.1777 0.64062,0.70312 c 0.39179,0.42802 0.47081,0.61959 0.04883,1.0898 l 0.08594,0.0957 1.2109,-1.125 -0.08789,-0.0957 c -0.49472,0.4017 -0.68617,0.277 -1.0684,-0.14063 l -0.64062,-0.70312 1.373,-1.2774 0.81445,0.89454 c 0.45286,0.49657 0.54196,0.67806 0.10352,1.2695 l 0.09766,0.10742 0.7168,-0.75391 -2.4512,-2.6855 z m 63.209,0.30468 -1.1309,1.207 0.0938,0.0879 c 0.45834,-0.49173 0.58772,-0.3652 1.0234,0.0488 l 1.2715,1.2148 c 0.28132,0.26663 0.68472,0.65079 0.77734,1.0566 0.10425,0.47372 -0.11785,0.97382 -0.43555,1.3125 -0.32318,0.3456 -0.80437,0.54162 -1.2559,0.33593 -0.24085,-0.11012 -0.6388,-0.44947 -0.83984,-0.64062 l -1.3691,-1.3047 c -0.43365,-0.41416 -0.56329,-0.53964 -0.10352,-1.0293 l -0.0898,-0.0898 -1.3828,1.4727 0.0957,0.0898 c 0.45973,-0.49172 0.58784,-0.36737 1.0215,0.0469 l 1.543,1.4726 c 0.67862,0.64756 1.54,0.99287 2.5781,-0.11523 1.0176,-1.0867 0.54806,-1.9984 -0.0723,-2.5898 l -1.5273,-1.457 c -0.43571,-0.41485 -0.56604,-0.53951 -0.10352,-1.0312 l -0.0937,-0.0879 z m -86.062,1.5293 c 4.425,-0.0277 6.3721,2.9831 7.9297,5.4688 -2.3446,-0.19808 -3.9661,-0.50702 -5.3027,-1.4863 0,-0.004 -0.31098,-0.33728 -0.42969,-0.4668 -0.02745,-0.0284 -0.05469,-0.0586 -0.05469,-0.0586 -0.39797,-0.42177 -0.68838,-0.73784 -1.002,-1.2227 v -0.002 c -0.26623,-0.41416 -0.56096,-0.97069 -0.94726,-1.8066 -0.06175,-0.14059 -0.12338,-0.26926 -0.19336,-0.42578 z m 109.41,0 c -0.0693,0.15652 -0.13082,0.28727 -0.19532,0.42578 -0.83505,1.8118 -1.2064,2.2445 -1.9434,3.0312 l -0.0547,0.0605 -0.45703,0.49023 c -1.3133,0.95715 -2.9334,1.2629 -5.2774,1.4609 1.5542,-2.4857 3.5027,-5.4964 7.9277,-5.4688 z m -109.79,0.32226 c 0.09812,0.11013 0.17458,0.20288 0.26172,0.30469 0.86318,1.8672 1.2497,2.2858 1.9941,3.0781 l 0.0098,0.01 c 0.0151,0.0333 0.02662,0.0623 0.04102,0.0977 l 0.23242,0.55664 0.04687,0.10742 c 0.08714,0.41278 0.12695,0.82305 0.12695,1.2441 0,0.20708 -0.02365,0.42649 -0.04492,0.64258 -0.10086,1.0492 -0.42056,2.2035 -0.9043,3.5977 -0.1935,-0.28119 -0.44531,-0.64258 -0.44531,-0.64258 -1.0759,-1.5202 -2.1777,-3.0781 -2.1777,-5.3262 0,-1.0451 0.27271,-2.2605 0.85938,-3.6699 z m 110.16,0.002 c 0.58872,1.4094 0.85937,2.6229 0.85937,3.668 0,2.2481 -1.1023,3.8039 -2.1816,5.3262 0,0 -0.24939,0.36139 -0.43945,0.64258 -0.48374,-1.3955 -0.80412,-2.5511 -0.9043,-3.6094 -0.0192,-0.20846 -0.043,-0.41885 -0.043,-0.62109 0,-0.43355 0.0436,-0.8584 0.13282,-1.2871 0,0 0.0161,-0.0384 0.0332,-0.082 0.0727,-0.16345 0.23633,-0.55274 0.23633,-0.55274 0.013,-0.0332 0.0253,-0.0619 0.0391,-0.0937 0,-0.001 0.01,-0.01 0.01,-0.01 0.74654,-0.7923 1.133,-1.2104 1.9942,-3.0762 0.0871,-0.10175 0.1676,-0.19458 0.26367,-0.30469 z m -83.922,1.1387 -0.08398,0.0937 c 0.49334,0.45503 0.37417,0.58913 -0.0293,1.0352 l -1.957,2.168 c -0.40346,0.4481 -0.52286,0.57933 -1.0176,0.125 l -0.08594,0.0977 1.4863,1.3633 0.08594,-0.0937 c -0.49677,-0.45502 -0.3761,-0.58913 0.02734,-1.0352 l 0.87305,-0.96875 0.35742,0.33007 -0.29688,2.7324 0.93359,0.85547 0.08398,-0.0938 c -0.44532,-0.47924 -0.39938,-0.91333 -0.33008,-1.5117 l 0.18359,-1.582 c 0.54412,0.32478 1.2069,0.41078 1.668,-0.0996 0.27926,-0.30889 0.64183,-1.0834 -0.38672,-2.0274 l -1.5117,-1.3887 z m 0.77344,1.1465 c 0.1633,0.1115 0.32904,0.21386 0.47656,0.34961 0.4261,0.3913 0.42332,0.97389 0.03906,1.3984 -0.53246,0.59146 -1.2231,0.28799 -1.7227,-0.17187 l -0.11523,-0.10743 1.3223,-1.4688 z m 55.066,0.31641 -2.9941,2.4375 0.65234,0.89844 0.10156,-0.0801 c -0.24908,-0.36915 -0.33335,-0.7626 0.125,-1.1387 l 0.54883,-0.44531 2.2031,2.752 c 0.37669,0.47026 0.48647,0.61187 -0.0352,1.0371 l 0.0801,0.0996 1.5664,-1.2734 -0.084,-0.10156 c -0.51874,0.42456 -0.63444,0.28401 -1.0098,-0.18555 l -2.1992,-2.752 0.55078,-0.44727 c 0.45836,-0.37611 0.82162,-0.20959 1.127,0.11524 l 0.0977,-0.0801 -0.73046,-0.83594 z m -52.068,1.9082 -0.07813,0.10157 c 0.53108,0.41416 0.42177,0.55796 0.05469,1.0352 l -1.7812,2.3184 c -0.36503,0.47719 -0.47488,0.61923 -1.0039,0.20508 l -0.07812,0.10156 1.5859,1.2441 0.08008,-0.10351 c -0.52971,-0.41417 -0.41971,-0.55797 -0.05469,-1.0352 l 1.7812,-2.3164 c 0.36709,-0.47786 0.47683,-0.61911 1.0059,-0.20703 l 0.07813,-0.1016 -1.5898,-1.2422 z m 77.18,0.0195 c -0.0549,0.42801 -0.0748,0.86572 -0.0508,1.3027 -0.35131,3.109 -1.7329,4.6828 -4.9551,5.8574 0.39387,-3.3548 1.3878,-5.4606 5.0059,-7.1602 z m -104.22,0.002 c 3.6147,1.6989 4.6055,3.8047 5,7.1582 -3.2112,-1.1712 -4.5951,-2.7394 -4.9512,-5.8359 0.02745,-0.44601 0.0102,-0.8887 -0.04883,-1.3223 z m 29.152,1.6504 -0.64258,0.90625 0.10742,0.0723 c 0.27172,-0.35463 0.61397,-0.5592 1.1094,-0.23437 l 0.5918,0.38867 -1.9062,2.9668 c -0.3273,0.50557 -0.4231,0.65809 -0.98438,0.29101 l -0.07031,0.10938 1.6855,1.1016 0.07031,-0.10937 c -0.56128,-0.36638 -0.46655,-0.51773 -0.14062,-1.0254 l 1.9082,-2.9668 0.5918,0.38672 c 0.4954,0.32482 0.45226,0.72575 0.24024,1.1191 l 0.10742,0.0703 0.56055,-0.96289 -3.2285,-2.1133 z m 45.299,0.34766 c -0.2974,-0.003 -0.66296,0.0986 -1.0996,0.38476 l -1.7109,1.127 0.07031,0.10938 c 0.56059,-0.36914 0.6565,-0.21848 0.98242,0.28711 l 1.584,2.459 c 0.32868,0.50698 0.42446,0.65902 -0.13477,1.0254 l 0.06836,0.10938 1.6836,-1.1035 -0.06836,-0.10937 c -0.56401,0.36845 -0.66051,0.21664 -0.98438,-0.29102 l -0.71094,-1.0957 0.40625,-0.26563 2.543,0.98047 1.0566,-0.69336 -0.06836,-0.10937 c -0.56951,0.31436 -0.97283,0.16095 -1.5293,-0.0586 l -1.4707,-0.58007 c 0.45149,-0.44949 0.69818,-1.0753 0.32422,-1.6543 -0.13809,-0.2186 -0.44573,-0.51621 -0.94141,-0.52148 z m -0.41016,0.50976 c 0.27356,0.0367 0.52515,0.20308 0.69922,0.47461 0.43159,0.66904 -0.03089,1.2661 -0.59766,1.6387 l -0.13281,0.0879 -1.0723,-1.6641 c 0.14615,-0.13021 0.2857,-0.26758 0.45312,-0.37695 0.12093,-0.0795 0.24606,-0.12921 0.37109,-0.15235 0.09377,-0.0173 0.18811,-0.0196 0.2793,-0.008 z m -3.4277,1.5586 -1.7656,0.96485 0.05859,0.11328 c 0.59146,-0.32135 0.67412,-0.16334 0.96094,0.36719 l 1.3809,2.582 c 0.28544,0.5312 0.37202,0.6884 -0.21875,1.0098 l 0.0625,0.11524 1.7676,-0.9668 -0.06445,-0.11328 c -0.58804,0.32275 -0.67375,0.16264 -0.95508,-0.36719 l -1.3848,-2.5801 c -0.28544,-0.5319 -0.36929,-0.69036 0.21875,-1.0117 l -0.06055,-0.11329 z m -36.148,0.66016 -3.2871,2.8301 c -0.41375,0.35461 -0.63063,0.45397 -0.97852,0.32031 l -0.05664,0.11524 1.3262,0.66601 0.05859,-0.11523 c -0.2278,-0.13714 -0.46821,-0.29232 -0.35156,-0.53125 0.06107,-0.1212 0.24922,-0.27625 0.35352,-0.35938 l 0.54883,-0.4707 1.6328,0.82031 -0.03125,0.64844 c -0.0151,0.15514 -0.02192,0.42373 -0.08984,0.5664 -0.11184,0.22645 -0.29622,0.19681 -0.57617,0.0723 l -0.05859,0.11523 1.666,0.83594 0.05664,-0.11718 c -0.46314,-0.25625 -0.4065,-0.67717 -0.375,-1.1426 l 0.27734,-4.1973 -0.11523,-0.0566 z m 33.309,0.9043 -1.332,0.58593 0.04687,0.11915 c 0.19829,-0.0658 0.49852,-0.10991 0.60352,0.12695 0.05225,0.12466 0.06445,0.49632 0.06445,0.64453 l 0.06641,2.8945 -2.1348,-2.0156 c -0.12899,-0.12467 -0.35166,-0.30871 -0.42578,-0.48047 -0.11802,-0.27773 0.1615,-0.40724 0.35156,-0.52149 l -0.05078,-0.11914 -1.7695,0.77344 0.05273,0.12109 c 0.49609,-0.17937 0.65555,0.0155 1,0.34375 l 3.1758,2.9883 0.11719,-0.0488 -0.09375,-4.2891 c -0.0075,-0.39685 -0.0045,-0.78851 0.375,-1.0039 l -0.04687,-0.11914 z m -33.904,0.0176 -0.12695,2.0781 -1.4551,-0.72851 1.582,-1.3496 z m 13.211,0.48828 c 2.2533,1.1954 3.7193,1.7666 3.7852,1.793 l 0.48438,0.17968 c -1.5342,-0.0194 -2.9078,-0.10077 -4.0488,-0.23242 v -1.3086 c 0,-0.0872 -0.03977,-0.16992 -0.08789,-0.2461 -0.035,-0.07 -0.08001,-0.13083 -0.13281,-0.18554 z m 9.5664,0.002 c -0.05288,0.0526 -0.09783,0.11368 -0.13281,0.18359 -0.05213,0.0761 -0.08594,0.15884 -0.08594,0.2461 v 1.3086 c -1.1411,0.1316 -2.5157,0.21304 -4.0527,0.23242 l 0.48633,-0.17968 c 0.06588,-0.0264 1.5284,-0.59771 3.7852,-1.791 z m -18.453,0.29883 c -0.52967,0.0207 -1.0168,0.32315 -1.1855,0.8457 -0.43845,1.3533 1.9053,2.2652 1.5684,3.3027 -0.1633,0.49798 -0.68053,0.59308 -1.1348,0.4414 -0.39934,-0.13089 -1.162,-0.59318 -0.91016,-1.7207 l -0.12109,-0.041 -0.50195,1.5508 0.12109,0.041 c 0.05764,-0.13369 0.12871,-0.23817 0.28516,-0.18555 0.16194,0.0526 0.2782,0.16 0.43945,0.28125 0.15508,0.12605 0.35703,0.26136 0.66992,0.36524 0.85906,0.28465 1.6087,-0.12661 1.8379,-0.83789 0.43434,-1.3394 -1.963,-2.3142 -1.6562,-3.2637 0.1338,-0.41065 0.62151,-0.57343 1.0078,-0.44531 0.74381,0.24587 1.0166,0.9775 0.83203,1.7109 l 0.12109,0.041 0.50781,-1.5664 -0.12109,-0.041 c -0.07274,0.12818 -0.15242,0.23955 -0.31641,0.18555 -0.08714,-0.0284 -0.19291,-0.14219 -0.3418,-0.25781 -0.14066,-0.12259 -0.32477,-0.25103 -0.56836,-0.33203 -0.176,-0.0584 -0.35665,-0.0811 -0.5332,-0.0742 z m 7.9551,0.7539 c -0.0037,0.13713 -0.0027,0.30629 -0.0039,0.5293 -0.74654,-0.117 -1.3586,-0.24518 -1.832,-0.37891 0.49952,-0.0526 1.0159,-0.0922 1.4551,-0.11718 0,0 0.20657,-0.0172 0.38086,-0.0332 z m 11.43,0 c 0.17429,0.0159 0.37891,0.0332 0.37891,0.0332 0.43778,0.025 0.95546,0.0646 1.457,0.11718 -0.47345,0.13368 -1.0841,0.26186 -1.832,0.37891 0,-0.22301 -0.0039,-0.39217 -0.0039,-0.5293 z m -14.158,1.0254 c 0.0088,0.004 0.01776,0.006 0.02539,0.01 0.6889,0.2618 1.6232,0.47623 2.6895,0.64453 0.0062,0.002 0.01045,0.003 0.01758,0.004 0.36092,0.054 0.73722,0.10466 1.127,0.15039 0.0062,0 0.01266,0.002 0.01953,0.002 1.4396,0.16553 3.0309,0.25195 4.5645,0.25195 1.5336,0 3.123,-0.0864 4.5625,-0.25195 0.0062,0 0.01462,-0.002 0.02148,-0.002 0.38563,-0.0457 0.76214,-0.0964 1.123,-0.15039 0.0075,-0.002 0.01524,-0.003 0.02148,-0.004 1.0649,-0.1683 2.0001,-0.38273 2.6855,-0.64453 0.01,-0.004 0.01972,-0.006 0.02734,-0.01 -0.08713,0.64965 -0.19791,1.5021 -0.3125,2.4219 -0.17428,1.4004 -0.35222,2.9759 -0.4668,4.3223 -0.03775,0.44602 -0.06469,0.85541 -0.08594,1.2363 -0.01788,0.31652 -0.03103,0.61831 -0.03516,0.8711 -0.20516,0.16483 -1.3457,0.70508 -7.541,0.70508 -6.5699,0 -7.4715,-0.61374 -7.584,-0.73633 v -0.16406 c 0,-0.20155 -0.0048,-0.43188 -0.01563,-0.67774 -0.01575,-0.37399 -0.04192,-0.79018 -0.07617,-1.2383 -0.10838,-1.327 -0.28412,-2.9069 -0.45703,-4.3184 -0.1125,-0.91836 -0.22272,-1.7722 -0.31055,-2.4219 z m 14.926,2.4668 -2.6465,0.32813 c -0.04188,0.16206 -0.07223,0.29126 -0.09961,0.38476 -0.0247,0.0928 -0.08694,0.33513 -0.19531,0.72852 l 0.12891,0.043 c 0.12145,-0.25833 0.22991,-0.43153 0.31641,-0.51953 0.09056,-0.0859 0.25081,-0.14413 0.47656,-0.17188 l 1.5234,-0.19141 -0.89062,4.4922 0.46289,-0.0606 0.93945,-4.916 -0.01563,-0.11719 z m -11.012,0.19141 -1.3633,0.5 -0.0098,0.10156 c 0.08714,-0.0284 0.18042,-0.0527 0.2793,-0.0742 0.10224,-0.0243 0.18297,-0.0329 0.24609,-0.0254 0.08985,0.0125 0.14792,0.0503 0.16992,0.11328 0.02125,0.0616 0.02403,0.14947 0.0098,0.26172 l -0.39648,3.2656 c -0.02745,0.21055 -0.08494,0.34386 -0.17969,0.39648 -0.09331,0.0509 -0.2836,0.0703 -0.56836,0.0488 l -0.0098,0.10742 1.9688,0.24219 0.01367,-0.0996 c -0.26005,-0.0422 -0.43477,-0.0947 -0.52539,-0.1543 -0.09087,-0.0616 -0.12281,-0.18195 -0.10156,-0.36133 l 0.51562,-4.248 c 0.0037,-0.0215 0.0039,-0.0341 0.0039,-0.0391 h -0.002 c 0,-0.007 -0.0035,-0.0168 -0.0098,-0.0312 l -0.04102,-0.004 z m 6.2051,0.17187 c -0.40964,0.0145 -0.7391,0.13473 -0.99023,0.36328 -0.24905,0.22439 -0.36938,0.49499 -0.35938,0.80664 0.01098,0.27429 0.10998,0.52264 0.28906,0.74219 0.11939,0.14544 0.33524,0.33976 0.6543,0.58008 -0.29848,0.21955 -0.51211,0.40346 -0.63086,0.55859 -0.17975,0.23549 -0.26586,0.50412 -0.25586,0.80469 0.0103,0.35114 0.15549,0.6283 0.4375,0.83399 0.28132,0.20503 0.61391,0.30098 0.99609,0.28711 0.42748,-0.0139 0.76011,-0.14445 1.0078,-0.38477 0.24638,-0.24033 0.36547,-0.5323 0.35547,-0.87305 -0.01098,-0.30196 -0.1086,-0.55748 -0.28906,-0.77148 -0.17771,-0.21609 -0.47397,-0.468 -0.88086,-0.75195 0.28544,-0.17592 0.49426,-0.32614 0.61914,-0.45704 0.21956,-0.22855 0.32836,-0.4802 0.31836,-0.75586 -0.01098,-0.27218 -0.12951,-0.50826 -0.35938,-0.70703 -0.22918,-0.19802 -0.53678,-0.29126 -0.91211,-0.27539 z m -4.6328,0.0469 c -0.06583,0.15445 -0.1185,0.27603 -0.15625,0.36328 -0.03843,0.0859 -0.14069,0.31754 -0.30469,0.68945 l 0.12109,0.0586 c 0.15988,-0.23478 0.2917,-0.38894 0.39258,-0.46094 0.10086,-0.0721 0.26772,-0.10504 0.49414,-0.0977 l 1.5352,0.0566 -1.5723,4.293 0.46094,0.0156 1.6895,-4.709 0.0039,-0.11523 -2.6641,-0.0937 z m 4.5332,0.1543 c 0.28132,-0.008 0.49078,0.0625 0.63281,0.21484 0.14344,0.15306 0.22031,0.34201 0.22656,0.5664 0.01029,0.25835 -0.05603,0.48029 -0.19531,0.66797 -0.08028,0.10874 -0.22986,0.24533 -0.44531,0.41016 -0.27446,-0.15999 -0.49828,-0.32932 -0.67188,-0.51563 -0.16941,-0.18214 -0.26133,-0.38831 -0.26758,-0.61132 -0.0075,-0.19669 0.06014,-0.36377 0.19531,-0.50782 0.13516,-0.14271 0.30925,-0.21586 0.52539,-0.2246 z m -0.10742,2.4355 c 0.4659,0.30959 0.77357,0.54086 0.92383,0.69531 0.15296,0.15445 0.23289,0.36079 0.24414,0.61915 0.0062,0.22786 -0.05506,0.41769 -0.1875,0.57421 -0.13174,0.15795 -0.33443,0.24 -0.60547,0.25 -0.25456,0.009 -0.47024,-0.0807 -0.64453,-0.26562 -0.17021,-0.18769 -0.26023,-0.43941 -0.27148,-0.76563 -0.0061,-0.18837 0.03202,-0.38736 0.11914,-0.59375 0.08303,-0.20707 0.22289,-0.37792 0.42188,-0.51367 z"
         transform="matrix(0.8,0,0,-0.8,56.285,415.14)"
         id="path4582"
         inkscape:connector-curvature="0"
         style="fill:#1c2957" /><path
         d="m 76.496,6.7812 c -1.3318,-0.085875 -2.5871,0.81672 -2.6777,2.2227 -0.17772,2.8133 4.2192,3.0221 4.0977,4.9434 -0.05215,0.79092 -0.86279,1.1668 -1.5723,1.1211 -1.4293,-0.09281 -2.3894,-1.5287 -2.4902,-2.8848 l -0.22266,-0.01367 -0.19922,3.1387 0.22266,0.01563 c 0.1043,-0.24586 0.36542,-0.46859 0.6543,-0.44922 0.13516,0.009 0.32967,0.08445 0.45117,0.14258 0.55715,0.28811 0.95968,0.44017 1.6074,0.48242 1.4677,0.0942 2.8869,-0.81147 2.9844,-2.3809 0.17771,-2.7752 -4.2699,-3.1373 -4.1621,-4.832 0.04802,-0.76669 0.76376,-1.0626 1.4492,-1.0176 1.1829,0.076875 2.104,1.3094 2.1699,2.4355 l 0.224,0.013 0.174,-2.7618 -0.223,-0.0156 c -0.08,0.2604 -0.122,0.5612 -0.461,0.5391 -0.198,-0.0125 -0.378,-0.1256 -0.544,-0.2246 -0.508,-0.2979 -0.887,-0.4359 -1.483,-0.4747 z m -8.4707,0.24805 c -0.21358,-0.00547 -0.43689,2.25e-4 -0.66992,0.019531 l -4.5488,0.37891 0.01953,0.22461 c 1.1678,-0.096963 1.1943,0.23008 1.2773,1.2461 l 0.41992,5.166 c 0.08371,1.0167 0.1112,1.3425 -1.0566,1.4395 l 0.01758,0.22656 4.2461,-0.35352 -0.01758,-0.22461 c -1.1672,0.09628 -1.193,-0.22938 -1.2773,-1.2461 l -0.17969,-2.2207 0.56055,-0.04687 2.9531,3.5684 2.584,-0.21484 -0.01758,-0.22461 c -0.48374,0.03947 -0.67745,-0.19706 -1.0391,-0.63477 l -2.368,-2.808 c 1.005,-0.285 1.784,-1.12 1.697,-2.199 -0.112,-1.4041 -1.105,-2.0574 -2.6,-2.0957 z m 13.904,0.46484 -0.04102,0.22266 c 1.156,0.2072 1.1,0.5297 0.923,1.5333 l -0.90039,5.1035 c -0.1784,1.0028 -0.23387,1.3262 -1.3887,1.1191 l -0.03711,0.22266 4.2598,0.76563 0.03711,-0.22266 c -1.154,-0.208 -1.094,-0.53 -0.921,-1.534 l 0.90039,-5.1055 c 0.17702,-1.0035 0.23192,-1.3243 1.3867,-1.1172 l 0.04,-0.2225 -4.258,-0.7657 z m -14.804,0.0802 c 0.88659,0.050611 1.3706,0.58235 1.4648,1.7344 0.08303,1.016 -0.30516,1.7791 -1.7715,1.9004 l -0.59766,0.05078 -0.29297,-3.6113 0.79297,-0.066406 c 0.14315,-0.011947 0.27764,-0.015043 0.4043,-0.00781 z m -6.9648,0.37305 -6.7188,1.6133 0.05273,0.2207 c 1.139,-0.27288 1.2134,0.045334 1.4453,1.0371 l 1.1914,5.043 c 0.23329,0.99178 0.30973,1.3097 -0.83203,1.584 l 0.05273,0.21875 6.9355,-1.666 -0.24023,-2.6562 -0.21875,0.05078 c -0.11184,2.2509 -1.5399,2.5968 -2.6816,2.8711 -0.83574,0.20085 -0.88865,-0.02035 -1.1309,-1.0488 l -0.51367,-2.1797 c 1.395,-0.3352 1.7065,0.44376 2.1621,1.5117 l 0.2207,-0.05273 -1.0117,-4.2852 -0.21875,0.05274 c 0.06861,1.1601 0.13909,1.9988 -1.2559,2.334 l -0.777,-3.3059 0.666,-0.1602 c 1.5891,-0.38091 2.4433,-0.4558 3.2207,1.2715 l 0.2207,-0.05274 -0.56641,-2.4004 z m 28.082,0.71484 -0.6543,2.1543 0.2168,0.06641 c 0.7479,-1.3083 1.3357,-1.4413 2.2441,-1.1602 l 0.64258,0.19922 -1.8262,6.002 c -0.29436,0.97452 -0.38928,1.2877 -1.5098,0.94141 l -0.06641,0.21484 4.1367,1.2812 0.06445,-0.2168 c -1.1226,-0.34629 -1.0236,-0.65905 -0.72852,-1.6328 l 1.8242,-6.0039 0.64453,0.19922 c 0.90298,0.2805 1.3179,0.72536 1.2109,2.2324 l 0.21484,0.06445 0.6543,-2.1523 -7.0684,-2.1895 z m -36.246,1.3262 -2.5195,1.0254 0.08203,0.21094 c 0.41718,-0.17038 1.0358,-0.33938 1.2402,0.17383 0.09267,0.2334 0.11813,0.56118 0.09961,1.0176 l -0.15234,4.3906 -3.4062,-3.4023 c -0.13929,-0.14751 -0.43567,-0.41847 -0.50977,-0.60547 -0.1585,-0.39615 0.31556,-0.58966 0.77734,-0.77734 l -0.08398,-0.21094 -3.6758,1.498 0.08398,0.21094 c 0.58117,-0.19669 0.89397,0.08223 1.0957,0.28516 l 5.8516,5.8262 0.18555,-0.07617 0.28516,-7.1191 c 0.05558,-1.3394 0.13341,-1.8851 0.73242,-2.2383 l -0.086,-0.2087 z m 44.584,1.3068 -0.098,0.205 c 0.55306,0.26319 0.60205,0.53737 0.66992,1.6836 l 0.27539,4.3066 -0.64648,1.377 c -0.481,1.0229 -0.56855,1.2162 -1.7734,0.64062 l -0.0957,0.20508 4.2031,2.0059 0.09375,-0.20508 c -1.2056,-0.57554 -1.1164,-0.76864 -0.63476,-1.793 l 0.79688,-1.6953 3.082,-2.0762 c 0.68753,-0.46472 1.2895,-0.9858 1.9297,-0.67969 l 0.0957,-0.20312 -2.2637,-1.082 -0.0977,0.20508 c 0.32661,0.15652 0.78994,0.46049 0.60742,0.84766 -0.1043,0.22785 -0.51807,0.50142 -0.72461,0.64062 l -2.6738,1.8145 -0.19336,-3.3789 c -0.01713,-0.20154 -0.05898,-0.72479 0.02539,-0.90625 0.16605,-0.35225 0.53831,-0.1744 0.89648,-0.002 l 0.11,-0.206 -3.57,-1.705 z m -54.273,2.918 -3.7715,2.1348 0.10938,0.19727 c 1.0224,-0.5783 1.1812,-0.29287 1.6738,0.5957 l 2.5137,4.5234 c 0.49129,0.88858 0.65001,1.1737 -0.37305,1.752 l 0.11133,0.19922 3.7734,-2.1348 -0.10938,-0.19727 c -1.0224,0.5783 -1.1818,0.29092 -1.6758,-0.59766 l -2.5098,-4.5234 c -0.49334,-0.88789 -0.65323,-1.173 0.36914,-1.752 l -0.11133,-0.19726 z m -5.3887,3.0293 -2.2559,1.6836 0.13477,0.18359 c 0.67106,-0.50212 1.1419,-0.43184 1.5488,0.125 l 2.2695,3.0957 -0.01953,0.01367 -6.2578,-1.6797 -2.3438,1.75 0.13281,0.18359 c 0.48168,-0.3594 0.78829,-0.27749 1.4141,-0.10156 l 3.582,4.8848 c 0.40895,0.55614 0.33845,1.0318 -0.33398,1.5332 l 0.13281,0.18164 2.2559,-1.6855 -0.13476,-0.18164 c -0.67037,0.50142 -1.1413,0.43115 -1.5488,-0.125 l -3.2188,-4.3887 0.01953,-0.01563 8.541,2.2148 0.16016,-0.12109 -4.2793,-5.8359 c -0.40895,-0.55615 -0.33708,-1.0318 0.33398,-1.5332 l -0.13281,-0.18164 z m 73.322,2.8066 c -1.0846,0.1083 -2.1227,0.66634 -2.918,1.6758 -1.5912,2.0196 -1.2208,4.5822 0.75195,6.1641 1.9686,1.5818 4.5294,1.3685 6.1172,-0.65039 1.5912,-2.0196 1.2227,-4.5842 -0.75,-6.166 -0.98567,-0.79092 -2.1166,-1.1317 -3.2012,-1.0234 z m 1.7578,0.98633 c 0.38452,-0.0086 0.77115,0.11066 1.1465,0.41211 1.502,1.2065 0.23728,3.2597 -0.67187,4.4121 -0.9071,1.1524 -2.6028,2.862 -4.1055,1.6562 -1.502,-1.2058 -0.23259,-3.2609 0.67383,-4.4141 0.67826,-0.86434 1.8034,-2.0405 2.957,-2.0664 z m -83.486,2.6836 -1.9844,2.0527 0.16016,0.1582 c 0.77467,-0.80131 1.0953,-0.55621 1.8281,0.16406 l 2.6582,2.6191 c 0.8028,0.79092 1.4345,2.083 0.33594,3.2168 -0.99218,1.0271 -1.8257,0.6269 -2.4844,-0.02344 l -3.206,-3.154 c -0.723,-0.713 -0.953,-0.941 -0.134,-1.787 l -0.16211,-0.1582 -3.0195,3.123 0.1582,0.1582 c 0.81721,-0.84634 1.0515,-0.61696 1.7754,0.0957 l 2.8965,2.8555 c 1.3215,1.3014 2.7137,1.2837 4.1602,-0.21094 2.02,-2.0881 0.81114,-3.7362 -0.02734,-4.5625 l -2.588,-2.552 c -0.732,-0.721 -0.98,-1.039 -0.207,-1.84 l -0.16211,-0.15625 z m 89.863,1.8574 -0.16797,0.15234 c 0.79183,0.87058 0.55746,1.0913 -0.18359,1.7832 l -3.7774,3.5137 c -0.7438,0.69056 -0.9822,0.91284 -1.7754,0.04297 l -0.16797,0.1543 2.9336,3.209 0.16406,-0.15234 c -0.79319,-0.86849 -0.55355,-1.0908 0.1875,-1.7812 v -0.002 l 1.7715,-1.6465 c 1.1122,1.2217 0.72489,1.875 -0.082,2.8301 l 0.1543,0.16602 3.0703,-2.8555 -0.15234,-0.16797 c -0.87348,0.60532 -1.5485,0.94367 -2.6621,-0.27734 l 2.4746,-2.3047 0.50781,0.55664 c 1.1068,1.2113 1.5888,1.9245 0.47656,3.4551 l 0.1543,0.16797 1.793,-1.6719 -4.7188,-5.1719 z m -84.109,92.07 -0.13672,0.17774 c 0.92906,0.7196 0.72992,0.98012 0.11719,1.7891 l -3.125,4.1152 c -0.61274,0.80893 -0.81118,1.0678 -1.7402,0.3496 l -0.13672,0.17969 3.3828,2.6172 0.13672,-0.17969 c -0.93042,-0.71959 -0.73256,-0.97944 -0.11914,-1.7891 l 1.3203,-1.7363 0.37695,0.29102 c 2.0173,1.5618 3.3836,1.2093 4.1055,0.25976 0.90298,-1.1885 0.30817,-2.5989 -1.0957,-3.6855 l -3.0859,-2.3887 z m 76.537,0.0215 -3.4805,2.5976 0.13281,0.18165 c 0.94346,-0.70367 1.1373,-0.43972 1.7363,0.3789 l 1.3066,1.7793 -2.3262,1.7383 -1.3047,-1.7812 c -0.60176,-0.81932 -0.79503,-1.0835 0.14843,-1.7871 l -0.13476,-0.17969 -3.4746,2.5957 0.13086,0.18164 c 0.94072,-0.70367 1.1346,-0.43916 1.7363,0.38086 l 3.0547,4.166 c 0.60039,0.81794 0.79756,1.0834 -0.14453,1.7871 l 0.13282,0.18164 3.4766,-2.5976 -0.13477,-0.1836 c -0.93935,0.70366 -1.1346,0.44111 -1.7363,-0.3789 l -1.4297,-1.9492 2.3223,-1.7383 1.4336,1.9531 c 0.59765,0.81931 0.79365,1.0809 -0.14844,1.7832 l 0.13086,0.1836 3.4805,-2.5977 -0.13282,-0.18164 c -0.94208,0.70436 -1.1346,0.44042 -1.7363,-0.37891 l -3.0566,-4.168 c -0.59833,-0.81794 -0.79424,-1.0815 0.14648,-1.7852 l -0.12891,-0.18164 z m -74.373,2.2578 0.18945,0.14453 c 0.89063,0.68773 0.88078,1.5065 0.2207,2.375 -0.66626,0.87819 -1.4396,1.2331 -2.3789,0.50586 l -0.20703,-0.16211 2.1758,-2.8633 z m 4.2246,2.5059 -0.11328,0.19336 c 1.0025,0.61085 0.83445,0.89171 0.31641,1.7637 l -2.6504,4.4414 c -0.51805,0.87402 -0.68756,1.1558 -1.6914,0.54492 l -0.11523,0.19531 3.7051,2.25 0.11523,-0.19336 c -1.0032,-0.61085 -0.83535,-0.8909 -0.3125,-1.7656 l 2.6465,-4.4394 c 0.51942,-0.87474 0.68835,-1.1558 1.6895,-0.54493 l 0.11719,-0.19531 -3.707,-2.25 z m 61.307,1.3516 -0.20117,0.10157 c 0.0178,0.28811 0.0272,0.66529 -0.27539,0.81835 -0.23329,0.11917 -0.51076,0.0906 -0.92383,0.13282 -0.411,0.0402 -0.95771,0.15224 -1.7715,0.5664 -2.2568,1.1518 -3.2385,3.7375 -2.0762,6.0625 1.0924,2.1782 3.601,2.916 5.9785,1.7012 0.68958,-0.35114 2.1804,-1.1676 2.8281,-2.2168 l -0.63281,-1.2695 c -0.45561,-0.90936 -0.60084,-1.203 0.27539,-1.6504 l -0.10156,-0.20118 -3.6387,1.8555 0.0996,0.20118 c 1.0484,-0.53399 1.1948,-0.23944 1.6504,0.66992 l 0.61914,1.2363 c -0.34445,0.37191 -0.67895,0.6254 -1.0879,0.83593 -1.983,1.0098 -3.26,-0.62306 -4.0703,-2.2402 -0.77604,-1.55 -1.2772,-3.7195 0.61524,-4.6836 1.3257,-0.67594 2.7971,-0.2158 3.8223,0.79883 l 0.20117,-0.10156 -1.3105,-2.6172 z m -56.715,1.4707 -0.91602,2.0547 0.20508,0.0918 c 0.90641,-1.2044 1.5045,-1.2611 2.3711,-0.86914 l 0.61133,0.2793 -2.5527,5.7246 c -0.41444,0.93012 -0.54494,1.229 -1.6133,0.74414 l -0.0957,0.20703 3.9453,1.791 0.09375,-0.20703 c -1.0697,-0.48618 -0.93524,-0.78414 -0.52148,-1.7129 l 2.5527,-5.7266 0.61328,0.2793 c 0.86593,0.3913 1.22,0.88507 0.92774,2.3672 l 0.20508,0.0918 0.91602,-2.0527 -6.7422,-3.0625 z m 7.8359,3.4648 -0.60352,2.166 0.2168,0.0625 c 0.71978,-1.3256 1.3056,-1.4712 2.2168,-1.2129 l 0.64844,0.18359 -1.6895,6.0449 c -0.27515,0.98196 -0.36357,1.2967 -1.4902,0.97461 l -0.06055,0.2168 4.1621,1.1875 0.0625,-0.22071 c -1.1267,-0.31927 -1.0401,-0.63316 -0.76562,-1.6152 l 1.6875,-6.043 0.64844,0.18555 c 0.91259,0.25971 1.3337,0.69134 1.2617,2.2012 l 0.2168,0.0625 0.60742,-2.168 -7.1191,-2.0254 z m 38.377,0.19727 c -0.38805,0.0244 -0.80952,0.10923 -1.2559,0.25 l -4.3535,1.377 0.06641,0.21484 c 1.1171,-0.35252 1.2144,-0.0407 1.5156,0.93164 l 1.5352,4.9473 c 0.29848,0.97446 0.39567,1.286 -0.7207,1.6406 l 0.06445,0.21485 4.0703,-1.2852 -0.06445,-0.21484 c -1.1198,0.35321 -1.2177,0.0395 -1.5176,-0.9336 l -0.66016,-2.125 0.53516,-0.16797 3.6582,2.8262 2.4746,-0.78125 -0.06641,-0.2168 c -0.46246,0.14544 -0.70576,-0.0424 -1.1504,-0.38867 l -2.9219,-2.2148 c 0.91808,-0.50005 1.4982,-1.4875 1.1777,-2.5215 -0.35662,-1.1521 -1.2226,-1.6259 -2.3867,-1.5527 z m -1.0078,0.78515 c 0.68135,0.0131 1.155,0.44917 1.4473,1.3945 0.30191,0.97239 0.08952,1.8054 -1.3164,2.25 l -0.56836,0.17969 -1.0723,-3.459 0.75781,-0.24024 c 0.27412,-0.0866 0.52484,-0.12937 0.75195,-0.125 z m -5.2285,0.98633 -2.8086,0.41211 0.03125,0.22461 c 1.0999,-0.16138 1.2032,0.2304 1.3535,1.252 l 0.53516,3.7109 c 0.15988,1.1199 -0.1151,2.5332 -1.6699,2.7617 -1.4059,0.20639 -1.8298,-0.62116 -1.9629,-1.543 l -0.64258,-4.4688 c -0.14546,-1.0091 -0.19144,-1.3328 0.9668,-1.5039 l -0.03125,-0.22461 -4.2812,0.62891 0.0332,0.22461 c 1.1582,-0.16968 1.2041,0.15233 1.3496,1.1621 l 0.58594,4.0469 c 0.26418,1.843 1.3808,2.6827 3.4297,2.3828 2.8626,-0.42109 2.8928,-2.4735 2.7227,-3.6426 l -0.527,-3.62 c -0.14959,-1.0202 -0.15713,-1.4265 0.94141,-1.5879 l -0.03516,-0.22461 z m -21.592,0.42969 c -1.1412,0.0486 -2.1731,0.81796 -2.3418,2.0391 -0.38631,2.7911 3.9829,3.3296 3.7188,5.2363 -0.10841,0.784 -0.94364,1.0984 -1.6504,1 -1.419,-0.19946 -2.2676,-1.7037 -2.2676,-3.0625 l -0.22266,-0.0312 -0.43164,3.1152 0.22461,0.0293 c 0.12144,-0.23756 0.40011,-0.43794 0.68555,-0.39844 0.13518,0.0194 0.32283,0.10849 0.43945,0.17774 0.53451,0.32758 0.92279,0.51023 1.5664,0.59961 1.4567,0.20568 2.9376,-0.59026 3.1523,-2.1465 0.3815,-2.7544 -4.0302,-3.4518 -3.7969,-5.1348 0.10499,-0.76045 0.84276,-0.99935 1.5234,-0.90235 1.174,0.16483 2.0015,1.4629 1.9844,2.5918 l 0.2207,0.0312 0.37891,-2.7422 -0.22266,-0.0312 c -0.09743,0.25279 -0.16468,0.54908 -0.49609,0.50195 -0.19899,-0.0284 -0.37059,-0.1555 -0.5332,-0.26562 -0.47962,-0.33521 -0.84671,-0.49949 -1.4375,-0.58399 -0.16528,-0.0233 -0.33111,-0.0304 -0.49414,-0.0234 z m 4.6914,0.79687 v 0.22656 c 1.1713,0.006 1.1703,0.33347 1.1641,1.3516 l -0.01953,5.1836 c -0.0034,1.0202 -0.0073,1.3468 -1.1758,1.3418 l -0.0039,0.22656 4.0664,0.0176 c 2.9662,0.0138 3.631,-1.3941 3.6348,-2.248 0.0069,-1.4101 -1.1518,-1.9171 -2.3203,-2.1484 v -0.0273 c 0.91121,-0.20916 1.898,-0.67152 1.9043,-1.8281 0,-0.2528 0.0066,-2.0649 -2.9082,-2.0762 l -4.3418,-0.0195 z m 3.0918,0.49219 0.34766,0.002 c 1.6207,0.007 1.7637,1.2534 1.7637,1.6309 -0.0028,1.0444 -0.60458,1.6462 -2.123,1.6387 l 0.01172,-3.2715 z m -0.01562,3.748 0.375,0.004 c 1.9061,0.008 2.0234,1.3944 2.0234,1.8965 -0.0069,1.0077 -0.6957,1.7323 -1.7188,1.7285 -0.57021,-0.002 -0.69391,-0.21661 -0.69141,-0.79492 v -0.002 l 0.01172,-2.832 z"
         transform="matrix(0.8,0,0,-0.8,56.285,415.14)"
         id="path4584"
         inkscape:connector-curvature="0"
         style="fill:#ffffff" /></g></g></svg>