<?xml version="1.0" encoding="UTF-8" standalone="no"?>
<svg
   xmlns:dc="http://purl.org/dc/elements/1.1/"
   xmlns:cc="http://creativecommons.org/ns#"
   xmlns:rdf="http://www.w3.org/1999/02/22-rdf-syntax-ns#"
   xmlns:svg="http://www.w3.org/2000/svg"
   xmlns="http://www.w3.org/2000/svg"
   xmlns:sodipodi="http://sodipodi.sourceforge.net/DTD/sodipodi-0.dtd"
   xmlns:inkscape="http://www.inkscape.org/namespaces/inkscape"
   width="700"
   height="450"
   version="1.1"
   id="svg26"
   sodipodi:docname="pitt.svg"
   inkscape:version="0.92.1 r15371">
  <metadata
     id="metadata32">
    <rdf:RDF>
      <cc:Work
         rdf:about="">
        <dc:format>image/svg+xml</dc:format>
        <dc:type
           rdf:resource="http://purl.org/dc/dcmitype/StillImage" />
        <dc:title></dc:title>
      </cc:Work>
    </rdf:RDF>
  </metadata>
  <defs
     id="defs30" />
  <sodipodi:namedview
     pagecolor="#ffffff"
     bordercolor="#666666"
     borderopacity="1"
     objecttolerance="10"
     gridtolerance="10"
     guidetolerance="10"
     inkscape:pageopacity="0"
     inkscape:pageshadow="2"
     inkscape:window-width="1304"
     inkscape:window-height="746"
     id="namedview28"
     showgrid="false"
     inkscape:zoom="0.90981073"
     inkscape:cx="274.77624"
     inkscape:cy="206.48916"
     inkscape:window-x="-8"
     inkscape:window-y="-8"
     inkscape:window-maximized="1"
     inkscape:current-layer="svg26" />
  <mask
     id="_1">
    <g
       id="g14">
      <path
         d="M 0,0 700,0 700,450 0,450 0,0 Z"
         style="stroke:none; fill:white"
         id="path10" />
      <path
         d="M 478.999990,250.499976 C 478.999990,250.499976 484.999961,248.499987 491.499984,247.499979 C 497.999966,246.499997 505.499971,245.999980 505.499971,245.999980 C 505.499971,245.999980 507.999986,267.999995 504.499990,284.499979 C 500.999993,300.999990 498.499978,315.499985 489.499980,315.499985 C 480.499983,315.499985 479.499960,289.499992 478.999990,275.499988 C 478.499979,261.499983 478.999990,250.499976 478.999990,250.499976 Z M 384.499997,257.499978 C 384.499997,257.499978 390.999979,260.999992 396.999991,261.999974 C 402.999961,262.999982 408.999974,262.999982 408.999974,262.999982 C 408.999974,262.999982 410.499966,277.999994 407.999992,294.499978 C 405.499977,310.999990 402.999961,329.999980 394.999987,328.999999 C 386.999971,327.999991 386.499959,315.499985 385.499978,301.499981 C 384.499997,287.499976 384.499997,257.499978 384.499997,257.499978 Z M 191.499960,128.999984 C 191.499960,128.999984 236.499989,126.499978 251.499999,141.999981 C 266.499966,157.499984 271.499997,177.999973 268.999982,194.499984 C 266.499966,210.999995 253.999972,217.499980 244.499964,220.499977 C 234.999996,223.499975 223.999995,225.000000 223.999995,225.000000 C 223.999995,225.000000 221.499979,191.499987 219.999987,173.499978 C 218.499994,155.499995 216.499990,144.499987 206.999981,137.999976 C 197.499973,131.499991 191.499960,128.999984 191.499960,128.999984 Z"
         style="stroke:none; fill:black"
         fill-rule="nonzero"
         id="path12" />
    </g>
  </mask>
  <mask
     id="_2">
    <g
       id="g22">
      <path
         d="M 0,0 700,0 700,450 0,450 0,0 Z"
         style="stroke:none; fill:white"
         id="path18" />
      <path
         d="M 467.999989,242.999983 C 467.999989,242.999983 480.999994,237.499979 491.999996,235.999981 C 502.999997,234.499982 515.499991,235.499990 515.499991,235.499990 C 515.499991,235.499990 519.999969,251.499984 516.499972,280.499974 C 512.999976,309.499991 503.999978,325.999975 490.499961,326.499993 C 476.999986,326.999983 467.999989,314.999995 467.999989,284.499979 C 467.999989,253.999990 467.999989,242.999983 467.999989,242.999983 Z"
         style="stroke:none; fill:black"
         fill-rule="nonzero"
         id="path20" />
    </g>
  </mask>
  <g
     id="g36"
     transform="translate(12.071044,-2.3470244)">
    <path
       id="Shape 3"
       inkscape:label="Shape 3"
       style="fill:#a9975d;fill-rule:nonzero;stroke:none"
       mask="url(#_1)"
       d="m 227.99996,293.5 c 0,0 1.00002,31.49999 0.50001,47 -0.50001,15.49997 2.50002,39.49998 -22,46.49998 -24.49998,7 -49,3 -60.50001,-6 -11.49997,-8.99999 -14.99997,-17.49999 -15.99999,-48 -0.99998,-30.49999 -4.00001,-100.49999 -5.5,-125.99999 -1.49999,-25.5 -2,-45.99999 -2,-45.99999 0,0 -11,10.99998 -20,23.99998 -9,13.00002 -27.999975,22.00001 -46.499982,9.99999 C 37.499982,182.99999 38.999975,159.5 51.99998,138.49999 c 13.000006,-21 63.49999,-69.500002 145.49999,-76.000014 82,-6.499985 138.82774,24.736807 155,86.999994 C 362.49999,188 341.99998,221 341.99998,221 c 0,0 9,0 15.49998,0.49998 6.50003,0.5 12.50004,2.50001 12.50004,2.50001 0,0 0.49997,-7.49999 0.99998,-12.00001 0.50001,-4.5 6.99999,-9 12.49999,-11.99999 5.5,-3 13.99999,-3 15.99999,-1.99999 2.00001,0.99998 5.5,5.49998 5.5,5.49998 0,0 0.50002,-13.49999 -0.49996,-22.49998 -1.00003,-9.00002 -3.00003,-19.50001 -3.00003,-19.50001 0,0 12.49999,-17 37.50002,-25.00001 24.99999,-7.99999 38.99998,4 41.49999,14 2.50002,10 0,35.00001 0,35.00001 0,0 6.00002,-1.5 11,-2.5 C 496.49997,181.99998 503,181 503,181 c 0,0 0,-8.00001 0,-15.00002 0,-7 0,-15.5 0,-15.5 0,0 23.99996,-22.5 47.99997,-20.49999 24.00001,1.99999 30.00002,17 28.99999,30 -0.99998,13 -2.49997,28.5 -2.49997,28.5 0,0 15.49998,7.49999 26.99999,18.99999 11.50002,11.5 17.00002,23 9,43.50001 -8.00002,20.49999 -20.50001,20 -27.5,17.99999 -7,-1.99999 -13.50002,-6 -13.50002,-6 0,0 -1.99996,23 -1.49999,37 0.50001,14.00001 1.00002,36.50001 14.00003,17 12.99996,-19.5 36.5,-17 43.49999,-5.99999 6.99999,11.00001 6.99999,22.99999 -0.50001,35.99999 -7.50001,13 -26.00001,41.5 -60,40.50002 C 534,386.49999 517.99996,369 517.99996,369 c 0,0 -16.5,20 -42.99998,20.99998 -26.50002,1 -44.50002,-17.00001 -44.50002,-17.00001 0,0 -13.99998,19.00002 -38.99997,20 C 366.49996,393.99998 342.5,374.99999 342.5,374.99999 c 0,0 -13.00001,14.99999 -40,13 C 275.49996,386 253.49996,366.49999 249.99996,348.49998 246.49997,330.5 260.99997,320.5 272.99999,322.49999 c 11.99998,1.99999 30.57563,11.85692 35.49998,-30 2,-17 -0.99998,-31.00001 -0.99998,-31.00001 0,0 -14.5,13.50002 -37.00002,21.5 C 247.99996,290.99999 227.99996,293.5 227.99996,293.5 Z"
       inkscape:connector-curvature="0" />
    <path
       id="Shape 1"
       inkscape:label="Shape 1"
       style="fill:#001541;fill-rule:nonzero;stroke:none"
       mask="url(#_2)"
       d="m 141.49994,336.99998 c -0.99998,-23.50001 -2,-63.50003 -3.50004,-91 -1.49995,-27.49999 -3.49995,-61.50002 -4.99999,-75.5 -1.49995,-14 4.99999,-29.50001 29.00004,-33 24.00001,-3.50004 38.99998,6.50002 42.99999,16.99995 4,10.50002 4.50001,28.00004 5.99997,46.00002 1.50003,18.00004 2,36.00002 2,36.00002 0,0 16.50004,1.49997 37.00005,-5.99999 20.50001,-7.5 29.99998,-23.00003 30.99996,-39.50001 1.00003,-16.50001 -6.01899,-39.48351 -15.99999,-51.00003 -12.99996,-14.99996 -43.00002,-26.49999 -78.99997,-20.99996 -36.00003,5.49998 -68.00001,27.00001 -80.50005,43.49999 -12.499951,16.50001 -18.999975,33.50001 -38.500004,25.99999 -19.499945,-7.49999 -14.999968,-26.49998 -7.999974,-40.00002 6.999993,-13.49996 23.499995,-28.49997 42.000048,-42.49995 18.5,-14.00006 62.99998,-32.000043 116.99992,-34.000032 54.00003,-1.999989 105.50004,22.999996 119.50002,65.500022 14.00003,42.49998 5.5,71.00001 -23.49995,102.49995 -26.82438,29.13686 -48.49999,35.00004 -70.00002,39.00004 -21.49999,4.00001 -27.5,3.49999 -27.5,3.49999 0,0 1.49995,26.49999 1.00002,49.49998 -0.50005,23.00002 2.49993,41.00003 -17.99999,46.00002 -20.50001,5.00001 -40.50001,0 -49.00004,-7.49999 -8.50003,-7.50002 -7.99998,-9.99997 -9,-33.49999 z M 319,282.49999 c 0,-18.5 -0.50001,-37.49999 4.49998,-42.99999 4.99999,-5.50001 11.99998,-7.50003 24.99999,-7.50003 13,0 23.49999,1.00001 24.50001,11.5 0.99998,10.50002 -1.49999,43.50002 1.5,63.00002 2.99998,19.49998 4.09534,36.5182 25.5,34.00001 8.49998,-1.00001 16.37687,-22.01504 19.00001,-43.00002 3.5,-27.99999 0,-45.50001 0,-45.50001 0,0 -22,1.50003 -31,-5.99999 -8.99999,-7.49999 -6.00001,-21.5 -6.50002,-25.99999 -0.50001,-4.5 3.00003,-8.5 7.5,-10.49999 4.50002,-2.00002 6.50003,-0.50002 6.50003,-0.50002 0,0 5.5,5.99999 10.49999,6.50001 4.99999,0.49999 11.49997,0.49999 11.49997,0.49999 0,0 -1.49999,-13.49998 -1.99996,-24 -0.50001,-10.49999 -2.50002,-27 -2.50002,-27 0,0 9.99998,-13 28.00002,-17.99999 17.99999,-5.00001 29.49996,-1.49999 29.49996,11.5 0,13 -1.49999,40.49999 -1.49999,40.49999 0,0 9,-2.50001 21.49999,-4.99999 12.50004,-2.5 24.00001,-4 24.00001,-4 0,0 0,-7.49999 -0.49997,-15.99999 -0.50001,-8.50001 -0.50001,-18.00002 -0.50001,-18.00002 0,0 23.49999,-19.5 42.49997,-14 19.00002,5.5 12.50003,22.50001 12.00002,29.00002 -0.50001,6.49998 -1.49999,22.99999 -1.49999,22.99999 0,0 13.00001,7.5 22.49997,14.5 9.50001,7 14.5,12.50001 15.50002,15.99999 C 605.49996,228 607,239.5 601.99997,248.49999 c -4.99999,8.99999 -7.50001,14.49999 -20.99998,6.50001 -13.50002,-8.00001 -19.00002,-9.50001 -19.00002,-9.50001 0,0 -2,24 -2,41.99999 0,18.00001 -0.99998,44.50002 12.49999,47 13.50002,2.5 16.00003,-6 23.50004,-13.99998 7.49996,-8.00001 18.99997,-11.00001 23.99996,-2.50001 5.00003,8.5 2.20537,19.65456 -7.99997,33 -13.00001,17 -27.56267,29.06248 -52.49999,25.99999 -28.50003,-3.49999 -41.50004,-24 -41.50004,-24 0,0 -14.99671,24.59668 -42.99998,25.5 C 443.99998,379.49999 430,357.5 430,357.5 c 0,0 -14.00003,24.49999 -42.00001,23.99998 -28.00001,-0.5 -45.49999,-21.5 -45.49999,-21.5 0,0 -15.00001,19.00002 -39.50003,17 -24.49998,-1.99999 -38.50001,-19.49998 -42,-30 -3.5,-10.49999 5.5,-15.5 15.50002,-13 9.99997,2.50001 29.5,5.50001 37.49998,-16.50001 C 321.99998,295.49999 319,300.99999 319,282.49999 Z"
       inkscape:connector-curvature="0" />
  </g>
</svg>
