<?xml version="1.0" encoding="UTF-8" standalone="no"?>
<svg
   xmlns:dc="http://purl.org/dc/elements/1.1/"
   xmlns:cc="http://creativecommons.org/ns#"
   xmlns:rdf="http://www.w3.org/1999/02/22-rdf-syntax-ns#"
   xmlns:svg="http://www.w3.org/2000/svg"
   xmlns="http://www.w3.org/2000/svg"
   xmlns:sodipodi="http://sodipodi.sourceforge.net/DTD/sodipodi-0.dtd"
   xmlns:inkscape="http://www.inkscape.org/namespaces/inkscape"
   width="400"
   height="400"
   version="1.1"
   id="svg18"
   sodipodi:docname="R-engine.svg"
   inkscape:version="0.92.2 (5c3e80d, 2017-08-06)">
  <metadata
     id="metadata24">
    <rdf:RDF>
      <cc:Work
         rdf:about="">
        <dc:format>image/svg+xml</dc:format>
        <dc:type
           rdf:resource="http://purl.org/dc/dcmitype/StillImage" />
        <dc:title></dc:title>
      </cc:Work>
    </rdf:RDF>
  </metadata>
  <defs
     id="defs22">
    <mask
       id="_1-3">
      <g
         id="g30">
        <path
           inkscape:connector-curvature="0"
           d="M 0,0 H 400 V 400 H 0 Z"
           style="fill:#ffffff;stroke:none"
           id="path26" />
        <path
           inkscape:connector-curvature="0"
           d="m 279.78089,189.54365 c 25.44653,44.11435 10.34541,100.52316 -33.72922,125.99259 -44.07468,25.46947 -100.43275,10.3548 -125.87929,-33.7596 -25.446485,-44.11435 -10.34539,-100.52318 33.72929,-125.99265 44.07463,-25.46943 100.43271,-10.35471 125.87922,33.75966 z"
           style="fill:#000000;fill-rule:nonzero;stroke:none"
           id="path28" />
      </g>
    </mask>
  </defs>
  <sodipodi:namedview
     pagecolor="#ffffff"
     bordercolor="#666666"
     borderopacity="1"
     objecttolerance="10"
     gridtolerance="10"
     guidetolerance="10"
     inkscape:pageopacity="0"
     inkscape:pageshadow="2"
     inkscape:window-width="1920"
     inkscape:window-height="1027"
     id="namedview20"
     showgrid="false"
     inkscape:zoom="0.72375"
     inkscape:cx="248.69294"
     inkscape:cy="244.22706"
     inkscape:window-x="-8"
     inkscape:window-y="-8"
     inkscape:window-maximized="1"
     inkscape:current-layer="svg18" />
  <mask
     id="_1">
    <g
       id="g14">
      <path
         d="M 0,0 400,0 400,400 0,400 0,0 Z"
         style="stroke:none; fill:white"
         id="path10" />
      <path
         d="M 302.882123,176.194119 C 335.694718,233.078432 316.222262,305.816126 259.389162,338.658285 C 202.556086,371.500444 129.883814,352.010441 97.071195,295.126152 C 64.258599,238.241863 83.731079,165.504146 140.564179,132.661986 C 197.397280,99.819827 270.069528,119.309831 302.882123,176.194119 Z"
         style="stroke:none; fill:black"
         fill-rule="nonzero"
         id="path12" />
    </g>
  </mask>
  <g
     id="g6009">
    <path
       transform="matrix(0.729,0,0,0.729,54.210801,54.750404)"
       id="Rotary Triangle copy 11"
       inkscape:label="Rotary Triangle copy 11"
       style="fill:#b6bbbe;fill-rule:nonzero;stroke:none;fill-opacity:1"
       mask="url(#_1)"
       d="m 325.45834,163.148 c 36.98125,64.11109 63.01186,181.4173 63.01186,181.4173 0,0 -114.52253,36.10434 -188.48501,36.10434 -73.96252,0 -188.485022,-36.10439 -188.485022,-36.10439 0,0 26.030612,-117.30614 63.011885,-181.41725 C 111.49328,99.036884 199.99371,17.820334 199.99371,17.820334 c 0,0 88.48338,81.21655 125.46463,145.327666 z"
       inkscape:connector-curvature="0" />
    <path
       id="Inner Gear copy 12"
       inkscape:label="Inner Gear copy 12"
       style="fill:#b6bbbe;fill-rule:nonzero;stroke:none;fill-opacity:1"
       mask="url(#_1-3)"
       d="m 297.63186,179.22811 c 31.13849,53.98202 12.65953,123.00866 -41.27393,154.17519 -53.93345,31.16656 -122.89796,12.6709 -154.03645,-41.31112 -31.13849,-53.98204 -12.6595,-123.00866 41.27393,-154.17521 53.93345,-31.16653 122.89796,-12.6709 154.03645,41.31114 z"
       inkscape:connector-curvature="0"
       transform="matrix(0.729,0,0,0.729,54.210543,54.750361)" />
    <path
       id="Shape 1"
       inkscape:label="Shape 1"
       style="fill:#b6bbbe;fill-rule:nonzero;stroke:none;stroke-width:0.72899997;fill-opacity:1"
       d="m 196.36544,152.61831 c 0,0 7.24443,0 7.24443,0 0,0 0,12.57524 0,12.57524 0,0 -7.24443,0 -7.24443,0 0,0 0,-12.57524 0,-12.57524 z m 7.24443,147.85029 c 0,0 -7.24443,0 -7.24443,0 0,0 0,-12.57524 0,-12.57524 0,0 7.24443,0 7.24443,0 0,0 0,12.57524 0,12.57524 z m 70.30294,-77.54735 c 0,0 0,7.24441 0,7.24441 0,0 -12.57524,0 -12.57524,0 0,0 0,-7.24441 0,-7.24441 0,0 12.57524,0 12.57524,0 z m -147.85031,7.24441 c 0,0 0,-7.24441 0,-7.24441 0,0 12.57526,0 12.57526,0 0,0 0,7.24441 0,7.24441 0,0 -12.57526,0 -12.57526,0 z m 123.63684,-58.45648 c 0,0 5.1226,5.1226 5.1226,5.1226 0,0 -8.89204,8.89205 -8.89204,8.89205 0,0 -5.1226,-5.12261 -5.1226,-5.12261 0,0 8.89204,-8.89204 8.89204,-8.89204 z m -99.42336,109.66854 c 0,0 -5.12258,-5.12259 -5.12258,-5.12259 0,0 8.89204,-8.89204 8.89204,-8.89204 0,0 5.12258,5.1226 5.12258,5.1226 0,0 -8.89204,8.89203 -8.89204,8.89203 z m 104.54596,-5.12259 c 0,0 -5.1226,5.12259 -5.1226,5.12259 0,0 -8.89204,-8.89203 -8.89204,-8.89203 0,0 5.1226,-5.1226 5.1226,-5.1226 0,0 8.89204,8.89204 8.89204,8.89204 z M 145.1534,176.83178 c 0,0 5.12258,-5.1226 5.12258,-5.1226 0,0 8.89204,8.89204 8.89204,8.89204 0,0 -5.12258,5.12261 -5.12258,5.12261 0,0 -8.89204,-8.89205 -8.89204,-8.89205 z m 70.4687,-22.63203 c 0,0 6.9976,1.87499 6.9976,1.87499 0,0 -3.25473,12.14676 -3.25473,12.14676 0,0 -6.99758,-1.875 -6.99758,-1.875 0,0 3.25471,-12.14675 3.25471,-12.14675 z m -31.26887,144.68741 c 0,0 -6.99759,-1.87499 -6.99759,-1.87499 0,0 3.25471,-12.14676 3.25471,-12.14676 0,0 6.99759,1.875 6.99759,1.875 0,0 -3.25471,12.14675 -3.25471,12.14675 z m 87.97815,-56.70927 c 0,0 -1.875,6.99759 -1.875,6.99759 0,0 -12.14676,-3.2547 -12.14676,-3.2547 0,0 1.87501,-6.9976 1.87501,-6.9976 0,0 12.14675,3.25471 12.14675,3.25471 z M 127.64396,210.90902 c 0,0 1.875,-6.9976 1.875,-6.9976 0,0 12.14675,3.25472 12.14675,3.25472 0,0 -1.875,6.99759 -1.875,6.99759 0,0 -12.14675,-3.25471 -12.14675,-3.25471 z m 134.55366,-24.46508 c 0,0 3.62221,6.27387 3.62221,6.27387 0,0 -10.89048,6.28762 -10.89048,6.28762 0,0 -3.62222,-6.27386 -3.62222,-6.27386 0,0 10.89049,-6.28763 10.89049,-6.28763 z m -124.4199,80.19903 c 0,0 -3.62223,-6.27387 -3.62223,-6.27387 0,0 10.89049,-6.28763 10.89049,-6.28763 0,0 3.62221,6.27386 3.62221,6.27386 0,0 -10.89047,6.28764 -10.89047,6.28764 z m 102.30946,22.11043 c 0,0 -6.27388,3.62222 -6.27388,3.62222 0,0 -6.28761,-10.89048 -6.28761,-10.89048 0,0 6.27386,-3.62222 6.27386,-3.62222 0,0 6.28763,10.89048 6.28763,10.89048 z M 159.88816,164.3335 c 0,0 6.27386,-3.62221 6.27386,-3.62221 0,0 6.28763,10.89048 6.28763,10.89048 0,0 -6.27386,3.62223 -6.27386,3.62223 0,0 -6.28763,-10.8905 -6.28763,-10.8905 z m 73.92514,-3.62221 c 0,0 6.27388,3.62221 6.27388,3.62221 0,0 -6.28763,10.8905 -6.28763,10.8905 0,0 -6.27386,-3.62223 -6.27386,-3.62223 0,0 6.28761,-10.89048 6.28761,-10.89048 z m -67.65128,131.66433 c 0,0 -6.27386,-3.62222 -6.27386,-3.62222 0,0 6.28763,-10.89048 6.28763,-10.89048 0,0 6.27386,3.62222 6.27386,3.62222 0,0 -6.28763,10.89048 -6.28763,10.89048 z m 99.65781,-32.00652 c 0,0 -3.62221,6.27387 -3.62221,6.27387 0,0 -10.89049,-6.28764 -10.89049,-6.28764 0,0 3.62222,-6.27386 3.62222,-6.27386 0,0 10.89048,6.28763 10.89048,6.28763 z M 134.15549,192.71781 c 0,0 3.62223,-6.27387 3.62223,-6.27387 0,0 10.89047,6.28763 10.89047,6.28763 0,0 -3.62221,6.27386 -3.62221,6.27386 0,0 -10.89049,-6.28762 -10.89049,-6.28762 z m 136.30089,11.19361 c 0,0 1.875,6.9976 1.875,6.9976 0,0 -12.14675,3.25471 -12.14675,3.25471 0,0 -1.87501,-6.99759 -1.87501,-6.99759 0,0 12.14676,-3.25472 12.14676,-3.25472 z m -140.93742,45.26406 c 0,0 -1.875,-6.99759 -1.875,-6.99759 0,0 12.14675,-3.25471 12.14675,-3.25471 0,0 1.875,6.9976 1.875,6.9976 0,0 -12.14675,3.2547 -12.14675,3.2547 z m 93.10074,47.83669 c 0,0 -6.9976,1.87499 -6.9976,1.87499 0,0 -3.25471,-12.14675 -3.25471,-12.14675 0,0 6.99758,-1.875 6.99758,-1.875 0,0 3.25473,12.14676 3.25473,12.14676 z M 177.35564,156.07474 c 0,0 6.99759,-1.87499 6.99759,-1.87499 0,0 3.25471,12.14675 3.25471,12.14675 0,0 -6.99759,1.875 -6.99759,1.875 0,0 -3.25471,-12.14676 -3.25471,-12.14676 z"
       inkscape:connector-curvature="0" />
  </g>
</svg>
