<?xml version="1.0" encoding="UTF-8" standalone="no"?>
<svg
   xmlns:dc="http://purl.org/dc/elements/1.1/"
   xmlns:cc="http://creativecommons.org/ns#"
   xmlns:rdf="http://www.w3.org/1999/02/22-rdf-syntax-ns#"
   xmlns:svg="http://www.w3.org/2000/svg"
   xmlns="http://www.w3.org/2000/svg"
   xmlns:sodipodi="http://sodipodi.sourceforge.net/DTD/sodipodi-0.dtd"
   xmlns:inkscape="http://www.inkscape.org/namespaces/inkscape"
   width="400"
   height="400"
   version="1.1"
   id="svg18"
   sodipodi:docname="R-engine.svg"
   inkscape:version="0.92.2 (5c3e80d, 2017-08-06)">
  <metadata
     id="metadata24">
    <rdf:RDF>
      <cc:Work
         rdf:about="">
        <dc:format>image/svg+xml</dc:format>
        <dc:type
           rdf:resource="http://purl.org/dc/dcmitype/StillImage" />
        <dc:title></dc:title>
      </cc:Work>
    </rdf:RDF>
  </metadata>
  <defs
     id="defs22">
    <mask
       id="_1-3">
      <g
         id="g30">
        <path
           inkscape:connector-curvature="0"
           d="M 0,0 H 400 V 400 H 0 Z"
           style="fill:#ffffff;stroke:none"
           id="path26" />
        <path
           inkscape:connector-curvature="0"
           d="m 279.78089,189.54365 c 25.44653,44.11435 10.34541,100.52316 -33.72922,125.99259 -44.07468,25.46947 -100.43275,10.3548 -125.87929,-33.7596 -25.446485,-44.11435 -10.34539,-100.52318 33.72929,-125.99265 44.07463,-25.46943 100.43271,-10.35471 125.87922,33.75966 z"
           style="fill:#000000;fill-rule:nonzero;stroke:none"
           id="path28" />
      </g>
    </mask>
  </defs>
  <sodipodi:namedview
     pagecolor="#ffffff"
     bordercolor="#666666"
     borderopacity="1"
     objecttolerance="10"
     gridtolerance="10"
     guidetolerance="10"
     inkscape:pageopacity="0"
     inkscape:pageshadow="2"
     inkscape:window-width="1920"
     inkscape:window-height="1027"
     id="namedview20"
     showgrid="false"
     inkscape:zoom="0.72375"
     inkscape:cx="248.69294"
     inkscape:cy="244.22706"
     inkscape:window-x="-8"
     inkscape:window-y="-8"
     inkscape:window-maximized="1"
     inkscape:current-layer="svg18" />
  <mask
     id="_1">
    <g
       id="g14">
      <path
         d="M 0,0 400,0 400,400 0,400 0,0 Z"
         style="stroke:none; fill:white"
         id="path10" />
      <path
         d="M 302.882123,176.194119 C 335.694718,233.078432 316.222262,305.816126 259.389162,338.658285 C 202.556086,371.500444 129.883814,352.010441 97.071195,295.126152 C 64.258599,238.241863 83.731079,165.504146 140.564179,132.661986 C 197.397280,99.819827 270.069528,119.309831 302.882123,176.194119 Z"
         style="stroke:none; fill:black"
         fill-rule="nonzero"
         id="path12" />
    </g>
  </mask>
  <g
     id="g3860"
     transform="matrix(0.729,0,0,0.729,54.210801,54.750404)">
    <path
       id="Rotary Triangle copy 11"
       inkscape:label="Rotary Triangle copy 11"
       style="fill:#373737;fill-rule:nonzero;stroke:none"
       mask="url(#_1)"
       d="m 325.45834,163.148 c 36.98125,64.11109 63.01186,181.4173 63.01186,181.4173 0,0 -114.52253,36.10434 -188.48501,36.10434 -73.96252,0 -188.485022,-36.10439 -188.485022,-36.10439 0,0 26.030612,-117.30614 63.011885,-181.41725 C 111.49328,99.036884 199.99371,17.820334 199.99371,17.820334 c 0,0 88.48338,81.21655 125.46463,145.327666 z"
       inkscape:connector-curvature="0" />
    <path
       id="Inner Gear copy 12"
       inkscape:label="Inner Gear copy 12"
       style="fill:#373737;fill-rule:nonzero;stroke:none"
       mask="url(#_1-3)"
       d="m 297.63186,179.22811 c 31.13849,53.98202 12.65953,123.00866 -41.27393,154.17519 -53.93345,31.16656 -122.89796,12.6709 -154.03645,-41.31112 -31.13849,-53.98204 -12.6595,-123.00866 41.27393,-154.17521 53.93345,-31.16653 122.89796,-12.6709 154.03645,41.31114 z"
       inkscape:connector-curvature="0"
       transform="translate(-3.5423059e-4,-5.9295517e-5)" />
    <path
       id="Shape 1"
       inkscape:label="Shape 1"
       style="fill:#373737;fill-rule:nonzero;stroke:none"
       d="m 194.99951,134.24953 c 0,0 9.93749,0 9.93749,0 0,0 0,17.24999 0,17.24999 0,0 -9.93749,0 -9.93749,0 0,0 0,-17.24999 0,-17.24999 z M 204.937,337.062 c 0,0 -9.93749,0 -9.93749,0 0,0 0,-17.24999 0,-17.24999 0,0 9.93749,0 9.93749,0 0,0 0,17.24999 0,17.24999 z m 96.4375,-106.37497 c 0,0 0,9.93747 0,9.93747 0,0 -17.24999,0 -17.24999,0 0,0 0,-9.93747 0,-9.93747 0,0 17.24999,0 17.24999,0 z M 98.562,240.6245 c 0,0 0,-9.93747 0,-9.93747 0,0 17.25002,0 17.25002,0 0,0 0,9.93747 0,9.93747 0,0 -17.25002,0 -17.25002,0 z m 169.59786,-80.18722 c 0,0 7.02689,7.02689 7.02689,7.02689 0,0 -12.19759,12.19759 -12.19759,12.19759 0,0 -7.02689,-7.02689 -7.02689,-7.02689 0,0 12.19759,-12.19759 12.19759,-12.19759 z M 131.77665,310.87424 c 0,0 -7.02686,-7.02688 -7.02686,-7.02688 0,0 12.19759,-12.19759 12.19759,-12.19759 0,0 7.02686,7.02689 7.02686,7.02689 0,0 -12.19759,12.19758 -12.19759,12.19758 z m 143.4101,-7.02688 c 0,0 -7.02689,7.02688 -7.02689,7.02688 0,0 -12.19759,-12.19758 -12.19759,-12.19758 0,0 7.02689,-7.02689 7.02689,-7.02689 0,0 12.19759,12.19759 12.19759,12.19759 z M 124.74979,167.46417 c 0,0 7.02686,-7.02689 7.02686,-7.02689 0,0 12.19759,12.19759 12.19759,12.19759 0,0 -7.02686,7.02689 -7.02686,7.02689 0,0 -12.19759,-12.19759 -12.19759,-12.19759 z m 96.66489,-31.04532 c 0,0 9.5989,2.57201 9.5989,2.57201 0,0 -4.46465,16.66222 -4.46465,16.66222 0,0 -9.59887,-2.57201 -9.59887,-2.57201 0,0 4.46462,-16.66222 4.46462,-16.66222 z m -42.89283,198.47382 c 0,0 -9.59889,-2.57201 -9.59889,-2.57201 0,0 4.46462,-16.66221 4.46462,-16.66221 0,0 9.5989,2.57201 9.5989,2.57201 0,0 -4.46463,16.66221 -4.46463,16.66221 z m 120.68333,-77.79049 c 0,0 -2.57201,9.59889 -2.57201,9.59889 0,0 -16.66222,-4.46462 -16.66222,-4.46462 0,0 2.57202,-9.5989 2.57202,-9.5989 0,0 16.66221,4.46463 16.66221,4.46463 z M 100.73135,214.20935 c 0,0 2.57202,-9.5989 2.57202,-9.5989 0,0 16.66221,4.46463 16.66221,4.46463 0,0 -2.57201,9.59889 -2.57201,9.59889 0,0 -16.66222,-4.46462 -16.66222,-4.46462 z m 184.57293,-33.55978 c 0,0 4.96874,8.60613 4.96874,8.60613 0,0 -14.93893,8.625 -14.93893,8.625 0,0 -4.96876,-8.60612 -4.96876,-8.60612 0,0 14.93895,-8.62501 14.93895,-8.62501 z M 114.63226,290.66195 c 0,0 -4.96877,-8.60612 -4.96877,-8.60612 0,0 14.93895,-8.62501 14.93895,-8.62501 0,0 4.96874,8.60612 4.96874,8.60612 0,0 -14.93892,8.62501 -14.93892,8.62501 z m 140.3422,30.32982 c 0,0 -8.60615,4.96874 -8.60615,4.96874 0,0 -8.62498,-14.93892 -8.62498,-14.93892 0,0 8.60612,-4.96876 8.60612,-4.96876 0,0 8.62501,14.93894 8.62501,14.93894 z M 144.96208,150.31975 c 0,0 8.60612,-4.96874 8.60612,-4.96874 0,0 8.62501,14.93893 8.62501,14.93893 0,0 -8.60612,4.96876 -8.60612,4.96876 0,0 -8.62501,-14.93895 -8.62501,-14.93895 z m 101.40623,-4.96874 c 0,0 8.60615,4.96874 8.60615,4.96874 0,0 -8.62501,14.93895 -8.62501,14.93895 0,0 -8.60612,-4.96876 -8.60612,-4.96876 0,0 8.62498,-14.93893 8.62498,-14.93893 z m -92.80011,180.6095 c 0,0 -8.60612,-4.96874 -8.60612,-4.96874 0,0 8.62501,-14.93894 8.62501,-14.93894 0,0 8.60612,4.96876 8.60612,4.96876 0,0 -8.62501,14.93892 -8.62501,14.93892 z m 136.70482,-43.90468 c 0,0 -4.96874,8.60612 -4.96874,8.60612 0,0 -14.93895,-8.62501 -14.93895,-8.62501 0,0 4.96876,-8.60612 4.96876,-8.60612 0,0 14.93893,8.62501 14.93893,8.62501 z M 109.66349,189.2557 c 0,0 4.96877,-8.60613 4.96877,-8.60613 0,0 14.93892,8.62501 14.93892,8.62501 0,0 -4.96874,8.60612 -4.96874,8.60612 0,0 -14.93895,-8.625 -14.93895,-8.625 z m 186.96968,15.35475 c 0,0 2.57201,9.5989 2.57201,9.5989 0,0 -16.66221,4.46462 -16.66221,4.46462 0,0 -2.57202,-9.59889 -2.57202,-9.59889 0,0 16.66222,-4.46463 16.66222,-4.46463 z m -193.3298,62.09062 c 0,0 -2.57202,-9.59889 -2.57202,-9.59889 0,0 16.66222,-4.46463 16.66222,-4.46463 0,0 2.57201,9.5989 2.57201,9.5989 0,0 -16.66221,4.46462 -16.66221,4.46462 z m 127.71021,65.61959 c 0,0 -9.5989,2.57201 -9.5989,2.57201 0,0 -4.46462,-16.66221 -4.46462,-16.66221 0,0 9.59887,-2.57201 9.59887,-2.57201 0,0 4.46465,16.66221 4.46465,16.66221 z m -62.09062,-193.3298 c 0,0 9.59889,-2.57201 9.59889,-2.57201 0,0 4.46463,16.66222 4.46463,16.66222 0,0 -9.5989,2.57201 -9.5989,2.57201 0,0 -4.46462,-16.66222 -4.46462,-16.66222 z"
       inkscape:connector-curvature="0" />
  </g>
</svg>
