<?xml version="1.0" encoding="UTF-8" standalone="no"?>
<svg
   xmlns:dc="http://purl.org/dc/elements/1.1/"
   xmlns:cc="http://creativecommons.org/ns#"
   xmlns:rdf="http://www.w3.org/1999/02/22-rdf-syntax-ns#"
   xmlns:svg="http://www.w3.org/2000/svg"
   xmlns="http://www.w3.org/2000/svg"
   xmlns:sodipodi="http://sodipodi.sourceforge.net/DTD/sodipodi-0.dtd"
   xmlns:inkscape="http://www.inkscape.org/namespaces/inkscape"
   width="620"
   height="620"
   version="1.1"
   id="svg223"
   sodipodi:docname="RR.svg"
   inkscape:version="0.92.2 (5c3e80d, 2017-08-06)">
  <metadata
     id="metadata229">
    <rdf:RDF>
      <cc:Work
         rdf:about="">
        <dc:format>image/svg+xml</dc:format>
        <dc:type
           rdf:resource="http://purl.org/dc/dcmitype/StillImage" />
        <dc:title></dc:title>
      </cc:Work>
    </rdf:RDF>
  </metadata>
  <defs
     id="defs227" />
  <sodipodi:namedview
     pagecolor="#ffffff"
     bordercolor="#666666"
     borderopacity="1"
     objecttolerance="10"
     gridtolerance="10"
     guidetolerance="10"
     inkscape:pageopacity="0"
     inkscape:pageshadow="2"
     inkscape:window-width="1920"
     inkscape:window-height="1027"
     id="namedview225"
     showgrid="false"
     inkscape:zoom="0.78225806"
     inkscape:cx="310"
     inkscape:cy="165"
     inkscape:window-x="-8"
     inkscape:window-y="-8"
     inkscape:window-maximized="1"
     inkscape:current-layer="svg223" />
  <mask
     id="_1">
    <g
       id="g211">
      <path
         d="M 0,0 H 620 V 330 H 0 Z"
         style="fill:#ffffff;stroke:none"
         id="path207"
         inkscape:connector-curvature="0" />
      <path
         d="m 325.99998,222.66666 c 0,13.33333 2.33334,15.66667 9,22.33332 6.66666,6.66668 18.33335,7.66667 34.33333,10.66667 15.99999,3 22.00002,4 32.66668,3 10.66665,-1 22.99997,-10.33333 34.66667,-33.66667 C 448.33331,201.66666 447.33331,165 447.33331,165 c 0,0 1,-36.66668 -10.66665,-60 -11.6667,-23.333339 -24.00002,-32.66667 -34.66667,-33.666669 -10.66666,-0.999999 -16.66669,0 -32.66668,2.999997 -15.99998,2.999997 -27.66667,3.999996 -34.33333,10.66667 -6.66666,6.666653 -9,8.999991 -9,22.333322 0,13.33334 0,57.66668 0,57.66668 0,0 0,44.33332 0,57.66666 z"
         style="fill:#000000;fill-rule:nonzero;stroke:none"
         id="path209"
         inkscape:connector-curvature="0" />
    </g>
  </mask>
  <path
     d="m 418.99997,324.99999 c 0,0 90.00003,0 90.00003,0 2.76141,0 4.99999,2.23859 4.99999,4.99999 0,0 0,37.00001 0,37.00001 0,2.76142 -2.23858,4.99999 -4.99999,4.99999 0,0 -90.00003,0 -90.00003,0 -2.76142,0 -5,-2.23857 -5,-4.99999 0,0 0,-37.00001 0,-37.00001 0,-2.7614 2.23858,-4.99999 5,-4.99999 z m 90.00003,260 c 0,0 -90.00003,0 -90.00003,0 -2.76142,0 -5,-2.23858 -5,-4.99999 0,0 0,-37 0,-37 0,-2.76143 2.23858,-5 5,-5 0,0 90.00003,0 90.00003,0 2.76141,0 4.99999,2.23857 4.99999,5 0,0 0,37 0,37 0,2.76141 -2.23858,4.99999 -4.99999,4.99999 z"
     style="display:none;fill:#d1d1d1;fill-rule:nonzero;stroke:none"
     inkscape:label="FWD"
     id="FWD"
     display="none"
     inkscape:connector-curvature="0" />
  <path
     d="m 448.99998,428.49999 c 0,0 30.00001,0 30.00001,0 0,0 0,53 0,53 0,0 -30.00001,0 -30.00001,0 0,0 0,-53 0,-53 z M 456.49997,352.5 c 0,0 15.00002,0 15.00002,0 0,0 0,204.99998 0,204.99998 0,0 -15.00002,0 -15.00002,0 0,0 0,-204.99998 0,-204.99998 z"
     style="display:none;fill:#d1d1d1;fill-rule:nonzero;stroke:none"
     inkscape:label="font axle"
     id="font axle"
     display="none"
     inkscape:connector-curvature="0" />
  <path
     d="m 463.99996,447.49999 c 0,0 0,15 0,15 0,0 -342.49996,0 -342.49996,0 0,0 0,-15 0,-15 0,0 342.49996,0 342.49996,0 z"
     style="display:none;fill:#d1d1d1;fill-rule:nonzero;stroke:none"
     inkscape:label="driveline"
     id="driveline"
     display="none"
     inkscape:connector-curvature="0" />
  <path
     d="m 428.5,406.49999 c 0,0 70.99997,0 70.99997,0 5.52287,0 10.00003,4.47716 10.00003,10.00001 0,0 0,76.99998 0,76.99998 0,5.52285 -4.47716,10.00001 -10.00003,10.00001 0,0 -70.99997,0 -70.99997,0 -5.52287,0 -10.00003,-4.47716 -10.00003,-10.00001 0,0 0,-76.99998 0,-76.99998 0,-5.52285 4.47716,-10.00001 10.00003,-10.00001 z"
     style="display:none;fill:#e3a100;fill-rule:nonzero;stroke:none"
     inkscape:label="FE"
     id="FE"
     display="none"
     inkscape:connector-curvature="0" />
  <path
     d="m 150.49997,406.49999 c 0,0 71,0 71,0 5.52287,0 9.99999,4.47716 9.99999,10.00001 0,0 0,76.99998 0,76.99998 0,5.52285 -4.47712,10.00001 -9.99999,10.00001 0,0 -71,0 -71,0 -5.52284,0 -9.99999,-4.47716 -9.99999,-10.00001 0,0 0,-76.99998 0,-76.99998 0,-5.52285 4.47715,-10.00001 9.99999,-10.00001 z"
     style="display:none;fill:#e3a100;fill-rule:nonzero;stroke:none"
     inkscape:label="ME"
     id="ME"
     display="none"
     inkscape:connector-curvature="0" />
  <g
     id="g4474"
     transform="matrix(0.9,0,0,0.9,32.200236,-99.499992)">
    <path
       transform="translate(0,290)"
       inkscape:connector-curvature="0"
       id="Shape 1"
       inkscape:label="Shape 1"
       style="fill:#373737;fill-rule:nonzero;stroke:none"
       mask="url(#_1)"
       d="m 21.499979,218.49999 c 1.999999,26.49999 7.999993,47.99999 13.499988,54.00001 5.500031,5.99999 19.000018,17.5 47.500028,21.5 28.499975,3.99999 57.999985,4.49999 77.000005,3.49999 18.99998,-1 51.99998,-6.99999 67.99997,-6.99999 16.00002,0 106.00001,0 106.00001,0 0,0 -6,19 -6,19 0,0 1,3.5 5.5,4.5 4.49999,1 11.99999,1.99999 18.00002,0 5.99999,-2 12.49999,-22 12.49999,-22 0,0 42.49999,0 42.49999,0 0,0 32.50001,5.49999 63.00002,5.49999 30.49997,0 54.49998,0 92.99998,-32.00001 C 600.49998,233.49999 596.99999,165 596.99999,165 c 0,0 3.49999,-68.500013 -35.00001,-100.500003 C 523.49998,32.499989 499.49997,32.499989 469,32.499989 c -30.50001,0 -63.00002,5.499994 -63.00002,5.499994 0,0 -42.49999,0 -42.49999,0 0,0 -6.5,-20 -12.49999,-21.999998 -6.00003,-1.999998 -13.50003,-0.999999 -18.00002,0 -4.5,0.999999 -5.5,4.499995 -5.5,4.499995 0,0 6,19.000002 6,19.000002 0,0 -89.99999,0 -106.00001,0 -15.99999,0 -48.99999,-5.999994 -67.99997,-6.999993 -19.00002,-0.999999 -48.50003,-0.5 -77.000005,3.499996 -28.50001,3.999997 -41.999997,15.500005 -47.500028,21.5 C 29.499972,63.499998 23.499978,84.999998 21.499979,111.49999 19.499981,137.99999 20.49998,165 20.49998,165 c 0,0 -0.999999,26.99999 0.999999,53.49999 z" />
    <path
       inkscape:connector-curvature="0"
       id="RWD"
       inkscape:label="RWD"
       style="fill:#d1d1d1;fill-rule:nonzero;stroke:none"
       d="m 75.999964,324.99999 c 0,0 90.000026,0 90.000026,0 2.76142,0 4.99999,2.23859 4.99999,4.99999 0,0 0,37.00001 0,37.00001 0,2.76142 -2.23857,4.99999 -4.99999,4.99999 0,0 -90.000026,0 -90.000026,0 -2.761416,0 -4.999995,-2.23857 -4.999995,-4.99999 0,0 0,-37.00001 0,-37.00001 0,-2.7614 2.238579,-4.99999 4.999995,-4.99999 z m 90.000026,260 c 0,0 -90.000026,0 -90.000026,0 -2.761416,0 -4.999995,-2.23858 -4.999995,-4.99999 0,0 0,-37 0,-37 0,-2.76143 2.238579,-5 4.999995,-5 0,0 90.000026,0 90.000026,0 2.76142,0 4.99999,2.23857 4.99999,5 0,0 0,37 0,37 0,2.76141 -2.23857,4.99999 -4.99999,4.99999 z" />
    <path
       inkscape:connector-curvature="0"
       id="rear axle"
       inkscape:label="rear axle"
       style="fill:#d1d1d1;fill-rule:nonzero;stroke:none"
       d="m 105.99997,428.49999 c 0,0 30.00001,0 30.00001,0 0,0 0,53 0,53 0,0 -30.00001,0 -30.00001,0 0,0 0,-53 0,-53 z m 7.5,-75.99999 c 0,0 15.00002,0 15.00002,0 0,0 0,204.99998 0,204.99998 0,0 -15.00002,0 -15.00002,0 0,0 0,-204.99998 0,-204.99998 z" />
    <path
       inkscape:connector-curvature="0"
       id="RE"
       inkscape:label="RE"
       style="fill:#e4a000;fill-rule:nonzero;stroke:none"
       d="m 85.499992,406.49999 c 0,0 71.000008,0 71.000008,0 5.52283,0 9.99999,4.47716 9.99999,10.00001 0,0 0,76.99998 0,76.99998 0,5.52285 -4.47716,10.00001 -9.99999,10.00001 0,0 -71.000008,0 -71.000008,0 -5.522869,0 -10.000027,-4.47716 -10.000027,-10.00001 0,0 0,-76.99998 0,-76.99998 0,-5.52285 4.477158,-10.00001 10.000027,-10.00001 z" />
  </g>
</svg>
