<?xml version="1.0" encoding="UTF-8" standalone="no"?>
<svg
   xmlns:dc="http://purl.org/dc/elements/1.1/"
   xmlns:cc="http://creativecommons.org/ns#"
   xmlns:rdf="http://www.w3.org/1999/02/22-rdf-syntax-ns#"
   xmlns:svg="http://www.w3.org/2000/svg"
   xmlns="http://www.w3.org/2000/svg"
   xmlns:sodipodi="http://sodipodi.sourceforge.net/DTD/sodipodi-0.dtd"
   xmlns:inkscape="http://www.inkscape.org/namespaces/inkscape"
   width="550"
   height="375"
   version="1.1"
   id="svg1142"
   sodipodi:docname="ship.svg"
   inkscape:version="0.92.1 r15371">
  <metadata
     id="metadata1148">
    <rdf:RDF>
      <cc:Work
         rdf:about="">
        <dc:format>image/svg+xml</dc:format>
        <dc:type
           rdf:resource="http://purl.org/dc/dcmitype/StillImage" />
        <dc:title></dc:title>
      </cc:Work>
    </rdf:RDF>
  </metadata>
  <defs
     id="defs1146" />
  <sodipodi:namedview
     pagecolor="#ffffff"
     bordercolor="#666666"
     borderopacity="1"
     objecttolerance="10"
     gridtolerance="10"
     guidetolerance="10"
     inkscape:pageopacity="0"
     inkscape:pageshadow="2"
     inkscape:window-width="1304"
     inkscape:window-height="746"
     id="namedview1144"
     showgrid="false"
     inkscape:zoom="1.136"
     inkscape:cx="210.05565"
     inkscape:cy="200.89686"
     inkscape:window-x="-8"
     inkscape:window-y="-8"
     inkscape:window-maximized="1"
     inkscape:current-layer="svg1142" />
  <g
     id="g1869"
     transform="translate(28.67858,-24.498841)">
    <path
       inkscape:connector-curvature="0"
       id="Shape 1 copy"
       d="m 416.87109,221.32812 c -1.24434,0.2149 -2.27104,0.38743 -3.87109,0.67188 -22.50001,4.00001 -46.50001,9.5 -77,24 -30.50003,14.50001 -58,55 -58,55 0,0 -0.50001,-21.99999 -42.5,-25 -42,-2.99999 -73.00001,-1.50001 -103.5,5.5 -6.71157,1.54036 -13.90496,3.42541 -21.04688,5.41992 2.13578,2.09189 4.33574,4.14866 6.59376,6.17188 6.15446,-0.86584 11.98529,-1.60476 16.95312,-2.0918 25.5,-2.49999 48.5,-3.00001 62.5,0.5 14,3.49998 24,10 24,10 0,0 -18,-8 -50.5,-7 -26.94622,0.82911 -40.33268,4.71094 -44.17383,6.02734 31.13444,25.00184 71.74257,43.55789 116.17383,50.53711 98.03054,15.39855 177.5,-31.358 177.5,-104.43359 0,-8.48166 -1.08299,-16.9435 -3.12891,-25.30274 z"
       style="opacity:1;fill:#002395;fill-opacity:1;stroke:none" />
    <path
       inkscape:connector-curvature="0"
       id="Shape 1"
       d="m 206.72852,83.503906 c -13.9452,-0.06332 -27.2893,1.193954 -39.83399,3.632813 8.68938,0.937237 21.33866,3.640943 30.60547,11.363281 13.238,11.03167 6.74095,19.34066 2.37305,22.97461 8.22653,1.73971 15.5183,5.04395 23.12695,11.52539 11.868,10.10978 9.04957,20.60191 3.43945,27.06836 13.61902,2.89527 25.33774,9.85896 41.56055,22.43164 40.00002,31.00002 8,58.5 8,58.5 0,0 48,-7.5 78,-13.5 30,-6.00002 37.34869,-8.01233 57.25,-10.5 1.37462,-0.17183 2.86735,-0.33729 4.33008,-0.50391 C 397.62363,154.77172 326.9545,99.699652 242.5,86.433594 230.24619,84.508775 218.28334,83.556371 206.72852,83.503906 Z m -68.41797,11.757813 c -6.63361,2.549466 -12.92418,5.483001 -18.82032,8.783201 5.42667,0.30742 14.62631,1.81446 16.00977,8.45508 1.73703,8.33775 -4.24432,15.70058 -8.06055,19.42383 4.81877,1.27284 7.89305,4.38919 11.06055,11.07617 7.77447,16.41276 -8.67705,31.30731 -13.30859,35.06641 4.02325,0.4493 8.14358,1.35376 12.30859,2.93359 14.49999,5.5 18.01329,13.4982 19.5,24.5 2.5,18.5 -7,26.5 -7,26.5 0,0 -14.99998,-5.00002 -39,1.5 -9.15031,2.47821 -20.183135,8.15707 -30.341797,14.23242 2.857811,5.16545 6.09065,10.23483 9.642578,15.19531 C 97.555878,261.99699 105.01622,261.13489 112,260.5 c 27.5,-2.49999 104.99998,-11.00001 126.5,-13.5 21.49999,-2.50001 46.50002,-13.99999 34,-27 -12.49999,-13.00001 -40.49998,-4.50001 -66.5,3.5 -25.99999,7.99998 -62,24 -62,24 0,0 34.50839,-28.56096 31.5,-51.5 -3.99998,-30.5 -36,-23 -36,-23 0,0 2.0523,-1.42771 6.9082,-3.41211 C 156.48874,164.05633 173.11461,152.36808 164,139 c -7.49999,-11.00001 -23,-13 -23,-13 0,0 17.99998,-9.00001 12,-20.5 -3.3741,-6.467006 -9.75275,-9.137998 -14.68945,-10.238281 z M 214.1875,101.4375 C 215,101.375 217.49998,102.50001 220,104 c 4.99999,3.00001 21,15.00001 37,27 15.99997,12 37,29 37,29 0,0 -31.99998,-22.00001 -42.5,-29.5 -10.49998,-7.50001 -24.49999,-18.00001 -33,-24.5 -4.25,-3.25 -5.125,-4.5 -4.3125,-4.5625 z m -33.14844,10.20313 C 175.15625,111.6875 169.62499,114.12499 165.5,116 c -2.70482,1.22947 -6.37033,3.66687 -9.4043,5.82813 6.55678,-1.38908 14.51945,-2.54123 22.4043,-2.32813 4.7925,0.12953 9.17627,0.33174 13.28516,0.75195 0.54084,-2.41774 0.40076,-6.13134 -4.78516,-7.75195 -2,-0.625 -4,-0.875 -5.96094,-0.85937 z m -63.63867,13.80078 C 109.38036,125.31873 101.03125,127.75 94,131.5 c -4.905541,2.6163 -11.055596,6.99138 -14.898438,9.82031 -0.190539,0.30387 -0.369693,0.61409 -0.55664,0.91992 C 85.883739,138.72122 100.74004,132.22645 112,131.5 c 5.44027,-0.35098 9.61267,-0.49628 13.00391,-0.0371 0.0457,-2.49477 -0.90945,-5.66322 -6.00391,-5.96289 -0.53125,-0.0312 -1.06494,-0.0504 -1.59961,-0.0586 z M 297,142.5 c 0,0 25,14.99999 39,23.5 13.99999,8.50001 38,22 38,22 0,0 -16.00001,-4 -30.5,-5 -9.57,-0.66001 -17.75099,-0.0161 -22.26367,0.5 23.40742,11.51132 82.26367,31 82.26367,31 0,0 -40.50001,-3.00002 -55.5,-1.5 -15.00002,1.49999 -36.5,13.5 -36.5,13.5 0,0 -2.50001,-22.49999 -16.5,-41.5 -10.56162,-14.33362 -37,-39 -37,-39 0,0 33.52721,20.38162 55.29297,33.11914 C 312.72738,175.01594 311.7324,169.95976 310,166 c -3.49998,-8.00001 -13,-23.5 -13,-23.5 z m -219.25,4.375 c -0.69375,0 -1.337797,0.0401 -1.916016,0.0996 -6.33604,11.87427 -10.068788,25.09345 -10.71875,39.38086 0.701482,-0.1112 1.78502,-0.28951 2.623047,-0.42383 C 71.138184,183.86502 77.311092,179.68891 84,173 c 9.999991,-10 9.000012,-18.00001 3,-23 -3.000006,-2.5 -6.500002,-3.125 -9.25,-3.125 z m 130.5293,1.11328 c -11.39433,0.22299 -33.95635,8.94404 -43.46485,15.99219 C 171.11407,162.5327 178.76775,161.13822 188,160 c 12.71312,-1.56737 22.7674,-2.02666 31.69727,-1.01758 C 219.71693,155.1798 218.49821,148.35994 209.5,148 c -0.39062,-0.0156 -0.79811,-0.02 -1.2207,-0.0117 z M 114,168.5 c -9.49999,0 -17.499997,2.50001 -26.5,8.5 -5.04283,3.3619 -9.438875,5.98598 -12.484375,7.74023 C 82.975275,183.41704 92.373123,181.77884 98,180.5 c 7.4917,-1.70266 16.37633,-3.39884 25.86133,-2.57422 C 123.45746,175.30441 121.69041,168.5 114,168.5 Z m -41.453125,21.03906 c -2.542269,0.0336 -5.078752,0.26481 -7.535156,0.62696 -0.0016,0.23462 -0.01172,0.466 -0.01172,0.70117 0,17.19426 4.419817,34.31031 12.425781,50.63867 C 87.943857,231.93918 98.888334,219.71348 98,205.5 97.249985,193.5 84.968744,189.375 72.546875,189.53906 Z"
       style="fill:#df0033;fill-rule:nonzero;stroke:none" />
    <path
       id="Shape 3"
       inkscape:label="Shape 3"
       style="fill:#df0033;fill-rule:nonzero;stroke:none"
       d="m 28.5,226.99999 m 54.058611,19.59996 c 9.618849,-5.64019 16.507417,15.22246 9.959459,16.04404 C 70.355663,265.42474 49.499998,269 49.499998,269 c 0,0 15.772938,-12.2643 33.058613,-22.40005 z M 133.66667,85.333335 c 0,0 -8.66669,-0.66667 -20.33334,-0.333325 -11.66666,0.333325 -20.333326,0.999996 -20.333326,0.999996 0,0 1.333326,1.666667 2.000004,5.66667 0.666648,3.999984 0.666648,7.666663 0.666648,7.666663 0,0 4.999994,-4.666675 14.666674,-7.333337 9.66666,-2.666663 23.33334,-6.666667 23.33334,-6.666667 z m 60.33332,-10.666669 c 0,0 -10,-1.666667 -20.66666,-2.999989 -10.66667,-1.333341 -22.66667,-1.666666 -22.66667,-1.666666 0,0 1.66667,1.999992 2.00001,5 0.33334,2.999988 0.33334,5.66665 0.33334,5.66665 0,0 5.66664,-2.999988 16.33331,-4.333329 10.66667,-1.333321 24.66667,-1.666666 24.66667,-1.666666 z M 464.14284,212.14286 c 0,0 -15.2857,0.85715 -25.57141,1.71428 C 428.2857,214.71429 419.00001,216 419.00001,216 c 0,0 0.99999,1.14286 1.42854,2.42856 0.42859,1.28573 0.42859,2.28573 0.42859,2.28573 0,0 12.14287,-2.71428 21.71427,-4.42858 9.57143,-1.71429 21.57143,-4.14285 21.57143,-4.14285 z"
       inkscape:connector-curvature="0" />
    <path
       id="Shape 4"
       inkscape:label="Shape 4"
       style="fill:#002395;fill-rule:nonzero;stroke:none"
       d="m 121.99701,292.47768 c 4.50545,-0.60052 -1.85517,-8.08885 -7.97901,-6.41189 C 87.66617,293.28206 61,302.5 61,302.5 c 0,0 34.90487,-6.54467 60.99701,-10.02232 z"
       inkscape:connector-curvature="0" />
  </g>
</svg>
