<?xml version="1.0" encoding="UTF-8" standalone="no"?>
<svg
   xmlns:dc="http://purl.org/dc/elements/1.1/"
   xmlns:cc="http://creativecommons.org/ns#"
   xmlns:rdf="http://www.w3.org/1999/02/22-rdf-syntax-ns#"
   xmlns:svg="http://www.w3.org/2000/svg"
   xmlns="http://www.w3.org/2000/svg"
   xmlns:sodipodi="http://sodipodi.sourceforge.net/DTD/sodipodi-0.dtd"
   xmlns:inkscape="http://www.inkscape.org/namespaces/inkscape"
   width="1000"
   height="1000"
   version="1.1"
   id="svg8500"
   sodipodi:docname="speedometer.svg"
   inkscape:version="0.92.2 (5c3e80d, 2017-08-06)">
  <metadata
     id="metadata8506">
    <rdf:RDF>
      <cc:Work
         rdf:about="">
        <dc:format>image/svg+xml</dc:format>
        <dc:type
           rdf:resource="http://purl.org/dc/dcmitype/StillImage" />
        <dc:title />
      </cc:Work>
    </rdf:RDF>
  </metadata>
  <defs
     id="defs8504" />
  <sodipodi:namedview
     pagecolor="#ffffff"
     bordercolor="#666666"
     borderopacity="1"
     objecttolerance="10"
     gridtolerance="10"
     guidetolerance="10"
     inkscape:pageopacity="0"
     inkscape:pageshadow="2"
     inkscape:window-width="1920"
     inkscape:window-height="1027"
     id="namedview8502"
     showgrid="false"
     inkscape:zoom="0.858"
     inkscape:cx="500"
     inkscape:cy="500"
     inkscape:window-x="-8"
     inkscape:window-y="-8"
     inkscape:window-maximized="1"
     inkscape:current-layer="svg8500" />
  <path
     d="M 243.375838,756.624103 C 101.646245,614.894569 101.646245,385.105371 243.375838,243.375838 C 385.105371,101.646245 614.894569,101.646245 756.624103,243.375838 C 898.353696,385.105371 898.353696,614.894569 756.624103,756.624103 C 756.624103,756.624103 756.657660,756.569266 756.657660,756.569266 C 751.550317,761.676550 751.550317,769.957185 756.657660,775.064528 C 761.764944,780.171812 770.045578,780.171812 775.152922,775.064528 C 775.152922,775.064528 775.103748,775.103748 775.103748,775.103748 C 927.039325,623.168170 927.039325,376.831770 775.103748,224.896193 C 623.168170,72.960615 376.831770,72.960615 224.896193,224.896193 C 72.960615,376.831770 72.960615,623.168170 224.896193,775.103748 C 224.896193,775.103748 224.858105,775.075555 224.858105,775.075555 C 229.965389,780.182898 238.246024,780.182898 243.353367,775.075555 C 248.460650,769.968212 248.460650,761.687636 243.353367,756.580293 C 243.353367,756.580293 243.375838,756.624103 243.375838,756.624103 Z"
     fill-rule="nonzero"
     style="stroke:none;fill:#b6bbbe;fill-opacity:1"
     inkscape:label="Shape 1"
     id="Shape 1" />
  <path
     d="M 482.999980,124.015570 C 482.999980,124.015570 516.999960,124.015570 516.999960,124.015570 C 516.999960,124.015570 516.999960,189.984322 516.999960,189.984322 C 516.999960,189.984322 482.999980,189.984322 482.999980,189.984322 C 482.999980,189.984322 482.999980,124.015570 482.999980,124.015570 Z M 297.269702,182.892144 C 297.269702,182.892144 326.714575,165.892124 326.714575,165.892124 C 326.714575,165.892124 359.698951,223.022759 359.698951,223.022759 C 359.698951,223.022759 330.254078,240.022779 330.254078,240.022779 C 330.254078,240.022779 297.269702,182.892144 297.269702,182.892144 Z M 673.285365,165.892124 C 673.285365,165.892124 702.730238,182.892144 702.730238,182.892144 C 702.730238,182.892144 669.745862,240.022779 669.745862,240.022779 C 669.745862,240.022779 640.300989,223.022759 640.300989,223.022759 C 640.300989,223.022759 673.285365,165.892124 673.285365,165.892124 Z M 123.984337,517.031193 C 123.984337,517.031193 123.984337,483.031213 123.984337,483.031213 C 123.984337,483.031213 189.953089,483.031213 189.953089,483.031213 C 189.953089,483.031213 189.953089,517.031193 189.953089,517.031193 C 189.953089,517.031193 123.984337,517.031193 123.984337,517.031193 Z M 182.860911,702.761471 C 182.860911,702.761471 165.860891,673.316598 165.860891,673.316598 C 165.860891,673.316598 222.991526,640.332222 222.991526,640.332222 C 222.991526,640.332222 239.991486,669.777095 239.991486,669.777095 C 239.991486,669.777095 182.860911,702.761471 182.860911,702.761471 Z M 165.860891,326.745868 C 165.860891,326.745868 182.860911,297.300994 182.860911,297.300994 C 182.860911,297.300994 239.991486,330.285370 239.991486,330.285370 C 239.991486,330.285370 222.991526,359.730244 222.991526,359.730244 C 222.991526,359.730244 165.860891,326.745868 165.860891,326.745868 Z M 876.015604,483.031213 C 876.015604,483.031213 876.015604,517.031193 876.015604,517.031193 C 876.015604,517.031193 810.046852,517.031193 810.046852,517.031193 C 810.046852,517.031193 810.046852,483.031213 810.046852,483.031213 C 810.046852,483.031213 876.015604,483.031213 876.015604,483.031213 Z M 817.139030,297.300994 C 817.139030,297.300994 834.139049,326.745868 834.139049,326.745868 C 834.139049,326.745868 777.008414,359.730244 777.008414,359.730244 C 777.008414,359.730244 760.008454,330.285370 760.008454,330.285370 C 760.008454,330.285370 817.139030,297.300994 817.139030,297.300994 Z M 834.139049,673.316598 C 834.139049,673.316598 817.139030,702.761471 817.139030,702.761471 C 817.139030,702.761471 760.008454,669.777095 760.008454,669.777095 C 760.008454,669.777095 777.008414,640.332222 777.008414,640.332222 C 777.008414,640.332222 834.139049,673.316598 834.139049,673.316598 Z"
     fill-rule="nonzero"
     style="stroke:none;fill:#b6bbbe;fill-opacity:1"
     inkscape:label="Shape 2"
     id="Shape 2" />
  <path
     d="M 331.999958,733.999968 C 331.999958,733.999968 667.999983,733.999968 667.999983,733.999968 C 667.999983,733.999968 667.999983,819.999993 667.999983,819.999993 C 667.999983,819.999993 331.999958,819.999993 331.999958,819.999993 C 331.999958,819.999993 331.999958,733.999968 331.999958,733.999968 Z"
     fill-rule="nonzero"
     style="stroke:none;fill:#b6bbbe;fill-opacity:1"
     inkscape:label="Shape 5"
     id="Shape 5" />
</svg>
