<?xml version="1.0" encoding="UTF-8" standalone="no"?>
<svg
   xmlns:dc="http://purl.org/dc/elements/1.1/"
   xmlns:cc="http://creativecommons.org/ns#"
   xmlns:rdf="http://www.w3.org/1999/02/22-rdf-syntax-ns#"
   xmlns:svg="http://www.w3.org/2000/svg"
   xmlns="http://www.w3.org/2000/svg"
   xmlns:sodipodi="http://sodipodi.sourceforge.net/DTD/sodipodi-0.dtd"
   xmlns:inkscape="http://www.inkscape.org/namespaces/inkscape"
   width="425"
   height="250"
   version="1.1"
   id="svg102"
   sodipodi:docname="Supercharger.svg"
   inkscape:version="0.92.1 r15371">
  <metadata
     id="metadata108">
    <rdf:RDF>
      <cc:Work
         rdf:about="">
        <dc:format>image/svg+xml</dc:format>
        <dc:type
           rdf:resource="http://purl.org/dc/dcmitype/StillImage" />
        <dc:title></dc:title>
      </cc:Work>
    </rdf:RDF>
  </metadata>
  <defs
     id="defs106" />
  <sodipodi:namedview
     pagecolor="#ffffff"
     bordercolor="#666666"
     borderopacity="1"
     objecttolerance="10"
     gridtolerance="10"
     guidetolerance="10"
     inkscape:pageopacity="0"
     inkscape:pageshadow="2"
     inkscape:window-width="640"
     inkscape:window-height="480"
     id="namedview104"
     showgrid="false"
     inkscape:zoom="2.316"
     inkscape:cx="212.5"
     inkscape:cy="125"
     inkscape:window-x="0"
     inkscape:window-y="0"
     inkscape:window-maximized="1"
     inkscape:current-layer="svg102" />
  <path
     d="M 36.757049,38.842320 C 36.757049,38.842320 83.156005,38.842320 83.156005,38.842320 C 86.535214,38.842320 89.274563,41.581750 89.274563,44.960961 C 89.274563,44.960961 89.274563,205.063015 89.274563,205.063015 C 89.274563,208.442211 86.535214,211.181462 83.156005,211.181462 C 83.156005,211.181462 36.757049,211.181462 36.757049,211.181462 C 33.377840,211.181462 30.638491,208.442211 30.638491,205.063015 C 30.638491,205.063015 30.638491,44.960961 30.638491,44.960961 C 30.638491,41.581750 33.377840,38.842320 36.757049,38.842320 Z M 397.241552,58.727756 C 399.212734,58.727756 400.810802,60.325697 400.810802,62.296748 C 400.810802,62.296748 400.810802,133.663908 400.810802,133.663908 C 400.810802,135.635152 399.212734,137.233093 397.241552,137.233093 C 395.270345,137.233093 393.672454,135.635152 393.672454,133.663908 C 393.672454,133.663908 393.672454,62.296748 393.672454,62.296748 C 393.672454,60.325697 395.270345,58.727756 397.241552,58.727756 Z M 367.668550,58.727756 C 369.639757,58.727756 371.237825,60.325697 371.237825,62.296748 C 371.237825,62.296748 371.237825,133.663908 371.237825,133.663908 C 371.237825,135.635152 369.639757,137.233093 367.668550,137.233093 C 365.697367,137.233093 364.099477,135.635152 364.099477,133.663908 C 364.099477,133.663908 364.099477,62.296748 364.099477,62.296748 C 364.099477,60.325697 365.697367,58.727756 367.668550,58.727756 Z M 369.198246,63.826457 C 369.198246,63.826457 397.751434,63.826457 397.751434,63.826457 C 397.751434,63.826457 397.751434,132.134393 397.751434,132.134393 C 397.751434,132.134393 369.198246,132.134393 369.198246,132.134393 C 369.198246,132.134393 369.198246,63.826457 369.198246,63.826457 Z M 258.411518,59.836313 C 258.411518,59.836313 341.790013,66.488847 341.790013,66.488847 C 344.552338,66.709220 346.763591,69.625124 346.763591,73.004320 C 346.763591,73.004320 346.763591,122.972414 346.763591,122.972414 C 346.763591,126.351610 344.552338,129.267305 341.790013,129.487887 C 341.790013,129.487887 258.411518,136.140421 258.411518,136.140421 C 254.295427,136.468828 250.906287,133.326083 250.906287,129.116148 C 250.906287,129.116148 250.906287,66.860586 250.906287,66.860586 C 250.906287,62.650457 254.295427,59.507906 258.411518,59.836313 Z M 343.704224,71.984574 C 343.704224,71.984574 357.980919,71.984574 357.980919,71.984574 C 357.980919,71.984574 357.980919,123.976260 357.980919,123.976260 C 357.980919,123.976260 343.704224,123.976260 343.704224,123.976260 C 343.704224,123.976260 343.704224,71.984574 343.704224,71.984574 Z M 199.408562,38.842320 C 199.408562,38.842320 258.044635,38.842320 258.044635,38.842320 C 261.423844,38.842320 264.163193,41.581750 264.163193,44.960961 C 264.163193,44.960961 264.163193,205.063015 264.163193,205.063015 C 264.163193,208.442211 261.423844,211.181462 258.044635,211.181462 C 258.044635,211.181462 199.408562,211.181462 199.408562,211.181462 C 196.029353,211.181462 193.290004,208.442211 193.290004,205.063015 C 193.290004,205.063015 193.290004,44.960961 193.290004,44.960961 C 193.290004,41.581750 196.029353,38.842320 199.408562,38.842320 Z M 101.511680,42.921484 C 102.919681,42.921484 104.061140,44.062778 104.061140,45.470729 C 104.061140,45.470729 104.061140,204.553053 104.061140,204.553053 C 104.061140,205.961004 102.919681,207.102492 101.511680,207.102492 C 100.103678,207.102492 98.962396,205.961004 98.962396,204.553053 C 98.962396,204.553053 98.962396,45.470729 98.962396,45.470729 C 98.962396,44.062778 100.103678,42.921484 101.511680,42.921484 Z M 117.318046,42.921484 C 118.725871,42.921484 119.867355,44.062778 119.867355,45.470729 C 119.867355,45.470729 119.867355,204.553053 119.867355,204.553053 C 119.867355,205.961004 118.725871,207.102492 117.318046,207.102492 C 115.910044,207.102492 114.768586,205.961004 114.768586,204.553053 C 114.768586,204.553053 114.768586,45.470729 114.768586,45.470729 C 114.768586,44.062778 115.910044,42.921484 117.318046,42.921484 Z M 133.124235,42.921484 C 134.532237,42.921484 135.673544,44.062778 135.673544,45.470729 C 135.673544,45.470729 135.673544,204.553053 135.673544,204.553053 C 135.673544,205.961004 134.532237,207.102492 133.124235,207.102492 C 131.716233,207.102492 130.574775,205.961004 130.574775,204.553053 C 130.574775,204.553053 130.574775,45.470729 130.574775,45.470729 C 130.574775,44.062778 131.716233,42.921484 133.124235,42.921484 Z M 148.930424,42.921484 C 150.338426,42.921484 151.479910,44.062778 151.479910,45.470729 C 151.479910,45.470729 151.479910,204.553053 151.479910,204.553053 C 151.479910,205.961004 150.338426,207.102492 148.930424,207.102492 C 147.522423,207.102492 146.381141,205.961004 146.381141,204.553053 C 146.381141,204.553053 146.381141,45.470729 146.381141,45.470729 C 146.381141,44.062778 147.522423,42.921484 148.930424,42.921484 Z M 164.736816,42.921484 C 166.144615,42.921484 167.286099,44.062778 167.286099,45.470729 C 167.286099,45.470729 167.286099,204.553053 167.286099,204.553053 C 167.286099,205.961004 166.144615,207.102492 164.736816,207.102492 C 163.328815,207.102492 162.187330,205.961004 162.187330,204.553053 C 162.187330,204.553053 162.187330,45.470729 162.187330,45.470729 C 162.187330,44.062778 163.328815,42.921484 164.736816,42.921484 Z M 180.033098,42.921484 C 181.441100,42.921484 182.582584,44.062778 182.582584,45.470729 C 182.582584,45.470729 182.582584,204.553053 182.582584,204.553053 C 182.582584,205.961004 181.441100,207.102492 180.033098,207.102492 C 178.625096,207.102492 177.483638,205.961004 177.483638,204.553053 C 177.483638,204.553053 177.483638,45.470729 177.483638,45.470729 C 177.483638,44.062778 178.625096,42.921484 180.033098,42.921484 Z M 86.000000,46.499997 C 86.000000,46.499997 196.999998,46.499997 196.999998,46.499997 C 196.999998,46.499997 196.999998,50.062492 196.999998,50.062492 C 196.999998,50.062492 86.000000,50.062492 86.000000,50.062492 C 86.000000,50.062492 86.000000,46.499997 86.000000,46.499997 Z M 85.333313,199.968740 C 85.333313,199.968740 197.666660,199.968740 197.666660,199.968740 C 197.666660,199.968740 197.666660,203.531235 197.666660,203.531235 C 197.666660,203.531235 85.333313,203.531235 85.333313,203.531235 C 85.333313,203.531235 85.333313,199.968740 85.333313,199.968740 Z M 84.333308,108.687490 C 84.333308,108.687490 197.666660,108.687490 197.666660,108.687490 C 197.666660,108.687490 197.666660,114.812493 197.666660,114.812493 C 197.666660,114.812493 84.333308,114.812493 84.333308,114.812493 C 84.333308,114.812493 84.333308,108.687490 84.333308,108.687490 Z M 83.666646,47.999993 C 83.666646,47.999993 101.166658,47.999993 101.166658,47.999993 C 101.166658,47.999993 101.166658,201.833323 101.166658,201.833323 C 101.166658,201.833323 83.666646,201.833323 83.666646,201.833323 C 83.666646,201.833323 83.666646,47.999993 83.666646,47.999993 Z"
     fill-rule="nonzero"
     style="stroke: none; fill: rgb(55, 55, 55)"
     inkscape:label="Supercharger"
     id="Supercharger" />
</svg>
