<?xml version="1.0" encoding="UTF-8" standalone="no"?>
<svg
   xmlns:dc="http://purl.org/dc/elements/1.1/"
   xmlns:cc="http://creativecommons.org/ns#"
   xmlns:rdf="http://www.w3.org/1999/02/22-rdf-syntax-ns#"
   xmlns:svg="http://www.w3.org/2000/svg"
   xmlns="http://www.w3.org/2000/svg"
   xmlns:sodipodi="http://sodipodi.sourceforge.net/DTD/sodipodi-0.dtd"
   xmlns:inkscape="http://www.inkscape.org/namespaces/inkscape"
   width="425"
   height="425"
   version="1.1"
   id="svg102"
   sodipodi:docname="Supercharger.svg"
   inkscape:version="0.92.2 (5c3e80d, 2017-08-06)">
  <metadata
     id="metadata108">
    <rdf:RDF>
      <cc:Work
         rdf:about="">
        <dc:format>image/svg+xml</dc:format>
        <dc:type
           rdf:resource="http://purl.org/dc/dcmitype/StillImage" />
        <dc:title></dc:title>
      </cc:Work>
    </rdf:RDF>
  </metadata>
  <defs
     id="defs106" />
  <sodipodi:namedview
     pagecolor="#ffffff"
     bordercolor="#666666"
     borderopacity="1"
     objecttolerance="10"
     gridtolerance="10"
     guidetolerance="10"
     inkscape:pageopacity="0"
     inkscape:pageshadow="2"
     inkscape:window-width="1920"
     inkscape:window-height="1027"
     id="namedview104"
     showgrid="false"
     inkscape:zoom="1.6376593"
     inkscape:cx="100.7464"
     inkscape:cy="197.21448"
     inkscape:window-x="-8"
     inkscape:window-y="-8"
     inkscape:window-maximized="1"
     inkscape:current-layer="svg102" />
  <path
     d="m 51.429162,134.94739 c 0,0 41.759061,0 41.759061,0 3.041288,0 5.506702,2.46548 5.506702,5.50677 0,0 0,144.09185 0,144.09185 0,3.04128 -2.465414,5.5066 -5.506702,5.5066 0,0 -41.759061,0 -41.759061,0 -3.041288,0 -5.506702,-2.46532 -5.506702,-5.5066 0,0 0,-144.09185 0,-144.09185 0,-3.04129 2.465414,-5.50677 5.506702,-5.50677 z m 324.436048,17.89689 c 1.77406,0 3.21232,1.43815 3.21232,3.21209 0,0 0,64.23045 0,64.23045 0,1.77411 -1.43826,3.21226 -3.21232,3.21226 -1.77408,0 -3.21219,-1.43815 -3.21219,-3.21226 0,0 0,-64.23045 0,-64.23045 0,-1.77394 1.43811,-3.21209 3.21219,-3.21209 z m -26.6157,0 c 1.77409,0 3.21234,1.43815 3.21234,3.21209 0,0 0,64.23045 0,64.23045 0,1.77411 -1.43825,3.21226 -3.21234,3.21226 -1.77406,0 -3.21216,-1.43815 -3.21216,-3.21226 0,0 0,-64.23045 0,-64.23045 0,-1.77394 1.4381,-3.21209 3.21216,-3.21209 z m 1.37673,4.58883 c 0,0 25.69786,0 25.69786,0 0,0 0,61.47714 0,61.47714 0,0 -25.69786,0 -25.69786,0 0,0 0,-61.47714 0,-61.47714 z m -99.70806,-3.59113 c 0,0 75.04064,5.98728 75.04064,5.98728 2.4861,0.19834 4.47623,2.82265 4.47623,5.86393 0,0 0,44.97128 0,44.97128 0,3.04128 -1.99013,5.6654 -4.47623,5.86393 0,0 -75.04064,5.98728 -75.04064,5.98728 -3.70448,0.29557 -6.7547,-2.53291 -6.7547,-6.32185 0,0 0,-56.03 0,-56.03 0,-3.78912 3.05022,-6.61741 6.7547,-6.32185 z m 76.76343,10.93343 c 0,0 12.84903,0 12.84903,0 0,0 0,46.79252 0,46.79252 0,0 -12.84903,0 -12.84903,0 0,0 0,-46.79252 0,-46.79252 z M 197.81552,134.94739 c 0,0 52.77247,0 52.77247,0 3.04128,0 5.5067,2.46548 5.5067,5.50677 0,0 0,144.09185 0,144.09185 0,3.04128 -2.46542,5.5066 -5.5067,5.5066 0,0 -52.77247,0 -52.77247,0 -3.04129,0 -5.50671,-2.46532 -5.50671,-5.5066 0,0 0,-144.09185 0,-144.09185 0,-3.04129 2.46542,-5.50677 5.50671,-5.50677 z m -88.10719,3.67124 c 1.2672,0 2.29451,1.02717 2.29451,2.29433 0,0 0,143.17408 0,143.17408 0,1.26716 -1.02731,2.2945 -2.29451,2.2945 -1.2672,0 -2.29436,-1.02734 -2.29436,-2.2945 0,0 0,-143.17408 0,-143.17408 0,-1.26716 1.02716,-2.29433 2.29436,-2.29433 z m 14.22573,0 c 1.26704,0 2.29438,1.02717 2.29438,2.29433 0,0 0,143.17408 0,143.17408 0,1.26716 -1.02734,2.2945 -2.29438,2.2945 -1.26721,0 -2.29451,-1.02734 -2.29451,-2.2945 0,0 0,-143.17408 0,-143.17408 0,-1.26716 1.0273,-2.29433 2.29451,-2.29433 z m 14.22556,0 c 1.26721,0 2.29438,1.02717 2.29438,2.29433 0,0 0,143.17408 0,143.17408 0,1.26716 -1.02717,2.2945 -2.29438,2.2945 -1.2672,0 -2.29451,-1.02734 -2.29451,-2.2945 0,0 0,-143.17408 0,-143.17408 0,-1.26716 1.02731,-2.29433 2.29451,-2.29433 z m 14.22557,0 c 1.26721,0 2.29454,1.02717 2.29454,2.29433 0,0 0,143.17408 0,143.17408 0,1.26716 -1.02733,2.2945 -2.29454,2.2945 -1.2672,0 -2.29435,-1.02734 -2.29435,-2.2945 0,0 0,-143.17408 0,-143.17408 0,-1.26716 1.02715,-2.29433 2.29435,-2.29433 z m 14.22576,0 c 1.26701,0 2.29435,1.02717 2.29435,2.29433 0,0 0,143.17408 0,143.17408 0,1.26716 -1.02734,2.2945 -2.29435,2.2945 -1.26721,0 -2.29454,-1.02734 -2.29454,-2.2945 0,0 0,-143.17408 0,-143.17408 0,-1.26716 1.02733,-2.29433 2.29454,-2.29433 z m 13.76665,0 c 1.2672,0 2.29454,1.02717 2.29454,2.29433 0,0 0,143.17408 0,143.17408 0,1.26716 -1.02734,2.2945 -2.29454,2.2945 -1.2672,0 -2.29451,-1.02734 -2.29451,-2.2945 0,0 0,-143.17408 0,-143.17408 0,-1.26716 1.02731,-2.29433 2.29451,-2.29433 z m -84.629782,3.22067 c 0,0 99.899992,0 99.899992,0 0,0 0,3.20624 0,3.20624 0,0 -99.899992,0 -99.899992,0 0,0 0,-3.20624 0,-3.20624 z M 95.1478,279.96116 c 0,0 101.10001,0 101.10001,0 0,0 0,3.20625 0,3.20625 0,0 -101.10001,0 -101.10001,0 0,0 0,-3.20625 0,-3.20625 z m -0.900004,-82.15312 c 0,0 102.000014,0 102.000014,0 0,0 0,5.5125 0,5.5125 0,0 -102.000014,0 -102.000014,0 0,0 0,-5.5125 0,-5.5125 z M 93.6478,143.18929 c 0,0 15.75001,0 15.75001,0 0,0 0,138.45 0,138.45 0,0 -15.750009,0 -15.750009,0 0,0 0,-138.45 -10e-7,-138.45 z"
     style="fill:#b6bbbe;fill-rule:nonzero;stroke:none;stroke-width:0.89999998;fill-opacity:1"
     inkscape:label="Supercharger"
     id="Supercharger"
     inkscape:connector-curvature="0" />
</svg>
