<?xml version="1.0" encoding="UTF-8" standalone="no"?>
<svg
   xmlns:dc="http://purl.org/dc/elements/1.1/"
   xmlns:cc="http://creativecommons.org/ns#"
   xmlns:rdf="http://www.w3.org/1999/02/22-rdf-syntax-ns#"
   xmlns:svg="http://www.w3.org/2000/svg"
   xmlns="http://www.w3.org/2000/svg"
   xmlns:sodipodi="http://sodipodi.sourceforge.net/DTD/sodipodi-0.dtd"
   xmlns:inkscape="http://www.inkscape.org/namespaces/inkscape"
   width="2800"
   height="2800"
   viewBox="0 0 120.96 120.96944"
   version="1.1"
   id="svg4557"
   sodipodi:docname="te.svg"
   inkscape:version="0.92.2 (5c3e80d, 2017-08-06)">
  <metadata
     id="metadata4563">
    <rdf:RDF>
      <cc:Work
         rdf:about="">
        <dc:format>image/svg+xml</dc:format>
        <dc:type
           rdf:resource="http://purl.org/dc/dcmitype/StillImage" />
        <dc:title></dc:title>
      </cc:Work>
    </rdf:RDF>
  </metadata>
  <defs
     id="defs4561" />
  <sodipodi:namedview
     pagecolor="#ffffff"
     bordercolor="#666666"
     borderopacity="1"
     objecttolerance="10"
     gridtolerance="10"
     guidetolerance="10"
     inkscape:pageopacity="0"
     inkscape:pageshadow="2"
     inkscape:window-width="1920"
     inkscape:window-height="1027"
     id="namedview4559"
     showgrid="false"
     inkscape:zoom="0.1204"
     inkscape:cx="980.06645"
     inkscape:cy="474.5"
     inkscape:window-x="-8"
     inkscape:window-y="-8"
     inkscape:window-maximized="1"
     inkscape:current-layer="svg4557" />
  <linearGradient
     id="a"
     gradientUnits="userSpaceOnUse"
     x1="14.007"
     y1="35.653999"
     x2="50.207001"
     y2="35.653999"
     gradientTransform="matrix(1,0,0,-1,0.14,42.258372)">
    <stop
       offset="0"
       stop-color="#fffffe"
       id="stop4528" />
    <stop
       offset=".85"
       stop-color="#f38b00"
       id="stop4530" />
    <stop
       offset="1"
       stop-color="#f38b00"
       id="stop4532" />
  </linearGradient>
  <linearGradient
     id="b"
     gradientUnits="userSpaceOnUse"
     x1="8.5209999"
     y1="15.055"
     x2="44.720001"
     y2="15.055"
     gradientTransform="matrix(1,0,0,-1,0.14,42.258372)">
    <stop
       offset="0"
       stop-color="#fffffe"
       id="stop4537" />
    <stop
       offset=".85"
       stop-color="#f38b00"
       id="stop4539" />
    <stop
       offset="1"
       stop-color="#f38b00"
       id="stop4541" />
  </linearGradient>
  <linearGradient
     id="c"
     gradientUnits="userSpaceOnUse"
     x1="-486.42999"
     y1="827.26202"
     x2="-450.23001"
     y2="827.26202"
     gradientTransform="matrix(-1,0,0,1,-449.83,-810.35963)">
    <stop
       offset="0"
       stop-color="#f8f9fb"
       id="stop4546" />
    <stop
       offset=".85"
       stop-color="#00609c"
       id="stop4548" />
    <stop
       offset="1"
       stop-color="#00609c"
       id="stop4550" />
  </linearGradient>
  <g
     id="g5112"
     transform="translate(6.48,37.807627)">
    <path
       style="fill:url(#a)"
       inkscape:connector-curvature="0"
       id="path4535"
       d="m 46.2,2.503372 h -28 c -2.3,0 -4.1,1.8 -4.1,4.1 0,2.3 1.8,4.1 4.1,4.1 h 28 c 2.3,0 4.1,-1.8 4.1,-4.1 0,-2.2 -1.8,-4.1 -4.1,-4.1 z" />
    <path
       style="fill:url(#b)"
       inkscape:connector-curvature="0"
       id="path4544"
       d="m 40.7,23.103372 h -28 c -2.3,0 -4.1,1.8 -4.1,4.1 0,2.3 1.8,4.1 4.1,4.1 h 28 c 2.3,0 4.1,-1.8 4.1,-4.1 0,-2.3 -1.8,-4.1 -4.1,-4.1 z" />
    <path
       style="fill:url(#c)"
       inkscape:connector-curvature="0"
       id="path4553"
       d="m 0.4,16.903372 c 0,2.3 1.8,4.1 4.1,4.1 h 28 c 2.3,0 4.1,-1.8 4.1,-4.1 0,-2.3 -1.8,-4.1 -4.1,-4.1 h -28 c -2.2,0 -4.1,1.8 -4.1,4.1 z" />
    <path
       style="fill:#00609c"
       inkscape:connector-curvature="0"
       id="path4555"
       d="m 58,2.803372 -1.7,6.4 h 8.6 l -5.9,21.8 h 7.5 l 5.8,-21.8 H 81 l 1.7,-6.4 z m 26.9,0 -7.6,28.2 H 100 l 1.7,-6.2 H 86.2 l 1.4,-5.1 h 13.8 l 1.5,-5.8 H 89.2 l 1.3,-4.9 h 15.4 l 1.7,-6.2 z m -34,36.9 c 0,-2.1 3.1,-3.7 4.3,-1.6 l -0.9,0.7 c -0.6,-0.9 -1.7,-0.6 -2.1,0.4 -0.5,1.3 0.8,1.8 1.7,1.1 l 0.6,0.801 c -1.2,0.999 -3.6,0.599 -3.6,-1.401 m 4.4,-0.1 c 0,-1.9 2.5,-3.4 4,-1.9 1.5,1.5 -0.1,3.9 -1.899,3.9 -1.301,0 -2.101,-0.8 -2.101,-2 m 3.3,-0.4 c 0,-1.6 -2.199,-0.9 -2.199,0.4 0.099,1.6 2.199,0.9 2.199,-0.4 m 2.5,-2 h 1.2 l -0.1,0.4 c 0.5,-0.4 1.2,-0.7 1.8,-0.4 0.7,0.4 0.6,1.2 0.5,1.9 l -0.6,2.3 h -1.2 l 0.6,-2.4 c 0.3,-1.2 -1.2,-1 -1.5,-0.1 l -0.6,2.4 H 60 Z m 5,0 h 1.2 l -0.1,0.4 c 0.5,-0.4 1.2,-0.7 1.8,-0.4 0.7,0.4 0.6,1.2 0.5,1.9 l -0.6,2.3 h -1.2 l 0.6,-2.4 c 0.3,-1.2 -1.2,-1.1 -1.5,-0.1 l -0.6,2.4 H 65 Z m 6.2,3.4 c 0.3,0 0.601,-0.101 1,-0.301 l 0.6,0.801 c -1.9,1.5 -4.5,-0.2 -3.4,-2.5 1.1,-2.301 4.9,-1.601 3.8,1.199 h -2.9 c 0,0.501 0.3,0.801 0.9,0.801 m 1,-1.6 c 0.4,-1.3 -1.5,-0.899 -1.899,0 z m 1.8,0.7 c 0,-2.1 3.101,-3.7 4.301,-1.6 l -0.901,0.7 c -0.6,-0.9 -1.7,-0.6 -2.1,0.4 -0.5,1.3 0.8,1.8 1.699,1.1 l 0.601,0.8 c -1.3,1 -3.6,0.6 -3.6,-1.4 m 4.5,1.1 c 0,-0.199 0,-0.3 0.101,-0.5 l 0.5,-1.899 h -0.5 l 0.3,-1 h 0.5 l 0.3,-1.101 H 82 l -0.3,0.9 h 1 l -0.3,1 h -1 l -0.4,1.9 c -0.2,0.6 0.6,0.5 0.9,0.3 l -0.301,1 c -0.599,0.3 -1.999,0.3 -1.999,-0.6 m 4.1,-3.6 h 1.2 l -1.2,4.3 h -1.2 z m 0.4,-1.5 h 1.3 l -0.3,1.1 h -1.3 z m 1.5,1.5 h 1.3 l 0.2,2.9 1.7,-2.9 h 1.3 l -2.9,4.4 h -1.1 z m 5.3,0 h 1.2 l -1.2,4.3 h -1.2 z m 0.4,-1.5 h 1.3 l -0.3,1.1 H 91 Z m 1.2,5.1 c 0,-0.199 0,-0.3 0.1,-0.5 l 0.5,-1.899 h -0.5 l 0.301,-1 h 0.5 l 0.3,-1.101 h 1.2 l -0.301,0.9 h 1 l -0.3,1 h -1 l -0.5,1.8 c -0.1,0.601 0.601,0.5 0.9,0.3 l -0.3,1 c -0.5,0.4 -1.9,0.4 -1.9,-0.5 m 2.6,1.7 0.6,-0.9 c 0.3,0.2 0.7,0.2 0.9,-0.1 l -0.4,-4.3 h 1.2 l 0.199,2.9 1.601,-2.9 h 1.3 l -2.7,4.4 c -0.5,1 -1.6,1.7 -2.7,0.9" />
  </g>
</svg>
