<?xml version="1.0" encoding="UTF-8" standalone="no"?>
<svg
   xmlns:dc="http://purl.org/dc/elements/1.1/"
   xmlns:cc="http://creativecommons.org/ns#"
   xmlns:rdf="http://www.w3.org/1999/02/22-rdf-syntax-ns#"
   xmlns:svg="http://www.w3.org/2000/svg"
   xmlns="http://www.w3.org/2000/svg"
   id="svg27"
   version="1.1"
   height="500"
   width="500">
  <metadata
     id="metadata33">
    <rdf:RDF>
      <cc:Work
         rdf:about="">
        <dc:format>image/svg+xml</dc:format>
        <dc:type
           rdf:resource="http://purl.org/dc/dcmitype/StillImage" />
        <dc:title></dc:title>
      </cc:Work>
    </rdf:RDF>
  </metadata>
  <defs
     id="defs31" />
  <g
     id="Group 1">
    <path
       id="Shape 7"
       d="M 250 51.666016 C 140.46353 51.666016 51.666016 140.46353 51.666016 250 C 51.666016 359.53644 140.46353 448.33398 250 448.33398 C 359.53644 448.33398 448.33398 359.53644 448.33398 250 C 448.33398 140.46353 359.53644 51.666016 250 51.666016 z M 250 80 C 343.88837 80 420 156.1116 420 250 C 420 343.88837 343.88837 420 250 420 C 156.1116 420 80 343.88837 80 250 C 80 156.1116 156.1116 80 250 80 z "
       style="stroke: none; fill: rgb(53, 153, 203)" />
    <path
       id="Shape 5"
       style="stroke: none; fill: rgb(53, 153, 203)"
       fill-rule="nonzero"
       d="M 269.833326,124.199986 C 269.833326,124.199986 266.433328,158.766657 266.433328,158.766657 C 266.433328,158.766657 280.033320,158.766657 280.033320,158.766657 C 280.033320,158.766657 285.133332,154.799998 289.099991,154.799998 C 293.066651,154.799998 299.299985,159.333318 299.299985,164.999992 C 299.299985,170.666665 293.633312,174.066663 289.099991,174.066663 C 284.566641,174.066663 280.599982,167.833328 280.599982,167.833328 C 280.599982,167.833328 265.299976,167.833328 265.299976,167.833328 C 265.299976,167.833328 266.999990,184.833318 288.533330,184.833318 C 310.066640,184.833318 313.466638,170.666665 313.466638,163.299978 C 313.466638,155.933321 302.699983,143.466651 292.499989,143.466651 C 285.133332,143.466651 281.166643,146.866649 281.166643,146.866649 C 281.166643,146.866649 282.299995,136.666656 282.299995,136.666656 C 282.299995,136.666656 310.066640,136.666656 310.066640,136.666656 C 310.066640,136.666656 310.066640,124.199986 310.066640,124.199986 C 310.066640,124.199986 269.833326,124.199986 269.833326,124.199986 Z" />
    <path
       id="Shape 6"
       style="stroke: none; fill: rgb(53, 153, 203)"
       fill-rule="nonzero"
       d="M 320.833325,143.466651 C 320.833325,143.466651 336.133331,143.466651 336.133331,143.466651 C 336.133331,143.466651 338.966638,135.533333 344.066650,135.533333 C 349.166662,135.533333 353.133321,139.499992 351.999998,142.333329 C 350.866646,145.166665 333.866656,160.466641 333.866656,160.466641 C 333.866656,160.466641 325.366646,168.399990 322.533309,174.066663 C 319.699973,179.733306 321.399987,184.833318 321.399987,184.833318 C 321.399987,184.833318 367.866665,184.833318 367.866665,184.833318 C 367.866665,184.833318 367.866665,171.233326 367.866665,171.233326 C 367.866665,171.233326 341.233313,171.233326 341.233313,171.233326 C 341.233313,171.233326 364.466637,151.400000 364.466637,151.400000 C 364.466637,151.400000 372.580558,144.961119 366.166651,133.833319 C 363.002867,128.344297 354.266644,124.199986 344.066650,124.199986 C 326.499999,124.199986 320.833325,143.466651 320.833325,143.466651 Z" />
    <path
       id="Shape 2"
       style="stroke: none; fill: rgb(0, 0, 0)"
       fill-rule="nonzero"
       d="M 194.466650,168.286651 C 194.466650,168.286651 152.419984,168.286651 152.419984,168.286651 C 152.419984,168.286651 152.419984,200.019985 152.419984,200.019985 C 152.419984,200.019985 127.033323,200.019985 127.033323,200.019985 C 127.033323,200.019985 127.033323,235.719979 127.033323,235.719979 C 127.033323,235.719979 152.444780,235.719979 152.444780,235.719979 C 152.444780,235.719979 152.444780,300.773323 152.444780,307.913333 C 152.444780,315.053314 165.113330,335.679978 194.466650,335.679978 C 215.093315,335.679978 225.456238,327.746660 225.456238,327.746660 C 225.456238,327.746660 222.622901,298.846662 222.622901,298.846662 C 222.622901,298.846662 213.506639,302.359998 207.953304,302.359998 C 202.399999,302.359998 194.466650,300.773323 194.466650,289.666653 C 194.466650,278.559983 194.466650,235.744774 194.466650,235.744774 C 194.466650,235.744774 221.489578,235.744774 221.489578,235.744774 C 221.489578,235.744774 221.489578,200.019985 221.489578,200.019985 C 221.489578,200.019985 194.466650,200.019985 194.466650,200.019985 C 194.466650,200.019985 194.466650,168.286651 194.466650,168.286651 Z" />
    <path
       id="Shape 3"
       d="M 297.68359 197.31055 C 283.53201 197.42579 269.72683 201.6569 259.06641 210.33398 C 234.69976 230.16731 229.59909 263.59949 239.23242 293.63281 C 248.86575 323.66616 270.96758 335.67969 303.26758 335.67969 C 357.66758 335.67969 367.86719 298.16602 367.86719 298.16602 L 331.59961 286.26758 C 331.59961 286.26758 321.96733 304.9668 303.83398 304.9668 C 274.93399 304.9668 274.36719 278.90039 274.36719 278.90039 L 369.56641 278.90039 C 369.56641 278.90039 371.83322 239.23307 348.0332 216.56641 C 334.64571 203.81641 315.87849 197.16238 297.68359 197.31055 z M 301 228.4668 C 323.09997 228.4668 330.4668 250 330.4668 250 L 273.23242 250 C 273.23242 250 278.9 228.4668 301 228.4668 z "
       style="stroke: none; fill: rgb(0, 0, 0)" />
  </g>
</svg>
