<?xml version="1.0" encoding="UTF-8" standalone="no"?>
<svg
   xmlns:dc="http://purl.org/dc/elements/1.1/"
   xmlns:cc="http://creativecommons.org/ns#"
   xmlns:rdf="http://www.w3.org/1999/02/22-rdf-syntax-ns#"
   xmlns:svg="http://www.w3.org/2000/svg"
   xmlns="http://www.w3.org/2000/svg"
   xmlns:sodipodi="http://sodipodi.sourceforge.net/DTD/sodipodi-0.dtd"
   xmlns:inkscape="http://www.inkscape.org/namespaces/inkscape"
   width="1300"
   height="850"
   version="1.1"
   id="svg82"
   sodipodi:docname="V-engine.svg"
   inkscape:version="0.92.1 r15371">
  <metadata
     id="metadata88">
    <rdf:RDF>
      <cc:Work
         rdf:about="">
        <dc:format>image/svg+xml</dc:format>
        <dc:type
           rdf:resource="http://purl.org/dc/dcmitype/StillImage" />
        <dc:title></dc:title>
      </cc:Work>
    </rdf:RDF>
  </metadata>
  <defs
     id="defs86" />
  <sodipodi:namedview
     pagecolor="#ffffff"
     bordercolor="#666666"
     borderopacity="1"
     objecttolerance="10"
     gridtolerance="10"
     guidetolerance="10"
     inkscape:pageopacity="0"
     inkscape:pageshadow="2"
     inkscape:window-width="640"
     inkscape:window-height="480"
     id="namedview84"
     showgrid="false"
     inkscape:zoom="0.68117647"
     inkscape:cx="650"
     inkscape:cy="425"
     inkscape:window-x="0"
     inkscape:window-y="0"
     inkscape:window-maximized="1"
     inkscape:current-layer="svg82" />
  <mask
     id="_1">
    <g
       id="g70">
      <path
         d="M 0,0 1300,0 1300,850 0,850 0,0 Z"
         style="stroke:none; fill:white"
         id="path66" />
      <path
         d="M 724.210626,713.260943 C 683.205557,754.265961 616.723233,754.265961 575.718164,713.260943 C 534.713173,672.255874 534.713173,605.773526 575.718164,564.768508 C 616.723233,523.763439 683.205557,523.763439 724.210626,564.768508 C 765.215617,605.773526 765.215617,672.255874 724.210626,713.260943 Z M 1086.956400,247.277558 C 1074.459606,259.774327 1054.198325,259.774327 1041.701531,247.277558 C 1029.204816,234.780788 1029.204816,214.519465 1041.701531,202.022696 C 1054.198325,189.525926 1074.459606,189.525926 1086.956400,202.022696 C 1099.453193,214.519465 1099.453193,234.780788 1086.956400,247.277558 Z"
         style="stroke:none; fill:black"
         fill-rule="nonzero"
         id="path68" />
    </g>
  </mask>
  <path
     d="M 982.304609,265.662339 C 982.304609,265.662339 789.971554,450.924286 789.971554,450.924286 C 789.971554,450.924286 769.465417,475.673017 715.018225,484.865433 C 660.571033,494.057798 635.822225,479.208550 635.822225,479.208550 C 635.822225,479.208550 611.780632,455.166936 611.780632,455.166936 C 611.780632,455.166936 456.217104,610.730436 456.217104,610.730436 C 456.217104,610.730436 492.986709,647.499999 492.986709,647.499999 C 492.986709,647.499999 500.057775,640.428934 500.057775,640.428934 C 500.057775,640.428934 504.300368,641.843116 507.835901,656.692365 C 511.371434,671.541613 512.078571,690.633512 524.806505,713.260943 C 537.534440,735.888323 547.433901,741.545206 547.433901,741.545206 C 547.433901,741.545206 553.090769,751.444688 575.718164,764.172587 C 598.345637,776.900536 617.437500,777.607653 632.286692,781.143185 C 647.135961,784.678718 648.550159,788.921368 648.550159,788.921368 C 648.550159,788.921368 641.479093,795.992434 641.479093,795.992434 C 641.479093,795.992434 678.248698,832.761946 678.248698,832.761946 C 678.248698,832.761946 833.812147,677.198496 833.812147,677.198496 C 833.812147,677.198496 809.770554,653.156832 809.770554,653.156832 C 809.770554,653.156832 794.921285,628.408101 804.113686,573.960873 C 813.306087,519.513646 838.054818,499.007565 838.054818,499.007565 C 838.054818,499.007565 1023.316807,306.674501 1023.316807,306.674501 C 1023.316807,306.674501 1015.538603,296.067902 1004.224867,284.754187 C 992.911208,273.440522 982.304609,265.662339 982.304609,265.662339 Z M 1019.781274,35.852647 C 1019.781274,35.852647 1042.408669,13.225216 1042.408669,13.225216 C 1042.408669,13.225216 1085.542202,35.145530 1169.687855,119.291204 C 1253.833586,203.436929 1275.753921,246.570441 1275.753921,246.570441 C 1275.753921,246.570441 1253.126448,269.197872 1253.126448,269.197872 C 1253.126448,269.197872 1231.206191,226.064360 1147.060460,141.918635 C 1062.914729,57.772911 1019.781274,35.852647 1019.781274,35.852647 Z M 998.568076,57.065845 C 998.568076,57.065845 1009.174675,46.459246 1009.174675,46.459246 C 1009.174675,46.459246 1052.308130,68.379509 1136.453861,152.525234 C 1220.599592,236.670959 1242.519850,279.804471 1242.519850,279.804471 C 1242.519850,279.804471 1231.913251,290.411070 1231.913251,290.411070 C 1231.913251,290.411070 1209.992993,247.277558 1125.847262,163.131833 C 1041.701531,78.986159 998.568076,57.065845 998.568076,57.065845 Z M 939.171076,208.386695 C 920.079213,194.951630 903.815746,185.759264 889.673615,194.244564 C 875.531483,202.729812 870.581675,204.851162 870.581675,204.851162 C 870.581675,204.851162 860.682213,194.951630 860.682213,194.951630 C 860.682213,194.951630 987.961400,67.672443 987.961400,67.672443 C 987.961400,67.672443 1031.094933,89.592758 1115.240663,173.738432 C 1199.386394,257.884157 1221.306652,301.017669 1221.306652,301.017669 C 1221.306652,301.017669 1094.027466,428.296906 1094.027466,428.296906 C 1094.027466,428.296906 1084.127927,418.397373 1084.127927,418.397373 C 1084.127927,418.397373 1086.249262,413.447657 1094.734526,399.305525 C 1103.219867,385.163394 1094.027466,368.899912 1080.592394,349.808013 C 1067.157400,330.716166 1048.065537,305.967435 1015.538603,273.440522 C 983.011669,240.913609 958.262938,221.821710 939.171076,208.386695 Z"
     fill-rule="nonzero"
     mask="url(#_1)"
     style="stroke: none; fill: rgb(55, 55, 55)"
     inkscape:label="Piston copy 4"
     id="Piston copy 4" />
  <mask
     id="_2">
    <g
       id="g78">
      <path
         d="M 0,0 1300,0 1300,850 0,850 0,0 Z"
         style="stroke:none; fill:white"
         id="path74" />
      <path
         d="M 724.240071,564.768508 C 765.245140,605.773526 765.245140,672.255874 724.240071,713.260943 C 683.235002,754.265961 616.752678,754.265961 575.747609,713.260943 C 534.742618,672.255874 534.742618,605.773526 575.747609,564.768508 C 616.752678,523.763439 683.235002,523.763439 724.240071,564.768508 Z M 258.256704,202.022696 C 270.753497,214.519465 270.753497,234.780788 258.256704,247.277558 C 245.759910,259.774327 225.498629,259.774327 213.001835,247.277558 C 200.505120,234.780788 200.505120,214.519465 213.001835,202.022696 C 225.498629,189.525926 245.759910,189.525926 258.256704,202.022696 Z"
         style="stroke:none; fill:black"
         fill-rule="nonzero"
         id="path76" />
    </g>
  </mask>
  <path
     d="M 276.641506,306.674501 C 276.641506,306.674501 461.903417,499.007565 461.903417,499.007565 C 461.903417,499.007565 486.652225,519.513646 495.844549,573.960873 C 505.036950,628.408101 490.187758,653.156832 490.187758,653.156832 C 490.187758,653.156832 466.146088,677.198496 466.146088,677.198496 C 466.146088,677.198496 621.709615,832.761946 621.709615,832.761946 C 621.709615,832.761946 658.479142,795.992434 658.479142,795.992434 C 658.479142,795.992434 651.408076,788.921368 651.408076,788.921368 C 651.408076,788.921368 652.822274,784.678718 667.671543,781.143185 C 682.520735,777.607653 701.612675,776.900536 724.240071,764.172587 C 746.867466,751.444688 752.524334,741.545206 752.524334,741.545206 C 752.524334,741.545206 762.423873,735.888323 775.151730,713.260943 C 787.879664,690.633512 788.586801,671.541613 792.122334,656.692365 C 795.657867,641.843116 799.900460,640.428934 799.900460,640.428934 C 799.900460,640.428934 806.971526,647.499999 806.971526,647.499999 C 806.971526,647.499999 843.741131,610.730436 843.741131,610.730436 C 843.741131,610.730436 688.177603,455.166936 688.177603,455.166936 C 688.177603,455.166936 664.136010,479.208550 664.136010,479.208550 C 664.136010,479.208550 639.387280,494.057798 584.940010,484.865433 C 530.492818,475.673017 509.986681,450.924286 509.986681,450.924286 C 509.986681,450.924286 317.653704,265.662339 317.653704,265.662339 C 317.653704,265.662339 307.047105,273.440522 295.733368,284.754187 C 284.419632,296.067902 276.641506,306.674501 276.641506,306.674501 Z M 46.831787,269.197872 C 46.831787,269.197872 24.204391,246.570441 24.204391,246.570441 C 24.204391,246.570441 46.124649,203.436929 130.270380,119.291204 C 214.416111,35.145530 257.549566,13.225216 257.549566,13.225216 C 257.549566,13.225216 280.177039,35.852647 280.177039,35.852647 C 280.177039,35.852647 237.043506,57.772911 152.897775,141.918635 C 68.752122,226.064360 46.831787,269.197872 46.831787,269.197872 Z M 68.044984,290.411070 C 68.044984,290.411070 57.438385,279.804471 57.438385,279.804471 C 57.438385,279.804471 79.358721,236.670959 163.504374,152.525234 C 247.650105,68.379509 290.783638,46.459246 290.783638,46.459246 C 290.783638,46.459246 301.390237,57.065845 301.390237,57.065845 C 301.390237,57.065845 258.256704,78.986159 174.110973,163.131833 C 89.965320,247.277558 68.044984,290.411070 68.044984,290.411070 Z M 219.365841,349.808013 C 205.930769,368.899912 196.738446,385.163394 205.223709,399.305525 C 213.708973,413.447657 215.830308,418.397373 215.830308,418.397373 C 215.830308,418.397373 205.930769,428.296906 205.930769,428.296906 C 205.930769,428.296906 78.651583,301.017669 78.651583,301.017669 C 78.651583,301.017669 100.571918,257.884157 184.717572,173.738432 C 268.863302,89.592758 311.996835,67.672443 311.996835,67.672443 C 311.996835,67.672443 439.276022,194.951630 439.276022,194.951630 C 439.276022,194.951630 429.376560,204.851162 429.376560,204.851162 C 429.376560,204.851162 424.426830,202.729812 410.284698,194.244564 C 396.142489,185.759264 379.879099,194.951630 360.787159,208.386695 C 341.695297,221.821710 316.946566,240.913609 284.419632,273.440522 C 251.892775,305.967435 232.800835,330.716166 219.365841,349.808013 Z"
     fill-rule="nonzero"
     mask="url(#_2)"
     style="stroke: none; fill: rgb(55, 55, 55)"
     inkscape:label="Piston copy 3"
     id="Piston copy 3" />
</svg>
