<?xml version="1.0" encoding="UTF-8" standalone="no"?>
<svg
   xmlns:dc="http://purl.org/dc/elements/1.1/"
   xmlns:cc="http://creativecommons.org/ns#"
   xmlns:rdf="http://www.w3.org/1999/02/22-rdf-syntax-ns#"
   xmlns:svg="http://www.w3.org/2000/svg"
   xmlns="http://www.w3.org/2000/svg"
   xmlns:sodipodi="http://sodipodi.sourceforge.net/DTD/sodipodi-0.dtd"
   xmlns:inkscape="http://www.inkscape.org/namespaces/inkscape"
   width="1300"
   height="1300"
   version="1.1"
   id="svg82"
   sodipodi:docname="V-engine.svg"
   inkscape:version="0.92.2 (5c3e80d, 2017-08-06)">
  <metadata
     id="metadata88">
    <rdf:RDF>
      <cc:Work
         rdf:about="">
        <dc:format>image/svg+xml</dc:format>
        <dc:type
           rdf:resource="http://purl.org/dc/dcmitype/StillImage" />
        <dc:title></dc:title>
      </cc:Work>
    </rdf:RDF>
  </metadata>
  <defs
     id="defs86" />
  <sodipodi:namedview
     pagecolor="#ffffff"
     bordercolor="#666666"
     borderopacity="1"
     objecttolerance="10"
     gridtolerance="10"
     guidetolerance="10"
     inkscape:pageopacity="0"
     inkscape:pageshadow="2"
     inkscape:window-width="1920"
     inkscape:window-height="1027"
     id="namedview84"
     showgrid="false"
     inkscape:zoom="0.4816645"
     inkscape:cx="233.31833"
     inkscape:cy="590.87003"
     inkscape:window-x="-8"
     inkscape:window-y="-8"
     inkscape:window-maximized="1"
     inkscape:current-layer="svg82" />
  <mask
     id="_1">
    <g
       id="g70">
      <path
         d="M 0,0 H 1300 V 850 H 0 Z"
         style="fill:#ffffff;stroke:none"
         id="path66"
         inkscape:connector-curvature="0" />
      <path
         d="m 724.21063,713.26094 c -41.00507,41.00502 -107.4874,41.00502 -148.49247,0 -41.00499,-41.00507 -41.00499,-107.48741 0,-148.49243 41.00507,-41.00507 107.4874,-41.00507 148.49247,0 41.00499,41.00502 41.00499,107.48736 0,148.49243 z M 1086.9564,247.27756 c -12.4968,12.49677 -32.7581,12.49677 -45.2549,0 -12.4967,-12.49677 -12.4967,-32.7581 0,-45.25486 12.4968,-12.49677 32.7581,-12.49677 45.2549,0 12.4968,12.49676 12.4968,32.75809 0,45.25486 z"
         style="fill:#000000;fill-rule:nonzero;stroke:none"
         id="path68"
         inkscape:connector-curvature="0" />
    </g>
  </mask>
  <mask
     id="_2">
    <g
       id="g78">
      <path
         d="M 0,0 H 1300 V 850 H 0 Z"
         style="fill:#ffffff;stroke:none"
         id="path74"
         inkscape:connector-curvature="0" />
      <path
         d="m 724.24007,564.76851 c 41.00507,41.00502 41.00507,107.48736 0,148.49243 -41.00507,41.00502 -107.48739,41.00502 -148.49246,0 -41.00499,-41.00507 -41.00499,-107.48741 0,-148.49243 41.00507,-41.00507 107.48739,-41.00507 148.49246,0 z M 258.2567,202.0227 c 12.4968,12.49676 12.4968,32.75809 0,45.25486 -12.49679,12.49677 -32.75807,12.49677 -45.25487,0 -12.49671,-12.49677 -12.49671,-32.7581 0,-45.25486 12.4968,-12.49677 32.75808,-12.49677 45.25487,0 z"
         style="fill:#000000;fill-rule:nonzero;stroke:none"
         id="path76"
         inkscape:connector-curvature="0" />
    </g>
  </mask>
  <g
     id="g3900"
     transform="matrix(0.9,0,0,0.9,65.018769,-135.69422)">
    <path
       transform="translate(0,450)"
       inkscape:connector-curvature="0"
       id="Piston copy 4"
       inkscape:label="Piston copy 4"
       style="fill:#373737;fill-rule:nonzero;stroke:none"
       mask="url(#_1)"
       d="m 982.30461,265.66234 c 0,0 -192.33306,185.26195 -192.33306,185.26195 0,0 -20.50613,24.74873 -74.95332,33.94114 -54.4472,9.19237 -79.19601,-5.65688 -79.19601,-5.65688 0,0 -24.04159,-24.04161 -24.04159,-24.04161 0,0 -155.56353,155.5635 -155.56353,155.5635 0,0 36.76961,36.76956 36.76961,36.76956 0,0 7.07106,-7.07107 7.07106,-7.07107 0,0 4.2426,1.41419 7.77813,16.26343 3.53553,14.84925 4.24267,33.94115 16.97061,56.56858 12.72793,22.62738 22.62739,28.28427 22.62739,28.28427 0,0 5.65687,9.89948 28.28426,22.62738 22.62748,12.72795 41.71934,13.43506 56.56853,16.9706 14.84927,3.53553 16.26347,7.77818 16.26347,7.77818 0,0 -7.07107,7.07106 -7.07107,7.07106 0,0 36.76961,36.76952 36.76961,36.76952 0,0 155.56345,-155.56345 155.56345,-155.56345 0,0 -24.0416,-24.04167 -24.0416,-24.04167 0,0 -14.84927,-24.74873 -5.65686,-79.19596 9.1924,-54.44722 33.94113,-74.95331 33.94113,-74.95331 0,0 185.26198,-192.33306 185.26198,-192.33306 0,0 -7.7782,-10.6066 -19.0919,-21.92031 -11.31369,-11.31367 -21.92029,-19.09185 -21.92029,-19.09185 z M 1019.7813,35.852647 c 0,0 22.6274,-22.627431 22.6274,-22.627431 0,0 43.1335,21.920314 127.2792,106.065984 84.1457,84.14573 106.066,127.27924 106.066,127.27924 0,0 -22.6275,22.62743 -22.6275,22.62743 0,0 -21.9202,-43.13351 -106.0659,-127.27924 C 1062.9147,57.772911 1019.7813,35.852647 1019.7813,35.852647 Z m -21.21322,21.213198 c 0,0 10.60662,-10.606599 10.60662,-10.606599 0,0 43.1334,21.920263 127.2792,106.065984 84.1457,84.14573 106.066,127.27924 106.066,127.27924 0,0 -10.6066,10.6066 -10.6066,10.6066 0,0 -21.9203,-43.13351 -106.066,-127.27924 C 1041.7015,78.986159 998.56808,57.065845 998.56808,57.065845 Z m -59.397,151.320845 c -19.09187,-13.43506 -35.35533,-22.62743 -49.49746,-14.14213 -14.14214,8.48525 -19.09194,10.6066 -19.09194,10.6066 0,0 -9.89947,-9.89953 -9.89947,-9.89953 0,0 127.27919,-127.279187 127.27919,-127.279187 0,0 43.1335,21.920315 127.2793,106.065987 84.1457,84.14573 106.066,127.27924 106.066,127.27924 0,0 -127.2792,127.27924 -127.2792,127.27924 0,0 -9.8996,-9.89954 -9.8996,-9.89954 0,0 2.1214,-4.94971 10.6066,-19.09185 8.4854,-14.14213 -0.707,-30.40561 -14.1421,-49.49751 -13.435,-19.09184 -32.5269,-43.84057 -65.0538,-76.36749 -32.52693,-32.52691 -57.27566,-51.61881 -76.36752,-65.05383 z" />
    <path
       transform="translate(0,450)"
       inkscape:connector-curvature="0"
       id="Piston copy 3"
       inkscape:label="Piston copy 3"
       style="fill:#373737;fill-rule:nonzero;stroke:none"
       mask="url(#_2)"
       d="m 276.64151,306.6745 c 0,0 185.26191,192.33306 185.26191,192.33306 0,0 24.7488,20.50609 33.94113,74.95331 9.1924,54.44723 -5.65679,79.19596 -5.65679,79.19596 0,0 -24.04167,24.04167 -24.04167,24.04167 0,0 155.56352,155.56345 155.56352,155.56345 0,0 36.76953,-36.76952 36.76953,-36.76952 0,0 -7.07106,-7.07106 -7.07106,-7.07106 0,0 1.41419,-4.24265 16.26346,-7.77818 14.84919,-3.53554 33.94113,-4.24265 56.56853,-16.9706 22.6274,-12.7279 28.28426,-22.62738 28.28426,-22.62738 0,0 9.89954,-5.65689 22.6274,-28.28427 12.72793,-22.62743 13.43507,-41.71933 16.9706,-56.56858 3.53554,-14.84924 7.77813,-16.26343 7.77813,-16.26343 0,0 7.07107,7.07107 7.07107,7.07107 0,0 36.7696,-36.76956 36.7696,-36.76956 0,0 -155.56353,-155.5635 -155.56353,-155.5635 0,0 -24.04159,24.04161 -24.04159,24.04161 0,0 -24.74873,14.84925 -79.196,5.65688 -54.44719,-9.19241 -74.95333,-33.94114 -74.95333,-33.94114 0,0 -192.33298,-185.26195 -192.33298,-185.26195 0,0 -10.6066,7.77818 -21.92033,19.09185 -11.31374,11.31371 -19.09186,21.92031 -19.09186,21.92031 z M 46.831787,269.19787 c 0,0 -22.627396,-22.62743 -22.627396,-22.62743 0,0 21.920258,-43.13351 106.065989,-127.27924 84.14573,-84.14567 127.27919,-106.065984 127.27919,-106.065984 0,0 22.62747,22.627431 22.62747,22.627431 0,0 -43.13353,21.920264 -127.27927,106.065983 C 68.752122,226.06436 46.831787,269.19787 46.831787,269.19787 Z m 21.213197,21.2132 c 0,0 -10.606599,-10.6066 -10.606599,-10.6066 0,0 21.920336,-43.13351 106.065985,-127.27924 C 247.6501,68.379509 290.78364,46.459246 290.78364,46.459246 c 0,0 10.6066,10.606599 10.6066,10.606599 0,0 -43.13354,21.920314 -127.27927,106.065985 C 89.96532,247.27756 68.044984,290.41107 68.044984,290.41107 Z m 151.320856,59.39694 c -13.43507,19.0919 -22.62739,35.35538 -14.14213,49.49751 8.48526,14.14214 10.6066,19.09185 10.6066,19.09185 0,0 -9.89954,9.89954 -9.89954,9.89954 0,0 -127.279187,-127.27924 -127.279187,-127.27924 0,0 21.920337,-43.13351 106.065987,-127.27924 C 268.8633,89.592758 311.99683,67.672443 311.99683,67.672443 c 0,0 127.27919,127.279187 127.27919,127.279187 0,0 -9.89946,9.89953 -9.89946,9.89953 0,0 -4.94973,-2.12135 -19.09186,-10.6066 -14.14221,-8.4853 -30.4056,0.70707 -49.49754,14.14213 -19.09186,13.43502 -43.84059,32.52692 -76.36753,65.05383 -32.52686,32.52692 -51.6188,57.27565 -65.05379,76.36749 z" />
  </g>
</svg>
