<?xml version="1.0" encoding="UTF-8" standalone="no"?>
<!-- Created with Inkscape (http://www.inkscape.org/) -->

<svg
   xmlns:dc="http://purl.org/dc/elements/1.1/"
   xmlns:cc="http://creativecommons.org/ns#"
   xmlns:rdf="http://www.w3.org/1999/02/22-rdf-syntax-ns#"
   xmlns:svg="http://www.w3.org/2000/svg"
   xmlns="http://www.w3.org/2000/svg"
   xmlns:sodipodi="http://sodipodi.sourceforge.net/DTD/sodipodi-0.dtd"
   xmlns:inkscape="http://www.inkscape.org/namespaces/inkscape"
   width="220mm"
   height="220mm"
   viewBox="0 0 220 220"
   version="1.1"
   id="svg8"
   inkscape:version="0.92.1 r15371"
   sodipodi:docname="warrell.svg">
  <defs
     id="defs2" />
  <sodipodi:namedview
     id="base"
     pagecolor="#ffffff"
     bordercolor="#666666"
     borderopacity="1.0"
     inkscape:pageopacity="0.0"
     inkscape:pageshadow="2"
     inkscape:zoom="0.49497475"
     inkscape:cx="552.39714"
     inkscape:cy="416.75485"
     inkscape:document-units="mm"
     inkscape:current-layer="layer1"
     showgrid="false"
     fit-margin-top="0"
     fit-margin-left="0"
     fit-margin-right="0"
     fit-margin-bottom="0"
     inkscape:window-width="1117"
     inkscape:window-height="730"
     inkscape:window-x="171"
     inkscape:window-y="0"
     inkscape:window-maximized="1" />
  <metadata
     id="metadata5">
    <rdf:RDF>
      <cc:Work
         rdf:about="">
        <dc:format>image/svg+xml</dc:format>
        <dc:type
           rdf:resource="http://purl.org/dc/dcmitype/StillImage" />
        <dc:title></dc:title>
      </cc:Work>
    </rdf:RDF>
  </metadata>
  <g
     inkscape:label="Layer 1"
     inkscape:groupmode="layer"
     id="layer1"
     transform="translate(-11.584963,-53.84897)">
    <rect
       style="opacity:1;fill:#171f4c;fill-opacity:1;stroke-width:0.26748294"
       id="rect4495"
       width="198.31398"
       height="90.871643"
       x="22.427973"
       y="118.41315" />
    <path
       id="path33"
       style="fill:#ffffff;fill-opacity:1;stroke-width:0.26458335"
       d="m 190.58288,156.79808 c -0.1846,-0.48106 0.16973,-0.81248 1.24267,-1.16232 0.65434,-0.21335 1.09576,-0.55813 1.25677,-0.98161 0.32575,-0.85679 0.31901,-19.94035 -0.007,-20.45626 -0.13602,-0.2151 -0.64021,-0.52338 -1.12043,-0.68506 -1.46524,-0.49335 -1.14729,-1.14608 0.89298,-1.83324 0.97135,-0.32714 2.19197,-0.85801 2.71247,-1.1797 0.52051,-0.32169 1.0809,-0.54005 1.24532,-0.48524 0.21737,0.0725 0.28559,3.41739 0.24999,12.25886 -0.0544,13.51581 -0.12658,12.95452 1.73284,13.47622 1.19627,0.33564 3.09402,-0.14819 3.44856,-0.87921 0.29471,-0.60765 0.43714,-19.09201 0.15554,-20.18624 -0.18951,-0.7364 -0.39858,-0.93164 -1.21765,-1.13706 -0.76451,-0.19174 -0.97115,-0.36432 -0.91081,-0.76064 0.0575,-0.3779 0.61814,-0.70284 2.13306,-1.2364 1.13026,-0.39807 2.27073,-0.91899 2.53438,-1.15759 0.26364,-0.2386 0.66205,-0.43382 0.88535,-0.43382 0.36058,0 0.39259,1.29487 0.28611,11.57552 -0.066,6.36654 -0.0149,12.05023 0.11346,12.63043 0.20655,0.93371 0.36888,1.10498 1.41286,1.49062 0.81926,0.30263 1.17949,0.5865 1.17949,0.92946 0,0.47219 -0.39573,0.49412 -9.05595,0.50186 -6.45293,0.006 -9.08867,-0.0772 -9.16979,-0.28858 z m -27.6113,-0.0558 c -0.17798,-0.46379 0.0293,-0.6384 1.32734,-1.11787 0.76138,-0.28125 1.1517,-0.6056 1.27898,-1.06282 0.28207,-1.01325 0.26835,-9.13726 -0.0167,-9.88699 -0.18152,-0.47743 -0.52062,-0.71473 -1.20482,-0.84308 -0.75694,-0.14201 -0.93572,-0.28692 -0.87185,-0.7067 0.0578,-0.38004 0.53504,-0.69225 1.70251,-1.11381 0.89219,-0.32216 2.05986,-0.84399 2.59481,-1.15962 1.43897,-0.84901 1.73614,-0.76216 1.73614,0.50735 v 1.08123 l 1.11869,-0.8227 c 1.27733,-0.93935 2.87064,-1.44895 3.72297,-1.19075 1.56737,0.47482 2.21499,2.01254 1.36105,3.23171 -0.48292,0.68946 -1.73938,0.77639 -2.76312,0.19117 -0.94155,-0.53824 -1.93538,-0.48334 -2.74245,0.15149 l -0.69714,0.54837 0.004,4.94174 c 0.002,2.71795 0.10136,5.0951 0.22029,5.28255 0.11893,0.18745 0.80172,0.55028 1.5173,0.8063 0.95521,0.34175 1.30107,0.60282 1.30107,0.9821 0,0.49294 -0.21669,0.51688 -4.72779,0.52247 -3.66753,0.005 -4.75774,-0.0722 -4.86133,-0.34214 z m -13.18549,0.22763 c -0.0615,-0.0615 -0.11185,-0.32472 -0.11185,-0.58491 0,-0.33243 0.27918,-0.52546 0.93903,-0.64925 1.68516,-0.31614 1.70681,-0.39289 1.70681,-6.05202 0,-5.46665 -0.007,-5.4944 -1.39054,-5.84175 -0.51993,-0.13049 -0.72613,-0.34961 -0.72613,-0.77164 0,-0.49238 0.25146,-0.65931 1.52773,-1.01414 0.84025,-0.23361 1.98548,-0.73539 2.54496,-1.11506 1.34243,-0.911 1.85841,-0.79172 1.96199,0.45356 l 0.0815,0.98049 1.0837,-0.78503 c 2.03992,-1.47771 3.96748,-1.60215 4.97509,-0.32118 0.66848,0.84984 0.66276,1.40785 -0.0234,2.28015 -0.62963,0.80045 -1.93266,0.94541 -2.7745,0.30868 -0.72181,-0.54595 -1.62633,-0.49658 -2.66517,0.14546 l -0.89113,0.55074 0.0149,4.41019 c 0.0188,5.53908 0.18646,6.12414 1.90329,6.63965 0.99177,0.29781 1.25677,0.49714 1.25677,0.94531 0,0.55998 -0.0651,0.56769 -4.65065,0.55027 -2.55787,-0.01 -4.70099,-0.068 -4.7625,-0.12951 z M 60.576753,156.7395 c -0.179655,-0.46818 0.118753,-0.72026 1.298567,-1.09698 0.532836,-0.17014 1.06467,-0.51195 1.181857,-0.75957 0.291888,-0.61678 0.451384,-18.12571 0.179837,-19.74198 -0.197609,-1.17618 -0.306459,-1.32972 -1.142164,-1.6111 -1.527022,-0.51415 -1.221253,-1.14484 0.928346,-1.91484 1.018646,-0.36488 2.180193,-0.89541 2.581217,-1.17895 0.875583,-0.61907 1.670518,-0.52805 1.606077,0.18389 -0.154962,1.71199 -0.400895,11.77422 -0.287775,11.77422 0.07558,0 0.803265,-0.40096 1.617084,-0.89101 2.222449,-1.33829 4.357192,-1.50431 6.389648,-0.49693 2.393786,1.18647 2.616827,1.83492 2.798066,8.13481 0.08373,2.91042 0.242105,5.49172 0.351952,5.73622 0.109844,0.24451 0.696185,0.6017 1.302975,0.79375 0.810469,0.25653 1.103257,0.48963 1.103257,0.87837 0,0.50657 -0.18355,0.53008 -4.29948,0.55065 -4.289676,0.0214 -4.299479,0.0201 -4.299479,-0.57429 0,-0.44372 0.197916,-0.63925 0.775467,-0.7661 1.309357,-0.28758 1.451597,-0.69999 1.563622,-4.53357 0.137311,-4.69883 -0.07304,-6.27513 -0.971553,-7.28066 -1.290963,-1.44471 -4.307353,-1.22539 -5.858735,0.42598 -0.589992,0.62802 -0.599903,0.73739 -0.489757,5.40403 0.123344,5.22576 0.2482,5.63807 1.811287,5.98138 0.769644,0.16904 1.133269,0.64977 0.830086,1.09741 -0.100918,0.149 -1.991802,0.25399 -4.503497,0.25004 -3.390443,-0.005 -4.359336,-0.0845 -4.466905,-0.36477 z m -18.975103,0.004 c -0.212341,-0.55335 0.02932,-0.79532 0.985517,-0.98677 1.88934,-0.37828 2.525701,-0.69491 2.817795,-1.402 0.204876,-0.49597 0.274283,-3.84759 0.225774,-10.90257 l -0.07004,-10.18646 -2.334357,-0.0767 c -2.047314,-0.0673 -2.519061,0.008 -3.836459,0.61028 -1.762334,0.80601 -2.80942,1.73052 -3.516085,3.10447 -0.329456,0.64056 -0.695946,0.99219 -1.034102,0.99219 -0.71481,0 -0.674238,-0.36502 0.430424,-3.87246 l 0.954214,-3.02974 2.286932,0.20739 c 2.872198,0.26047 15.820146,0.25762 18.823391,-0.004 l 2.248959,-0.19602 0.471331,2.85217 c 0.670097,4.05495 0.669856,3.89844 0.0061,3.99303 -0.473326,0.0675 -0.684752,-0.15872 -1.142066,-1.22178 -0.657309,-1.52798 -1.880502,-2.76893 -3.145197,-3.19088 -0.494659,-0.16504 -1.956121,-0.30007 -3.247695,-0.30007 -2.315081,0 -2.35221,0.0102 -2.623373,0.72345 -0.178153,0.46858 -0.245756,4.19466 -0.191889,10.5763 0.09526,11.28597 -0.06366,10.59821 2.596709,11.23719 1.162313,0.27917 1.455208,0.45603 1.455208,0.87869 0,0.51304 -0.183023,0.52977 -6.008708,0.54907 -4.950787,0.0164 -6.034011,-0.046 -6.152421,-0.35461 z m 144.37064,-11.07724 c 1.15739,-0.19136 1.30737,-0.46563 0.9096,-1.66328 -0.35886,-1.08048 -1.30609,-1.83517 -2.55343,-2.0344 -1.50515,-0.24041 -3.20666,1.21581 -3.82033,3.26959 -0.17508,0.58594 -0.14116,0.59526 2.15506,0.5924 1.28311,-0.002 2.7722,-0.0755 3.3091,-0.16431 z m -4.81131,11.62805 c -1.68815,-0.61837 -4.02635,-3.02275 -4.58674,-4.71657 -0.66694,-2.01588 -0.79666,-3.57793 -0.44058,-5.30528 0.38516,-1.86849 0.81707,-2.78081 2.01919,-4.26523 2.43645,-3.00861 7.42567,-3.48509 10.38839,-0.99212 1.0347,0.87064 2.04803,2.58609 2.28118,3.86174 0.26383,1.44358 -0.1166,1.54413 -5.84208,1.54413 h -4.94537 l 0.11894,2.18281 c 0.1368,2.51041 0.5776,3.54911 1.9506,4.59635 0.67212,0.51265 1.35198,0.75481 2.35188,0.83773 1.73623,0.14398 2.98581,-0.25062 4.5327,-1.43139 1.22441,-0.93462 1.69557,-0.96483 1.69557,-0.10875 0,0.67737 -2.08106,2.75462 -3.47578,3.46943 -1.52317,0.78062 -4.38701,0.93554 -6.0479,0.32715 z m -39.18256,-2.40698 c 0.60881,-0.4536 0.70758,-0.76603 0.8946,-2.8298 0.11563,-1.27594 0.14395,-2.38618 0.0629,-2.4672 -0.32792,-0.32792 -3.09438,0.81724 -3.97058,1.64359 -0.74056,0.69844 -0.9328,1.08138 -0.9328,1.85809 0,0.99419 0.37246,1.96457 0.8995,2.34348 0.46765,0.3362 2.30253,0.006 3.04634,-0.54816 z m -5.96548,2.35999 c -1.60247,-1.00628 -2.25216,-2.68244 -1.69459,-4.37191 0.55673,-1.68689 3.04441,-3.36081 6.75694,-4.54662 l 1.85208,-0.59157 0.0793,-1.79141 c 0.10074,-2.27644 -0.26036,-3.17507 -1.43111,-3.56145 -0.74853,-0.24704 -1.06683,-0.21553 -1.88837,0.18694 -0.84998,0.41639 -1.01514,0.64641 -1.18158,1.64559 -0.22768,1.36681 -0.77169,2.05309 -1.80785,2.28067 -1.6284,0.35765 -2.54472,-1.02662 -1.66632,-2.51728 0.55768,-0.94638 2.71706,-2.46513 4.38248,-3.08232 0.62272,-0.23077 1.85595,-0.42763 2.74051,-0.43747 2.10995,-0.0235 3.40031,0.73154 4.15114,2.4289 0.49774,1.12524 0.52064,1.53978 0.34777,6.2961 -0.19265,5.30059 -0.0719,6.17299 0.8547,6.17299 0.25354,0 0.72581,-0.18549 1.04948,-0.4122 1.27316,-0.89176 1.55368,0.52667 0.31096,1.57235 -1.65099,1.38922 -3.77645,1.45065 -5.16179,0.14919 l -0.56638,-0.53208 -1.40635,0.72964 c -1.87472,0.97263 -4.50111,1.14798 -5.721,0.38194 z m -23.47828,0.28346 c -0.071,-0.11493 -2.15657,-4.87137 -4.63455,-10.56989 -2.47797,-5.69851 -4.80906,-10.96015 -5.18018,-11.69253 -0.74717,-1.47447 -1.42533,-2.02361 -3.111096,-2.51924 -0.796536,-0.23418 -1.155446,-0.49263 -1.212464,-0.87307 -0.07955,-0.5308 0.01918,-0.53971 5.55625,-0.50138 5.31218,0.0368 5.63725,0.0675 5.63725,0.53278 0,0.34339 -0.3613,0.62722 -1.18635,0.932 -2.09285,0.77309 -2.11204,0.67858 2.10155,10.3482 2.06087,4.72942 3.83093,8.68411 3.93348,8.78819 0.10254,0.10408 1.10825,-1.52023 2.23491,-3.60956 l 2.04846,-3.79879 -2.6228,-5.39928 c -1.44254,-2.9696 -2.81151,-5.55589 -3.04216,-5.74732 -0.23066,-0.19142 -0.86699,-0.50116 -1.41407,-0.68831 -0.63989,-0.21889 -1.02351,-0.5282 -1.0755,-0.86715 -0.0784,-0.51141 0.0652,-0.52578 4.8948,-0.48931 4.73183,0.0357 4.97559,0.0627 4.97559,0.54992 0,0.3636 -0.26884,0.58176 -0.92604,0.75145 -1.13958,0.29424 -1.5875,0.64557 -1.5875,1.24516 0,0.25288 0.68975,1.86236 1.53277,3.57662 l 1.53276,3.11683 1.55403,-3.01846 c 1.1829,-2.29759 1.51343,-3.18027 1.384,-3.69596 -0.17416,-0.6939 -1.12643,-1.29737 -2.04726,-1.29737 -0.36908,0 -0.51671,-0.18149 -0.51671,-0.63523 v -0.63523 l 4.51225,0.005 c 4.38566,0.005 4.51,0.0198 4.43177,0.54276 -0.0579,0.38699 -0.427,0.63865 -1.31501,0.89658 -0.75132,0.21822 -1.49803,0.67172 -1.90772,1.1586 -0.60633,0.72059 -2.23672,3.51998 -4.26986,7.33141 l -0.74019,1.3876 2.20755,4.63495 c 1.21416,2.54923 2.28393,4.54418 2.37727,4.43323 0.0933,-0.11094 1.73788,-3.85265 3.65453,-8.3149 4.15066,-9.66334 4.23286,-10.1283 1.89732,-10.73135 -0.6572,-0.16969 -0.92604,-0.38785 -0.92604,-0.75145 0,-0.48415 0.23673,-0.51447 4.30091,-0.55092 2.44313,-0.0219 4.36727,0.0688 4.45455,0.21002 0.25049,0.40532 -0.34371,0.91223 -1.46208,1.2473 -0.61143,0.18319 -1.32025,0.66256 -1.70318,1.15186 -0.36075,0.46094 -2.94843,5.99995 -5.75041,12.30891 -4.46728,10.05858 -5.16084,11.46119 -5.6333,11.39253 -0.62348,-0.0906 -0.53818,0.0593 -3.49736,-6.14574 l -2.26267,-4.74453 -0.47221,0.77578 c -0.25971,0.42667 -1.62792,2.88913 -3.04046,5.47213 -1.90855,3.48999 -2.69508,4.69635 -3.06197,4.69635 -0.27155,0 -0.55183,-0.094 -0.62286,-0.20895 z M 90.936739,145.59782 c 1.37237,-0.37949 0.70285,-2.67267 -0.986385,-3.37848 -1.228614,-0.51335 -2.453207,-0.28048 -3.386627,0.644 -0.687777,0.68119 -1.447822,2.09703 -1.447822,2.69706 0,0.30698 4.735928,0.33743 5.820834,0.0374 z m -4.842407,11.75987 c -2.107896,-0.75187 -3.432834,-1.98541 -4.713759,-4.38858 -0.54315,-1.01901 -0.630293,-1.54832 -0.630293,-3.82834 0,-2.38164 0.07448,-2.79113 0.745948,-4.10104 1.334503,-2.60338 3.028836,-3.94198 5.720104,-4.51915 2.829579,-0.60684 6.004835,0.80085 7.436387,3.29678 0.874218,1.52421 1.048986,3.17995 0.363421,3.44302 -0.230182,0.0883 -2.598182,0.1606 -5.262221,0.1606 h -4.843706 l -0.164359,0.87611 c -0.167513,0.89292 0.125489,2.9579 0.588991,4.15097 0.329851,0.84906 1.555835,2.00381 2.510264,2.36442 1.872284,0.7074 4.381307,0.13319 5.918462,-1.35449 0.883182,-0.85476 1.671085,-0.87315 1.671085,-0.039 0,0.78676 -2.926922,3.39274 -4.35841,3.8805 -1.545948,0.52675 -3.60103,0.55077 -4.981914,0.0582 z"
       inkscape:connector-curvature="0" />
    <path
       id="path21"
       style="fill:#ffffff;fill-opacity:1;stroke-width:0.26458335"
       d="m 168.19133,170.82708 c -1.02947,-1.09582 -0.67032,-2.76905 0.71776,-3.34401 1.62412,-0.67273 3.33606,1.03922 2.66333,2.66333 -0.58521,1.41284 -2.35797,1.76972 -3.38109,0.68068 z m 24.03097,20.82102 c 0,-0.44888 0.20283,-0.63056 0.85989,-0.77021 1.76446,-0.37501 1.78594,-0.4482 1.78594,-6.0856 0,-5.43176 -0.01,-5.47308 -1.37139,-5.81483 -0.74379,-0.18668 -1.07939,-0.65796 -0.78695,-1.10513 0.0957,-0.14631 0.87236,-0.48357 1.72599,-0.74948 0.8536,-0.26591 1.96908,-0.76649 2.4788,-1.11241 1.30998,-0.88897 1.81345,-0.71971 1.69836,0.57097 l -0.0916,1.0277 0.88538,-0.58879 c 3.44151,-2.2886 7.06758,-1.85575 8.68728,1.03703 0.63291,1.13038 0.67114,1.44225 0.79708,6.50557 0.14504,5.83043 0.19709,6.02028 1.72921,6.30771 0.72387,0.13579 0.91662,0.29739 0.91662,0.76844 0,0.59496 -0.0109,0.59644 -4.29585,0.58332 -3.91869,-0.012 -4.3039,-0.0549 -4.38748,-0.48888 -0.0667,-0.34634 0.196,-0.5887 0.96589,-0.89112 0.64505,-0.25339 1.11651,-0.63538 1.20885,-0.97948 0.0832,-0.31025 0.1528,-2.52863 0.15457,-4.92972 0.003,-4.78724 -0.2562,-5.86248 -1.58348,-6.55594 -1.02777,-0.53698 -2.99339,-0.25998 -4.08987,0.57637 l -0.93721,0.71483 v 4.89872 c 0,2.87353 0.11332,5.11048 0.27413,5.41093 0.15076,0.28172 0.6957,0.68836 1.21098,0.90366 0.65399,0.27325 0.90966,0.53275 0.84674,0.85946 -0.0817,0.42405 -0.49363,0.46925 -4.386,0.48117 -4.26548,0.0131 -4.29585,0.009 -4.29585,-0.57429 z m -27.09074,0.27688 c -0.18315,-0.47727 0.17364,-0.80952 1.24412,-1.15855 0.65434,-0.21335 1.09577,-0.55813 1.25677,-0.98161 0.29303,-0.77067 0.30176,-9.25003 0.0103,-9.99442 -0.11038,-0.28192 -0.60801,-0.64973 -1.10588,-0.81736 -1.51561,-0.5103 -1.20192,-1.16677 0.8957,-1.87435 0.99046,-0.33411 2.21109,-0.86101 2.71245,-1.17087 0.50139,-0.30987 1.05878,-0.51434 1.23865,-0.45438 0.25164,0.0839 0.30636,1.70654 0.23733,7.03893 -0.10086,7.79116 -0.053,8.03069 1.66854,8.35367 0.74814,0.14034 0.9411,0.29893 0.9411,0.77344 0,0.59642 -0.004,0.5969 -4.49334,0.58765 -3.03316,-0.006 -4.52985,-0.10443 -4.60574,-0.30215 z m -40.26549,0.17628 c -0.0619,-0.0619 -0.11252,-0.3254 -0.11252,-0.5856 0,-0.33243 0.27918,-0.52545 0.93903,-0.64924 1.68516,-0.31614 1.7068,-0.3929 1.7068,-6.05202 0,-5.46665 -0.007,-5.4944 -1.39054,-5.84175 -0.51994,-0.13049 -0.72613,-0.34961 -0.72613,-0.77164 0,-0.49238 0.25146,-0.65931 1.52773,-1.01414 0.84024,-0.23361 1.98549,-0.73539 2.54495,-1.11507 1.34244,-0.91099 1.85843,-0.79171 1.96199,0.45357 l 0.0815,0.98048 1.0837,-0.78503 c 2.03994,-1.47771 3.96748,-1.60214 4.9751,-0.32118 0.66849,0.84984 0.66275,1.40786 -0.0233,2.28016 -0.62963,0.80044 -1.93265,0.94541 -2.7745,0.30868 -0.92289,-0.69804 -2.60207,-0.31252 -3.3538,0.77 -0.32528,0.46839 -0.2041,8.65427 0.14316,9.67262 0.26771,0.78503 0.50718,0.98351 1.57258,1.30342 0.98486,0.29573 1.25677,0.49861 1.25677,0.93767 0,0.54977 -0.0873,0.56011 -4.64997,0.55094 -2.55749,-0.005 -4.70061,-0.06 -4.7625,-0.12187 z m 32.26491,-0.15529 c -1.90794,-1.14367 -2.08264,-1.8208 -2.08264,-8.07144 v -5.42396 l -1.03764,-0.13229 c -1.68675,-0.21505 -1.57637,-0.65642 0.54901,-2.19528 0.74991,-0.54295 1.81615,-1.58082 2.36947,-2.30637 0.5533,-0.72555 1.21968,-1.31919 1.48082,-1.31919 0.5274,0 0.53481,0.0338 0.47776,2.18282 l -0.0404,1.52135 h 2.63215 c 2.90531,0 3.3287,0.20049 3.1791,1.50535 l -0.0853,0.74361 -2.84427,0.0751 -2.84427,0.0751 v 5.00569 c 0,5.33047 0.14248,6.09237 1.23224,6.5889 0.85971,0.39171 1.39356,0.3707 2.75103,-0.10824 2.16334,-0.76327 2.09839,0.75475 -0.0787,1.83965 -1.87203,0.93288 -4.12141,0.94052 -5.65835,0.0192 z m 28.48806,-1.25842 c 1.48937,-1.00372 2.20567,-2.77881 2.32553,-5.7628 0.12266,-3.05415 -0.3319,-4.93397 -1.54797,-6.40159 -1.53258,-1.84959 -4.05906,-1.91955 -5.77932,-0.16003 -1.19235,1.21957 -1.74112,3.0823 -1.74062,5.90827 0,3.40881 0.80021,5.40968 2.60054,6.50749 1.15665,0.70531 3.02077,0.66419 4.14184,-0.0913 z m -5.30299,1.75689 c -2.52931,-0.9164 -4.33972,-2.73693 -5.18306,-5.21203 -0.62859,-1.84482 -0.4327,-5.20447 0.40286,-6.90936 2.68319,-5.47477 10.3211,-6.52628 14.42328,-1.98565 1.62494,1.79861 2.11511,3.17378 2.11511,5.934 0,2.75162 -0.49046,4.13574 -2.09476,5.91149 -1.53059,1.69419 -3.47393,2.51222 -6.20247,2.61085 -1.61047,0.0582 -2.61639,-0.0433 -3.46096,-0.3493 z m -34.67293,-2.43529 c 0.82523,-0.61612 1.01118,-1.27008 1.04446,-3.67298 l 0.0265,-1.90397 -1.46544,0.50418 c -1.87519,0.64516 -2.87796,1.36591 -3.29237,2.36646 -0.43331,1.04604 -0.14248,2.52757 0.60118,3.0626 0.71567,0.51488 2.13908,0.35053 3.08578,-0.35629 z m -5.99239,2.36131 c -1.67098,-1.0537 -2.22478,-2.62746 -1.54808,-4.39934 0.69334,-1.81547 2.68025,-3.17459 6.53672,-4.47129 l 1.9423,-0.65308 0.0796,-1.79568 c 0.10517,-2.37195 -0.0588,-2.90463 -1.05246,-3.41845 -0.68932,-0.35646 -1.00711,-0.37849 -1.84391,-0.12777 -1.09686,0.32862 -1.54887,0.91433 -1.54887,2.00701 0,0.91293 -1.32273,2.246 -2.22862,2.246 -0.81163,0 -1.74013,-0.84665 -1.74013,-1.58674 0,-0.90916 1.8089,-2.59635 3.88231,-3.62108 3.24307,-1.60282 6.05126,-1.31528 7.54007,0.77206 0.59581,0.83535 0.61703,1.04744 0.64288,6.42014 0.0148,3.05593 0.0445,5.75658 0.0661,6.00144 0.0588,0.66378 1.01917,0.85779 1.77964,0.3595 1.31675,-0.86277 1.6492,0.465 0.38317,1.5303 -1.7345,1.45949 -4.14856,1.49777 -5.21595,0.0827 l -0.45794,-0.60711 -1.2678,0.7881 c -1.70786,1.06166 -4.64542,1.29535 -5.9491,0.47327 z m -21.48475,-1.69315 c 1.22179,-0.82295 2.01091,-2.35752 2.35598,-4.58148 0.64442,-4.15333 -0.82553,-8.01625 -3.36992,-8.85598 -2.71428,-0.89579 -5.11834,1.35879 -5.59861,5.2505 -0.44606,3.61465 0.51316,6.99617 2.32519,8.19681 1.22496,0.81167 3.074,0.80742 4.28736,-0.01 z m -4.92181,1.82295 c -2.44435,-0.77305 -4.18192,-2.28174 -5.21113,-4.52469 -0.49002,-1.06793 -0.60703,-1.7819 -0.60703,-3.70417 0,-1.92227 0.11701,-2.63624 0.60703,-3.70416 3.03586,-6.61612 12.44428,-6.80244 15.86434,-0.31418 0.64849,1.23029 0.72348,1.64667 0.72348,4.01834 0,2.35396 -0.0777,2.79295 -0.70374,3.97938 -1.53294,2.90489 -4.48051,4.63535 -7.8386,4.60188 -0.97682,-0.01 -2.25227,-0.16832 -2.83435,-0.3524 z m -45.34902,-1.81271 c 0.55208,-0.36558 1.20108,-1.19999 1.68174,-2.1622 0.71459,-1.43047 0.78196,-1.79902 0.77389,-4.23333 -0.007,-2.19053 -0.11751,-2.91472 -0.6177,-4.05744 -1.96454,-4.48815 -6.72403,-4.11545 -8.10493,0.63468 -0.66049,2.272 -0.44082,6.20553 0.4424,7.92183 0.87068,1.69195 2.0522,2.49177 3.68091,2.49177 0.848,0 1.53118,-0.18972 2.14369,-0.59531 z m -5.23073,1.69305 c -6.11957,-2.11477 -7.62612,-10.27491 -2.71259,-14.69259 1.69769,-1.52638 3.47522,-2.1472 6.07683,-2.1224 3.40321,0.0324 6.24686,1.81372 7.67363,4.80683 0.82076,1.7218 0.99576,4.7426 0.39455,6.81068 -0.61005,2.0985 -3.0307,4.5669 -5.13462,5.23589 -1.82555,0.58048 -4.55506,0.56383 -6.2978,-0.0384 z m -21.08398,0.0707 c -4.66204,-1.12856 -8.16228,-4.46504 -9.53385,-9.08778 -0.4823,-1.62555 -0.55828,-5.34298 -0.14578,-7.13229 1.31131,-5.68804 6.50123,-9.87182 12.7479,-10.27652 1.66672,-0.10799 9.27154,0.35151 9.47692,0.5726 0.009,0.009 0.22473,1.4832 0.48005,3.27517 0.43762,3.07146 0.43831,3.27199 0.012,3.50017 -0.53525,0.28646 -0.71768,0.0909 -1.5425,-1.65343 -0.65371,-1.38247 -1.84914,-2.54819 -3.53675,-3.44886 -0.93331,-0.49811 -1.53071,-0.59633 -3.63067,-0.59694 -2.13505,-6.1e-4 -2.71274,0.0972 -3.83646,0.64942 -7.27653,3.57602 -8.28862,15.96068 -1.72812,21.14646 1.8942,1.49728 3.5584,1.98431 6.21425,1.81862 3.62466,-0.22613 6.37071,-2.00189 7.87092,-5.08978 0.43855,-0.90267 0.7297,-1.19524 1.18943,-1.19524 0.3348,0 0.60812,0.14883 0.60737,0.33073 -0.002,0.45258 -1.25133,6.30768 -1.3637,6.39044 -0.0496,0.0365 -1.81655,0.32744 -3.9266,0.64649 -4.33036,0.65477 -7.08862,0.69922 -9.35436,0.15074 z m 57.9751,-1.87044 c 3.17898,-2.35098 2.97645,-10.54147 -0.2991,-12.09582 -1.04874,-0.49766 -3.11299,-0.56742 -3.95518,-0.13366 -0.31786,0.16371 -0.84581,0.54165 -1.17324,0.83987 -0.57567,0.52434 -0.59531,0.70101 -0.59531,5.35522 0,4.51599 0.0349,4.85736 0.56571,5.53217 0.77527,0.98559 1.42717,1.21287 3.20816,1.1185 1.01652,-0.0539 1.7663,-0.25933 2.24896,-0.61628 z m -12.37283,10.58227 c 0,-0.47226 0.1934,-0.63212 0.93252,-0.77078 1.72884,-0.32433 1.71332,-0.22478 1.71332,-10.98801 0,-10.40732 0.0447,-10.07175 -1.39055,-10.43198 -0.39937,-0.10023 -0.72612,-0.2884 -0.72612,-0.41814 0,-0.12975 -0.23813,0.002 -0.52917,0.29326 -0.62882,0.62883 -2.05349,0.70058 -2.7937,0.14071 -0.73074,-0.55271 -1.78386,-0.49463 -2.59458,0.14308 l -0.69714,0.54837 v 4.95731 c 0,3.55102 0.0938,5.08413 0.33073,5.40438 0.1819,0.24589 0.86651,0.6013 1.52136,0.78981 0.8885,0.25577 1.19062,0.47407 1.19062,0.86027 0,0.49452 -0.21179,0.5175 -4.7625,0.51671 -4.55739,-8e-4 -4.7625,-0.0232 -4.7625,-0.52069 0,-0.37835 0.32377,-0.63239 1.18943,-0.93328 1.48596,-0.5165 1.52451,-0.66973 1.53102,-6.08583 0.006,-5.06572 -0.0616,-5.34936 -1.35392,-5.67197 -1.54494,-0.38568 -1.23132,-1.12695 0.78481,-1.85495 0.89219,-0.32217 2.05986,-0.844 2.59481,-1.15963 1.43374,-0.84592 1.73614,-0.76078 1.73614,0.48885 v 1.06272 l 1.30488,-0.8976 c 2.22859,-1.53299 4.08905,-1.49716 4.98991,0.0961 0.39257,0.69429 0.5566,0.7772 1.24584,0.62969 0.85741,-0.18351 3.17371,-1.2167 3.86664,-1.72474 0.77883,-0.57101 1.28292,-0.10883 1.10138,1.00984 l -0.16256,1.0018 0.63997,-0.45813 c 2.14657,-1.53663 3.64215,-1.93819 5.65914,-1.51946 4.01252,0.83299 6.50052,4.56191 6.16574,9.24095 -0.23428,3.27433 -2.04336,5.93352 -4.9348,7.25374 -0.94978,0.43367 -1.75499,0.56 -3.60426,0.5655 -1.30969,0.004 -2.70867,-0.0951 -3.10885,-0.22004 l -0.72761,-0.22712 v 3.18646 c 0,3.85036 0.16674,4.38448 1.50495,4.82081 0.55472,0.18087 1.08688,0.44964 1.18255,0.59726 0.4876,0.75229 -0.13022,0.87057 -4.54731,0.87057 -4.48127,0 -4.49019,-0.001 -4.49019,-0.59584 z"
       inkscape:connector-curvature="0" />
  </g>
</svg>
