<?xml version="1.0" encoding="UTF-8" standalone="no"?>
<svg
   xmlns:dc="http://purl.org/dc/elements/1.1/"
   xmlns:cc="http://creativecommons.org/ns#"
   xmlns:rdf="http://www.w3.org/1999/02/22-rdf-syntax-ns#"
   xmlns:svg="http://www.w3.org/2000/svg"
   xmlns="http://www.w3.org/2000/svg"
   xmlns:sodipodi="http://sodipodi.sourceforge.net/DTD/sodipodi-0.dtd"
   xmlns:inkscape="http://www.inkscape.org/namespaces/inkscape"
   width="500"
   height="500"
   version="1.1"
   id="svg1055"
   sodipodi:docname="bacarrat.svg"
   inkscape:version="0.92.2 (5c3e80d, 2017-08-06)">
  <metadata
     id="metadata1061">
    <rdf:RDF>
      <cc:Work
         rdf:about="">
        <dc:format>image/svg+xml</dc:format>
        <dc:type
           rdf:resource="http://purl.org/dc/dcmitype/StillImage" />
        <dc:title />
      </cc:Work>
    </rdf:RDF>
  </metadata>
  <defs
     id="defs1059" />
  <sodipodi:namedview
     pagecolor="#ffffff"
     bordercolor="#666666"
     borderopacity="1"
     objecttolerance="10"
     gridtolerance="10"
     guidetolerance="10"
     inkscape:pageopacity="0"
     inkscape:pageshadow="2"
     inkscape:window-width="1920"
     inkscape:window-height="1027"
     id="namedview1057"
     showgrid="false"
     inkscape:zoom="1.716"
     inkscape:cx="135.78877"
     inkscape:cy="263.49807"
     inkscape:window-x="-8"
     inkscape:window-y="-8"
     inkscape:window-maximized="1"
     inkscape:current-layer="svg1055" />
  <g
     id="g1889"
     transform="matrix(1.113973,0,0,1.113973,-28.493271,-27.343694)">
    <g
       transform="translate(8.6270676,-123.57483)"
       id="text1065-6"
       style="font-style:normal;font-weight:normal;font-size:40px;line-height:1.25;font-family:sans-serif;letter-spacing:0px;word-spacing:0px;fill:#000000;fill-opacity:1;stroke:#000000;stroke-width:4;stroke-linejoin:round;stroke-miterlimit:4;stroke-dasharray:none;stroke-opacity:1;paint-order:stroke fill markers"
       aria-label="Bacarrat">
      <path
         inkscape:connector-curvature="0"
         id="path1098-4"
         style="font-style:normal;font-variant:normal;font-weight:normal;font-stretch:normal;font-size:122.66666412px;line-height:0.25;font-family:Respective;-inkscape-font-specification:Respective;fill:#000000;fill-opacity:1;stroke:#000000;stroke-width:4;stroke-linejoin:round;stroke-miterlimit:4;stroke-dasharray:none;stroke-opacity:1;paint-order:stroke fill markers"
         d="m 189.33549,329.75348 q 5.0048,0 8.48853,1.81546 3.48373,1.7664 5.4464,4.7104 1.96267,2.944 2.40427,6.7712 0.49066,3.77814 -0.5888,7.85067 -1.07947,4.07253 -3.68,8.096 -2.55147,4.02346 -6.67307,7.40906 -4.1216,3.33654 -9.76427,5.7408 -5.64266,2.40427 -12.8064,3.2384 9.7152,0.68694 16.97707,3.18934 7.26187,2.45333 12.2176,6.23146 4.95573,3.72907 7.70347,8.43947 2.74773,4.7104 3.43466,9.91147 0.68694,5.20106 -0.63786,10.5984 -1.3248,5.39733 -4.46507,10.4512 4.07253,-1.6192 7.70346,-4.90667 3.63094,-3.33653 6.86934,-8.93013 l 0.8832,0.53973 q -3.48374,6.3296 -7.75254,10.05867 -4.26879,3.68 -9.07733,5.2992 -3.3856,4.7104 -8.34133,8.832 -4.95573,4.17066 -11.38347,7.2128 -6.37866,3.04213 -14.18026,4.80853 -7.8016,1.7664 -16.82987,1.7664 -12.02133,0 -21.54027,-2.40427 -9.46986,-2.3552 -16.4864,-6.28053 -5.93706,4.07253 -13.64053,6.28053 -7.703466,2.208 -17.860266,2.208 -10.009599,0 -17.811199,-2.10986 -7.752533,-2.0608 -13.3952,-5.64267 -5.642667,-3.5328 -9.224533,-8.29227 -3.5328,-4.75946 -5.152,-10.10773 -1.570133,-5.34827 -1.275733,-10.99093 0.2944,-5.69174 2.3552,-11.04 2.0608,-5.34827 5.838933,-10.10774 3.8272,-4.75946 9.224533,-8.29226 5.4464,-3.58187 12.3648,-5.64267 6.967466,-2.10987 15.357866,-2.10987 7.261867,0 12.6592,1.42294 5.446399,1.42293 9.126399,3.77813 3.68,2.3552 5.69173,5.39733 2.01174,2.99307 2.45334,6.1824 0.19626,0 0.34346,0 0.19627,-0.0491 0.4416,-0.0491 5.10294,0 10.5984,1.81546 5.54454,1.81547 11.43254,4.75947 1.6192,-4.46507 3.33653,-9.22453 1.71733,-4.75947 3.58187,-9.96054 l 0.1472,-0.1472 q 0.78506,-2.55146 1.9136,-6.0352 1.12853,-3.5328 2.55146,-7.70346 1.42294,-4.21974 3.14027,-8.93014 1.71733,-4.7104 3.63093,-9.61706 1.96267,-4.90667 4.07254,-9.81333 2.10986,-4.95574 4.416,-9.66614 -5.152,2.40427 -9.91147,4.90667 -4.75947,2.45333 -8.43947,5.05387 -3.68,2.55146 -5.888,5.20106 -2.208,2.6496 -2.208,5.4464 0,2.89493 0.98134,4.416 0.98133,1.472 2.208,2.15893 1.37386,0.78507 3.18933,0.78507 l -0.0981,0.53973 q -3.0912,0.2944 -5.49547,-0.34346 -1.0304,-0.2944 -2.01173,-0.78507 -0.98134,-0.49067 -1.7664,-1.3248 -0.78507,-0.8832 -1.27574,-2.0608 -0.4416,-1.22667 -0.4416,-2.944 0,-2.15893 1.27574,-4.21973 1.27573,-2.10987 3.5328,-4.1216 2.25706,-2.01173 5.2992,-3.92533 3.0912,-1.96267 6.67306,-3.8272 3.63094,-1.86454 7.55627,-3.63094 3.92533,-1.81546 7.9488,-3.58186 3.43467,-6.82027 7.0656,-12.46294 3.68,-5.64266 7.40907,-9.1264 3.77813,-3.48373 7.5072,-4.2688 3.77813,-0.83413 7.36,2.0608 2.208,1.7664 2.60053,3.58187 0.4416,1.7664 -0.53973,3.5328 -0.98134,1.7664 -3.18934,3.58187 -2.208,1.7664 -5.2992,3.58186 -3.04213,1.81547 -6.7712,3.68 -3.72906,1.81547 -7.75253,3.68 -2.208,4.80854 -4.51413,10.40214 -2.25707,5.5936 -4.7104,11.87413 1.96266,-2.7968 4.46506,-5.4464 2.55147,-2.6496 5.69174,-4.66133 3.18933,-2.0608 6.96746,-3.28747 3.8272,-1.27573 8.34134,-1.27573 z M 85.902954,447.61161 q 9.4208,0 16.290136,-2.30614 6.9184,-2.25706 12.16853,-6.86933 -4.80853,-3.0912 -8.34133,-6.72213 -3.5328,-3.63094 -5.83894,-7.5072 -2.306129,-3.87627 -3.385596,-7.8016 -1.079467,-3.92534 -0.981333,-7.55627 -0.392534,0.0491 -0.785067,0.0491 -0.343467,0 -0.736,0 -3.876266,0 -6.525866,-0.63787 -2.6496,-0.68693 -4.317867,-1.7664 -1.668267,-1.07947 -2.453333,-2.45333 -0.785067,-1.42294 -0.932267,-2.89494 -0.09813,-1.52106 0.2944,-2.99306 0.4416,-1.472 1.1776,-2.69867 0.736,-1.27573 1.668267,-2.15893 0.981333,-0.8832 1.9136,-1.1776 l 0.196266,0.34346 q -1.079466,0.34347 -2.109866,1.52107 -1.0304,1.1776 -1.570134,2.7968 -0.490666,1.57013 -0.2944,3.33653 0.245334,1.7664 1.668267,3.2384 1.422933,1.472 4.2688,2.45334 2.894933,0.98133 7.703466,0.98133 h 0.981334 q 0.343466,-3.04213 1.521066,-5.69173 1.226667,-2.6496 3.189333,-4.66134 1.96267,-2.0608 4.7104,-3.3856 2.7968,-1.3248 6.3296,-1.7664 -0.1472,-2.99306 -1.7664,-5.888 -1.6192,-2.89493 -4.95573,-5.152 -3.33654,-2.30613 -8.537603,-3.68 -5.151999,-1.42293 -12.413866,-1.42293 -8.096,0 -14.670933,2.0608 -6.574933,2.01173 -11.530666,5.49547 -4.955734,3.48373 -8.292267,8.14506 -3.336533,4.61227 -5.053866,9.81334 -1.668267,5.20106 -1.717334,10.7456 0,5.49546 1.668267,10.69653 1.668266,5.20107 5.053866,9.8624 3.434667,4.61227 8.586667,8.096 5.152,3.48373 12.0704,5.49547 6.967466,2.0608 15.750399,2.0608 z m 62.461866,-62.31467 q -1.42293,4.02347 -2.7968,7.9488 -1.3248,3.87627 -2.74773,7.55627 4.90666,2.69866 9.96053,5.7408 5.05387,2.99306 10.05867,5.93706 5.05386,2.89494 10.0096,5.49547 5.0048,2.60053 9.81333,4.46507 4.8576,1.86453 9.46987,2.7968 4.66133,0.93226 9.02826,0.49066 2.99307,-5.2992 3.92534,-11.04 0.93226,-5.7408 -0.1472,-11.28533 -1.0304,-5.5936 -4.07254,-10.5984 -2.99306,-5.0048 -7.99786,-8.78293 -4.95574,-3.77814 -11.87414,-5.98614 -6.86933,-2.25706 -15.6032,-2.25706 l -0.34346,-0.68694 q 7.26186,0 13.05173,-1.9136 5.78987,-1.9136 10.05867,-5.0048 4.31786,-3.14026 7.16373,-7.11466 2.89493,-3.9744 4.31787,-8.096 1.472,-4.17067 1.52106,-8.14507 0.0981,-3.9744 -1.1776,-7.0656 -1.27573,-3.14026 -3.87626,-5.05386 -2.60054,-1.9136 -6.4768,-1.9136 -5.10294,0 -9.32267,1.37386 -4.17067,1.37387 -7.8016,4.51414 -3.63093,3.0912 -6.9184,8.19413 -3.28747,5.05386 -6.624,12.41386 -2.5024,6.67307 -5.10293,13.6896 -2.55147,6.96747 -5.34827,14.32747 z m -6.86933,19.08693 q -2.208,5.64267 -4.61227,10.7456 -2.40427,5.10294 -5.20107,9.568 -2.7968,4.416 -6.13333,8.14507 -3.33653,3.77813 -7.40907,6.72213 6.82027,3.63094 16.0448,5.83894 9.22454,2.208 21.00054,2.208 8.48853,0 15.50506,-1.57014 7.0656,-1.52106 12.6592,-4.21973 5.5936,-2.69867 9.76427,-6.37867 4.17067,-3.63093 6.9184,-7.85066 -4.51413,0.4416 -9.32267,-0.2944 -4.80853,-0.78507 -9.76426,-2.45334 -4.95574,-1.71733 -10.0096,-4.07253 -5.05387,-2.40427 -10.05867,-5.10293 -5.0048,-2.74774 -9.91147,-5.64267 -4.8576,-2.944 -9.46986,-5.64267 z m -26.44694,33.4144 q 3.14027,-2.84586 5.78987,-6.57493 2.69867,-3.72907 5.152,-8.34133 2.5024,-4.61227 4.80853,-10.05867 2.30614,-5.49547 4.7104,-11.82507 -6.28053,-3.5328 -11.72693,-5.78986 -5.39733,-2.30614 -9.61707,-2.3552 0.0491,2.84586 -1.07946,5.54453 -1.12854,2.69867 -3.33654,4.90667 -2.15893,2.15893 -5.39733,3.63093 -3.2384,1.42293 -7.359999,1.81547 -0.196267,3.5328 0.736,7.40906 0.981333,3.8272 3.189329,7.6544 2.25707,3.77814 5.7408,7.40907 3.5328,3.58187 8.3904,6.57493 z m 78.6048,-135.71839 q -2.10986,-2.30614 -4.416,-2.01174 -2.25706,0.24534 -4.7104,2.69867 -2.40426,2.45333 -5.05386,6.9184 -2.6496,4.46507 -5.49547,10.54933 5.2992,-2.3552 9.76427,-4.66133 4.51413,-2.30613 7.36,-4.5632 2.89493,-2.25707 3.72906,-4.46507 0.83414,-2.25706 -1.1776,-4.46506 z M 97.188287,406.69001 q 3.140263,-0.34347 5.691733,-1.57014 2.60053,-1.27573 4.46507,-3.14026 1.86453,-1.86454 2.99306,-4.17067 1.12854,-2.3552 1.3248,-4.80853 -3.0912,0.34346 -5.5936,1.52106 -2.45333,1.12854 -4.31786,2.944 -1.815469,1.81547 -2.993069,4.17067 -1.128534,2.3552 -1.570134,5.05387 z" />
      <path
         inkscape:connector-curvature="0"
         id="path1100-3"
         style="font-style:normal;font-variant:normal;font-weight:normal;font-stretch:normal;font-size:122.66666412px;line-height:0.25;font-family:Respective;-inkscape-font-specification:Respective;fill:#000000;fill-opacity:1;stroke:#000000;stroke-width:4;stroke-linejoin:round;stroke-miterlimit:4;stroke-dasharray:none;stroke-opacity:1;paint-order:stroke fill markers"
         d="m 248.07097,398.10334 q -2.944,7.45813 -5.05387,13.64053 -0.8832,2.6496 -1.71733,5.25014 -0.83413,2.60053 -1.37387,4.80853 -0.53973,2.15893 -0.736,3.72907 -0.19626,1.57013 0.1472,2.10986 0.34347,0.5888 1.0304,0.24534 0.736,-0.39254 1.66827,-1.3248 0.98133,-0.98134 2.0608,-2.40427 1.07947,-1.472 2.15893,-3.04213 2.5024,-3.72907 5.49547,-8.832 l 0.63787,0.83413 q -3.04214,5.20107 -5.98614,9.32267 -1.27573,1.7664 -2.6496,3.48373 -1.3248,1.71733 -2.6496,3.0912 -1.3248,1.37387 -2.55146,2.30613 -1.22667,0.93227 -2.25707,1.07947 -1.27573,0.19627 -2.15893,-0.19627 -0.8832,-0.39253 -1.3248,-1.57013 -0.39253,-1.1776 -0.34347,-3.18933 0.0981,-2.0608 0.78507,-5.152 -1.27573,2.208 -2.69867,4.07253 -1.37386,1.86453 -2.84586,3.2384 -1.42294,1.3248 -2.89494,2.0608 -1.42293,0.736 -2.69866,0.736 -1.7664,0 -2.84587,-1.3248 -1.07947,-1.37387 -1.42293,-3.68 -0.34347,-2.3552 0.0981,-5.49547 0.39253,-3.14026 1.6192,-6.67306 1.22667,-3.5328 2.944,-6.67307 1.71733,-3.14027 3.68,-5.4464 1.96267,-2.30613 3.92533,-3.63093 2.01174,-1.37387 3.77814,-1.37387 2.25706,0 3.38559,2.208 1.12854,2.15893 0.98134,5.83893 0.68693,-1.86453 1.42293,-3.8272 0.78507,-2.01173 1.66827,-4.21973 z m -22.86506,31.69707 q 0.736,0 1.81546,-0.736 1.07947,-0.78507 2.25707,-2.15894 1.1776,-1.37386 2.3552,-3.2384 1.22667,-1.9136 2.30613,-4.1216 0.53974,-2.208 1.3248,-4.80853 0.83413,-2.6496 1.96267,-5.7408 0.49066,-3.68 -0.0981,-5.98613 -0.53973,-2.3552 -1.91359,-2.3552 -0.93227,0 -2.0608,1.1776 -1.07947,1.12853 -2.25707,3.0912 -1.1776,1.96266 -2.3552,4.66133 -1.12853,2.6496 -2.15893,5.64267 -1.0304,3.04213 -1.71734,5.69173 -0.68693,2.6496 -0.8832,4.61227 -0.19626,1.96266 0.0981,3.14026 0.34346,1.12854 1.3248,1.12854 z" />
      <path
         inkscape:connector-curvature="0"
         id="path1102-2"
         style="font-style:normal;font-variant:normal;font-weight:normal;font-stretch:normal;font-size:122.66666412px;line-height:0.25;font-family:Respective;-inkscape-font-specification:Respective;fill:#000000;fill-opacity:1;stroke:#000000;stroke-width:4;stroke-linejoin:round;stroke-miterlimit:4;stroke-dasharray:none;stroke-opacity:1;paint-order:stroke fill markers"
         d="m 269.16389,397.95614 q 1.86453,0 2.6496,1.0304 0.83413,0.98133 0.8832,2.55147 0.0981,1.52106 -0.4416,3.3856 -0.53974,1.81546 -1.42294,3.5328 -0.8832,1.66826 -1.96266,2.99306 -1.0304,1.27574 -2.01174,1.71734 -0.4416,0.24533 -1.03039,0.24533 -0.93227,0 -1.6192,-0.63787 -0.63787,-0.68693 -0.63787,-1.6192 0,-0.93226 0.63787,-1.57013 0.68693,-0.68693 1.6192,-0.68693 1.27573,0 1.91359,1.12853 0.736,-0.4416 1.52107,-1.42293 0.83413,-1.0304 1.42293,-2.25707 0.63787,-1.22667 0.98134,-2.5024 0.39253,-1.3248 0.19626,-2.3552 -0.1472,-1.07947 -0.93226,-1.7664 -0.78507,-0.68693 -2.45334,-0.68693 -1.3248,0 -2.84586,1.07946 -1.472,1.07947 -2.99307,2.89494 -1.52106,1.81546 -2.944,4.21973 -1.42293,2.3552 -2.55146,4.95573 -1.12854,2.60054 -1.96267,5.25014 -0.78507,2.60053 -1.0304,4.90666 -0.24533,2.30614 0.0981,4.17067 0.39254,1.81547 1.57014,2.84587 1.1776,1.0304 2.74773,0.78506 1.57013,-0.2944 3.33653,-1.42293 1.7664,-1.12853 3.63094,-2.89493 1.86453,-1.7664 3.63093,-3.77814 4.1216,-4.7104 8.63573,-11.3344 l 0.68693,0.63787 q -3.77813,5.93707 -7.70346,10.54933 -1.66827,1.96267 -3.5328,3.87627 -1.86453,1.86453 -3.8272,3.33653 -1.96267,1.472 -3.92533,2.40427 -1.96267,0.8832 -3.77814,0.8832 -2.84586,0 -4.46506,-1.472 -1.66827,-1.472 -2.208,-3.87627 -0.5888,-2.45333 -0.19627,-5.54453 0.39253,-3.0912 1.57013,-6.3296 1.1776,-3.2384 3.0912,-6.3296 1.9136,-3.0912 4.31787,-5.49547 2.45333,-2.45333 5.2992,-3.92533 2.89493,-1.472 6.0352,-1.472 z" />
      <path
         inkscape:connector-curvature="0"
         id="path1104-6"
         style="font-style:normal;font-variant:normal;font-weight:normal;font-stretch:normal;font-size:122.66666412px;line-height:0.25;font-family:Respective;-inkscape-font-specification:Respective;fill:#000000;fill-opacity:1;stroke:#000000;stroke-width:4;stroke-linejoin:round;stroke-miterlimit:4;stroke-dasharray:none;stroke-opacity:1;paint-order:stroke fill markers"
         d="m 304.13347,398.10334 q -2.944,7.45813 -5.05387,13.64053 -0.8832,2.6496 -1.71733,5.25014 -0.83413,2.60053 -1.37387,4.80853 -0.53973,2.15893 -0.736,3.72907 -0.19626,1.57013 0.1472,2.10986 0.34347,0.5888 1.0304,0.24534 0.736,-0.39254 1.66827,-1.3248 0.98133,-0.98134 2.0608,-2.40427 1.07947,-1.472 2.15893,-3.04213 2.5024,-3.72907 5.49547,-8.832 l 0.63787,0.83413 q -3.04214,5.20107 -5.98614,9.32267 -1.27573,1.7664 -2.6496,3.48373 -1.3248,1.71733 -2.6496,3.0912 -1.3248,1.37387 -2.55146,2.30613 -1.22667,0.93227 -2.25707,1.07947 -1.27573,0.19627 -2.15893,-0.19627 -0.8832,-0.39253 -1.3248,-1.57013 -0.39253,-1.1776 -0.34347,-3.18933 0.0981,-2.0608 0.78507,-5.152 -1.27573,2.208 -2.69867,4.07253 -1.37386,1.86453 -2.84586,3.2384 -1.42294,1.3248 -2.89494,2.0608 -1.42293,0.736 -2.69866,0.736 -1.7664,0 -2.84587,-1.3248 -1.07947,-1.37387 -1.42293,-3.68 -0.34347,-2.3552 0.0981,-5.49547 0.39253,-3.14026 1.6192,-6.67306 1.22667,-3.5328 2.944,-6.67307 1.71733,-3.14027 3.68,-5.4464 1.96267,-2.30613 3.92533,-3.63093 2.01174,-1.37387 3.77814,-1.37387 2.25706,0 3.38559,2.208 1.12854,2.15893 0.98134,5.83893 0.68693,-1.86453 1.42293,-3.8272 0.78507,-2.01173 1.66827,-4.21973 z m -22.86506,31.69707 q 0.736,0 1.81546,-0.736 1.07947,-0.78507 2.25707,-2.15894 1.1776,-1.37386 2.3552,-3.2384 1.22667,-1.9136 2.30613,-4.1216 0.53974,-2.208 1.3248,-4.80853 0.83413,-2.6496 1.96267,-5.7408 0.49066,-3.68 -0.0981,-5.98613 -0.53973,-2.3552 -1.91359,-2.3552 -0.93227,0 -2.0608,1.1776 -1.07947,1.12853 -2.25707,3.0912 -1.1776,1.96266 -2.3552,4.66133 -1.12853,2.6496 -2.15893,5.64267 -1.0304,3.04213 -1.71734,5.69173 -0.68693,2.6496 -0.8832,4.61227 -0.19626,1.96266 0.0981,3.14026 0.34346,1.12854 1.3248,1.12854 z" />
      <path
         inkscape:connector-curvature="0"
         id="path1106-9"
         style="font-style:normal;font-variant:normal;font-weight:normal;font-stretch:normal;font-size:122.66666412px;line-height:0.25;font-family:Respective;-inkscape-font-specification:Respective;fill:#000000;fill-opacity:1;stroke:#000000;stroke-width:4;stroke-linejoin:round;stroke-miterlimit:4;stroke-dasharray:none;stroke-opacity:1;paint-order:stroke fill markers"
         d="m 314.57892,404.62921 q -0.736,1.0304 -1.6192,2.25706 -0.83413,1.1776 -1.7664,2.45334 -0.8832,1.22666 -1.7664,2.45333 -0.83413,1.22667 -1.57013,2.30613 h -1.1776 q 2.01173,-3.04213 3.63093,-5.4464 1.6192,-2.40426 3.04214,-4.02346 h -0.78507 q -1.52107,0 -2.60053,-0.5888 -1.07947,-0.5888 -1.6192,-1.472 -0.53974,-0.93227 -0.49067,-1.96267 0,-1.07947 0.63787,-1.96267 0.63786,-0.93226 1.9136,-1.57013 1.3248,-0.63787 3.33653,-0.736 1.52107,-0.0491 2.40427,0.53973 0.8832,0.53974 1.07946,1.472 0.24534,0.93227 -0.1472,2.15894 -0.39253,1.22666 -1.37386,2.45333 l 6.57493,0.0491 h 0.0491 q 2.45333,0 3.87626,0.736 1.472,0.736 1.86453,2.40426 0.4416,1.6192 -0.19626,4.2688 -0.5888,2.6496 -2.25707,6.4768 -0.34347,0.83414 -0.78507,1.96267 -0.4416,1.12853 -0.83413,2.3552 -0.39253,1.1776 -0.68693,2.3552 -0.24534,1.1776 -0.2944,2.10987 0,0.93226 0.24533,1.57013 0.2944,0.5888 1.0304,0.63787 0.5888,0.0491 1.42293,-0.5888 0.8832,-0.68694 1.86454,-1.7664 0.98133,-1.07947 2.0608,-2.45334 1.07946,-1.42293 2.10986,-2.89493 2.40427,-3.43467 5.10294,-7.89973 l 0.63786,0.83413 q -3.0912,5.4464 -6.28053,9.66613 -1.37387,1.81547 -2.89493,3.58187 -1.52107,1.71733 -3.0912,3.0912 -1.52107,1.3248 -3.0912,2.15893 -1.52107,0.83414 -2.944,0.83414 -1.12853,0 -1.71733,-0.68694 -0.53974,-0.68693 -0.68694,-1.81546 -0.0981,-1.1776 0.0981,-2.60054 0.19626,-1.472 0.5888,-2.99306 0.8832,-3.5328 2.7968,-8.096 1.37386,-3.2384 2.40426,-5.4464 1.0304,-2.25707 1.22667,-3.63094 0.24533,-1.37386 -0.5888,-1.96266 -0.83414,-0.5888 -3.18933,-0.5888 z m -0.0981,-6.96747 q -1.12853,0 -1.96267,0.83413 -0.83413,0.83414 -1.0304,1.81547 -0.19626,0.98133 0.4416,1.81547 0.68694,0.83413 2.55147,0.83413 0.8832,-1.1776 1.1776,-2.15893 0.2944,-0.98134 0.19627,-1.66827 -0.0981,-0.736 -0.49067,-1.07947 -0.39253,-0.39253 -0.8832,-0.39253 z" />
      <path
         inkscape:connector-curvature="0"
         id="path1108-6"
         style="font-style:normal;font-variant:normal;font-weight:normal;font-stretch:normal;font-size:122.66666412px;line-height:0.25;font-family:Respective;-inkscape-font-specification:Respective;fill:#000000;fill-opacity:1;stroke:#000000;stroke-width:4;stroke-linejoin:round;stroke-miterlimit:4;stroke-dasharray:none;stroke-opacity:1;paint-order:stroke fill markers"
         d="m 343.56852,404.62921 q -0.736,1.0304 -1.6192,2.25706 -0.83414,1.1776 -1.7664,2.45334 -0.8832,1.22666 -1.7664,2.45333 -0.83414,1.22667 -1.57014,2.30613 h -1.1776 q 2.01174,-3.04213 3.63094,-5.4464 1.6192,-2.40426 3.04213,-4.02346 h -0.78507 q -1.52106,0 -2.60053,-0.5888 -1.07947,-0.5888 -1.6192,-1.472 -0.53973,-0.93227 -0.49067,-1.96267 0,-1.07947 0.63787,-1.96267 0.63787,-0.93226 1.9136,-1.57013 1.3248,-0.63787 3.33653,-0.736 1.52107,-0.0491 2.40427,0.53973 0.8832,0.53974 1.07947,1.472 0.24533,0.93227 -0.1472,2.15894 -0.39254,1.22666 -1.37387,2.45333 l 6.57493,0.0491 h 0.0491 q 2.45333,0 3.87627,0.736 1.472,0.736 1.86453,2.40426 0.4416,1.6192 -0.19627,4.2688 -0.5888,2.6496 -2.25706,6.4768 -0.34347,0.83414 -0.78507,1.96267 -0.4416,1.12853 -0.83413,2.3552 -0.39254,1.1776 -0.68694,2.3552 -0.24533,1.1776 -0.2944,2.10987 0,0.93226 0.24534,1.57013 0.2944,0.5888 1.0304,0.63787 0.5888,0.0491 1.42293,-0.5888 0.8832,-0.68694 1.86453,-1.7664 0.98134,-1.07947 2.0608,-2.45334 1.07947,-1.42293 2.10987,-2.89493 2.40426,-3.43467 5.10293,-7.89973 l 0.63787,0.83413 q -3.0912,5.4464 -6.28054,9.66613 -1.37386,1.81547 -2.89493,3.58187 -1.52106,1.71733 -3.0912,3.0912 -1.52106,1.3248 -3.0912,2.15893 -1.52106,0.83414 -2.944,0.83414 -1.12853,0 -1.71733,-0.68694 -0.53973,-0.68693 -0.68693,-1.81546 -0.0981,-1.1776 0.0981,-2.60054 0.19627,-1.472 0.5888,-2.99306 0.8832,-3.5328 2.7968,-8.096 1.37387,-3.2384 2.40427,-5.4464 1.0304,-2.25707 1.22666,-3.63094 0.24534,-1.37386 -0.5888,-1.96266 -0.83413,-0.5888 -3.18933,-0.5888 z m -0.0981,-6.96747 q -1.12853,0 -1.96266,0.83413 -0.83414,0.83414 -1.0304,1.81547 -0.19627,0.98133 0.4416,1.81547 0.68693,0.83413 2.55146,0.83413 0.8832,-1.1776 1.1776,-2.15893 0.2944,-0.98134 0.19627,-1.66827 -0.0981,-0.736 -0.49067,-1.07947 -0.39253,-0.39253 -0.8832,-0.39253 z" />
      <path
         inkscape:connector-curvature="0"
         id="path1110-7"
         style="font-style:normal;font-variant:normal;font-weight:normal;font-stretch:normal;font-size:122.66666412px;line-height:0.25;font-family:Respective;-inkscape-font-specification:Respective;fill:#000000;fill-opacity:1;stroke:#000000;stroke-width:4;stroke-linejoin:round;stroke-miterlimit:4;stroke-dasharray:none;stroke-opacity:1;paint-order:stroke fill markers"
         d="m 393.01888,398.10334 q -2.944,7.45813 -5.05387,13.64053 -0.8832,2.6496 -1.71733,5.25014 -0.83414,2.60053 -1.37387,4.80853 -0.53973,2.15893 -0.736,3.72907 -0.19627,1.57013 0.1472,2.10986 0.34347,0.5888 1.0304,0.24534 0.736,-0.39254 1.66827,-1.3248 0.98133,-0.98134 2.0608,-2.40427 1.07946,-1.472 2.15893,-3.04213 2.5024,-3.72907 5.49547,-8.832 l 0.63786,0.83413 q -3.04213,5.20107 -5.98613,9.32267 -1.27573,1.7664 -2.6496,3.48373 -1.3248,1.71733 -2.6496,3.0912 -1.3248,1.37387 -2.55147,2.30613 -1.22666,0.93227 -2.25706,1.07947 -1.27574,0.19627 -2.15894,-0.19627 -0.8832,-0.39253 -1.3248,-1.57013 -0.39253,-1.1776 -0.34346,-3.18933 0.0981,-2.0608 0.78506,-5.152 -1.27573,2.208 -2.69866,4.07253 -1.37387,1.86453 -2.84587,3.2384 -1.42293,1.3248 -2.89493,2.0608 -1.42293,0.736 -2.69867,0.736 -1.7664,0 -2.84586,-1.3248 -1.07947,-1.37387 -1.42294,-3.68 -0.34346,-2.3552 0.0981,-5.49547 0.39253,-3.14026 1.6192,-6.67306 1.22666,-3.5328 2.944,-6.67307 1.71733,-3.14027 3.68,-5.4464 1.96266,-2.30613 3.92533,-3.63093 2.01173,-1.37387 3.77813,-1.37387 2.25707,0 3.3856,2.208 1.12853,2.15893 0.98133,5.83893 0.68694,-1.86453 1.42294,-3.8272 0.78506,-2.01173 1.66826,-4.21973 z m -22.86507,31.69707 q 0.736,0 1.81547,-0.736 1.07946,-0.78507 2.25706,-2.15894 1.1776,-1.37386 2.3552,-3.2384 1.22667,-1.9136 2.30614,-4.1216 0.53973,-2.208 1.3248,-4.80853 0.83413,-2.6496 1.96266,-5.7408 0.49067,-3.68 -0.0981,-5.98613 -0.53973,-2.3552 -1.9136,-2.3552 -0.93227,0 -2.0608,1.1776 -1.07947,1.12853 -2.25707,3.0912 -1.1776,1.96266 -2.3552,4.66133 -1.12853,2.6496 -2.15893,5.64267 -1.0304,3.04213 -1.71733,5.69173 -0.68693,2.6496 -0.8832,4.61227 -0.19627,1.96266 0.0981,3.14026 0.34347,1.12854 1.3248,1.12854 z" />
      <path
         inkscape:connector-curvature="0"
         id="path1112-4"
         style="font-style:normal;font-variant:normal;font-weight:normal;font-stretch:normal;font-size:122.66666412px;line-height:0.25;font-family:Respective;-inkscape-font-specification:Respective;fill:#000000;fill-opacity:1;stroke:#000000;stroke-width:4;stroke-linejoin:round;stroke-miterlimit:4;stroke-dasharray:none;stroke-opacity:1;paint-order:stroke fill markers"
         d="m 443.89526,391.62654 h -32.43307 q -1.22666,1.9136 -2.40426,3.77813 -1.1776,1.86454 -2.3552,3.68 -1.52107,4.75947 -2.60054,8.2432 -1.0304,3.48374 -1.57013,5.20107 -1.22666,4.1216 -1.7664,6.9184 -0.53973,2.74773 -0.4416,4.51413 0.0981,1.7664 0.736,2.74774 0.68694,0.93226 1.9136,1.37386 0.8832,0.2944 2.01173,-0.19626 1.12854,-0.49067 2.3552,-1.52107 1.27574,-1.07947 2.60054,-2.5024 1.3248,-1.42293 2.60053,-2.99307 2.944,-3.63093 6.08427,-8.48853 l 0.49066,0.78507 q -3.72906,5.7408 -6.7712,9.46986 -3.04213,3.68 -5.64266,5.83894 -2.55147,2.15893 -4.75947,2.99306 -2.208,0.83414 -4.21973,0.83414 -2.01173,0 -2.944,-1.66827 -0.93227,-1.66827 -1.07947,-4.07253 -0.19626,-2.40427 0.19627,-5.10294 0.39253,-2.74773 1.07947,-4.80853 0.19626,-0.68693 0.98133,-2.84587 0.736,-2.208 1.9136,-5.49546 1.1776,-3.33654 2.69867,-7.60534 1.57013,-4.2688 3.38559,-9.07733 h -22.86506 v -1.1776 h 23.30666 q 2.45334,-6.42773 5.20107,-13.34613 2.7968,-6.96747 5.69173,-13.59147 2.89494,-6.624 5.7408,-12.46293 2.89494,-5.888 5.49547,-10.10773 2.6496,-4.2688 4.8576,-6.42774 2.25707,-2.15893 3.87627,-1.42293 2.208,1.0304 2.40426,3.9744 0.24534,2.944 -1.0304,7.26187 -1.27573,4.31786 -3.77813,9.76426 -2.5024,5.39733 -5.83893,11.43253 -3.28747,6.0352 -7.11467,12.41387 -3.8272,6.3296 -7.70347,12.512 h 31.69707 z m -8.93013,-56.672 q -1.22667,-0.736 -3.04214,1.42294 -1.7664,2.10986 -3.92533,6.28053 -2.10987,4.1216 -4.51413,9.81333 -2.40427,5.69173 -4.8576,12.11947 -2.40427,6.42773 -4.75947,13.1008 -2.30613,6.67306 -4.31787,12.75733 h 1.52107 q 3.72907,-5.98613 7.40907,-12.16853 3.68,-6.1824 6.86933,-12.02134 3.2384,-5.83893 5.7408,-11.04 2.5024,-5.25013 3.87627,-9.42079 1.42293,-4.17067 1.52106,-6.96747 0.0981,-2.84587 -1.52106,-3.87627 z m -25.80907,56.672 q -0.34347,1.0304 -0.68693,2.01173 -0.2944,0.93227 -0.5888,1.9136 0.5888,-0.98133 1.1776,-1.96266 0.63786,-0.98134 1.27573,-1.96267 z" />
    </g>
    <g
       transform="translate(8.6269833,-123.58055)"
       id="text1065"
       style="font-style:normal;font-weight:normal;font-size:40px;line-height:1.25;font-family:sans-serif;letter-spacing:0px;word-spacing:0px;fill:#ab931b;fill-opacity:1;stroke:none;stroke-width:4;stroke-linejoin:round;stroke-miterlimit:4;stroke-dasharray:none;stroke-opacity:1;paint-order:stroke fill markers"
       aria-label="Bacarrat">
      <path
         inkscape:connector-curvature="0"
         id="path1098"
         style="font-style:normal;font-variant:normal;font-weight:normal;font-stretch:normal;font-size:122.66666412px;line-height:0.25;font-family:Respective;-inkscape-font-specification:Respective;fill:#ab931b;fill-opacity:1;stroke:none;stroke-width:4;stroke-linejoin:round;stroke-miterlimit:4;stroke-dasharray:none;stroke-opacity:1;paint-order:stroke fill markers"
         d="m 189.33549,329.75348 q 5.0048,0 8.48853,1.81546 3.48373,1.7664 5.4464,4.7104 1.96267,2.944 2.40427,6.7712 0.49066,3.77814 -0.5888,7.85067 -1.07947,4.07253 -3.68,8.096 -2.55147,4.02346 -6.67307,7.40906 -4.1216,3.33654 -9.76427,5.7408 -5.64266,2.40427 -12.8064,3.2384 9.7152,0.68694 16.97707,3.18934 7.26187,2.45333 12.2176,6.23146 4.95573,3.72907 7.70347,8.43947 2.74773,4.7104 3.43466,9.91147 0.68694,5.20106 -0.63786,10.5984 -1.3248,5.39733 -4.46507,10.4512 4.07253,-1.6192 7.70346,-4.90667 3.63094,-3.33653 6.86934,-8.93013 l 0.8832,0.53973 q -3.48374,6.3296 -7.75254,10.05867 -4.26879,3.68 -9.07733,5.2992 -3.3856,4.7104 -8.34133,8.832 -4.95573,4.17066 -11.38347,7.2128 -6.37866,3.04213 -14.18026,4.80853 -7.8016,1.7664 -16.82987,1.7664 -12.02133,0 -21.54027,-2.40427 -9.46986,-2.3552 -16.4864,-6.28053 -5.93706,4.07253 -13.64053,6.28053 -7.703466,2.208 -17.860266,2.208 -10.009599,0 -17.811199,-2.10986 -7.752533,-2.0608 -13.3952,-5.64267 -5.642667,-3.5328 -9.224533,-8.29227 -3.5328,-4.75946 -5.152,-10.10773 -1.570133,-5.34827 -1.275733,-10.99093 0.2944,-5.69174 2.3552,-11.04 2.0608,-5.34827 5.838933,-10.10774 3.8272,-4.75946 9.224533,-8.29226 5.4464,-3.58187 12.3648,-5.64267 6.967466,-2.10987 15.357866,-2.10987 7.261867,0 12.6592,1.42294 5.446399,1.42293 9.126399,3.77813 3.68,2.3552 5.69173,5.39733 2.01174,2.99307 2.45334,6.1824 0.19626,0 0.34346,0 0.19627,-0.0491 0.4416,-0.0491 5.10294,0 10.5984,1.81546 5.54454,1.81547 11.43254,4.75947 1.6192,-4.46507 3.33653,-9.22453 1.71733,-4.75947 3.58187,-9.96054 l 0.1472,-0.1472 q 0.78506,-2.55146 1.9136,-6.0352 1.12853,-3.5328 2.55146,-7.70346 1.42294,-4.21974 3.14027,-8.93014 1.71733,-4.7104 3.63093,-9.61706 1.96267,-4.90667 4.07254,-9.81333 2.10986,-4.95574 4.416,-9.66614 -5.152,2.40427 -9.91147,4.90667 -4.75947,2.45333 -8.43947,5.05387 -3.68,2.55146 -5.888,5.20106 -2.208,2.6496 -2.208,5.4464 0,2.89493 0.98134,4.416 0.98133,1.472 2.208,2.15893 1.37386,0.78507 3.18933,0.78507 l -0.0981,0.53973 q -3.0912,0.2944 -5.49547,-0.34346 -1.0304,-0.2944 -2.01173,-0.78507 -0.98134,-0.49067 -1.7664,-1.3248 -0.78507,-0.8832 -1.27574,-2.0608 -0.4416,-1.22667 -0.4416,-2.944 0,-2.15893 1.27574,-4.21973 1.27573,-2.10987 3.5328,-4.1216 2.25706,-2.01173 5.2992,-3.92533 3.0912,-1.96267 6.67306,-3.8272 3.63094,-1.86454 7.55627,-3.63094 3.92533,-1.81546 7.9488,-3.58186 3.43467,-6.82027 7.0656,-12.46294 3.68,-5.64266 7.40907,-9.1264 3.77813,-3.48373 7.5072,-4.2688 3.77813,-0.83413 7.36,2.0608 2.208,1.7664 2.60053,3.58187 0.4416,1.7664 -0.53973,3.5328 -0.98134,1.7664 -3.18934,3.58187 -2.208,1.7664 -5.2992,3.58186 -3.04213,1.81547 -6.7712,3.68 -3.72906,1.81547 -7.75253,3.68 -2.208,4.80854 -4.51413,10.40214 -2.25707,5.5936 -4.7104,11.87413 1.96266,-2.7968 4.46506,-5.4464 2.55147,-2.6496 5.69174,-4.66133 3.18933,-2.0608 6.96746,-3.28747 3.8272,-1.27573 8.34134,-1.27573 z M 85.902954,447.61161 q 9.4208,0 16.290136,-2.30614 6.9184,-2.25706 12.16853,-6.86933 -4.80853,-3.0912 -8.34133,-6.72213 -3.5328,-3.63094 -5.83894,-7.5072 -2.306129,-3.87627 -3.385596,-7.8016 -1.079467,-3.92534 -0.981333,-7.55627 -0.392534,0.0491 -0.785067,0.0491 -0.343467,0 -0.736,0 -3.876266,0 -6.525866,-0.63787 -2.6496,-0.68693 -4.317867,-1.7664 -1.668267,-1.07947 -2.453333,-2.45333 -0.785067,-1.42294 -0.932267,-2.89494 -0.09813,-1.52106 0.2944,-2.99306 0.4416,-1.472 1.1776,-2.69867 0.736,-1.27573 1.668267,-2.15893 0.981333,-0.8832 1.9136,-1.1776 l 0.196266,0.34346 q -1.079466,0.34347 -2.109866,1.52107 -1.0304,1.1776 -1.570134,2.7968 -0.490666,1.57013 -0.2944,3.33653 0.245334,1.7664 1.668267,3.2384 1.422933,1.472 4.2688,2.45334 2.894933,0.98133 7.703466,0.98133 h 0.981334 q 0.343466,-3.04213 1.521066,-5.69173 1.226667,-2.6496 3.189333,-4.66134 1.96267,-2.0608 4.7104,-3.3856 2.7968,-1.3248 6.3296,-1.7664 -0.1472,-2.99306 -1.7664,-5.888 -1.6192,-2.89493 -4.95573,-5.152 -3.33654,-2.30613 -8.537603,-3.68 -5.151999,-1.42293 -12.413866,-1.42293 -8.096,0 -14.670933,2.0608 -6.574933,2.01173 -11.530666,5.49547 -4.955734,3.48373 -8.292267,8.14506 -3.336533,4.61227 -5.053866,9.81334 -1.668267,5.20106 -1.717334,10.7456 0,5.49546 1.668267,10.69653 1.668266,5.20107 5.053866,9.8624 3.434667,4.61227 8.586667,8.096 5.152,3.48373 12.0704,5.49547 6.967466,2.0608 15.750399,2.0608 z m 62.461866,-62.31467 q -1.42293,4.02347 -2.7968,7.9488 -1.3248,3.87627 -2.74773,7.55627 4.90666,2.69866 9.96053,5.7408 5.05387,2.99306 10.05867,5.93706 5.05386,2.89494 10.0096,5.49547 5.0048,2.60053 9.81333,4.46507 4.8576,1.86453 9.46987,2.7968 4.66133,0.93226 9.02826,0.49066 2.99307,-5.2992 3.92534,-11.04 0.93226,-5.7408 -0.1472,-11.28533 -1.0304,-5.5936 -4.07254,-10.5984 -2.99306,-5.0048 -7.99786,-8.78293 -4.95574,-3.77814 -11.87414,-5.98614 -6.86933,-2.25706 -15.6032,-2.25706 l -0.34346,-0.68694 q 7.26186,0 13.05173,-1.9136 5.78987,-1.9136 10.05867,-5.0048 4.31786,-3.14026 7.16373,-7.11466 2.89493,-3.9744 4.31787,-8.096 1.472,-4.17067 1.52106,-8.14507 0.0981,-3.9744 -1.1776,-7.0656 -1.27573,-3.14026 -3.87626,-5.05386 -2.60054,-1.9136 -6.4768,-1.9136 -5.10294,0 -9.32267,1.37386 -4.17067,1.37387 -7.8016,4.51414 -3.63093,3.0912 -6.9184,8.19413 -3.28747,5.05386 -6.624,12.41386 -2.5024,6.67307 -5.10293,13.6896 -2.55147,6.96747 -5.34827,14.32747 z m -6.86933,19.08693 q -2.208,5.64267 -4.61227,10.7456 -2.40427,5.10294 -5.20107,9.568 -2.7968,4.416 -6.13333,8.14507 -3.33653,3.77813 -7.40907,6.72213 6.82027,3.63094 16.0448,5.83894 9.22454,2.208 21.00054,2.208 8.48853,0 15.50506,-1.57014 7.0656,-1.52106 12.6592,-4.21973 5.5936,-2.69867 9.76427,-6.37867 4.17067,-3.63093 6.9184,-7.85066 -4.51413,0.4416 -9.32267,-0.2944 -4.80853,-0.78507 -9.76426,-2.45334 -4.95574,-1.71733 -10.0096,-4.07253 -5.05387,-2.40427 -10.05867,-5.10293 -5.0048,-2.74774 -9.91147,-5.64267 -4.8576,-2.944 -9.46986,-5.64267 z m -26.44694,33.4144 q 3.14027,-2.84586 5.78987,-6.57493 2.69867,-3.72907 5.152,-8.34133 2.5024,-4.61227 4.80853,-10.05867 2.30614,-5.49547 4.7104,-11.82507 -6.28053,-3.5328 -11.72693,-5.78986 -5.39733,-2.30614 -9.61707,-2.3552 0.0491,2.84586 -1.07946,5.54453 -1.12854,2.69867 -3.33654,4.90667 -2.15893,2.15893 -5.39733,3.63093 -3.2384,1.42293 -7.359999,1.81547 -0.196267,3.5328 0.736,7.40906 0.981333,3.8272 3.189329,7.6544 2.25707,3.77814 5.7408,7.40907 3.5328,3.58187 8.3904,6.57493 z m 78.6048,-135.71839 q -2.10986,-2.30614 -4.416,-2.01174 -2.25706,0.24534 -4.7104,2.69867 -2.40426,2.45333 -5.05386,6.9184 -2.6496,4.46507 -5.49547,10.54933 5.2992,-2.3552 9.76427,-4.66133 4.51413,-2.30613 7.36,-4.5632 2.89493,-2.25707 3.72906,-4.46507 0.83414,-2.25706 -1.1776,-4.46506 z M 97.188287,406.69001 q 3.140263,-0.34347 5.691733,-1.57014 2.60053,-1.27573 4.46507,-3.14026 1.86453,-1.86454 2.99306,-4.17067 1.12854,-2.3552 1.3248,-4.80853 -3.0912,0.34346 -5.5936,1.52106 -2.45333,1.12854 -4.31786,2.944 -1.815469,1.81547 -2.993069,4.17067 -1.128534,2.3552 -1.570134,5.05387 z" />
      <path
         inkscape:connector-curvature="0"
         id="path1100"
         style="font-style:normal;font-variant:normal;font-weight:normal;font-stretch:normal;font-size:122.66666412px;line-height:0.25;font-family:Respective;-inkscape-font-specification:Respective;fill:#ab931b;fill-opacity:1;stroke:none;stroke-width:4;stroke-linejoin:round;stroke-miterlimit:4;stroke-dasharray:none;stroke-opacity:1;paint-order:stroke fill markers"
         d="m 248.07097,398.10334 q -2.944,7.45813 -5.05387,13.64053 -0.8832,2.6496 -1.71733,5.25014 -0.83413,2.60053 -1.37387,4.80853 -0.53973,2.15893 -0.736,3.72907 -0.19626,1.57013 0.1472,2.10986 0.34347,0.5888 1.0304,0.24534 0.736,-0.39254 1.66827,-1.3248 0.98133,-0.98134 2.0608,-2.40427 1.07947,-1.472 2.15893,-3.04213 2.5024,-3.72907 5.49547,-8.832 l 0.63787,0.83413 q -3.04214,5.20107 -5.98614,9.32267 -1.27573,1.7664 -2.6496,3.48373 -1.3248,1.71733 -2.6496,3.0912 -1.3248,1.37387 -2.55146,2.30613 -1.22667,0.93227 -2.25707,1.07947 -1.27573,0.19627 -2.15893,-0.19627 -0.8832,-0.39253 -1.3248,-1.57013 -0.39253,-1.1776 -0.34347,-3.18933 0.0981,-2.0608 0.78507,-5.152 -1.27573,2.208 -2.69867,4.07253 -1.37386,1.86453 -2.84586,3.2384 -1.42294,1.3248 -2.89494,2.0608 -1.42293,0.736 -2.69866,0.736 -1.7664,0 -2.84587,-1.3248 -1.07947,-1.37387 -1.42293,-3.68 -0.34347,-2.3552 0.0981,-5.49547 0.39253,-3.14026 1.6192,-6.67306 1.22667,-3.5328 2.944,-6.67307 1.71733,-3.14027 3.68,-5.4464 1.96267,-2.30613 3.92533,-3.63093 2.01174,-1.37387 3.77814,-1.37387 2.25706,0 3.38559,2.208 1.12854,2.15893 0.98134,5.83893 0.68693,-1.86453 1.42293,-3.8272 0.78507,-2.01173 1.66827,-4.21973 z m -22.86506,31.69707 q 0.736,0 1.81546,-0.736 1.07947,-0.78507 2.25707,-2.15894 1.1776,-1.37386 2.3552,-3.2384 1.22667,-1.9136 2.30613,-4.1216 0.53974,-2.208 1.3248,-4.80853 0.83413,-2.6496 1.96267,-5.7408 0.49066,-3.68 -0.0981,-5.98613 -0.53973,-2.3552 -1.91359,-2.3552 -0.93227,0 -2.0608,1.1776 -1.07947,1.12853 -2.25707,3.0912 -1.1776,1.96266 -2.3552,4.66133 -1.12853,2.6496 -2.15893,5.64267 -1.0304,3.04213 -1.71734,5.69173 -0.68693,2.6496 -0.8832,4.61227 -0.19626,1.96266 0.0981,3.14026 0.34346,1.12854 1.3248,1.12854 z" />
      <path
         inkscape:connector-curvature="0"
         id="path1102"
         style="font-style:normal;font-variant:normal;font-weight:normal;font-stretch:normal;font-size:122.66666412px;line-height:0.25;font-family:Respective;-inkscape-font-specification:Respective;fill:#ab931b;fill-opacity:1;stroke:none;stroke-width:4;stroke-linejoin:round;stroke-miterlimit:4;stroke-dasharray:none;stroke-opacity:1;paint-order:stroke fill markers"
         d="m 269.16389,397.95614 q 1.86453,0 2.6496,1.0304 0.83413,0.98133 0.8832,2.55147 0.0981,1.52106 -0.4416,3.3856 -0.53974,1.81546 -1.42294,3.5328 -0.8832,1.66826 -1.96266,2.99306 -1.0304,1.27574 -2.01174,1.71734 -0.4416,0.24533 -1.03039,0.24533 -0.93227,0 -1.6192,-0.63787 -0.63787,-0.68693 -0.63787,-1.6192 0,-0.93226 0.63787,-1.57013 0.68693,-0.68693 1.6192,-0.68693 1.27573,0 1.91359,1.12853 0.736,-0.4416 1.52107,-1.42293 0.83413,-1.0304 1.42293,-2.25707 0.63787,-1.22667 0.98134,-2.5024 0.39253,-1.3248 0.19626,-2.3552 -0.1472,-1.07947 -0.93226,-1.7664 -0.78507,-0.68693 -2.45334,-0.68693 -1.3248,0 -2.84586,1.07946 -1.472,1.07947 -2.99307,2.89494 -1.52106,1.81546 -2.944,4.21973 -1.42293,2.3552 -2.55146,4.95573 -1.12854,2.60054 -1.96267,5.25014 -0.78507,2.60053 -1.0304,4.90666 -0.24533,2.30614 0.0981,4.17067 0.39254,1.81547 1.57014,2.84587 1.1776,1.0304 2.74773,0.78506 1.57013,-0.2944 3.33653,-1.42293 1.7664,-1.12853 3.63094,-2.89493 1.86453,-1.7664 3.63093,-3.77814 4.1216,-4.7104 8.63573,-11.3344 l 0.68693,0.63787 q -3.77813,5.93707 -7.70346,10.54933 -1.66827,1.96267 -3.5328,3.87627 -1.86453,1.86453 -3.8272,3.33653 -1.96267,1.472 -3.92533,2.40427 -1.96267,0.8832 -3.77814,0.8832 -2.84586,0 -4.46506,-1.472 -1.66827,-1.472 -2.208,-3.87627 -0.5888,-2.45333 -0.19627,-5.54453 0.39253,-3.0912 1.57013,-6.3296 1.1776,-3.2384 3.0912,-6.3296 1.9136,-3.0912 4.31787,-5.49547 2.45333,-2.45333 5.2992,-3.92533 2.89493,-1.472 6.0352,-1.472 z" />
      <path
         inkscape:connector-curvature="0"
         id="path1104"
         style="font-style:normal;font-variant:normal;font-weight:normal;font-stretch:normal;font-size:122.66666412px;line-height:0.25;font-family:Respective;-inkscape-font-specification:Respective;fill:#ab931b;fill-opacity:1;stroke:none;stroke-width:4;stroke-linejoin:round;stroke-miterlimit:4;stroke-dasharray:none;stroke-opacity:1;paint-order:stroke fill markers"
         d="m 304.13347,398.10334 q -2.944,7.45813 -5.05387,13.64053 -0.8832,2.6496 -1.71733,5.25014 -0.83413,2.60053 -1.37387,4.80853 -0.53973,2.15893 -0.736,3.72907 -0.19626,1.57013 0.1472,2.10986 0.34347,0.5888 1.0304,0.24534 0.736,-0.39254 1.66827,-1.3248 0.98133,-0.98134 2.0608,-2.40427 1.07947,-1.472 2.15893,-3.04213 2.5024,-3.72907 5.49547,-8.832 l 0.63787,0.83413 q -3.04214,5.20107 -5.98614,9.32267 -1.27573,1.7664 -2.6496,3.48373 -1.3248,1.71733 -2.6496,3.0912 -1.3248,1.37387 -2.55146,2.30613 -1.22667,0.93227 -2.25707,1.07947 -1.27573,0.19627 -2.15893,-0.19627 -0.8832,-0.39253 -1.3248,-1.57013 -0.39253,-1.1776 -0.34347,-3.18933 0.0981,-2.0608 0.78507,-5.152 -1.27573,2.208 -2.69867,4.07253 -1.37386,1.86453 -2.84586,3.2384 -1.42294,1.3248 -2.89494,2.0608 -1.42293,0.736 -2.69866,0.736 -1.7664,0 -2.84587,-1.3248 -1.07947,-1.37387 -1.42293,-3.68 -0.34347,-2.3552 0.0981,-5.49547 0.39253,-3.14026 1.6192,-6.67306 1.22667,-3.5328 2.944,-6.67307 1.71733,-3.14027 3.68,-5.4464 1.96267,-2.30613 3.92533,-3.63093 2.01174,-1.37387 3.77814,-1.37387 2.25706,0 3.38559,2.208 1.12854,2.15893 0.98134,5.83893 0.68693,-1.86453 1.42293,-3.8272 0.78507,-2.01173 1.66827,-4.21973 z m -22.86506,31.69707 q 0.736,0 1.81546,-0.736 1.07947,-0.78507 2.25707,-2.15894 1.1776,-1.37386 2.3552,-3.2384 1.22667,-1.9136 2.30613,-4.1216 0.53974,-2.208 1.3248,-4.80853 0.83413,-2.6496 1.96267,-5.7408 0.49066,-3.68 -0.0981,-5.98613 -0.53973,-2.3552 -1.91359,-2.3552 -0.93227,0 -2.0608,1.1776 -1.07947,1.12853 -2.25707,3.0912 -1.1776,1.96266 -2.3552,4.66133 -1.12853,2.6496 -2.15893,5.64267 -1.0304,3.04213 -1.71734,5.69173 -0.68693,2.6496 -0.8832,4.61227 -0.19626,1.96266 0.0981,3.14026 0.34346,1.12854 1.3248,1.12854 z" />
      <path
         inkscape:connector-curvature="0"
         id="path1106"
         style="font-style:normal;font-variant:normal;font-weight:normal;font-stretch:normal;font-size:122.66666412px;line-height:0.25;font-family:Respective;-inkscape-font-specification:Respective;fill:#ab931b;fill-opacity:1;stroke:none;stroke-width:4;stroke-linejoin:round;stroke-miterlimit:4;stroke-dasharray:none;stroke-opacity:1;paint-order:stroke fill markers"
         d="m 314.57892,404.62921 q -0.736,1.0304 -1.6192,2.25706 -0.83413,1.1776 -1.7664,2.45334 -0.8832,1.22666 -1.7664,2.45333 -0.83413,1.22667 -1.57013,2.30613 h -1.1776 q 2.01173,-3.04213 3.63093,-5.4464 1.6192,-2.40426 3.04214,-4.02346 h -0.78507 q -1.52107,0 -2.60053,-0.5888 -1.07947,-0.5888 -1.6192,-1.472 -0.53974,-0.93227 -0.49067,-1.96267 0,-1.07947 0.63787,-1.96267 0.63786,-0.93226 1.9136,-1.57013 1.3248,-0.63787 3.33653,-0.736 1.52107,-0.0491 2.40427,0.53973 0.8832,0.53974 1.07946,1.472 0.24534,0.93227 -0.1472,2.15894 -0.39253,1.22666 -1.37386,2.45333 l 6.57493,0.0491 h 0.0491 q 2.45333,0 3.87626,0.736 1.472,0.736 1.86453,2.40426 0.4416,1.6192 -0.19626,4.2688 -0.5888,2.6496 -2.25707,6.4768 -0.34347,0.83414 -0.78507,1.96267 -0.4416,1.12853 -0.83413,2.3552 -0.39253,1.1776 -0.68693,2.3552 -0.24534,1.1776 -0.2944,2.10987 0,0.93226 0.24533,1.57013 0.2944,0.5888 1.0304,0.63787 0.5888,0.0491 1.42293,-0.5888 0.8832,-0.68694 1.86454,-1.7664 0.98133,-1.07947 2.0608,-2.45334 1.07946,-1.42293 2.10986,-2.89493 2.40427,-3.43467 5.10294,-7.89973 l 0.63786,0.83413 q -3.0912,5.4464 -6.28053,9.66613 -1.37387,1.81547 -2.89493,3.58187 -1.52107,1.71733 -3.0912,3.0912 -1.52107,1.3248 -3.0912,2.15893 -1.52107,0.83414 -2.944,0.83414 -1.12853,0 -1.71733,-0.68694 -0.53974,-0.68693 -0.68694,-1.81546 -0.0981,-1.1776 0.0981,-2.60054 0.19626,-1.472 0.5888,-2.99306 0.8832,-3.5328 2.7968,-8.096 1.37386,-3.2384 2.40426,-5.4464 1.0304,-2.25707 1.22667,-3.63094 0.24533,-1.37386 -0.5888,-1.96266 -0.83414,-0.5888 -3.18933,-0.5888 z m -0.0981,-6.96747 q -1.12853,0 -1.96267,0.83413 -0.83413,0.83414 -1.0304,1.81547 -0.19626,0.98133 0.4416,1.81547 0.68694,0.83413 2.55147,0.83413 0.8832,-1.1776 1.1776,-2.15893 0.2944,-0.98134 0.19627,-1.66827 -0.0981,-0.736 -0.49067,-1.07947 -0.39253,-0.39253 -0.8832,-0.39253 z" />
      <path
         inkscape:connector-curvature="0"
         id="path1108"
         style="font-style:normal;font-variant:normal;font-weight:normal;font-stretch:normal;font-size:122.66666412px;line-height:0.25;font-family:Respective;-inkscape-font-specification:Respective;fill:#ab931b;fill-opacity:1;stroke:none;stroke-width:4;stroke-linejoin:round;stroke-miterlimit:4;stroke-dasharray:none;stroke-opacity:1;paint-order:stroke fill markers"
         d="m 343.56852,404.62921 q -0.736,1.0304 -1.6192,2.25706 -0.83414,1.1776 -1.7664,2.45334 -0.8832,1.22666 -1.7664,2.45333 -0.83414,1.22667 -1.57014,2.30613 h -1.1776 q 2.01174,-3.04213 3.63094,-5.4464 1.6192,-2.40426 3.04213,-4.02346 h -0.78507 q -1.52106,0 -2.60053,-0.5888 -1.07947,-0.5888 -1.6192,-1.472 -0.53973,-0.93227 -0.49067,-1.96267 0,-1.07947 0.63787,-1.96267 0.63787,-0.93226 1.9136,-1.57013 1.3248,-0.63787 3.33653,-0.736 1.52107,-0.0491 2.40427,0.53973 0.8832,0.53974 1.07947,1.472 0.24533,0.93227 -0.1472,2.15894 -0.39254,1.22666 -1.37387,2.45333 l 6.57493,0.0491 h 0.0491 q 2.45333,0 3.87627,0.736 1.472,0.736 1.86453,2.40426 0.4416,1.6192 -0.19627,4.2688 -0.5888,2.6496 -2.25706,6.4768 -0.34347,0.83414 -0.78507,1.96267 -0.4416,1.12853 -0.83413,2.3552 -0.39254,1.1776 -0.68694,2.3552 -0.24533,1.1776 -0.2944,2.10987 0,0.93226 0.24534,1.57013 0.2944,0.5888 1.0304,0.63787 0.5888,0.0491 1.42293,-0.5888 0.8832,-0.68694 1.86453,-1.7664 0.98134,-1.07947 2.0608,-2.45334 1.07947,-1.42293 2.10987,-2.89493 2.40426,-3.43467 5.10293,-7.89973 l 0.63787,0.83413 q -3.0912,5.4464 -6.28054,9.66613 -1.37386,1.81547 -2.89493,3.58187 -1.52106,1.71733 -3.0912,3.0912 -1.52106,1.3248 -3.0912,2.15893 -1.52106,0.83414 -2.944,0.83414 -1.12853,0 -1.71733,-0.68694 -0.53973,-0.68693 -0.68693,-1.81546 -0.0981,-1.1776 0.0981,-2.60054 0.19627,-1.472 0.5888,-2.99306 0.8832,-3.5328 2.7968,-8.096 1.37387,-3.2384 2.40427,-5.4464 1.0304,-2.25707 1.22666,-3.63094 0.24534,-1.37386 -0.5888,-1.96266 -0.83413,-0.5888 -3.18933,-0.5888 z m -0.0981,-6.96747 q -1.12853,0 -1.96266,0.83413 -0.83414,0.83414 -1.0304,1.81547 -0.19627,0.98133 0.4416,1.81547 0.68693,0.83413 2.55146,0.83413 0.8832,-1.1776 1.1776,-2.15893 0.2944,-0.98134 0.19627,-1.66827 -0.0981,-0.736 -0.49067,-1.07947 -0.39253,-0.39253 -0.8832,-0.39253 z" />
      <path
         inkscape:connector-curvature="0"
         id="path1110"
         style="font-style:normal;font-variant:normal;font-weight:normal;font-stretch:normal;font-size:122.66666412px;line-height:0.25;font-family:Respective;-inkscape-font-specification:Respective;fill:#ab931b;fill-opacity:1;stroke:none;stroke-width:4;stroke-linejoin:round;stroke-miterlimit:4;stroke-dasharray:none;stroke-opacity:1;paint-order:stroke fill markers"
         d="m 393.01888,398.10334 q -2.944,7.45813 -5.05387,13.64053 -0.8832,2.6496 -1.71733,5.25014 -0.83414,2.60053 -1.37387,4.80853 -0.53973,2.15893 -0.736,3.72907 -0.19627,1.57013 0.1472,2.10986 0.34347,0.5888 1.0304,0.24534 0.736,-0.39254 1.66827,-1.3248 0.98133,-0.98134 2.0608,-2.40427 1.07946,-1.472 2.15893,-3.04213 2.5024,-3.72907 5.49547,-8.832 l 0.63786,0.83413 q -3.04213,5.20107 -5.98613,9.32267 -1.27573,1.7664 -2.6496,3.48373 -1.3248,1.71733 -2.6496,3.0912 -1.3248,1.37387 -2.55147,2.30613 -1.22666,0.93227 -2.25706,1.07947 -1.27574,0.19627 -2.15894,-0.19627 -0.8832,-0.39253 -1.3248,-1.57013 -0.39253,-1.1776 -0.34346,-3.18933 0.0981,-2.0608 0.78506,-5.152 -1.27573,2.208 -2.69866,4.07253 -1.37387,1.86453 -2.84587,3.2384 -1.42293,1.3248 -2.89493,2.0608 -1.42293,0.736 -2.69867,0.736 -1.7664,0 -2.84586,-1.3248 -1.07947,-1.37387 -1.42294,-3.68 -0.34346,-2.3552 0.0981,-5.49547 0.39253,-3.14026 1.6192,-6.67306 1.22666,-3.5328 2.944,-6.67307 1.71733,-3.14027 3.68,-5.4464 1.96266,-2.30613 3.92533,-3.63093 2.01173,-1.37387 3.77813,-1.37387 2.25707,0 3.3856,2.208 1.12853,2.15893 0.98133,5.83893 0.68694,-1.86453 1.42294,-3.8272 0.78506,-2.01173 1.66826,-4.21973 z m -22.86507,31.69707 q 0.736,0 1.81547,-0.736 1.07946,-0.78507 2.25706,-2.15894 1.1776,-1.37386 2.3552,-3.2384 1.22667,-1.9136 2.30614,-4.1216 0.53973,-2.208 1.3248,-4.80853 0.83413,-2.6496 1.96266,-5.7408 0.49067,-3.68 -0.0981,-5.98613 -0.53973,-2.3552 -1.9136,-2.3552 -0.93227,0 -2.0608,1.1776 -1.07947,1.12853 -2.25707,3.0912 -1.1776,1.96266 -2.3552,4.66133 -1.12853,2.6496 -2.15893,5.64267 -1.0304,3.04213 -1.71733,5.69173 -0.68693,2.6496 -0.8832,4.61227 -0.19627,1.96266 0.0981,3.14026 0.34347,1.12854 1.3248,1.12854 z" />
      <path
         inkscape:connector-curvature="0"
         id="path1112"
         style="font-style:normal;font-variant:normal;font-weight:normal;font-stretch:normal;font-size:122.66666412px;line-height:0.25;font-family:Respective;-inkscape-font-specification:Respective;fill:#ab931b;fill-opacity:1;stroke:none;stroke-width:4;stroke-linejoin:round;stroke-miterlimit:4;stroke-dasharray:none;stroke-opacity:1;paint-order:stroke fill markers"
         d="m 443.89526,391.62654 h -32.43307 q -1.22666,1.9136 -2.40426,3.77813 -1.1776,1.86454 -2.3552,3.68 -1.52107,4.75947 -2.60054,8.2432 -1.0304,3.48374 -1.57013,5.20107 -1.22666,4.1216 -1.7664,6.9184 -0.53973,2.74773 -0.4416,4.51413 0.0981,1.7664 0.736,2.74774 0.68694,0.93226 1.9136,1.37386 0.8832,0.2944 2.01173,-0.19626 1.12854,-0.49067 2.3552,-1.52107 1.27574,-1.07947 2.60054,-2.5024 1.3248,-1.42293 2.60053,-2.99307 2.944,-3.63093 6.08427,-8.48853 l 0.49066,0.78507 q -3.72906,5.7408 -6.7712,9.46986 -3.04213,3.68 -5.64266,5.83894 -2.55147,2.15893 -4.75947,2.99306 -2.208,0.83414 -4.21973,0.83414 -2.01173,0 -2.944,-1.66827 -0.93227,-1.66827 -1.07947,-4.07253 -0.19626,-2.40427 0.19627,-5.10294 0.39253,-2.74773 1.07947,-4.80853 0.19626,-0.68693 0.98133,-2.84587 0.736,-2.208 1.9136,-5.49546 1.1776,-3.33654 2.69867,-7.60534 1.57013,-4.2688 3.38559,-9.07733 h -22.86506 v -1.1776 h 23.30666 q 2.45334,-6.42773 5.20107,-13.34613 2.7968,-6.96747 5.69173,-13.59147 2.89494,-6.624 5.7408,-12.46293 2.89494,-5.888 5.49547,-10.10773 2.6496,-4.2688 4.8576,-6.42774 2.25707,-2.15893 3.87627,-1.42293 2.208,1.0304 2.40426,3.9744 0.24534,2.944 -1.0304,7.26187 -1.27573,4.31786 -3.77813,9.76426 -2.5024,5.39733 -5.83893,11.43253 -3.28747,6.0352 -7.11467,12.41387 -3.8272,6.3296 -7.70347,12.512 h 31.69707 z m -8.93013,-56.672 q -1.22667,-0.736 -3.04214,1.42294 -1.7664,2.10986 -3.92533,6.28053 -2.10987,4.1216 -4.51413,9.81333 -2.40427,5.69173 -4.8576,12.11947 -2.40427,6.42773 -4.75947,13.1008 -2.30613,6.67306 -4.31787,12.75733 h 1.52107 q 3.72907,-5.98613 7.40907,-12.16853 3.68,-6.1824 6.86933,-12.02134 3.2384,-5.83893 5.7408,-11.04 2.5024,-5.25013 3.87627,-9.42079 1.42293,-4.17067 1.52106,-6.96747 0.0981,-2.84587 -1.52106,-3.87627 z m -25.80907,56.672 q -0.34347,1.0304 -0.68693,2.01173 -0.2944,0.93227 -0.5888,1.9136 0.5888,-0.98133 1.1776,-1.96266 0.63786,-0.98134 1.27573,-1.96267 z" />
    </g>
  </g>
  <g
     id="g1120"
     transform="matrix(0.52583905,0,0,0.52583905,221.59993,71.627781)">
    <path
       id="Shape 1"
       inkscape:label="Shape 1"
       style="fill:#ffffff;fill-opacity:1;fill-rule:nonzero;stroke:#000000;stroke-width:4.23693562;stroke-miterlimit:4;stroke-dasharray:none;stroke-opacity:1"
       d="m 48.874974,137 c 0,0 336.125016,0 336.125016,0 11.04569,0 19.99998,8.95428 19.99998,19.99997 0,0 0,85.00001 0,85.00001 0,11.0457 -8.95429,20.00002 -19.99998,20.00002 0,0 -336.125016,0 -336.125016,0 -11.045694,0 -19.999981,-8.95432 -19.999981,-20.00002 0,0 0,-85.00001 0,-85.00001 C 28.874993,145.95428 37.82928,137 48.874974,137 Z"
       inkscape:connector-curvature="0" />
    <path
       id="Spades"
       inkscape:label="Spades"
       style="fill:#000000;fill-rule:nonzero;stroke:none"
       d="m 361.99999,173.33332 c 4.04739,4.62561 13.00001,13.66666 18.33331,18.66665 5.33334,5.00003 8.00002,14.33334 4.33335,21.00003 -3.66667,6.66666 -10.66667,9.66665 -18,7.99999 -7.33334,-1.66667 -12,-9.66669 -12,-9.66669 0,0 -2,13.66669 7.66668,23.66668 4.27183,4.41918 14.33334,5.66668 17.66667,5.66668 3.33332,0 2.66665,3.33333 2.66665,3.33333 0,0 -60.33334,0 -60.33334,0 0,0 -0.66665,-3.33333 2.66668,-3.33333 3.33333,0 13.3948,-1.2475 17.66667,-5.66668 9.66665,-9.99999 7.66667,-23.66668 7.66667,-23.66668 0,0 -4.66668,8.00002 -12.00002,9.66669 -7.33334,1.66666 -14.33334,-1.33333 -17.99998,-7.99999 -3.66667,-6.66669 -1.00001,-16 4.33332,-21.00003 5.33333,-4.99999 14.28592,-14.04104 18.33335,-18.66665 6.99999,-7.99999 9.33331,-18.00001 9.33331,-18.00001 0,0 2.66668,10.00002 9.66668,18.00001 z"
       inkscape:connector-curvature="0" />
    <path
       id="Diamonds"
       inkscape:label="Diamonds"
       style="fill:#cc1616;fill-rule:nonzero;stroke:none"
       d="m 286.33332,218.99998 c 7.66668,-9.66665 16,-19.49998 16,-19.49998 0,0 -8.33332,-9.83334 -16,-19.50002 -7.66667,-9.66665 -15.66666,-24.66667 -15.66666,-24.66667 0,0 -8.33336,15.00002 -16,24.66667 -7.66668,9.66668 -16.00001,19.50002 -16.00001,19.50002 0,0 8.33333,9.83333 16.00001,19.49998 7.66664,9.66668 16,24.66667 16,24.66667 0,0 7.99999,-14.99999 15.66666,-24.66667 z"
       inkscape:connector-curvature="0" />
    <path
       id="Clubs"
       inkscape:label="Clubs"
       style="fill:#000000;fill-rule:nonzero;stroke:none"
       d="m 150.66665,243.99999 c 0,0 -1.66666,-4.00001 3.33333,-4.66666 5,-0.66668 10.7573,-1.14953 15.33333,-5.33333 11.66668,-10.66667 10.00002,-25.66669 10.00002,-25.66669 0,0 -7.33334,15.00002 -23.66668,15.00002 -16.33334,0 -19.66667,-17.00002 -18.00001,-23.83333 1.66667,-6.83335 7.66668,-15.16668 17.00002,-15.16668 9.33331,0 11.66666,4.00001 11.66666,4.00001 0,0 -7,-8.00001 -5.33334,-16 1.66667,-8.00002 9.00001,-17.00002 20.00001,-17.00002 10.99998,0 18.33332,9 19.99998,17.00002 1.66667,7.99999 -5.33333,16 -5.33333,16 0,0 2.33334,-4.00001 11.66669,-4.00001 9.33331,0 15.33332,8.33333 16.99999,15.16668 1.66666,6.83331 -1.66667,23.83333 -18.00001,23.83333 -16.33331,0 -23.66665,-15.00002 -23.66665,-15.00002 0,0 -1.66667,15.00002 9.99999,25.66669 4.57606,4.1838 10.33333,4.66665 15.33332,5.33333 5.00003,0.66665 3.33333,4.66666 3.33333,4.66666 0,0 -60.66665,0 -60.66665,0 z"
       inkscape:connector-curvature="0" />
    <path
       id="Hearts"
       inkscape:label="Hearts"
       style="fill:#cb1515;fill-rule:nonzero;stroke:none"
       d="m 100.33333,214.33333 c 6.75765,-9.26766 14.99999,-17.00002 20.66666,-28.33334 5.66667,-11.33335 2.33331,-30.66668 -15.33335,-30.66668 -17.66664,0 -19.999984,18.33335 -19.999984,18.33335 0,0 -2.666682,-18.33335 -20.333349,-18.33335 -17.666668,0 -20.999998,19.33333 -15.333325,30.66668 5.666673,11.33332 13.909012,19.06568 20.666659,28.33334 11.666685,16 15.000015,29.66666 15.000015,29.66666 0,0 2.999992,-13.66666 14.666674,-29.66666 z"
       inkscape:connector-curvature="0" />
  </g>
</svg>
