<?xml version="1.0" encoding="UTF-8" standalone="no"?>
<svg
   xmlns:dc="http://purl.org/dc/elements/1.1/"
   xmlns:cc="http://creativecommons.org/ns#"
   xmlns:rdf="http://www.w3.org/1999/02/22-rdf-syntax-ns#"
   xmlns:svg="http://www.w3.org/2000/svg"
   xmlns="http://www.w3.org/2000/svg"
   xmlns:sodipodi="http://sodipodi.sourceforge.net/DTD/sodipodi-0.dtd"
   xmlns:inkscape="http://www.inkscape.org/namespaces/inkscape"
   width="1500"
   height="1500"
   version="1.1"
   id="svg4497"
   sodipodi:docname="cars.svg"
   inkscape:version="0.92.1 r15371">
  <metadata
     id="metadata4503">
    <rdf:RDF>
      <cc:Work
         rdf:about="">
        <dc:format>image/svg+xml</dc:format>
        <dc:type
           rdf:resource="http://purl.org/dc/dcmitype/StillImage" />
        <dc:title></dc:title>
      </cc:Work>
    </rdf:RDF>
  </metadata>
  <defs
     id="defs4501" />
  <sodipodi:namedview
     pagecolor="#ffffff"
     bordercolor="#666666"
     borderopacity="1"
     objecttolerance="10"
     gridtolerance="10"
     guidetolerance="10"
     inkscape:pageopacity="0"
     inkscape:pageshadow="2"
     inkscape:window-width="1119"
     inkscape:window-height="730"
     id="namedview4499"
     showgrid="false"
     inkscape:zoom="0.27294322"
     inkscape:cx="879.3076"
     inkscape:cy="716.8077"
     inkscape:window-x="169"
     inkscape:window-y="0"
     inkscape:window-maximized="0"
     inkscape:current-layer="svg4497" />
  <path
     d="M 481.999934,946.666628 C 481.999934,946.666628 417.249888,946.666628 407.249898,946.666628 C 397.249907,946.666628 373.749912,944.999993 368.999898,942.749977 C 364.249885,940.499961 359.249979,938.999981 359.249979,936.249912 C 359.249979,933.499932 361.499906,932.499915 363.999903,930.999935 C 366.499901,929.499954 369.999915,927.999973 369.999915,927.999973 C 369.999915,927.999973 366.499901,927.999973 366.499901,926.499903 C 366.499901,924.999923 367.249936,924.249977 368.749917,923.999906 C 370.249897,923.749924 372.999877,923.999906 372.999877,923.999906 C 372.999877,923.999906 372.749984,922.499925 371.749878,921.749890 C 370.749950,920.999944 368.749917,919.499964 368.749917,917.499930 C 368.749917,915.499985 371.249914,914.249897 371.249914,914.249897 C 371.249914,914.249897 368.499935,909.749955 366.499901,905.749977 C 364.499956,901.749909 362.749994,896.749914 362.749994,896.749914 C 362.749994,896.749914 360.499889,895.499915 359.249979,894.999951 C 357.999980,894.499898 353.999913,893.749952 359.749943,888.499886 C 365.499884,883.249909 376.499891,875.499934 393.749893,865.499943 C 410.999984,855.499953 439.249903,842.249930 461.499900,834.499955 C 483.749896,826.749891 502.249897,820.249915 508.249909,819.999933 C 514.249921,819.749951 516.499937,819.749951 518.499881,820.999950 C 520.499915,822.249949 522.999913,821.999967 524.499893,820.749968 C 525.999963,819.499969 527.749926,819.249898 529.499978,820.499986 C 531.249940,821.749896 533.999920,819.749951 535.499901,818.999916 C 536.999971,818.249971 537.249953,818.249971 537.249953,818.249971 C 537.249953,818.249971 537.249953,799.499899 537.249953,797.749937 C 537.249953,795.999974 537.999898,794.999957 538.999915,793.999940 C 539.999932,792.999923 542.249948,791.499943 546.749890,790.249944 C 551.249921,788.999945 556.249917,787.999928 558.249950,790.249944 C 560.249895,792.499959 562.999964,794.499904 562.749892,797.999918 C 562.499911,801.499933 561.499894,808.749944 560.249895,809.249908 C 558.999985,809.749961 557.749987,809.999943 555.249900,808.999926 C 552.749902,807.999998 549.249887,806.249946 549.249887,806.249946 C 549.249887,806.249946 549.249887,818.499953 549.249887,818.499953 C 549.249887,818.499953 569.499940,808.499962 583.999872,801.999986 C 598.499894,795.499921 634.249896,780.499935 656.999946,772.999942 C 679.749995,765.499949 704.999954,755.749941 736.499906,754.749924 C 767.999947,753.749907 803.999931,759.249955 810.499907,760.749936 C 816.999972,762.249917 846.499979,766.749948 870.249867,769.999892 C 893.999934,773.249924 926.749885,779.499918 949.749917,784.499913 C 972.749859,789.499909 993.249893,794.749975 993.249893,794.749975 C 993.249893,794.749975 1009.749949,793.999940 1028.249949,794.749975 C 1046.749949,795.499921 1063.249916,795.749903 1063.249916,795.749903 C 1063.249916,795.749903 1073.499888,777.749956 1081.249952,769.499928 C 1088.999927,761.249900 1091.999888,755.749941 1109.499872,755.499959 C 1126.999944,755.249888 1140.499949,757.499903 1147.999942,760.499954 C 1155.499935,763.499916 1161.999911,769.249946 1157.499969,770.999908 C 1152.999938,772.749960 1134.684116,776.778370 1127.999961,780.999899 C 1118.499935,786.999911 1114.999920,800.999880 1114.999920,800.999880 C 1114.999920,800.999880 1124.499947,800.999880 1127.499998,800.999880 C 1130.499959,800.999880 1131.999940,802.249968 1133.249938,803.749949 C 1134.499937,805.249929 1135.499954,805.749983 1136.749953,805.749983 C 1137.999952,805.749983 1138.999879,806.749910 1138.999879,808.749944 C 1138.999879,810.749978 1138.999879,813.499957 1139.999896,814.999938 C 1140.999913,816.499919 1141.999930,818.499953 1144.499928,819.249898 C 1146.999925,819.999933 1148.499906,819.499969 1149.499923,822.499931 C 1150.499940,825.499982 1155.999899,840.249985 1157.749861,865.249962 C 1159.499913,890.249938 1160.999984,911.499918 1154.249936,918.999910 C 1147.499979,926.499903 1140.499949,930.499971 1129.749924,932.249933 C 1118.999898,933.999985 1101.249933,933.499932 1101.249933,933.499932 C 1101.249933,933.499932 1114.249885,919.249982 1111.249924,892.249882 C 1108.249873,865.249962 1091.499925,840.249985 1061.749935,831.249923 C 1031.999946,822.249949 1003.499955,834.499955 987.999916,852.749974 C 972.499967,870.999902 971.024394,895.762771 971.749932,906.499922 C 972.999930,924.999923 982.749850,939.249963 982.749850,939.249963 C 982.749850,939.249963 979.749888,939.999908 970.999897,939.749926 C 962.249905,939.499944 950.749934,938.999981 941.749960,938.999981 C 932.749897,938.999981 722.749919,943.749905 700.749904,943.749905 C 678.749889,943.749905 647.249937,944.249958 644.499958,944.749922 C 641.749889,945.249885 630.749971,946.999937 623.249888,947.999954 C 615.749896,948.999882 607.499868,949.499935 604.499906,949.499935 C 601.499945,949.499935 598.999947,947.999954 598.999947,947.999954 C 598.999947,947.999954 607.999921,931.749970 608.249903,908.249974 C 608.499974,884.749979 596.499950,867.249906 583.749980,857.249916 C 570.999920,847.249925 548.999906,836.249918 522.249967,845.499963 C 495.499939,854.749918 486.249894,870.999902 481.499881,884.999961 C 476.749867,898.999929 476.249903,916.999966 477.499902,926.749974 C 478.749901,936.499894 480.999917,940.249890 480.999917,940.249890 C 480.999917,940.249890 478.749901,940.249890 478.749901,940.249890 C 478.749901,940.249890 481.999934,946.666628 481.999934,946.666628 Z"
     fill-rule="nonzero"
     style="stroke: none; fill: rgb(0, 90, 95)"
     inkscape:label="Huayra"
     id="Huayra"
     display="none" />
  <path
     d="M 1069.499999,1115.249991 C 1071.249962,1115.249991 1090.249926,1111.999959 1099.749953,1110.249996 C 1109.249979,1108.499944 1131.499976,1102.999985 1134.249955,1101.499915 C 1136.999935,1099.999934 1135.249972,1097.749919 1134.999990,1094.999939 C 1134.749919,1092.249960 1133.499920,1090.749979 1133.749992,1088.749945 C 1133.999974,1086.749911 1133.999974,1069.499999 1131.499976,1056.249976 C 1128.999978,1042.999953 1122.749984,1026.999950 1121.999949,1024.749935 C 1121.249914,1022.499919 1119.749933,1021.749973 1119.749933,1021.749973 C 1119.749933,1021.749973 1120.749950,1020.249993 1121.249914,1018.749923 C 1121.749967,1017.249942 1117.999971,1005.499989 1115.499973,996.999979 C 1112.999976,988.499969 1108.999997,979.749978 1107.499927,977.499962 C 1105.999947,975.249946 1100.499988,973.999947 1093.999922,972.499967 C 1087.499946,970.999986 1080.999970,968.499988 1080.999970,968.499988 C 1080.999970,968.499988 1082.999915,966.499954 1084.999949,964.749992 C 1086.999983,962.999940 1090.999961,959.999979 1090.999961,959.999979 C 1090.999961,959.999979 1096.999973,961.999923 1099.249989,958.749980 C 1100.658685,956.715167 1102.999985,953.249931 1107.249945,946.749955 C 1111.499995,940.249979 1099.749953,941.749960 1090.749979,941.749960 C 1081.749916,941.749960 1067.999929,942.249924 1064.999968,942.499995 C 1061.999917,942.749977 1059.249938,942.749977 1060.249954,946.749955 C 1061.249971,950.749934 1065.499932,952.999949 1065.499932,952.999949 C 1065.499932,952.999949 1063.749969,954.249948 1061.749935,956.499964 C 1059.749991,958.749980 1054.499924,962.999940 1054.499924,962.999940 C 1054.499924,962.999940 1048.999965,961.249977 1038.749993,959.499925 C 1028.499931,957.749963 1003.749937,953.249931 973.499984,952.999949 C 943.249941,952.749968 885.999978,961.249977 885.999978,961.249977 C 885.999978,961.249977 875.499934,957.999945 862.999946,955.249965 C 850.499958,952.499986 826.499999,947.499990 819.749951,946.999937 C 812.999994,946.499974 797.999918,948.499918 797.999918,948.499918 C 797.999918,948.499918 736.749977,927.249938 696.749926,919.000000 C 670.382559,913.561732 644.499958,913.249969 623.499960,914.499968 C 602.499962,915.749967 587.249994,919.749945 568.999976,926.499993 C 550.749958,933.249950 492.499977,957.749963 475.749940,964.749992 C 458.999991,971.749932 444.749951,978.249997 442.999989,978.749961 C 441.249937,979.249924 437.499940,978.249997 437.499940,978.249997 C 437.499940,978.249997 437.499940,973.999947 438.249975,970.999986 C 438.999921,967.999935 441.249937,962.749958 441.249937,962.749958 C 441.249937,962.749958 444.249988,963.749975 447.499931,963.999957 C 449.262500,964.135498 449.999928,962.999940 450.250000,961.249977 C 450.499982,959.499925 450.999945,956.499964 450.999945,952.999949 C 450.999945,949.499935 450.250000,946.499974 449.749947,944.749922 C 449.249983,942.999959 443.249971,943.499923 438.999921,944.749922 C 434.749961,945.999920 426.499933,948.499918 426.499933,952.999949 C 426.499933,957.499981 434.249997,959.499925 434.249997,959.499925 C 434.249997,959.499925 432.249963,964.999974 431.499928,968.249917 C 430.749983,971.499950 428.749949,977.749944 428.749949,977.749944 C 428.749949,977.749944 396.249980,974.999964 370.749950,982.749939 C 350.442141,988.921970 325.249940,1006.499916 325.249940,1006.499916 C 325.249940,1006.499916 317.499965,1007.999986 314.249933,1008.749932 C 310.999990,1009.499967 305.666596,1010.999948 303.666651,1011.666656 C 301.666617,1012.333274 299.333274,1013.999999 297.333330,1017.333269 C 295.333296,1020.666629 294.333279,1025.333315 294.333279,1025.333315 C 294.333279,1025.333315 292.999953,1027.333260 290.333301,1029.999912 C 287.666649,1032.666653 283.333272,1036.333323 283.333272,1036.333323 C 283.333272,1036.333323 280.333310,1036.333323 278.333277,1036.666632 C 276.333332,1036.999941 273.333281,1038.666666 271.999955,1039.999992 C 270.666629,1041.333318 271.333247,1043.333262 271.333247,1043.333262 C 271.333247,1043.333262 265.333325,1048.666656 259.999931,1052.666634 C 254.666626,1056.666613 240.333259,1066.333294 238.666624,1068.333328 C 236.999989,1070.333272 235.999972,1071.999997 236.666590,1074.333251 C 237.333298,1076.666594 239.666641,1083.666623 244.333327,1090.999961 C 248.999923,1098.333299 253.666610,1104.333311 253.666610,1104.333311 C 253.666610,1104.333311 244.333327,1104.666620 241.333276,1105.666637 C 238.333315,1106.666654 235.999972,1108.333290 237.333298,1110.333323 C 238.666624,1112.333268 240.333259,1113.999993 242.999911,1114.666611 C 245.666653,1115.333319 255.999953,1115.333319 261.666656,1115.333319 C 267.333269,1115.333319 273.666590,1116.666645 279.666603,1118.666589 C 285.666615,1120.666623 288.666666,1120.999932 293.999970,1120.999932 C 299.333274,1120.999932 319.999963,1120.999932 323.666632,1120.999932 C 327.333301,1120.999932 331.333280,1120.999932 333.666623,1119.333297 C 335.999966,1117.666662 329.249918,1104.249984 326.749921,1089.749962 C 324.249923,1075.249940 325.249940,1032.499999 360.249996,1009.999931 C 395.249963,987.499952 428.999931,997.499943 452.249944,1012.999982 C 475.499958,1028.499931 485.249966,1056.999922 485.499948,1079.249918 C 485.749930,1101.499915 471.999943,1123.999983 469.749928,1126.749963 C 467.499912,1129.499942 476.999938,1128.249943 484.999985,1128.249943 C 492.999941,1128.249943 564.249963,1126.999944 587.499976,1126.999944 C 610.749990,1126.999944 722.749919,1126.749963 759.999990,1126.999944 C 797.249973,1127.249926 927.249938,1127.749979 928.749919,1127.249926 C 930.249989,1126.749963 923.999995,1117.249936 918.499947,1106.500000 C 912.999988,1095.749974 909.499973,1068.749964 917.499930,1044.749916 C 925.499976,1020.749956 941.999942,1005.749971 962.999940,995.249927 C 983.999938,984.749973 1007.499933,988.499969 1023.749918,992.249966 C 1039.999992,995.999962 1063.999951,1014.999926 1073.999941,1036.749959 C 1083.999932,1058.499992 1079.999954,1095.749974 1076.999992,1101.999968 C 1073.999941,1108.249962 1067.749947,1115.249991 1069.499999,1115.249991 Z"
     fill-rule="nonzero"
     style="stroke: none; fill: rgb(213, 7, 7)"
     inkscape:label="Zonda-1"
     id="Zonda-1"
     display="none" />
  <mask
     id="_1">
    <g
       id="g4491">
      <path
         d="M 0,0 1500,0 1500,1500 0,1500 0,0 Z"
         style="stroke:none; fill:white"
         id="path4487" />
      <path
         d="M 1310.084045,1049.375832 C 1310.084045,1049.375832 1308.500737,1046.023697 1310.612261,1043.538004 C 1312.723786,1041.052312 1315.146625,1038.868815 1315.146625,1038.868815 C 1315.146625,1038.868815 1324.056745,1039.658904 1330.810457,1039.866954 C 1337.564170,1040.074915 1344.006658,1039.980590 1344.006658,1039.980590 C 1344.006658,1039.980590 1344.051540,1043.048412 1341.949046,1046.147615 C 1339.846462,1049.246907 1337.450534,1053.271025 1337.450534,1053.271025 C 1337.450534,1053.271025 1337.148249,1053.582340 1335.921139,1053.600311 C 1334.694028,1053.618282 1334.391743,1053.929508 1334.391743,1053.929508 C 1334.391743,1053.929508 1330.705851,1053.676665 1324.552238,1052.539319 C 1318.398625,1051.402062 1310.084045,1049.375832 1310.084045,1049.375832 Z"
         style="stroke:none; fill:black"
         fill-rule="nonzero"
         id="path4489" />
    </g>
  </mask>
  <path
     d="m 316.72579,1273.804 c -4.29502,0.063 -27.91724,0.4088 -32.51901,0.4761 -4.60169,0.067 -13.82321,-1.0249 -21.80851,-1.5218 -7.98538,-0.4967 -42.39446,-3.3683 -51.92712,-4.7629 -9.53275,-1.3947 -22.46251,-4.2739 -22.46251,-4.2739 0,0 -9.21697,-0.7856 -19.65657,-1.2464 -10.43961,-0.4609 -22.14226,-3.358 -21.87145,-5.8168 0.2709,-2.4587 12.20396,-4.7814 18.3396,-4.8713 6.13565,-0.09 18.72272,0.3396 18.72272,0.3396 0,0 -6.84348,-6.3436 -15.59517,-17.262 -8.7516,-10.9184 -14.09716,-19.7387 -15.65802,-21.557 -1.56087,-1.8182 -1.60128,-4.5793 1.13734,-6.1536 2.73854,-1.5744 37.41083,-22.6409 51.09027,-31.4329 13.67954,-8.792 29.51539,-17.002 29.79979,-18.5403 0.28432,-1.5384 1.80468,-2.4812 6.0862,-3.4645 4.28152,-0.9832 7.03356,-1.6373 7.03356,-1.6373 0,0 1.51598,-1.2495 3.02741,-2.8059 1.51142,-1.5563 3.02741,-2.806 3.02741,-2.806 0,0 -0.0719,-4.9085 -0.1123,-7.6695 -0.0404,-2.761 -1.02371,-7.0425 0.51025,-7.065 1.53395,-0.022 2.45422,-0.036 2.45422,-0.036 0,0 0.56416,-3.3836 2.06664,-5.5535 1.50249,-2.1699 3.34767,-1.8902 5.48619,-2.5352 2.13853,-0.645 3.67239,-0.6674 3.67239,-0.6674 0,0 1.79583,-3.0948 3.62751,-3.7353 1.83168,-0.6405 9.47437,-2.5936 16.81021,-4.542 7.33584,-1.9485 19.25093,-5.4983 19.25093,-5.4983 0,0 15.12355,-14.9501 51.42412,-29.5967 36.30048,-14.6465 71.30071,-13.3178 71.30071,-13.3178 0,0 3.5601,-8.3371 7.45395,-14.8379 3.89385,-6.5009 9.61492,-13.949 9.61492,-13.949 0,0 -3.69037,-0.5596 -3.74428,-4.241 -0.0539,-3.6814 18.24081,-11.6205 24.67874,-12.0216 6.43793,-0.4011 9.79462,-1.6776 10.7688,1.9903 0.97427,3.6679 2.26879,8.2517 2.34067,13.1602 0.0719,4.9085 -2.0307,8.0078 -2.61283,10.1643 -0.58213,2.1564 -1.49104,2.3577 -4.87706,2.2193 -5.5266,-0.2259 -14.78853,-4.0793 -14.78853,-4.0793 0,0 -4.80518,7.1279 -7.19655,11.4587 -2.39137,4.3309 -5.05364,11.1206 -5.05364,11.1206 0,0 2.17,1.5024 4.913,0.2349 2.7431,-1.2676 35.04646,-16.4693 57.60017,-26.9255 22.55372,-10.4562 81.68784,-37.4041 108.21623,-48.83902 26.52839,-11.43498 54.66252,-17.98386 56.18298,-18.92665 1.52045,-0.9428 1.80477,-2.48123 -2.50366,-3.33873 -4.30844,-0.85741 -20.22967,1.52359 -21.76363,1.54603 -1.53386,0.0224 -1.88559,-3.04082 -1.926,-5.80189 -0.0404,-2.76106 -0.0854,-5.82889 2.3599,-6.47834 2.44528,-0.64954 51.12943,-7.80612 87.64556,-7.72708 36.51613,0.079 82.01435,5.85678 102.31143,8.93488 20.29708,3.07819 93.26961,20.11389 137.9013,29.58638 44.63183,9.47257 78.13393,13.27792 86.12373,14.08152 7.9899,0.8036 7.6741,0.1944 10.1913,4.4535 2.5171,4.259 10.2945,11.5096 16.1817,15.4124 5.8873,3.9028 12.3747,6.8763 12.3747,6.8763 0,0 52.6768,-6.9082 105.5512,-0.318 52.8744,6.5903 78.77,14.8029 78.77,14.8029 0,0 8.536,-3.8072 13.1018,-6.3288 4.5658,-2.5216 7.5842,-5.9412 7.5842,-5.9412 0,0 -0.2785,-19.0205 -0.2785,-19.0205 0,0 -3.0992,-2.1026 0.2664,-2.7656 3.3656,-0.6629 25.4046,-4.361 48.093,-5.6136 22.6885,-1.2528 27.9217,-0.102 31.2874,-0.765 3.3656,-0.663 7.2909,-5.01636 8.5449,-3.1936 1.2542,1.8227 1.5969,4.2725 1.5969,4.2725 0,0 2.7655,0.2664 2.4991,3.0319 -0.2663,2.7656 -0.5551,3.9972 -0.5551,3.9972 0,0 0.2245,15.3391 0.2515,17.1798 0.027,1.8407 -2.107,2.7925 -5.4592,4.3758 -3.3521,1.5833 -16.8146,4.2352 -24.1685,4.9566 -7.3538,0.7214 -15.9437,0.8471 -15.9437,0.8471 0,0 -2.0756,4.94 -3.5601,8.337 -1.4845,3.3971 -2.3644,6.1716 -2.3644,6.1716 0,0 0.3112,0.3024 1.5519,1.2048 1.2406,0.9023 1.5518,1.2046 1.5518,1.2046 0,0 1.8497,0.5866 3.6949,0.8665 1.8452,0.2798 3.3746,-0.05 3.7039,1.4799 0.3292,1.5295 1.5788,3.0454 1.5788,3.0454 0,0 0.9204,-0.014 2.4542,-0.036 1.534,-0.023 3.0679,-0.045 3.7128,2.0936 0.6451,2.1384 9.9056,26.8576 16.0534,48.5539 6.1477,21.6962 17.2926,70.322 17.2926,70.322 0,0 1.7912,-3.4016 3.1171,3.3297 1.326,6.7312 3.0306,18.3665 3.7475,25.4135 0.7169,7.047 1.4472,15.0144 1.4472,15.0144 0,0 2.134,-0.9518 4.5793,-1.6013 2.4453,-0.6495 7.2999,-4.4027 7.3672,0.199 0.068,4.6017 1.9428,27.8948 2.281,30.0378 0.3382,2.143 0.054,3.6814 -2.0937,3.7128 -2.1474,0.031 -42.936,1.5491 -57.9595,2.3828 -15.0233,0.8337 -49.6763,2.2616 -51.2102,2.284 -1.5339,0.022 -2.4677,-0.8844 -0.7213,-7.3538 1.7463,-6.4694 11.3042,-45.2722 10.2999,-71.9534 -1.0044,-26.6811 -21.3077,-72.1042 -63.0154,-91.4387 -41.7076,-19.3345 -84.6033,-15.0243 -119.5195,10.3416 -34.9162,25.3659 -46.3282,63.2754 -46.2308,90.8903 0.098,27.615 10.648,56.6112 15.9037,59.2958 5.2558,2.6847 5.6345,7.5888 5.6928,11.5769 0.058,3.9882 -2.3285,8.6258 -9.0777,8.7246 -6.7492,0.099 -88.4298,-3.9216 -114.84452,-5.6828 -26.41476,-1.7613 -200.74377,-4.4253 -237.2599,-4.5044 -36.51613,-0.079 -178.21383,4.4504 -194.16207,4.9907 -15.94824,0.5403 -39.25922,1.1885 -42.32705,1.2334 -3.06782,0.045 -5.8558,-1.7553 -7.4391,-5.1075 -1.5834,-3.3521 -1.326,-6.7312 1.08334,-9.835 2.40934,-3.1038 14.68206,-24.1492 12.84716,-44.6811 -1.83481,-20.5321 -3.6369,-59.7823 -45.831,-91.3836 -42.1941,-31.6013 -99.11191,-20.9489 -123.06931,-1.5735 -23.95732,19.3754 -46.01115,43.0188 -47.24095,84.7682 -1.22988,41.7494 13.67989,54.1119 13.67989,54.1119 0,0 4.37585,5.4592 3.8386,10.6835 -0.53724,5.2243 -2.04867,6.7807 -6.3436,6.8435 z"
     mask="url(#_1)"
     style="fill:#00299b;fill-rule:nonzero;stroke:none"
     inkscape:label="Zonda"
     id="Zonda"
     inkscape:connector-curvature="0"
     transform="translate(-34.160813,92.93908)" />
  <path
     d="m 241.63471,922.25553 c -7.58001,0 -46.49073,-1.51608 -54.07074,-1.51608 -7.57992,0 -10.10665,0 -10.61198,-4.04262 -0.50533,-4.04263 -1.01066,-8.59067 -1.01066,-8.59067 0,0 -1.51598,-1.51598 -5.05337,-3.5373 -3.5373,-2.0214 -10.61198,-3.03206 -16.67592,-5.05337 -6.06402,-2.02131 -10.61207,-8.59067 -13.13871,-25.772 -2.52664,-17.18134 -1.01066,-22.23462 -2.02131,-24.76135 -1.01066,-2.52664 -3.53739,-2.02132 -4.04272,-7.07469 -0.50532,-5.05328 -1.51598,-22.73994 -1.51598,-27.79331 0,-5.05329 5.05337,-9.096 10.10665,-9.096 5.05337,0 25.26668,-0.50533 28.80407,-2.52664 3.53729,-2.02131 10.10665,-10.61198 10.10665,-10.61198 0,0 -3.53739,-6.06403 -2.02131,-16.17068 1.51598,-10.10666 14.14927,-35.37333 21.72929,-43.45867 7.58001,-8.08534 9.09599,-9.60133 19.70797,-11.62264 10.61208,-2.0214 85.40136,-10.61207 137.95603,-13.64404 52.55466,-3.03197 134.92396,-6.06403 141.49332,-7.07468 6.56935,-1.01066 31.3307,-7.07469 36.38398,-8.08534 5.05338,-1.01066 10.61208,-3.5373 18.69733,-8.59067 8.08534,-5.05328 51.03868,-35.87866 75.80003,-54.07066 24.76135,-18.19199 58.61869,-41.94268 61.65066,-44.46932 3.03197,-2.52664 10.61198,-4.04263 23.75069,-5.5587 13.13863,-1.51599 83.88529,-2.52664 143.00931,1.01075 59.12402,3.53729 103.08802,11.62263 109.65738,14.14927 6.56926,2.52664 4.54795,4.04272 6.56926,7.07469 2.0214,3.03197 60.63997,22.2347 91.97067,33.35201 31.3307,11.11731 73.7787,28.80398 82.8747,32.34128 9.096,3.53738 20.7187,11.1174 27.7934,11.62272 7.0746,0.50533 52.0493,3.5373 74.7893,5.05328 22.74,1.51608 64.6826,3.03206 71.252,2.02141 6.5693,-1.01066 18.6973,-5.5587 26.2773,-8.08534 7.58,-2.52673 14.6547,-5.5587 8.5907,3.53729 -6.064,9.096 -23.2453,19.20265 -46.4907,26.27734 -23.2454,7.07468 -50.5333,10.61198 -52.0493,11.62263 -1.516,1.01075 -2.5267,1.51608 0,3.03206 2.5266,1.51599 24.7613,14.14928 35.8786,21.22397 11.1173,7.07468 42.9534,32.34136 43.964,35.37333 1.0107,3.03205 1.516,11.1173 1.516,16.17068 0,5.05337 0,15.16002 0,15.16002 0,0 6.064,0 12.1281,0 6.0639,0 11.1173,2.02131 11.1173,7.58001 0,5.55861 0,16.67601 0,20.71864 0,4.04262 -1.516,7.58001 -4.0427,10.10665 -2.5267,2.52664 -6.064,3.53739 -6.5693,6.06403 -0.5053,2.52664 0.5053,10.10665 -1.516,12.63329 -2.0214,2.52673 -4.0427,2.52673 -4.0427,2.52673 0,0 2.0213,2.52664 2.0213,8.59067 0,6.06394 -0.5053,12.63329 -7.58,12.63329 -7.0746,0 -17.6867,-1.51598 -24.7613,-3.53729 -7.0746,-2.02141 -28.804,-6.56936 -28.804,-6.56936 0,0 -28.804,1.51598 -45.9853,2.52664 -17.1814,1.01066 -51.0387,3.03206 -53.06,2.02131 -2.0213,-1.01065 8.0853,-16.676 -1.0107,-49.5226 -9.096,-32.84669 -18.6973,-51.54401 -61.1453,-70.24134 -42.448,-18.69732 -96.5187,-9.60132 -113.1947,0.50533 -16.676,10.10665 -33.35201,24.76135 -42.44801,54.07065 -9.096,29.30931 -12.63329,46.99597 -15.66535,58.11337 -3.03197,11.11731 -3.5373,22.23462 -7.57992,22.23462 -4.04272,0 -69.23068,-2.52664 -108.64672,-2.52664 -39.41596,0 -196.57463,1.51598 -226.38935,2.52664 -29.81463,1.01065 -109.65729,4.54804 -114.20533,3.03197 -4.54796,-1.51599 -6.56936,-9.096 -10.61198,-22.23462 -4.04263,-13.13871 -16.17069,-62.15599 -29.30931,-81.35864 -13.13871,-19.20274 -29.30939,-39.92138 -71.25199,-43.964 -41.94268,-4.04272 -79.33732,5.05328 -100.56138,33.35193 -21.22396,28.29873 -29.3093,76.30536 -31.83603,90.45472 -2.52664,14.14928 -5.05328,23.24528 -8.08525,26.27734 -3.03206,3.03197 -1.51607,7.07468 -2.52673,11.11731 -1.01066,4.04262 1.51598,5.05337 -6.06394,5.05337 z"
     style="fill:#fed51a;fill-rule:nonzero;stroke:none"
     inkscape:label="911"
     id="911"
     inkscape:connector-curvature="0" />
  <path
     d="m 274.78105,410.9313 c -7.11322,0 -40.73972,0 -45.91298,0 -5.17336,0 -9.69994,-1.29336 -14.22662,-9.05335 -4.52658,-7.75989 -5.81995,-13.57984 -14.22652,-22.63319 -8.40667,-9.05326 -17.45993,-18.7532 -18.10661,-27.80646 -0.6466,-9.05326 0.64668,-21.98652 5.17335,-29.09982 4.52659,-7.11331 15.51989,-13.57994 21.98652,-20.69316 6.46662,-7.1133 16.81324,-18.10661 20.69315,-20.04656 3.87999,-1.93995 6.46663,-3.87999 6.46663,-3.87999 0,0 -1.93996,-7.7599 -3.23332,-14.87321 -1.29327,-7.11331 -1.29327,-10.9933 -1.29327,-14.22661 0,-3.23332 -9.05326,-9.05326 9.69994,-2.58664 18.7532,6.46663 30.39309,18.7532 30.39309,18.7532 0,0 47.20644,-17.45984 131.91918,-25.86651 84.71283,-8.40658 155.84564,-11.63989 155.84564,-11.63989 0,0 44.6198,-29.09982 81.47952,-51.73302 36.85981,-22.63319 81.47952,-49.79297 90.53278,-49.79297 9.05326,0 18.7532,3.23331 23.27988,5.81995 4.52658,2.58663 3.8799,5.17326 1.29327,11.63989 -2.58663,6.46663 -12.93326,29.09982 -16.16657,36.85981 -3.23331,7.7599 -7.7599,17.45984 -7.7599,17.45984 0,0 5.81995,3.87999 5.81995,16.16657 0,12.28657 -9.05326,16.81324 -9.05326,16.81324 0,0 -1.29336,5.17327 -1.29336,5.17327 0,0 58.84632,-1.29327 92.47273,-2.58663 33.6265,-1.29336 62.72632,-3.23332 62.72632,-3.23332 0,0 0.64659,-24.57314 0.64659,-32.33313 0,-7.7599 8.40667,-19.39988 11.63998,-21.33984 3.23332,-1.94004 12.93326,-4.52667 16.16657,-2.58663 3.23331,1.93995 5.81995,7.11322 5.81995,12.28658 0,5.17326 1.29336,16.81324 -0.64668,22.63319 -1.93996,5.81995 -1.93996,17.45984 -1.93996,17.45984 0,0 9.69994,-5.17327 16.16657,-6.46663 6.46663,-1.29327 4.52659,1.94005 10.34653,1.94005 5.82004,0 5.82004,0 9.05335,-2.58664 3.23332,-2.58672 14.87321,-3.23331 28.45314,-4.52667 13.57994,-1.29336 56.25957,-7.11331 67.89957,-10.34662 11.6399,-3.23332 29.0998,-8.40658 24.5732,-4.52659 -4.5267,3.87991 -3.2333,8.40658 -3.2333,8.40658 0,0 8.4065,0 14.8732,0 6.4666,0 8.4066,0.64668 10.9933,1.93995 2.5866,1.29336 3.2333,5.82004 3.2333,5.82004 0,0 60.7863,2.58663 96.9994,7.11322 36.213,4.52667 75.0128,9.69994 82.1261,12.28657 7.1133,2.58672 6.4666,7.11331 10.9932,17.45993 4.5267,10.34662 7.1133,26.51319 7.76,35.56645 0.6467,9.05326 0,19.39988 0,21.98651 0,2.58664 5.1733,5.17327 10.9933,7.11331 5.8199,1.93995 11.6399,3.23331 11.6399,14.22653 0,10.9933 -1.2934,23.92655 -3.88,31.03986 -2.5866,7.11322 -11.6399,12.93325 -11.6399,12.93325 0,0 1.2933,1.93996 0.6467,9.69995 -0.6467,7.7599 -0.6467,12.28657 -4.5267,12.28657 -3.88,0 -32.9798,-3.23331 -32.9798,-3.23331 0,0 -22.6332,3.23331 -34.2731,3.23331 -11.6399,0 -31.6865,0 -34.9198,0 -3.2333,0 -3.88,-3.23331 -3.2333,-9.05326 0.6467,-5.82004 -1.2933,-36.85981 -20.6932,-65.31295 -19.3999,-28.45314 -41.3864,-42.67976 -85.3594,-42.03308 -43.9731,0.64668 -69.1929,17.45993 -86.6528,38.15308 -17.45987,20.69325 -23.9265,48.49971 -25.21986,67.89959 -1.29336,19.39988 -0.64668,29.7465 -0.64668,34.91977 0,5.17335 -2.58663,6.46662 -9.05326,6.46662 -6.46663,0 -176.53889,0.64668 -219.86523,0.64668 -43.32644,0 -195.29209,0 -213.3987,0 -18.10652,0 -26.51319,-1.29336 -29.7465,-1.93995 -3.23331,-0.64668 -7.11322,-2.58672 -9.69994,-14.87329 -2.58663,-12.28658 -10.34653,-45.91299 -17.45984,-65.31287 -7.11331,-19.39988 -20.04656,-42.67975 -50.43966,-53.67306 -30.39318,-10.99321 -67.2529,-8.40658 -91.82614,5.81995 -24.57315,14.22662 -39.44635,41.38649 -43.97303,58.84633 -4.52667,17.45992 -5.81994,40.09312 -5.81994,45.26639 0,5.17326 -1.29336,7.75998 -8.40667,7.75998 z"
     style="fill:#9f1f21;fill-rule:nonzero;stroke:none"
     inkscape:label="Miata"
     id="Miata"
     inkscape:connector-curvature="0" />
</svg>
