<?xml version="1.0" encoding="UTF-8" standalone="no"?>
<svg
   xmlns:dc="http://purl.org/dc/elements/1.1/"
   xmlns:cc="http://creativecommons.org/ns#"
   xmlns:rdf="http://www.w3.org/1999/02/22-rdf-syntax-ns#"
   xmlns:svg="http://www.w3.org/2000/svg"
   xmlns="http://www.w3.org/2000/svg"
   xmlns:sodipodi="http://sodipodi.sourceforge.net/DTD/sodipodi-0.dtd"
   xmlns:inkscape="http://www.inkscape.org/namespaces/inkscape"
   width="1024"
   height="1024"
   version="1.1"
   id="svg936"
   sodipodi:docname="hipec.svg"
   inkscape:version="0.92.2 (5c3e80d, 2017-08-06)">
  <metadata
     id="metadata942">
    <rdf:RDF>
      <cc:Work
         rdf:about="">
        <dc:format>image/svg+xml</dc:format>
        <dc:type
           rdf:resource="http://purl.org/dc/dcmitype/StillImage" />
        <dc:title></dc:title>
      </cc:Work>
    </rdf:RDF>
  </metadata>
  <defs
     id="defs940" />
  <sodipodi:namedview
     pagecolor="#ffffff"
     bordercolor="#666666"
     borderopacity="1"
     objecttolerance="10"
     gridtolerance="10"
     guidetolerance="10"
     inkscape:pageopacity="0"
     inkscape:pageshadow="2"
     inkscape:window-width="1920"
     inkscape:window-height="1027"
     id="namedview938"
     showgrid="false"
     showguides="true"
     inkscape:guide-bbox="true"
     inkscape:zoom="0.4609375"
     inkscape:cx="788.46238"
     inkscape:cy="673.76367"
     inkscape:window-x="-8"
     inkscape:window-y="-8"
     inkscape:window-maximized="1"
     inkscape:current-layer="svg936" />
  <mask
     id="_1">
    <g
       id="g932">
      <path
         d="M 0,0 1024,0 1024,1024 0,1024 0,0 Z"
         style="stroke:none; fill:white"
         id="path928" />
      <path
         d="M 401.500000,251.000000 C 401.500000,251.000000 403.250000,250.750000 405.250000,250.750000 C 407.250000,250.750000 408.250000,251.250000 408.250000,251.250000 C 408.250000,251.250000 410.500000,248.750000 413.750000,245.000000 C 417.000000,241.250000 422.750000,235.750000 422.750000,235.750000 C 422.750000,235.750000 419.250000,236.750000 416.500000,236.750000 C 413.750000,236.750000 410.250000,235.750000 410.250000,235.750000 C 410.250000,235.750000 409.750000,239.000000 407.500000,242.250000 C 405.250000,245.500000 401.500000,251.000000 401.500000,251.000000 Z"
         style="stroke:none; fill:black"
         fill-rule="nonzero"
         id="path930" />
    </g>
  </mask>
  <path
     style="stroke:none;fill:#ffffff;fill-opacity:1"
     mask="url(#_1)"
     d="M 541.88672 181.19922 C 541.62902 194.21361 541.36418 207.60535 541.08984 221.36133 C 568.82893 222.96064 604.38597 232.56779 602 272.33398 C 599 322.33398 528.33331 328.33331 481 341 C 433.66663 353.66663 405.66602 387.3327 412.66602 427.66602 C 419.34049 466.12375 440.90628 481.68365 488.45898 495.34375 C 488.17867 481.66421 487.89953 467.99533 487.62109 454.36914 C 470.45886 447.00891 458.78666 437.62497 459 418 C 459.33331 387.33331 498.00067 379.6673 540.33398 369.33398 C 582.6673 359.00067 645.66663 342.33331 650 278 C 654.33331 213.66663 591.33398 186.6673 556.33398 182.33398 C 551.58655 181.74621 546.74056 181.38536 541.88672 181.19922 z M 482.21484 186.42188 C 477.32251 187.47303 473.51578 188.5064 471.33398 189.33398 C 461.6673 193.00067 450.66602 199.66663 440.66602 202 C 430.66602 204.33331 405.66663 213.66663 393 231 C 380.33331 248.33331 380.33331 251.00061 379 256.33398 C 377.66663 261.6673 376.33331 267.6673 373 272.33398 C 369.66663 277.00067 368.33398 283.33331 368.33398 287 C 368.33398 290.66663 365 298.00061 359 302.33398 C 353 306.6673 342.33398 309.66602 342.33398 309.66602 C 342.33398 309.66602 346.66602 311.3327 349.66602 310.66602 C 352.66602 309.99939 358.66602 307 358.66602 307 C 358.66602 307 357.3327 309.6673 356.66602 313.33398 C 355.99939 317.00067 357.66602 321.66602 357.66602 321.66602 C 357.66602 321.66602 359.66663 312.66602 364 306.66602 C 368.33331 300.66602 374.00061 292.66602 376.33398 292.66602 C 378.6673 292.66602 384.6673 293.66663 396.33398 288 C 408.00067 282.33331 436.33331 264.66663 444 257 C 451.66663 249.33331 459 238.00067 470 232.33398 C 473.77188 230.39089 478.0326 228.64952 483.02734 227.13867 C 482.74908 213.19876 482.47658 199.62572 482.21484 186.42188 z M 536.02148 471.80273 C 535.7594 484.61483 535.49769 497.4505 535.23438 510.28516 C 556.70203 519.48655 560.76736 527.95271 555 538.33398 C 546.66663 553.33398 513.66663 558.99933 495 566.66602 C 476.33331 574.3327 458.33331 589.33331 461 606 C 463.17939 619.62137 471.60038 633.24093 491.52539 644.13281 C 491.29555 633.03177 491.06432 621.86583 490.83203 610.61914 C 490.76333 610.40879 490.70097 610.20097 490.66602 610 C 489.3327 602.33331 496.99933 599.00067 523.66602 589.33398 C 550.3327 579.6673 595 572.33331 595 531 C 595 495.86691 565.37887 482.41919 536.02148 471.80273 z M 532.57617 639.27734 C 532.41676 646.97919 532.25752 654.62973 532.09961 662.24805 C 545.6485 669.49768 553.22928 676.45367 559 684 C 567.66663 695.33331 571.6673 706.99933 573.33398 705.66602 C 575.00067 704.3327 573.33398 688.33331 570.33398 677 C 567.33398 665.66663 553.66663 649.66663 536 641 C 534.91451 640.46749 533.71929 639.85214 532.57617 639.27734 z "
     id="Shape 2 copy" />
  <path
     style="fill:#ffffff;fill-rule:nonzero;stroke:none;fill-opacity:1"
     d="M 512 61.332031 C 491.66663 61.332031 486 73.999386 484 85.666016 C 482 97.332706 488 128.66535 490 138.33203 C 492 147.99872 493.33331 160.33202 493 167.33203 C 492.8923 169.5934 494.25443 239.69326 495.95898 324.99219 C 506.54782 322.59672 517.36466 320.18114 528.1875 317.58398 C 529.8179 235.84031 531.1047 169.53084 531 167.33203 C 530.66663 160.33202 532 147.99872 534 138.33203 C 536 128.66535 542 97.332706 540 85.666016 C 538 73.999386 532.33331 61.332031 512 61.332031 z M 526.83594 384.625 C 516.57092 387.18425 506.64547 389.7865 497.32227 392.60352 C 498.46211 448.84933 499.44932 497.17155 500.61133 553.22852 C 507.90294 550.82618 515.68432 548.42771 523.53906 545.91016 C 524.71262 489.24242 525.70198 440.65918 526.83594 384.625 z M 522.40234 600.64453 C 514.30437 603.62467 507.4684 606.23043 501.76172 608.59766 C 503.63626 698.35318 505.2205 773.10388 505.33203 775 C 505.66535 780.66663 508 786.33203 512 786.33203 C 516 786.33203 518.3327 780.66663 518.66602 775 C 518.78077 773.04945 520.45 694.23154 522.40234 600.64453 z "
     id="Shape 1 copy 2" />
  <flowRoot
     xml:space="preserve"
     id="flowRoot3225"
     style="font-style:normal;font-weight:normal;font-size:40px;line-height:1.25;font-family:sans-serif;letter-spacing:0px;word-spacing:0px;fill:#ffffff;fill-opacity:1;stroke:none;"><flowRegion
       id="flowRegion3227"
       style="fill:#ffffff;fill-opacity:1;"><rect
         id="rect3229"
         width="787.52545"
         height="271.18643"
         x="149.69492"
         y="436.06781"
         style="fill:#ffffff;fill-opacity:1;" /></flowRegion><flowPara
       id="flowPara3231"
       style="font-style:normal;font-variant:normal;font-weight:normal;font-stretch:normal;font-size:192px;font-family:'Linden Hill';-inkscape-font-specification:'Linden Hill';fill:#ffffff;fill-opacity:1;" /></flowRoot>  <g
     aria-label="HIPEC"
     style="font-style:normal;font-weight:normal;font-size:40px;line-height:1.25;font-family:sans-serif;letter-spacing:0px;word-spacing:0px;fill:#ffffff;fill-opacity:1;stroke:none"
     id="text3235"
     transform="matrix(1.1255166,0,0,1.1255166,-64.26451,-176.20272)">
    <path
       d="m 235.44801,900.54398 h 4.992 c 9.6,0 11.328,0.384 11.328,6.336 v 98.11202 c 0,8.256 0,8.448 -9.792,8.448 h -4.992 l 0.192,7.488 h 49.152 l 0.384,-7.488 h -5.568 c -12.48,0 -13.824,-0.576 -13.824,-8.448 v -50.30402 h 62.4 v 50.30402 c 0,7.68 -0.576,8.448 -9.024,8.448 h -5.568 l 0.192,7.488 h 47.808 l 0.192,-7.488 h -6.528 c -10.56,0 -11.52,-0.576 -11.52,-7.872 v -96.96002 c 0,-7.296 1.344,-8.064 9.6,-8.064 h 5.376 v -7.68 h -48.768 l 0.192,7.68 h 8.064 c 9.792,0 9.984,0.384 9.984,6.912 v 38.016 h -62.4 v -36.48 c 0,-7.68 1.92,-8.448 10.944,-8.448 h 4.992 v -7.68 h -47.808 z"
       style="font-style:normal;font-variant:normal;font-weight:normal;font-stretch:normal;font-size:192px;font-family:'Linden Hill';-inkscape-font-specification:'Linden Hill';fill:#ffffff;fill-opacity:1"
       id="path3237"
       inkscape:connector-curvature="0" />
    <path
       d="m 373.82301,900.54398 h 8.064 c 9.408,0 9.792,0.384 9.792,6.912 v 97.53602 c 0,7.68 -0.576,8.448 -10.752,8.448 h -4.992 l 0.192,7.488 h 49.152 l -0.192,-7.488 h -7.488 c -9.6,0 -10.368,-0.768 -10.368,-8.832 v -95.23202 c 0,-8.64 1.536,-8.832 11.712,-8.832 h 3.264 v -7.68 h -48.192 z"
       style="font-style:normal;font-variant:normal;font-weight:normal;font-stretch:normal;font-size:192px;font-family:'Linden Hill';-inkscape-font-specification:'Linden Hill';fill:#ffffff;fill-opacity:1"
       id="path3239"
       inkscape:connector-curvature="0" />
    <path
       d="m 435.69801,1020.928 h 51.072 v -7.488 h -9.6 c -12.864,0 -13.056,-0.576 -13.056,-5.568 v -41.47202 c 0.384,0 13.248,4.032 27.072,4.032 27.648,0 40.512,-18.048 40.512,-34.944 0,-15.36 -7.104,-26.88 -16.32,-34.368 -9.024,-7.296 -19.584,-8.256 -39.36,-8.256 h -39.552 l -0.192,7.68 h 4.992 c 6.144,0 7.296,0.384 7.296,6.912 V 1007.872 c 0,4.992 -0.192,5.568 -6.912,5.568 h -5.952 z m 28.416,-60.28802 v -51.264 c 0,-8.064 1.344,-8.832 5.76,-8.832 23.808,0 43.776,11.904 43.776,34.56 0,19.2 -11.328,29.184 -31.488,29.184 -13.056,0 -18.048,-3.648 -18.048,-3.648 z"
       style="font-style:normal;font-variant:normal;font-weight:normal;font-stretch:normal;font-size:192px;font-family:'Linden Hill';-inkscape-font-specification:'Linden Hill';fill:#ffffff;fill-opacity:1"
       id="path3241"
       inkscape:connector-curvature="0" />
    <path
       d="m 545.19801,892.86398 0.192,7.68 h 5.376 c 12.288,0 13.44,0.384 13.44,8.256 v 97.34402 c 0,6.72 -0.384,7.296 -10.176,7.296 h -4.992 v 7.488 h 97.344 l 4.8,-29.76002 -6.528,-0.96 c -0.768,4.032 -1.728,11.71202 -3.072,16.12802 -1.344,4.992 0.384,5.184 -55.68,5.76 -4.992,0 -6.144,-1.152 -6.144,-7.872 v -45.31202 c 0,-4.992 0.384,-5.952 6.912,-5.952 h 28.8 c 6.336,0 6.912,0 6.912,10.752 v 9.984 h 7.104 v -45.888 l -7.104,-0.192 v 7.296 c 0,8.832 -0.576,9.6 -7.296,9.6 h -28.992 c -6.144,0 -6.336,-0.576 -6.336,-7.68 v -26.688 c 0,-8.64 0.576,-9.024 11.136,-9.024 h 32.64 c 4.032,0 7.488,0 9.408,0.192 2.688,0.384 3.84,2.304 4.608,22.08 l 7.488,-0.384 c -0.576,-10.944 -0.768,-19.2 -0.96,-30.144 z"
       style="font-style:normal;font-variant:normal;font-weight:normal;font-stretch:normal;font-size:192px;font-family:'Linden Hill';-inkscape-font-specification:'Linden Hill';fill:#ffffff;fill-opacity:1"
       id="path3243"
       inkscape:connector-curvature="0" />
    <path
       d="m 666.63201,960.63998 c 0,38.784 25.344,63.36002 69.696,63.36002 28.224,0 51.072,-16.32 51.072,-16.32 l 1.152,-28.03202 h -6.72 l -0.576,16.128 c -0.192,5.76002 -20.544,19.77602 -40.128,19.77602 -33.984,0 -58.176,-29.95202 -58.176,-60.48002 0,-28.992 21.504,-53.568 53.76,-53.568 13.056,0 26.304,3.072 31.872,5.952 11.904,5.952 9.408,1.728 11.712,20.736 l 6.912,-0.192 c -1.152,-12.288 -1.92,-24.576 -2.304,-36.672 h -7.296 c -0.192,5.952 0.192,7.104 -3.072,7.104 -3.072,0 -10.176,-5.952 -38.4,-5.952 -30.72,0 -69.504,22.08 -69.504,68.16 z"
       style="font-style:normal;font-variant:normal;font-weight:normal;font-stretch:normal;font-size:192px;font-family:'Linden Hill';-inkscape-font-specification:'Linden Hill';fill:#ffffff;fill-opacity:1"
       id="path3245"
       inkscape:connector-curvature="0" />
  </g>
</svg>
