<?xml version="1.0" encoding="UTF-8" standalone="no"?>
<!-- Created with Inkscape (http://www.inkscape.org/) -->

<svg
   xmlns:dc="http://purl.org/dc/elements/1.1/"
   xmlns:cc="http://creativecommons.org/ns#"
   xmlns:rdf="http://www.w3.org/1999/02/22-rdf-syntax-ns#"
   xmlns:svg="http://www.w3.org/2000/svg"
   xmlns="http://www.w3.org/2000/svg"
   xmlns:sodipodi="http://sodipodi.sourceforge.net/DTD/sodipodi-0.dtd"
   xmlns:inkscape="http://www.inkscape.org/namespaces/inkscape"
   version="1.1"
   id="svg4485"
   width="2000"
   height="2000"
   viewBox="0 0 1999.9999 2000"
   sodipodi:docname="kouhii.svg"
   inkscape:version="0.92.2 (5c3e80d, 2017-08-06)">
  <metadata
     id="metadata4491">
    <rdf:RDF>
      <cc:Work
         rdf:about="">
        <dc:format>image/svg+xml</dc:format>
        <dc:type
           rdf:resource="http://purl.org/dc/dcmitype/StillImage" />
        <dc:title />
      </cc:Work>
    </rdf:RDF>
  </metadata>
  <defs
     id="defs4489" />
  <sodipodi:namedview
     pagecolor="#ffffff"
     bordercolor="#666666"
     borderopacity="1"
     objecttolerance="10"
     gridtolerance="10"
     guidetolerance="10"
     inkscape:pageopacity="0"
     inkscape:pageshadow="2"
     inkscape:window-width="1920"
     inkscape:window-height="1027"
     id="namedview4487"
     showgrid="false"
     inkscape:zoom="0.13828124"
     inkscape:cx="853.33337"
     inkscape:cy="929.26555"
     inkscape:window-x="-8"
     inkscape:window-y="-8"
     inkscape:window-maximized="1"
     inkscape:current-layer="svg4485" />
  <path
     style="fill:#ffffff;fill-opacity:0.94117647;stroke-width:1.05619729"
     d="m 643.34874,1833.4731 c -70.90893,-1.7189 -148.22502,-10.0719 -189.82582,-20.5084 -21.72143,-5.4493 -54.68384,-16.9644 -54.68384,-19.1034 0,-1.0999 2.52893,-0.5324 15.84296,3.5551 30.51567,9.3684 58.98968,13.808 115.12549,17.9499 25.49335,1.881 145.11296,1.8903 164.76678,0.013 66.22851,-6.3265 121.30711,-14.5733 181.03481,-27.1059 9.8187,-2.0604 18.9605,-3.746 20.3151,-3.746 1.3546,0 4.0042,1.3772 5.8881,3.0605 2.809,2.5097 3.4253,3.8401 3.4253,7.3933 0,8.6167 -5.427,10.9075 -43.9098,18.5351 -64.0131,12.688 -159.01866,21.3861 -217.97908,19.9569 z m -53.33797,-41.634 c -70.17842,-2.1899 -119.90179,-6.2968 -159.48578,-13.1727 -62.85378,-10.9181 -107.21723,-27.9106 -129.1044,-49.4508 -7.69971,-7.5777 -10.68658,-13.8957 -11.20117,-23.6935 -0.36716,-6.9908 -0.0861,-8.3596 3.00578,-14.6401 3.77946,-7.6772 12.6356,-17.3086 22.6918,-24.6782 10.60848,-7.7744 34.32209,-21.0944 37.55421,-21.0944 3.43595,0 7.34477,4.2292 7.34477,7.9469 0,3.8385 -2.94357,6.3263 -16.37105,13.8356 -17.00682,9.511 -23.82474,14.2177 -30.66837,21.1716 -7.2473,7.364 -9.14488,12.629 -6.39319,17.7385 6.66703,12.3799 45.59871,26.4261 109.93916,39.665 53.77569,11.065 97.66213,15.4677 222.32951,22.3042 30.76794,1.6872 143.99508,1.7036 175.32878,0.025 30.9522,-1.6579 57.0225,-3.9137 76.0462,-6.5802 63.05854,-8.8388 114.43148,-29.6972 130.13768,-52.8386 5.8696,-8.6482 5.8285,-14.8853 -0.1569,-23.8046 -4.1212,-6.1415 -13.3797,-14.2715 -24.14574,-21.2028 -15.9893,-10.2942 -53.3204,-26.1784 -86.23704,-36.6934 l -18.9531,-6.0545 -6.2848,7.2266 c -25.5465,29.3749 -58.2286,55.0331 -89.946,70.6152 -17.4675,8.5815 -29.3024,12.7721 -47.7621,16.9122 -47.7768,10.7155 -92.53601,10.3044 -131.26331,-1.2057 -24.19507,-7.191 -55.52485,-21.595 -79.04144,-36.3398 -38.38835,-24.0692 -70.59332,-55.8825 -93.63199,-92.4933 -10.76425,-17.1054 -29.06024,-54.9302 -29.06024,-60.0785 0,-3.4042 2.66652,-5.8372 6.39764,-5.8372 3.72672,0 4.50962,1.138 17.43894,25.3488 30.42267,56.9678 66.01243,93.8358 121.36073,125.7192 30.38343,17.5025 59.69983,28.364 90.24168,33.4339 13.73291,2.2796 50.49293,2.5776 65.57729,0.5316 49.4799,-6.7113 80.5556,-18.9773 117.5646,-46.4041 12.736,-9.4385 28.0098,-22.6 38.0673,-32.8027 l 7.2362,-7.3407 -7.7643,-1.6619 c -44.1578,-9.4513 -68.7346,-12.5829 -113.3796,-14.4471 -15.1012,-0.6305 -27.8577,-1.5475 -28.3479,-2.0376 -1.5541,-1.5542 12.5782,-2.2947 46.2988,-2.4262 18.9433,-0.074 38.7512,0.4277 47.0007,1.1899 14.3375,1.3247 45.2691,5.4666 55.8586,7.4798 9.0793,1.7259 9.1251,1.7049 16.5447,-7.6321 24.5134,-30.8481 61.93364,-98.0888 73.62174,-132.2919 5.7853,-16.9297 6.6798,-11.6202 1.157,6.8684 -5.5752,18.6647 -27.2692,67.3252 -41.57304,93.2501 -6.7177,12.1756 -20.0658,33.1184 -25.5208,40.0416 l -3.0789,3.9075 4.0073,1.0246 c 2.204,0.5636 8.0473,2.0465 12.985,3.2954 21.16634,5.3537 56.33194,18.1291 73.40574,26.6679 19.97084,9.9876 36.78584,23.7852 43.02274,35.3025 8.4267,15.561 7.1562,27.7684 -4.4134,42.4049 -19.5315,24.7093 -72.49714,47.883 -134.19518,58.7137 -69.5506,12.2092 -189.7511,17.8528 -304.18485,14.2818 z m 398.77439,-230.4043 c -4.2587,-6.0802 -1.3487,-8.9221 17.09164,-16.6919 43.153,-18.1824 63.8011,-32.818 82.7987,-58.6888 10.8233,-14.7391 16.7913,-30.9069 17.5081,-47.4313 0.4473,-10.3108 0.2087,-12.5386 -2.1204,-19.7973 -6.5174,-20.3115 -19.3524,-30.9721 -38.79,-32.2186 -23.3848,-1.4997 -49.6632,15.0939 -68.30874,43.1342 -5.7136,8.5925 -8.2022,8.6478 -3.406,0.075 11.72234,-20.9514 27.25384,-36.4723 44.63724,-44.607 9.8839,-4.6251 16.8065,-6.2351 26.8731,-6.2495 24.7072,-0.036 43.029,15.6407 49.8699,42.6683 7.4961,29.6165 -6.7142,66.2743 -36.7116,94.7035 -17.1657,16.2684 -35.0838,27.4106 -64.4913,40.1034 -18.37504,7.9311 -22.34054,8.7257 -24.95064,4.9994 z m -9.7981,-25.135 c -2.4799,-0.9978 -4.1127,-5.2151 -3.0706,-7.9307 0.3418,-0.8908 3.5158,-3.3871 7.0533,-5.5474 14.1426,-8.637 41.69304,-26.9627 49.88344,-33.181 24.9673,-18.9557 40.7925,-39.4241 42.5772,-55.0697 0.7499,-6.5734 -0.721,-10.8709 -4.2753,-12.4903 -8.4141,-3.8337 -41.7713,12.4476 -58.9037,28.7502 -3.6317,3.4558 -7.0125,6.1468 -7.513,5.98 -1.4566,-0.4855 6.8234,-10.3124 13.6404,-16.1886 13.7373,-11.8418 29.7286,-20.9146 42.9971,-24.3947 6.3508,-1.6656 7.4823,-1.694 11.4625,-0.2884 7.1587,2.5282 8.834,5.8007 8.8222,17.2324 -0.01,9.2355 -0.2239,10.1399 -4.5342,19.1229 -2.4884,5.1859 -6.907,12.6429 -9.8192,16.5712 -7.4176,10.0059 -25.1989,26.6563 -41.5114,38.8713 -13.9443,10.4417 -42.43194,29.6974 -43.75204,29.5733 -0.3915,-0.037 -1.767,-0.4916 -3.0567,-1.0105 z m -301.84,-72.4347 c -26.16909,-0.6529 -68.76081,-2.5924 -91.36108,-4.1604 -117.91136,-8.1807 -172.13646,-23.0736 -187.14693,-51.4 -1.91593,-3.6156 -2.40762,-6.2517 -2.42219,-12.986 -0.0165,-7.6283 0.33153,-9.0947 3.58043,-15.0863 10.57274,-19.4982 36.88344,-36.4409 77.20038,-49.7131 69.47867,-22.8722 147.89613,-27.5945 273.02695,-16.4418 49.8145,4.4399 108.5007,14.142 129.9123,21.4774 l 6.3372,2.171 -14.9227,-0.4496 c -13.8874,-0.4185 -35.3805,-2.6077 -63.2359,-6.4413 -18.7261,-2.577 -99.814,-4.981 -145.22713,-4.3053 -62.42064,0.9287 -103.62159,5.4031 -146.28332,15.8862 -47.04007,11.5591 -92.08568,32.2232 -102.95672,47.2303 -11.88614,16.4083 11.22065,32.3779 58.59643,40.4973 36.69231,6.2883 64.92092,8.0187 142.05853,8.7077 84.06404,0.751 182.17831,-2.4988 246.62201,-8.1687 13.361,-1.1755 35.4619,-3.0527 49.1132,-4.1716 13.6513,-1.1189 26.72184,-2.3351 29.04544,-2.7026 7.9801,-1.2625 13.7204,3.3929 13.506,10.9533 -0.1551,5.473 -4.3787,8.7543 -16.2816,12.6493 -34.96074,11.4401 -84.19134,15.7933 -185.75554,16.4254 -32.8214,0.2042 -65.85398,0.2172 -73.40576,0.028 z m -184.78172,-58.3452 c 1.40447,-1.244 13.98102,-5.0215 30.95081,-9.2961 41.97871,-10.5745 93.78788,-16.8992 171.72347,-20.9632 54.5611,-2.8452 104.1722,-1.8258 129.8882,2.6687 16.0925,2.8126 35.8942,9.4832 37.5972,12.6653 1.6034,2.9959 1.2434,5.7976 -1.0063,7.8336 -1.9536,1.768 -2.6664,1.7501 -15.579,-0.3888 -43.8799,-7.2689 -76.3964,-8.9653 -156.64642,-8.173 -69.68317,0.688 -108.07509,2.6217 -142.05852,7.1551 -11.04601,1.4735 -36.0275,5.8965 -44.22993,7.8308 -7.26431,1.7131 -12.16711,2.0208 -10.63951,0.6676 z m 106.08062,-124.2858 c -2.06804,-2.2013 -2.32548,-3.1502 -1.50435,-5.5451 1.07748,-3.1424 1.1303,-3.1709 52.78944,-28.4756 36.65831,-17.9567 50.12427,-26.9781 50.12427,-33.5802 0,-10.332 -42.09941,-27.9967 -107.12088,-44.9473 -42.68557,-11.1279 -61.05554,-17.1718 -75.89779,-24.9712 -13.10046,-6.8841 -22.64824,-17.7487 -24.53272,-27.9163 -1.92047,-10.3617 5.79211,-25.5002 19.3199,-37.9216 20.06469,-18.4237 58.5735,-37.9725 89.47701,-45.4225 8.99986,-2.1697 21.32766,-2.8337 18.48346,-0.9956 -0.87136,0.5631 -2.70971,1.0311 -4.08522,1.04 -4.87231,0.032 -28.87804,8.8189 -43.19001,15.8099 -25.36192,12.3885 -42.67319,24.3955 -57.12198,39.6192 -19.73418,20.7926 -17.03744,35.5329 8.70959,47.6065 12.26872,5.7532 28.18643,10.3097 67.85541,19.4241 66.98632,15.3906 92.85074,25.0865 108.67532,40.739 18.63831,18.4358 11.54981,30.1825 -33.32526,55.2246 -22.33978,12.4666 -62.32116,32.9679 -64.29344,32.9679 -1.02726,0 -2.9905,-1.1951 -4.36275,-2.6558 z m 171.72196,-6.3973 c -3.0624,-3.0623 -1.8938,-6.2003 5.3191,-14.2837 9.3784,-10.5099 12.482,-17.1908 11.7478,-25.2882 -1.2558,-13.8489 -13.7804,-28.7222 -48.262,-57.3122 -45.62626,-37.8304 -58.18624,-54.4286 -56.84157,-75.1168 0.68085,-10.4744 4.57204,-18.0056 13.64158,-26.4027 14.71189,-13.6209 41.84859,-23.6099 93.33109,-34.3551 49.9438,-10.424 64.9686,-14.8023 85.552,-24.9304 15.9224,-7.8347 25.1218,-14.4046 29.4619,-21.04069 4.0913,-6.2556 5.6783,-4.9806 2.0647,1.6588 -3.0192,5.54729 -9.5145,11.59949 -19.9084,18.55039 -21.4027,14.3131 -41.6165,21.9319 -94.8709,35.758 -73.3642,19.0472 -97.30594,32.1605 -97.34602,53.3184 -0.0269,14.2204 10.85532,27.4762 45.40552,55.3085 37.452,30.1699 47.7125,40.6697 55.3571,56.6484 3.6055,7.536 3.7899,8.4611 3.7899,19.0115 0,10.0762 -0.2728,11.628 -2.983,16.9735 -1.6407,3.2359 -6.3372,9.7711 -10.4366,14.5227 -6.0216,6.9796 -8.0211,8.6393 -10.4081,8.6393 -1.6249,0 -3.7014,-0.7469 -4.6141,-1.6597 z"
     id="path4495"
     inkscape:connector-curvature="0" />
  <text
     xml:space="preserve"
     style="font-style:normal;font-weight:normal;font-size:40px;line-height:1.25;font-family:sans-serif;letter-spacing:0px;word-spacing:0px;fill:#000000;fill-opacity:1;stroke:none"
     x="1576.4973"
     y="336.72308"
     id="text4505"><tspan
       sodipodi:role="line"
       id="tspan4503"
       x="1576.4973"
       y="373.21631" /></text>
  <g
     aria-label="Coffee Maker
        Quest"
     style="font-style:normal;font-weight:normal;font-size:40px;line-height:1.25;font-family:sans-serif;letter-spacing:0px;word-spacing:0px;fill:#ffffff;fill-opacity:1;stroke:none"
     id="text4499">
    <path
       d="m 288.44283,417.0672 q -5.01823,12.60677 -13.58594,21.54167 -8.56771,8.8125 -18.60417,14.4427 -9.91406,5.50782 -20.31771,8.07813 -10.28125,2.57031 -18.97135,2.57031 -13.95313,0 -24.23438,-3.30469 -10.28125,-3.30468 -17.13541,-10.64843 -6.73177,-7.34375 -10.15886,-19.09375 -3.30468,-11.75 -3.30468,-28.64063 0,-8.56771 0.97916,-18.60417 1.10156,-10.15885 3.42709,-20.92968 2.32552,-10.77084 5.875,-21.66407 3.67187,-10.89323 8.8125,-20.92968 5.14062,-10.15886 11.87239,-18.97136 6.73177,-8.8125 15.17709,-15.29948 8.44531,-6.48698 18.72656,-10.15885 10.28125,-3.79427 22.64323,-3.79427 8.6901,0 16.27864,1.95833 7.71094,1.83594 13.34115,5.875 5.7526,4.03906 8.9349,10.40365 3.30468,6.36458 3.30468,15.29947 0,5.01823 -0.97916,9.30209 -0.85677,4.16146 -3.0599,7.34375 -2.08073,3.05989 -5.50781,4.77344 -3.30469,1.71354 -8.07813,1.71354 -2.9375,0 -6.85416,-1.10156 -3.79427,-1.10157 -7.34375,-5.38542 2.20312,-1.10156 4.28385,-3.42708 2.08073,-2.44792 3.67188,-5.50782 1.59114,-3.18229 2.57031,-6.85416 0.97917,-3.67188 0.97917,-7.34375 0,-2.9375 -0.85678,-5.75261 -0.73437,-2.8151 -2.57031,-4.89583 -1.83594,-2.08073 -4.77344,-3.30469 -2.9375,-1.34635 -7.09895,-1.34635 -6.97657,0 -13.58594,5.14062 -6.48698,5.14063 -12.36198,13.95313 -5.75261,8.6901 -10.64844,20.31771 -4.77344,11.6276 -8.20052,24.60156 -3.42708,12.97396 -5.38542,26.68229 -1.95833,13.70833 -1.95833,26.4375 0,8.69011 1.22396,15.91146 1.34635,7.09896 4.65104,12.23958 3.42708,5.14063 9.17969,8.07813 5.875,2.8151 15.05469,2.8151 14.80989,0 27.41666,-6.60937 12.60677,-6.60938 21.41927,-18.48177 z"
       style="font-style:normal;font-variant:normal;font-weight:normal;font-stretch:normal;font-size:250.66667175px;line-height:1.10000002;font-family:Lobster;-inkscape-font-specification:Lobster;fill:#ffffff;fill-opacity:1"
       id="path845" />
    <path
       d="m 423.07824,364.43699 q -7.34375,7.71094 -18.97135,13.09635 -11.6276,5.38542 -25.45833,7.71094 -1.46875,17.38021 -6.73177,31.33334 -5.14063,13.95312 -13.09636,23.74479 -7.95573,9.79166 -18.23698,15.05469 -10.28125,5.26302 -21.78646,5.26302 -8.6901,0 -16.15625,-2.08073 -7.34375,-2.20313 -12.72916,-6.85417 -5.26303,-4.77344 -8.20053,-12.23958 -3.05989,-7.58855 -3.05989,-18.35938 0,-7.34375 1.59114,-16.64583 1.46875,-9.42448 4.77344,-19.33854 3.42709,-9.91407 8.69011,-19.33855 5.38541,-9.54687 12.97395,-17.01302 7.71094,-7.46614 17.7474,-11.99479 10.03646,-4.65104 22.88802,-4.65104 32.19011,0 32.19011,40.02344 v 0.24479 q 0.61198,0.24479 1.10156,0.24479 0.61198,0 1.59115,0 4.40625,0 9.42448,-1.22396 5.14062,-1.34635 10.28125,-3.42708 5.14062,-2.08073 10.03645,-4.77344 4.89584,-2.8151 8.9349,-5.63021 z m -65.23698,21.54167 q -3.91666,-0.97917 -5.38541,-3.79427 -1.34636,-2.9375 -1.34636,-6.73178 0,-5.26302 2.08073,-8.5677 2.20313,-3.42709 5.75261,-5.01823 -0.24479,-4.03907 -0.85677,-6.73177 -0.61198,-2.81511 -1.71355,-4.52865 -1.10156,-1.83594 -2.8151,-2.57031 -1.59115,-0.73438 -4.16146,-0.73438 -4.52864,0 -8.6901,3.54948 -4.16146,3.42709 -7.95573,9.17969 -3.67188,5.7526 -6.85417,13.21875 -3.05989,7.34375 -5.26302,15.17708 -2.20312,7.83334 -3.42708,15.54427 -1.22396,7.58855 -1.22396,13.83073 0,6.24219 0.61198,10.15886 0.73437,3.91666 2.20312,6.24219 1.59115,2.20312 4.03907,3.05989 2.44791,0.85677 5.99739,0.85677 4.52865,0 9.05729,-4.03906 4.65104,-4.03906 8.56771,-11.01563 3.91667,-6.97656 6.85417,-16.52343 3.05989,-9.54688 4.52864,-20.5625 z"
       style="font-style:normal;font-variant:normal;font-weight:normal;font-stretch:normal;font-size:250.66667175px;line-height:1.10000002;font-family:Lobster;-inkscape-font-specification:Lobster;fill:#ffffff;fill-opacity:1"
       id="path847" />
    <path
       d="m 504.71627,344.36407 -28.39584,135.3698 q -2.69271,13.46354 -7.95573,21.78646 -5.14062,8.32291 -11.50521,12.97395 -6.36458,4.65105 -13.21875,6.24219 -6.85416,1.59115 -12.97396,1.59115 -10.77083,0 -17.3802,-4.28386 -6.60938,-4.16146 -9.66928,-11.50521 -3.67187,4.77344 -7.95572,7.83334 -4.16146,3.05989 -8.56771,4.77344 -4.40625,1.83593 -8.8125,2.44791 -4.52865,0.73438 -8.69011,0.73438 -5.63021,0 -10.89323,-1.95834 -5.38541,-1.95833 -9.54687,-5.50781 -4.16146,-3.54948 -6.60938,-8.56771 -2.57031,-4.89583 -2.57031,-11.01562 0,-8.69011 3.42708,-14.6875 3.30469,-5.875 9.17969,-10.15886 5.875,-4.16146 13.83073,-7.09896 7.83333,-2.9375 16.89063,-5.6302 l 30.10937,-143.20313 q 2.69271,-13.46354 7.83334,-21.78646 5.26302,-8.32292 11.6276,-12.97396 6.36458,-4.65104 13.21875,-6.24219 6.85417,-1.59114 12.97396,-1.59114 4.16146,0 8.20052,1.10156 4.16146,1.10156 7.58854,3.18229 3.54948,1.95834 6.36458,4.89584 2.81511,2.9375 4.65105,6.60937 3.79427,-4.77344 8.07812,-7.83333 4.28386,-3.0599 8.69011,-4.77344 4.40625,-1.83594 8.8125,-2.44792 4.52864,-0.73437 8.6901,-0.73437 5.63021,0 10.89323,1.95833 5.38542,1.95833 9.54687,5.50781 4.16146,3.54948 6.60938,8.56771 2.57031,4.89584 2.57031,11.01563 0,5.875 -0.73437,10.28125 h -11.75 q 0.24479,-2.08073 0.36718,-3.54948 0.1224,-1.46875 0.1224,-3.18229 0,-4.28386 -2.9375,-6.36459 -2.8151,-2.20312 -6.60937,-2.20312 -2.08073,0 -4.40625,0.73437 -2.32553,0.73438 -4.65105,2.9375 -2.32552,2.08073 -4.40625,5.9974 -2.08073,3.91667 -3.54948,10.15885 l -4.52864,20.5625 h 25.09114 l -2.32552,10.03646 z m -36.35157,0 h -24.84635 l -22.27604,105.9948 25.70312,-4.52865 z m -22.64323,107.58594 -25.82552,4.65104 -4.77344,23.13282 q -0.97916,4.28385 -2.20312,8.20052 -1.22396,3.91666 -2.57031,7.09896 1.71354,3.05989 5.50781,4.03906 3.91667,0.97917 9.05729,0.97917 1.95833,0 4.03906,-0.97917 2.08073,-0.85677 4.03907,-3.18229 2.08072,-2.20313 3.79427,-5.9974 1.71354,-3.79427 2.9375,-9.42448 z m 28.88542,-137.45052 1.46875,-6.48698 q 0.24479,-1.46875 0.36719,-2.69271 0.12239,-1.34635 0.12239,-2.8151 0,-4.28386 -2.9375,-6.36459 -2.8151,-2.20312 -6.60937,-2.20312 -2.08073,0 -4.40625,0.73437 -2.32552,0.73438 -4.65104,2.9375 -2.32553,2.08073 -4.40625,5.9974 -2.08073,3.91667 -3.54948,10.15885 l -4.52865,20.5625 h 24.84636 z M 383.0548,465.90314 q -5.875,1.95833 -10.89323,4.28385 -5.14062,2.44792 -8.8125,5.50781 -3.79427,3.1823 -5.875,7.09896 -2.20312,3.91667 -2.20312,8.9349 0,1.46875 0.73437,2.9375 0.73438,1.46875 2.08073,2.57031 1.34636,1.22396 3.1823,1.95833 1.83593,0.85678 4.03906,0.85678 1.95833,0 4.03906,-0.97917 2.08073,-0.85677 4.16146,-3.18229 1.95833,-2.20313 3.67187,-5.9974 1.71355,-3.79427 2.9375,-9.42448 z"
       style="font-style:normal;font-variant:normal;font-weight:normal;font-stretch:normal;font-size:250.66667175px;line-height:1.10000002;font-family:Lobster;-inkscape-font-specification:Lobster;fill:#ffffff;fill-opacity:1"
       id="path849" />
    <path
       d="m 624.41941,414.74168 q -5.26302,8.8125 -12.11719,17.13541 -6.73177,8.32292 -15.29948,14.8099 -8.44531,6.48698 -18.84896,10.52604 -10.28125,3.91667 -22.64323,3.91667 -8.93489,0 -16.15625,-2.20313 -7.22135,-2.32552 -12.36198,-7.09895 -5.14062,-4.77344 -7.83333,-12.23959 -2.8151,-7.58854 -2.8151,-18.23698 0,-7.22135 1.46875,-16.64583 1.46875,-9.42448 4.65104,-19.33854 3.18229,-9.91407 8.44531,-19.46094 5.26302,-9.54688 12.72917,-17.01302 7.46614,-7.58854 17.5026,-12.11719 10.03646,-4.65104 22.88802,-4.65104 8.44532,0 13.70834,2.08073 5.38541,1.95833 8.44531,5.26302 3.18229,3.30469 4.28386,7.71094 1.22395,4.28385 1.22395,8.93489 0,10.89323 -4.77343,20.31771 -4.77344,9.30208 -12.85157,16.27865 -7.95573,6.97656 -18.35937,11.26041 -10.40365,4.28386 -21.66407,5.01823 -0.24479,2.81511 -0.48958,5.38542 -0.12239,2.44792 -0.12239,4.65104 0,6.36459 1.10156,10.52604 1.22396,4.03907 3.42708,6.36459 2.32552,2.32552 5.63021,3.30469 3.42708,0.85677 7.95573,0.85677 7.46615,0 13.46354,-1.95834 6.11979,-1.95833 11.38281,-5.38541 5.26302,-3.42709 9.91407,-8.07813 4.77343,-4.65104 9.54687,-9.91406 z m -68.41927,-17.7474 q 7.09896,-0.48958 13.70833,-4.03906 6.60938,-3.54948 11.62761,-9.17969 5.01823,-5.7526 7.95573,-12.97396 3.05989,-7.34375 3.05989,-15.17708 0,-4.65104 -1.34635,-7.46615 -1.34636,-2.8151 -4.89584,-2.8151 -4.77343,0 -9.42448,4.65104 -4.52864,4.52865 -8.5677,11.8724 -4.03907,7.34375 -7.22136,16.64583 -3.05989,9.17969 -4.89583,18.48177 z"
       style="font-style:normal;font-variant:normal;font-weight:normal;font-stretch:normal;font-size:250.66667175px;line-height:1.10000002;font-family:Lobster;-inkscape-font-specification:Lobster;fill:#ffffff;fill-opacity:1"
       id="path851" />
    <path
       d="m 694.797,424.04376 q -1.95833,10.89323 -6.11979,17.99219 -4.16146,7.09896 -9.91406,11.38281 -5.75261,4.28386 -12.72917,5.9974 -6.97656,1.71354 -14.5651,1.71354 -8.8125,0 -16.03386,-2.20313 -7.09896,-2.32552 -12.23958,-7.09895 -5.01823,-4.77344 -7.83333,-12.23959 -2.81511,-7.58854 -2.81511,-18.23698 0,-7.22135 1.46875,-16.64583 1.46875,-9.42448 4.65104,-19.33854 3.1823,-9.91407 8.44532,-19.46094 5.26302,-9.54688 12.72916,-17.01302 7.46615,-7.58854 17.50261,-12.11719 10.03646,-4.65104 22.88802,-4.65104 8.44531,0 13.70833,2.08073 5.38542,1.95833 8.44532,5.26302 3.18229,3.30469 4.28385,7.71094 1.22396,4.28385 1.22396,8.93489 0,10.89323 -4.77344,20.31771 -4.77344,9.30208 -12.85156,16.27865 -7.95573,6.97656 -18.35938,11.26041 -10.40364,4.28386 -21.66406,5.01823 -0.24479,2.08073 -0.48958,4.03907 -0.1224,1.83593 -0.1224,3.54948 0,5.99739 1.22396,10.03645 1.22396,4.03907 3.30469,6.48698 2.08073,2.32552 4.89583,3.30469 2.8151,0.97917 6.11979,0.97917 3.67188,0 7.58854,-1.10156 4.03907,-1.10157 7.83334,-2.9375 3.91666,-1.83594 7.58854,-4.16146 3.67187,-2.44792 6.60937,-5.14063 z m -42.83854,-27.04948 q 7.22136,-0.24479 13.83073,-3.79427 6.60938,-3.67187 11.62761,-9.30208 5.14062,-5.75261 8.07812,-13.09636 3.0599,-7.34375 3.0599,-15.17708 0,-4.65104 -1.34636,-7.46615 -1.34635,-2.8151 -4.89583,-2.8151 -4.77344,0 -9.42448,4.77344 -4.52865,4.65104 -8.56771,12.11718 -3.91667,7.46615 -7.22135,16.64584 -3.1823,9.17969 -5.14063,18.11458 z"
       style="font-style:normal;font-variant:normal;font-weight:normal;font-stretch:normal;font-size:250.66667175px;line-height:1.10000002;font-family:Lobster;-inkscape-font-specification:Lobster;fill:#ffffff;fill-opacity:1"
       id="path853" />
    <path
       d="m 901.64595,459.66095 16.03386,-112.60417 -47.1224,112.60417 h -34.39323 l 5.01823,-113.09375 -41.85938,113.09375 h -20.07291 l 63.64583,-172.21094 q -18.72656,6.24219 -29.2526,20.5625 -10.52604,14.19792 -10.52604,35.86198 0,5.01823 0.48958,8.07812 0.61198,2.9375 1.22396,4.77344 0.61198,1.71354 1.10156,2.69271 0.61198,0.85677 0.61198,1.71354 -6.11979,0 -11.13802,-1.22396 -4.89584,-1.22395 -8.44532,-3.91666 -3.42708,-2.69271 -5.38541,-6.97657 -1.83594,-4.40625 -1.83594,-10.64843 0,-7.95573 3.18229,-16.03386 3.30469,-8.07812 8.9349,-15.42187 5.7526,-7.46615 13.46354,-13.83073 7.71094,-6.48698 16.52344,-11.26042 8.93489,-4.77344 18.48177,-7.46615 9.66927,-2.6927 19.21615,-2.6927 9.42447,0 18.97135,3.54948 l -5.7526,132.0651 55.20052,-132.0651 h 36.10677 l -26.31511,184.45052 z"
       style="font-style:normal;font-variant:normal;font-weight:normal;font-stretch:normal;font-size:250.66667175px;line-height:1.10000002;font-family:Lobster;-inkscape-font-specification:Lobster;fill:#ffffff;fill-opacity:1"
       id="path855" />
    <path
       d="m 1102.1304,414.74168 q -3.5495,10.15885 -7.711,17.625 -4.1614,7.46614 -8.6901,12.60677 -4.4062,5.14062 -9.0573,8.32292 -4.651,3.18229 -9.0573,4.89583 -4.4062,1.71354 -8.4453,2.32552 -4.039,0.61198 -7.3437,0.61198 -10.6485,0 -17.013,-5.7526 -6.2422,-5.875 -7.5886,-17.25782 -3.0599,4.28386 -6.7318,8.44532 -3.6718,4.03906 -8.2005,7.34375 -4.5286,3.18229 -10.1588,5.26302 -5.50784,1.95833 -12.23961,1.95833 -6.48698,0 -12.48438,-2.08073 -5.99739,-2.08073 -10.64844,-6.85417 -4.65104,-4.77343 -7.46614,-12.48437 -2.81511,-7.71094 -2.81511,-18.84896 0,-8.56771 1.71355,-18.35938 1.71354,-9.79166 5.26302,-19.58333 3.54948,-9.79167 8.8125,-18.72656 5.38541,-9.05729 12.48437,-15.91146 7.22136,-6.97656 16.27864,-11.01563 9.0573,-4.16145 19.9505,-4.16145 10.6485,0 15.4219,3.67187 4.8958,3.67188 4.8958,9.05729 v 1.83594 l 2.6927,-13.34115 h 36.1068 l -17.9922,85.18751 q -0.6119,2.08072 -0.8567,4.16145 -0.2448,1.95834 -0.2448,3.91667 0,10.77083 10.2812,10.77083 3.6719,0 6.7318,-1.83593 3.1823,-1.95834 5.7526,-5.14063 2.5703,-3.18229 4.5286,-7.46614 1.9584,-4.40625 3.3047,-9.17969 z m -63.1563,-56.54688 q 0,-1.10156 -0.4896,-2.69271 -0.4895,-1.71354 -1.7135,-3.18229 -1.1016,-1.59114 -3.0599,-2.57031 -1.9583,-1.10156 -5.0182,-1.10156 -5.2631,0 -10.0365,3.42708 -4.651,3.42708 -8.5677,9.17969 -3.9167,5.63021 -6.9766,12.85156 -3.0599,7.22135 -5.26298,14.93229 -2.08073,7.58854 -3.18229,15.05469 -1.10157,7.34375 -1.10157,13.21875 0,7.22135 1.34636,11.13802 1.34635,3.91667 3.18229,5.875 1.95829,1.83594 4.16149,2.20313 2.2031,0.36718 3.9166,0.36718 2.8151,0 5.875,-1.34635 3.1823,-1.46875 5.9974,-4.16146 2.9375,-2.8151 5.2631,-6.97656 2.4479,-4.16146 3.6718,-9.66927 z"
       style="font-style:normal;font-variant:normal;font-weight:normal;font-stretch:normal;font-size:250.66667175px;line-height:1.10000002;font-family:Lobster;-inkscape-font-specification:Lobster;fill:#ffffff;fill-opacity:1"
       id="path857" />
    <path
       d="m 1231.8699,414.74168 q -5.263,15.78906 -11.6276,25.09114 -6.2422,9.17969 -12.4844,13.95313 -6.2422,4.65104 -12.1172,5.9974 -5.7526,1.34635 -9.914,1.34635 -15.6667,0 -23.6224,-7.34375 -7.9557,-7.46615 -7.9557,-21.17448 0,-5.875 1.4687,-13.09635 l 2.0807,-9.79167 q 0.612,-2.44792 0.7344,-4.77344 0.2448,-2.32552 0.2448,-4.40625 0,-5.50781 -1.9583,-8.8125 -1.9584,-3.30469 -7.099,-3.30469 -4.2838,0 -8.8125,2.57032 -4.4062,2.44791 -9.6693,6.73177 l -13.0963,61.93229 h -36.1068 l 36.3516,-170.4974 37.0859,-5.01823 -18.7265,88.2474 48.3463,-38.06511 h 24.8464 l -50.1823,34.88282 q 4.1614,-1.10157 8.3229,-1.10157 6.9765,0 12.1172,2.32553 5.263,2.32552 8.6901,6.36458 3.4271,4.03906 5.0182,9.42448 1.7135,5.26302 1.7135,11.26042 0,2.32552 -0.2447,4.77343 -0.1224,2.32552 -0.7344,4.77344 l -2.8151,12.48438 q -0.612,2.08072 -0.9792,4.03906 -0.2448,1.95833 -0.2448,4.03906 0,3.79427 1.9584,6.60938 1.9583,2.6927 7.8333,2.6927 4.039,0 7.0989,-1.59114 3.0599,-1.59115 5.5079,-4.52865 2.4479,-2.9375 4.4062,-6.97656 2.0807,-4.16146 4.0391,-9.05729 z"
       style="font-style:normal;font-variant:normal;font-weight:normal;font-stretch:normal;font-size:250.66667175px;line-height:1.10000002;font-family:Lobster;-inkscape-font-specification:Lobster;fill:#ffffff;fill-opacity:1"
       id="path859" />
    <path
       d="m 1325.9923,414.74168 q -5.263,8.8125 -12.1171,17.13541 -6.7318,8.32292 -15.2995,14.8099 -8.4453,6.48698 -18.849,10.52604 -10.2812,3.91667 -22.6432,3.91667 -8.9349,0 -16.1563,-2.20313 -7.2213,-2.32552 -12.3619,-7.09895 -5.1407,-4.77344 -7.8334,-12.23959 -2.8151,-7.58854 -2.8151,-18.23698 0,-7.22135 1.4688,-16.64583 1.4687,-9.42448 4.651,-19.33854 3.1823,-9.91407 8.4453,-19.46094 5.263,-9.54688 12.7292,-17.01302 7.4661,-7.58854 17.5026,-12.11719 10.0365,-4.65104 22.888,-4.65104 8.4453,0 13.7084,2.08073 5.3854,1.95833 8.4453,5.26302 3.1823,3.30469 4.2838,7.71094 1.224,4.28385 1.224,8.93489 0,10.89323 -4.7735,20.31771 -4.7734,9.30208 -12.8515,16.27865 -7.9557,6.97656 -18.3594,11.26041 -10.4036,4.28386 -21.6641,5.01823 -0.2447,2.81511 -0.4895,5.38542 -0.1224,2.44792 -0.1224,4.65104 0,6.36459 1.1015,10.52604 1.224,4.03907 3.4271,6.36459 2.3255,2.32552 5.6302,3.30469 3.4271,0.85677 7.9557,0.85677 7.4662,0 13.4636,-1.95834 6.1198,-1.95833 11.3828,-5.38541 5.263,-3.42709 9.9141,-8.07813 4.7734,-4.65104 9.5468,-9.91406 z m -68.4192,-17.7474 q 7.0989,-0.48958 13.7083,-4.03906 6.6094,-3.54948 11.6276,-9.17969 5.0182,-5.7526 7.9557,-12.97396 3.0599,-7.34375 3.0599,-15.17708 0,-4.65104 -1.3463,-7.46615 -1.3464,-2.8151 -4.8958,-2.8151 -4.7735,0 -9.4245,4.65104 -4.5287,4.52865 -8.5677,11.8724 -4.0391,7.34375 -7.2214,16.64583 -3.0599,9.17969 -4.8958,18.48177 z"
       style="font-style:normal;font-variant:normal;font-weight:normal;font-stretch:normal;font-size:250.66667175px;line-height:1.10000002;font-family:Lobster;-inkscape-font-specification:Lobster;fill:#ffffff;fill-opacity:1"
       id="path861" />
    <path
       d="m 1308.1225,459.66095 26.5599,-125.33334 h 36.1068 l -3.1823,15.54427 q 3.3047,-2.9375 6.7318,-5.7526 3.427,-2.8151 7.0989,-4.89583 3.7943,-2.20313 7.8334,-3.54948 4.039,-1.34636 8.5677,-1.34636 4.2838,0 7.4661,1.59115 3.3047,1.59115 5.5078,4.16146 2.2031,2.57031 3.3047,5.99739 1.1016,3.42709 1.1016,7.09896 0,3.30469 -1.1016,6.60938 -1.1016,3.18229 -3.4271,5.7526 -2.2031,2.57031 -5.6302,4.28386 -3.4271,1.59114 -7.9557,1.59114 -3.5495,0 -5.5078,-1.22396 -1.836,-1.22395 -2.8151,-3.05989 -0.9792,-1.83594 -1.4688,-3.91667 -0.3672,-2.20312 -0.8568,-4.03906 -0.4895,-1.83594 -1.3463,-3.0599 -0.7344,-1.22396 -2.5703,-1.22396 -5.7526,0 -9.6693,2.69271 -3.9167,2.57032 -8.5677,6.85417 l -20.0729,95.22396 z"
       style="font-style:normal;font-variant:normal;font-weight:normal;font-stretch:normal;font-size:250.66667175px;line-height:1.10000002;font-family:Lobster;-inkscape-font-specification:Lobster;fill:#ffffff;fill-opacity:1"
       id="path863" />
    <path
       d="m 745.46887,742.12607 q -2.57031,6.48697 -5.38542,10.64843 -2.8151,4.28386 -5.99739,6.60938 -3.18229,2.44792 -6.85417,3.30469 -3.54948,0.97916 -7.58854,0.97916 -8.32292,0 -13.83073,-2.69271 -5.38542,-2.57031 -8.9349,-6.97656 -3.42708,-4.28385 -5.63021,-9.66927 -2.08072,-5.38542 -3.91666,-10.89323 -5.50781,1.71354 -11.26042,2.57031 -5.7526,0.85677 -11.99479,0.85677 -9.91406,0 -18.11458,-2.6927 -8.20053,-2.69271 -14.19792,-8.69011 -5.9974,-5.99739 -9.30208,-15.54427 -3.30469,-9.66927 -3.30469,-23.3776 0,-10.15886 1.83594,-22.76563 1.95833,-12.72917 5.7526,-25.70312 3.79427,-13.09636 9.42448,-25.58073 5.7526,-12.48438 13.21875,-22.15365 7.58854,-9.66927 17.01302,-15.54427 9.42448,-5.875 20.6849,-5.875 3.18229,0 6.36458,0.36719 3.18229,0.36718 6.73177,1.71354 -5.7526,3.42708 -11.26042,10.77083 -5.38541,7.22135 -10.28125,17.01302 -4.89583,9.66927 -9.05729,21.17448 -4.03906,11.38281 -7.09896,23.25521 -2.9375,11.75 -4.65104,23.25521 -1.59114,11.38281 -1.59114,21.05208 0,3.0599 -0.1224,5.75261 0,2.57031 0.61198,5.01823 4.65104,-1.10157 8.44531,-1.71355 3.91667,-0.61197 7.09896,-0.61197 6.60938,0 11.38281,1.95833 4.77344,1.83594 8.69011,4.89583 6.24218,-8.07812 11.87239,-19.58333 5.63021,-11.62761 9.79167,-24.96875 4.28385,-13.34115 6.73177,-27.53907 2.44792,-14.32031 2.44792,-27.90625 0,-10.89322 -1.34636,-19.09375 -1.22395,-8.32291 -4.77343,-13.83073 -3.54948,-5.50781 -9.79167,-8.20052 -6.24219,-2.8151 -16.15625,-2.8151 -14.32031,0 -27.41667,4.52865 -13.09635,4.40625 -23.13281,12.85156 -9.91406,8.32291 -15.78906,20.31771 -5.875,11.87239 -5.875,26.80468 0,3.67188 0.36718,5.9974 0.48959,2.20313 0.85677,3.67188 0.48959,1.34635 0.85678,2.20312 0.48958,0.85677 0.48958,1.59115 -11.99479,0 -18.72656,-4.77344 -6.60938,-4.77344 -6.60938,-16.27865 0,-8.8125 3.79427,-17.25781 3.79427,-8.44531 10.64844,-16.03385 6.85417,-7.71094 16.15625,-14.07553 9.42448,-6.48697 20.6849,-11.13802 11.26041,-4.65104 23.86718,-7.22135 12.60677,-2.69271 25.82552,-2.69271 16.52344,0 27.78386,4.77344 11.38281,4.77344 18.35938,13.34114 6.97656,8.44532 10.03645,20.31771 3.1823,11.75 3.1823,25.70313 0,8.8125 -1.22396,18.72656 -1.22396,9.91406 -3.79427,20.19531 -2.44792,10.15886 -6.36459,20.44011 -3.91666,10.15885 -9.30208,19.58333 -5.26302,9.30209 -12.11719,17.50261 -6.73177,8.20052 -15.05469,14.44271 2.69271,4.03906 5.75261,7.71093 3.05989,3.67188 6.73177,6.36459 3.67187,2.8151 8.32292,4.40625 4.65104,1.71354 10.52604,1.71354 1.34635,0 2.69271,-0.1224 1.34635,-0.12239 2.8151,-0.36718 z m -65.11458,-28.27344 q -2.32553,-3.79427 -5.63021,-6.11979 -3.30469,-2.44792 -8.69011,-2.44792 -1.71354,0 -3.54948,0.24479 -1.83593,0.1224 -3.67187,0.73438 3.30469,10.28125 11.99479,10.28125 2.32552,0 4.77344,-0.61198 2.44791,-0.61198 4.77344,-2.08073 z"
       style="font-style:normal;font-variant:normal;font-weight:normal;font-stretch:normal;font-size:250.66667175px;line-height:1.10000002;font-family:Lobster;-inkscape-font-specification:Lobster;fill:#ffffff;fill-opacity:1"
       id="path865" />
    <path
       d="m 896.13816,690.47502 q -3.54948,10.15886 -7.71094,17.625 -4.16146,7.46615 -8.6901,12.60677 -4.40625,5.14063 -9.05729,8.32292 -4.65104,3.18229 -9.05729,4.89583 -4.40625,1.71355 -8.44532,2.32553 -4.03906,0.61197 -7.34375,0.61197 -10.77083,0 -17.13541,-5.875 -6.36459,-5.99739 -7.71094,-17.86979 -4.77344,7.71094 -9.66927,12.36198 -4.89584,4.65104 -9.66927,7.22136 -4.77344,2.57031 -9.30209,3.30468 -4.52864,0.85677 -8.44531,0.85677 -5.63021,0 -10.52604,-1.71354 -4.89584,-1.71354 -8.56771,-5.38541 -3.54948,-3.67188 -5.63021,-9.30209 -2.08073,-5.63021 -2.08073,-13.58594 0,-3.42708 0.48958,-7.46614 0.48959,-4.16146 1.46875,-8.9349 l 17.01303,-80.41406 h 36.10677 l -17.99219,85.1875 q -0.73438,3.91667 -0.73438,7.09896 0,4.28385 1.59115,7.34375 1.59115,2.9375 5.875,2.9375 3.67188,0 6.73177,-1.59115 3.0599,-1.71354 5.50781,-4.65104 2.57032,-2.9375 4.40625,-6.97656 1.95834,-4.16146 3.42709,-8.9349 l 17.01302,-80.41406 h 36.10677 l -17.99219,85.1875 q -0.61198,2.08073 -0.85677,4.16146 -0.24479,1.95833 -0.24479,3.91667 0,5.26302 2.44792,7.34375 2.57031,1.95833 7.83333,1.95833 3.67188,0 6.73177,-1.59115 3.18229,-1.71354 5.75261,-4.65104 2.57031,-2.9375 4.52864,-6.97656 1.95833,-4.16146 3.30469,-8.9349 z"
       style="font-style:normal;font-variant:normal;font-weight:normal;font-stretch:normal;font-size:250.66667175px;line-height:1.10000002;font-family:Lobster;-inkscape-font-specification:Lobster;fill:#ffffff;fill-opacity:1"
       id="path867" />
    <path
       d="m 990.62772,690.47502 q -5.26302,8.8125 -12.11718,17.13542 -6.73178,8.32292 -15.29948,14.8099 -8.44532,6.48698 -18.84896,10.52604 -10.28125,3.91666 -22.64323,3.91666 -8.9349,0 -16.15625,-2.20312 -7.22136,-2.32552 -12.36198,-7.09896 -5.14063,-4.77344 -7.83334,-12.23958 -2.8151,-7.58854 -2.8151,-18.23698 0,-7.22136 1.46875,-16.64584 1.46875,-9.42448 4.65104,-19.33854 3.18229,-9.91406 8.44531,-19.46094 5.26303,-9.54687 12.72917,-17.01302 7.46615,-7.58854 17.50261,-12.11718 10.03645,-4.65105 22.88802,-4.65105 8.44531,0 13.70833,2.08073 5.38542,1.95834 8.44531,5.26302 3.1823,3.30469 4.28386,7.71094 1.22396,4.28386 1.22396,8.9349 0,10.89323 -4.77344,20.31771 -4.77344,9.30208 -12.85156,16.27864 -7.95573,6.97657 -18.35938,11.26042 -10.40365,4.28385 -21.66406,5.01823 -0.24479,2.8151 -0.48959,5.38542 -0.12239,2.44791 -0.12239,4.65104 0,6.36458 1.10156,10.52604 1.22396,4.03906 3.42708,6.36458 2.32553,2.32552 5.63021,3.30469 3.42709,0.85677 7.95573,0.85677 7.46615,0 13.46354,-1.95833 6.1198,-1.95834 11.38282,-5.38542 5.26302,-3.42708 9.91406,-8.07812 4.77344,-4.65105 9.54687,-9.91407 z m -68.41927,-17.74739 q 7.09896,-0.48959 13.70833,-4.03907 6.60938,-3.54948 11.62761,-9.17968 5.01823,-5.75261 7.95573,-12.97396 3.05989,-7.34375 3.05989,-15.17709 0,-4.65104 -1.34635,-7.46614 -1.34635,-2.81511 -4.89583,-2.81511 -4.77344,0 -9.42448,4.65105 -4.52865,4.52864 -8.56771,11.87239 -4.03906,7.34375 -7.22136,16.64584 -3.05989,9.17968 -4.89583,18.48177 z"
       style="font-style:normal;font-variant:normal;font-weight:normal;font-stretch:normal;font-size:250.66667175px;line-height:1.10000002;font-family:Lobster;-inkscape-font-specification:Lobster;fill:#ffffff;fill-opacity:1"
       id="path869" />
    <path
       d="m 1088.5444,690.47502 q -9.7917,11.38282 -19.7057,18.84896 -9.7917,7.34375 -18.6042,12.48438 -3.9167,4.16146 -8.8125,7.09896 -4.7734,2.8151 -10.0364,4.65104 -5.1407,1.71354 -10.5261,2.44791 -5.263,0.85677 -10.0364,0.85677 -9.4245,0 -16.40109,-2.8151 -6.85416,-2.9375 -11.38281,-7.46615 -4.52865,-4.65104 -6.60938,-10.28125 -2.20312,-5.7526 -2.20312,-11.5052 0,-4.40625 1.22396,-8.07813 1.10156,-3.79427 2.9375,-6.73177 1.83594,-2.9375 4.16146,-5.01823 2.44791,-2.20312 5.01823,-3.42708 10.52604,-18.84896 17.74735,-37.20834 7.2214,-18.48177 13.0964,-37.08594 l 37.0859,-4.89583 q 0.7344,16.27865 1.3464,28.27344 0.7344,11.8724 1.3463,20.6849 0.612,8.6901 1.1016,14.80989 0.4896,6.11979 0.8568,10.89323 0.4896,4.65104 0.612,8.56771 0.2447,3.79427 0.2447,7.95573 0,2.8151 -0.2447,5.14062 -0.1224,2.32552 -0.7344,4.40625 5.5078,-3.18229 9.914,-6.24218 4.5287,-3.1823 8.0782,-6.36459 z m -100.97655,9.05729 q 0,8.8125 3.42708,13.21875 3.54948,4.28386 11.87237,4.28386 4.1615,0 8.0782,-1.10156 3.9166,-1.22396 6.9765,-3.91667 3.0599,-2.8151 4.8958,-7.22135 1.836,-4.40625 1.836,-11.01563 0,-3.18229 -0.2448,-6.11979 -0.1224,-3.0599 -0.3672,-6.36458 -0.2448,-3.42709 -0.7344,-7.58855 -0.3672,-4.16146 -0.9791,-9.66927 -0.4896,-5.50781 -1.1016,-12.72916 -0.612,-7.22136 -1.3464,-16.89063 -3.7942,12.23958 -8.9348,23.74479 -5.1407,11.50521 -11.38286,23.6224 2.44796,1.34635 4.03906,3.42708 1.7135,2.08073 1.7135,5.26302 0,2.32552 -0.7343,4.52865 -0.7344,2.20312 -2.2032,4.03906 -1.4687,1.71354 -3.54944,2.81511 -1.95833,0.97916 -4.52864,0.97916 -2.08073,0 -3.91667,-0.61198 -1.83594,-0.61198 -2.8151,-2.69271 z"
       style="font-style:normal;font-variant:normal;font-weight:normal;font-stretch:normal;font-size:250.66667175px;line-height:1.10000002;font-family:Lobster;-inkscape-font-specification:Lobster;fill:#ffffff;fill-opacity:1"
       id="path871" />
    <path
       d="m 1094.297,620.09742 h -8.3229 l 2.0807,-10.03646 h 8.2005 l 7.5886,-34.63802 37.0859,-5.01823 q -0.612,2.44791 -1.224,5.38541 -0.6119,2.81511 -1.2239,5.9974 -1.3464,5.26302 -2.9375,12.60677 -1.4688,7.22136 -3.1823,15.66667 h 15.0547 l -1.9583,10.03646 h -15.0547 l -16.0339,75.15104 q -0.612,2.44792 -0.9792,4.77344 -0.2447,2.20312 -0.2447,4.03906 0,3.91667 1.7135,6.48698 1.8359,2.57031 6.9766,2.57031 1.3463,0 3.1822,0 1.836,-0.12239 3.4271,-0.73437 -2.8151,8.07812 -6.1198,12.97396 -3.3046,4.77343 -6.7317,7.34375 -3.4271,2.57031 -6.9766,3.30468 -3.4271,0.85677 -6.7318,0.85677 -6.7317,0 -11.5052,-2.08072 -4.7734,-2.20313 -7.8333,-5.9974 -2.9375,-3.79427 -4.2839,-8.9349 -1.4687,-5.26302 -1.4687,-11.26041 0,-6.48698 1.4687,-13.34115 z"
       style="font-style:normal;font-variant:normal;font-weight:normal;font-stretch:normal;font-size:250.66667175px;line-height:1.10000002;font-family:Lobster;-inkscape-font-specification:Lobster;fill:#ffffff;fill-opacity:1"
       id="path873" />
  </g>
  <path
     style="fill:#1eff39;fill-opacity:1;stroke-width:0.87085223"
     d="m 1255.4122,806.06273 c -12.712,-3.085 -19.4357,-10.90873 -30.6025,-35.60915 l -4.7559,-10.51963 0.5853,-10.9373 c 0.3219,-6.0155 0.9799,-12.2016 1.4622,-13.74701 0.4823,-1.54533 2.6755,-4.39284 4.8736,-6.3277 l 3.9967,-3.51798 -2.0946,-2.22965 c -1.7653,-1.87903 -2.1429,-3.29365 -2.402,-8.99912 l -0.3074,-6.76957 4.7775,-0.49308 c 6.7509,-0.69677 10.6009,-3.49063 18.4833,-13.41347 9.1671,-11.53993 11.5144,-14.01811 16.0529,-16.94792 4.8466,-3.1288 8.3251,-3.18114 14.9137,-0.22433 4.69,2.10476 5.7972,2.25019 14.7857,1.94252 9.276,-0.31751 9.8073,-0.43865 11.7309,-2.67508 2.4651,-2.86572 2.1522,-4.29487 -2.1989,-10.0438 l -3.3614,-4.44118 4.513,-3.34285 c 20.4415,-15.14116 37.8721,-20.23181 87.244,-25.47974 28.387,-3.01742 39.8137,-4.93338 51.7521,-8.6777 l 8.2095,-2.57476 2.6761,2.2596 c 3.5772,3.02012 9.03,5.43098 12.3371,5.4545 3.5832,0.0252 10.5415,-2.43395 19.1807,-6.77933 8.5206,-4.28581 16.6973,-7.13515 20.4753,-7.13515 3.6347,0 9.4367,3.4558 13.0855,7.79413 l 2.9116,3.46172 5.0531,-3.42253 c 8.7345,-5.91588 13.4469,-6.35453 36.4763,-3.39572 27.4582,3.52782 35.8314,1.76679 46.2093,-9.71853 3.2382,-3.58382 6.1479,-6.03013 7.1842,-6.04024 0.9579,-0.01 3.7409,-0.94783 6.1844,-2.0856 6.1552,-2.86606 10.7587,-8.85709 19.0965,-24.85221 3.8173,-7.32317 8.2909,-14.89279 9.9414,-16.82147 l 3.0008,-3.50657 2.8,3.3351 2.8,3.33511 3.7582,-1.6912 c 10.406,-4.68266 19.9512,-12.66916 27.9139,-23.35591 7.1448,-9.58904 10.7132,-15.95697 20.3603,-36.33387 9.0423,-19.09979 13.2681,-26.26273 20.0768,-34.03116 3.0932,-3.52931 5.1468,-7.08535 7.1747,-12.42384 1.5625,-4.11349 5.8027,-13.44903 9.4227,-20.74555 22.4729,-45.29694 30.8065,-71.17541 28.5058,-88.51886 -0.7203,-5.42998 -1.1721,-5.39519 -10.8135,0.83255 -11.1822,7.22305 -15.3764,7.86374 -20.6802,3.15912 l -3.2683,-2.89897 -31.3506,12.00413 c -37.5136,14.36388 -48.8308,19.03618 -66.5304,27.46716 -8.2711,3.93982 -13.7763,6.0991 -14.369,5.63563 -3.8204,-2.98763 -9.6292,-1.56266 -18.609,4.56475 -3.7046,2.52791 -8.5971,5.68013 -10.8722,7.00496 l -4.1365,2.40878 v 5.44509 5.44517 l -9.3617,4.85405 c -11.1844,5.79909 -18.956,8.94426 -36.2887,14.68588 -8.7586,2.90141 -13.623,4.98362 -14.9253,6.38883 -3.1065,3.35191 -8.1273,4.21318 -21.5524,3.69703 l -12.0245,-0.46234 -5.6081,5.5806 c -4.6303,4.60752 -6.1108,5.58052 -8.4917,5.58052 h -2.8838 l 0.655,-6.12977 c 2.3071,-21.59226 13.5348,-43.4456 35.1389,-68.39386 3.7016,-4.27458 15.6038,-16.72939 26.4494,-27.67737 l 19.7193,-19.90541 5.4275,5.91461 c 2.9851,3.25303 5.5568,5.74439 5.7149,5.53635 0.1582,-0.20804 2.2123,-3.12145 4.5647,-6.47423 5.2158,-7.43383 16.2598,-19.06848 23.8483,-25.12392 3.0913,-2.46677 18.9617,-13.4004 35.2673,-24.29694 l 29.6468,-19.81189 h 4.9672 c 5.6716,0 8.6,0.90697 11.1446,3.45165 1.5666,1.56651 2.2406,1.67616 5.632,0.91614 9.0815,-2.0352 21.0576,2.68177 42.5563,16.76134 l 12.0161,7.86943 2.916,-2.82634 c 2.3178,-2.24643 3.0685,-2.57506 3.6592,-1.60165 1.7701,2.91681 5.055,4.16755 10.9456,4.16755 h 5.8959 l 5.7262,-11.42712 5.7262,-11.42713 2.3354,2.22778 c 3.0668,2.92537 6.3028,4.08028 11.4327,4.08028 4.2467,0 4.7603,-0.37757 9.2319,-6.78599 0.098,-0.14004 2.3536,0.70769 5.0131,1.88383 7.8305,3.46303 12.3112,8.31197 17.7853,19.2473 2.6441,5.28182 6.4228,11.91295 8.3972,14.73586 3.372,4.82116 3.4905,5.19101 1.9528,6.09596 -3.4471,2.02884 -6.7476,5.19529 -8.147,7.81625 -1.1614,2.17537 -1.5512,6.17277 -1.9281,19.77474 -0.4642,16.75148 -0.5138,17.11078 -2.8533,20.64309 -2.2618,3.41486 -2.3019,3.65138 -0.8013,4.72309 3.9284,2.80561 4.4311,4.88756 4.129,17.09682 l -0.2869,11.5954 -3.1094,3.19959 c -6.0267,6.20169 -11.1986,19.10067 -17.1198,42.69745 -5.6471,22.50432 -8.2043,27.11845 -24.5871,44.36333 -14.0814,14.82234 -16.1174,18.02847 -18.4997,29.13201 -0.3573,1.66507 -1.0569,2.39484 -2.2962,2.39484 -2.1785,0 -4.9396,1.36985 -7.5461,3.74397 -1.6553,1.5077 -1.9594,2.68039 -1.9594,7.55464 v 5.76992 l -5.4429,1.1092 c -12.5195,2.55143 -17.7791,8.21867 -29.0199,31.26909 -9.9068,20.31489 -12.7386,23.76756 -24.2254,29.53652 -11.5528,5.80223 -16.8681,11.62291 -26.6871,29.22449 -2.0721,3.71454 -6.0411,9.59279 -8.82,13.06279 -2.7788,3.47008 -5.0591,6.75563 -5.0672,7.30131 -0.01,0.54559 0.7336,1.91718 1.6483,3.04798 1.5428,1.90734 2.3824,2.07681 11.622,2.34521 9.869,0.28677 9.9556,0.30758 9.5747,2.30001 -0.2739,1.43281 0.5545,3.04989 2.8819,5.62605 l 3.2662,3.61534 -2.8682,2.95925 -2.8683,2.95933 2.4127,2.88182 c 4.5611,5.44831 8.7654,8.33911 20.7561,14.27135 10.5556,5.22233 11.9541,6.1625 11.4953,7.72829 -0.2872,0.9805 -0.9777,5.20038 -1.5344,9.37751 -0.8572,6.43273 -0.7835,9.031 0.482,16.98162 2.1445,13.47331 2.6511,20.21919 1.9436,25.88173 -0.4842,3.87547 -0.9047,4.86415 -1.9053,4.4801 -2.0169,-0.77384 -6.6258,1.56083 -9.4821,4.8031 -1.4341,1.62797 -3.7054,3.81921 -5.0474,4.86928 l -2.44,1.90926 2.4485,1.27867 c 3.4403,1.79657 6.9102,5.65985 8.4984,9.46155 2.7715,6.63476 1.0023,18.78193 -3.2476,22.29852 -1.2226,1.01158 -1.6324,0.58626 -3.3561,-3.48341 -13.2859,-31.36897 -40.8111,-65.73706 -68.0254,-84.937 -4.9457,-3.48925 -5.0494,-3.5179 -8.4587,-2.34329 -5.8093,2.00148 -8.4153,1.11112 -23.8893,-8.16207 -12.2695,-7.35269 -17.1256,-9.2636 -19.3617,-7.61891 -1.4456,1.06331 -1.6195,2.37847 -1.5349,11.60576 l 0.095,10.40651 -4.3495,0.5152 c -5.202,0.61604 -13.2781,4.26056 -20.8154,9.39336 -3.0282,2.06218 -8.8264,5.61508 -12.8848,7.89523 l -7.379,4.14596 -2.9649,-2.81268 c -1.9351,-1.83585 -3.1024,-2.43499 -3.3611,-1.72525 -1.261,3.45981 -9.295,14.31011 -12.6028,17.02055 -8.257,6.766 -20.716,10.683 -46.1661,14.51423 -34.5575,5.2023 -40.3504,7.64608 -48.6892,20.54036 -3.2922,5.09056 -3.7284,5.44901 -5.712,4.69485 -4.5693,-1.73726 -12.6316,-0.9029 -22.9348,2.37342 -7.5983,2.41618 -11.5907,3.20352 -16.5462,3.263 -7.5519,0.0906 -9.6911,-1.03405 -13.5911,-7.14596 l -2.3871,-3.74092 -3.0163,5.71384 c -9.5152,18.02473 -19.4634,20.81598 -42.4823,11.91953 -14.8151,-5.72577 -18.1033,-6.48785 -26.2239,-6.07768 -8.1138,0.40991 -11.6557,1.95358 -17.8706,7.78838 -5.0179,4.71105 -6.7492,5.05626 -15.1432,3.01916 z m 46.4506,-59.77156 c 1.1181,-4.27562 6.3192,-13.69275 9.0076,-16.30923 3.9762,-3.86972 10.0247,-5.61055 15.7328,-4.52808 2.4029,0.45571 9.8215,3.00296 16.4857,5.66045 16.6839,6.65331 21.8145,7.84533 28.1268,6.53488 6.418,-1.33241 11.221,-5.0708 15.3547,-11.95149 l 3.2412,-5.39493 2.7369,2.82382 c 1.7383,1.79344 2.737,3.70922 2.737,5.25037 v 2.42654 l 3.2657,-2.5664 c 1.7961,-1.41148 4.5753,-3.23661 6.1761,-4.05582 1.6007,-0.81912 7.6234,-5.00461 13.3839,-9.30096 5.7604,-4.29644 12.4844,-8.85683 14.9421,-10.13428 l 4.4685,-2.32257 -5.8389,-0.61186 c -6.8853,-0.7215 -13.761,-4.09962 -17.0074,-8.35591 -2.3865,-3.1288 -7.5005,-5.14953 -10.8838,-4.30036 -1.156,0.29017 -4.726,2.84421 -7.9335,5.67561 -6.8612,6.05704 -7.2239,6.1699 -29.7463,9.26273 -9.1004,1.24967 -20.0731,3.08587 -24.3838,4.08047 -15.97,3.68457 -32.4194,10.74727 -42.7212,18.34276 -5.0339,3.7114 -13.4488,13.60132 -13.4488,15.80605 0,0.93382 11.7507,5.47862 14.6683,5.67317 0.6435,0.0427 1.3799,-0.72429 1.6364,-1.70496 z m 140.4487,-43.50124 c 0,-0.47897 -0.6858,-0.86485 -1.524,-0.85753 -1.3024,0.0113 -1.3341,0.13603 -0.2177,0.85753 1.6435,1.06209 1.7417,1.06209 1.7417,0 z m 285.1019,-391.8447 c 1.2035,-0.45759 2.8074,-1.77694 3.5642,-2.9319 1.3476,-2.05673 1.2545,-2.21843 -4.5264,-7.86106 -4.8377,-4.72194 -6.42,-5.76392 -8.7722,-5.77662 -6.736,-0.0363 -9.7285,8.9725 -4.8905,14.72219 2.0441,2.42928 2.7298,2.67938 7.3456,2.67938 2.8,0 6.0757,-0.37439 7.2793,-0.83199 z"
     id="path4518"
     inkscape:connector-curvature="0" />
</svg>
