<?xml version="1.0" encoding="UTF-8" standalone="no"?>
<svg
   xmlns:dc="http://purl.org/dc/elements/1.1/"
   xmlns:cc="http://creativecommons.org/ns#"
   xmlns:rdf="http://www.w3.org/1999/02/22-rdf-syntax-ns#"
   xmlns:svg="http://www.w3.org/2000/svg"
   xmlns="http://www.w3.org/2000/svg"
   xmlns:sodipodi="http://sodipodi.sourceforge.net/DTD/sodipodi-0.dtd"
   xmlns:inkscape="http://www.inkscape.org/namespaces/inkscape"
   width="500"
   height="500"
   version="1.1"
   id="svg3326"
   sodipodi:docname="laboon-chess.svg"
   inkscape:version="0.92.2 (5c3e80d, 2017-08-06)">
  <metadata
     id="metadata3332">
    <rdf:RDF>
      <cc:Work
         rdf:about="">
        <dc:format>image/svg+xml</dc:format>
        <dc:type
           rdf:resource="http://purl.org/dc/dcmitype/StillImage" />
        <dc:title></dc:title>
      </cc:Work>
    </rdf:RDF>
  </metadata>
  <defs
     id="defs3330" />
  <sodipodi:namedview
     pagecolor="#ffffff"
     bordercolor="#666666"
     borderopacity="1"
     objecttolerance="10"
     gridtolerance="10"
     guidetolerance="10"
     inkscape:pageopacity="0"
     inkscape:pageshadow="2"
     inkscape:window-width="1920"
     inkscape:window-height="1027"
     id="namedview3328"
     showgrid="false"
     inkscape:zoom="1.716"
     inkscape:cx="227.27273"
     inkscape:cy="250"
     inkscape:window-x="-8"
     inkscape:window-y="-8"
     inkscape:window-maximized="1"
     inkscape:current-layer="svg3326" />
  <path
     style="stroke:none;fill:#ffffff;fill-opacity:1"
     d="M 257.15625 193.15625 C 254.39483 193.15625 252.15625 195.39482 252.15625 198.15625 L 252.15625 205.66602 L 244.65625 205.66602 C 241.89483 205.66602 239.65625 207.90459 239.65625 210.66602 L 239.65625 214 C 239.65625 216.76142 241.89483 219 244.65625 219 L 252.15625 219 L 252.15625 222.30273 C 248.82563 224.45121 246.60164 228.15496 246.50781 232.39062 C 244.87938 232.54068 243.09857 232.72922 241 233 C 230.66664 234.33333 220 240.33334 218 242 C 215.99999 243.66667 218.44848 247.22929 226 261.66602 C 233.01619 275.07931 235.4295 283.52482 236.17383 297.33398 L 232.32227 297.33398 C 227.53581 297.33398 223.65625 301.21354 223.65625 306 C 223.65625 310.33195 226.83833 313.91006 230.99023 314.55273 L 230.99023 318 C 230.99023 321.50411 233.24646 324.47436 236.38281 325.55664 C 236.36484 327.50534 236.35195 329.21394 236.33398 331.33398 C 236.00064 370.66732 231.66666 401.3327 225 412.66602 C 218.33331 423.99937 212.33397 421.66731 209.33398 425.33398 C 207.20301 427.93849 207.09548 432.35262 207.20898 434.71484 C 201.30204 435.19774 196.65625 440.13453 196.65625 446.16602 C 196.65625 449.42323 198.0173 452.35879 200.19336 454.45117 C 198.05521 456.06333 196.66602 458.61587 196.66602 461.5 C 196.66602 466.37852 200.62151 470.33398 205.5 470.33398 L 312.16602 470.33398 C 317.04451 470.33398 321 466.37852 321 461.5 C 321 458.61391 319.60939 456.05923 317.46875 454.44727 C 319.64187 452.35519 321 449.42073 321 446.16602 C 321 440.25106 316.5328 435.38562 310.78906 434.74414 C 310.90477 432.38922 310.80536 427.94875 308.66602 425.33398 C 305.66602 421.66731 299.66666 423.99937 293 412.66602 C 286.33334 401.3327 281.99932 370.66732 281.66602 331.33398 C 281.64766 329.16807 281.63355 327.41887 281.61523 325.43164 C 284.57285 324.25711 286.66602 321.37594 286.66602 318 L 286.66602 314.55273 C 290.81794 313.91006 294 310.33195 294 306 C 294 301.21354 290.12047 297.33398 285.33398 297.33398 L 281.82617 297.33398 C 282.5705 283.52482 284.98381 275.07931 292 261.66602 C 299.55152 247.22929 302.00001 243.66667 300 242 C 298 240.33334 287.33333 234.33333 277 233 C 274.7379 232.70812 272.84125 232.50664 271.14648 232.35352 C 271.0403 228.12938 268.81634 224.4381 265.49023 222.29688 L 265.49023 219 L 273 219 C 275.76143 219 278 216.76142 278 214 L 278 210.66602 C 278 207.90459 275.76143 205.66602 273 205.66602 L 265.49023 205.66602 L 265.49023 198.15625 C 265.49023 195.39482 263.25163 193.15625 260.49023 193.15625 L 257.15625 193.15625 z "
     id="path3414" />
  <path
     style="stroke:none;fill:#ffffff;fill-opacity:1"
     d="M 91.5 222.66602 C 84.504382 222.66602 78.833984 228.33836 78.833984 235.33398 C 78.833984 238.40151 79.925868 241.21258 81.740234 243.4043 C 76.22794 247.05696 73.333984 252.66602 73.333984 252.66602 C 73.333984 252.66602 69.99935 249.33333 64.666016 246 C 59.332681 242.66667 53.666007 240.33335 50.666016 243 C 47.665995 245.66668 51.000675 249.99936 58.333984 261.66602 C 64.31673 271.184 66.824008 281.88817 67.818359 297.33398 L 65.322266 297.33398 C 60.535804 297.33398 56.65625 301.21354 56.65625 306 C 56.65625 310.33195 59.838332 313.91006 63.990234 314.55273 L 63.990234 318 C 63.990234 321.13241 65.79367 323.83719 68.416016 325.15039 C 68.404563 329.49369 68.37372 334.07238 68.333984 339 C 68.000645 380.33331 63.333352 402.33333 57 413 C 50.666679 423.66667 42.333958 422.99934 40.333984 427.66602 C 39.280438 430.12428 38.972963 432.84015 38.912109 434.87891 C 33.635376 435.92291 29.65625 440.5731 29.65625 446.15625 C 29.65625 449.41446 31.018085 452.3489 33.195312 454.44141 C 31.056225 456.05453 29.666016 458.60858 29.666016 461.49414 C 29.666016 466.37553 33.624477 470.33398 38.505859 470.33398 L 144.49414 470.33398 C 149.37552 470.33398 153.33398 466.37553 153.33398 461.49414 C 153.33398 458.60858 151.94378 456.05453 149.80469 454.44141 C 151.98191 452.3489 153.34375 449.41446 153.34375 446.15625 C 153.34375 440.5731 149.36462 435.92291 144.08789 434.87891 C 144.02704 432.84015 143.71956 430.12428 142.66602 427.66602 C 140.66604 422.99934 132.33332 423.66667 126 413 C 119.66668 402.33333 114.99936 380.33331 114.66602 339 C 114.62712 334.17662 114.59807 329.70625 114.58594 325.44336 C 117.55899 324.27629 119.66602 321.38705 119.66602 318 L 119.66602 314.55273 C 123.81792 313.91006 127 310.33195 127 306 C 127 301.21354 123.12044 297.33398 118.33398 297.33398 L 115.18164 297.33398 C 116.17599 281.88817 118.68327 271.184 124.66602 261.66602 C 131.99936 249.99936 135.334 245.66668 132.33398 243 C 129.33399 240.33335 123.66731 242.66667 118.33398 246 C 113.00065 249.33333 109.66602 252.66602 109.66602 252.66602 C 109.66602 252.66602 106.77127 247.05893 101.25977 243.40625 C 103.07469 241.21438 104.16602 238.40203 104.16602 235.33398 C 104.16602 228.33836 98.495619 222.66602 91.5 222.66602 z "
     id="path3397" />
  <path
     style="stroke:none;fill:#ffffff;fill-opacity:1"
     d="M 416.5 302.16602 C 401.12808 302.16602 388.66602 314.62808 388.66602 330 C 388.66602 338.20068 392.21439 345.57216 397.85742 350.66602 L 396.66602 350.66602 C 392.43185 350.66602 389 354.09979 389 358.33398 C 389 361.99523 391.56802 365.05093 395 365.8125 L 395 369 C 395 371.74035 396.37978 374.15591 398.48047 375.59766 C 398.49634 376.71271 398.49022 377.84859 398.45117 379 C 398.10072 389.33333 396.00066 406.99935 390.33398 415.66602 C 384.66731 424.33268 377.66603 426.00067 373.66602 428.33398 C 371.50225 429.59619 371.20801 432.59285 371.37891 435.09766 C 366.54632 436.45918 363 440.88822 363 446.15625 C 363 449.41196 364.35891 452.3453 366.5332 454.4375 C 364.3913 456.05041 363 458.60636 363 461.49414 C 363 466.37553 366.95648 470.33398 371.83789 470.33398 L 461.16211 470.33398 C 466.04353 470.33398 470 466.37553 470 461.49414 C 470 458.60636 468.60871 456.05041 466.4668 454.4375 C 468.64109 452.3453 470 449.41196 470 446.15625 C 470 440.88822 466.45368 436.45918 461.62109 435.09766 C 461.79198 432.59285 461.49775 429.59619 459.33398 428.33398 C 455.33397 426.00067 448.33269 424.33268 442.66602 415.66602 C 436.99935 406.99935 434.8993 389.33333 434.54883 379 C 434.50978 377.84859 434.50366 376.71271 434.51953 375.59766 C 436.62022 374.15591 438 371.74035 438 369 L 438 365.8125 C 441.43198 365.05093 444 361.99523 444 358.33398 C 444 354.09979 440.56814 350.66602 436.33398 350.66602 L 435.14258 350.66602 C 440.78562 345.57216 444.33398 338.20068 444.33398 330 C 444.33398 314.62808 431.87195 302.16602 416.5 302.16602 z "
     id="path3427" />
  <text
     xml:space="preserve"
     style="font-style:normal;font-weight:normal;font-size:40px;line-height:1.25;font-family:sans-serif;letter-spacing:0px;word-spacing:0px;fill:#ffffff;fill-opacity:1;stroke:#ffffff;stroke-opacity:1;stroke-width:1.25;stroke-miterlimit:4;stroke-dasharray:none;"
     x="248.8345"
     y="85.081589"
     id="text3347"><tspan
       sodipodi:role="line"
       id="tspan3345"
       x="248.8345"
       y="85.081589"
       style="font-style:normal;font-variant:normal;font-weight:normal;font-stretch:normal;font-size:69.33333588px;line-height:1.10000002;font-family:Raleway;-inkscape-font-specification:'Raleway, weight=250';font-variant-ligatures:normal;font-variant-caps:normal;font-variant-numeric:normal;font-feature-settings:normal;text-align:start;writing-mode:lr-tb;text-anchor:start;fill:#ffffff;fill-opacity:1;stroke:#ffffff;stroke-opacity:1;stroke-width:1.25;stroke-miterlimit:4;stroke-dasharray:none;">Laboon</tspan><tspan
       sodipodi:role="line"
       x="248.8345"
       y="161.34827"
       id="tspan3349"
       style="font-style:normal;font-variant:normal;font-weight:normal;font-stretch:normal;font-size:69.33333588px;line-height:1.10000002;font-family:Raleway;-inkscape-font-specification:'Raleway, weight=250';font-variant-ligatures:normal;font-variant-caps:normal;font-variant-numeric:normal;font-feature-settings:normal;text-align:start;writing-mode:lr-tb;text-anchor:start;fill:#ffffff;fill-opacity:1;stroke:#ffffff;stroke-opacity:1;stroke-width:1.25;stroke-miterlimit:4;stroke-dasharray:none;">Chess</tspan></text>
</svg>
