<?xml version="1.0" encoding="UTF-8" standalone="no"?>
<svg
   xmlns:dc="http://purl.org/dc/elements/1.1/"
   xmlns:cc="http://creativecommons.org/ns#"
   xmlns:rdf="http://www.w3.org/1999/02/22-rdf-syntax-ns#"
   xmlns:svg="http://www.w3.org/2000/svg"
   xmlns="http://www.w3.org/2000/svg"
   xmlns:sodipodi="http://sodipodi.sourceforge.net/DTD/sodipodi-0.dtd"
   xmlns:inkscape="http://www.inkscape.org/namespaces/inkscape"
   width="1600"
   height="1600"
   version="1.1"
   id="svg28"
   sodipodi:docname="legacy_logo.svg"
   inkscape:version="0.92.2 (5c3e80d, 2017-08-06)">
  <metadata
     id="metadata34">
    <rdf:RDF>
      <cc:Work
         rdf:about="">
        <dc:format>image/svg+xml</dc:format>
        <dc:type
           rdf:resource="http://purl.org/dc/dcmitype/StillImage" />
        <dc:title />
      </cc:Work>
    </rdf:RDF>
  </metadata>
  <defs
     id="defs32" />
  <sodipodi:namedview
     pagecolor="#ffffff"
     bordercolor="#666666"
     borderopacity="1"
     objecttolerance="10"
     gridtolerance="10"
     guidetolerance="10"
     inkscape:pageopacity="0"
     inkscape:pageshadow="2"
     inkscape:window-width="1920"
     inkscape:window-height="1027"
     id="namedview30"
     showgrid="false"
     inkscape:zoom="0.351875"
     inkscape:cx="800"
     inkscape:cy="800"
     inkscape:window-x="-8"
     inkscape:window-y="-8"
     inkscape:window-maximized="1"
     inkscape:current-layer="svg28" />
  <mask
     id="_1">
    <g
       id="g14">
      <path
         d="M 0,0 1600,0 1600,1600 0,1600 0,0 Z"
         style="stroke:none; fill:white"
         id="path10" />
      <path
         d="M 358.499908,1037.999916 C 358.499908,1037.999916 380.749893,1037.999916 391.249752,1037.999916 C 401.749802,1037.999916 421.749878,1036.249828 430.249977,1028.749847 C 438.749790,1021.249962 444.999886,1009.999847 443.499947,992.499924 C 441.999817,974.999905 434.499931,963.749886 420.249939,959.499836 C 405.999947,955.249882 391.999912,955.999947 388.249779,955.999947 C 384.499836,955.999947 358.499908,955.999947 358.499908,955.999947 C 358.499908,955.999947 358.499908,1037.999916 358.499908,1037.999916 Z M 358.499908,1143.249989 C 358.499908,1143.249989 390.249825,1143.499851 400.249863,1143.499851 C 410.249901,1143.499851 425.999832,1141.749954 435.999870,1135.749912 C 445.999908,1129.749966 453.499794,1118.999863 453.499794,1105.999851 C 453.499794,1092.999840 451.499844,1078.999901 440.499783,1071.249962 C 429.499817,1063.499928 414.499760,1061.249828 405.499935,1061.249828 C 396.499920,1061.249828 358.499908,1061.249828 358.499908,1061.249828 C 358.499908,1061.249828 358.499908,1143.249989 358.499908,1143.249989 Z"
         style="stroke:none; fill:black"
         fill-rule="nonzero"
         id="path12" />
    </g>
  </mask>
  <mask
     id="_2">
    <g
       id="g24">
      <path
         d="M 0,0 1600,0 1600,1600 0,1600 0,0 Z"
         style="stroke:none; fill:white"
         id="path20" />
      <path
         d="M 800.499916,84.999943 C 1195.245266,84.999943 1515.249920,405.004501 1515.249920,799.749851 C 1515.249920,1194.495296 1195.245266,1514.499855 800.499916,1514.499855 C 405.754375,1514.499855 85.749722,1194.495296 85.749722,799.749851 C 85.749722,405.004501 405.754375,84.999943 800.499916,84.999943 Z"
         style="stroke:none; fill:black"
         fill-rule="nonzero"
         id="path22" />
    </g>
  </mask>
  <g
     id="g3313"
     transform="matrix(0.8870387,0,0,0.8870387,90.425501,90.340788)">
    <path
       id="B"
       inkscape:label="B"
       style="fill:#ff0000;fill-rule:nonzero;stroke:none"
       mask="url(#_1)"
       d="m 331.81315,935.0625 c 0,0 42.9367,0 59.93661,0 17.00011,0 45.50009,-2.0627 62.25004,17.18731 16.75015,19.25001 16.17404,47.398 13.74999,62.75019 -2.99998,18.9999 -21.24987,31.4999 -21.24987,31.4999 0,0 11.75003,4 19.99988,14.7499 8.25005,10.7501 13.38835,22.5002 13.38835,40.7501 0,18.2499 -3.63836,28.4999 -13.13839,40.7501 -9.49983,12.2499 -17.99993,14.9998 -27.49996,18.25 -9.50003,3.2499 -27.49996,4.9374 -41.24994,4.9374 -13.74998,0 -66.18671,0 -66.18671,0 0,0 0,-230.8749 0,-230.8749 z"
       inkscape:connector-curvature="0" />
    <path
       id="H"
       inkscape:label="H"
       style="fill:#6b6b6b;fill-rule:nonzero;stroke:none"
       d="m 1121.5005,433.78115 c 0,0 26.6869,0 26.6869,0 0,0 0,230.93757 0,230.93757 0,0 -26.6869,0 -26.6869,0 0,0 0,-230.93757 0,-230.93757 z m 121.0001,0 c 0,0 26.6868,0 26.6868,0 0,0 0,230.93757 0,230.93757 0,0 -26.6868,0 -26.6868,0 0,0 0,-230.93757 0,-230.93757 z m -105.4799,102.99997 c 0,0 112.0001,0 112.0001,0 0,0 0,23.25001 0,23.25001 0,0 -112.0001,0 -112.0001,0 0,0 0,-23.25001 0,-23.25001 z"
       inkscape:connector-curvature="0" />
    <path
       id="Tranny Gate"
       inkscape:label="Tranny Gate"
       style="fill:#6b6b6b;fill-rule:nonzero;stroke:none"
       d="m 727.99988,977.49996 c 0,0 -188.50002,0 -188.50002,0 0,0 0,145.50004 0,145.50004 0,0 280.50003,0 280.50003,0 0,0 53.49988,0 53.49988,0 0,0 0,-501.00016 0,-501.00016 0,0 188.00013,0 188.00013,0 0,0 0,-145.5 0,-145.5 0,0 -333.50002,0 -333.50002,0 0,0 0,501.00012 0,501.00012 z"
       inkscape:connector-curvature="0" />
    <path
       id="Ring"
       inkscape:label="Ring"
       style="fill:#6b6b6b;fill-rule:nonzero;stroke:none"
       mask="url(#_2)"
       d="m 800.49992,44.999886 c 416.83668,0 754.74998,337.913224 754.74998,754.749964 0,416.83685 -337.9133,754.75005 -754.74998,754.75005 -416.83684,0 -754.75016,-337.9132 -754.75016,-754.75005 0,-416.83674 337.91332,-754.749964 754.75016,-754.749964 z"
       inkscape:connector-curvature="0" />
  </g>
</svg>
