<?xml version="1.0" encoding="UTF-8" standalone="no"?>
<svg
   xmlns:dc="http://purl.org/dc/elements/1.1/"
   xmlns:cc="http://creativecommons.org/ns#"
   xmlns:rdf="http://www.w3.org/1999/02/22-rdf-syntax-ns#"
   xmlns:svg="http://www.w3.org/2000/svg"
   xmlns="http://www.w3.org/2000/svg"
   xmlns:sodipodi="http://sodipodi.sourceforge.net/DTD/sodipodi-0.dtd"
   xmlns:inkscape="http://www.inkscape.org/namespaces/inkscape"
   width="800"
   height="800"
   version="1.1"
   id="svg4605"
   sodipodi:docname="triad-x3.svg"
   inkscape:version="0.92.1 r15371">
  <metadata
     id="metadata4611">
    <rdf:RDF>
      <cc:Work
         rdf:about="">
        <dc:format>image/svg+xml</dc:format>
        <dc:type
           rdf:resource="http://purl.org/dc/dcmitype/StillImage" />
        <dc:title></dc:title>
      </cc:Work>
    </rdf:RDF>
  </metadata>
  <defs
     id="defs4609" />
  <sodipodi:namedview
     pagecolor="#ffffff"
     bordercolor="#666666"
     borderopacity="1"
     objecttolerance="10"
     gridtolerance="10"
     guidetolerance="10"
     inkscape:pageopacity="0"
     inkscape:pageshadow="2"
     inkscape:window-width="1115"
     inkscape:window-height="730"
     id="namedview4607"
     showgrid="false"
     inkscape:zoom="0.51176853"
     inkscape:cx="388.83984"
     inkscape:cy="392.27374"
     inkscape:window-x="173"
     inkscape:window-y="0"
     inkscape:window-maximized="0"
     inkscape:current-layer="svg4605" />
  <path
     d="M -33.960104,-33.960104 C -33.960104,-33.960104 833.960104,-33.960104 833.960104,-33.960104 C 833.960104,-33.960104 833.960104,833.960104 833.960104,833.960104 C 833.960104,833.960104 -33.960104,833.960104 -33.960104,833.960104 C -33.960104,833.960104 -33.960104,-33.960104 -33.960104,-33.960104 Z"
     fill-rule="nonzero"
     style="stroke: none; fill: rgb(40, 30, 111)"
     inkscape:label="Shape 8 copy"
     id="Shape 8 copy" />
  <path
     style="fill:#ddc309;fill-rule:nonzero;stroke:none;fill-opacity:1"
     d="M -33.960938 -33.960938 L -33.960938 833.96094 L 833.96094 833.96094 L 833.96094 -33.960938 L -33.960938 -33.960938 z M 400 29.072266 C 413.66019 29.072266 438.87886 46.937473 447.81055 63.224609 C 456.74223 79.511793 470.92772 97.374995 481.43555 103.67969 C 491.94342 109.98438 521.36523 117.33984 534.5 119.44141 C 547.63481 121.54297 561.8203 123.11917 567.59961 119.9668 C 573.37892 116.81447 570.75194 111.03518 572.32812 98.951172 C 573.90426 86.867117 578.65513 77.897528 597.2793 68.478516 C 618.01919 57.989481 634.87474 55.869183 639.68555 49.039062 C 644.49636 42.20899 642.34773 35.904263 647.98438 34.328125 C 653.62102 32.75194 654.47851 42.208984 664.98633 42.208984 C 675.49415 42.208984 696.62246 39.582033 710.79297 37.480469 C 724.96342 35.378905 751.02836 25.396446 751.4043 41.158203 C 751.78023 56.91996 740.96004 86.341759 738.70898 102.10352 C 736.45798 117.86527 752.32507 132.57615 758.24023 151.49023 C 764.1554 170.40436 755.68949 209.28319 735.72461 221.89258 C 715.75972 234.50201 690.01567 251.83985 678.98242 260.77148 C 667.94917 269.70317 657.96674 282.31245 670.57617 295.44727 C 683.18556 308.58208 690.01562 315.41205 698.42188 323.81836 C 706.82813 332.22462 720.48821 343.25777 736.77539 352.18945 C 753.06253 361.12114 770.92578 386.33986 770.92578 400 C 770.92578 413.66019 753.06253 438.87886 736.77539 447.81055 C 720.48821 456.74223 706.82813 467.77538 698.42188 476.18164 C 690.01562 484.58795 683.18556 491.41792 670.57617 504.55273 C 657.96674 517.68755 667.94917 530.29683 678.98242 539.22852 C 690.01567 548.16015 715.75972 565.49799 735.72461 578.10742 C 755.68949 590.71681 764.1554 629.59564 758.24023 648.50977 C 752.32507 667.42385 736.45798 682.13473 738.70898 697.89648 C 740.96004 713.65824 751.78023 743.08004 751.4043 758.8418 C 751.02836 774.60355 724.96342 764.6211 710.79297 762.51953 C 696.62246 760.41797 675.49415 757.79102 664.98633 757.79102 C 654.47851 757.79102 653.62102 767.24806 647.98438 765.67188 C 642.34773 764.09574 644.49636 757.79101 639.68555 750.96094 C 634.87474 744.13082 618.01919 742.01052 597.2793 731.52148 C 578.65513 722.10247 573.90426 713.13288 572.32812 701.04883 C 570.75194 688.96482 573.37892 683.18553 567.59961 680.0332 C 561.8203 676.88083 547.63481 678.45703 534.5 680.55859 C 521.36523 682.66016 491.94342 690.01562 481.43555 696.32031 C 470.92772 702.62501 456.74223 720.48821 447.81055 736.77539 C 438.87886 753.06253 413.66015 770.92578 400 770.92578 C 386.33981 770.92578 361.12114 753.06253 352.18945 736.77539 C 343.25777 720.48821 329.07228 702.62501 318.56445 696.32031 C 308.05658 690.01562 278.63477 682.66016 265.5 680.55859 C 252.36519 678.45703 238.17971 676.88083 232.40039 680.0332 C 226.62108 683.18553 229.24806 688.96482 227.67188 701.04883 C 226.09574 713.13288 221.34487 722.10247 202.7207 731.52148 C 181.98081 742.01052 165.12526 744.13082 160.31445 750.96094 C 155.50364 757.79101 157.65227 764.09574 152.01562 765.67188 C 146.37898 767.24806 145.52149 757.79102 135.01367 757.79102 C 124.50585 757.79102 103.37753 760.41797 89.207031 762.51953 C 75.036575 764.6211 48.971641 774.60355 48.595703 758.8418 C 48.219764 743.08004 59.039963 713.65824 61.291016 697.89648 C 63.542021 682.13473 47.674931 667.42385 41.759766 648.50977 C 35.844601 629.59564 44.310505 590.71681 64.275391 578.10742 C 84.240277 565.49799 109.98433 548.16015 121.01758 539.22852 C 132.05083 530.29683 142.03326 517.68755 129.42383 504.55273 C 116.81444 491.41792 109.98438 484.58795 101.57812 476.18164 C 93.171867 467.77538 79.511793 456.74223 63.224609 447.81055 C 46.937473 438.87886 29.072266 413.66015 29.072266 400 C 29.072266 386.33981 46.937473 361.12114 63.224609 352.18945 C 79.511793 343.25777 93.171867 332.22462 101.57812 323.81836 C 109.98438 315.41205 116.81444 308.58208 129.42383 295.44727 C 142.03326 282.31245 132.05083 269.70317 121.01758 260.77148 C 109.98433 251.83985 84.240277 234.50201 64.275391 221.89258 C 44.310505 209.28319 35.844601 170.40436 41.759766 151.49023 C 47.674931 132.57615 63.542021 117.86527 61.291016 102.10352 C 59.039963 86.341759 48.219764 56.91996 48.595703 41.158203 C 48.971641 25.396446 75.036575 35.378905 89.207031 37.480469 C 103.37753 39.582033 124.50585 42.208984 135.01367 42.208984 C 145.52149 42.208984 146.37898 32.75194 152.01562 34.328125 C 157.65227 35.904263 155.50364 42.208991 160.31445 49.039062 C 165.12526 55.869182 181.98081 57.989481 202.7207 68.478516 C 221.34487 77.897528 226.09574 86.867117 227.67188 98.951172 C 229.24806 111.03518 226.62108 116.81447 232.40039 119.9668 C 238.17971 123.11917 252.36519 121.54297 265.5 119.44141 C 278.63477 117.33984 308.05658 109.98438 318.56445 103.67969 C 329.07228 97.374994 343.25777 79.511793 352.18945 63.224609 C 361.12114 46.937473 386.33986 29.072266 400 29.072266 z "
     id="Shape 8 copy-1" />
  <mask
     id="_1">
    <g
       id="g4558">
      <path
         d="M 0,0 800,0 800,800 0,800 0,0 Z"
         style="stroke:none; fill:white"
         id="path4554" />
      <path
         d="M 352.189302,736.776257 C 343.257618,720.489073 329.072046,702.625751 318.564224,696.321058 C 308.056355,690.016365 278.634405,682.660866 265.499640,680.559301 C 252.364826,678.457737 238.179255,676.881552 232.399940,680.033922 C 226.620626,683.186245 229.247570,688.965559 227.671385,701.049566 C 226.095247,713.133621 221.345282,722.103310 202.721119,731.522322 C 181.981230,742.011356 165.126133,744.131708 160.315323,750.961828 C 155.504513,757.791901 157.651377,764.096642 152.014732,765.672779 C 146.378088,767.248964 145.522070,757.791901 135.014248,757.791901 C 124.506426,757.791901 103.378248,760.418892 89.207745,762.520456 C 75.037289,764.622021 48.970747,774.604464 48.594809,758.842707 C 48.218870,743.080950 59.040785,713.659000 61.291838,697.897243 C 63.542843,682.135487 47.675419,667.424488 41.760254,648.510408 C 35.845089,629.596281 44.309616,590.717268 64.274502,578.107882 C 84.239388,565.498447 109.983587,548.160505 121.016836,539.228868 C 132.050085,530.297184 142.032528,517.687798 129.423094,504.552984 C 116.813707,491.418171 109.983587,484.588099 101.577330,476.181793 C 93.171072,467.775536 79.510880,456.742334 63.223696,447.810650 C 46.936560,438.878965 29.073238,413.660145 29.073238,400.000000 C 29.073238,386.339808 46.936560,361.120987 63.223696,352.189302 C 79.510880,343.257618 93.171072,332.224417 101.577330,323.818159 C 109.983587,315.411854 116.813707,308.581781 129.423094,295.446968 C 142.032528,282.312155 132.050085,269.702768 121.016836,260.771084 C 109.983587,251.839447 84.239388,234.501505 64.274502,221.892071 C 44.309616,209.282684 35.845089,170.403671 41.760254,151.489544 C 47.675419,132.575464 63.542843,117.864466 61.291838,102.102709 C 59.040785,86.340952 48.218870,56.919003 48.594809,41.157246 C 48.970747,25.395489 75.037289,35.377932 89.207745,37.479496 C 103.378248,39.581060 124.506426,42.208052 135.014248,42.208052 C 145.522070,42.208052 146.378088,32.750988 152.014732,34.327173 C 157.651377,35.903311 155.504513,42.208052 160.315323,49.038124 C 165.126133,55.868244 181.981230,57.988596 202.721119,68.477631 C 221.345282,77.896643 226.095247,86.866331 227.671385,98.950386 C 229.247570,111.034393 226.620626,116.813707 232.399940,119.966030 C 238.179255,123.118401 252.364826,121.542215 265.499640,119.440651 C 278.634405,117.339087 308.056355,109.983587 318.564224,103.678894 C 329.072046,97.374201 343.257618,79.510880 352.189302,63.223696 C 361.120987,46.936560 386.339808,29.073238 399.999952,29.073238 C 413.660145,29.073238 438.878965,46.936560 447.810650,63.223696 C 456.742334,79.510880 470.927906,97.374201 481.435728,103.678894 C 491.943598,109.983587 521.365547,117.339087 534.500313,119.440651 C 547.635126,121.542215 561.820698,123.118401 567.600012,119.966030 C 573.379326,116.813707 570.752382,111.034393 572.328568,98.950386 C 573.904705,86.866331 578.654671,77.896643 597.278833,68.477631 C 618.018723,57.988596 634.873819,55.868244 639.684629,49.038124 C 644.495440,42.208052 642.348576,35.903311 647.985220,34.327173 C 653.621864,32.750988 654.477882,42.208052 664.985704,42.208052 C 675.493526,42.208052 696.621704,39.581060 710.792208,37.479496 C 724.962664,35.377932 751.029205,25.395489 751.405144,41.157246 C 751.781082,56.919003 740.959167,86.340952 738.708115,102.102709 C 736.457109,117.864466 752.324533,132.575464 758.239698,151.489544 C 764.154863,170.403671 755.690336,209.282684 735.725451,221.892071 C 715.760565,234.501505 690.016365,251.839447 678.983116,260.771084 C 667.949867,269.702768 657.967424,282.312155 670.576859,295.446968 C 683.186245,308.581781 690.016365,315.411854 698.422623,323.818159 C 706.828880,332.224417 720.489073,343.257618 736.776257,352.189302 C 753.063393,361.120987 770.926714,386.339808 770.926714,399.999952 C 770.926714,413.660145 753.063393,438.878965 736.776257,447.810650 C 720.489073,456.742334 706.828880,467.775536 698.422623,476.181793 C 690.016365,484.588099 683.186245,491.418171 670.576859,504.552984 C 657.967424,517.687798 667.949867,530.297184 678.983116,539.228868 C 690.016365,548.160505 715.760565,565.498447 735.725451,578.107882 C 755.690336,590.717268 764.154863,629.596281 758.239698,648.510408 C 752.324533,667.424488 736.457109,682.135487 738.708115,697.897243 C 740.959167,713.659000 751.781082,743.080950 751.405144,758.842707 C 751.029205,774.604464 724.962664,764.622021 710.792208,762.520456 C 696.621704,760.418892 675.493526,757.791901 664.985704,757.791901 C 654.477882,757.791901 653.621864,767.248964 647.985220,765.672779 C 642.348576,764.096642 644.495440,757.791901 639.684629,750.961828 C 634.873819,744.131708 618.018723,742.011356 597.278833,731.522322 C 578.654671,722.103310 573.904705,713.133621 572.328568,701.049566 C 570.752382,688.965559 573.379326,683.186245 567.600012,680.033922 C 561.820698,676.881552 547.635126,678.457737 534.500313,680.559301 C 521.365547,682.660866 491.943598,690.016365 481.435728,696.321058 C 470.927906,702.625751 456.742334,720.489073 447.810650,736.776257 C 438.878965,753.063393 413.660145,770.926714 400.000000,770.926714 C 386.339808,770.926714 361.120987,753.063393 352.189302,736.776257 Z"
         style="stroke:none; fill:black"
         fill-rule="nonzero"
         id="path4556" />
    </g>
  </mask>
  <path
     d="M -33.960104,-33.960104 C -33.960104,-33.960104 833.960104,-33.960104 833.960104,-33.960104 C 833.960104,-33.960104 833.960104,833.960104 833.960104,833.960104 C 833.960104,833.960104 -33.960104,833.960104 -33.960104,833.960104 C -33.960104,833.960104 -33.960104,-33.960104 -33.960104,-33.960104 Z"
     fill-rule="nonzero"
     mask="url(#_1)"
     style="stroke: none; fill: rgb(221, 195, 9)"
     inkscape:label="Shape 8 copy 2"
     id="Shape 8 copy 2"
     display="none" />
  <g
     inkscape:groupmode="layer"
     inkscape:label="90 shapes"
     id="90 shapes">
    <path
       d="M 372.064400,243.500996 C 372.064400,243.500996 351.112747,177.154064 341.800880,155.038404 C 332.489014,132.922745 322.013187,146.890545 317.357254,138.742685 C 312.701368,130.594826 322.013187,118.954992 334.816933,110.807133 C 347.620773,102.659225 349.948740,93.347359 361.588526,72.395706 C 373.228407,51.444054 388.360119,42.132187 400.000000,42.132187 C 411.639786,42.132187 426.771498,51.444054 438.411379,72.395706 C 450.051165,93.347359 452.379131,102.659225 465.182924,110.807133 C 477.986717,118.954992 487.298584,130.594826 482.642603,138.742685 C 477.986717,146.890545 467.510891,132.922745 458.199072,155.038404 C 448.887157,177.154064 427.935505,243.500996 427.935505,243.500996 C 427.935505,243.500996 400.000000,241.173029 400.000000,241.173029 C 400.000000,241.173029 372.064400,243.500996 372.064400,243.500996 Z"
       fill-rule="nonzero"
       style="stroke: none; fill: rgb(221, 195, 9)"
       inkscape:label="Shape 2"
       id="Shape 2" />
    <path
       d="M 556.555462,372.120953 C 556.555462,372.120953 622.902441,351.169348 645.018053,341.857481 C 667.133713,332.545614 653.165960,322.069788 661.313820,317.413855 C 669.461679,312.757921 681.101513,322.069788 689.249372,334.873581 C 697.397280,347.677374 706.709099,350.005293 727.660751,361.645174 C 748.612452,373.284960 757.924318,388.416767 757.924318,400.056553 C 757.924318,411.696386 748.612452,426.828146 727.660751,438.467932 C 706.709099,450.107765 697.397280,452.435732 689.249372,465.239525 C 681.101513,478.043318 669.461679,487.355185 661.313820,482.699251 C 653.165960,478.043318 667.133713,467.567492 645.018053,458.255625 C 622.902441,448.943806 556.555462,427.992105 556.555462,427.992105 C 556.555462,427.992105 558.883429,400.056553 558.883429,400.056553 C 558.883429,400.056553 556.555462,372.120953 556.555462,372.120953 Z"
       fill-rule="nonzero"
       style="stroke: none; fill: rgb(221, 195, 9)"
       inkscape:label="Shape 2 copy"
       id="Shape 2 copy" />
    <path
       d="M 427.935505,556.612062 C 427.935505,556.612062 448.887157,622.959042 458.199072,645.074701 C 467.510891,667.190361 477.986717,653.222513 482.642603,661.370420 C 487.298584,669.518328 477.986717,681.158113 465.182924,689.305973 C 452.379131,697.453833 450.051165,706.765699 438.411379,727.717400 C 426.771498,748.669052 411.639786,757.980871 400.000000,757.980871 C 388.360119,757.980871 373.228407,748.669052 361.588526,727.717400 C 349.948740,706.765699 347.620773,697.453833 334.816933,689.305973 C 322.013187,681.158113 312.701368,669.518328 317.357254,661.370420 C 322.013187,653.222513 332.489014,667.190361 341.800880,645.074701 C 351.112747,622.959042 372.064400,556.612062 372.064400,556.612062 C 372.064400,556.612062 400.000000,558.940029 400.000000,558.940029 C 400.000000,558.940029 427.935505,556.612062 427.935505,556.612062 Z"
       fill-rule="nonzero"
       style="stroke: none; fill: rgb(221, 195, 9)"
       inkscape:label="Shape 2 copy 2"
       id="Shape 2 copy 2" />
    <path
       d="M 243.444395,427.992105 C 243.444395,427.992105 177.097464,448.943806 154.981852,458.255625 C 132.866192,467.567492 146.833944,478.043318 138.686037,482.699251 C 130.538225,487.355185 118.898344,478.043318 110.750532,465.239525 C 102.602625,452.435732 93.290806,450.107765 72.339153,438.467932 C 51.387453,426.828146 42.075586,411.696386 42.075586,400.056553 C 42.075586,388.416767 51.387453,373.284960 72.339153,361.645174 C 93.290806,350.005293 102.602625,347.677374 110.750532,334.873581 C 118.898344,322.069788 130.538225,312.757921 138.686037,317.413855 C 146.833944,322.069788 132.866192,332.545614 154.981852,341.857481 C 177.097464,351.169348 243.444395,372.120953 243.444395,372.120953 C 243.444395,372.120953 241.116476,400.056553 241.116476,400.056553 C 241.116476,400.056553 243.444395,427.992105 243.444395,427.992105 Z"
       fill-rule="nonzero"
       style="stroke: none; fill: rgb(221, 195, 8)"
       inkscape:label="Shape 2 copy 3"
       id="Shape 2 copy 3" />
  </g>
  <g
     inkscape:groupmode="layer"
     inkscape:label="45 shapes"
     id="45 shapes">
    <path
       d="M 479.425192,261.371088 C 479.425192,261.371088 445.679760,247.379065 445.679760,247.379065 C 445.679760,247.379065 447.325850,230.917883 451.441193,215.279722 C 455.556440,199.641609 463.787031,183.180428 477.779055,165.896177 C 491.771078,148.611879 497.532463,174.126768 497.532463,174.126768 C 497.532463,174.126768 497.532463,172.480631 504.939985,165.073156 C 512.347555,157.665586 520.578146,159.311724 520.578146,180.711269 C 520.578146,202.110767 532.100964,235.033131 548.562145,251.494312 C 565.023327,267.955542 597.945690,279.478359 619.345284,279.478359 C 640.744781,279.478359 642.390919,287.708950 634.983397,295.116472 C 627.575874,302.524042 625.929737,302.524042 625.929737,302.524042 C 625.929737,302.524042 651.444578,308.285475 634.160328,322.277403 C 616.876030,336.269426 600.414848,344.500017 584.776735,348.615360 C 569.138622,352.730608 552.677441,354.376745 552.677441,354.376745 C 552.677441,354.376745 538.685465,320.631313 538.685465,320.631313 C 538.685465,320.631313 512.347555,287.708950 512.347555,287.708950 C 512.347555,287.708950 479.425192,261.371088 479.425192,261.371088 Z"
       fill-rule="nonzero"
       style="stroke: none; fill: rgb(221, 195, 9)"
       inkscape:label="Shape 2 copy 4"
       id="Shape 2 copy 4" />
    <path
       d="M 538.685465,479.481745 C 538.685465,479.481745 552.677441,445.736361 552.677441,445.736361 C 552.677441,445.736361 569.138622,447.382450 584.776735,451.497746 C 600.414848,455.613041 616.876030,463.843632 634.160328,477.835655 C 651.444578,491.827679 625.929737,497.589111 625.929737,497.589111 C 625.929737,497.589111 627.575874,497.589111 634.983397,504.996634 C 642.390919,512.404108 640.744781,520.634699 619.345284,520.634699 C 597.945690,520.634699 565.023327,532.157564 548.562145,548.618746 C 532.100964,565.079927 520.578146,598.002291 520.578146,619.401836 C 520.578146,640.801430 512.347555,642.447519 504.939985,635.039997 C 497.532463,627.632427 497.532463,625.986338 497.532463,625.986338 C 497.532463,625.986338 491.771078,651.501179 477.779055,634.216928 C 463.787031,616.932678 455.556440,600.471497 451.441193,584.833384 C 447.325850,569.195271 445.679760,552.734089 445.679760,552.734089 C 445.679760,552.734089 479.425192,538.742065 479.425192,538.742065 C 479.425192,538.742065 512.347555,512.404108 512.347555,512.404108 C 512.347555,512.404108 538.685465,479.481745 538.685465,479.481745 Z"
       fill-rule="nonzero"
       style="stroke: none; fill: rgb(221, 195, 9)"
       inkscape:label="Shape 2 copy 5"
       id="Shape 2 copy 5" />
    <path
       d="M 320.574713,538.742065 C 320.574713,538.742065 354.320145,552.734089 354.320145,552.734089 C 354.320145,552.734089 352.674055,569.195271 348.558712,584.833384 C 344.443464,600.471497 336.212873,616.932678 322.220850,634.216928 C 308.228827,651.501179 302.467442,625.986338 302.467442,625.986338 C 302.467442,625.986338 302.467442,627.632427 295.059919,635.039997 C 287.652349,642.447519 279.421759,640.801430 279.421759,619.401836 C 279.421759,598.002291 267.898893,565.079927 251.437712,548.618746 C 234.976530,532.157564 202.054167,520.634699 180.654621,520.634699 C 159.255123,520.634699 157.608938,512.404108 165.016508,504.996634 C 172.424030,497.589111 174.070120,497.589111 174.070120,497.589111 C 174.070120,497.589111 148.555326,491.827679 165.839529,477.835655 C 183.123827,463.843632 199.585009,455.613041 215.223169,451.497746 C 230.861282,447.382450 247.322464,445.736361 247.322464,445.736361 C 247.322464,445.736361 261.314440,479.481745 261.314440,479.481745 C 261.314440,479.481745 287.652349,512.404108 287.652349,512.404108 C 287.652349,512.404108 320.574713,538.742065 320.574713,538.742065 Z"
       fill-rule="nonzero"
       style="stroke: none; fill: rgb(221, 195, 9)"
       inkscape:label="Shape 2 copy 6"
       id="Shape 2 copy 6" />
    <path
       d="M 261.314440,320.631313 C 261.314440,320.631313 247.322464,354.376745 247.322464,354.376745 C 247.322464,354.376745 230.861282,352.730608 215.223169,348.615360 C 199.585009,344.500017 183.123827,336.269426 165.839529,322.277403 C 148.555326,308.285475 174.070120,302.524042 174.070120,302.524042 C 174.070120,302.524042 172.424030,302.524042 165.016508,295.116472 C 157.608938,287.708950 159.255123,279.478359 180.654621,279.478359 C 202.054167,279.478359 234.976530,267.955542 251.437712,251.494312 C 267.898893,235.033131 279.421759,202.110767 279.421759,180.711269 C 279.421759,159.311724 287.652349,157.665586 295.059919,165.073156 C 302.467442,172.480631 302.467442,174.126768 302.467442,174.126768 C 302.467442,174.126768 308.228827,148.611879 322.220850,165.896177 C 336.212873,183.180428 344.443464,199.641609 348.558712,215.279722 C 352.674055,230.917883 354.320145,247.379065 354.320145,247.379065 C 354.320145,247.379065 320.574713,261.371088 320.574713,261.371088 C 320.574713,261.371088 287.652349,287.708950 287.652349,287.708950 C 287.652349,287.708950 261.314440,320.631313 261.314440,320.631313 Z"
       fill-rule="nonzero"
       style="stroke: none; fill: rgb(221, 195, 9)"
       inkscape:label="Shape 2 copy 7"
       id="Shape 2 copy 7" />
  </g>
  <g
     inkscape:groupmode="layer"
     inkscape:label="ringz erneh"
     id="ringz erneh">
    <mask
       id="_2">
      <g
         id="g4577">
        <path
           d="M 0,0 800,0 800,800 0,800 0,0 Z"
           style="stroke:none; fill:white"
           id="path4573" />
        <path
           d="M 400.000000,252.230835 C 481.641769,252.230835 547.825623,318.414688 547.825623,400.056553 C 547.825623,481.698370 481.641769,547.882223 400.000000,547.882223 C 318.358088,547.882223 252.174234,481.698370 252.174234,400.056553 C 252.174234,318.414688 318.358088,252.230835 400.000000,252.230835 Z"
           style="stroke:none; fill:black"
           fill-rule="nonzero"
           id="path4575" />
      </g>
    </mask>
    <path
       d="M 400.000000,230.115271 C 493.855953,230.115271 569.941235,306.200552 569.941235,400.056553 C 569.941235,493.912554 493.855953,569.997835 400.000000,569.997835 C 306.143951,569.997835 230.058670,493.912554 230.058670,400.056553 C 230.058670,306.200552 306.143951,230.115271 400.000000,230.115271 Z"
       fill-rule="nonzero"
       mask="url(#_2)"
       style="stroke: none; fill: rgb(221, 195, 9)"
       inkscape:label="ringout"
       id="ringout" />
    <mask
       id="_3">
      <g
         id="g4585">
        <path
           d="M 0,0 800,0 800,800 0,800 0,0 Z"
           style="stroke:none; fill:white"
           id="path4581" />
        <path
           d="M 400.000000,275.510502 C 468.784809,275.510502 524.545956,331.271696 524.545956,400.056553 C 524.545956,468.841410 468.784809,524.602556 400.000000,524.602556 C 331.215096,524.602556 275.453901,468.841410 275.453901,400.056553 C 275.453901,331.271696 331.215096,275.510502 400.000000,275.510502 Z"
           style="stroke:none; fill:black"
           fill-rule="nonzero"
           id="path4583" />
      </g>
    </mask>
    <path
       d="M 400.000000,263.870716 C 475.213289,263.870716 536.185789,324.843216 536.185789,400.056553 C 536.185789,475.269890 475.213289,536.242390 400.000000,536.242390 C 324.786615,536.242390 263.814116,475.269890 263.814116,400.056553 C 263.814116,324.843216 324.786615,263.870716 400.000000,263.870716 Z"
       fill-rule="nonzero"
       mask="url(#_3)"
       style="stroke: none; fill: rgb(221, 195, 9)"
       inkscape:label="ringin"
       id="ringin" />
  </g>
  <g
     inkscape:groupmode="layer"
     inkscape:label="gem backs"
     id="gem backs">
    <path
       d="M 596.162462,203.894091 C 604.950666,212.682343 604.950666,226.930857 596.162462,235.719061 C 587.374210,244.507265 573.125696,244.507265 564.337492,235.719061 C 555.549288,226.930857 555.549288,212.682343 564.337492,203.894091 C 573.125696,195.105886 587.374210,195.105886 596.162462,203.894091 Z"
       fill-rule="nonzero"
       style="stroke: none; fill: rgb(221, 195, 9)"
       inkscape:label="Shape 6"
       id="Shape 6" />
    <path
       d="M 203.837490,596.219063 C 195.049286,587.430811 195.049286,573.182297 203.837490,564.394093 C 212.625742,555.605888 226.874256,555.605888 235.662460,564.394093 C 244.450665,573.182297 244.450665,587.430811 235.662460,596.219063 C 226.874256,605.007267 212.625742,605.007267 203.837490,596.219063 Z"
       fill-rule="nonzero"
       style="stroke: none; fill: rgb(221, 195, 9)"
       inkscape:label="Shape 6 copy"
       id="Shape 6 copy" />
    <path
       d="M 596.162462,596.219063 C 587.374210,605.007267 573.125696,605.007267 564.337492,596.219063 C 555.549288,587.430811 555.549288,573.182297 564.337492,564.394093 C 573.125696,555.605888 587.374210,555.605888 596.162462,564.394093 C 604.950666,573.182297 604.950666,587.430811 596.162462,596.219063 Z"
       fill-rule="nonzero"
       style="stroke: none; fill: rgb(221, 195, 9)"
       inkscape:label="Shape 6 copy 2"
       id="Shape 6 copy 2" />
    <path
       d="M 203.837490,203.894091 C 212.625742,195.105886 226.874256,195.105886 235.662460,203.894091 C 244.450665,212.682343 244.450665,226.930857 235.662460,235.719061 C 226.874256,244.507265 212.625742,244.507265 203.837490,235.719061 C 195.049286,226.930857 195.049286,212.682343 203.837490,203.894091 Z"
       fill-rule="nonzero"
       style="stroke: none; fill: rgb(221, 195, 9)"
       inkscape:label="Shape 6 copy 3"
       id="Shape 6 copy 3" />
  </g>
  <g
     inkscape:groupmode="layer"
     inkscape:label="gems45"
     id="gems45">
    <path
       d="M 232.918930,593.475533 C 225.645924,600.748539 213.854027,600.748539 206.581020,593.475533 C 199.308014,586.202526 199.308014,574.410629 206.581020,567.137623 C 213.854027,559.864616 225.645924,559.864616 232.918930,567.137623 C 240.191936,574.410629 240.191936,586.202526 232.918930,593.475533 Z"
       fill-rule="nonzero"
       style="stroke: none; fill: rgb(243, 233, 35)"
       inkscape:label="Shape 5 copy 2"
       id="Shape 5 copy 2" />
    <path
       d="M 593.418932,567.137623 C 600.691938,574.410629 600.691938,586.202526 593.418932,593.475533 C 586.145926,600.748539 574.354029,600.748539 567.081022,593.475533 C 559.808016,586.202526 559.808016,574.410629 567.081022,567.137623 C 574.354029,559.864616 586.145926,559.864616 593.418932,567.137623 Z"
       fill-rule="nonzero"
       style="stroke: none; fill: rgb(255, 255, 255)"
       inkscape:label="Shape 5 copy 3"
       id="Shape 5 copy 3" />
    <path
       d="M 567.081022,206.637621 C 574.354029,199.364614 586.145926,199.364614 593.418932,206.637621 C 600.691938,213.910627 600.691938,225.702524 593.418932,232.975531 C 586.145926,240.248537 574.354029,240.248537 567.081022,232.975531 C 559.808016,225.702524 559.808016,213.910627 567.081022,206.637621 Z"
       fill-rule="nonzero"
       style="stroke: none; fill: rgb(175, 218, 249)"
       inkscape:label="Shape 5 copy"
       id="Shape 5 copy" />
    <path
       d="M 206.581020,232.975531 C 199.308014,225.702524 199.308014,213.910627 206.581020,206.637621 C 213.854027,199.364614 225.645924,199.364614 232.918930,206.637621 C 240.191936,213.910627 240.191936,225.702524 232.918930,232.975531 C 225.645924,240.248537 213.854027,240.248537 206.581020,232.975531 Z"
       fill-rule="nonzero"
       style="stroke: none; fill: rgb(0, 0, 0)"
       inkscape:label="Shape 5 copy 4"
       id="Shape 5 copy 4" />
  </g>
  <g
     inkscape:groupmode="layer"
     inkscape:label="gems90"
     id="gems90">
    <path
       d="M 86.306906,400.056553 C 86.306906,389.770985 94.645023,381.432867 104.930639,381.432867 C 115.216208,381.432867 123.554325,389.770985 123.554325,400.056553 C 123.554325,410.342169 115.216208,418.680286 104.930639,418.680286 C 94.645023,418.680286 86.306906,410.342169 86.306906,400.056553 Z"
       fill-rule="nonzero"
       style="stroke: none; fill: rgb(106, 192, 137)"
       inkscape:label="Shape 5"
       id="Shape 5" />
    <path
       d="M 400.000000,713.749647 C 389.714384,713.749647 381.376266,705.411482 381.376266,695.125914 C 381.376266,684.840345 389.714384,676.502228 399.999952,676.502228 C 410.285568,676.502228 418.623686,684.840345 418.623686,695.125914 C 418.623686,705.411482 410.285568,713.749647 400.000000,713.749647 Z"
       fill-rule="nonzero"
       style="stroke: none; fill: rgb(232, 86, 40)"
       inkscape:label="Shape 5 copy 5"
       id="Shape 5 copy 5" />
    <path
       d="M 713.693047,400.056553 C 713.693047,410.342169 705.354929,418.680286 695.069313,418.680286 C 684.783745,418.680286 676.445627,410.342169 676.445627,400.056553 C 676.445627,389.770985 684.783745,381.432867 695.069313,381.432867 C 705.354929,381.432867 713.693047,389.770985 713.693047,400.056553 Z"
       fill-rule="nonzero"
       style="stroke: none; fill: rgb(86, 91, 188)"
       inkscape:label="Shape 5 copy 6"
       id="Shape 5 copy 6" />
    <path
       d="M 400.000000,86.363506 C 410.285568,86.363506 418.623686,94.701624 418.623686,104.987240 C 418.623686,115.272808 410.285568,123.610926 400.000000,123.610926 C 389.714384,123.610926 381.376266,115.272808 381.376266,104.987240 C 381.376266,94.701624 389.714384,86.363506 400.000000,86.363506 Z"
       fill-rule="nonzero"
       style="stroke: none; fill: rgb(239, 114, 177)"
       inkscape:label="Shape 5 copy 7"
       id="Shape 5 copy 7" />
  </g>
</svg>
