<?xml version="1.0" encoding="UTF-8" standalone="no"?>
<svg
   xmlns:dc="http://purl.org/dc/elements/1.1/"
   xmlns:cc="http://creativecommons.org/ns#"
   xmlns:rdf="http://www.w3.org/1999/02/22-rdf-syntax-ns#"
   xmlns:svg="http://www.w3.org/2000/svg"
   xmlns="http://www.w3.org/2000/svg"
   xmlns:sodipodi="http://sodipodi.sourceforge.net/DTD/sodipodi-0.dtd"
   xmlns:inkscape="http://www.inkscape.org/namespaces/inkscape"
   width="230"
   height="230"
   version="1.1"
   id="svg818"
   sodipodi:docname="apple-pwr.svg"
   inkscape:version="0.92.2 (5c3e80d, 2017-08-06)">
  <metadata
     id="metadata824">
    <rdf:RDF>
      <cc:Work
         rdf:about="">
        <dc:format>image/svg+xml</dc:format>
        <dc:type
           rdf:resource="http://purl.org/dc/dcmitype/StillImage" />
        <dc:title></dc:title>
      </cc:Work>
    </rdf:RDF>
  </metadata>
  <defs
     id="defs822" />
  <sodipodi:namedview
     pagecolor="#ffffff"
     bordercolor="#666666"
     borderopacity="1"
     objecttolerance="10"
     gridtolerance="10"
     guidetolerance="10"
     inkscape:pageopacity="0"
     inkscape:pageshadow="2"
     inkscape:window-width="1920"
     inkscape:window-height="1027"
     id="namedview820"
     showgrid="false"
     inkscape:zoom="3.7304348"
     inkscape:cx="115"
     inkscape:cy="115"
     inkscape:window-x="-8"
     inkscape:window-y="-8"
     inkscape:window-maximized="1"
     inkscape:current-layer="svg818" />
  <path
     style="fill:#646464;fill-opacity:1;fill-rule:nonzero;stroke:none"
     d="M 115 1 C 52.039552 1 1 52.039553 1 115 C 1 177.96043 52.039552 229 115 229 C 177.96043 229 229 177.96043 229 115 C 229 52.039553 177.96043 1 115 1 z M 115 28 C 119.23418 28 122.66602 31.431833 122.66602 35.666016 L 122.66602 107.33398 C 122.66602 111.56816 119.23418 115 115 115 C 110.76581 115 107.33398 111.56816 107.33398 107.33398 L 107.33398 35.666016 C 107.33398 31.431833 110.76581 28 115 28 z M 85.746094 50.103516 C 95.06932 50.305035 99.721892 62.191756 87.830078 68.708984 C 85.997792 69.713146 84.295161 70.929947 82.636719 72.185547 C 69.694838 81.983856 61.333984 97.515852 61.333984 115 C 61.333984 144.63927 85.360716 168.66602 115 168.66602 C 144.63926 168.66602 168.66602 144.63927 168.66602 115 C 168.66602 97.515852 160.30517 81.983856 147.36328 72.185547 C 145.70484 70.929947 144.0022 69.713146 142.16992 68.708984 C 127.53384 60.68778 137.959 44.533327 151.30859 52.041016 C 153.30702 53.164899 155.2213 54.426046 157.08203 55.75 C 175.59312 68.921055 187.66602 90.550877 187.66602 115 C 187.66602 155.13268 155.13268 187.66602 115 187.66602 C 74.867302 187.66602 42.333984 155.13268 42.333984 115 C 42.333984 90.550877 54.406875 68.921055 72.917969 55.75 C 74.778701 54.426046 76.691027 53.164899 78.689453 52.041016 C 81.192501 50.633324 83.59458 50.057011 85.746094 50.103516 z "
     id="Shape 1" />
</svg>
