<?xml version="1.0" encoding="UTF-8" standalone="no"?>
<!-- Created with Inkscape (http://www.inkscape.org/) -->

<svg
   xmlns:dc="http://purl.org/dc/elements/1.1/"
   xmlns:cc="http://creativecommons.org/ns#"
   xmlns:rdf="http://www.w3.org/1999/02/22-rdf-syntax-ns#"
   xmlns:svg="http://www.w3.org/2000/svg"
   xmlns="http://www.w3.org/2000/svg"
   xmlns:sodipodi="http://sodipodi.sourceforge.net/DTD/sodipodi-0.dtd"
   xmlns:inkscape="http://www.inkscape.org/namespaces/inkscape"
   width="600"
   height="600"
   viewBox="0 0 158.75 158.75"
   version="1.1"
   id="svg8"
   inkscape:version="0.92.2 (5c3e80d, 2017-08-06)"
   sodipodi:docname="bsod.svg">
  <defs
     id="defs2" />
  <sodipodi:namedview
     id="base"
     pagecolor="#ffffff"
     bordercolor="#666666"
     borderopacity="1.0"
     inkscape:pageopacity="0.0"
     inkscape:pageshadow="2"
     inkscape:zoom="0.35"
     inkscape:cx="-267.78626"
     inkscape:cy="560"
     inkscape:document-units="mm"
     inkscape:current-layer="layer1"
     showgrid="false"
     units="px"
     inkscape:window-width="1113"
     inkscape:window-height="730"
     inkscape:window-x="175"
     inkscape:window-y="0"
     inkscape:window-maximized="1" />
  <metadata
     id="metadata5">
    <rdf:RDF>
      <cc:Work
         rdf:about="">
        <dc:format>image/svg+xml</dc:format>
        <dc:type
           rdf:resource="http://purl.org/dc/dcmitype/StillImage" />
        <dc:title />
      </cc:Work>
    </rdf:RDF>
  </metadata>
  <g
     inkscape:label="Layer 1"
     inkscape:groupmode="layer"
     id="layer1"
     transform="translate(0,-138.24997)">
    <g
       aria-label="CTRL+ALT+DEL"
       style="font-style:normal;font-variant:normal;font-weight:normal;font-stretch:normal;font-size:16.58324432px;line-height:1.25;font-family:'Green Screen';-inkscape-font-specification:'Green Screen';text-align:center;letter-spacing:0px;word-spacing:0px;text-anchor:middle;fill:#ffffff;fill-opacity:1;stroke:none;stroke-width:0.41458109"
       id="text4487">
      <path
         d="m 13.612875,227.39665 h 1.384636 l 0.170043,-1.37654 h 1.206496 l 0.17814,-1.38464 h 5.352307 v 1.38464 h 1.384636 v 2.76117 h -2.769272 v -2.76117 h -2.761175 v 1.37654 H 16.37405 v 6.91508 h 1.384636 v 1.37654 h 2.761175 v -2.76117 h 2.769272 v 2.76117 h -1.384636 v 1.38464 H 16.37405 v -1.38464 h -1.376539 v -1.37654 h -1.384636 z"
         style="fill:#ffffff;fill-opacity:1;stroke-width:0.41458109"
         id="path4539" />
      <path
         d="m 24.689964,224.63547 h 8.291623 v 2.76118 H 31.59695 v -1.37654 h -1.376538 v 9.66816 h 1.376538 v 1.38464 H 26.0746 v -1.38464 h 1.376539 v -9.66816 H 26.0746 v 1.37654 h -1.384636 z"
         style="fill:#ffffff;fill-opacity:1;stroke-width:0.41458109"
         id="path4541" />
      <path
         d="m 39.912865,226.02011 v 4.14581 h 2.761175 v -4.14581 z m -4.145811,9.66816 h 1.384636 v -9.66816 h -1.384636 v -1.38464 h 8.291622 v 1.38464 h 1.384636 v 4.14581 h -1.384636 v 2.76118 h 1.384636 v 4.14581 H 42.67404 v -4.14581 h -1.376539 v -1.38464 h -1.384636 v 5.53045 h -4.145811 z"
         style="fill:#ffffff;fill-opacity:1;stroke-width:0.41458109"
         id="path4543" />
      <path
         d="m 46.844145,235.68827 h 1.384636 v -9.66816 h -1.384636 v -1.38464 h 5.530447 v 1.38464 h -1.384636 v 9.66816 h 2.761175 v -2.76117 h 1.384636 v -1.38464 h 1.384636 v 5.53045 h -9.676258 z"
         style="fill:#ffffff;fill-opacity:1;stroke-width:0.41458109"
         id="path4545" />
      <path
         d="m 62.067043,227.39665 h 2.761175 v 2.76927 h 2.769273 v 1.37654 h -2.769273 v 2.76927 h -2.761175 v -2.76927 h -2.761175 v -1.37654 h 2.761175 z"
         style="fill:#ffffff;fill-opacity:1;stroke-width:0.41458109"
         id="path4547" />
      <path
         d="m 71.759495,227.39665 v 4.14581 h 2.769272 v -4.14581 z m -2.761175,0 h 1.384636 v -1.37654 h 1.376539 v -1.38464 h 2.769272 v 1.38464 h 1.376539 v 1.37654 h 1.384636 v 9.67626 h -2.761175 v -4.14581 h -2.769272 v 4.14581 H 68.99832 Z"
         style="fill:#ffffff;fill-opacity:1;stroke-width:0.41458109"
         id="path4549" />
      <path
         d="m 80.075415,235.68827 h 1.384636 v -9.66816 h -1.384636 v -1.38464 h 5.530447 v 1.38464 h -1.384636 v 9.66816 h 2.761175 v -2.76117 h 1.384636 v -1.38464 h 1.384636 v 5.53045 h -9.676258 z"
         style="fill:#ffffff;fill-opacity:1;stroke-width:0.41458109"
         id="path4551" />
      <path
         d="m 91.152502,224.63547 h 8.291622 v 2.76118 h -1.384636 v -1.37654 h -1.376539 v 9.66816 h 1.376539 v 1.38464 h -5.52235 v -1.38464 h 1.376539 v -9.66816 h -1.376539 v 1.37654 h -1.384636 z"
         style="fill:#ffffff;fill-opacity:1;stroke-width:0.41458109"
         id="path4553" />
      <path
         d="m 106.3754,227.39665 h 2.76118 v 2.76927 h 2.76927 v 1.37654 h -2.76927 v 2.76927 h -2.76118 v -2.76927 h -2.76117 v -1.37654 h 2.76117 z"
         style="fill:#ffffff;fill-opacity:1;stroke-width:0.41458109"
         id="path4555" />
      <path
         d="m 117.45249,226.02011 v 9.66816 h 1.38463 v -1.37654 h 1.37654 v -6.91508 h -1.37654 v -1.37654 z m -4.14581,9.66816 h 1.38463 v -9.66816 h -1.38463 v -1.38464 h 6.90698 v 1.38464 h 1.38464 v 1.37654 h 1.38464 v 6.91508 h -1.38464 v 1.37654 h -1.38464 v 1.38464 h -6.90698 z"
         style="fill:#ffffff;fill-opacity:1;stroke-width:0.41458109"
         id="path4557" />
      <path
         d="m 124.38376,235.68827 h 1.38464 v -9.66816 h -1.38464 v -1.38464 h 9.67626 v 2.76118 h -1.38463 v -1.37654 h -4.14581 v 4.14581 h 2.76117 v -1.38464 h 1.38464 v 4.14582 h -1.38464 v -1.38464 h -2.76117 v 4.14581 h 4.14581 v -1.37654 h 1.38463 v 2.76118 h -9.67626 z"
         style="fill:#ffffff;fill-opacity:1;stroke-width:0.41458109"
         id="path4559" />
      <path
         d="m 135.46086,235.68827 h 1.38464 v -9.66816 h -1.38464 v -1.38464 h 5.53045 v 1.38464 h -1.38464 v 9.66816 h 2.76118 v -2.76117 h 1.38463 v -1.38464 h 1.38464 v 5.53045 h -9.67626 z"
         style="fill:#ffffff;fill-opacity:1;stroke-width:0.41458109"
         id="path4561" />
    </g>
    <path
       style="opacity:1;fill:#aaaaaa;fill-opacity:1;stroke:none;stroke-width:21.92274284;stroke-linejoin:round;stroke-miterlimit:4;stroke-dasharray:none;stroke-opacity:1"
       d="M 138.73242 201.49609 L 138.73242 298.50391 L 461.26758 298.50391 L 461.26758 201.49609 L 138.73242 201.49609 z M 158.73242 226.49609 L 169.16797 226.49609 L 169.16797 257.83398 L 174.40234 257.83398 L 174.40234 247.39844 L 179.63477 247.39844 L 179.63477 257.83398 L 184.83789 257.83398 L 184.83789 226.49609 L 195.30469 226.49609 L 195.30469 257.83398 L 190.07031 257.83398 L 190.07031 273.50391 L 179.63477 273.50391 L 179.63477 257.83398 L 174.40234 257.83398 L 174.40234 273.50391 L 163.96484 273.50391 L 163.96484 257.83398 L 158.73242 257.83398 L 158.73242 226.49609 z M 216.26758 226.49609 L 226.70508 226.49609 L 226.70508 236.93164 L 216.26758 236.93164 L 216.26758 226.49609 z M 300.00195 226.49609 L 315.66992 226.49609 L 315.66992 268.27148 L 320.9043 268.27148 L 320.9043 273.50391 L 310.4375 273.50391 L 310.4375 268.27148 L 305.23438 268.27148 L 305.23438 273.50391 L 289.56445 273.50391 L 289.56445 268.27148 L 284.33203 268.27148 L 284.33203 247.39844 L 289.56445 247.39844 L 289.56445 242.16602 L 305.23438 242.16602 L 305.23438 231.72852 L 300.00195 231.72852 L 300.00195 226.49609 z M 305.23438 268.27148 L 305.23438 247.39844 L 294.76758 247.39844 L 294.76758 268.27148 L 305.23438 268.27148 z M 205.83203 242.16602 L 226.70508 242.16602 L 226.70508 268.27148 L 237.16992 268.27148 L 237.16992 273.50391 L 205.83203 273.50391 L 205.83203 268.27148 L 216.26758 268.27148 L 216.26758 247.39844 L 205.83203 247.39844 L 205.83203 242.16602 z M 242.46484 242.16602 L 268.57031 242.16602 L 268.57031 247.39844 L 273.80469 247.39844 L 273.80469 273.50391 L 263.36719 273.50391 L 263.36719 247.39844 L 252.90039 247.39844 L 252.90039 273.50391 L 242.46484 273.50391 L 242.46484 242.16602 z M 331.33984 242.16602 L 352.30273 242.16602 L 352.30273 247.39844 L 357.53711 247.39844 L 357.53711 268.27148 L 352.30273 268.27148 L 352.30273 273.50391 L 331.43164 273.50391 L 331.43164 268.27148 L 326.19922 268.27148 L 326.19922 247.39844 L 331.43164 247.39844 L 331.33984 242.16602 z M 368.06445 242.16602 L 378.5 242.16602 L 378.5 263.06836 L 383.73438 263.06836 L 383.73438 252.60156 L 388.9668 252.60156 L 388.9668 263.06836 L 394.16992 263.06836 L 394.16992 242.16602 L 404.63672 242.16602 L 404.63672 263.06836 L 399.4043 263.06836 L 399.4043 273.50391 L 388.9668 273.50391 L 388.9668 263.06836 L 383.73438 263.06836 L 383.73438 273.50391 L 373.29883 273.50391 L 373.29883 263.06836 L 368.06445 263.06836 L 368.06445 242.16602 z M 415.16406 242.16602 L 436.03711 242.16602 L 436.03711 247.39844 L 441.26953 247.39844 L 441.26953 252.60156 L 430.83398 252.60156 L 430.83398 247.39844 L 420.36719 247.39844 L 420.36719 252.60156 L 425.60156 252.60156 L 425.60156 257.83398 L 436.03711 257.83398 L 436.03711 263.06836 L 441.26953 263.06836 L 441.26953 268.27148 L 436.03711 268.27148 L 436.03711 273.50391 L 415.16406 273.50391 L 415.16406 268.27148 L 409.93164 268.27148 L 409.93164 263.06836 L 420.36719 263.06836 L 420.36719 268.27148 L 430.83398 268.27148 L 430.83398 263.06836 L 425.60156 263.06836 L 425.60156 257.83398 L 415.16406 257.83398 L 415.16406 252.60156 L 409.93164 252.60156 L 409.93164 247.39844 L 415.16406 247.39844 L 415.16406 242.16602 z M 336.63477 247.39844 L 336.63477 268.27148 L 347.10156 268.27148 L 347.10156 247.39844 L 336.63477 247.39844 z "
       transform="matrix(0.26458333,0,0,0.26458333,0,138.24997)"
       id="rect4535" />
  </g>
</svg>
