<?xml version="1.0" encoding="UTF-8" standalone="no"?>
<svg
   xmlns:dc="http://purl.org/dc/elements/1.1/"
   xmlns:cc="http://creativecommons.org/ns#"
   xmlns:rdf="http://www.w3.org/1999/02/22-rdf-syntax-ns#"
   xmlns:svg="http://www.w3.org/2000/svg"
   xmlns="http://www.w3.org/2000/svg"
   xmlns:sodipodi="http://sodipodi.sourceforge.net/DTD/sodipodi-0.dtd"
   xmlns:inkscape="http://www.inkscape.org/namespaces/inkscape"
   width="840"
   height="565"
   version="1.1"
   id="svg5276"
   sodipodi:docname="logical-button.svg"
   inkscape:version="0.92.2 (5c3e80d, 2017-08-06)">
  <metadata
     id="metadata5282">
    <rdf:RDF>
      <cc:Work
         rdf:about="">
        <dc:format>image/svg+xml</dc:format>
        <dc:type
           rdf:resource="http://purl.org/dc/dcmitype/StillImage" />
        <dc:title></dc:title>
      </cc:Work>
    </rdf:RDF>
  </metadata>
  <defs
     id="defs5280" />
  <sodipodi:namedview
     pagecolor="#ffffff"
     bordercolor="#666666"
     borderopacity="1"
     objecttolerance="10"
     gridtolerance="10"
     guidetolerance="10"
     inkscape:pageopacity="0"
     inkscape:pageshadow="2"
     inkscape:window-width="1920"
     inkscape:window-height="1027"
     id="namedview5278"
     showgrid="false"
     inkscape:zoom="0.95627774"
     inkscape:cx="546.29668"
     inkscape:cy="310.33567"
     inkscape:window-x="-8"
     inkscape:window-y="-8"
     inkscape:window-maximized="1"
     inkscape:current-layer="svg5276" />
  <path
     d="M 740.712647,244.999968 C 740.712647,321.876999 597.124665,384.198186 420.000000,384.198186 C 242.875285,384.198186 99.287302,321.876999 99.287302,244.999968 C 99.287302,168.122936 99.281244,144.999993 99.281244,144.999993 C 99.281244,144.999993 740.718706,144.999993 740.718706,144.999993 C 740.718706,144.999993 740.712647,168.122936 740.712647,244.999968 Z"
     fill-rule="nonzero"
     style="stroke: none; fill: rgb(155, 0, 0)"
     inkscape:label="button body"
     id="button body" />
  <path
     d="M 420.000000,5.801775 C 597.124665,5.801775 740.712647,68.122962 740.712647,144.999993 C 740.712647,221.877025 597.124665,284.198211 420.000000,284.198211 C 242.875285,284.198211 99.287302,221.877025 99.287302,144.999993 C 99.287302,68.122962 242.875285,5.801775 420.000000,5.801775 Z"
     fill-rule="nonzero"
     style="stroke: none; fill: rgb(255, 0, 0)"
     inkscape:label="button top"
     id="button top" />
  <path
     d="M 181.768763,175.497611 C 181.768763,175.497611 208.492255,175.497611 208.492255,175.497611 C 208.492255,175.497611 244.251502,66.540564 244.251502,66.540564 C 244.251502,66.540564 222.017248,66.540564 222.017248,66.540564 C 222.017248,66.540564 181.768763,175.497611 181.768763,175.497611 Z"
     fill-rule="nonzero"
     style="stroke: none; fill: rgb(255, 255, 255)"
     inkscape:label="l"
     id="l" />
  <path
     style="stroke: none; fill: rgb(255, 255, 255)"
     d="M 281.93555 103.96484 C 258.69668 103.96484 236.094 117.78691 229.5293 138.72461 C 222.57351 160.90952 236.0696 177.78906 264.09961 177.78906 C 290.91758 177.78906 313.33936 160.90952 317.11914 138.72461 C 320.68643 117.78691 304.77142 103.96484 281.93555 103.96484 z M 277.25781 122.75781 C 286.41223 122.75781 292.37195 129.25319 290.34375 138.72461 C 288.28065 148.35882 279.45076 155.42969 269.35547 155.42969 C 258.82123 155.42969 253.70566 148.35882 256.30469 138.72461 C 258.85985 129.25319 267.96466 122.75781 277.25781 122.75781 z "
     id="o" />
  <path
     style="stroke: none; fill: rgb(255, 255, 255)"
     d="M 360.78125 103.96484 C 340.63197 103.96484 324.04714 119.05342 320.81445 138.72461 C 317.35957 159.74765 330.30222 177.78906 353.0293 177.78906 C 363.63528 177.78906 372.8418 176.26002 379.00391 169.91211 L 378.625 175.65039 C 377.69188 189.8166 365.57722 194.46094 357.96289 194.46094 C 345.99751 194.46094 340.00359 188.86324 337.69727 183.98242 L 313.69922 195.26953 C 319.00536 216.11233 338.2418 220.26367 355.51172 220.26367 C 383.75682 220.26367 404.62877 205.11422 405.30664 177.63672 L 407.07812 105.77734 L 383.22852 105.77734 L 382.85742 111.41211 L 382.44922 111.41211 C 377.09981 106.62845 369.91564 103.96484 360.78125 103.96484 z M 366.1582 122.75781 C 375.31262 122.75781 382.24204 129.25319 381.62695 138.72461 C 381.00136 148.35882 373.2281 155.42969 363.13281 155.42969 C 352.59858 155.42969 346.42822 148.35882 347.58984 138.72461 C 348.73184 129.25319 356.86505 122.75781 366.1582 122.75781 z "
     id="g" />
  <path
     d="M 420.547242,105.777738 C 420.547242,105.777738 444.398139,105.777738 444.398139,105.777738 C 444.398139,105.777738 447.172902,175.497611 447.172902,175.497611 C 447.172902,175.497611 420.449409,175.497611 420.449409,175.497611 C 420.449409,175.497611 420.547242,105.777738 420.547242,105.777738 Z"
     fill-rule="nonzero"
     style="stroke: none; fill: rgb(255, 255, 255)"
     inkscape:label="I"
     id="I" />
  <path
     d="M 432.096355,69.721524 C 424.767616,69.721524 418.805230,74.781167 418.775489,81.156489 C 418.745048,87.681907 424.914315,93.083570 432.558482,93.083570 C 440.202599,93.083570 446.158175,87.681907 445.869584,81.156489 C 445.587652,74.781167 439.425094,69.721524 432.096355,69.721524 Z"
     fill-rule="nonzero"
     style="stroke: none; fill: rgb(255, 255, 255)"
     inkscape:label="."
     id="." />
  <path
     d="M 497.400670,121.987948 C 504.742477,121.987948 509.770846,125.080405 509.770846,125.080405 C 509.770846,125.080405 515.654976,109.808426 515.654976,109.808426 C 515.654976,109.808426 506.918478,103.963982 491.605010,103.963982 C 471.590016,103.963982 454.295011,119.054208 455.396655,138.860913 C 456.566441,159.893447 478.167737,177.789811 500.591748,177.789811 C 517.864323,177.789811 525.523210,170.811206 525.523210,170.811206 C 525.523210,170.811206 513.877516,152.865573 513.877516,152.865573 C 513.877516,152.865573 509.548595,156.288196 501.783614,156.288196 C 491.967552,156.288196 483.121605,148.359607 482.150688,138.589917 C 481.222830,129.253982 488.119533,121.987948 497.400670,121.987948 Z"
     fill-rule="nonzero"
     style="stroke: none; fill: rgb(255, 255, 255)"
     inkscape:label="c"
     id="c" />
  <path
     style="stroke: none; fill: rgb(255, 255, 255)"
     d="M 550.97266 103.96484 C 530.82333 103.96484 519.21223 119.05342 522.46289 138.72461 C 525.93695 159.74765 544.82767 177.78906 567.55469 177.78906 C 578.16067 177.78906 586.04937 173.07117 590.10742 166.78516 L 590.4043 166.78516 L 592.70703 175.49805 L 619.12891 175.49805 L 597.86914 105.77734 L 574.01953 105.77734 L 575.60156 111.7832 C 568.60517 106.75 560.24133 103.96484 550.97266 103.96484 z M 562.54492 122.75781 C 571.69934 122.75781 580.77074 129.25319 583.27734 138.72461 C 585.827 148.35882 580.3824 155.42969 570.28711 155.42969 C 559.75287 155.42969 551.25191 148.35882 549.23828 138.72461 C 547.25865 129.25319 553.25177 122.75781 562.54492 122.75781 z "
     id="a" />
  <path
     d="M 634.218872,175.497611 C 634.218872,175.497611 660.942364,175.497611 660.942364,175.497611 C 660.942364,175.497611 620.695181,66.540564 620.695181,66.540564 C 620.695181,66.540564 598.460927,66.540564 598.460927,66.540564 C 598.460927,66.540564 634.218872,175.497611 634.218872,175.497611 Z"
     fill-rule="nonzero"
     style="stroke: none; fill: rgb(255, 255, 255)"
     inkscape:label="l"
     id="l_1" />
</svg>
