<?xml version="1.0" encoding="UTF-8" standalone="no"?>
<svg
   xmlns:dc="http://purl.org/dc/elements/1.1/"
   xmlns:cc="http://creativecommons.org/ns#"
   xmlns:rdf="http://www.w3.org/1999/02/22-rdf-syntax-ns#"
   xmlns:svg="http://www.w3.org/2000/svg"
   xmlns="http://www.w3.org/2000/svg"
   xmlns:sodipodi="http://sodipodi.sourceforge.net/DTD/sodipodi-0.dtd"
   xmlns:inkscape="http://www.inkscape.org/namespaces/inkscape"
   width="1024"
   height="1024"
   version="1.1"
   id="svg4506"
   sodipodi:docname="movies.svg"
   inkscape:version="0.92.1 r15371">
  <metadata
     id="metadata4512">
    <rdf:RDF>
      <cc:Work
         rdf:about="">
        <dc:format>image/svg+xml</dc:format>
        <dc:type
           rdf:resource="http://purl.org/dc/dcmitype/StillImage" />
        <dc:title></dc:title>
      </cc:Work>
    </rdf:RDF>
  </metadata>
  <defs
     id="defs4510" />
  <sodipodi:namedview
     pagecolor="#ffffff"
     bordercolor="#666666"
     borderopacity="1"
     objecttolerance="10"
     gridtolerance="10"
     guidetolerance="10"
     inkscape:pageopacity="0"
     inkscape:pageshadow="2"
     inkscape:window-width="1110"
     inkscape:window-height="730"
     id="namedview4508"
     showgrid="false"
     inkscape:zoom="0.56542969"
     inkscape:cx="512"
     inkscape:cy="582.74266"
     inkscape:window-x="178"
     inkscape:window-y="0"
     inkscape:window-maximized="0"
     inkscape:current-layer="Group 1" />
  <g
     inkscape:groupmode="layer"
     inkscape:label="Group 3"
     id="Group 3" />
  <g
     inkscape:groupmode="layer"
     inkscape:label="Group 2"
     id="Group 2" />
  <g
     inkscape:groupmode="layer"
     inkscape:label="Group 1"
     id="Group 1">
    <g
       id="g4626"
       transform="matrix(1.3253798,0,0,1.3253798,-164.5653,-166.91985)">
      <g
         transform="translate(0,38.592591)"
         id="g4552">
        <path
           d="m 265,466 c 0,0 494,0 494,0 0,0 0,253 0,253 0,0 -494,0 -494,0 0,0 0,-253 0,-253 z"
           style="fill:#000000;fill-rule:nonzero;stroke:none"
           inkscape:label="Shape 1"
           id="Shape 1"
           inkscape:connector-curvature="0" />
        <path
           d="m 301,527 c 0,0 422,0 422,0 0,0 0,10 0,10 0,0 -422,0 -422,0 0,0 0,-10 0,-10 z"
           style="fill:#ffffff;fill-rule:nonzero;stroke:none"
           inkscape:label="Shape 2"
           id="Shape 2"
           inkscape:connector-curvature="0" />
        <path
           d="m 411.99994,530 c 0,0 0,54 0,54 0,0 -10,0 -10,0 0,0 0,-54 0,-54 0,0 10,0 10,0 z"
           style="fill:#ffffff;fill-rule:nonzero;stroke:none"
           inkscape:label="Shape 2 copy 3"
           id="Shape 2 copy 3"
           inkscape:connector-curvature="0" />
        <path
           d="m 517,530 c 0,0 0,54 0,54 0,0 -10.00006,0 -10.00006,0 0,0 0,-54 0,-54 0,0 10.00006,0 10.00006,0 z"
           style="fill:#ffffff;fill-rule:nonzero;stroke:none"
           inkscape:label="Shape 2 copy 4"
           id="Shape 2 copy 4"
           inkscape:connector-curvature="0" />
        <path
           d="m 301,579 c 0,0 422,0 422,0 0,0 0,10 0,10 0,0 -422,0 -422,0 0,0 0,-10 0,-10 z"
           style="fill:#ffffff;fill-rule:nonzero;stroke:none"
           inkscape:label="Shape 2 copy"
           id="Shape 2 copy"
           inkscape:connector-curvature="0" />
        <path
           d="m 301,631 c 0,0 422,0 422,0 0,0 0,10 0,10 0,0 -422,0 -422,0 0,0 0,-10 0,-10 z"
           style="fill:#ffffff;fill-rule:nonzero;stroke:none"
           inkscape:label="Shape 2 copy 2"
           id="Shape 2 copy 2"
           inkscape:connector-curvature="0" />
      </g>
      <path
         id="Shape 3"
         inkscape:label="Shape 3"
         style="fill:#000000;fill-rule:nonzero;stroke:none"
         d="m 249,429.59253 c 0,0 526,0 526,0 0,0 0,77 0,77 0,0 -526,0 -526,0 0,0 0,-77 0,-77 z"
         inkscape:connector-curvature="0" />
      <path
         id="Shape 4"
         inkscape:label="Shape 4"
         style="fill:#ffffff;fill-rule:nonzero;stroke:none"
         d="m 662,438.59259 c 0,0 46,0 46,0 0,0 22,59 22,59 0,0 -46,0 -46,0 0,0 -22,-59 -22,-59 z"
         inkscape:connector-curvature="0" />
      <path
         id="Shape 4 copy 2"
         inkscape:label="Shape 4 copy 2"
         style="fill:#ffffff;fill-rule:nonzero;stroke:none"
         d="m 570,438.59259 c 0,0 46,0 46,0 0,0 22,59 22,59 0,0 -46,0 -46,0 0,0 -22,-59 -22,-59 z"
         inkscape:connector-curvature="0" />
      <path
         id="Shape 4 copy 4"
         inkscape:label="Shape 4 copy 4"
         style="fill:#ffffff;fill-rule:nonzero;stroke:none"
         d="m 478,438.59259 c 0,0 46,0 46,0 0,0 22,59 22,59 0,0 -46,0 -46,0 0,0 -22,-59 -22,-59 z"
         inkscape:connector-curvature="0" />
      <path
         id="Shape 4 copy 6"
         inkscape:label="Shape 4 copy 6"
         style="fill:#ffffff;fill-rule:nonzero;stroke:none"
         d="m 386,438.59259 c 0,0 46,0 46,0 0,0 22,59 22,59 0,0 -46,0 -46,0 0,0 -22,-59 -22,-59 z"
         inkscape:connector-curvature="0" />
      <path
         id="Shape 4 copy 8"
         inkscape:label="Shape 4 copy 8"
         style="fill:#ffffff;fill-rule:nonzero;stroke:none"
         d="m 294,438.59259 c 0,0 46,0 46,0 0,0 22,59 22,59 0,0 -46,0 -46,0 0,0 -22,-59 -22,-59 z"
         inkscape:connector-curvature="0" />
      <path
         id="Shape 3 copy"
         inkscape:label="Shape 3 copy"
         style="fill:#000000;fill-rule:nonzero;stroke:none"
         d="m 249,429.59259 c 0,0 519.05353,-85.20203 519.05353,-85.20203 0,0 -12.47254,-75.98315 -12.47254,-75.98315 0,0 -519.05359,85.20203 -519.05359,85.20203 0,0 12.4726,75.98315 12.4726,75.98315 z"
         inkscape:connector-curvature="0" />
      <path
         id="Shape 4 copy"
         inkscape:label="Shape 4 copy"
         style="fill:#ffffff;fill-rule:nonzero;stroke:none"
         d="m 655.08801,353.81329 c 0,0 45.39252,-7.45117 45.39252,-7.45117 0,0 12.15259,-61.78442 12.15259,-61.78442 0,0 -45.39252,7.45117 -45.39252,7.45117 0,0 -12.15259,61.78442 -12.15259,61.78442 z"
         inkscape:connector-curvature="0" />
      <path
         id="Shape 4 copy 3"
         inkscape:label="Shape 4 copy 3"
         style="fill:#ffffff;fill-rule:nonzero;stroke:none"
         d="m 564.30298,368.71551 c 0,0 45.39252,-7.45111 45.39252,-7.45111 0,0 12.15258,-61.78442 12.15258,-61.78442 0,0 -45.39251,7.45111 -45.39251,7.45111 0,0 -12.15259,61.78442 -12.15259,61.78442 z"
         inkscape:connector-curvature="0" />
      <path
         id="Shape 4 copy 5"
         inkscape:label="Shape 4 copy 5"
         style="fill:#ffffff;fill-rule:nonzero;stroke:none"
         d="m 473.51794,383.61774 c 0,0 45.39252,-7.45111 45.39252,-7.45111 0,0 12.15259,-61.78443 12.15259,-61.78443 0,0 -45.39252,7.45117 -45.39252,7.45117 0,0 -12.15259,61.78437 -12.15259,61.78437 z"
         inkscape:connector-curvature="0" />
      <path
         id="Shape 4 copy 7"
         inkscape:label="Shape 4 copy 7"
         style="fill:#ffffff;fill-rule:nonzero;stroke:none"
         d="m 382.73291,398.52002 c 0,0 45.39252,-7.45111 45.39252,-7.45111 0,0 12.15258,-61.78443 12.15258,-61.78443 0,0 -45.39251,7.45112 -45.39251,7.45112 0,0 -12.15259,61.78442 -12.15259,61.78442 z"
         inkscape:connector-curvature="0" />
      <path
         id="Shape 4 copy 9"
         inkscape:label="Shape 4 copy 9"
         style="fill:#ffffff;fill-rule:nonzero;stroke:none"
         d="m 291.94788,413.42224 c 0,0 45.39251,-7.45111 45.39251,-7.45111 0,0 12.15259,-61.78442 12.15259,-61.78442 0,0 -45.39252,7.45117 -45.39252,7.45117 0,0 -12.15258,61.78436 -12.15258,61.78436 z"
         inkscape:connector-curvature="0" />
    </g>
  </g>
</svg>
