<?xml version="1.0" encoding="UTF-8" standalone="no"?>
<!-- Created with Inkscape (http://www.inkscape.org/) -->

<svg
   xmlns:dc="http://purl.org/dc/elements/1.1/"
   xmlns:cc="http://creativecommons.org/ns#"
   xmlns:rdf="http://www.w3.org/1999/02/22-rdf-syntax-ns#"
   xmlns:svg="http://www.w3.org/2000/svg"
   xmlns="http://www.w3.org/2000/svg"
   xmlns:sodipodi="http://sodipodi.sourceforge.net/DTD/sodipodi-0.dtd"
   xmlns:inkscape="http://www.inkscape.org/namespaces/inkscape"
   width="700"
   height="700"
   viewBox="0 0 185.20833 185.20834"
   version="1.1"
   id="svg4634"
   inkscape:version="0.92.1 r15371"
   sodipodi:docname="nologic.svg">
  <defs
     id="defs4628" />
  <sodipodi:namedview
     id="base"
     pagecolor="#ffffff"
     bordercolor="#666666"
     borderopacity="1.0"
     inkscape:pageopacity="0.0"
     inkscape:pageshadow="2"
     inkscape:zoom="0.7"
     inkscape:cx="388.46049"
     inkscape:cy="380.92933"
     inkscape:document-units="mm"
     inkscape:current-layer="layer1"
     showgrid="false"
     inkscape:snap-global="false"
     inkscape:snap-intersection-paths="false"
     inkscape:object-paths="false"
     inkscape:snap-nodes="true"
     inkscape:object-nodes="true"
     units="px"
     inkscape:window-width="1117"
     inkscape:window-height="730"
     inkscape:window-x="171"
     inkscape:window-y="0"
     inkscape:window-maximized="0" />
  <metadata
     id="metadata4631">
    <rdf:RDF>
      <cc:Work
         rdf:about="">
        <dc:format>image/svg+xml</dc:format>
        <dc:type
           rdf:resource="http://purl.org/dc/dcmitype/StillImage" />
        <dc:title></dc:title>
      </cc:Work>
    </rdf:RDF>
  </metadata>
  <g
     inkscape:label="Layer 1"
     inkscape:groupmode="layer"
     id="layer1"
     transform="translate(0,-111.79165)">
    <g
       id="g4832"
       transform="matrix(0.65458943,0,0,0.65458943,15.916323,110.57067)">
      <path
         inkscape:connector-curvature="0"
         id="path4806"
         d="m 105.10955,166.19898 2.99164,10.79357 3.02381,8.88244 6.80357,6.61458 8.50446,4.53572 6.99256,9.4494 11.90625,0.37798 6.23661,-4.15774 -6.01909,-17.20311 9.60986,1.13912 13.98512,-6.2366 13.41816,-13.22917 -1.98272,-12.81525 -14.60541,1.79903 -7.79134,1.7558 -7.17575,-1.48853 -13.09621,7.21627 -10.91107,5.23357 -11.80683,-2.82814 -10.08362,0.16106"
         style="fill:#f0d78b;fill-opacity:1;stroke:none;stroke-width:0.26458332px;stroke-linecap:butt;stroke-linejoin:miter;stroke-opacity:1" />
      <path
         inkscape:connector-curvature="0"
         id="path4658"
         d="m 116.52951,81.84802 c 0,0 7.48355,-2.939963 13.09621,-2.405425 5.61266,0.53454 9.6217,1.603618 13.63074,4.009043 4.00905,2.405425 7.48355,5.879931 7.48355,5.879931 0,0 4.81085,-0.267272 8.8199,2.405425 4.00904,2.672693 7.21627,7.216277 7.21627,7.216277 0,0 6.41447,1.870889 9.88897,6.949009 3.47451,5.07812 3.47451,7.75081 3.47451,7.75081 0,0 4.81085,1.06908 6.1472,6.94901 1.33635,5.87993 -0.53454,11.22532 -0.53454,11.22532 0,0 2.13816,6.68174 1.33635,13.36348 -0.80181,6.68174 -4.81085,8.55262 -8.8199,10.15624 -4.00904,1.60362 -12.2944,0.80181 -12.2944,0.80181 0,0 -2.67269,2.40542 -8.01808,2.13815 -5.34539,-0.26726 -6.94901,-1.87088 -6.94901,-1.87088 0,0 -2.40542,2.67269 -6.41447,4.81085 -4.00904,2.13816 -6.68174,2.40542 -6.68174,2.40542 0,0 -5.07812,5.07813 -11.49259,5.07813 -6.41446,0 -11.22531,-2.6727 -11.22531,-2.6727 0,0 -7.21628,1.33635 -15.234368,-0.80181 -8.018084,-2.13815 -12.828937,-6.1472 -12.828937,-6.1472 0,0 -4.543581,0.80181 -10.156243,0.26727 -5.612659,-0.53454 -9.087162,-2.93996 -9.087162,-2.93996 0,0 -8.018087,1.06907 -13.096208,-1.60362 -5.078121,-2.6727 -6.681737,-5.34539 -7.483546,-10.69078 -0.80181,-5.34539 0.53454,-10.69078 0.53454,-10.69078 0,0 -1.603618,-5.61266 -0.267271,-11.49259 1.336349,-5.87993 6.681739,-9.6217 6.681739,-9.6217 0,0 2.939963,-9.08717 8.552625,-14.432557 5.612659,-5.34539 12.027127,-6.414468 12.027127,-6.414468 0,0 1.603618,-2.939966 6.414468,-4.810853 4.810853,-1.870887 7.750818,0 7.750818,0 0,0 1.069078,-2.939965 4.81085,-4.009043 3.741775,-1.069078 6.949008,-0.267269 6.949008,-0.267269 0,0 2.6727,-2.405425 6.94901,-2.405425 4.27631,0 8.81989,1.870885 8.81989,1.870885 z"
         style="fill:#f0908b;fill-opacity:1;stroke:#000000;stroke-width:6.61458349;stroke-linecap:round;stroke-linejoin:round;stroke-miterlimit:4;stroke-dasharray:none;stroke-opacity:1" />
      <path
         inkscape:connector-curvature="0"
         id="path4660"
         d="m 89.00075,86.65887 c 0,0 3.474505,5.078124 4.009046,8.018089 0.534537,2.939963 0,5.612661 0,5.612661 0,0 -1.069078,1.60362 -2.939966,2.40542 -1.870887,0.80181 -4.009043,1.33635 -4.009043,1.33635"
         style="fill:none;stroke:#000000;stroke-width:6.61458349;stroke-linecap:round;stroke-linejoin:round;stroke-miterlimit:4;stroke-dasharray:none;stroke-opacity:1" />
      <path
         inkscape:connector-curvature="0"
         id="path4662"
         d="m 93.009796,100.28962 c 0,0 2.939962,2.13815 5.078118,2.13815 2.138156,0 3.741776,-0.26726 3.741776,-0.26726"
         style="fill:none;stroke:#000000;stroke-width:6.61458349;stroke-linecap:round;stroke-linejoin:round;stroke-miterlimit:4;stroke-dasharray:none;stroke-opacity:1" />
      <path
         inkscape:connector-curvature="0"
         id="path4664"
         d="m 116.52951,81.84802 c 0,0 -0.53454,7.483549 0.53454,12.828939 1.06908,5.345391 3.74177,7.750811 2.40543,10.690781 -1.33635,2.93996 -1.60362,5.07812 -4.81085,6.94901 -3.20724,1.87088 -5.07813,1.33634 -5.07813,1.33634"
         style="fill:none;stroke:#000000;stroke-width:6.61458349;stroke-linecap:round;stroke-linejoin:round;stroke-miterlimit:4;stroke-dasharray:none;stroke-opacity:1" />
      <path
         inkscape:connector-curvature="0"
         id="path4666"
         d="m 118.46865,99.1931 c 0,0 2.06991,1.36379 3.94079,1.89833 1.87089,0.53453 4.27632,0.53453 4.27632,0.53453"
         style="fill:none;stroke:#000000;stroke-width:6.61458349;stroke-linecap:round;stroke-linejoin:round;stroke-miterlimit:4;stroke-dasharray:none;stroke-opacity:1" />
      <path
         inkscape:connector-curvature="0"
         id="path4668"
         d="m 150.74001,89.331569 c 0,0 -1.06908,5.34539 -4.27631,8.285353 -3.20724,2.939968 -5.61266,4.009038 -5.61266,4.009038"
         style="fill:none;stroke:#000000;stroke-width:6.61458349;stroke-linecap:round;stroke-linejoin:round;stroke-miterlimit:4;stroke-dasharray:none;stroke-opacity:1" />
      <path
         inkscape:connector-curvature="0"
         id="path4670"
         d="m 166.77618,98.953268 c 0,0 -3.20723,7.750822 -6.41446,9.888972 -3.20724,2.13816 -4.00905,2.6727 -5.87994,2.40543 -1.87088,-0.26727 -2.93996,-1.33635 -2.93996,-1.33635"
         style="fill:none;stroke:#000000;stroke-width:6.61458349;stroke-linecap:round;stroke-linejoin:round;stroke-miterlimit:4;stroke-dasharray:none;stroke-opacity:1" />
      <path
         inkscape:connector-curvature="0"
         id="path4672"
         d="m 161.37824,107.98859 c 0,0 0.85436,2.45727 1.92344,4.32816 1.06908,1.87088 2.93996,3.4745 2.93996,3.4745"
         style="fill:none;stroke:#000000;stroke-width:6.61458349;stroke-linecap:round;stroke-linejoin:round;stroke-miterlimit:4;stroke-dasharray:none;stroke-opacity:1" />
      <path
         inkscape:connector-curvature="0"
         id="path4674"
         d="m 185.75232,131.82742 c 0,0 -4.27631,0.80181 -8.55262,0.53454 -4.27632,-0.26727 -6.68174,-1.87089 -6.68174,-1.87089"
         style="fill:none;stroke:#000000;stroke-width:6.61458349;stroke-linecap:round;stroke-linejoin:round;stroke-miterlimit:4;stroke-dasharray:none;stroke-opacity:1" />
      <path
         inkscape:connector-curvature="0"
         id="path4676"
         d="m 165.97437,156.14895 c 0,0 -2.40542,-4.00905 -2.40542,-7.48355 0,-3.4745 2.40542,-5.61266 2.40542,-5.61266"
         style="fill:none;stroke:#000000;stroke-width:6.61458349;stroke-linecap:round;stroke-linejoin:round;stroke-miterlimit:4;stroke-dasharray:none;stroke-opacity:1" />
      <path
         inkscape:connector-curvature="0"
         id="path4678"
         d="m 137.91107,163.63249 c 0,0 -2.93996,-5.61265 -2.93996,-8.81989 0,-3.20723 0.80181,-4.27631 0.80181,-4.27631"
         style="fill:none;stroke:#000000;stroke-width:6.61458349;stroke-linecap:round;stroke-linejoin:round;stroke-miterlimit:4;stroke-dasharray:none;stroke-opacity:1" />
      <path
         inkscape:connector-curvature="0"
         id="path4680"
         d="m 115.19317,166.03792 c 0,0 -1.60362,-8.81989 0.26726,-13.09621 1.87089,-4.27631 4.27632,-5.07812 4.27632,-5.07812"
         style="fill:none;stroke:#000000;stroke-width:6.61458349;stroke-linecap:round;stroke-linejoin:round;stroke-miterlimit:4;stroke-dasharray:none;stroke-opacity:1" />
      <path
         inkscape:connector-curvature="0"
         id="path4682"
         d="m 87.129865,159.08891 c 0,0 -0.267269,-7.21627 2.138156,-9.35443 2.405425,-2.13816 4.810853,-2.13816 4.810853,-2.13816"
         style="fill:none;stroke:#000000;stroke-width:6.61458349;stroke-linecap:round;stroke-linejoin:round;stroke-miterlimit:4;stroke-dasharray:none;stroke-opacity:1" />
      <path
         inkscape:connector-curvature="0"
         id="path4684"
         d="m 47.841246,133.43104 c 0,0 4.276312,-2.40543 8.285353,-1.33635 4.009043,1.06908 4.810852,2.93997 4.810852,2.93997"
         style="fill:none;stroke:#000000;stroke-width:6.61458349;stroke-linecap:round;stroke-linejoin:round;stroke-miterlimit:4;stroke-dasharray:none;stroke-opacity:1" />
      <path
         inkscape:connector-curvature="0"
         id="path4686"
         d="m 54.255714,112.31675 c 0,0 4.81085,6.41447 10.15624,6.68174 5.345391,0.26726 9.888974,-1.33635 15.768902,-2.40543 5.879931,-1.06908 8.819896,0 10.690783,1.33635 1.870885,1.33634 2.939963,3.4745 2.939963,3.4745"
         style="fill:none;stroke:#000000;stroke-width:6.61458349;stroke-linecap:round;stroke-linejoin:round;stroke-miterlimit:4;stroke-dasharray:none;stroke-opacity:1" />
      <path
         inkscape:connector-curvature="0"
         id="path4688"
         d="m 74.733414,117.73654 c 0,0 1.70567,-2.7471 1.70567,-4.88525 0,-2.13816 -0.53454,-4.27632 -0.53454,-4.27632"
         style="fill:none;stroke:#000000;stroke-width:6.61458349;stroke-linecap:round;stroke-linejoin:round;stroke-miterlimit:4;stroke-dasharray:none;stroke-opacity:1" />
      <path
         inkscape:connector-curvature="0"
         id="path4690"
         d="m 124.5476,118.73122 c 0,0 -1.60362,6.41446 2.13816,9.35443 3.74177,2.93996 8.81989,3.74177 8.81989,3.74177"
         style="fill:none;stroke:#000000;stroke-width:6.61458349;stroke-linecap:round;stroke-linejoin:round;stroke-miterlimit:4;stroke-dasharray:none;stroke-opacity:1" />
      <path
         inkscape:connector-curvature="0"
         id="path4692"
         d="m 126.50587,127.93818 c 0,0 -0.35465,4.69105 -4.09643,6.82921 -3.74177,2.13815 -6.1472,0.26727 -6.1472,0.26727"
         style="fill:none;stroke:#000000;stroke-width:6.61458349;stroke-linecap:round;stroke-linejoin:round;stroke-miterlimit:4;stroke-dasharray:none;stroke-opacity:1" />
      <path
         inkscape:connector-curvature="0"
         id="path4694"
         d="m 145.39462,122.47299 c 0,0 9.35443,3.4745 8.01809,9.35443 -1.33635,5.87993 -7.75082,9.08717 -7.75082,9.08717"
         style="fill:none;stroke:#000000;stroke-width:6.61458349;stroke-linecap:round;stroke-linejoin:round;stroke-miterlimit:4;stroke-dasharray:none;stroke-opacity:1" />
      <path
         inkscape:connector-curvature="0"
         id="path4696"
         d="m 151.88987,135.3544 c 0,0 1.79011,1.81841 3.92826,2.35295 2.13816,0.53454 4.00904,0.26727 4.00904,0.26727"
         style="fill:none;stroke:#000000;stroke-width:6.61458349;stroke-linecap:round;stroke-linejoin:round;stroke-miterlimit:4;stroke-dasharray:none;stroke-opacity:1" />
      <path
         inkscape:connector-curvature="0"
         id="path4698"
         d="m 65.748304,147.06179 c 0,0 0,-1.33635 1.870885,-2.6727 1.870887,-1.33635 2.672696,-1.60362 6.681739,-3.4745 4.009044,-1.87089 2.939966,-8.55263 2.939966,-8.55263 0,0 1.870886,8.55263 7.216277,7.21628 5.34539,-1.33635 9.888972,-5.61266 9.888972,-5.61266"
         style="fill:none;stroke:#000000;stroke-width:6.61458349;stroke-linecap:round;stroke-linejoin:round;stroke-miterlimit:4;stroke-dasharray:none;stroke-opacity:1" />
      <path
         inkscape:connector-curvature="0"
         id="path4700"
         d="m 180.57978,154.34992 c 0,0 3.03438,3.40265 2.23257,8.2135 -0.8018,4.81085 -2.40542,8.01808 -7.21627,12.2944 -4.81085,4.27631 -13.36348,10.95804 -19.77795,11.75985 -6.41447,0.80181 -11.75986,0 -14.69982,-5.87992 -2.93996,-5.87993 -1.05654,-17.59857 -1.05654,-17.59857"
         style="fill:none;stroke:#000000;stroke-width:6.61458349;stroke-linecap:round;stroke-linejoin:round;stroke-miterlimit:4;stroke-dasharray:none;stroke-opacity:1" />
      <path
         inkscape:connector-curvature="0"
         id="path4702"
         d="m 145.54936,185.49182 c 0,0 3.31977,7.80759 4.65611,11.54937 1.33635,3.74177 1.60362,3.74177 1.06908,5.61265 -0.53454,1.87089 -4.81085,4.00905 -8.81989,4.27632 -4.00905,0.26727 -7.21628,1.06908 -9.35444,-1.06908 -2.13815,-2.13816 -3.4745,-7.21628 -9.08716,-10.42351 -5.61266,-3.20723 -9.35443,-2.93997 -13.09621,-9.08717 -3.74177,-6.14719 -5.8073,-20.15142 -5.8073,-20.15142"
         style="fill:none;stroke:#000000;stroke-width:6.61458349;stroke-linecap:round;stroke-linejoin:round;stroke-miterlimit:4;stroke-dasharray:none;stroke-opacity:1" />
    </g>
    <path
       style="opacity:1;fill:#ff0000;fill-opacity:1;stroke:#000000;stroke-width:4.98938322;stroke-linecap:round;stroke-linejoin:round;stroke-miterlimit:4;stroke-dasharray:none;stroke-opacity:1"
       d="m 148.20022,148.79976 a 78.624594,78.624594 0 0 0 -111.192108,0 78.624594,78.624594 0 0 0 0,111.19211 78.624594,78.624594 0 0 0 111.192108,0 78.624594,78.624594 0 0 0 0,-111.19211 z m -4.68772,14.07007 a 65.699998,65.699998 0 0 1 -4.45139,87.98293 65.699998,65.699998 0 0 1 -87.935722,4.40418 z m -9.42921,-9.33548 -92.387105,92.3871 a 65.699998,65.699998 0 0 1 4.451033,-87.98258 65.699998,65.699998 0 0 1 87.936072,-4.40452 z"
       id="path4834"
       inkscape:connector-curvature="0" />
  </g>
</svg>
