<?xml version="1.0" encoding="UTF-8" standalone="no"?>
<svg
   xmlns:dc="http://purl.org/dc/elements/1.1/"
   xmlns:cc="http://creativecommons.org/ns#"
   xmlns:rdf="http://www.w3.org/1999/02/22-rdf-syntax-ns#"
   xmlns:svg="http://www.w3.org/2000/svg"
   xmlns="http://www.w3.org/2000/svg"
   xmlns:sodipodi="http://sodipodi.sourceforge.net/DTD/sodipodi-0.dtd"
   xmlns:inkscape="http://www.inkscape.org/namespaces/inkscape"
   width="800"
   height="800"
   version="1.1"
   id="svg4500"
   sodipodi:docname="valentine.svg"
   inkscape:version="0.92.1 r15371">
  <metadata
     id="metadata4506">
    <rdf:RDF>
      <cc:Work
         rdf:about="">
        <dc:format>image/svg+xml</dc:format>
        <dc:type
           rdf:resource="http://purl.org/dc/dcmitype/StillImage" />
        <dc:title></dc:title>
      </cc:Work>
    </rdf:RDF>
  </metadata>
  <defs
     id="defs4504" />
  <sodipodi:namedview
     pagecolor="#ffffff"
     bordercolor="#666666"
     borderopacity="1"
     objecttolerance="10"
     gridtolerance="10"
     guidetolerance="10"
     inkscape:pageopacity="0"
     inkscape:pageshadow="2"
     inkscape:window-width="1122"
     inkscape:window-height="730"
     id="namedview4502"
     showgrid="false"
     inkscape:zoom="0.72375"
     inkscape:cx="400"
     inkscape:cy="400"
     inkscape:window-x="166"
     inkscape:window-y="0"
     inkscape:window-maximized="0"
     inkscape:current-layer="svg4500" />
  <path
     d="M -10.389566,-10.389566 C -10.389566,-10.389566 810.389566,-10.389566 810.389566,-10.389566 C 810.389566,-10.389566 810.389566,810.389566 810.389566,810.389566 C 810.389566,810.389566 -10.389566,810.389566 -10.389566,810.389566 C -10.389566,810.389566 -10.389566,-10.389566 -10.389566,-10.389566 Z"
     fill-rule="nonzero"
     style="stroke: none; fill: rgb(119, 50, 142)"
     inkscape:label="Shape 2"
     id="Shape 2"
     display="none" />
  <path
     d="M 180.469894,283.717918 C 141.518831,219.281101 176.626015,153.589725 243.253613,138.205099 C 309.881258,122.820473 335.507298,176.666641 347.999954,176.666641 C 360.492659,176.666641 386.118698,122.820473 452.746296,138.205099 C 519.373941,153.589725 554.481125,219.281101 515.530062,283.717918 C 467.481279,363.205099 359.211349,452.948713 347.999954,452.948713 C 336.788607,452.948713 228.518677,363.205099 180.469894,283.717918 Z"
     fill-rule="nonzero"
     style="stroke: none; fill: rgb(0, 255, 11)"
     inkscape:label="Shape 1"
     id="Shape 1"
     display="none"
     opacity="0.501961" />
  <path
     d="M 145.607376,384.102058 C 86.460590,286.255455 139.770460,186.503839 240.943813,163.142443 C 342.117167,139.781094 381.029987,221.545887 399.999952,221.545887 C 418.969965,221.545887 457.882786,139.781094 559.056139,163.142443 C 660.229492,186.503839 713.539362,286.255455 654.392576,384.102058 C 581.431007,504.802513 417.024326,641.077137 399.999952,641.077137 C 382.975626,641.077137 218.568945,504.802513 145.607376,384.102058 Z"
     fill-rule="nonzero"
     style="stroke: none; fill: rgb(0, 255, 11)"
     inkscape:label="Shape 1 copy"
     id="Shape 1 copy"
     display="none"
     opacity="0.501961" />
  <path
     d="M 356.044912,576.252604 C 182.323170,523.124075 138.959789,356.013966 258.988762,287.049198 C 342.770529,238.910961 425.937843,295.547819 439.504576,290.111542 C 450.773954,285.595798 424.792862,220.502901 490.849352,221.383524 C 546.641016,222.127295 609.206343,267.108870 640.038490,330.688477 C 684.075737,421.498489 723.863506,588.904381 719.820166,599.962711 C 714.857006,613.536596 530.912876,629.731703 356.044912,576.252604 Z"
     fill-rule="nonzero"
     style="stroke: none; fill: rgb(173, 0, 255)"
     inkscape:label="Shape 1 copy 4"
     id="Shape 1 copy 4"
     display="none" />
  <path
     d="M 646.447945,578.861237 C 645.472860,584.994173 644.494390,588.921070 643.577480,590.135765 C 638.607073,596.720743 605.591345,635.990429 598.497868,645.388174 C 589.790726,656.923723 409.123373,618.752527 257.463408,516.585684 C 145.530081,441.181040 120.769358,326.592112 170.762300,259.968853 C 171.743441,258.661270 172.753429,257.372189 173.792076,256.102228 C 191.066313,234.981441 165.047550,267.507792 218.404818,201.424456 C 219.398069,200.194263 220.418024,198.981810 221.464586,197.787666 C 224.657202,194.144821 228.097534,190.672207 231.783152,187.386560 C 247.915220,173.005152 653.016567,537.546539 646.447945,578.861237 Z"
     fill-rule="nonzero"
     style="stroke: none; fill: rgb(211, 127, 150)"
     inkscape:label="Shape 1 copy 6"
     id="Shape 1 copy 6" />
  <path
     d="M 302.543020,461.333275 C 151.877117,359.836149 159.150887,187.344790 294.077730,156.395864 C 388.258410,134.793139 451.285410,213.228655 465.847921,211.986637 C 477.944469,210.954952 472.082996,141.114092 535.009193,161.226988 C 588.156986,178.214455 634.878349,239.491510 645.821333,309.300089 C 661.451101,409.006882 650.671005,580.738068 643.577480,590.135765 C 634.870338,601.671314 454.202986,563.500118 302.543020,461.333275 Z"
     fill-rule="nonzero"
     style="stroke: none; fill: rgb(238, 161, 181)"
     inkscape:label="Shape 1 copy 2"
     id="Shape 1 copy 2" />
  <path
     d="M 311.820793,452.118778 C 167.382765,353.185892 173.660421,187.450790 302.293873,157.181883 C 393.025684,135.831738 454.548264,212.314081 468.689060,211.094952 C 480.492592,210.077333 474.636745,141.683483 536.248589,161.238241 C 588.426304,177.798748 634.468031,238.042974 645.142365,306.655407 C 660.282421,403.972626 649.440145,571.544886 642.383146,580.658007 C 633.907127,591.603518 458.395720,552.515411 311.820793,452.118778 Z"
     fill-rule="nonzero"
     style="stroke: none; fill: rgb(248, 187, 203)"
     inkscape:label="Shape 1 copy 3"
     id="Shape 1 copy 3" />
  <path
     style="stroke: none; fill: rgb(235, 30, 118)"
     d="M 475.78906 258.12109 C 474.03865 258.16904 472.13 258.38206 470.06055 258.76172 L 450.48242 262.35352 C 447.75282 262.85429 446.12421 264.00044 445.61914 265.79102 C 445.11126 267.59117 445.69806 270.28119 447.37891 273.85742 L 476.02734 334.81055 C 477.67401 338.31416 479.44095 340.66509 481.32422 341.85938 C 483.19805 343.04832 485.43317 343.16375 488.01562 342.2168 L 505.16406 335.92773 C 507.999 334.88823 510.3571 333.7911 512.25195 332.63281 C 514.12979 331.48592 515.62496 330.15268 516.74219 328.63281 C 518.47368 326.15111 519.27436 323.00519 519.16016 319.19531 C 519.04705 315.41089 518.02513 311.47252 516.09375 307.36328 C 511.91718 298.4769 505.71814 293.42604 497.31055 292.17969 C 501.00217 287.32024 501.08047 281.23711 497.60742 273.84766 C 496.59734 271.6986 495.38524 269.71367 493.96875 267.88867 C 492.54959 266.06053 490.97416 264.44349 489.24023 263.03711 C 487.49883 261.62567 485.73217 260.51622 483.93945 259.71094 C 481.81347 258.74005 479.66285 258.21102 477.48633 258.12891 C 476.93768 258.10845 476.37253 258.10511 475.78906 258.12109 z M 476.70898 270.72266 C 478.42938 270.70914 479.94175 270.91344 481.25391 271.33008 C 483.8561 272.1573 486.04713 274.47475 487.83984 278.28906 C 488.67979 280.0762 489.12566 281.76531 489.17969 283.36133 C 489.33328 285.59188 488.81956 287.26125 487.63477 288.37305 C 486.44177 289.49218 484.42234 290.41816 481.55469 291.15039 L 470.71094 293.91797 L 461.10156 273.47266 L 470.92188 271.41406 C 473.0603 270.96591 474.98859 270.73617 476.70898 270.72266 z M 493.69336 301.18555 C 495.35498 301.20492 496.869 301.51086 498.23633 302.09766 C 500.94886 303.26233 503.18828 305.73867 504.97266 309.53516 C 508.46115 316.95746 506.59905 321.88224 499.21289 324.37109 L 486.96484 328.49805 L 476.11133 305.41016 L 488.25781 301.98633 C 490.22138 301.43289 492.03174 301.16617 493.69336 301.18555 z "
     id="BE MINE" />
  <path
     d="M 535.981321,256.497097 C 536.219120,255.394125 535.965538,254.052114 535.220766,252.467489 C 534.490442,250.913572 533.553410,249.722385 532.406902,248.891926 C 531.256676,248.058701 529.957819,247.773600 528.506279,248.039913 C 528.506279,248.039913 502.956820,252.727127 502.956820,252.727127 C 501.502752,252.993870 500.444031,253.517723 499.785185,254.299021 C 499.124050,255.084229 498.882294,256.186676 499.064159,257.607365 C 499.245834,259.030914 499.834251,260.801411 500.827837,262.915516 C 500.827837,262.915516 526.497221,317.531347 526.497221,317.531347 C 527.988005,320.703220 529.534149,322.833443 531.130743,323.916578 C 532.720327,324.995947 534.559107,325.149775 536.637211,324.387789 C 536.637211,324.387789 560.964632,315.467310 560.964632,315.467310 C 562.286139,314.982748 563.043499,314.123440 563.241863,312.889528 C 563.439465,311.660624 563.166571,310.256195 562.423038,308.674240 C 561.651039,307.031727 560.699368,305.830622 559.565735,305.067968 C 558.428192,304.303598 557.191563,304.143143 555.853176,304.591846 C 555.853176,304.591846 534.907532,311.613846 534.907532,311.613846 C 534.907532,311.613846 525.409460,291.405058 525.409460,291.405058 C 525.409460,291.405058 544.573164,286.008501 544.573164,286.008501 C 545.936871,285.624456 546.711779,284.858561 546.904039,283.711433 C 547.095728,282.567930 546.832085,281.233120 546.112919,279.702950 C 545.394087,278.173542 544.486237,277.027941 543.386984,276.263618 C 542.284060,275.497723 541.054869,275.285053 539.695311,275.630045 C 539.695311,275.630045 520.307350,280.549526 520.307350,280.549526 C 520.307350,280.549526 512.107563,263.103151 512.107563,263.103151 C 512.107563,263.103151 533.474255,258.610058 533.474255,258.610058 C 534.909105,258.308363 535.742760,257.603598 535.981321,256.497097 Z"
     fill-rule="nonzero"
     style="stroke: none; fill: rgb(235, 30, 118)"
     inkscape:label="BE MINE copy"
     id="BE MINE copy" />
  <path
     d="M 502.742147,454.171562 C 503.831387,455.624104 504.966593,456.855154 506.147194,457.865191 C 507.324743,458.874178 508.601284,459.499741 509.974766,459.745121 C 511.342335,459.989500 512.713194,459.664297 514.085865,458.773994 C 515.894127,457.601213 516.987038,456.025982 517.374706,454.049015 C 517.760611,452.080965 517.762995,450.180721 517.383718,448.342752 C 517.004967,446.509123 516.308069,443.698549 515.294647,439.916420 C 515.294647,439.916420 499.980354,382.959604 499.980354,382.959604 C 499.980354,382.959604 526.226711,438.803148 526.226711,438.803148 C 527.679110,441.893339 529.233170,443.914890 530.884838,444.864082 C 532.528830,445.809507 534.057760,445.820522 535.470390,444.904280 C 536.968136,443.932867 537.798500,442.403984 537.968922,440.319061 C 538.138580,438.242722 537.513399,435.697746 536.093950,432.677650 C 536.093950,432.677650 506.691217,370.118427 506.691217,370.118427 C 505.069017,366.666889 503.340816,364.610767 501.498890,363.945484 C 499.646425,363.277578 497.615862,363.403893 495.399427,364.334679 C 495.399427,364.334679 491.754866,365.865231 491.754866,365.865231 C 489.534807,366.797543 488.041592,367.757750 487.287283,368.743038 C 486.529779,369.732571 486.245966,371.060944 486.438704,372.727585 C 486.631775,374.397659 487.188101,377.019119 488.108921,380.594444 C 488.108921,380.594444 500.837183,430.585241 500.837183,430.585241 C 500.837183,430.585241 469.977999,388.714027 469.977999,388.714027 C 467.687035,385.588360 465.914011,383.376503 464.661217,382.085276 C 463.405657,380.791283 462.074661,380.088663 460.665417,379.979134 C 459.249830,379.869127 457.269812,380.347204 454.711676,381.421518 C 454.711676,381.421518 450.400066,383.232164 450.400066,383.232164 C 447.707367,384.362984 445.867252,385.946703 444.896269,387.983036 C 443.918800,390.033436 444.347143,393.017578 446.185207,396.928310 C 446.185207,396.928310 479.499865,467.810822 479.499865,467.810822 C 481.127453,471.273851 482.908487,473.487711 484.837103,474.447203 C 486.755800,475.402594 488.596106,475.306273 490.353394,474.166536 C 492.155266,472.997856 493.197393,471.227360 493.488312,468.857098 C 493.777895,466.497660 493.138170,463.653946 491.570139,460.317707 C 491.570139,460.317707 463.233852,400.027514 463.233852,400.027514 C 463.233852,400.027514 499.348354,449.612999 499.348354,449.612999 C 500.520229,451.198769 501.651239,452.718306 502.742147,454.171562 Z"
     fill-rule="nonzero"
     style="stroke: none; fill: rgb(235, 30, 118)"
     inkscape:label="BE MINE copy 2"
     id="BE MINE copy 2" />
  <path
     d="M 547.647953,433.868313 C 549.328899,434.871960 550.877523,434.911442 552.291250,433.994532 C 553.760338,433.041716 554.575539,431.493998 554.743719,429.353714 C 554.910660,427.223206 554.256344,424.590921 552.779913,421.449661 C 552.779913,421.449661 524.674082,361.649799 524.674082,361.649799 C 523.198080,358.509350 521.613407,356.377792 519.915962,355.251837 C 518.210793,354.121923 516.557455,353.886414 514.954329,354.554033 C 513.387203,355.206585 512.473536,356.532955 512.220192,358.536482 C 511.965132,360.549259 512.585449,363.149643 514.080906,366.331482 C 514.080906,366.331482 542.868376,427.581596 542.868376,427.581596 C 544.363832,430.763435 545.958900,432.860565 547.647953,433.868313 Z"
     fill-rule="nonzero"
     style="stroke: none; fill: rgb(235, 30, 118)"
     inkscape:label="BE MINE copy 3"
     id="BE MINE copy 3" />
  <path
     d="M 541.589928,349.684572 C 540.564680,348.734570 539.648724,347.992897 538.843012,347.460032 C 538.035345,346.927071 537.220526,346.573257 536.397457,346.400261 C 535.572338,346.227551 534.719849,346.322918 533.840799,346.688986 C 532.714319,347.158098 531.884766,348.076487 531.355476,349.446821 C 530.823183,350.823593 530.700827,352.366161 530.990696,354.072237 C 531.284475,355.617619 532.005215,357.611179 533.152819,360.052872 C 533.152819,360.052872 560.193157,417.585611 560.193157,417.585611 C 561.516333,420.400953 562.919331,422.293854 564.399433,423.262548 C 565.873241,424.227762 567.252779,424.290705 568.535709,423.458624 C 569.769669,422.658300 570.438576,421.287966 570.547771,419.351912 C 570.656538,417.423582 570.055199,415.067530 568.744850,412.279558 C 568.744850,412.279558 548.645306,369.514418 548.645306,369.514418 C 548.645306,369.514418 584.714985,402.062368 584.714985,402.062368 C 585.680866,402.901316 586.632967,403.713751 587.571621,404.500484 C 588.508415,405.286121 589.415741,405.911922 590.293789,406.377983 C 591.169405,406.843805 591.978455,407.071590 592.721653,407.063818 C 593.461800,407.055569 594.186497,406.821871 594.894600,406.362629 C 597.699213,404.543591 597.682810,400.658846 594.876194,394.687319 C 594.876194,394.687319 569.726992,341.178226 569.726992,341.178226 C 568.491220,338.548946 567.216444,336.724854 565.900087,335.702944 C 564.578962,334.678364 563.306141,334.418535 562.080383,334.928989 C 560.885048,335.426760 560.244751,336.491919 560.163736,338.126040 C 560.082340,339.766932 560.672188,341.930199 561.932564,344.611835 C 561.932564,344.611835 581.331015,385.885334 581.331015,385.885334 C 581.331015,385.885334 544.769192,352.649546 544.769192,352.649546 C 543.672895,351.621342 542.613220,350.633192 541.589928,349.684572 Z"
     fill-rule="nonzero"
     style="stroke: none; fill: rgb(235, 30, 118)"
     inkscape:label="BE MINE copy 4"
     id="BE MINE copy 4" />
  <path
     d="M 603.696060,328.907967 C 603.814983,327.775717 603.528833,326.475859 602.837706,325.005388 C 602.159929,323.563337 601.341295,322.512579 600.379562,321.851587 C 599.414921,321.188593 598.367691,321.093178 597.235012,321.568823 C 597.235012,321.568823 577.388144,329.903555 577.388144,329.903555 C 576.263666,330.375767 575.466681,331.045771 575.000525,331.913280 C 574.532938,332.784796 574.415016,333.910179 574.650002,335.289907 C 574.884987,336.672258 575.461435,338.340044 576.377916,340.290022 C 576.377916,340.290022 600.055408,390.667772 600.055408,390.667772 C 601.430464,393.593502 602.783632,395.486069 604.111004,396.340847 C 605.433083,397.193193 606.894255,397.100782 608.488035,396.073723 C 608.488035,396.073723 627.234507,383.993196 627.234507,383.993196 C 628.257656,383.333921 628.808451,382.379246 628.890753,381.128645 C 628.972816,379.882765 628.668880,378.526640 627.978849,377.058458 C 627.262354,375.533962 626.429844,374.472141 625.479507,373.870611 C 624.526215,373.268032 623.531485,373.278284 622.493887,373.906708 C 622.493887,373.906708 606.320095,383.702326 606.320095,383.702326 C 606.320095,383.702326 597.543955,365.029621 597.543955,365.029621 C 597.543955,365.029621 612.371397,357.026815 612.371397,357.026815 C 613.430309,356.455278 613.997984,355.586433 614.079046,354.420185 C 614.159918,353.257275 613.866997,351.968002 613.199806,350.548410 C 612.532902,349.129486 611.739969,348.118782 610.818958,347.514105 C 609.895182,346.908474 608.906174,346.870613 607.849169,347.405052 C 607.849169,347.405052 592.829657,354.999208 592.829657,354.999208 C 592.829657,354.999208 585.253143,338.878870 585.253143,338.878870 C 585.253143,338.878870 601.841974,331.370974 601.841974,331.370974 C 602.960348,330.864811 603.576851,330.043697 603.696060,328.907967 Z"
     fill-rule="nonzero"
     style="stroke: none; fill: rgb(235, 30, 118)"
     inkscape:label="BE MINE copy 5"
     id="BE MINE copy 5" />
</svg>
